<?xml version="1.0" encoding="UTF-8" standalone="no"?>
<!DOCTYPE svg PUBLIC "-//W3C//DTD SVG 1.1//EN"
 "http://www.w3.org/Graphics/SVG/1.1/DTD/svg11.dtd">
<!-- Generated by graphviz version 2.43.0 (0)
 -->
<!-- Title: TEST Pages: 1 -->
<svg width="1733pt" height="875pt"
 viewBox="0.00 0.00 1733.33 874.66" xmlns="http://www.w3.org/2000/svg" xmlns:xlink="http://www.w3.org/1999/xlink">
<g id="graph0" class="graph" transform="scale(1 1) rotate(0) translate(4 870.66)">
<title>TEST</title>
<polygon fill="white" stroke="transparent" points="-4,4 -4,-870.66 1729.33,-870.66 1729.33,4 -4,4"/>
<text text-anchor="middle" x="862.66" y="-7.8" font-family="Times,serif" font-size="14.00">C_Mcfadden_model_GrpC</text>
<!-- Canola_1(1)
[0.628] -->
<g id="node1" class="node">
<title>Canola_1(1)
[0.628]</title>
<ellipse fill="none" stroke="black" cx="59.4" cy="-301.35" rx="59.29" ry="26.74"/>
<text text-anchor="middle" x="59.4" y="-305.15" font-family="Times,serif" font-size="14.00">Canola_1(1)</text>
<text text-anchor="middle" x="59.4" y="-290.15" font-family="Times,serif" font-size="14.00">[0.628]</text>
</g>
<!-- Channel(5)
[0.01] -->
<g id="node2" class="node">
<title>Channel(5)
[0.01]</title>
<ellipse fill="none" stroke="black" cx="859.4" cy="-211.61" rx="54.39" ry="26.74"/>
<text text-anchor="middle" x="859.4" y="-215.41" font-family="Times,serif" font-size="14.00">Channel(5)</text>
<text text-anchor="middle" x="859.4" y="-200.41" font-family="Times,serif" font-size="14.00">[0.01]</text>
</g>
<!-- Canola_1(1)
[0.628]&#45;&gt;Channel(5)
[0.01] -->
<g id="edge1" class="edge">
<title>Canola_1(1)
[0.628]&#45;&gt;Channel(5)
[0.01]</title>
<path fill="none" stroke="black" d="M102.88,-282.9C112.47,-279.63 122.67,-276.58 132.4,-274.48 372.9,-222.53 666.97,-213.8 794.87,-212.6"/>
<polygon fill="black" stroke="black" points="794.92,-216.1 804.89,-212.52 794.86,-209.1 794.92,-216.1"/>
</g>
<!-- Reservoir(22)
[0.08] -->
<g id="node3" class="node">
<title>Reservoir(22)
[0.08]</title>
<ellipse fill="none" stroke="black" cx="859.4" cy="-121.87" rx="65.11" ry="26.74"/>
<text text-anchor="middle" x="859.4" y="-125.67" font-family="Times,serif" font-size="14.00">Reservoir(22)</text>
<text text-anchor="middle" x="859.4" y="-110.67" font-family="Times,serif" font-size="14.00">[0.08]</text>
</g>
<!-- Channel(5)
[0.01]&#45;&gt;Reservoir(22)
[0.08] -->
<g id="edge2" class="edge">
<title>Channel(5)
[0.01]&#45;&gt;Reservoir(22)
[0.08]</title>
<path fill="none" stroke="black" d="M859.4,-184.29C859.4,-176.32 859.4,-167.43 859.4,-158.94"/>
<polygon fill="black" stroke="black" points="862.9,-158.87 859.4,-148.87 855.9,-158.87 862.9,-158.87"/>
</g>
<!-- basin -->
<g id="node4" class="node">
<title>basin</title>
<ellipse fill="none" stroke="black" cx="934.4" cy="-41" rx="29.5" ry="18"/>
<text text-anchor="middle" x="934.4" y="-37.3" font-family="Times,serif" font-size="14.00">basin</text>
</g>
<!-- Reservoir(22)
[0.08]&#45;&gt;basin -->
<g id="edge3" class="edge">
<title>Reservoir(22)
[0.08]&#45;&gt;basin</title>
<path fill="none" stroke="black" d="M882.72,-96.35C892.35,-86.21 903.45,-74.54 912.89,-64.61"/>
<polygon fill="black" stroke="black" points="915.69,-66.75 920.04,-57.09 910.62,-61.93 915.69,-66.75"/>
</g>
<!-- Canola_2(2)
[0.4801] -->
<g id="node5" class="node">
<title>Canola_2(2)
[0.4801]</title>
<ellipse fill="none" stroke="black" cx="121.4" cy="-391.09" rx="59.29" ry="26.74"/>
<text text-anchor="middle" x="121.4" y="-394.89" font-family="Times,serif" font-size="14.00">Canola_2(2)</text>
<text text-anchor="middle" x="121.4" y="-379.89" font-family="Times,serif" font-size="14.00">[0.4801]</text>
</g>
<!-- Canola_2(2)
[0.4801]&#45;&gt;Channel(5)
[0.01] -->
<g id="edge4" class="edge">
<title>Canola_2(2)
[0.4801]&#45;&gt;Channel(5)
[0.01]</title>
<path fill="none" stroke="black" d="M129.86,-364.41C140.34,-337.07 161.01,-294.96 194.4,-274.48 244.85,-243.53 637.86,-222.59 794.89,-215.38"/>
<polygon fill="black" stroke="black" points="795.51,-218.86 805.34,-214.91 795.19,-211.87 795.51,-218.86"/>
</g>
<!-- Canola_3(3)
[0.3007] -->
<g id="node6" class="node">
<title>Canola_3(3)
[0.3007]</title>
<ellipse fill="none" stroke="black" cx="159.4" cy="-480.83" rx="59.29" ry="26.74"/>
<text text-anchor="middle" x="159.4" y="-484.63" font-family="Times,serif" font-size="14.00">Canola_3(3)</text>
<text text-anchor="middle" x="159.4" y="-469.63" font-family="Times,serif" font-size="14.00">[0.3007]</text>
</g>
<!-- Canola_3(3)
[0.3007]&#45;&gt;Channel(5)
[0.01] -->
<g id="edge5" class="edge">
<title>Canola_3(3)
[0.3007]&#45;&gt;Channel(5)
[0.01]</title>
<path fill="none" stroke="black" d="M172.89,-454.35C178.42,-443.34 184.63,-430.2 189.4,-417.96 213.55,-355.93 181.01,-316.8 232.4,-274.48 275.21,-239.22 643.81,-220.99 795.05,-214.94"/>
<polygon fill="black" stroke="black" points="795.27,-218.44 805.13,-214.55 795,-211.44 795.27,-218.44"/>
</g>
<!-- Canola_4(4)
[0.0716] -->
<g id="node7" class="node">
<title>Canola_4(4)
[0.0716]</title>
<ellipse fill="none" stroke="black" cx="197.4" cy="-570.57" rx="59.29" ry="26.74"/>
<text text-anchor="middle" x="197.4" y="-574.37" font-family="Times,serif" font-size="14.00">Canola_4(4)</text>
<text text-anchor="middle" x="197.4" y="-559.37" font-family="Times,serif" font-size="14.00">[0.0716]</text>
</g>
<!-- Canola_4(4)
[0.0716]&#45;&gt;Channel(5)
[0.01] -->
<g id="edge6" class="edge">
<title>Canola_4(4)
[0.0716]&#45;&gt;Channel(5)
[0.01]</title>
<path fill="none" stroke="black" d="M211.55,-544.33C217.19,-533.36 223.3,-520.18 227.4,-507.7 260.24,-407.55 193.03,-346.06 270.4,-274.48 308.35,-239.36 650.38,-221.23 795.14,-215.08"/>
<polygon fill="black" stroke="black" points="795.37,-218.57 805.22,-214.65 795.08,-211.58 795.37,-218.57"/>
</g>
<!-- Forage_1(6)
[0.1259] -->
<g id="node8" class="node">
<title>Forage_1(6)
[0.1259]</title>
<ellipse fill="none" stroke="black" cx="235.4" cy="-660.31" rx="58.88" ry="26.74"/>
<text text-anchor="middle" x="235.4" y="-664.11" font-family="Times,serif" font-size="14.00">Forage_1(6)</text>
<text text-anchor="middle" x="235.4" y="-649.11" font-family="Times,serif" font-size="14.00">[0.1259]</text>
</g>
<!-- Forage_1(6)
[0.1259]&#45;&gt;Channel(5)
[0.01] -->
<g id="edge7" class="edge">
<title>Forage_1(6)
[0.1259]&#45;&gt;Channel(5)
[0.01]</title>
<path fill="none" stroke="black" d="M249.67,-634.11C255.33,-623.14 261.43,-609.96 265.4,-597.44 281.14,-547.81 284.4,-533.9 284.4,-481.83 284.4,-481.83 284.4,-481.83 284.4,-390.09 284.4,-337.61 269.61,-309.83 308.4,-274.48 343.81,-242.22 657.31,-222.72 795.01,-215.64"/>
<polygon fill="black" stroke="black" points="795.6,-219.12 805.41,-215.11 795.24,-212.13 795.6,-219.12"/>
</g>
<!-- Forage_2(7)
[0.1179] -->
<g id="node9" class="node">
<title>Forage_2(7)
[0.1179]</title>
<ellipse fill="none" stroke="black" cx="273.4" cy="-750.05" rx="58.88" ry="26.74"/>
<text text-anchor="middle" x="273.4" y="-753.85" font-family="Times,serif" font-size="14.00">Forage_2(7)</text>
<text text-anchor="middle" x="273.4" y="-738.85" font-family="Times,serif" font-size="14.00">[0.1179]</text>
</g>
<!-- Forage_2(7)
[0.1179]&#45;&gt;Channel(5)
[0.01] -->
<g id="edge8" class="edge">
<title>Forage_2(7)
[0.1179]&#45;&gt;Channel(5)
[0.01]</title>
<path fill="none" stroke="black" d="M287.67,-723.85C293.33,-712.88 299.43,-699.7 303.4,-687.18 319.14,-637.55 322.4,-623.64 322.4,-571.57 322.4,-571.57 322.4,-571.57 322.4,-390.09 322.4,-337.61 307.75,-309.98 346.4,-274.48 378.92,-244.6 664.94,-224.08 795.23,-216.2"/>
<polygon fill="black" stroke="black" points="795.69,-219.68 805.47,-215.59 795.28,-212.69 795.69,-219.68"/>
</g>
<!-- Forage_3(8)
[0.03885] -->
<g id="node10" class="node">
<title>Forage_3(8)
[0.03885]</title>
<ellipse fill="none" stroke="black" cx="360.4" cy="-839.79" rx="58.88" ry="26.74"/>
<text text-anchor="middle" x="360.4" y="-843.59" font-family="Times,serif" font-size="14.00">Forage_3(8)</text>
<text text-anchor="middle" x="360.4" y="-828.59" font-family="Times,serif" font-size="14.00">[0.03885]</text>
</g>
<!-- Forage_3(8)
[0.03885]&#45;&gt;Channel(5)
[0.01] -->
<g id="edge9" class="edge">
<title>Forage_3(8)
[0.03885]&#45;&gt;Channel(5)
[0.01]</title>
<path fill="none" stroke="black" d="M360.4,-812.63C360.4,-778.01 360.4,-715.08 360.4,-661.31 360.4,-661.31 360.4,-661.31 360.4,-390.09 360.4,-338.02 341.94,-310.66 379.4,-274.48 437.25,-218.6 677.08,-211.7 794.31,-211.77"/>
<polygon fill="black" stroke="black" points="794.57,-215.27 804.58,-211.79 794.59,-208.27 794.57,-215.27"/>
</g>
<!-- Forage_4(9)
[0.07591] -->
<g id="node11" class="node">
<title>Forage_4(9)
[0.07591]</title>
<ellipse fill="none" stroke="black" cx="447.4" cy="-301.35" rx="58.88" ry="26.74"/>
<text text-anchor="middle" x="447.4" y="-305.15" font-family="Times,serif" font-size="14.00">Forage_4(9)</text>
<text text-anchor="middle" x="447.4" y="-290.15" font-family="Times,serif" font-size="14.00">[0.07591]</text>
</g>
<!-- Forage_4(9)
[0.07591]&#45;&gt;Channel(5)
[0.01] -->
<g id="edge10" class="edge">
<title>Forage_4(9)
[0.07591]&#45;&gt;Channel(5)
[0.01]</title>
<path fill="none" stroke="black" d="M491.44,-283.47C500.9,-280.2 510.91,-277.01 520.4,-274.48 615.52,-249.12 728.42,-230.8 796.94,-220.95"/>
<polygon fill="black" stroke="black" points="797.73,-224.37 807.14,-219.5 796.74,-217.44 797.73,-224.37"/>
</g>
<!-- Forage_5(10)
[0.4119] -->
<g id="node12" class="node">
<title>Forage_5(10)
[0.4119]</title>
<ellipse fill="none" stroke="black" cx="480.4" cy="-391.09" rx="63.78" ry="26.74"/>
<text text-anchor="middle" x="480.4" y="-394.89" font-family="Times,serif" font-size="14.00">Forage_5(10)</text>
<text text-anchor="middle" x="480.4" y="-379.89" font-family="Times,serif" font-size="14.00">[0.4119]</text>
</g>
<!-- Forage_5(10)
[0.4119]&#45;&gt;Channel(5)
[0.01] -->
<g id="edge11" class="edge">
<title>Forage_5(10)
[0.4119]&#45;&gt;Channel(5)
[0.01]</title>
<path fill="none" stroke="black" d="M494.49,-364.66C511.83,-334.27 541.09,-286.06 558.4,-274.48 596.69,-248.84 720.36,-229.63 796.75,-219.85"/>
<polygon fill="black" stroke="black" points="797.25,-223.31 806.74,-218.59 796.38,-216.37 797.25,-223.31"/>
</g>
<!-- Forage_6(11)
[0.3253] -->
<g id="node13" class="node">
<title>Forage_6(11)
[0.3253]</title>
<ellipse fill="none" stroke="black" cx="518.4" cy="-480.83" rx="63.78" ry="26.74"/>
<text text-anchor="middle" x="518.4" y="-484.63" font-family="Times,serif" font-size="14.00">Forage_6(11)</text>
<text text-anchor="middle" x="518.4" y="-469.63" font-family="Times,serif" font-size="14.00">[0.3253]</text>
</g>
<!-- Forage_6(11)
[0.3253]&#45;&gt;Channel(5)
[0.01] -->
<g id="edge12" class="edge">
<title>Forage_6(11)
[0.3253]&#45;&gt;Channel(5)
[0.01]</title>
<path fill="none" stroke="black" d="M534.37,-454.6C540.86,-443.63 548.07,-430.45 553.4,-417.96 579.5,-356.72 547.93,-320.12 596.4,-274.48 624.9,-247.64 728.06,-229.5 796.39,-220.12"/>
<polygon fill="black" stroke="black" points="797.18,-223.55 806.62,-218.75 796.25,-216.61 797.18,-223.55"/>
</g>
<!-- Grazing_2(13)
[0.2064] -->
<g id="node14" class="node">
<title>Grazing_2(13)
[0.2064]</title>
<ellipse fill="none" stroke="black" cx="552.4" cy="-570.57" rx="67.76" ry="26.74"/>
<text text-anchor="middle" x="552.4" y="-574.37" font-family="Times,serif" font-size="14.00">Grazing_2(13)</text>
<text text-anchor="middle" x="552.4" y="-559.37" font-family="Times,serif" font-size="14.00">[0.2064]</text>
</g>
<!-- Grazing_2(13)
[0.2064]&#45;&gt;Channel(5)
[0.01] -->
<g id="edge13" class="edge">
<title>Grazing_2(13)
[0.2064]&#45;&gt;Channel(5)
[0.01]</title>
<path fill="none" stroke="black" d="M571.23,-544.55C578.54,-533.72 586.36,-520.59 591.4,-507.7 629.75,-409.52 563.14,-352.15 634.4,-274.48 656.34,-250.56 738.96,-232.35 797.7,-222.07"/>
<polygon fill="black" stroke="black" points="798.38,-225.5 807.64,-220.36 797.19,-218.6 798.38,-225.5"/>
</g>
<!-- Imperable(14)
[0.08351] -->
<g id="node15" class="node">
<title>Imperable(14)
[0.08351]</title>
<ellipse fill="none" stroke="black" cx="591.4" cy="-660.31" rx="67.35" ry="26.74"/>
<text text-anchor="middle" x="591.4" y="-664.11" font-family="Times,serif" font-size="14.00">Imperable(14)</text>
<text text-anchor="middle" x="591.4" y="-649.11" font-family="Times,serif" font-size="14.00">[0.08351]</text>
</g>
<!-- Imperable(14)
[0.08351]&#45;&gt;Channel(5)
[0.01] -->
<g id="edge14" class="edge">
<title>Imperable(14)
[0.08351]&#45;&gt;Channel(5)
[0.01]</title>
<path fill="none" stroke="black" d="M609.85,-634.27C617,-623.44 624.6,-610.32 629.4,-597.44 647.59,-548.65 648.4,-533.9 648.4,-481.83 648.4,-481.83 648.4,-481.83 648.4,-390.09 648.4,-337.61 637.48,-313.66 672.4,-274.48 703.51,-239.58 754.73,-224.31 795.7,-217.66"/>
<polygon fill="black" stroke="black" points="796.24,-221.12 805.61,-216.18 795.21,-214.19 796.24,-221.12"/>
</g>
<!-- Linola_1(15)
[0.6774] -->
<g id="node16" class="node">
<title>Linola_1(15)
[0.6774]</title>
<ellipse fill="none" stroke="black" cx="634.4" cy="-750.05" rx="62.45" ry="26.74"/>
<text text-anchor="middle" x="634.4" y="-753.85" font-family="Times,serif" font-size="14.00">Linola_1(15)</text>
<text text-anchor="middle" x="634.4" y="-738.85" font-family="Times,serif" font-size="14.00">[0.6774]</text>
</g>
<!-- Linola_1(15)
[0.6774]&#45;&gt;Channel(5)
[0.01] -->
<g id="edge15" class="edge">
<title>Linola_1(15)
[0.6774]&#45;&gt;Channel(5)
[0.01]</title>
<path fill="none" stroke="black" d="M650.16,-724.01C656.41,-713.07 663.1,-699.86 667.4,-687.18 684.09,-637.86 686.4,-623.64 686.4,-571.57 686.4,-571.57 686.4,-571.57 686.4,-390.09 686.4,-337.61 676.95,-314.92 710.4,-274.48 732.38,-247.89 767.7,-232.57 798.44,-223.82"/>
<polygon fill="black" stroke="black" points="799.48,-227.17 808.23,-221.21 797.67,-220.41 799.48,-227.17"/>
</g>
<!-- Linola_2(16)
[0.2709] -->
<g id="node17" class="node">
<title>Linola_2(16)
[0.2709]</title>
<ellipse fill="none" stroke="black" cx="724.4" cy="-839.79" rx="62.45" ry="26.74"/>
<text text-anchor="middle" x="724.4" y="-843.59" font-family="Times,serif" font-size="14.00">Linola_2(16)</text>
<text text-anchor="middle" x="724.4" y="-828.59" font-family="Times,serif" font-size="14.00">[0.2709]</text>
</g>
<!-- Linola_2(16)
[0.2709]&#45;&gt;Channel(5)
[0.01] -->
<g id="edge16" class="edge">
<title>Linola_2(16)
[0.2709]&#45;&gt;Channel(5)
[0.01]</title>
<path fill="none" stroke="black" d="M724.4,-812.63C724.4,-778.01 724.4,-715.08 724.4,-661.31 724.4,-661.31 724.4,-661.31 724.4,-390.09 724.4,-338.02 713.06,-316.8 743.4,-274.48 758.11,-253.95 781.79,-239.6 803.93,-229.93"/>
<polygon fill="black" stroke="black" points="805.38,-233.12 813.29,-226.07 802.71,-226.65 805.38,-233.12"/>
</g>
<!-- Linola_3(17)
[0.2262] -->
<g id="node18" class="node">
<title>Linola_3(17)
[0.2262]</title>
<ellipse fill="none" stroke="black" cx="814.4" cy="-301.35" rx="62.45" ry="26.74"/>
<text text-anchor="middle" x="814.4" y="-305.15" font-family="Times,serif" font-size="14.00">Linola_3(17)</text>
<text text-anchor="middle" x="814.4" y="-290.15" font-family="Times,serif" font-size="14.00">[0.2262]</text>
</g>
<!-- Linola_3(17)
[0.2262]&#45;&gt;Channel(5)
[0.01] -->
<g id="edge17" class="edge">
<title>Linola_3(17)
[0.2262]&#45;&gt;Channel(5)
[0.01]</title>
<path fill="none" stroke="black" d="M827.41,-274.97C831.89,-266.24 836.98,-256.32 841.76,-246.99"/>
<polygon fill="black" stroke="black" points="844.96,-248.43 846.41,-237.93 838.73,-245.23 844.96,-248.43"/>
</g>
<!-- Oat_1(18)
[1.224] -->
<g id="node19" class="node">
<title>Oat_1(18)
[1.224]</title>
<ellipse fill="none" stroke="black" cx="863.4" cy="-391.09" rx="50.82" ry="26.74"/>
<text text-anchor="middle" x="863.4" y="-394.89" font-family="Times,serif" font-size="14.00">Oat_1(18)</text>
<text text-anchor="middle" x="863.4" y="-379.89" font-family="Times,serif" font-size="14.00">[1.224]</text>
</g>
<!-- Oat_1(18)
[1.224]&#45;&gt;Channel(5)
[0.01] -->
<g id="edge18" class="edge">
<title>Oat_1(18)
[1.224]&#45;&gt;Channel(5)
[0.01]</title>
<path fill="none" stroke="black" d="M874.62,-364.73C878.9,-353.74 883.27,-340.58 885.4,-328.22 889.46,-304.68 890.12,-297.89 885.4,-274.48 883.56,-265.35 880.33,-255.89 876.77,-247.2"/>
<polygon fill="black" stroke="black" points="879.86,-245.53 872.65,-237.77 873.44,-248.33 879.86,-245.53"/>
</g>
<!-- Oat_2(19)
[0.0875] -->
<g id="node20" class="node">
<title>Oat_2(19)
[0.0875]</title>
<ellipse fill="none" stroke="black" cx="901.4" cy="-480.83" rx="50.82" ry="26.74"/>
<text text-anchor="middle" x="901.4" y="-484.63" font-family="Times,serif" font-size="14.00">Oat_2(19)</text>
<text text-anchor="middle" x="901.4" y="-469.63" font-family="Times,serif" font-size="14.00">[0.0875]</text>
</g>
<!-- Oat_2(19)
[0.0875]&#45;&gt;Channel(5)
[0.01] -->
<g id="edge19" class="edge">
<title>Oat_2(19)
[0.0875]&#45;&gt;Channel(5)
[0.01]</title>
<path fill="none" stroke="black" d="M912.62,-454.47C916.9,-443.48 921.27,-430.32 923.4,-417.96 927.46,-394.42 926.26,-387.93 923.4,-364.22 918.47,-323.45 918.08,-312 901.4,-274.48 896.96,-264.5 890.9,-254.4 884.77,-245.34"/>
<polygon fill="black" stroke="black" points="887.53,-243.17 878.92,-237 881.8,-247.19 887.53,-243.17"/>
</g>
<!-- Oat_3(20)
[0.05618] -->
<g id="node21" class="node">
<title>Oat_3(20)
[0.05618]</title>
<ellipse fill="none" stroke="black" cx="939.4" cy="-570.57" rx="50.82" ry="26.74"/>
<text text-anchor="middle" x="939.4" y="-574.37" font-family="Times,serif" font-size="14.00">Oat_3(20)</text>
<text text-anchor="middle" x="939.4" y="-559.37" font-family="Times,serif" font-size="14.00">[0.05618]</text>
</g>
<!-- Oat_3(20)
[0.05618]&#45;&gt;Channel(5)
[0.01] -->
<g id="edge20" class="edge">
<title>Oat_3(20)
[0.05618]&#45;&gt;Channel(5)
[0.01]</title>
<path fill="none" stroke="black" d="M950.62,-544.21C954.9,-533.22 959.27,-520.06 961.4,-507.7 979.24,-404.28 975.33,-366.24 924.4,-274.48 917.46,-261.98 907.15,-250.5 896.77,-240.91"/>
<polygon fill="black" stroke="black" points="899.07,-238.26 889.25,-234.27 894.43,-243.51 899.07,-238.26"/>
</g>
<!-- Pasture(21)
[0.1444] -->
<g id="node22" class="node">
<title>Pasture(21)
[0.1444]</title>
<ellipse fill="none" stroke="black" cx="972.4" cy="-660.31" rx="55.72" ry="26.74"/>
<text text-anchor="middle" x="972.4" y="-664.11" font-family="Times,serif" font-size="14.00">Pasture(21)</text>
<text text-anchor="middle" x="972.4" y="-649.11" font-family="Times,serif" font-size="14.00">[0.1444]</text>
</g>
<!-- Pasture(21)
[0.1444]&#45;&gt;Channel(5)
[0.01] -->
<g id="edge21" class="edge">
<title>Pasture(21)
[0.1444]&#45;&gt;Channel(5)
[0.01]</title>
<path fill="none" stroke="black" d="M985.16,-633.96C990.25,-622.97 995.75,-609.8 999.4,-597.44 1014.15,-547.5 1018.4,-533.9 1018.4,-481.83 1018.4,-481.83 1018.4,-481.83 1018.4,-390.09 1018.4,-321.16 951.03,-266.77 904,-237.2"/>
<polygon fill="black" stroke="black" points="905.83,-234.21 895.48,-231.96 902.17,-240.18 905.83,-234.21"/>
</g>
<!-- Riparian_5(23)
[0.05535] -->
<g id="node23" class="node">
<title>Riparian_5(23)
[0.05535]</title>
<ellipse fill="none" stroke="black" cx="996.4" cy="-750.05" rx="70.01" ry="26.74"/>
<text text-anchor="middle" x="996.4" y="-753.85" font-family="Times,serif" font-size="14.00">Riparian_5(23)</text>
<text text-anchor="middle" x="996.4" y="-738.85" font-family="Times,serif" font-size="14.00">[0.05535]</text>
</g>
<!-- Riparian_5(23)
[0.05535]&#45;&gt;Channel(5)
[0.01] -->
<g id="edge22" class="edge">
<title>Riparian_5(23)
[0.05535]&#45;&gt;Channel(5)
[0.01]</title>
<path fill="none" stroke="black" d="M1016.35,-724.21C1024.07,-713.41 1032.26,-700.26 1037.4,-687.18 1056.42,-638.71 1056.4,-623.64 1056.4,-571.57 1056.4,-571.57 1056.4,-571.57 1056.4,-390.09 1056.4,-331.36 1035.36,-314.53 992.4,-274.48 970.59,-254.16 940.92,-239.48 915.14,-229.54"/>
<polygon fill="black" stroke="black" points="916.07,-226.15 905.47,-225.96 913.64,-232.72 916.07,-226.15"/>
</g>
<!-- Riparian_1(24)
[0.9549] -->
<g id="node24" class="node">
<title>Riparian_1(24)
[0.9549]</title>
<ellipse fill="none" stroke="black" cx="1094.4" cy="-839.79" rx="70.01" ry="26.74"/>
<text text-anchor="middle" x="1094.4" y="-843.59" font-family="Times,serif" font-size="14.00">Riparian_1(24)</text>
<text text-anchor="middle" x="1094.4" y="-828.59" font-family="Times,serif" font-size="14.00">[0.9549]</text>
</g>
<!-- Riparian_1(24)
[0.9549]&#45;&gt;Channel(5)
[0.01] -->
<g id="edge23" class="edge">
<title>Riparian_1(24)
[0.9549]&#45;&gt;Channel(5)
[0.01]</title>
<path fill="none" stroke="black" d="M1094.4,-812.63C1094.4,-778.01 1094.4,-715.08 1094.4,-661.31 1094.4,-661.31 1094.4,-661.31 1094.4,-390.09 1094.4,-331.57 1075.83,-312.56 1031.4,-274.48 1000.01,-247.58 956.04,-232.04 920.41,-223.26"/>
<polygon fill="black" stroke="black" points="921.13,-219.83 910.6,-220.96 919.53,-226.65 921.13,-219.83"/>
</g>
<!-- Riparian_2(25)
[0.08087] -->
<g id="node25" class="node">
<title>Riparian_2(25)
[0.08087]</title>
<ellipse fill="none" stroke="black" cx="1192.4" cy="-301.35" rx="70.01" ry="26.74"/>
<text text-anchor="middle" x="1192.4" y="-305.15" font-family="Times,serif" font-size="14.00">Riparian_2(25)</text>
<text text-anchor="middle" x="1192.4" y="-290.15" font-family="Times,serif" font-size="14.00">[0.08087]</text>
</g>
<!-- Riparian_2(25)
[0.08087]&#45;&gt;Channel(5)
[0.01] -->
<g id="edge24" class="edge">
<title>Riparian_2(25)
[0.08087]&#45;&gt;Channel(5)
[0.01]</title>
<path fill="none" stroke="black" d="M1139.65,-283.62C1129.32,-280.48 1118.54,-277.3 1108.4,-274.48 1043.62,-256.47 968.67,-238.19 918.06,-226.22"/>
<polygon fill="black" stroke="black" points="918.81,-222.8 908.27,-223.91 917.2,-229.61 918.81,-222.8"/>
</g>
<!-- Riparian_3(26)
[0.114] -->
<g id="node26" class="node">
<title>Riparian_3(26)
[0.114]</title>
<ellipse fill="none" stroke="black" cx="1230.4" cy="-391.09" rx="70.01" ry="26.74"/>
<text text-anchor="middle" x="1230.4" y="-394.89" font-family="Times,serif" font-size="14.00">Riparian_3(26)</text>
<text text-anchor="middle" x="1230.4" y="-379.89" font-family="Times,serif" font-size="14.00">[0.114]</text>
</g>
<!-- Riparian_3(26)
[0.114]&#45;&gt;Channel(5)
[0.01] -->
<g id="edge25" class="edge">
<title>Riparian_3(26)
[0.114]&#45;&gt;Channel(5)
[0.01]</title>
<path fill="none" stroke="black" d="M1252.03,-365.35C1271.51,-339.98 1293.91,-300.62 1271.4,-274.48 1227.38,-223.36 1028.76,-213.89 924.21,-212.51"/>
<polygon fill="black" stroke="black" points="924.13,-209.01 914.09,-212.4 924.05,-216.01 924.13,-209.01"/>
</g>
<!-- Riparian_4(27)
[0.06911] -->
<g id="node27" class="node">
<title>Riparian_4(27)
[0.06911]</title>
<ellipse fill="none" stroke="black" cx="1268.4" cy="-480.83" rx="70.01" ry="26.74"/>
<text text-anchor="middle" x="1268.4" y="-484.63" font-family="Times,serif" font-size="14.00">Riparian_4(27)</text>
<text text-anchor="middle" x="1268.4" y="-469.63" font-family="Times,serif" font-size="14.00">[0.06911]</text>
</g>
<!-- Riparian_4(27)
[0.06911]&#45;&gt;Channel(5)
[0.01] -->
<g id="edge26" class="edge">
<title>Riparian_4(27)
[0.06911]&#45;&gt;Channel(5)
[0.01]</title>
<path fill="none" stroke="black" d="M1289.64,-455.06C1297.46,-444.38 1305.38,-431.29 1309.4,-417.96 1327.95,-356.37 1337.36,-318.44 1290.4,-274.48 1238.6,-226 1031.07,-215.35 924.01,-213.12"/>
<polygon fill="black" stroke="black" points="924.04,-209.62 913.97,-212.93 923.9,-216.62 924.04,-209.62"/>
</g>
<!-- Wheat_1(28)
[0.4409] -->
<g id="node28" class="node">
<title>Wheat_1(28)
[0.4409]</title>
<ellipse fill="none" stroke="black" cx="1313.4" cy="-570.57" rx="62.87" ry="26.74"/>
<text text-anchor="middle" x="1313.4" y="-574.37" font-family="Times,serif" font-size="14.00">Wheat_1(28)</text>
<text text-anchor="middle" x="1313.4" y="-559.37" font-family="Times,serif" font-size="14.00">[0.4409]</text>
</g>
<!-- Wheat_1(28)
[0.4409]&#45;&gt;Channel(5)
[0.01] -->
<g id="edge27" class="edge">
<title>Wheat_1(28)
[0.4409]&#45;&gt;Channel(5)
[0.01]</title>
<path fill="none" stroke="black" d="M1330.87,-544.6C1337.42,-533.78 1344.08,-520.64 1347.4,-507.7 1365.02,-439.05 1340.36,-294.13 1320.4,-274.48 1265.7,-220.65 1038.11,-212.65 924.5,-212.1"/>
<polygon fill="black" stroke="black" points="924.21,-208.6 914.2,-212.06 924.19,-215.6 924.21,-208.6"/>
</g>
<!-- Wheat_2(29)
[0.557] -->
<g id="node29" class="node">
<title>Wheat_2(29)
[0.557]</title>
<ellipse fill="none" stroke="black" cx="1351.4" cy="-660.31" rx="62.87" ry="26.74"/>
<text text-anchor="middle" x="1351.4" y="-664.11" font-family="Times,serif" font-size="14.00">Wheat_2(29)</text>
<text text-anchor="middle" x="1351.4" y="-649.11" font-family="Times,serif" font-size="14.00">[0.557]</text>
</g>
<!-- Wheat_2(29)
[0.557]&#45;&gt;Channel(5)
[0.01] -->
<g id="edge28" class="edge">
<title>Wheat_2(29)
[0.557]&#45;&gt;Channel(5)
[0.01]</title>
<path fill="none" stroke="black" d="M1367.66,-634.33C1374.1,-623.4 1380.99,-610.18 1385.4,-597.44 1402.4,-548.22 1404.4,-533.9 1404.4,-481.83 1404.4,-481.83 1404.4,-481.83 1404.4,-390.09 1404.4,-331.99 1391.14,-307.58 1343.4,-274.48 1276.83,-228.33 1039.65,-216.61 923.89,-213.63"/>
<polygon fill="black" stroke="black" points="923.83,-210.12 913.74,-213.38 923.66,-217.12 923.83,-210.12"/>
</g>
<!-- Wheat_3(30)
[0.854] -->
<g id="node30" class="node">
<title>Wheat_3(30)
[0.854]</title>
<ellipse fill="none" stroke="black" cx="1389.4" cy="-750.05" rx="62.87" ry="26.74"/>
<text text-anchor="middle" x="1389.4" y="-753.85" font-family="Times,serif" font-size="14.00">Wheat_3(30)</text>
<text text-anchor="middle" x="1389.4" y="-738.85" font-family="Times,serif" font-size="14.00">[0.854]</text>
</g>
<!-- Wheat_3(30)
[0.854]&#45;&gt;Channel(5)
[0.01] -->
<g id="edge29" class="edge">
<title>Wheat_3(30)
[0.854]&#45;&gt;Channel(5)
[0.01]</title>
<path fill="none" stroke="black" d="M1405.66,-724.07C1412.1,-713.14 1418.99,-699.92 1423.4,-687.18 1440.4,-637.96 1442.4,-623.64 1442.4,-571.57 1442.4,-571.57 1442.4,-571.57 1442.4,-390.09 1442.4,-332.2 1430.01,-307.4 1382.4,-274.48 1309.52,-224.1 1047.25,-214.54 924.11,-212.87"/>
<polygon fill="black" stroke="black" points="924.1,-209.37 914.06,-212.75 924.02,-216.37 924.1,-209.37"/>
</g>
<!-- Wheat_4(31)
[1.097] -->
<g id="node31" class="node">
<title>Wheat_4(31)
[1.097]</title>
<ellipse fill="none" stroke="black" cx="1480.4" cy="-839.79" rx="62.87" ry="26.74"/>
<text text-anchor="middle" x="1480.4" y="-843.59" font-family="Times,serif" font-size="14.00">Wheat_4(31)</text>
<text text-anchor="middle" x="1480.4" y="-828.59" font-family="Times,serif" font-size="14.00">[1.097]</text>
</g>
<!-- Wheat_4(31)
[1.097]&#45;&gt;Channel(5)
[0.01] -->
<g id="edge30" class="edge">
<title>Wheat_4(31)
[1.097]&#45;&gt;Channel(5)
[0.01]</title>
<path fill="none" stroke="black" d="M1480.4,-812.63C1480.4,-778.01 1480.4,-715.08 1480.4,-661.31 1480.4,-661.31 1480.4,-661.31 1480.4,-390.09 1480.4,-332.2 1468.14,-307.21 1420.4,-274.48 1341.22,-220.2 1054.59,-212.77 924.46,-212.27"/>
<polygon fill="black" stroke="black" points="924.25,-208.77 914.24,-212.24 924.23,-215.77 924.25,-208.77"/>
</g>
<!-- Wheat_5(32)
[0.4357] -->
<g id="node32" class="node">
<title>Wheat_5(32)
[0.4357]</title>
<ellipse fill="none" stroke="black" cx="1571.4" cy="-301.35" rx="62.87" ry="26.74"/>
<text text-anchor="middle" x="1571.4" y="-305.15" font-family="Times,serif" font-size="14.00">Wheat_5(32)</text>
<text text-anchor="middle" x="1571.4" y="-290.15" font-family="Times,serif" font-size="14.00">[0.4357]</text>
</g>
<!-- Wheat_5(32)
[0.4357]&#45;&gt;Channel(5)
[0.01] -->
<g id="edge31" class="edge">
<title>Wheat_5(32)
[0.4357]&#45;&gt;Channel(5)
[0.01]</title>
<path fill="none" stroke="black" d="M1525.04,-282.89C1515.05,-279.66 1504.46,-276.63 1494.4,-274.48 1289.1,-230.59 1039.73,-217.78 924.08,-214.08"/>
<polygon fill="black" stroke="black" points="924.08,-210.58 913.97,-213.77 923.86,-217.58 924.08,-210.58"/>
</g>
<!-- Wheat_6(33)
[0.2391] -->
<g id="node33" class="node">
<title>Wheat_6(33)
[0.2391]</title>
<ellipse fill="none" stroke="black" cx="1662.4" cy="-391.09" rx="62.87" ry="26.74"/>
<text text-anchor="middle" x="1662.4" y="-394.89" font-family="Times,serif" font-size="14.00">Wheat_6(33)</text>
<text text-anchor="middle" x="1662.4" y="-379.89" font-family="Times,serif" font-size="14.00">[0.2391]</text>
</g>
<!-- Wheat_6(33)
[0.2391]&#45;&gt;Channel(5)
[0.01] -->
<g id="edge32" class="edge">
<title>Wheat_6(33)
[0.2391]&#45;&gt;Channel(5)
[0.01]</title>
<path fill="none" stroke="black" d="M1666.41,-363.8C1668.82,-337.15 1667.66,-296.78 1643.4,-274.48 1590.89,-226.21 1101.82,-215.52 923.8,-213.22"/>
<polygon fill="black" stroke="black" points="923.84,-209.72 913.79,-213.1 923.75,-216.72 923.84,-209.72"/>
</g>
<!-- Grazing_1(12)
[0.1945] -->
<g id="node34" class="node">
<title>Grazing_1(12)
[0.1945]</title>
<ellipse fill="none" stroke="black" cx="1010.4" cy="-121.87" rx="67.76" ry="26.74"/>
<text text-anchor="middle" x="1010.4" y="-125.67" font-family="Times,serif" font-size="14.00">Grazing_1(12)</text>
<text text-anchor="middle" x="1010.4" y="-110.67" font-family="Times,serif" font-size="14.00">[0.1945]</text>
</g>
<!-- Grazing_1(12)
[0.1945]&#45;&gt;basin -->
<g id="edge33" class="edge">
<title>Grazing_1(12)
[0.1945]&#45;&gt;basin</title>
<path fill="none" stroke="black" d="M986.77,-96.35C976.91,-86.11 965.53,-74.31 955.91,-64.32"/>
<polygon fill="black" stroke="black" points="958.4,-61.87 948.94,-57.09 953.36,-66.72 958.4,-61.87"/>
</g>
</g>
</svg>
