<?xml version="1.0" encoding="UTF-8" standalone="no"?>
<!DOCTYPE svg PUBLIC "-//W3C//DTD SVG 1.1//EN"
 "http://www.w3.org/Graphics/SVG/1.1/DTD/svg11.dtd">
<!-- Generated by graphviz version 2.43.0 (0)
 -->
<!-- Title: TEST Pages: 1 -->
<svg width="2136pt" height="875pt"
 viewBox="0.00 0.00 2136.25 874.66" xmlns="http://www.w3.org/2000/svg" xmlns:xlink="http://www.w3.org/1999/xlink">
<g id="graph0" class="graph" transform="scale(1 1) rotate(0) translate(4 870.66)">
<title>TEST</title>
<polygon fill="white" stroke="transparent" points="-4,4 -4,-870.66 2132.25,-870.66 2132.25,4 -4,4"/>
<text text-anchor="middle" x="1064.12" y="-7.8" font-family="Times,serif" font-size="14.00">D_Turner_model_GrpD</text>
<!-- Alfalfa(1)
[0.135] -->
<g id="node1" class="node">
<title>Alfalfa(1)
[0.135]</title>
<ellipse fill="none" stroke="black" cx="50.2" cy="-301.35" rx="50.41" ry="26.74"/>
<text text-anchor="middle" x="50.2" y="-305.15" font-family="Times,serif" font-size="14.00">Alfalfa(1)</text>
<text text-anchor="middle" x="50.2" y="-290.15" font-family="Times,serif" font-size="14.00">[0.135]</text>
</g>
<!-- Channel(5)
[0.03] -->
<g id="node2" class="node">
<title>Channel(5)
[0.03]</title>
<ellipse fill="none" stroke="black" cx="993.2" cy="-211.61" rx="54.39" ry="26.74"/>
<text text-anchor="middle" x="993.2" y="-215.41" font-family="Times,serif" font-size="14.00">Channel(5)</text>
<text text-anchor="middle" x="993.2" y="-200.41" font-family="Times,serif" font-size="14.00">[0.03]</text>
</g>
<!-- Alfalfa(1)
[0.135]&#45;&gt;Channel(5)
[0.03] -->
<g id="edge1" class="edge">
<title>Alfalfa(1)
[0.135]&#45;&gt;Channel(5)
[0.03]</title>
<path fill="none" stroke="black" d="M87.13,-283.14C95.84,-279.73 105.21,-276.56 114.2,-274.48 269.29,-238.62 753.1,-220.18 928.7,-214.53"/>
<polygon fill="black" stroke="black" points="928.94,-218.03 938.82,-214.21 928.72,-211.03 928.94,-218.03"/>
</g>
<!-- Reservoir(38)
[0.035] -->
<g id="node3" class="node">
<title>Reservoir(38)
[0.035]</title>
<ellipse fill="none" stroke="black" cx="993.2" cy="-121.87" rx="65.11" ry="26.74"/>
<text text-anchor="middle" x="993.2" y="-125.67" font-family="Times,serif" font-size="14.00">Reservoir(38)</text>
<text text-anchor="middle" x="993.2" y="-110.67" font-family="Times,serif" font-size="14.00">[0.035]</text>
</g>
<!-- Channel(5)
[0.03]&#45;&gt;Reservoir(38)
[0.035] -->
<g id="edge2" class="edge">
<title>Channel(5)
[0.03]&#45;&gt;Reservoir(38)
[0.035]</title>
<path fill="none" stroke="black" d="M993.2,-184.29C993.2,-176.32 993.2,-167.43 993.2,-158.94"/>
<polygon fill="black" stroke="black" points="996.7,-158.87 993.2,-148.87 989.7,-158.87 996.7,-158.87"/>
</g>
<!-- basin -->
<g id="node4" class="node">
<title>basin</title>
<ellipse fill="none" stroke="black" cx="993.2" cy="-41" rx="29.5" ry="18"/>
<text text-anchor="middle" x="993.2" y="-37.3" font-family="Times,serif" font-size="14.00">basin</text>
</g>
<!-- Reservoir(38)
[0.035]&#45;&gt;basin -->
<g id="edge3" class="edge">
<title>Reservoir(38)
[0.035]&#45;&gt;basin</title>
<path fill="none" stroke="black" d="M993.2,-94.61C993.2,-86.51 993.2,-77.57 993.2,-69.39"/>
<polygon fill="black" stroke="black" points="996.7,-69.22 993.2,-59.22 989.7,-69.22 996.7,-69.22"/>
</g>
<!-- Barley_1(2)
[0.166] -->
<g id="node5" class="node">
<title>Barley_1(2)
[0.166]</title>
<ellipse fill="none" stroke="black" cx="104.2" cy="-391.09" rx="57.97" ry="26.74"/>
<text text-anchor="middle" x="104.2" y="-394.89" font-family="Times,serif" font-size="14.00">Barley_1(2)</text>
<text text-anchor="middle" x="104.2" y="-379.89" font-family="Times,serif" font-size="14.00">[0.166]</text>
</g>
<!-- Barley_1(2)
[0.166]&#45;&gt;Channel(5)
[0.03] -->
<g id="edge4" class="edge">
<title>Barley_1(2)
[0.166]&#45;&gt;Channel(5)
[0.03]</title>
<path fill="none" stroke="black" d="M112.38,-364.31C122.57,-336.88 142.84,-294.7 176.2,-274.48 239.94,-235.87 746.78,-219.01 928.59,-214.17"/>
<polygon fill="black" stroke="black" points="928.9,-217.66 938.8,-213.9 928.71,-210.66 928.9,-217.66"/>
</g>
<!-- Barley_2(3)
[0.00997] -->
<g id="node6" class="node">
<title>Barley_2(3)
[0.00997]</title>
<ellipse fill="none" stroke="black" cx="142.2" cy="-480.83" rx="57.97" ry="26.74"/>
<text text-anchor="middle" x="142.2" y="-484.63" font-family="Times,serif" font-size="14.00">Barley_2(3)</text>
<text text-anchor="middle" x="142.2" y="-469.63" font-family="Times,serif" font-size="14.00">[0.00997]</text>
</g>
<!-- Barley_2(3)
[0.00997]&#45;&gt;Channel(5)
[0.03] -->
<g id="edge5" class="edge">
<title>Barley_2(3)
[0.00997]&#45;&gt;Channel(5)
[0.03]</title>
<path fill="none" stroke="black" d="M155.06,-454.61C160.43,-443.53 166.51,-430.26 171.2,-417.96 194.95,-355.77 162.42,-316.31 214.2,-274.48 269.24,-230.02 751.79,-216.94 928.62,-213.62"/>
<polygon fill="black" stroke="black" points="928.89,-217.11 938.82,-213.43 928.76,-210.11 928.89,-217.11"/>
</g>
<!-- Barley_3(4)
[0.0428] -->
<g id="node7" class="node">
<title>Barley_3(4)
[0.0428]</title>
<ellipse fill="none" stroke="black" cx="180.2" cy="-570.57" rx="57.97" ry="26.74"/>
<text text-anchor="middle" x="180.2" y="-574.37" font-family="Times,serif" font-size="14.00">Barley_3(4)</text>
<text text-anchor="middle" x="180.2" y="-559.37" font-family="Times,serif" font-size="14.00">[0.0428]</text>
</g>
<!-- Barley_3(4)
[0.0428]&#45;&gt;Channel(5)
[0.03] -->
<g id="edge6" class="edge">
<title>Barley_3(4)
[0.0428]&#45;&gt;Channel(5)
[0.03]</title>
<path fill="none" stroke="black" d="M193.85,-544.28C199.31,-533.3 205.22,-520.13 209.2,-507.7 241.39,-407.33 174.08,-345.23 252.2,-274.48 301.82,-229.55 757.35,-216.81 928.56,-213.6"/>
<polygon fill="black" stroke="black" points="928.76,-217.09 938.69,-213.41 928.63,-210.09 928.76,-217.09"/>
</g>
<!-- Canola_1(6)
[0.0981] -->
<g id="node8" class="node">
<title>Canola_1(6)
[0.0981]</title>
<ellipse fill="none" stroke="black" cx="217.2" cy="-660.31" rx="59.29" ry="26.74"/>
<text text-anchor="middle" x="217.2" y="-664.11" font-family="Times,serif" font-size="14.00">Canola_1(6)</text>
<text text-anchor="middle" x="217.2" y="-649.11" font-family="Times,serif" font-size="14.00">[0.0981]</text>
</g>
<!-- Canola_1(6)
[0.0981]&#45;&gt;Channel(5)
[0.03] -->
<g id="edge7" class="edge">
<title>Canola_1(6)
[0.0981]&#45;&gt;Channel(5)
[0.03]</title>
<path fill="none" stroke="black" d="M231.47,-634.11C237.14,-623.14 243.23,-609.96 247.2,-597.44 262.95,-547.81 266.2,-533.9 266.2,-481.83 266.2,-481.83 266.2,-481.83 266.2,-390.09 266.2,-337.61 250.99,-309.36 290.2,-274.48 337.32,-232.58 763.23,-218.06 928.28,-213.98"/>
<polygon fill="black" stroke="black" points="928.85,-217.47 938.76,-213.72 928.68,-210.47 928.85,-217.47"/>
</g>
<!-- Canola_2(7)
[0.0532] -->
<g id="node9" class="node">
<title>Canola_2(7)
[0.0532]</title>
<ellipse fill="none" stroke="black" cx="255.2" cy="-750.05" rx="59.29" ry="26.74"/>
<text text-anchor="middle" x="255.2" y="-753.85" font-family="Times,serif" font-size="14.00">Canola_2(7)</text>
<text text-anchor="middle" x="255.2" y="-738.85" font-family="Times,serif" font-size="14.00">[0.0532]</text>
</g>
<!-- Canola_2(7)
[0.0532]&#45;&gt;Channel(5)
[0.03] -->
<g id="edge8" class="edge">
<title>Canola_2(7)
[0.0532]&#45;&gt;Channel(5)
[0.03]</title>
<path fill="none" stroke="black" d="M269.47,-723.85C275.14,-712.88 281.23,-699.7 285.2,-687.18 300.95,-637.55 304.2,-623.64 304.2,-571.57 304.2,-571.57 304.2,-571.57 304.2,-390.09 304.2,-337.61 289.08,-309.45 328.2,-274.48 372.4,-234.97 770.38,-219.1 928.68,-214.32"/>
<polygon fill="black" stroke="black" points="928.87,-217.81 938.76,-214.02 928.66,-210.82 928.87,-217.81"/>
</g>
<!-- Canola_3(8)
[0.196] -->
<g id="node10" class="node">
<title>Canola_3(8)
[0.196]</title>
<ellipse fill="none" stroke="black" cx="342.2" cy="-839.79" rx="59.29" ry="26.74"/>
<text text-anchor="middle" x="342.2" y="-843.59" font-family="Times,serif" font-size="14.00">Canola_3(8)</text>
<text text-anchor="middle" x="342.2" y="-828.59" font-family="Times,serif" font-size="14.00">[0.196]</text>
</g>
<!-- Canola_3(8)
[0.196]&#45;&gt;Channel(5)
[0.03] -->
<g id="edge9" class="edge">
<title>Canola_3(8)
[0.196]&#45;&gt;Channel(5)
[0.03]</title>
<path fill="none" stroke="black" d="M342.2,-812.63C342.2,-778.01 342.2,-715.08 342.2,-661.31 342.2,-661.31 342.2,-661.31 342.2,-390.09 342.2,-338.02 323.2,-310.08 361.2,-274.48 402.05,-236.21 775.82,-219.72 928.59,-214.54"/>
<polygon fill="black" stroke="black" points="928.89,-218.04 938.77,-214.2 928.66,-211.04 928.89,-218.04"/>
</g>
<!-- Canola_4(9)
[0.227] -->
<g id="node11" class="node">
<title>Canola_4(9)
[0.227]</title>
<ellipse fill="none" stroke="black" cx="429.2" cy="-301.35" rx="59.29" ry="26.74"/>
<text text-anchor="middle" x="429.2" y="-305.15" font-family="Times,serif" font-size="14.00">Canola_4(9)</text>
<text text-anchor="middle" x="429.2" y="-290.15" font-family="Times,serif" font-size="14.00">[0.227]</text>
</g>
<!-- Canola_4(9)
[0.227]&#45;&gt;Channel(5)
[0.03] -->
<g id="edge10" class="edge">
<title>Canola_4(9)
[0.227]&#45;&gt;Channel(5)
[0.03]</title>
<path fill="none" stroke="black" d="M473.14,-283.07C482.61,-279.82 492.65,-276.75 502.2,-274.48 652.68,-238.78 834.3,-222.69 928.87,-216.29"/>
<polygon fill="black" stroke="black" points="929.38,-219.76 939.13,-215.61 928.92,-212.78 929.38,-219.76"/>
</g>
<!-- Canola_5(10)
[0.0927] -->
<g id="node12" class="node">
<title>Canola_5(10)
[0.0927]</title>
<ellipse fill="none" stroke="black" cx="462.2" cy="-391.09" rx="64.19" ry="26.74"/>
<text text-anchor="middle" x="462.2" y="-394.89" font-family="Times,serif" font-size="14.00">Canola_5(10)</text>
<text text-anchor="middle" x="462.2" y="-379.89" font-family="Times,serif" font-size="14.00">[0.0927]</text>
</g>
<!-- Canola_5(10)
[0.0927]&#45;&gt;Channel(5)
[0.03] -->
<g id="edge11" class="edge">
<title>Canola_5(10)
[0.0927]&#45;&gt;Channel(5)
[0.03]</title>
<path fill="none" stroke="black" d="M476.03,-364.74C493.22,-334.17 522.47,-285.51 540.2,-274.48 603.7,-234.98 819.13,-220.11 928.44,-215.01"/>
<polygon fill="black" stroke="black" points="928.85,-218.5 938.68,-214.55 928.53,-211.5 928.85,-218.5"/>
</g>
<!-- Fall_rye_1(11)
[0.177] -->
<g id="node13" class="node">
<title>Fall_rye_1(11)
[0.177]</title>
<ellipse fill="none" stroke="black" cx="495.2" cy="-480.83" rx="69.09" ry="26.74"/>
<text text-anchor="middle" x="495.2" y="-484.63" font-family="Times,serif" font-size="14.00">Fall_rye_1(11)</text>
<text text-anchor="middle" x="495.2" y="-469.63" font-family="Times,serif" font-size="14.00">[0.177]</text>
</g>
<!-- Fall_rye_1(11)
[0.177]&#45;&gt;Channel(5)
[0.03] -->
<g id="edge12" class="edge">
<title>Fall_rye_1(11)
[0.177]&#45;&gt;Channel(5)
[0.03]</title>
<path fill="none" stroke="black" d="M513.64,-454.88C521.09,-443.95 529.31,-430.73 535.2,-417.96 563.11,-357.52 527.89,-318.07 578.2,-274.48 629.43,-230.11 825.4,-217.56 928.66,-214.01"/>
<polygon fill="black" stroke="black" points="928.78,-217.5 938.66,-213.68 928.55,-210.51 928.78,-217.5"/>
</g>
<!-- Forage_1(12)
[0.0579] -->
<g id="node14" class="node">
<title>Forage_1(12)
[0.0579]</title>
<ellipse fill="none" stroke="black" cx="538.2" cy="-570.57" rx="63.78" ry="26.74"/>
<text text-anchor="middle" x="538.2" y="-574.37" font-family="Times,serif" font-size="14.00">Forage_1(12)</text>
<text text-anchor="middle" x="538.2" y="-559.37" font-family="Times,serif" font-size="14.00">[0.0579]</text>
</g>
<!-- Forage_1(12)
[0.0579]&#45;&gt;Channel(5)
[0.03] -->
<g id="edge13" class="edge">
<title>Forage_1(12)
[0.0579]&#45;&gt;Channel(5)
[0.03]</title>
<path fill="none" stroke="black" d="M554.85,-544.6C561.45,-533.68 568.57,-520.46 573.2,-507.7 609.2,-408.64 540.95,-348.27 616.2,-274.48 659.44,-232.08 832.8,-218.69 928.66,-214.5"/>
<polygon fill="black" stroke="black" points="928.97,-217.99 938.82,-214.07 928.68,-210.99 928.97,-217.99"/>
</g>
<!-- Forage_2(13)
[0.0255] -->
<g id="node15" class="node">
<title>Forage_2(13)
[0.0255]</title>
<ellipse fill="none" stroke="black" cx="576.2" cy="-660.31" rx="63.78" ry="26.74"/>
<text text-anchor="middle" x="576.2" y="-664.11" font-family="Times,serif" font-size="14.00">Forage_2(13)</text>
<text text-anchor="middle" x="576.2" y="-649.11" font-family="Times,serif" font-size="14.00">[0.0255]</text>
</g>
<!-- Forage_2(13)
[0.0255]&#45;&gt;Channel(5)
[0.03] -->
<g id="edge14" class="edge">
<title>Forage_2(13)
[0.0255]&#45;&gt;Channel(5)
[0.03]</title>
<path fill="none" stroke="black" d="M592.97,-634.39C599.6,-623.47 606.69,-610.24 611.2,-597.44 628.51,-548.33 630.2,-533.9 630.2,-481.83 630.2,-481.83 630.2,-481.83 630.2,-390.09 630.2,-337.61 616.65,-311.14 654.2,-274.48 692.35,-237.25 841.64,-221.87 928.87,-215.96"/>
<polygon fill="black" stroke="black" points="929.18,-219.45 938.93,-215.31 928.72,-212.47 929.18,-219.45"/>
</g>
<!-- Forage_3(14)
[0.147] -->
<g id="node16" class="node">
<title>Forage_3(14)
[0.147]</title>
<ellipse fill="none" stroke="black" cx="614.2" cy="-750.05" rx="63.78" ry="26.74"/>
<text text-anchor="middle" x="614.2" y="-753.85" font-family="Times,serif" font-size="14.00">Forage_3(14)</text>
<text text-anchor="middle" x="614.2" y="-738.85" font-family="Times,serif" font-size="14.00">[0.147]</text>
</g>
<!-- Forage_3(14)
[0.147]&#45;&gt;Channel(5)
[0.03] -->
<g id="edge15" class="edge">
<title>Forage_3(14)
[0.147]&#45;&gt;Channel(5)
[0.03]</title>
<path fill="none" stroke="black" d="M630.97,-724.13C637.6,-713.21 644.69,-699.98 649.2,-687.18 666.51,-638.07 668.2,-623.64 668.2,-571.57 668.2,-571.57 668.2,-571.57 668.2,-390.09 668.2,-337.61 655.06,-311.55 692.2,-274.48 724.91,-241.84 851.17,-225.04 929.4,-217.59"/>
<polygon fill="black" stroke="black" points="930,-221.05 939.64,-216.65 929.36,-214.08 930,-221.05"/>
</g>
<!-- Grazing_1(15)
[0.113] -->
<g id="node17" class="node">
<title>Grazing_1(15)
[0.113]</title>
<ellipse fill="none" stroke="black" cx="706.2" cy="-839.79" rx="67.76" ry="26.74"/>
<text text-anchor="middle" x="706.2" y="-843.59" font-family="Times,serif" font-size="14.00">Grazing_1(15)</text>
<text text-anchor="middle" x="706.2" y="-828.59" font-family="Times,serif" font-size="14.00">[0.113]</text>
</g>
<!-- Grazing_1(15)
[0.113]&#45;&gt;Channel(5)
[0.03] -->
<g id="edge16" class="edge">
<title>Grazing_1(15)
[0.113]&#45;&gt;Channel(5)
[0.03]</title>
<path fill="none" stroke="black" d="M706.2,-812.63C706.2,-778.01 706.2,-715.08 706.2,-661.31 706.2,-661.31 706.2,-661.31 706.2,-390.09 706.2,-338.02 689.58,-312.46 725.2,-274.48 752.68,-245.18 859.78,-227.67 929.98,-219.11"/>
<polygon fill="black" stroke="black" points="930.54,-222.57 940.06,-217.91 929.72,-215.62 930.54,-222.57"/>
</g>
<!-- Grazing_2(16)
[0.0966] -->
<g id="node18" class="node">
<title>Grazing_2(16)
[0.0966]</title>
<ellipse fill="none" stroke="black" cx="802.2" cy="-301.35" rx="67.76" ry="26.74"/>
<text text-anchor="middle" x="802.2" y="-305.15" font-family="Times,serif" font-size="14.00">Grazing_2(16)</text>
<text text-anchor="middle" x="802.2" y="-290.15" font-family="Times,serif" font-size="14.00">[0.0966]</text>
</g>
<!-- Grazing_2(16)
[0.0966]&#45;&gt;Channel(5)
[0.03] -->
<g id="edge17" class="edge">
<title>Grazing_2(16)
[0.0966]&#45;&gt;Channel(5)
[0.03]</title>
<path fill="none" stroke="black" d="M845.55,-280.44C875.17,-266.83 914.45,-248.79 945.05,-234.73"/>
<polygon fill="black" stroke="black" points="946.63,-237.86 954.25,-230.5 943.7,-231.5 946.63,-237.86"/>
</g>
<!-- Impervious(17)
[0.0808] -->
<g id="node19" class="node">
<title>Impervious(17)
[0.0808]</title>
<ellipse fill="none" stroke="black" cx="837.2" cy="-391.09" rx="71.34" ry="26.74"/>
<text text-anchor="middle" x="837.2" y="-394.89" font-family="Times,serif" font-size="14.00">Impervious(17)</text>
<text text-anchor="middle" x="837.2" y="-379.89" font-family="Times,serif" font-size="14.00">[0.0808]</text>
</g>
<!-- Impervious(17)
[0.0808]&#45;&gt;Channel(5)
[0.03] -->
<g id="edge18" class="edge">
<title>Impervious(17)
[0.0808]&#45;&gt;Channel(5)
[0.03]</title>
<path fill="none" stroke="black" d="M854.68,-364.99C875.09,-335.93 907.86,-290.06 922.2,-274.48 932.82,-262.95 945.44,-251.37 957.08,-241.41"/>
<polygon fill="black" stroke="black" points="959.55,-243.91 964.94,-234.79 955.04,-238.55 959.55,-243.91"/>
</g>
<!-- Oat_1(18)
[0.0284] -->
<g id="node20" class="node">
<title>Oat_1(18)
[0.0284]</title>
<ellipse fill="none" stroke="black" cx="895.2" cy="-480.83" rx="50.82" ry="26.74"/>
<text text-anchor="middle" x="895.2" y="-484.63" font-family="Times,serif" font-size="14.00">Oat_1(18)</text>
<text text-anchor="middle" x="895.2" y="-469.63" font-family="Times,serif" font-size="14.00">[0.0284]</text>
</g>
<!-- Oat_1(18)
[0.0284]&#45;&gt;Channel(5)
[0.03] -->
<g id="edge19" class="edge">
<title>Oat_1(18)
[0.0284]&#45;&gt;Channel(5)
[0.03]</title>
<path fill="none" stroke="black" d="M904.59,-454.34C908.61,-443.22 913.27,-429.99 917.2,-417.96 937.92,-354.69 934.86,-336.04 960.2,-274.48 964.02,-265.21 968.8,-255.49 973.53,-246.59"/>
<polygon fill="black" stroke="black" points="976.69,-248.1 978.39,-237.65 970.54,-244.76 976.69,-248.1"/>
</g>
<!-- Pasture_1(19)
[0.102] -->
<g id="node21" class="node">
<title>Pasture_1(19)
[0.102]</title>
<ellipse fill="none" stroke="black" cx="919.2" cy="-570.57" rx="65.11" ry="26.74"/>
<text text-anchor="middle" x="919.2" y="-574.37" font-family="Times,serif" font-size="14.00">Pasture_1(19)</text>
<text text-anchor="middle" x="919.2" y="-559.37" font-family="Times,serif" font-size="14.00">[0.102]</text>
</g>
<!-- Pasture_1(19)
[0.102]&#45;&gt;Channel(5)
[0.03] -->
<g id="edge20" class="edge">
<title>Pasture_1(19)
[0.102]&#45;&gt;Channel(5)
[0.03]</title>
<path fill="none" stroke="black" d="M936.87,-544.49C943.67,-533.65 950.85,-520.53 955.2,-507.7 985.65,-418.1 991.98,-305.63 993.12,-248.9"/>
<polygon fill="black" stroke="black" points="996.62,-248.7 993.28,-238.64 989.62,-248.59 996.62,-248.7"/>
</g>
<!-- Pasture_2(20)
[0.0328] -->
<g id="node22" class="node">
<title>Pasture_2(20)
[0.0328]</title>
<ellipse fill="none" stroke="black" cx="957.2" cy="-660.31" rx="65.11" ry="26.74"/>
<text text-anchor="middle" x="957.2" y="-664.11" font-family="Times,serif" font-size="14.00">Pasture_2(20)</text>
<text text-anchor="middle" x="957.2" y="-649.11" font-family="Times,serif" font-size="14.00">[0.0328]</text>
</g>
<!-- Pasture_2(20)
[0.0328]&#45;&gt;Channel(5)
[0.03] -->
<g id="edge21" class="edge">
<title>Pasture_2(20)
[0.0328]&#45;&gt;Channel(5)
[0.03]</title>
<path fill="none" stroke="black" d="M974.65,-634.15C981.42,-623.3 988.62,-610.19 993.2,-597.44 1010.81,-548.44 1012.2,-533.9 1012.2,-481.83 1012.2,-481.83 1012.2,-481.83 1012.2,-390.09 1012.2,-340.87 1004.89,-284.41 999.34,-248.64"/>
<polygon fill="black" stroke="black" points="1002.78,-248.01 997.76,-238.68 995.87,-249.1 1002.78,-248.01"/>
</g>
<!-- Riparian_1(21)
[0.197] -->
<g id="node23" class="node">
<title>Riparian_1(21)
[0.197]</title>
<ellipse fill="none" stroke="black" cx="990.2" cy="-750.05" rx="70.01" ry="26.74"/>
<text text-anchor="middle" x="990.2" y="-753.85" font-family="Times,serif" font-size="14.00">Riparian_1(21)</text>
<text text-anchor="middle" x="990.2" y="-738.85" font-family="Times,serif" font-size="14.00">[0.197]</text>
</g>
<!-- Riparian_1(21)
[0.197]&#45;&gt;Channel(5)
[0.03] -->
<g id="edge22" class="edge">
<title>Riparian_1(21)
[0.197]&#45;&gt;Channel(5)
[0.03]</title>
<path fill="none" stroke="black" d="M1010.16,-724.21C1017.88,-713.41 1026.07,-700.26 1031.2,-687.18 1050.23,-638.71 1050.2,-623.64 1050.2,-571.57 1050.2,-571.57 1050.2,-571.57 1050.2,-390.09 1050.2,-338.32 1027.95,-281.95 1011.25,-246.95"/>
<polygon fill="black" stroke="black" points="1014.25,-245.11 1006.71,-237.66 1007.96,-248.18 1014.25,-245.11"/>
</g>
<!-- Riparian_2(22)
[0.174] -->
<g id="node24" class="node">
<title>Riparian_2(22)
[0.174]</title>
<ellipse fill="none" stroke="black" cx="1088.2" cy="-839.79" rx="70.01" ry="26.74"/>
<text text-anchor="middle" x="1088.2" y="-843.59" font-family="Times,serif" font-size="14.00">Riparian_2(22)</text>
<text text-anchor="middle" x="1088.2" y="-828.59" font-family="Times,serif" font-size="14.00">[0.174]</text>
</g>
<!-- Riparian_2(22)
[0.174]&#45;&gt;Channel(5)
[0.03] -->
<g id="edge23" class="edge">
<title>Riparian_2(22)
[0.174]&#45;&gt;Channel(5)
[0.03]</title>
<path fill="none" stroke="black" d="M1088.2,-812.63C1088.2,-778.01 1088.2,-715.08 1088.2,-661.31 1088.2,-661.31 1088.2,-661.31 1088.2,-390.09 1088.2,-335.57 1074.73,-321.54 1047.2,-274.48 1040.85,-263.62 1032.46,-252.89 1024.19,-243.49"/>
<polygon fill="black" stroke="black" points="1026.63,-240.98 1017.32,-235.94 1021.46,-245.69 1026.63,-240.98"/>
</g>
<!-- Riparian_3(23)
[0.0775] -->
<g id="node25" class="node">
<title>Riparian_3(23)
[0.0775]</title>
<ellipse fill="none" stroke="black" cx="1186.2" cy="-301.35" rx="70.01" ry="26.74"/>
<text text-anchor="middle" x="1186.2" y="-305.15" font-family="Times,serif" font-size="14.00">Riparian_3(23)</text>
<text text-anchor="middle" x="1186.2" y="-290.15" font-family="Times,serif" font-size="14.00">[0.0775]</text>
</g>
<!-- Riparian_3(23)
[0.0775]&#45;&gt;Channel(5)
[0.03] -->
<g id="edge24" class="edge">
<title>Riparian_3(23)
[0.0775]&#45;&gt;Channel(5)
[0.03]</title>
<path fill="none" stroke="black" d="M1141.93,-280.22C1111.97,-266.6 1072.41,-248.62 1041.62,-234.62"/>
<polygon fill="black" stroke="black" points="1042.92,-231.37 1032.37,-230.41 1040.02,-237.74 1042.92,-231.37"/>
</g>
<!-- Riparian_4(24)
[0.606] -->
<g id="node26" class="node">
<title>Riparian_4(24)
[0.606]</title>
<ellipse fill="none" stroke="black" cx="1224.2" cy="-391.09" rx="70.01" ry="26.74"/>
<text text-anchor="middle" x="1224.2" y="-394.89" font-family="Times,serif" font-size="14.00">Riparian_4(24)</text>
<text text-anchor="middle" x="1224.2" y="-379.89" font-family="Times,serif" font-size="14.00">[0.606]</text>
</g>
<!-- Riparian_4(24)
[0.606]&#45;&gt;Channel(5)
[0.03] -->
<g id="edge25" class="edge">
<title>Riparian_4(24)
[0.606]&#45;&gt;Channel(5)
[0.03]</title>
<path fill="none" stroke="black" d="M1245.79,-365.22C1264.86,-340.1 1286.59,-301.28 1265.2,-274.48 1239.65,-242.46 1129.08,-225.74 1057.02,-218.08"/>
<polygon fill="black" stroke="black" points="1056.99,-214.56 1046.68,-217.02 1056.27,-221.53 1056.99,-214.56"/>
</g>
<!-- Riparian_5(25)
[0.28] -->
<g id="node27" class="node">
<title>Riparian_5(25)
[0.28]</title>
<ellipse fill="none" stroke="black" cx="1262.2" cy="-480.83" rx="70.01" ry="26.74"/>
<text text-anchor="middle" x="1262.2" y="-484.63" font-family="Times,serif" font-size="14.00">Riparian_5(25)</text>
<text text-anchor="middle" x="1262.2" y="-469.63" font-family="Times,serif" font-size="14.00">[0.28]</text>
</g>
<!-- Riparian_5(25)
[0.28]&#45;&gt;Channel(5)
[0.03] -->
<g id="edge26" class="edge">
<title>Riparian_5(25)
[0.28]&#45;&gt;Channel(5)
[0.03]</title>
<path fill="none" stroke="black" d="M1283.44,-455.06C1291.27,-444.38 1299.19,-431.29 1303.2,-417.96 1321.76,-356.37 1329.67,-319.98 1284.2,-274.48 1252.87,-243.12 1132.69,-225.99 1056.92,-218.12"/>
<polygon fill="black" stroke="black" points="1056.84,-214.59 1046.54,-217.07 1056.14,-221.56 1056.84,-214.59"/>
</g>
<!-- Riparian_6(26)
[0.0378] -->
<g id="node28" class="node">
<title>Riparian_6(26)
[0.0378]</title>
<ellipse fill="none" stroke="black" cx="1300.2" cy="-570.57" rx="70.01" ry="26.74"/>
<text text-anchor="middle" x="1300.2" y="-574.37" font-family="Times,serif" font-size="14.00">Riparian_6(26)</text>
<text text-anchor="middle" x="1300.2" y="-559.37" font-family="Times,serif" font-size="14.00">[0.0378]</text>
</g>
<!-- Riparian_6(26)
[0.0378]&#45;&gt;Channel(5)
[0.03] -->
<g id="edge27" class="edge">
<title>Riparian_6(26)
[0.0378]&#45;&gt;Channel(5)
[0.03]</title>
<path fill="none" stroke="black" d="M1321.44,-544.81C1329.27,-534.12 1337.19,-521.03 1341.2,-507.7 1361.08,-441.73 1341.77,-303.2 1314.2,-274.48 1279.59,-238.41 1140.63,-222.69 1057.31,-216.39"/>
<polygon fill="black" stroke="black" points="1057.41,-212.89 1047.18,-215.65 1056.9,-219.87 1057.41,-212.89"/>
</g>
<!-- Wheat_1(27)
[0.904] -->
<g id="node29" class="node">
<title>Wheat_1(27)
[0.904]</title>
<ellipse fill="none" stroke="black" cx="1345.2" cy="-660.31" rx="62.87" ry="26.74"/>
<text text-anchor="middle" x="1345.2" y="-664.11" font-family="Times,serif" font-size="14.00">Wheat_1(27)</text>
<text text-anchor="middle" x="1345.2" y="-649.11" font-family="Times,serif" font-size="14.00">[0.904]</text>
</g>
<!-- Wheat_1(27)
[0.904]&#45;&gt;Channel(5)
[0.03] -->
<g id="edge28" class="edge">
<title>Wheat_1(27)
[0.904]&#45;&gt;Channel(5)
[0.03]</title>
<path fill="none" stroke="black" d="M1361.47,-634.33C1367.9,-623.4 1374.8,-610.18 1379.2,-597.44 1396.21,-548.22 1398.2,-533.9 1398.2,-481.83 1398.2,-481.83 1398.2,-481.83 1398.2,-390.09 1398.2,-332.6 1386.28,-308.86 1340.2,-274.48 1296.39,-241.78 1144.7,-224.59 1057.06,-217.18"/>
<polygon fill="black" stroke="black" points="1057.22,-213.69 1046.96,-216.35 1056.64,-220.66 1057.22,-213.69"/>
</g>
<!-- Wheat_2(28)
[0.0603] -->
<g id="node30" class="node">
<title>Wheat_2(28)
[0.0603]</title>
<ellipse fill="none" stroke="black" cx="1383.2" cy="-750.05" rx="62.87" ry="26.74"/>
<text text-anchor="middle" x="1383.2" y="-753.85" font-family="Times,serif" font-size="14.00">Wheat_2(28)</text>
<text text-anchor="middle" x="1383.2" y="-738.85" font-family="Times,serif" font-size="14.00">[0.0603]</text>
</g>
<!-- Wheat_2(28)
[0.0603]&#45;&gt;Channel(5)
[0.03] -->
<g id="edge29" class="edge">
<title>Wheat_2(28)
[0.0603]&#45;&gt;Channel(5)
[0.03]</title>
<path fill="none" stroke="black" d="M1399.47,-724.07C1405.9,-713.14 1412.8,-699.92 1417.2,-687.18 1434.21,-637.96 1436.2,-623.64 1436.2,-571.57 1436.2,-571.57 1436.2,-571.57 1436.2,-390.09 1436.2,-332.8 1425.3,-308.5 1379.2,-274.48 1329.28,-237.63 1153.77,-221.86 1057.53,-215.85"/>
<polygon fill="black" stroke="black" points="1057.53,-212.35 1047.34,-215.24 1057.11,-219.33 1057.53,-212.35"/>
</g>
<!-- Wheat_3(29)
[0.155] -->
<g id="node31" class="node">
<title>Wheat_3(29)
[0.155]</title>
<ellipse fill="none" stroke="black" cx="1474.2" cy="-839.79" rx="62.87" ry="26.74"/>
<text text-anchor="middle" x="1474.2" y="-843.59" font-family="Times,serif" font-size="14.00">Wheat_3(29)</text>
<text text-anchor="middle" x="1474.2" y="-828.59" font-family="Times,serif" font-size="14.00">[0.155]</text>
</g>
<!-- Wheat_3(29)
[0.155]&#45;&gt;Channel(5)
[0.03] -->
<g id="edge30" class="edge">
<title>Wheat_3(29)
[0.155]&#45;&gt;Channel(5)
[0.03]</title>
<path fill="none" stroke="black" d="M1474.2,-812.63C1474.2,-778.01 1474.2,-715.08 1474.2,-661.31 1474.2,-661.31 1474.2,-661.31 1474.2,-390.09 1474.2,-332.8 1463.53,-308.18 1417.2,-274.48 1361.09,-233.67 1161.63,-219.48 1057.52,-214.79"/>
<polygon fill="black" stroke="black" points="1057.59,-211.29 1047.44,-214.35 1057.28,-218.28 1057.59,-211.29"/>
</g>
<!-- Wheat_4(30)
[0.00363] -->
<g id="node32" class="node">
<title>Wheat_4(30)
[0.00363]</title>
<ellipse fill="none" stroke="black" cx="1565.2" cy="-301.35" rx="62.87" ry="26.74"/>
<text text-anchor="middle" x="1565.2" y="-305.15" font-family="Times,serif" font-size="14.00">Wheat_4(30)</text>
<text text-anchor="middle" x="1565.2" y="-290.15" font-family="Times,serif" font-size="14.00">[0.00363]</text>
</g>
<!-- Wheat_4(30)
[0.00363]&#45;&gt;Channel(5)
[0.03] -->
<g id="edge31" class="edge">
<title>Wheat_4(30)
[0.00363]&#45;&gt;Channel(5)
[0.03]</title>
<path fill="none" stroke="black" d="M1518.8,-283.1C1508.82,-279.86 1498.24,-276.77 1488.2,-274.48 1335.86,-239.73 1152.38,-223.23 1057.32,-216.52"/>
<polygon fill="black" stroke="black" points="1057.51,-213.02 1047.29,-215.82 1057.02,-220.01 1057.51,-213.02"/>
</g>
<!-- Winter_Wheat_1(31)
[0.0784] -->
<g id="node33" class="node">
<title>Winter_Wheat_1(31)
[0.0784]</title>
<ellipse fill="none" stroke="black" cx="1596.2" cy="-391.09" rx="94.09" ry="26.74"/>
<text text-anchor="middle" x="1596.2" y="-394.89" font-family="Times,serif" font-size="14.00">Winter_Wheat_1(31)</text>
<text text-anchor="middle" x="1596.2" y="-379.89" font-family="Times,serif" font-size="14.00">[0.0784]</text>
</g>
<!-- Winter_Wheat_1(31)
[0.0784]&#45;&gt;Channel(5)
[0.03] -->
<g id="edge32" class="edge">
<title>Winter_Wheat_1(31)
[0.0784]&#45;&gt;Channel(5)
[0.03]</title>
<path fill="none" stroke="black" d="M1618.48,-364.63C1638.1,-339.04 1660.26,-299.86 1637.2,-274.48 1598.74,-232.15 1213.76,-218.01 1058.05,-214"/>
<polygon fill="black" stroke="black" points="1057.78,-210.49 1047.69,-213.74 1057.6,-217.49 1057.78,-210.49"/>
</g>
<!-- Winter_Wheat_2(32)
[0.084] -->
<g id="node34" class="node">
<title>Winter_Wheat_2(32)
[0.084]</title>
<ellipse fill="none" stroke="black" cx="1634.2" cy="-480.83" rx="94.09" ry="26.74"/>
<text text-anchor="middle" x="1634.2" y="-484.63" font-family="Times,serif" font-size="14.00">Winter_Wheat_2(32)</text>
<text text-anchor="middle" x="1634.2" y="-469.63" font-family="Times,serif" font-size="14.00">[0.084]</text>
</g>
<!-- Winter_Wheat_2(32)
[0.084]&#45;&gt;Channel(5)
[0.03] -->
<g id="edge33" class="edge">
<title>Winter_Wheat_2(32)
[0.084]&#45;&gt;Channel(5)
[0.03]</title>
<path fill="none" stroke="black" d="M1669.33,-455.75C1681.12,-445.61 1692.88,-432.71 1699.2,-417.96 1725.44,-356.78 1710.83,-312.53 1656.2,-274.48 1607.81,-240.77 1215.3,-221.49 1058.03,-215.05"/>
<polygon fill="black" stroke="black" points="1057.7,-211.54 1047.57,-214.63 1057.42,-218.53 1057.7,-211.54"/>
</g>
<!-- Winter_Wheat_2(33)
[0.419] -->
<g id="node35" class="node">
<title>Winter_Wheat_2(33)
[0.419]</title>
<ellipse fill="none" stroke="black" cx="1672.2" cy="-570.57" rx="94.09" ry="26.74"/>
<text text-anchor="middle" x="1672.2" y="-574.37" font-family="Times,serif" font-size="14.00">Winter_Wheat_2(33)</text>
<text text-anchor="middle" x="1672.2" y="-559.37" font-family="Times,serif" font-size="14.00">[0.419]</text>
</g>
<!-- Winter_Wheat_2(33)
[0.419]&#45;&gt;Channel(5)
[0.03] -->
<g id="edge34" class="edge">
<title>Winter_Wheat_2(33)
[0.419]&#45;&gt;Channel(5)
[0.03]</title>
<path fill="none" stroke="black" d="M1707.33,-545.49C1719.12,-535.35 1730.88,-522.45 1737.2,-507.7 1778.71,-410.9 1776.2,-341.81 1695.2,-274.48 1646.81,-234.25 1222.82,-218.72 1058.18,-214.18"/>
<polygon fill="black" stroke="black" points="1057.8,-210.67 1047.71,-213.89 1057.61,-217.66 1057.8,-210.67"/>
</g>
<!-- Winter_Wheat_2(34)
[0.0533] -->
<g id="node36" class="node">
<title>Winter_Wheat_2(34)
[0.0533]</title>
<ellipse fill="none" stroke="black" cx="1710.2" cy="-660.31" rx="94.09" ry="26.74"/>
<text text-anchor="middle" x="1710.2" y="-664.11" font-family="Times,serif" font-size="14.00">Winter_Wheat_2(34)</text>
<text text-anchor="middle" x="1710.2" y="-649.11" font-family="Times,serif" font-size="14.00">[0.0533]</text>
</g>
<!-- Winter_Wheat_2(34)
[0.0533]&#45;&gt;Channel(5)
[0.03] -->
<g id="edge35" class="edge">
<title>Winter_Wheat_2(34)
[0.0533]&#45;&gt;Channel(5)
[0.03]</title>
<path fill="none" stroke="black" d="M1743.73,-634.93C1755.48,-624.66 1767.63,-611.76 1775.2,-597.44 1799.55,-551.41 1794.2,-533.9 1794.2,-481.83 1794.2,-481.83 1794.2,-481.83 1794.2,-390.09 1794.2,-331.99 1781.66,-306.53 1733.2,-274.48 1677.52,-237.65 1227.45,-219.91 1057.69,-214.49"/>
<polygon fill="black" stroke="black" points="1057.75,-210.99 1047.64,-214.17 1057.53,-217.98 1057.75,-210.99"/>
</g>
<!-- Winter_Wheat_2(35)
[0.0899] -->
<g id="node37" class="node">
<title>Winter_Wheat_2(35)
[0.0899]</title>
<ellipse fill="none" stroke="black" cx="1790.2" cy="-750.05" rx="94.09" ry="26.74"/>
<text text-anchor="middle" x="1790.2" y="-753.85" font-family="Times,serif" font-size="14.00">Winter_Wheat_2(35)</text>
<text text-anchor="middle" x="1790.2" y="-738.85" font-family="Times,serif" font-size="14.00">[0.0899]</text>
</g>
<!-- Winter_Wheat_2(35)
[0.0899]&#45;&gt;Channel(5)
[0.03] -->
<g id="edge36" class="edge">
<title>Winter_Wheat_2(35)
[0.0899]&#45;&gt;Channel(5)
[0.03]</title>
<path fill="none" stroke="black" d="M1801.08,-723.22C1805.36,-712.26 1810,-699.25 1813.2,-687.18 1826.56,-636.85 1832.2,-623.64 1832.2,-571.57 1832.2,-571.57 1832.2,-571.57 1832.2,-390.09 1832.2,-332.4 1821.17,-306.53 1773.2,-274.48 1714.34,-235.15 1234.08,-218.85 1057.79,-214.15"/>
<polygon fill="black" stroke="black" points="1057.71,-210.65 1047.62,-213.88 1057.53,-217.64 1057.71,-210.65"/>
</g>
<!-- Winter_Wheat_2(36)
[0.289] -->
<g id="node38" class="node">
<title>Winter_Wheat_2(36)
[0.289]</title>
<ellipse fill="none" stroke="black" cx="1912.2" cy="-839.79" rx="94.09" ry="26.74"/>
<text text-anchor="middle" x="1912.2" y="-843.59" font-family="Times,serif" font-size="14.00">Winter_Wheat_2(36)</text>
<text text-anchor="middle" x="1912.2" y="-828.59" font-family="Times,serif" font-size="14.00">[0.289]</text>
</g>
<!-- Winter_Wheat_2(36)
[0.289]&#45;&gt;Channel(5)
[0.03] -->
<g id="edge37" class="edge">
<title>Winter_Wheat_2(36)
[0.289]&#45;&gt;Channel(5)
[0.03]</title>
<path fill="none" stroke="black" d="M1912.2,-812.63C1912.2,-778.01 1912.2,-715.08 1912.2,-661.31 1912.2,-661.31 1912.2,-661.31 1912.2,-390.09 1912.2,-322.15 1872.88,-305.04 1812.2,-274.48 1745.48,-240.88 1239.2,-220.83 1057.7,-214.66"/>
<polygon fill="black" stroke="black" points="1057.62,-211.16 1047.51,-214.32 1057.38,-218.15 1057.62,-211.16"/>
</g>
<!-- Winter_Wheat_2(37)
[0.174] -->
<g id="node39" class="node">
<title>Winter_Wheat_2(37)
[0.174]</title>
<ellipse fill="none" stroke="black" cx="2034.2" cy="-301.35" rx="94.09" ry="26.74"/>
<text text-anchor="middle" x="2034.2" y="-305.15" font-family="Times,serif" font-size="14.00">Winter_Wheat_2(37)</text>
<text text-anchor="middle" x="2034.2" y="-290.15" font-family="Times,serif" font-size="14.00">[0.174]</text>
</g>
<!-- Winter_Wheat_2(37)
[0.174]&#45;&gt;Channel(5)
[0.03] -->
<g id="edge38" class="edge">
<title>Winter_Wheat_2(37)
[0.174]&#45;&gt;Channel(5)
[0.03]</title>
<path fill="none" stroke="black" d="M1967.15,-282.43C1953.67,-279.36 1939.55,-276.51 1926.2,-274.48 1602.62,-225.36 1210.02,-215.23 1057.82,-213.15"/>
<polygon fill="black" stroke="black" points="1057.76,-209.65 1047.71,-213.02 1057.67,-216.65 1057.76,-209.65"/>
</g>
</g>
</svg>
