<?xml version="1.0" encoding="UTF-8" standalone="no"?>
<!DOCTYPE svg PUBLIC "-//W3C//DTD SVG 1.1//EN"
 "http://www.w3.org/Graphics/SVG/1.1/DTD/svg11.dtd">
<!-- Generated by graphviz version 2.43.0 (0)
 -->
<!-- Title: TEST Pages: 1 -->
<svg width="1579pt" height="964pt"
 viewBox="0.00 0.00 1578.67 964.40" xmlns="http://www.w3.org/2000/svg" xmlns:xlink="http://www.w3.org/1999/xlink">
<g id="graph0" class="graph" transform="scale(1 1) rotate(0) translate(4 960.4)">
<title>TEST</title>
<polygon fill="white" stroke="transparent" points="-4,4 -4,-960.4 1574.67,-960.4 1574.67,4 -4,4"/>
<text text-anchor="middle" x="785.34" y="-7.8" font-family="Times,serif" font-size="14.00">I_nw_project_GrpI</text>
<!-- Barley 1(1)
[0.1446] -->
<g id="node1" class="node">
<title>Barley 1(1)
[0.1446]</title>
<ellipse fill="none" stroke="black" cx="55.86" cy="-391.09" rx="55.72" ry="26.74"/>
<text text-anchor="middle" x="55.86" y="-394.89" font-family="Times,serif" font-size="14.00">Barley 1(1)</text>
<text text-anchor="middle" x="55.86" y="-379.89" font-family="Times,serif" font-size="14.00">[0.1446]</text>
</g>
<!-- Riparian forest 1(21)
[0.1565] -->
<g id="node2" class="node">
<title>Riparian forest 1(21)
[0.1565]</title>
<ellipse fill="none" stroke="black" cx="531.86" cy="-301.35" rx="92.76" ry="26.74"/>
<text text-anchor="middle" x="531.86" y="-305.15" font-family="Times,serif" font-size="14.00">Riparian forest 1(21)</text>
<text text-anchor="middle" x="531.86" y="-290.15" font-family="Times,serif" font-size="14.00">[0.1565]</text>
</g>
<!-- Barley 1(1)
[0.1446]&#45;&gt;Riparian forest 1(21)
[0.1565] -->
<g id="edge1" class="edge">
<title>Barley 1(1)
[0.1446]&#45;&gt;Riparian forest 1(21)
[0.1565]</title>
<path fill="none" stroke="black" d="M97.62,-373.09C106.81,-369.79 116.58,-366.62 125.86,-364.22 229.58,-337.45 351.39,-320.79 434.33,-311.6"/>
<polygon fill="black" stroke="black" points="434.94,-315.05 444.5,-310.49 434.18,-308.09 434.94,-315.05"/>
</g>
<!-- Riparian forest 1(21)
[0.1565]&#45;&gt;Riparian forest 1(21)
[0.1565] -->
<g id="edge2" class="edge">
<title>Riparian forest 1(21)
[0.1565]&#45;&gt;Riparian forest 1(21)
[0.1565]</title>
<path fill="none" stroke="black" d="M605.27,-317.79C626.29,-317.14 642.49,-311.66 642.49,-301.35 642.49,-292.81 631.38,-287.59 615.62,-285.68"/>
<polygon fill="black" stroke="black" points="615.5,-282.16 605.27,-284.91 614.99,-289.14 615.5,-282.16"/>
</g>
<!-- Barley 2(2)
[0.05338] -->
<g id="node3" class="node">
<title>Barley 2(2)
[0.05338]</title>
<ellipse fill="none" stroke="black" cx="116.86" cy="-480.83" rx="55.72" ry="26.74"/>
<text text-anchor="middle" x="116.86" y="-484.63" font-family="Times,serif" font-size="14.00">Barley 2(2)</text>
<text text-anchor="middle" x="116.86" y="-469.63" font-family="Times,serif" font-size="14.00">[0.05338]</text>
</g>
<!-- Barley 2(2)
[0.05338]&#45;&gt;Riparian forest 1(21)
[0.1565] -->
<g id="edge3" class="edge">
<title>Barley 2(2)
[0.05338]&#45;&gt;Riparian forest 1(21)
[0.1565]</title>
<path fill="none" stroke="black" d="M125.2,-454.21C135.34,-427.33 155.14,-386.01 186.86,-364.22 226.1,-337.26 346.26,-320.15 433.76,-310.91"/>
<polygon fill="black" stroke="black" points="434.14,-314.39 443.72,-309.88 433.42,-307.43 434.14,-314.39"/>
</g>
<!-- Barley 3(3)
[0.4007] -->
<g id="node4" class="node">
<title>Barley 3(3)
[0.4007]</title>
<ellipse fill="none" stroke="black" cx="154.86" cy="-570.57" rx="55.72" ry="26.74"/>
<text text-anchor="middle" x="154.86" y="-574.37" font-family="Times,serif" font-size="14.00">Barley 3(3)</text>
<text text-anchor="middle" x="154.86" y="-559.37" font-family="Times,serif" font-size="14.00">[0.4007]</text>
</g>
<!-- Barley 3(3)
[0.4007]&#45;&gt;Riparian forest 1(21)
[0.1565] -->
<g id="edge4" class="edge">
<title>Barley 3(3)
[0.4007]&#45;&gt;Riparian forest 1(21)
[0.1565]</title>
<path fill="none" stroke="black" d="M166.73,-544.26C171.71,-533.17 177.38,-519.91 181.86,-507.7 204.77,-445.2 175.67,-409.07 224.86,-364.22 255.09,-336.66 355.88,-320.12 433.81,-311.17"/>
<polygon fill="black" stroke="black" points="434.61,-314.6 444.16,-310.01 433.84,-307.65 434.61,-314.6"/>
</g>
<!-- Canola 1(4)
[0.09861] -->
<g id="node5" class="node">
<title>Canola 1(4)
[0.09861]</title>
<ellipse fill="none" stroke="black" cx="191.86" cy="-660.31" rx="57.05" ry="26.74"/>
<text text-anchor="middle" x="191.86" y="-664.11" font-family="Times,serif" font-size="14.00">Canola 1(4)</text>
<text text-anchor="middle" x="191.86" y="-649.11" font-family="Times,serif" font-size="14.00">[0.09861]</text>
</g>
<!-- Canola 1(4)
[0.09861]&#45;&gt;Riparian forest 1(21)
[0.1565] -->
<g id="edge5" class="edge">
<title>Canola 1(4)
[0.09861]&#45;&gt;Riparian forest 1(21)
[0.1565]</title>
<path fill="none" stroke="black" d="M205.01,-633.97C210.27,-622.98 215.98,-609.82 219.86,-597.44 251.38,-496.86 189.98,-440.36 262.86,-364.22 286.7,-339.32 368.7,-322.87 435.96,-313.23"/>
<polygon fill="black" stroke="black" points="436.77,-316.65 446.19,-311.8 435.8,-309.72 436.77,-316.65"/>
</g>
<!-- Canola 2(6)
[0.4989] -->
<g id="node6" class="node">
<title>Canola 2(6)
[0.4989]</title>
<ellipse fill="none" stroke="black" cx="229.86" cy="-750.05" rx="57.05" ry="26.74"/>
<text text-anchor="middle" x="229.86" y="-753.85" font-family="Times,serif" font-size="14.00">Canola 2(6)</text>
<text text-anchor="middle" x="229.86" y="-738.85" font-family="Times,serif" font-size="14.00">[0.4989]</text>
</g>
<!-- Canola 2(6)
[0.4989]&#45;&gt;Riparian forest 1(21)
[0.1565] -->
<g id="edge6" class="edge">
<title>Canola 2(6)
[0.4989]&#45;&gt;Riparian forest 1(21)
[0.1565]</title>
<path fill="none" stroke="black" d="M243.13,-723.75C248.41,-712.76 254.1,-699.59 257.86,-687.18 272.95,-637.34 276.86,-623.64 276.86,-571.57 276.86,-571.57 276.86,-571.57 276.86,-479.83 276.86,-427.35 264.83,-402.37 300.86,-364.22 320.39,-343.54 385.2,-327.27 441.21,-316.62"/>
<polygon fill="black" stroke="black" points="442,-320.03 451.19,-314.76 440.72,-313.15 442,-320.03"/>
</g>
<!-- Channel(7)
[0.03] -->
<g id="node7" class="node">
<title>Channel(7)
[0.03]</title>
<ellipse fill="none" stroke="black" cx="1375.86" cy="-211.61" rx="54.39" ry="26.74"/>
<text text-anchor="middle" x="1375.86" y="-215.41" font-family="Times,serif" font-size="14.00">Channel(7)</text>
<text text-anchor="middle" x="1375.86" y="-200.41" font-family="Times,serif" font-size="14.00">[0.03]</text>
</g>
<!-- Reservoir(5)
[0.04] -->
<g id="node8" class="node">
<title>Reservoir(5)
[0.04]</title>
<ellipse fill="none" stroke="black" cx="1375.86" cy="-121.87" rx="60.21" ry="26.74"/>
<text text-anchor="middle" x="1375.86" y="-125.67" font-family="Times,serif" font-size="14.00">Reservoir(5)</text>
<text text-anchor="middle" x="1375.86" y="-110.67" font-family="Times,serif" font-size="14.00">[0.04]</text>
</g>
<!-- Channel(7)
[0.03]&#45;&gt;Reservoir(5)
[0.04] -->
<g id="edge7" class="edge">
<title>Channel(7)
[0.03]&#45;&gt;Reservoir(5)
[0.04]</title>
<path fill="none" stroke="black" d="M1375.86,-184.29C1375.86,-176.32 1375.86,-167.43 1375.86,-158.94"/>
<polygon fill="black" stroke="black" points="1379.36,-158.87 1375.86,-148.87 1372.36,-158.87 1379.36,-158.87"/>
</g>
<!-- basin -->
<g id="node9" class="node">
<title>basin</title>
<ellipse fill="none" stroke="black" cx="1419.86" cy="-41" rx="29.5" ry="18"/>
<text text-anchor="middle" x="1419.86" y="-37.3" font-family="Times,serif" font-size="14.00">basin</text>
</g>
<!-- Reservoir(5)
[0.04]&#45;&gt;basin -->
<g id="edge8" class="edge">
<title>Reservoir(5)
[0.04]&#45;&gt;basin</title>
<path fill="none" stroke="black" d="M1390.03,-95.48C1395.1,-86.39 1400.81,-76.15 1405.86,-67.09"/>
<polygon fill="black" stroke="black" points="1409.03,-68.6 1410.84,-58.16 1402.92,-65.19 1409.03,-68.6"/>
</g>
<!-- Canola 3(8)
[0.7605] -->
<g id="node10" class="node">
<title>Canola 3(8)
[0.7605]</title>
<ellipse fill="none" stroke="black" cx="1122.86" cy="-391.09" rx="57.05" ry="26.74"/>
<text text-anchor="middle" x="1122.86" y="-394.89" font-family="Times,serif" font-size="14.00">Canola 3(8)</text>
<text text-anchor="middle" x="1122.86" y="-379.89" font-family="Times,serif" font-size="14.00">[0.7605]</text>
</g>
<!-- Riparian forest 2(22)
[1.384] -->
<g id="node11" class="node">
<title>Riparian forest 2(22)
[1.384]</title>
<ellipse fill="none" stroke="black" cx="1304.86" cy="-301.35" rx="92.76" ry="26.74"/>
<text text-anchor="middle" x="1304.86" y="-305.15" font-family="Times,serif" font-size="14.00">Riparian forest 2(22)</text>
<text text-anchor="middle" x="1304.86" y="-290.15" font-family="Times,serif" font-size="14.00">[1.384]</text>
</g>
<!-- Canola 3(8)
[0.7605]&#45;&gt;Riparian forest 2(22)
[1.384] -->
<g id="edge9" class="edge">
<title>Canola 3(8)
[0.7605]&#45;&gt;Riparian forest 2(22)
[1.384]</title>
<path fill="none" stroke="black" d="M1161.91,-371.27C1187.34,-359.01 1220.91,-342.82 1249.13,-329.22"/>
<polygon fill="black" stroke="black" points="1250.98,-332.21 1258.47,-324.71 1247.94,-325.9 1250.98,-332.21"/>
</g>
<!-- Riparian forest 2(22)
[1.384]&#45;&gt;Channel(7)
[0.03] -->
<g id="edge10" class="edge">
<title>Riparian forest 2(22)
[1.384]&#45;&gt;Channel(7)
[0.03]</title>
<path fill="none" stroke="black" d="M1325.4,-274.97C1333.09,-265.47 1341.93,-254.55 1350.04,-244.52"/>
<polygon fill="black" stroke="black" points="1352.78,-246.7 1356.35,-236.73 1347.34,-242.3 1352.78,-246.7"/>
</g>
<!-- Canola 4(9)
[0.717] -->
<g id="node12" class="node">
<title>Canola 4(9)
[0.717]</title>
<ellipse fill="none" stroke="black" cx="1162.86" cy="-480.83" rx="57.05" ry="26.74"/>
<text text-anchor="middle" x="1162.86" y="-484.63" font-family="Times,serif" font-size="14.00">Canola 4(9)</text>
<text text-anchor="middle" x="1162.86" y="-469.63" font-family="Times,serif" font-size="14.00">[0.717]</text>
</g>
<!-- Canola 4(9)
[0.717]&#45;&gt;Riparian forest 2(22)
[1.384] -->
<g id="edge11" class="edge">
<title>Canola 4(9)
[0.717]&#45;&gt;Riparian forest 2(22)
[1.384]</title>
<path fill="none" stroke="black" d="M1175.54,-454.46C1188.41,-430.01 1209.82,-392.63 1233.86,-364.22 1243.13,-353.27 1254.38,-342.57 1265.16,-333.22"/>
<polygon fill="black" stroke="black" points="1267.53,-335.8 1272.9,-326.67 1263.01,-330.46 1267.53,-335.8"/>
</g>
<!-- Canola 5(10)
[0.09667] -->
<g id="node13" class="node">
<title>Canola 5(10)
[0.09667]</title>
<ellipse fill="none" stroke="black" cx="262.86" cy="-839.79" rx="62.45" ry="26.74"/>
<text text-anchor="middle" x="262.86" y="-843.59" font-family="Times,serif" font-size="14.00">Canola 5(10)</text>
<text text-anchor="middle" x="262.86" y="-828.59" font-family="Times,serif" font-size="14.00">[0.09667]</text>
</g>
<!-- Canola 5(10)
[0.09667]&#45;&gt;Riparian forest 1(21)
[0.1565] -->
<g id="edge12" class="edge">
<title>Canola 5(10)
[0.09667]&#45;&gt;Riparian forest 1(21)
[0.1565]</title>
<path fill="none" stroke="black" d="M278.63,-813.75C284.87,-802.81 291.57,-789.6 295.86,-776.92 312.56,-727.6 314.86,-713.38 314.86,-661.31 314.86,-661.31 314.86,-661.31 314.86,-479.83 314.86,-427.35 303.76,-403.23 338.86,-364.22 363.49,-336.84 400.24,-321.51 435.08,-312.95"/>
<polygon fill="black" stroke="black" points="435.88,-316.36 444.85,-310.71 434.32,-309.53 435.88,-316.36"/>
</g>
<!-- Canola 6(11)
[0.3993] -->
<g id="node14" class="node">
<title>Canola 6(11)
[0.3993]</title>
<ellipse fill="none" stroke="black" cx="352.86" cy="-929.53" rx="62.45" ry="26.74"/>
<text text-anchor="middle" x="352.86" y="-933.33" font-family="Times,serif" font-size="14.00">Canola 6(11)</text>
<text text-anchor="middle" x="352.86" y="-918.33" font-family="Times,serif" font-size="14.00">[0.3993]</text>
</g>
<!-- Canola 6(11)
[0.3993]&#45;&gt;Riparian forest 1(21)
[0.1565] -->
<g id="edge13" class="edge">
<title>Canola 6(11)
[0.3993]&#45;&gt;Riparian forest 1(21)
[0.1565]</title>
<path fill="none" stroke="black" d="M352.86,-902.37C352.86,-867.75 352.86,-804.82 352.86,-751.05 352.86,-751.05 352.86,-751.05 352.86,-479.83 352.86,-427.76 339.02,-404.63 371.86,-364.22 389.84,-342.09 416.75,-327.86 443.4,-318.72"/>
<polygon fill="black" stroke="black" points="444.74,-321.96 453.19,-315.57 442.6,-315.3 444.74,-321.96"/>
</g>
<!-- Flax 1(12)
[0.2765] -->
<g id="node15" class="node">
<title>Flax 1(12)
[0.2765]</title>
<ellipse fill="none" stroke="black" cx="432.86" cy="-391.09" rx="52.15" ry="26.74"/>
<text text-anchor="middle" x="432.86" y="-394.89" font-family="Times,serif" font-size="14.00">Flax 1(12)</text>
<text text-anchor="middle" x="432.86" y="-379.89" font-family="Times,serif" font-size="14.00">[0.2765]</text>
</g>
<!-- Flax 1(12)
[0.2765]&#45;&gt;Riparian forest 1(21)
[0.1565] -->
<g id="edge14" class="edge">
<title>Flax 1(12)
[0.2765]&#45;&gt;Riparian forest 1(21)
[0.1565]</title>
<path fill="none" stroke="black" d="M458.36,-367.5C469.93,-357.24 483.82,-344.93 496.39,-333.79"/>
<polygon fill="black" stroke="black" points="498.85,-336.28 504.02,-327.03 494.21,-331.04 498.85,-336.28"/>
</g>
<!-- Forage 1(13)
[0.04979] -->
<g id="node16" class="node">
<title>Forage 1(13)
[0.04979]</title>
<ellipse fill="none" stroke="black" cx="1195.86" cy="-570.57" rx="61.54" ry="26.74"/>
<text text-anchor="middle" x="1195.86" y="-574.37" font-family="Times,serif" font-size="14.00">Forage 1(13)</text>
<text text-anchor="middle" x="1195.86" y="-559.37" font-family="Times,serif" font-size="14.00">[0.04979]</text>
</g>
<!-- Forage 1(13)
[0.04979]&#45;&gt;Riparian forest 2(22)
[1.384] -->
<g id="edge15" class="edge">
<title>Forage 1(13)
[0.04979]&#45;&gt;Riparian forest 2(22)
[1.384]</title>
<path fill="none" stroke="black" d="M1210.84,-544.24C1216.95,-533.25 1223.76,-520.08 1228.86,-507.7 1254.21,-446.14 1246.52,-425.78 1271.86,-364.22 1275.61,-355.11 1280.29,-345.58 1284.93,-336.81"/>
<polygon fill="black" stroke="black" points="1288.02,-338.44 1289.71,-327.99 1281.87,-335.11 1288.02,-338.44"/>
</g>
<!-- Forage 2(14)
[0.02057] -->
<g id="node17" class="node">
<title>Forage 2(14)
[0.02057]</title>
<ellipse fill="none" stroke="black" cx="460.86" cy="-480.83" rx="61.54" ry="26.74"/>
<text text-anchor="middle" x="460.86" y="-484.63" font-family="Times,serif" font-size="14.00">Forage 2(14)</text>
<text text-anchor="middle" x="460.86" y="-469.63" font-family="Times,serif" font-size="14.00">[0.02057]</text>
</g>
<!-- Forage 2(14)
[0.02057]&#45;&gt;Riparian forest 1(21)
[0.1565] -->
<g id="edge16" class="edge">
<title>Forage 2(14)
[0.02057]&#45;&gt;Riparian forest 1(21)
[0.1565]</title>
<path fill="none" stroke="black" d="M475.52,-454.73C481.64,-443.67 488.55,-430.39 493.86,-417.96 505,-391.9 514.9,-361.4 521.8,-338.28"/>
<polygon fill="black" stroke="black" points="525.2,-339.12 524.66,-328.54 518.48,-337.14 525.2,-339.12"/>
</g>
<!-- Green and Oat 1(15)
[0.2988] -->
<g id="node18" class="node">
<title>Green and Oat 1(15)
[0.2988]</title>
<ellipse fill="none" stroke="black" cx="1204.86" cy="-660.31" rx="91.43" ry="26.74"/>
<text text-anchor="middle" x="1204.86" y="-664.11" font-family="Times,serif" font-size="14.00">Green and Oat 1(15)</text>
<text text-anchor="middle" x="1204.86" y="-649.11" font-family="Times,serif" font-size="14.00">[0.2988]</text>
</g>
<!-- Green and Oat 1(15)
[0.2988]&#45;&gt;Riparian forest 2(22)
[1.384] -->
<g id="edge17" class="edge">
<title>Green and Oat 1(15)
[0.2988]&#45;&gt;Riparian forest 2(22)
[1.384]</title>
<path fill="none" stroke="black" d="M1236.77,-635.08C1248.12,-624.75 1259.81,-611.77 1266.86,-597.44 1308.94,-511.92 1310.1,-396.38 1307.47,-338.52"/>
<polygon fill="black" stroke="black" points="1310.96,-338.22 1306.94,-328.41 1303.97,-338.58 1310.96,-338.22"/>
</g>
<!-- Green and Oat 2(16)
[0.05142] -->
<g id="node19" class="node">
<title>Green and Oat 2(16)
[0.05142]</title>
<ellipse fill="none" stroke="black" cx="471.86" cy="-570.57" rx="91.43" ry="26.74"/>
<text text-anchor="middle" x="471.86" y="-574.37" font-family="Times,serif" font-size="14.00">Green and Oat 2(16)</text>
<text text-anchor="middle" x="471.86" y="-559.37" font-family="Times,serif" font-size="14.00">[0.05142]</text>
</g>
<!-- Green and Oat 2(16)
[0.05142]&#45;&gt;Riparian forest 1(21)
[0.1565] -->
<g id="edge18" class="edge">
<title>Green and Oat 2(16)
[0.05142]&#45;&gt;Riparian forest 1(21)
[0.1565]</title>
<path fill="none" stroke="black" d="M504.02,-545.29C515.02,-535.04 526.02,-522.12 531.86,-507.7 554.45,-451.96 547.27,-380.51 539.74,-338.26"/>
<polygon fill="black" stroke="black" points="543.13,-337.35 537.84,-328.17 536.25,-338.65 543.13,-337.35"/>
</g>
<!-- Oats 1(17)
[0.01845] -->
<g id="node20" class="node">
<title>Oats 1(17)
[0.01845]</title>
<ellipse fill="none" stroke="black" cx="1281.86" cy="-750.05" rx="52.15" ry="26.74"/>
<text text-anchor="middle" x="1281.86" y="-753.85" font-family="Times,serif" font-size="14.00">Oats 1(17)</text>
<text text-anchor="middle" x="1281.86" y="-738.85" font-family="Times,serif" font-size="14.00">[0.01845]</text>
</g>
<!-- Oats 1(17)
[0.01845]&#45;&gt;Riparian forest 2(22)
[1.384] -->
<g id="edge19" class="edge">
<title>Oats 1(17)
[0.01845]&#45;&gt;Riparian forest 2(22)
[1.384]</title>
<path fill="none" stroke="black" d="M1292.62,-723.52C1296.93,-712.5 1301.63,-699.36 1304.86,-687.18 1318.22,-636.85 1323.86,-623.64 1323.86,-571.57 1323.86,-571.57 1323.86,-571.57 1323.86,-479.83 1323.86,-430.61 1316.55,-374.15 1311,-338.38"/>
<polygon fill="black" stroke="black" points="1314.44,-337.75 1309.41,-328.42 1307.53,-338.84 1314.44,-337.75"/>
</g>
<!-- Oats 2(18)
[0.1319] -->
<g id="node21" class="node">
<title>Oats 2(18)
[0.1319]</title>
<ellipse fill="none" stroke="black" cx="548.86" cy="-660.31" rx="52.15" ry="26.74"/>
<text text-anchor="middle" x="548.86" y="-664.11" font-family="Times,serif" font-size="14.00">Oats 2(18)</text>
<text text-anchor="middle" x="548.86" y="-649.11" font-family="Times,serif" font-size="14.00">[0.1319]</text>
</g>
<!-- Oats 2(18)
[0.1319]&#45;&gt;Riparian forest 1(21)
[0.1565] -->
<g id="edge20" class="edge">
<title>Oats 2(18)
[0.1319]&#45;&gt;Riparian forest 1(21)
[0.1565]</title>
<path fill="none" stroke="black" d="M560.59,-634C565.07,-623.01 569.63,-609.85 571.86,-597.44 581.7,-542.72 575.21,-425.38 559.86,-364.22 557.61,-355.25 554.11,-345.96 550.33,-337.4"/>
<polygon fill="black" stroke="black" points="553.4,-335.69 546.01,-328.09 547.05,-338.64 553.4,-335.69"/>
</g>
<!-- Oats 3(19)
[0.2185] -->
<g id="node22" class="node">
<title>Oats 3(19)
[0.2185]</title>
<ellipse fill="none" stroke="black" cx="1340.86" cy="-839.79" rx="52.15" ry="26.74"/>
<text text-anchor="middle" x="1340.86" y="-843.59" font-family="Times,serif" font-size="14.00">Oats 3(19)</text>
<text text-anchor="middle" x="1340.86" y="-828.59" font-family="Times,serif" font-size="14.00">[0.2185]</text>
</g>
<!-- Oats 3(19)
[0.2185]&#45;&gt;Riparian forest 2(22)
[1.384] -->
<g id="edge21" class="edge">
<title>Oats 3(19)
[0.2185]&#45;&gt;Riparian forest 2(22)
[1.384]</title>
<path fill="none" stroke="black" d="M1345.84,-813.04C1352.05,-778.61 1361.86,-715.61 1361.86,-661.31 1361.86,-661.31 1361.86,-661.31 1361.86,-479.83 1361.86,-428.36 1339.86,-372.34 1323.2,-337.29"/>
<polygon fill="black" stroke="black" points="1326.19,-335.44 1318.66,-327.98 1319.89,-338.5 1326.19,-335.44"/>
</g>
<!-- Pasture(20)
[0.08345] -->
<g id="node23" class="node">
<title>Pasture(20)
[0.08345]</title>
<ellipse fill="none" stroke="black" cx="582.86" cy="-750.05" rx="55.72" ry="26.74"/>
<text text-anchor="middle" x="582.86" y="-753.85" font-family="Times,serif" font-size="14.00">Pasture(20)</text>
<text text-anchor="middle" x="582.86" y="-738.85" font-family="Times,serif" font-size="14.00">[0.08345]</text>
</g>
<!-- Pasture(20)
[0.08345]&#45;&gt;Riparian forest 1(21)
[0.1565] -->
<g id="edge22" class="edge">
<title>Pasture(20)
[0.08345]&#45;&gt;Riparian forest 1(21)
[0.1565]</title>
<path fill="none" stroke="black" d="M595.63,-723.7C600.71,-712.71 606.21,-699.54 609.86,-687.18 624.61,-637.24 628.86,-623.64 628.86,-571.57 628.86,-571.57 628.86,-571.57 628.86,-479.83 628.86,-423.75 591.11,-368.57 562.71,-334.99"/>
<polygon fill="black" stroke="black" points="565.28,-332.61 556.09,-327.35 559.99,-337.2 565.28,-332.61"/>
</g>
<!-- Road(23)
[0.3795] -->
<g id="node24" class="node">
<title>Road(23)
[0.3795]</title>
<ellipse fill="none" stroke="black" cx="1463.86" cy="-301.35" rx="48.17" ry="26.74"/>
<text text-anchor="middle" x="1463.86" y="-305.15" font-family="Times,serif" font-size="14.00">Road(23)</text>
<text text-anchor="middle" x="1463.86" y="-290.15" font-family="Times,serif" font-size="14.00">[0.3795]</text>
</g>
<!-- Road(23)
[0.3795]&#45;&gt;Channel(7)
[0.03] -->
<g id="edge23" class="edge">
<title>Road(23)
[0.3795]&#45;&gt;Channel(7)
[0.03]</title>
<path fill="none" stroke="black" d="M1440.74,-277.3C1430.3,-266.89 1417.81,-254.44 1406.59,-243.25"/>
<polygon fill="black" stroke="black" points="1408.99,-240.7 1399.44,-236.12 1404.05,-245.66 1408.99,-240.7"/>
</g>
<!-- Road(23)
[0.3795]&#45;&gt;basin -->
<g id="edge24" class="edge">
<title>Road(23)
[0.3795]&#45;&gt;basin</title>
<path fill="none" stroke="black" d="M1464.32,-274.23C1464.37,-234.71 1461.98,-157.69 1444.86,-95 1442.29,-85.59 1438.14,-75.79 1433.95,-67.21"/>
<polygon fill="black" stroke="black" points="1436.97,-65.43 1429.29,-58.14 1430.74,-68.63 1436.97,-65.43"/>
</g>
<!-- Unkown(24)
[0.04466] -->
<g id="node25" class="node">
<title>Unkown(24)
[0.04466]</title>
<ellipse fill="none" stroke="black" cx="615.86" cy="-839.79" rx="60.62" ry="26.74"/>
<text text-anchor="middle" x="615.86" y="-843.59" font-family="Times,serif" font-size="14.00">Unkown(24)</text>
<text text-anchor="middle" x="615.86" y="-828.59" font-family="Times,serif" font-size="14.00">[0.04466]</text>
</g>
<!-- Unkown(24)
[0.04466]&#45;&gt;Riparian forest 1(21)
[0.1565] -->
<g id="edge25" class="edge">
<title>Unkown(24)
[0.04466]&#45;&gt;Riparian forest 1(21)
[0.1565]</title>
<path fill="none" stroke="black" d="M631.13,-813.69C637.18,-802.75 643.68,-789.55 647.86,-776.92 664.25,-727.49 666.86,-713.38 666.86,-661.31 666.86,-661.31 666.86,-661.31 666.86,-479.83 666.86,-423.49 650.13,-408.15 614.86,-364.22 605.08,-352.03 592.36,-340.99 579.84,-331.71"/>
<polygon fill="black" stroke="black" points="581.84,-328.84 571.67,-325.88 577.78,-334.54 581.84,-328.84"/>
</g>
<!-- Wheat 1(25)
[0.2667] -->
<g id="node26" class="node">
<title>Wheat 1(25)
[0.2667]</title>
<ellipse fill="none" stroke="black" cx="704.86" cy="-929.53" rx="60.62" ry="26.74"/>
<text text-anchor="middle" x="704.86" y="-933.33" font-family="Times,serif" font-size="14.00">Wheat 1(25)</text>
<text text-anchor="middle" x="704.86" y="-918.33" font-family="Times,serif" font-size="14.00">[0.2667]</text>
</g>
<!-- Wheat 1(25)
[0.2667]&#45;&gt;Riparian forest 1(21)
[0.1565] -->
<g id="edge26" class="edge">
<title>Wheat 1(25)
[0.2667]&#45;&gt;Riparian forest 1(21)
[0.1565]</title>
<path fill="none" stroke="black" d="M704.86,-902.37C704.86,-867.75 704.86,-804.82 704.86,-751.05 704.86,-751.05 704.86,-751.05 704.86,-479.83 704.86,-422.74 688.51,-405.3 648.86,-364.22 634.26,-349.09 615.14,-336.87 596.6,-327.41"/>
<polygon fill="black" stroke="black" points="598.09,-324.25 587.57,-322.99 595.02,-330.53 598.09,-324.25"/>
</g>
<!-- Wheat 2(26)
[0.3189] -->
<g id="node27" class="node">
<title>Wheat 2(26)
[0.3189]</title>
<ellipse fill="none" stroke="black" cx="1420.86" cy="-929.53" rx="60.62" ry="26.74"/>
<text text-anchor="middle" x="1420.86" y="-933.33" font-family="Times,serif" font-size="14.00">Wheat 2(26)</text>
<text text-anchor="middle" x="1420.86" y="-918.33" font-family="Times,serif" font-size="14.00">[0.3189]</text>
</g>
<!-- Wheat 2(26)
[0.3189]&#45;&gt;Riparian forest 2(22)
[1.384] -->
<g id="edge27" class="edge">
<title>Wheat 2(26)
[0.3189]&#45;&gt;Riparian forest 2(22)
[1.384]</title>
<path fill="none" stroke="black" d="M1420.86,-902.37C1420.86,-867.75 1420.86,-804.82 1420.86,-751.05 1420.86,-751.05 1420.86,-751.05 1420.86,-479.83 1420.86,-421.14 1375.86,-366.71 1341.92,-334"/>
<polygon fill="black" stroke="black" points="1344.12,-331.26 1334.43,-326.96 1339.32,-336.36 1344.12,-331.26"/>
</g>
<!-- Wheat 3(27)
[0.5041] -->
<g id="node28" class="node">
<title>Wheat 3(27)
[0.5041]</title>
<ellipse fill="none" stroke="black" cx="793.86" cy="-391.09" rx="60.62" ry="26.74"/>
<text text-anchor="middle" x="793.86" y="-394.89" font-family="Times,serif" font-size="14.00">Wheat 3(27)</text>
<text text-anchor="middle" x="793.86" y="-379.89" font-family="Times,serif" font-size="14.00">[0.5041]</text>
</g>
<!-- Wheat 3(27)
[0.5041]&#45;&gt;Riparian forest 1(21)
[0.1565] -->
<g id="edge28" class="edge">
<title>Wheat 3(27)
[0.5041]&#45;&gt;Riparian forest 1(21)
[0.1565]</title>
<path fill="none" stroke="black" d="M747.08,-373.85C737.74,-370.64 728,-367.31 718.86,-364.22 680.07,-351.11 636.65,-336.73 601.43,-325.14"/>
<polygon fill="black" stroke="black" points="602.31,-321.74 591.72,-321.94 600.13,-328.39 602.31,-321.74"/>
</g>
<!-- Wheat 4(28)
[0.2773] -->
<g id="node29" class="node">
<title>Wheat 4(28)
[0.2773]</title>
<ellipse fill="none" stroke="black" cx="856.86" cy="-480.83" rx="60.62" ry="26.74"/>
<text text-anchor="middle" x="856.86" y="-484.63" font-family="Times,serif" font-size="14.00">Wheat 4(28)</text>
<text text-anchor="middle" x="856.86" y="-469.63" font-family="Times,serif" font-size="14.00">[0.2773]</text>
</g>
<!-- Wheat 4(28)
[0.2773]&#45;&gt;Riparian forest 1(21)
[0.1565] -->
<g id="edge29" class="edge">
<title>Wheat 4(28)
[0.2773]&#45;&gt;Riparian forest 1(21)
[0.1565]</title>
<path fill="none" stroke="black" d="M867.59,-454.17C876.45,-428.43 884.55,-389.12 863.86,-364.22 834.89,-329.35 719.79,-314.04 633.18,-307.37"/>
<polygon fill="black" stroke="black" points="633.27,-303.87 623.04,-306.62 632.75,-310.85 633.27,-303.87"/>
</g>
<!-- Wheat 5(29)
[0.2649] -->
<g id="node30" class="node">
<title>Wheat 5(29)
[0.2649]</title>
<ellipse fill="none" stroke="black" cx="945.86" cy="-570.57" rx="60.62" ry="26.74"/>
<text text-anchor="middle" x="945.86" y="-574.37" font-family="Times,serif" font-size="14.00">Wheat 5(29)</text>
<text text-anchor="middle" x="945.86" y="-559.37" font-family="Times,serif" font-size="14.00">[0.2649]</text>
</g>
<!-- Wheat 5(29)
[0.2649]&#45;&gt;Riparian forest 1(21)
[0.1565] -->
<g id="edge30" class="edge">
<title>Wheat 5(29)
[0.2649]&#45;&gt;Riparian forest 1(21)
[0.1565]</title>
<path fill="none" stroke="black" d="M946.98,-543.51C947.33,-498.51 940.68,-406.94 884.86,-364.22 845.99,-334.47 721.54,-317.92 631.4,-309.58"/>
<polygon fill="black" stroke="black" points="631.69,-306.09 621.41,-308.67 631.06,-313.06 631.69,-306.09"/>
</g>
<!-- Wheat 6(30)
[0.503] -->
<g id="node31" class="node">
<title>Wheat 6(30)
[0.503]</title>
<ellipse fill="none" stroke="black" cx="1509.86" cy="-391.09" rx="60.62" ry="26.74"/>
<text text-anchor="middle" x="1509.86" y="-394.89" font-family="Times,serif" font-size="14.00">Wheat 6(30)</text>
<text text-anchor="middle" x="1509.86" y="-379.89" font-family="Times,serif" font-size="14.00">[0.503]</text>
</g>
<!-- Wheat 6(30)
[0.503]&#45;&gt;Riparian forest 2(22)
[1.384] -->
<g id="edge31" class="edge">
<title>Wheat 6(30)
[0.503]&#45;&gt;Riparian forest 2(22)
[1.384]</title>
<path fill="none" stroke="black" d="M1466.89,-371.7C1437.29,-359.03 1397.55,-342.02 1364.84,-328.02"/>
<polygon fill="black" stroke="black" points="1365.94,-324.69 1355.37,-323.97 1363.19,-331.12 1365.94,-324.69"/>
</g>
<!-- Wheat 7(31)
[0.2986] -->
<g id="node32" class="node">
<title>Wheat 7(31)
[0.2986]</title>
<ellipse fill="none" stroke="black" cx="1034.86" cy="-660.31" rx="60.62" ry="26.74"/>
<text text-anchor="middle" x="1034.86" y="-664.11" font-family="Times,serif" font-size="14.00">Wheat 7(31)</text>
<text text-anchor="middle" x="1034.86" y="-649.11" font-family="Times,serif" font-size="14.00">[0.2986]</text>
</g>
<!-- Wheat 7(31)
[0.2986]&#45;&gt;Riparian forest 1(21)
[0.1565] -->
<g id="edge32" class="edge">
<title>Wheat 7(31)
[0.2986]&#45;&gt;Riparian forest 1(21)
[0.1565]</title>
<path fill="none" stroke="black" d="M1033.6,-633.17C1029.15,-573.64 1009.11,-428.23 918.86,-364.22 873.92,-332.35 730.98,-316.04 632.01,-308.36"/>
<polygon fill="black" stroke="black" points="632.21,-304.87 621.97,-307.6 631.68,-311.85 632.21,-304.87"/>
</g>
</g>
</svg>
