<?xml version="1.0" encoding="UTF-8" standalone="no"?>
<!DOCTYPE svg PUBLIC "-//W3C//DTD SVG 1.1//EN"
 "http://www.w3.org/Graphics/SVG/1.1/DTD/svg11.dtd">
<!-- Generated by graphviz version 2.43.0 (0)
 -->
<!-- Title: TEST Pages: 1 -->
<svg width="2150pt" height="875pt"
 viewBox="0.00 0.00 2149.61 874.66" xmlns="http://www.w3.org/2000/svg" xmlns:xlink="http://www.w3.org/1999/xlink">
<g id="graph0" class="graph" transform="scale(1 1) rotate(0) translate(4 870.66)">
<title>TEST</title>
<polygon fill="white" stroke="transparent" points="-4,4 -4,-870.66 2145.61,-870.66 2145.61,4 -4,4"/>
<text text-anchor="middle" x="1070.81" y="-7.8" font-family="Times,serif" font-size="14.00">D_Turner_model_GrpD</text>
<!-- Alfalfa(1)
&lt;1&gt;[0.135] -->
<g id="node1" class="node">
<title>Alfalfa(1)
&lt;1&gt;[0.135]</title>
<ellipse fill="none" stroke="black" cx="56.57" cy="-301.35" rx="56.64" ry="26.74"/>
<text text-anchor="middle" x="56.57" y="-305.15" font-family="Times,serif" font-size="14.00">Alfalfa(1)</text>
<text text-anchor="middle" x="56.57" y="-290.15" font-family="Times,serif" font-size="14.00">&lt;1&gt;[0.135]</text>
</g>
<!-- Channel(5)
&lt;37&gt;[0.03] -->
<g id="node2" class="node">
<title>Channel(5)
&lt;37&gt;[0.03]</title>
<ellipse fill="none" stroke="black" cx="1006.57" cy="-211.61" rx="56.64" ry="26.74"/>
<text text-anchor="middle" x="1006.57" y="-215.41" font-family="Times,serif" font-size="14.00">Channel(5)</text>
<text text-anchor="middle" x="1006.57" y="-200.41" font-family="Times,serif" font-size="14.00">&lt;37&gt;[0.03]</text>
</g>
<!-- Alfalfa(1)
&lt;1&gt;[0.135]&#45;&gt;Channel(5)
&lt;37&gt;[0.03] -->
<g id="edge1" class="edge">
<title>Alfalfa(1)
&lt;1&gt;[0.135]&#45;&gt;Channel(5)
&lt;37&gt;[0.03]</title>
<path fill="none" stroke="black" d="M98.05,-283.05C107.6,-279.68 117.82,-276.56 127.57,-274.48 282.62,-241.46 762.71,-221.35 939.94,-214.89"/>
<polygon fill="black" stroke="black" points="940.3,-218.38 950.17,-214.52 940.05,-211.39 940.3,-218.38"/>
</g>
<!-- Reservoir(38)
&lt;38&gt;[0.035] -->
<g id="node3" class="node">
<title>Reservoir(38)
&lt;38&gt;[0.035]</title>
<ellipse fill="none" stroke="black" cx="1006.57" cy="-121.87" rx="65.11" ry="26.74"/>
<text text-anchor="middle" x="1006.57" y="-125.67" font-family="Times,serif" font-size="14.00">Reservoir(38)</text>
<text text-anchor="middle" x="1006.57" y="-110.67" font-family="Times,serif" font-size="14.00">&lt;38&gt;[0.035]</text>
</g>
<!-- Channel(5)
&lt;37&gt;[0.03]&#45;&gt;Reservoir(38)
&lt;38&gt;[0.035] -->
<g id="edge2" class="edge">
<title>Channel(5)
&lt;37&gt;[0.03]&#45;&gt;Reservoir(38)
&lt;38&gt;[0.035]</title>
<path fill="none" stroke="black" d="M1006.57,-184.29C1006.57,-176.32 1006.57,-167.43 1006.57,-158.94"/>
<polygon fill="black" stroke="black" points="1010.07,-158.87 1006.57,-148.87 1003.07,-158.87 1010.07,-158.87"/>
</g>
<!-- basin -->
<g id="node4" class="node">
<title>basin</title>
<ellipse fill="none" stroke="black" cx="1006.57" cy="-41" rx="29.5" ry="18"/>
<text text-anchor="middle" x="1006.57" y="-37.3" font-family="Times,serif" font-size="14.00">basin</text>
</g>
<!-- Reservoir(38)
&lt;38&gt;[0.035]&#45;&gt;basin -->
<g id="edge3" class="edge">
<title>Reservoir(38)
&lt;38&gt;[0.035]&#45;&gt;basin</title>
<path fill="none" stroke="black" d="M1006.57,-94.61C1006.57,-86.51 1006.57,-77.57 1006.57,-69.39"/>
<polygon fill="black" stroke="black" points="1010.07,-69.22 1006.57,-59.22 1003.07,-69.22 1010.07,-69.22"/>
</g>
<!-- Barley_1(2)
&lt;2&gt;[0.166] -->
<g id="node5" class="node">
<title>Barley_1(2)
&lt;2&gt;[0.166]</title>
<ellipse fill="none" stroke="black" cx="117.57" cy="-391.09" rx="57.97" ry="26.74"/>
<text text-anchor="middle" x="117.57" y="-394.89" font-family="Times,serif" font-size="14.00">Barley_1(2)</text>
<text text-anchor="middle" x="117.57" y="-379.89" font-family="Times,serif" font-size="14.00">&lt;2&gt;[0.166]</text>
</g>
<!-- Barley_1(2)
&lt;2&gt;[0.166]&#45;&gt;Channel(5)
&lt;37&gt;[0.03] -->
<g id="edge4" class="edge">
<title>Barley_1(2)
&lt;2&gt;[0.166]&#45;&gt;Channel(5)
&lt;37&gt;[0.03]</title>
<path fill="none" stroke="black" d="M125.74,-364.31C135.94,-336.88 156.2,-294.7 189.57,-274.48 253.08,-236.01 756.5,-219.13 939.97,-214.22"/>
<polygon fill="black" stroke="black" points="940.13,-217.72 950.03,-213.95 939.94,-210.72 940.13,-217.72"/>
</g>
<!-- Barley_2(3)
&lt;3&gt;[0.00997] -->
<g id="node6" class="node">
<title>Barley_2(3)
&lt;3&gt;[0.00997]</title>
<ellipse fill="none" stroke="black" cx="147.57" cy="-480.83" rx="65.52" ry="26.74"/>
<text text-anchor="middle" x="147.57" y="-484.63" font-family="Times,serif" font-size="14.00">Barley_2(3)</text>
<text text-anchor="middle" x="147.57" y="-469.63" font-family="Times,serif" font-size="14.00">&lt;3&gt;[0.00997]</text>
</g>
<!-- Barley_2(3)
&lt;3&gt;[0.00997]&#45;&gt;Channel(5)
&lt;37&gt;[0.03] -->
<g id="edge5" class="edge">
<title>Barley_2(3)
&lt;3&gt;[0.00997]&#45;&gt;Channel(5)
&lt;37&gt;[0.03]</title>
<path fill="none" stroke="black" d="M164.53,-454.71C171.4,-443.75 179.02,-430.56 184.57,-417.96 211.41,-357.04 175.78,-316.31 227.57,-274.48 282.41,-230.19 761.67,-217.03 940.06,-213.65"/>
<polygon fill="black" stroke="black" points="940.17,-217.15 950.1,-213.47 940.04,-210.15 940.17,-217.15"/>
</g>
<!-- Barley_3(4)
&lt;4&gt;[0.0428] -->
<g id="node7" class="node">
<title>Barley_3(4)
&lt;4&gt;[0.0428]</title>
<ellipse fill="none" stroke="black" cx="190.57" cy="-570.57" rx="60.62" ry="26.74"/>
<text text-anchor="middle" x="190.57" y="-574.37" font-family="Times,serif" font-size="14.00">Barley_3(4)</text>
<text text-anchor="middle" x="190.57" y="-559.37" font-family="Times,serif" font-size="14.00">&lt;4&gt;[0.0428]</text>
</g>
<!-- Barley_3(4)
&lt;4&gt;[0.0428]&#45;&gt;Channel(5)
&lt;37&gt;[0.03] -->
<g id="edge6" class="edge">
<title>Barley_3(4)
&lt;4&gt;[0.0428]&#45;&gt;Channel(5)
&lt;37&gt;[0.03]</title>
<path fill="none" stroke="black" d="M205.72,-544.43C211.75,-533.48 218.26,-520.29 222.57,-507.7 256.71,-407.98 187.44,-345.23 265.57,-274.48 314.98,-229.74 766.95,-216.92 939.79,-213.64"/>
<polygon fill="black" stroke="black" points="940.09,-217.13 950.02,-213.45 939.96,-210.13 940.09,-217.13"/>
</g>
<!-- Canola_1(6)
&lt;5&gt;[0.0981] -->
<g id="node8" class="node">
<title>Canola_1(6)
&lt;5&gt;[0.0981]</title>
<ellipse fill="none" stroke="black" cx="228.57" cy="-660.31" rx="60.62" ry="26.74"/>
<text text-anchor="middle" x="228.57" y="-664.11" font-family="Times,serif" font-size="14.00">Canola_1(6)</text>
<text text-anchor="middle" x="228.57" y="-649.11" font-family="Times,serif" font-size="14.00">&lt;5&gt;[0.0981]</text>
</g>
<!-- Canola_1(6)
&lt;5&gt;[0.0981]&#45;&gt;Channel(5)
&lt;37&gt;[0.03] -->
<g id="edge7" class="edge">
<title>Canola_1(6)
&lt;5&gt;[0.0981]&#45;&gt;Channel(5)
&lt;37&gt;[0.03]</title>
<path fill="none" stroke="black" d="M243.84,-634.21C249.89,-623.27 256.38,-610.07 260.57,-597.44 276.95,-548.01 279.57,-533.9 279.57,-481.83 279.57,-481.83 279.57,-481.83 279.57,-390.09 279.57,-337.61 264.36,-309.36 303.57,-274.48 350.53,-232.71 773.9,-218.15 940.06,-214.02"/>
<polygon fill="black" stroke="black" points="940.25,-217.51 950.16,-213.77 940.08,-210.52 940.25,-217.51"/>
</g>
<!-- Canola_2(7)
&lt;6&gt;[0.0532] -->
<g id="node9" class="node">
<title>Canola_2(7)
&lt;6&gt;[0.0532]</title>
<ellipse fill="none" stroke="black" cx="266.57" cy="-750.05" rx="60.62" ry="26.74"/>
<text text-anchor="middle" x="266.57" y="-753.85" font-family="Times,serif" font-size="14.00">Canola_2(7)</text>
<text text-anchor="middle" x="266.57" y="-738.85" font-family="Times,serif" font-size="14.00">&lt;6&gt;[0.0532]</text>
</g>
<!-- Canola_2(7)
&lt;6&gt;[0.0532]&#45;&gt;Channel(5)
&lt;37&gt;[0.03] -->
<g id="edge8" class="edge">
<title>Canola_2(7)
&lt;6&gt;[0.0532]&#45;&gt;Channel(5)
&lt;37&gt;[0.03]</title>
<path fill="none" stroke="black" d="M281.84,-723.95C287.89,-713.01 294.38,-699.81 298.57,-687.18 314.95,-637.75 317.57,-623.64 317.57,-571.57 317.57,-571.57 317.57,-571.57 317.57,-390.09 317.57,-337.61 302.44,-309.45 341.57,-274.48 385.58,-235.14 780.42,-219.24 940.05,-214.38"/>
<polygon fill="black" stroke="black" points="940.32,-217.87 950.21,-214.07 940.11,-210.87 940.32,-217.87"/>
</g>
<!-- Canola_3(8)
&lt;7&gt;[0.196] -->
<g id="node10" class="node">
<title>Canola_3(8)
&lt;7&gt;[0.196]</title>
<ellipse fill="none" stroke="black" cx="355.57" cy="-839.79" rx="59.29" ry="26.74"/>
<text text-anchor="middle" x="355.57" y="-843.59" font-family="Times,serif" font-size="14.00">Canola_3(8)</text>
<text text-anchor="middle" x="355.57" y="-828.59" font-family="Times,serif" font-size="14.00">&lt;7&gt;[0.196]</text>
</g>
<!-- Canola_3(8)
&lt;7&gt;[0.196]&#45;&gt;Channel(5)
&lt;37&gt;[0.03] -->
<g id="edge9" class="edge">
<title>Canola_3(8)
&lt;7&gt;[0.196]&#45;&gt;Channel(5)
&lt;37&gt;[0.03]</title>
<path fill="none" stroke="black" d="M355.57,-812.63C355.57,-778.01 355.57,-715.08 355.57,-661.31 355.57,-661.31 355.57,-661.31 355.57,-390.09 355.57,-338.02 336.57,-310.08 374.57,-274.48 415.22,-236.4 785.59,-219.88 939.74,-214.62"/>
<polygon fill="black" stroke="black" points="940.14,-218.11 950.01,-214.27 939.9,-211.11 940.14,-218.11"/>
</g>
<!-- Canola_4(9)
&lt;8&gt;[0.227] -->
<g id="node11" class="node">
<title>Canola_4(9)
&lt;8&gt;[0.227]</title>
<ellipse fill="none" stroke="black" cx="442.57" cy="-301.35" rx="59.29" ry="26.74"/>
<text text-anchor="middle" x="442.57" y="-305.15" font-family="Times,serif" font-size="14.00">Canola_4(9)</text>
<text text-anchor="middle" x="442.57" y="-290.15" font-family="Times,serif" font-size="14.00">&lt;8&gt;[0.227]</text>
</g>
<!-- Canola_4(9)
&lt;8&gt;[0.227]&#45;&gt;Channel(5)
&lt;37&gt;[0.03] -->
<g id="edge10" class="edge">
<title>Canola_4(9)
&lt;8&gt;[0.227]&#45;&gt;Channel(5)
&lt;37&gt;[0.03]</title>
<path fill="none" stroke="black" d="M486.51,-283.07C495.98,-279.82 506.02,-276.75 515.57,-274.48 665.19,-238.98 845.59,-222.88 940.61,-216.4"/>
<polygon fill="black" stroke="black" points="940.9,-219.89 950.65,-215.73 940.44,-212.9 940.9,-219.89"/>
</g>
<!-- Canola_5(10)
&lt;9&gt;[0.0927] -->
<g id="node12" class="node">
<title>Canola_5(10)
&lt;9&gt;[0.0927]</title>
<ellipse fill="none" stroke="black" cx="475.57" cy="-391.09" rx="64.19" ry="26.74"/>
<text text-anchor="middle" x="475.57" y="-394.89" font-family="Times,serif" font-size="14.00">Canola_5(10)</text>
<text text-anchor="middle" x="475.57" y="-379.89" font-family="Times,serif" font-size="14.00">&lt;9&gt;[0.0927]</text>
</g>
<!-- Canola_5(10)
&lt;9&gt;[0.0927]&#45;&gt;Channel(5)
&lt;37&gt;[0.03] -->
<g id="edge11" class="edge">
<title>Canola_5(10)
&lt;9&gt;[0.0927]&#45;&gt;Channel(5)
&lt;37&gt;[0.03]</title>
<path fill="none" stroke="black" d="M489.39,-364.74C506.59,-334.17 535.84,-285.51 553.57,-274.48 616.66,-235.23 829.73,-220.3 939.69,-215.11"/>
<polygon fill="black" stroke="black" points="940.17,-218.59 950,-214.64 939.85,-211.6 940.17,-218.59"/>
</g>
<!-- Fall_rye_1(11)
&lt;10&gt;[0.177] -->
<g id="node13" class="node">
<title>Fall_rye_1(11)
&lt;10&gt;[0.177]</title>
<ellipse fill="none" stroke="black" cx="508.57" cy="-480.83" rx="69.09" ry="26.74"/>
<text text-anchor="middle" x="508.57" y="-484.63" font-family="Times,serif" font-size="14.00">Fall_rye_1(11)</text>
<text text-anchor="middle" x="508.57" y="-469.63" font-family="Times,serif" font-size="14.00">&lt;10&gt;[0.177]</text>
</g>
<!-- Fall_rye_1(11)
&lt;10&gt;[0.177]&#45;&gt;Channel(5)
&lt;37&gt;[0.03] -->
<g id="edge12" class="edge">
<title>Fall_rye_1(11)
&lt;10&gt;[0.177]&#45;&gt;Channel(5)
&lt;37&gt;[0.03]</title>
<path fill="none" stroke="black" d="M527,-454.88C534.46,-443.95 542.67,-430.73 548.57,-417.96 576.47,-357.52 541.25,-318.07 591.57,-274.48 642.46,-230.4 836.22,-217.72 940,-214.08"/>
<polygon fill="black" stroke="black" points="940.18,-217.57 950.06,-213.74 939.95,-210.58 940.18,-217.57"/>
</g>
<!-- Forage_1(12)
&lt;11&gt;[0.0579] -->
<g id="node14" class="node">
<title>Forage_1(12)
&lt;11&gt;[0.0579]</title>
<ellipse fill="none" stroke="black" cx="549.57" cy="-570.57" rx="65.52" ry="26.74"/>
<text text-anchor="middle" x="549.57" y="-574.37" font-family="Times,serif" font-size="14.00">Forage_1(12)</text>
<text text-anchor="middle" x="549.57" y="-559.37" font-family="Times,serif" font-size="14.00">&lt;11&gt;[0.0579]</text>
</g>
<!-- Forage_1(12)
&lt;11&gt;[0.0579]&#45;&gt;Channel(5)
&lt;37&gt;[0.03] -->
<g id="edge13" class="edge">
<title>Forage_1(12)
&lt;11&gt;[0.0579]&#45;&gt;Channel(5)
&lt;37&gt;[0.03]</title>
<path fill="none" stroke="black" d="M567.4,-544.42C574.33,-533.58 581.75,-520.46 586.57,-507.7 623.76,-409.08 554.31,-348.27 629.57,-274.48 672.46,-232.42 843.42,-218.91 939.73,-214.6"/>
<polygon fill="black" stroke="black" points="940.11,-218.09 949.95,-214.16 939.81,-211.09 940.11,-218.09"/>
</g>
<!-- Forage_2(13)
&lt;12&gt;[0.0255] -->
<g id="node15" class="node">
<title>Forage_2(13)
&lt;12&gt;[0.0255]</title>
<ellipse fill="none" stroke="black" cx="587.57" cy="-660.31" rx="65.52" ry="26.74"/>
<text text-anchor="middle" x="587.57" y="-664.11" font-family="Times,serif" font-size="14.00">Forage_2(13)</text>
<text text-anchor="middle" x="587.57" y="-649.11" font-family="Times,serif" font-size="14.00">&lt;12&gt;[0.0255]</text>
</g>
<!-- Forage_2(13)
&lt;12&gt;[0.0255]&#45;&gt;Channel(5)
&lt;37&gt;[0.03] -->
<g id="edge14" class="edge">
<title>Forage_2(13)
&lt;12&gt;[0.0255]&#45;&gt;Channel(5)
&lt;37&gt;[0.03]</title>
<path fill="none" stroke="black" d="M605.52,-634.21C612.48,-623.37 619.88,-610.25 624.57,-597.44 642.47,-548.54 643.57,-533.9 643.57,-481.83 643.57,-481.83 643.57,-481.83 643.57,-390.09 643.57,-337.61 630.02,-311.14 667.57,-274.48 705.46,-237.5 853,-222.08 940.46,-216.08"/>
<polygon fill="black" stroke="black" points="940.81,-219.57 950.55,-215.42 940.34,-212.58 940.81,-219.57"/>
</g>
<!-- Forage_3(14)
&lt;13&gt;[0.147] -->
<g id="node16" class="node">
<title>Forage_3(14)
&lt;13&gt;[0.147]</title>
<ellipse fill="none" stroke="black" cx="627.57" cy="-750.05" rx="63.78" ry="26.74"/>
<text text-anchor="middle" x="627.57" y="-753.85" font-family="Times,serif" font-size="14.00">Forage_3(14)</text>
<text text-anchor="middle" x="627.57" y="-738.85" font-family="Times,serif" font-size="14.00">&lt;13&gt;[0.147]</text>
</g>
<!-- Forage_3(14)
&lt;13&gt;[0.147]&#45;&gt;Channel(5)
&lt;37&gt;[0.03] -->
<g id="edge15" class="edge">
<title>Forage_3(14)
&lt;13&gt;[0.147]&#45;&gt;Channel(5)
&lt;37&gt;[0.03]</title>
<path fill="none" stroke="black" d="M644.33,-724.13C650.96,-713.21 658.06,-699.98 662.57,-687.18 679.88,-638.07 681.57,-623.64 681.57,-571.57 681.57,-571.57 681.57,-571.57 681.57,-390.09 681.57,-337.61 668.42,-311.55 705.57,-274.48 737.96,-242.15 862.1,-225.37 940.48,-217.81"/>
<polygon fill="black" stroke="black" points="941.12,-221.27 950.75,-216.85 940.47,-214.3 941.12,-221.27"/>
</g>
<!-- Grazing_1(15)
&lt;14&gt;[0.113] -->
<g id="node17" class="node">
<title>Grazing_1(15)
&lt;14&gt;[0.113]</title>
<ellipse fill="none" stroke="black" cx="719.57" cy="-839.79" rx="67.76" ry="26.74"/>
<text text-anchor="middle" x="719.57" y="-843.59" font-family="Times,serif" font-size="14.00">Grazing_1(15)</text>
<text text-anchor="middle" x="719.57" y="-828.59" font-family="Times,serif" font-size="14.00">&lt;14&gt;[0.113]</text>
</g>
<!-- Grazing_1(15)
&lt;14&gt;[0.113]&#45;&gt;Channel(5)
&lt;37&gt;[0.03] -->
<g id="edge16" class="edge">
<title>Grazing_1(15)
&lt;14&gt;[0.113]&#45;&gt;Channel(5)
&lt;37&gt;[0.03]</title>
<path fill="none" stroke="black" d="M719.57,-812.63C719.57,-778.01 719.57,-715.08 719.57,-661.31 719.57,-661.31 719.57,-661.31 719.57,-390.09 719.57,-338.02 702.95,-312.46 738.57,-274.48 765.81,-245.43 871.33,-227.97 941.55,-219.33"/>
<polygon fill="black" stroke="black" points="942.13,-222.79 951.64,-218.12 941.3,-215.84 942.13,-222.79"/>
</g>
<!-- Grazing_2(16)
&lt;15&gt;[0.0966] -->
<g id="node18" class="node">
<title>Grazing_2(16)
&lt;15&gt;[0.0966]</title>
<ellipse fill="none" stroke="black" cx="815.57" cy="-301.35" rx="67.76" ry="26.74"/>
<text text-anchor="middle" x="815.57" y="-305.15" font-family="Times,serif" font-size="14.00">Grazing_2(16)</text>
<text text-anchor="middle" x="815.57" y="-290.15" font-family="Times,serif" font-size="14.00">&lt;15&gt;[0.0966]</text>
</g>
<!-- Grazing_2(16)
&lt;15&gt;[0.0966]&#45;&gt;Channel(5)
&lt;37&gt;[0.03] -->
<g id="edge17" class="edge">
<title>Grazing_2(16)
&lt;15&gt;[0.0966]&#45;&gt;Channel(5)
&lt;37&gt;[0.03]</title>
<path fill="none" stroke="black" d="M858.91,-280.44C888.23,-266.97 927.03,-249.15 957.49,-235.16"/>
<polygon fill="black" stroke="black" points="959.03,-238.3 966.66,-230.94 956.11,-231.94 959.03,-238.3"/>
</g>
<!-- Impervious(17)
&lt;16&gt;[0.0808] -->
<g id="node19" class="node">
<title>Impervious(17)
&lt;16&gt;[0.0808]</title>
<ellipse fill="none" stroke="black" cx="850.57" cy="-391.09" rx="71.34" ry="26.74"/>
<text text-anchor="middle" x="850.57" y="-394.89" font-family="Times,serif" font-size="14.00">Impervious(17)</text>
<text text-anchor="middle" x="850.57" y="-379.89" font-family="Times,serif" font-size="14.00">&lt;16&gt;[0.0808]</text>
</g>
<!-- Impervious(17)
&lt;16&gt;[0.0808]&#45;&gt;Channel(5)
&lt;37&gt;[0.03] -->
<g id="edge18" class="edge">
<title>Impervious(17)
&lt;16&gt;[0.0808]&#45;&gt;Channel(5)
&lt;37&gt;[0.03]</title>
<path fill="none" stroke="black" d="M868.05,-364.99C888.45,-335.93 921.23,-290.06 935.57,-274.48 946.09,-263.04 958.59,-251.57 970.15,-241.66"/>
<polygon fill="black" stroke="black" points="972.57,-244.2 977.96,-235.07 968.06,-238.85 972.57,-244.2"/>
</g>
<!-- Oat_1(18)
&lt;17&gt;[0.0284] -->
<g id="node20" class="node">
<title>Oat_1(18)
&lt;17&gt;[0.0284]</title>
<ellipse fill="none" stroke="black" cx="893.57" cy="-480.83" rx="65.52" ry="26.74"/>
<text text-anchor="middle" x="893.57" y="-484.63" font-family="Times,serif" font-size="14.00">Oat_1(18)</text>
<text text-anchor="middle" x="893.57" y="-469.63" font-family="Times,serif" font-size="14.00">&lt;17&gt;[0.0284]</text>
</g>
<!-- Oat_1(18)
&lt;17&gt;[0.0284]&#45;&gt;Channel(5)
&lt;37&gt;[0.03] -->
<g id="edge19" class="edge">
<title>Oat_1(18)
&lt;17&gt;[0.0284]&#45;&gt;Channel(5)
&lt;37&gt;[0.03]</title>
<path fill="none" stroke="black" d="M910.53,-454.71C917.4,-443.75 925.02,-430.56 930.57,-417.96 957.41,-357.04 948.22,-336.04 973.57,-274.48 977.39,-265.21 982.17,-255.49 986.89,-246.59"/>
<polygon fill="black" stroke="black" points="990.05,-248.1 991.75,-237.65 983.9,-244.76 990.05,-248.1"/>
</g>
<!-- Pasture_1(19)
&lt;18&gt;[0.102] -->
<g id="node21" class="node">
<title>Pasture_1(19)
&lt;18&gt;[0.102]</title>
<ellipse fill="none" stroke="black" cx="932.57" cy="-570.57" rx="65.11" ry="26.74"/>
<text text-anchor="middle" x="932.57" y="-574.37" font-family="Times,serif" font-size="14.00">Pasture_1(19)</text>
<text text-anchor="middle" x="932.57" y="-559.37" font-family="Times,serif" font-size="14.00">&lt;18&gt;[0.102]</text>
</g>
<!-- Pasture_1(19)
&lt;18&gt;[0.102]&#45;&gt;Channel(5)
&lt;37&gt;[0.03] -->
<g id="edge20" class="edge">
<title>Pasture_1(19)
&lt;18&gt;[0.102]&#45;&gt;Channel(5)
&lt;37&gt;[0.03]</title>
<path fill="none" stroke="black" d="M950.24,-544.49C957.04,-533.65 964.21,-520.53 968.57,-507.7 999.01,-418.1 1005.34,-305.63 1006.48,-248.9"/>
<polygon fill="black" stroke="black" points="1009.99,-248.7 1006.64,-238.64 1002.99,-248.59 1009.99,-248.7"/>
</g>
<!-- Pasture_2(20)
&lt;19&gt;[0.0328] -->
<g id="node22" class="node">
<title>Pasture_2(20)
&lt;19&gt;[0.0328]</title>
<ellipse fill="none" stroke="black" cx="969.57" cy="-660.31" rx="65.52" ry="26.74"/>
<text text-anchor="middle" x="969.57" y="-664.11" font-family="Times,serif" font-size="14.00">Pasture_2(20)</text>
<text text-anchor="middle" x="969.57" y="-649.11" font-family="Times,serif" font-size="14.00">&lt;19&gt;[0.0328]</text>
</g>
<!-- Pasture_2(20)
&lt;19&gt;[0.0328]&#45;&gt;Channel(5)
&lt;37&gt;[0.03] -->
<g id="edge21" class="edge">
<title>Pasture_2(20)
&lt;19&gt;[0.0328]&#45;&gt;Channel(5)
&lt;37&gt;[0.03]</title>
<path fill="none" stroke="black" d="M987.52,-634.21C994.48,-623.37 1001.88,-610.25 1006.57,-597.44 1024.47,-548.54 1025.57,-533.9 1025.57,-481.83 1025.57,-481.83 1025.57,-481.83 1025.57,-390.09 1025.57,-340.87 1018.26,-284.41 1012.7,-248.64"/>
<polygon fill="black" stroke="black" points="1016.15,-248.01 1011.12,-238.68 1009.23,-249.1 1016.15,-248.01"/>
</g>
<!-- Riparian_1(21)
&lt;20&gt;[0.197] -->
<g id="node23" class="node">
<title>Riparian_1(21)
&lt;20&gt;[0.197]</title>
<ellipse fill="none" stroke="black" cx="1003.57" cy="-750.05" rx="70.01" ry="26.74"/>
<text text-anchor="middle" x="1003.57" y="-753.85" font-family="Times,serif" font-size="14.00">Riparian_1(21)</text>
<text text-anchor="middle" x="1003.57" y="-738.85" font-family="Times,serif" font-size="14.00">&lt;20&gt;[0.197]</text>
</g>
<!-- Riparian_1(21)
&lt;20&gt;[0.197]&#45;&gt;Channel(5)
&lt;37&gt;[0.03] -->
<g id="edge22" class="edge">
<title>Riparian_1(21)
&lt;20&gt;[0.197]&#45;&gt;Channel(5)
&lt;37&gt;[0.03]</title>
<path fill="none" stroke="black" d="M1023.52,-724.21C1031.24,-713.41 1039.44,-700.26 1044.57,-687.18 1063.6,-638.71 1063.57,-623.64 1063.57,-571.57 1063.57,-571.57 1063.57,-571.57 1063.57,-390.09 1063.57,-338.47 1041.44,-282.28 1024.76,-247.25"/>
<polygon fill="black" stroke="black" points="1027.75,-245.4 1020.22,-237.95 1021.46,-248.47 1027.75,-245.4"/>
</g>
<!-- Riparian_2(22)
&lt;21&gt;[0.174] -->
<g id="node24" class="node">
<title>Riparian_2(22)
&lt;21&gt;[0.174]</title>
<ellipse fill="none" stroke="black" cx="1101.57" cy="-839.79" rx="70.01" ry="26.74"/>
<text text-anchor="middle" x="1101.57" y="-843.59" font-family="Times,serif" font-size="14.00">Riparian_2(22)</text>
<text text-anchor="middle" x="1101.57" y="-828.59" font-family="Times,serif" font-size="14.00">&lt;21&gt;[0.174]</text>
</g>
<!-- Riparian_2(22)
&lt;21&gt;[0.174]&#45;&gt;Channel(5)
&lt;37&gt;[0.03] -->
<g id="edge23" class="edge">
<title>Riparian_2(22)
&lt;21&gt;[0.174]&#45;&gt;Channel(5)
&lt;37&gt;[0.03]</title>
<path fill="none" stroke="black" d="M1101.57,-812.63C1101.57,-778.01 1101.57,-715.08 1101.57,-661.31 1101.57,-661.31 1101.57,-661.31 1101.57,-390.09 1101.57,-335.57 1088.09,-321.54 1060.57,-274.48 1054.21,-263.62 1045.82,-252.89 1037.55,-243.49"/>
<polygon fill="black" stroke="black" points="1040,-240.98 1030.68,-235.94 1034.82,-245.69 1040,-240.98"/>
</g>
<!-- Riparian_3(23)
&lt;22&gt;[0.0775] -->
<g id="node25" class="node">
<title>Riparian_3(23)
&lt;22&gt;[0.0775]</title>
<ellipse fill="none" stroke="black" cx="1199.57" cy="-301.35" rx="70.01" ry="26.74"/>
<text text-anchor="middle" x="1199.57" y="-305.15" font-family="Times,serif" font-size="14.00">Riparian_3(23)</text>
<text text-anchor="middle" x="1199.57" y="-290.15" font-family="Times,serif" font-size="14.00">&lt;22&gt;[0.0775]</text>
</g>
<!-- Riparian_3(23)
&lt;22&gt;[0.0775]&#45;&gt;Channel(5)
&lt;37&gt;[0.03] -->
<g id="edge24" class="edge">
<title>Riparian_3(23)
&lt;22&gt;[0.0775]&#45;&gt;Channel(5)
&lt;37&gt;[0.03]</title>
<path fill="none" stroke="black" d="M1155.29,-280.22C1125.54,-266.7 1086.31,-248.86 1055.61,-234.9"/>
<polygon fill="black" stroke="black" points="1056.93,-231.66 1046.38,-230.71 1054.03,-238.03 1056.93,-231.66"/>
</g>
<!-- Riparian_4(24)
&lt;23&gt;[0.606] -->
<g id="node26" class="node">
<title>Riparian_4(24)
&lt;23&gt;[0.606]</title>
<ellipse fill="none" stroke="black" cx="1237.57" cy="-391.09" rx="70.01" ry="26.74"/>
<text text-anchor="middle" x="1237.57" y="-394.89" font-family="Times,serif" font-size="14.00">Riparian_4(24)</text>
<text text-anchor="middle" x="1237.57" y="-379.89" font-family="Times,serif" font-size="14.00">&lt;23&gt;[0.606]</text>
</g>
<!-- Riparian_4(24)
&lt;23&gt;[0.606]&#45;&gt;Channel(5)
&lt;37&gt;[0.03] -->
<g id="edge25" class="edge">
<title>Riparian_4(24)
&lt;23&gt;[0.606]&#45;&gt;Channel(5)
&lt;37&gt;[0.03]</title>
<path fill="none" stroke="black" d="M1259.15,-365.22C1278.23,-340.1 1299.96,-301.28 1278.57,-274.48 1253.27,-242.78 1144.62,-226.07 1072.53,-218.31"/>
<polygon fill="black" stroke="black" points="1072.48,-214.79 1062.17,-217.23 1071.75,-221.75 1072.48,-214.79"/>
</g>
<!-- Riparian_5(25)
&lt;24&gt;[0.28] -->
<g id="node27" class="node">
<title>Riparian_5(25)
&lt;24&gt;[0.28]</title>
<ellipse fill="none" stroke="black" cx="1275.57" cy="-480.83" rx="70.01" ry="26.74"/>
<text text-anchor="middle" x="1275.57" y="-484.63" font-family="Times,serif" font-size="14.00">Riparian_5(25)</text>
<text text-anchor="middle" x="1275.57" y="-469.63" font-family="Times,serif" font-size="14.00">&lt;24&gt;[0.28]</text>
</g>
<!-- Riparian_5(25)
&lt;24&gt;[0.28]&#45;&gt;Channel(5)
&lt;37&gt;[0.03] -->
<g id="edge26" class="edge">
<title>Riparian_5(25)
&lt;24&gt;[0.28]&#45;&gt;Channel(5)
&lt;37&gt;[0.03]</title>
<path fill="none" stroke="black" d="M1296.81,-455.06C1304.63,-444.38 1312.55,-431.29 1316.57,-417.96 1335.12,-356.37 1343.03,-319.98 1297.57,-274.48 1266.54,-243.42 1148.39,-226.33 1072.51,-218.35"/>
<polygon fill="black" stroke="black" points="1072.41,-214.82 1062.1,-217.28 1071.69,-221.78 1072.41,-214.82"/>
</g>
<!-- Riparian_6(26)
&lt;25&gt;[0.0378] -->
<g id="node28" class="node">
<title>Riparian_6(26)
&lt;25&gt;[0.0378]</title>
<ellipse fill="none" stroke="black" cx="1313.57" cy="-570.57" rx="70.01" ry="26.74"/>
<text text-anchor="middle" x="1313.57" y="-574.37" font-family="Times,serif" font-size="14.00">Riparian_6(26)</text>
<text text-anchor="middle" x="1313.57" y="-559.37" font-family="Times,serif" font-size="14.00">&lt;25&gt;[0.0378]</text>
</g>
<!-- Riparian_6(26)
&lt;25&gt;[0.0378]&#45;&gt;Channel(5)
&lt;37&gt;[0.03] -->
<g id="edge27" class="edge">
<title>Riparian_6(26)
&lt;25&gt;[0.0378]&#45;&gt;Channel(5)
&lt;37&gt;[0.03]</title>
<path fill="none" stroke="black" d="M1334.81,-544.81C1342.63,-534.12 1350.55,-521.03 1354.57,-507.7 1374.44,-441.73 1355.13,-303.2 1327.57,-274.48 1293.24,-238.71 1156.26,-222.95 1072.72,-216.54"/>
<polygon fill="black" stroke="black" points="1072.79,-213.04 1062.56,-215.79 1072.28,-220.02 1072.79,-213.04"/>
</g>
<!-- Wheat_1(27)
&lt;26&gt;[0.904] -->
<g id="node29" class="node">
<title>Wheat_1(27)
&lt;26&gt;[0.904]</title>
<ellipse fill="none" stroke="black" cx="1358.57" cy="-660.31" rx="62.87" ry="26.74"/>
<text text-anchor="middle" x="1358.57" y="-664.11" font-family="Times,serif" font-size="14.00">Wheat_1(27)</text>
<text text-anchor="middle" x="1358.57" y="-649.11" font-family="Times,serif" font-size="14.00">&lt;26&gt;[0.904]</text>
</g>
<!-- Wheat_1(27)
&lt;26&gt;[0.904]&#45;&gt;Channel(5)
&lt;37&gt;[0.03] -->
<g id="edge28" class="edge">
<title>Wheat_1(27)
&lt;26&gt;[0.904]&#45;&gt;Channel(5)
&lt;37&gt;[0.03]</title>
<path fill="none" stroke="black" d="M1374.83,-634.33C1381.27,-623.4 1388.17,-610.18 1392.57,-597.44 1409.57,-548.22 1411.57,-533.9 1411.57,-481.83 1411.57,-481.83 1411.57,-481.83 1411.57,-390.09 1411.57,-332.6 1399.64,-308.86 1353.57,-274.48 1310.11,-242.05 1160.51,-224.87 1072.56,-217.37"/>
<polygon fill="black" stroke="black" points="1072.67,-213.86 1062.42,-216.52 1072.09,-220.84 1072.67,-213.86"/>
</g>
<!-- Wheat_2(28)
&lt;27&gt;[0.0603] -->
<g id="node30" class="node">
<title>Wheat_2(28)
&lt;27&gt;[0.0603]</title>
<ellipse fill="none" stroke="black" cx="1393.57" cy="-750.05" rx="65.52" ry="26.74"/>
<text text-anchor="middle" x="1393.57" y="-753.85" font-family="Times,serif" font-size="14.00">Wheat_2(28)</text>
<text text-anchor="middle" x="1393.57" y="-738.85" font-family="Times,serif" font-size="14.00">&lt;27&gt;[0.0603]</text>
</g>
<!-- Wheat_2(28)
&lt;27&gt;[0.0603]&#45;&gt;Channel(5)
&lt;37&gt;[0.03] -->
<g id="edge29" class="edge">
<title>Wheat_2(28)
&lt;27&gt;[0.0603]&#45;&gt;Channel(5)
&lt;37&gt;[0.03]</title>
<path fill="none" stroke="black" d="M1411.52,-723.95C1418.48,-713.11 1425.88,-699.99 1430.57,-687.18 1448.47,-638.28 1449.57,-623.64 1449.57,-571.57 1449.57,-571.57 1449.57,-571.57 1449.57,-390.09 1449.57,-332.8 1438.66,-308.5 1392.57,-274.48 1343.04,-237.93 1169.91,-222.11 1073.2,-216"/>
<polygon fill="black" stroke="black" points="1073.14,-212.49 1062.94,-215.37 1072.71,-219.47 1073.14,-212.49"/>
</g>
<!-- Wheat_3(29)
&lt;28&gt;[0.155] -->
<g id="node31" class="node">
<title>Wheat_3(29)
&lt;28&gt;[0.155]</title>
<ellipse fill="none" stroke="black" cx="1487.57" cy="-839.79" rx="62.87" ry="26.74"/>
<text text-anchor="middle" x="1487.57" y="-843.59" font-family="Times,serif" font-size="14.00">Wheat_3(29)</text>
<text text-anchor="middle" x="1487.57" y="-828.59" font-family="Times,serif" font-size="14.00">&lt;28&gt;[0.155]</text>
</g>
<!-- Wheat_3(29)
&lt;28&gt;[0.155]&#45;&gt;Channel(5)
&lt;37&gt;[0.03] -->
<g id="edge30" class="edge">
<title>Wheat_3(29)
&lt;28&gt;[0.155]&#45;&gt;Channel(5)
&lt;37&gt;[0.03]</title>
<path fill="none" stroke="black" d="M1487.57,-812.63C1487.57,-778.01 1487.57,-715.08 1487.57,-661.31 1487.57,-661.31 1487.57,-661.31 1487.57,-390.09 1487.57,-332.8 1476.9,-308.18 1430.57,-274.48 1374.89,-233.99 1178.09,-219.71 1073.33,-214.9"/>
<polygon fill="black" stroke="black" points="1073.33,-211.4 1063.18,-214.45 1073.02,-218.39 1073.33,-211.4"/>
</g>
<!-- Wheat_4(30)
&lt;29&gt;[0.00363] -->
<g id="node32" class="node">
<title>Wheat_4(30)
&lt;29&gt;[0.00363]</title>
<ellipse fill="none" stroke="black" cx="1586.57" cy="-301.35" rx="70.92" ry="26.74"/>
<text text-anchor="middle" x="1586.57" y="-305.15" font-family="Times,serif" font-size="14.00">Wheat_4(30)</text>
<text text-anchor="middle" x="1586.57" y="-290.15" font-family="Times,serif" font-size="14.00">&lt;29&gt;[0.00363]</text>
</g>
<!-- Wheat_4(30)
&lt;29&gt;[0.00363]&#45;&gt;Channel(5)
&lt;37&gt;[0.03] -->
<g id="edge31" class="edge">
<title>Wheat_4(30)
&lt;29&gt;[0.00363]&#45;&gt;Channel(5)
&lt;37&gt;[0.03]</title>
<path fill="none" stroke="black" d="M1534.34,-282.92C1523.59,-279.77 1512.28,-276.76 1501.57,-274.48 1349.76,-242.14 1167.9,-224.76 1072.47,-217.24"/>
<polygon fill="black" stroke="black" points="1072.63,-213.74 1062.39,-216.46 1072.09,-220.72 1072.63,-213.74"/>
</g>
<!-- Winter_Wheat_1(31)
&lt;30&gt;[0.0784] -->
<g id="node33" class="node">
<title>Winter_Wheat_1(31)
&lt;30&gt;[0.0784]</title>
<ellipse fill="none" stroke="black" cx="1609.57" cy="-391.09" rx="94.09" ry="26.74"/>
<text text-anchor="middle" x="1609.57" y="-394.89" font-family="Times,serif" font-size="14.00">Winter_Wheat_1(31)</text>
<text text-anchor="middle" x="1609.57" y="-379.89" font-family="Times,serif" font-size="14.00">&lt;30&gt;[0.0784]</text>
</g>
<!-- Winter_Wheat_1(31)
&lt;30&gt;[0.0784]&#45;&gt;Channel(5)
&lt;37&gt;[0.03] -->
<g id="edge32" class="edge">
<title>Winter_Wheat_1(31)
&lt;30&gt;[0.0784]&#45;&gt;Channel(5)
&lt;37&gt;[0.03]</title>
<path fill="none" stroke="black" d="M1640.15,-365.52C1650.6,-355.23 1661.04,-342.37 1666.57,-328.22 1675.26,-305.97 1682.65,-292.14 1666.57,-274.48 1627.14,-231.18 1233.22,-217.62 1073.41,-213.89"/>
<polygon fill="black" stroke="black" points="1073.3,-210.38 1063.23,-213.65 1073.14,-217.38 1073.3,-210.38"/>
</g>
<!-- Winter_Wheat_2(32)
&lt;31&gt;[0.084] -->
<g id="node34" class="node">
<title>Winter_Wheat_2(32)
&lt;31&gt;[0.084]</title>
<ellipse fill="none" stroke="black" cx="1647.57" cy="-480.83" rx="94.09" ry="26.74"/>
<text text-anchor="middle" x="1647.57" y="-484.63" font-family="Times,serif" font-size="14.00">Winter_Wheat_2(32)</text>
<text text-anchor="middle" x="1647.57" y="-469.63" font-family="Times,serif" font-size="14.00">&lt;31&gt;[0.084]</text>
</g>
<!-- Winter_Wheat_2(32)
&lt;31&gt;[0.084]&#45;&gt;Channel(5)
&lt;37&gt;[0.03] -->
<g id="edge33" class="edge">
<title>Winter_Wheat_2(32)
&lt;31&gt;[0.084]&#45;&gt;Channel(5)
&lt;37&gt;[0.03]</title>
<path fill="none" stroke="black" d="M1682.69,-455.75C1694.49,-445.61 1706.25,-432.71 1712.57,-417.96 1738.14,-358.32 1735.83,-315.52 1685.57,-274.48 1638.8,-236.3 1235.32,-219.68 1073.4,-214.5"/>
<polygon fill="black" stroke="black" points="1073.19,-211 1063.09,-214.18 1072.97,-217.99 1073.19,-211"/>
</g>
<!-- Winter_Wheat_2(33)
&lt;32&gt;[0.419] -->
<g id="node35" class="node">
<title>Winter_Wheat_2(33)
&lt;32&gt;[0.419]</title>
<ellipse fill="none" stroke="black" cx="1685.57" cy="-570.57" rx="94.09" ry="26.74"/>
<text text-anchor="middle" x="1685.57" y="-574.37" font-family="Times,serif" font-size="14.00">Winter_Wheat_2(33)</text>
<text text-anchor="middle" x="1685.57" y="-559.37" font-family="Times,serif" font-size="14.00">&lt;32&gt;[0.419]</text>
</g>
<!-- Winter_Wheat_2(33)
&lt;32&gt;[0.419]&#45;&gt;Channel(5)
&lt;37&gt;[0.03] -->
<g id="edge34" class="edge">
<title>Winter_Wheat_2(33)
&lt;32&gt;[0.419]&#45;&gt;Channel(5)
&lt;37&gt;[0.03]</title>
<path fill="none" stroke="black" d="M1720.69,-545.49C1732.49,-535.35 1744.25,-522.45 1750.57,-507.7 1777.44,-445.03 1765.24,-316.44 1719.57,-274.48 1672.55,-231.27 1241.28,-217.56 1073.2,-213.84"/>
<polygon fill="black" stroke="black" points="1073.07,-210.33 1062.99,-213.62 1072.91,-217.33 1073.07,-210.33"/>
</g>
<!-- Winter_Wheat_2(34)
&lt;33&gt;[0.0533] -->
<g id="node36" class="node">
<title>Winter_Wheat_2(34)
&lt;33&gt;[0.0533]</title>
<ellipse fill="none" stroke="black" cx="1723.57" cy="-660.31" rx="94.09" ry="26.74"/>
<text text-anchor="middle" x="1723.57" y="-664.11" font-family="Times,serif" font-size="14.00">Winter_Wheat_2(34)</text>
<text text-anchor="middle" x="1723.57" y="-649.11" font-family="Times,serif" font-size="14.00">&lt;33&gt;[0.0533]</text>
</g>
<!-- Winter_Wheat_2(34)
&lt;33&gt;[0.0533]&#45;&gt;Channel(5)
&lt;37&gt;[0.03] -->
<g id="edge35" class="edge">
<title>Winter_Wheat_2(34)
&lt;33&gt;[0.0533]&#45;&gt;Channel(5)
&lt;37&gt;[0.03]</title>
<path fill="none" stroke="black" d="M1757.09,-634.93C1768.85,-624.66 1780.99,-611.76 1788.57,-597.44 1812.91,-551.41 1807.57,-533.9 1807.57,-481.83 1807.57,-481.83 1807.57,-481.83 1807.57,-390.09 1807.57,-332.6 1797.19,-306.67 1749.57,-274.48 1694.23,-237.07 1245.11,-219.77 1073.18,-214.46"/>
<polygon fill="black" stroke="black" points="1073.1,-210.96 1063,-214.15 1072.89,-217.96 1073.1,-210.96"/>
</g>
<!-- Winter_Wheat_2(35)
&lt;34&gt;[0.0899] -->
<g id="node37" class="node">
<title>Winter_Wheat_2(35)
&lt;34&gt;[0.0899]</title>
<ellipse fill="none" stroke="black" cx="1803.57" cy="-750.05" rx="94.09" ry="26.74"/>
<text text-anchor="middle" x="1803.57" y="-753.85" font-family="Times,serif" font-size="14.00">Winter_Wheat_2(35)</text>
<text text-anchor="middle" x="1803.57" y="-738.85" font-family="Times,serif" font-size="14.00">&lt;34&gt;[0.0899]</text>
</g>
<!-- Winter_Wheat_2(35)
&lt;34&gt;[0.0899]&#45;&gt;Channel(5)
&lt;37&gt;[0.03] -->
<g id="edge36" class="edge">
<title>Winter_Wheat_2(35)
&lt;34&gt;[0.0899]&#45;&gt;Channel(5)
&lt;37&gt;[0.03]</title>
<path fill="none" stroke="black" d="M1814.44,-723.22C1818.72,-712.26 1823.36,-699.25 1826.57,-687.18 1839.93,-636.85 1845.57,-623.64 1845.57,-571.57 1845.57,-571.57 1845.57,-571.57 1845.57,-390.09 1845.57,-332.8 1835.98,-306.63 1788.57,-274.48 1730,-234.77 1251.08,-218.76 1072.96,-214.14"/>
<polygon fill="black" stroke="black" points="1073.02,-210.64 1062.94,-213.88 1072.84,-217.64 1073.02,-210.64"/>
</g>
<!-- Winter_Wheat_2(36)
&lt;35&gt;[0.289] -->
<g id="node38" class="node">
<title>Winter_Wheat_2(36)
&lt;35&gt;[0.289]</title>
<ellipse fill="none" stroke="black" cx="1925.57" cy="-839.79" rx="94.09" ry="26.74"/>
<text text-anchor="middle" x="1925.57" y="-843.59" font-family="Times,serif" font-size="14.00">Winter_Wheat_2(36)</text>
<text text-anchor="middle" x="1925.57" y="-828.59" font-family="Times,serif" font-size="14.00">&lt;35&gt;[0.289]</text>
</g>
<!-- Winter_Wheat_2(36)
&lt;35&gt;[0.289]&#45;&gt;Channel(5)
&lt;37&gt;[0.03] -->
<g id="edge37" class="edge">
<title>Winter_Wheat_2(36)
&lt;35&gt;[0.289]&#45;&gt;Channel(5)
&lt;37&gt;[0.03]</title>
<path fill="none" stroke="black" d="M1925.57,-812.63C1925.57,-778.01 1925.57,-715.08 1925.57,-661.31 1925.57,-661.31 1925.57,-661.31 1925.57,-390.09 1925.57,-322.73 1887.58,-305.07 1827.57,-274.48 1761.05,-240.57 1256.29,-220.8 1072.9,-214.68"/>
<polygon fill="black" stroke="black" points="1072.95,-211.18 1062.84,-214.34 1072.72,-218.17 1072.95,-211.18"/>
</g>
<!-- Winter_Wheat_2(37)
&lt;36&gt;[0.174] -->
<g id="node39" class="node">
<title>Winter_Wheat_2(37)
&lt;36&gt;[0.174]</title>
<ellipse fill="none" stroke="black" cx="2047.57" cy="-301.35" rx="94.09" ry="26.74"/>
<text text-anchor="middle" x="2047.57" y="-305.15" font-family="Times,serif" font-size="14.00">Winter_Wheat_2(37)</text>
<text text-anchor="middle" x="2047.57" y="-290.15" font-family="Times,serif" font-size="14.00">&lt;36&gt;[0.174]</text>
</g>
<!-- Winter_Wheat_2(37)
&lt;36&gt;[0.174]&#45;&gt;Channel(5)
&lt;37&gt;[0.03] -->
<g id="edge38" class="edge">
<title>Winter_Wheat_2(37)
&lt;36&gt;[0.174]&#45;&gt;Channel(5)
&lt;37&gt;[0.03]</title>
<path fill="none" stroke="black" d="M1980.51,-282.43C1967.03,-279.36 1952.91,-276.51 1939.57,-274.48 1617.55,-225.59 1227.19,-215.33 1073.41,-213.18"/>
<polygon fill="black" stroke="black" points="1073.24,-209.68 1063.19,-213.04 1073.15,-216.68 1073.24,-209.68"/>
</g>
</g>
</svg>
