<?xml version="1.0" encoding="UTF-8" standalone="no"?>
<!DOCTYPE svg PUBLIC "-//W3C//DTD SVG 1.1//EN"
 "http://www.w3.org/Graphics/SVG/1.1/DTD/svg11.dtd">
<!-- Generated by graphviz version 2.43.0 (0)
 -->
<!-- Title: TEST Pages: 1 -->
<svg width="1146pt" height="875pt"
 viewBox="0.00 0.00 1146.09 874.66" xmlns="http://www.w3.org/2000/svg" xmlns:xlink="http://www.w3.org/1999/xlink">
<g id="graph0" class="graph" transform="scale(1 1) rotate(0) translate(4 870.66)">
<title>TEST</title>
<polygon fill="white" stroke="transparent" points="-4,4 -4,-870.66 1142.09,-870.66 1142.09,4 -4,4"/>
<text text-anchor="middle" x="569.04" y="-7.8" font-family="Times,serif" font-size="14.00">K_se1_project_GrpK</text>
<!-- Alfalfa 1(1)
[0.2014] -->
<g id="node1" class="node">
<title>Alfalfa 1(1)
[0.2014]</title>
<ellipse fill="none" stroke="black" cx="57.28" cy="-301.35" rx="57.05" ry="26.74"/>
<text text-anchor="middle" x="57.28" y="-305.15" font-family="Times,serif" font-size="14.00">Alfalfa 1(1)</text>
<text text-anchor="middle" x="57.28" y="-290.15" font-family="Times,serif" font-size="14.00">[0.2014]</text>
</g>
<!-- Channel(7)
[0.01] -->
<g id="node2" class="node">
<title>Channel(7)
[0.01]</title>
<ellipse fill="none" stroke="black" cx="590.28" cy="-211.61" rx="54.39" ry="26.74"/>
<text text-anchor="middle" x="590.28" y="-215.41" font-family="Times,serif" font-size="14.00">Channel(7)</text>
<text text-anchor="middle" x="590.28" y="-200.41" font-family="Times,serif" font-size="14.00">[0.01]</text>
</g>
<!-- Alfalfa 1(1)
[0.2014]&#45;&gt;Channel(7)
[0.01] -->
<g id="edge1" class="edge">
<title>Alfalfa 1(1)
[0.2014]&#45;&gt;Channel(7)
[0.01]</title>
<path fill="none" stroke="black" d="M99.61,-283.23C108.94,-279.94 118.85,-276.8 128.28,-274.48 267.88,-240.13 436.21,-223.66 526.17,-216.8"/>
<polygon fill="black" stroke="black" points="526.51,-220.28 536.22,-216.04 525.98,-213.3 526.51,-220.28"/>
</g>
<!-- Reservoir(5)
[0.02] -->
<g id="node3" class="node">
<title>Reservoir(5)
[0.02]</title>
<ellipse fill="none" stroke="black" cx="590.28" cy="-121.87" rx="60.21" ry="26.74"/>
<text text-anchor="middle" x="590.28" y="-125.67" font-family="Times,serif" font-size="14.00">Reservoir(5)</text>
<text text-anchor="middle" x="590.28" y="-110.67" font-family="Times,serif" font-size="14.00">[0.02]</text>
</g>
<!-- Channel(7)
[0.01]&#45;&gt;Reservoir(5)
[0.02] -->
<g id="edge2" class="edge">
<title>Channel(7)
[0.01]&#45;&gt;Reservoir(5)
[0.02]</title>
<path fill="none" stroke="black" d="M590.28,-184.29C590.28,-176.32 590.28,-167.43 590.28,-158.94"/>
<polygon fill="black" stroke="black" points="593.78,-158.87 590.28,-148.87 586.78,-158.87 593.78,-158.87"/>
</g>
<!-- basin -->
<g id="node4" class="node">
<title>basin</title>
<ellipse fill="none" stroke="black" cx="590.28" cy="-41" rx="29.5" ry="18"/>
<text text-anchor="middle" x="590.28" y="-37.3" font-family="Times,serif" font-size="14.00">basin</text>
</g>
<!-- Reservoir(5)
[0.02]&#45;&gt;basin -->
<g id="edge3" class="edge">
<title>Reservoir(5)
[0.02]&#45;&gt;basin</title>
<path fill="none" stroke="black" d="M590.28,-94.61C590.28,-86.51 590.28,-77.57 590.28,-69.39"/>
<polygon fill="black" stroke="black" points="593.78,-69.22 590.28,-59.22 586.78,-69.22 593.78,-69.22"/>
</g>
<!-- Alfalfa 2(2)
[0.07546] -->
<g id="node5" class="node">
<title>Alfalfa 2(2)
[0.07546]</title>
<ellipse fill="none" stroke="black" cx="118.28" cy="-391.09" rx="57.05" ry="26.74"/>
<text text-anchor="middle" x="118.28" y="-394.89" font-family="Times,serif" font-size="14.00">Alfalfa 2(2)</text>
<text text-anchor="middle" x="118.28" y="-379.89" font-family="Times,serif" font-size="14.00">[0.07546]</text>
</g>
<!-- Alfalfa 2(2)
[0.07546]&#45;&gt;Channel(7)
[0.01] -->
<g id="edge4" class="edge">
<title>Alfalfa 2(2)
[0.07546]&#45;&gt;Channel(7)
[0.01]</title>
<path fill="none" stroke="black" d="M126.73,-364.31C137.01,-337.29 157.1,-295.86 189.28,-274.48 243.32,-238.56 427.25,-222.3 526.14,-216"/>
<polygon fill="black" stroke="black" points="526.54,-219.49 536.31,-215.37 526.11,-212.5 526.54,-219.49"/>
</g>
<!-- Alfalfa 3(3)
[0.08513] -->
<g id="node6" class="node">
<title>Alfalfa 3(3)
[0.08513]</title>
<ellipse fill="none" stroke="black" cx="156.28" cy="-480.83" rx="57.05" ry="26.74"/>
<text text-anchor="middle" x="156.28" y="-484.63" font-family="Times,serif" font-size="14.00">Alfalfa 3(3)</text>
<text text-anchor="middle" x="156.28" y="-469.63" font-family="Times,serif" font-size="14.00">[0.08513]</text>
</g>
<!-- Alfalfa 3(3)
[0.08513]&#45;&gt;Channel(7)
[0.01] -->
<g id="edge5" class="edge">
<title>Alfalfa 3(3)
[0.08513]&#45;&gt;Channel(7)
[0.01]</title>
<path fill="none" stroke="black" d="M168.63,-454.57C173.82,-443.48 179.69,-430.22 184.28,-417.96 207.61,-355.61 177.41,-318.59 227.28,-274.48 270.6,-236.15 434.07,-221.1 526.17,-215.56"/>
<polygon fill="black" stroke="black" points="526.44,-219.05 536.22,-214.98 526.03,-212.06 526.44,-219.05"/>
</g>
<!-- Alfalfa 4(4)
[0.1425] -->
<g id="node7" class="node">
<title>Alfalfa 4(4)
[0.1425]</title>
<ellipse fill="none" stroke="black" cx="194.28" cy="-570.57" rx="57.05" ry="26.74"/>
<text text-anchor="middle" x="194.28" y="-574.37" font-family="Times,serif" font-size="14.00">Alfalfa 4(4)</text>
<text text-anchor="middle" x="194.28" y="-559.37" font-family="Times,serif" font-size="14.00">[0.1425]</text>
</g>
<!-- Alfalfa 4(4)
[0.1425]&#45;&gt;Channel(7)
[0.01] -->
<g id="edge6" class="edge">
<title>Alfalfa 4(4)
[0.1425]&#45;&gt;Channel(7)
[0.01]</title>
<path fill="none" stroke="black" d="M207.43,-544.23C212.68,-533.24 218.4,-520.08 222.28,-507.7 253.79,-407.12 190.96,-349.23 265.28,-274.48 300.99,-238.56 441.79,-222.76 525.9,-216.42"/>
<polygon fill="black" stroke="black" points="526.4,-219.89 536.12,-215.67 525.89,-212.91 526.4,-219.89"/>
</g>
<!-- Fescue (grass seed)(6)
[0.05066] -->
<g id="node8" class="node">
<title>Fescue (grass seed)(6)
[0.05066]</title>
<ellipse fill="none" stroke="black" cx="191.28" cy="-660.31" rx="97.66" ry="26.74"/>
<text text-anchor="middle" x="191.28" y="-664.11" font-family="Times,serif" font-size="14.00">Fescue (grass seed)(6)</text>
<text text-anchor="middle" x="191.28" y="-649.11" font-family="Times,serif" font-size="14.00">[0.05066]</text>
</g>
<!-- Fescue (grass seed)(6)
[0.05066]&#45;&gt;Channel(7)
[0.01] -->
<g id="edge7" class="edge">
<title>Fescue (grass seed)(6)
[0.05066]&#45;&gt;Channel(7)
[0.01]</title>
<path fill="none" stroke="black" d="M227.22,-635C239.59,-624.83 252.31,-611.97 260.28,-597.44 285.3,-551.78 279.28,-533.9 279.28,-481.83 279.28,-481.83 279.28,-481.83 279.28,-390.09 279.28,-337.61 266.31,-311.73 303.28,-274.48 333.97,-243.55 451.66,-226.34 526.47,-218.32"/>
<polygon fill="black" stroke="black" points="527.14,-221.77 536.72,-217.25 526.41,-214.8 527.14,-221.77"/>
</g>
<!-- Flax/Linola 1(8)
[0.2791] -->
<g id="node9" class="node">
<title>Flax/Linola 1(8)
[0.2791]</title>
<ellipse fill="none" stroke="black" cx="252.28" cy="-750.05" rx="74.91" ry="26.74"/>
<text text-anchor="middle" x="252.28" y="-753.85" font-family="Times,serif" font-size="14.00">Flax/Linola 1(8)</text>
<text text-anchor="middle" x="252.28" y="-738.85" font-family="Times,serif" font-size="14.00">[0.2791]</text>
</g>
<!-- Flax/Linola 1(8)
[0.2791]&#45;&gt;Channel(7)
[0.01] -->
<g id="edge8" class="edge">
<title>Flax/Linola 1(8)
[0.2791]&#45;&gt;Channel(7)
[0.01]</title>
<path fill="none" stroke="black" d="M274.96,-724.27C283.56,-713.58 292.63,-700.49 298.28,-687.18 318.61,-639.24 317.28,-623.64 317.28,-571.57 317.28,-571.57 317.28,-571.57 317.28,-390.09 317.28,-337.61 304.9,-312.3 341.28,-274.48 366.7,-248.05 462.47,-230.02 527.54,-220.52"/>
<polygon fill="black" stroke="black" points="528.3,-223.95 537.71,-219.07 527.32,-217.02 528.3,-223.95"/>
</g>
<!-- Flax/Linola 2(9)
[0.2339] -->
<g id="node10" class="node">
<title>Flax/Linola 2(9)
[0.2339]</title>
<ellipse fill="none" stroke="black" cx="355.28" cy="-839.79" rx="74.91" ry="26.74"/>
<text text-anchor="middle" x="355.28" y="-843.59" font-family="Times,serif" font-size="14.00">Flax/Linola 2(9)</text>
<text text-anchor="middle" x="355.28" y="-828.59" font-family="Times,serif" font-size="14.00">[0.2339]</text>
</g>
<!-- Flax/Linola 2(9)
[0.2339]&#45;&gt;Channel(7)
[0.01] -->
<g id="edge9" class="edge">
<title>Flax/Linola 2(9)
[0.2339]&#45;&gt;Channel(7)
[0.01]</title>
<path fill="none" stroke="black" d="M355.28,-812.63C355.28,-778.01 355.28,-715.08 355.28,-661.31 355.28,-661.31 355.28,-661.31 355.28,-390.09 355.28,-338.02 339.65,-313.37 374.28,-274.48 412.05,-232.05 476.75,-217.87 525.52,-213.53"/>
<polygon fill="black" stroke="black" points="525.97,-217.01 535.67,-212.75 525.43,-210.03 525.97,-217.01"/>
</g>
<!-- Flax/Linola 3(10)
[0.3428] -->
<g id="node11" class="node">
<title>Flax/Linola 3(10)
[0.3428]</title>
<ellipse fill="none" stroke="black" cx="463.28" cy="-301.35" rx="79.81" ry="26.74"/>
<text text-anchor="middle" x="463.28" y="-305.15" font-family="Times,serif" font-size="14.00">Flax/Linola 3(10)</text>
<text text-anchor="middle" x="463.28" y="-290.15" font-family="Times,serif" font-size="14.00">[0.3428]</text>
</g>
<!-- Flax/Linola 3(10)
[0.3428]&#45;&gt;Channel(7)
[0.01] -->
<g id="edge10" class="edge">
<title>Flax/Linola 3(10)
[0.3428]&#45;&gt;Channel(7)
[0.01]</title>
<path fill="none" stroke="black" d="M497.31,-276.84C513.7,-265.51 533.46,-251.86 550.54,-240.06"/>
<polygon fill="black" stroke="black" points="552.96,-242.65 559.2,-234.08 548.98,-236.89 552.96,-242.65"/>
</g>
<!-- Flax/Linola 4(11)
[0.2035] -->
<g id="node12" class="node">
<title>Flax/Linola 4(11)
[0.2035]</title>
<ellipse fill="none" stroke="black" cx="501.28" cy="-391.09" rx="79.81" ry="26.74"/>
<text text-anchor="middle" x="501.28" y="-394.89" font-family="Times,serif" font-size="14.00">Flax/Linola 4(11)</text>
<text text-anchor="middle" x="501.28" y="-379.89" font-family="Times,serif" font-size="14.00">[0.2035]</text>
</g>
<!-- Flax/Linola 4(11)
[0.2035]&#45;&gt;Channel(7)
[0.01] -->
<g id="edge11" class="edge">
<title>Flax/Linola 4(11)
[0.2035]&#45;&gt;Channel(7)
[0.01]</title>
<path fill="none" stroke="black" d="M525.43,-365.17C534.81,-354.46 545.02,-341.39 552.28,-328.22 566.13,-303.07 575.98,-272.05 582.18,-248.47"/>
<polygon fill="black" stroke="black" points="585.63,-249.09 584.69,-238.54 578.85,-247.37 585.63,-249.09"/>
</g>
<!-- Flax/Linola 5(12)
[0.0001125] -->
<g id="node13" class="node">
<title>Flax/Linola 5(12)
[0.0001125]</title>
<ellipse fill="none" stroke="black" cx="539.28" cy="-480.83" rx="79.81" ry="26.74"/>
<text text-anchor="middle" x="539.28" y="-484.63" font-family="Times,serif" font-size="14.00">Flax/Linola 5(12)</text>
<text text-anchor="middle" x="539.28" y="-469.63" font-family="Times,serif" font-size="14.00">[0.0001125]</text>
</g>
<!-- Flax/Linola 5(12)
[0.0001125]&#45;&gt;Channel(7)
[0.01] -->
<g id="edge12" class="edge">
<title>Flax/Linola 5(12)
[0.0001125]&#45;&gt;Channel(7)
[0.01]</title>
<path fill="none" stroke="black" d="M566.15,-455.3C575.69,-444.84 585.29,-431.85 590.28,-417.96 610.54,-361.51 604.17,-290.56 597.42,-248.56"/>
<polygon fill="black" stroke="black" points="600.84,-247.8 595.71,-238.53 593.94,-248.97 600.84,-247.8"/>
</g>
<!-- Forage(13)
[0.01663] -->
<g id="node14" class="node">
<title>Forage(13)
[0.01663]</title>
<ellipse fill="none" stroke="black" cx="603.28" cy="-570.57" rx="54.39" ry="26.74"/>
<text text-anchor="middle" x="603.28" y="-574.37" font-family="Times,serif" font-size="14.00">Forage(13)</text>
<text text-anchor="middle" x="603.28" y="-559.37" font-family="Times,serif" font-size="14.00">[0.01663]</text>
</g>
<!-- Forage(13)
[0.01663]&#45;&gt;Channel(7)
[0.01] -->
<g id="edge13" class="edge">
<title>Forage(13)
[0.01663]&#45;&gt;Channel(7)
[0.01]</title>
<path fill="none" stroke="black" d="M616.02,-544.36C620.89,-533.39 625.84,-520.21 628.28,-507.7 638.27,-456.27 634.6,-346.42 617.28,-274.48 615.06,-265.28 611.55,-255.72 607.79,-246.95"/>
<polygon fill="black" stroke="black" points="610.96,-245.47 603.66,-237.8 604.58,-248.35 610.96,-245.47"/>
</g>
<!-- Riparian forest(14)
[1.847] -->
<g id="node15" class="node">
<title>Riparian forest(14)
[1.847]</title>
<ellipse fill="none" stroke="black" cx="610.28" cy="-660.31" rx="84.71" ry="26.74"/>
<text text-anchor="middle" x="610.28" y="-664.11" font-family="Times,serif" font-size="14.00">Riparian forest(14)</text>
<text text-anchor="middle" x="610.28" y="-649.11" font-family="Times,serif" font-size="14.00">[1.847]</text>
</g>
<!-- Riparian forest(14)
[1.847]&#45;&gt;Channel(7)
[0.01] -->
<g id="edge14" class="edge">
<title>Riparian forest(14)
[1.847]&#45;&gt;Channel(7)
[0.01]</title>
<path fill="none" stroke="black" d="M638.55,-634.73C648.86,-624.26 659.61,-611.27 666.28,-597.44 688.89,-550.54 685.28,-533.9 685.28,-481.83 685.28,-481.83 685.28,-481.83 685.28,-390.09 685.28,-333.47 647.23,-277.43 619.29,-243.92"/>
<polygon fill="black" stroke="black" points="621.94,-241.64 612.79,-236.3 616.62,-246.18 621.94,-241.64"/>
</g>
<!-- Road(15)
[0.04636] -->
<g id="node16" class="node">
<title>Road(15)
[0.04636]</title>
<ellipse fill="none" stroke="black" cx="684.28" cy="-750.05" rx="49.49" ry="26.74"/>
<text text-anchor="middle" x="684.28" y="-753.85" font-family="Times,serif" font-size="14.00">Road(15)</text>
<text text-anchor="middle" x="684.28" y="-738.85" font-family="Times,serif" font-size="14.00">[0.04636]</text>
</g>
<!-- Road(15)
[0.04636]&#45;&gt;Channel(7)
[0.01] -->
<g id="edge15" class="edge">
<title>Road(15)
[0.04636]&#45;&gt;Channel(7)
[0.01]</title>
<path fill="none" stroke="black" d="M693.52,-723.57C705.05,-689.44 723.28,-626.78 723.28,-571.57 723.28,-571.57 723.28,-571.57 723.28,-390.09 723.28,-333.93 707.15,-318.5 672.28,-274.48 661.45,-260.82 646.95,-248.57 633.14,-238.65"/>
<polygon fill="black" stroke="black" points="634.89,-235.6 624.68,-232.78 630.9,-241.36 634.89,-235.6"/>
</g>
<!-- Unknown structure(16)
[0.01568] -->
<g id="node17" class="node">
<title>Unknown structure(16)
[0.01568]</title>
<ellipse fill="none" stroke="black" cx="761.28" cy="-839.79" rx="101.23" ry="26.74"/>
<text text-anchor="middle" x="761.28" y="-843.59" font-family="Times,serif" font-size="14.00">Unknown structure(16)</text>
<text text-anchor="middle" x="761.28" y="-828.59" font-family="Times,serif" font-size="14.00">[0.01568]</text>
</g>
<!-- Unknown structure(16)
[0.01568]&#45;&gt;Channel(7)
[0.01] -->
<g id="edge16" class="edge">
<title>Unknown structure(16)
[0.01568]&#45;&gt;Channel(7)
[0.01]</title>
<path fill="none" stroke="black" d="M761.28,-812.63C761.28,-778.01 761.28,-715.08 761.28,-661.31 761.28,-661.31 761.28,-661.31 761.28,-390.09 761.28,-333.19 745.58,-315.63 706.28,-274.48 688.76,-256.14 664.59,-242.06 642.85,-232"/>
<polygon fill="black" stroke="black" points="644.26,-228.8 633.7,-227.94 641.42,-235.2 644.26,-228.8"/>
</g>
<!-- Wheat 1(17)
[0.1105] -->
<g id="node18" class="node">
<title>Wheat 1(17)
[0.1105]</title>
<ellipse fill="none" stroke="black" cx="850.28" cy="-301.35" rx="60.62" ry="26.74"/>
<text text-anchor="middle" x="850.28" y="-305.15" font-family="Times,serif" font-size="14.00">Wheat 1(17)</text>
<text text-anchor="middle" x="850.28" y="-290.15" font-family="Times,serif" font-size="14.00">[0.1105]</text>
</g>
<!-- Wheat 1(17)
[0.1105]&#45;&gt;Channel(7)
[0.01] -->
<g id="edge17" class="edge">
<title>Wheat 1(17)
[0.1105]&#45;&gt;Channel(7)
[0.01]</title>
<path fill="none" stroke="black" d="M803.49,-284.14C794.15,-280.92 784.4,-277.58 775.28,-274.48 731.27,-259.53 681.28,-242.83 644.37,-230.55"/>
<polygon fill="black" stroke="black" points="645.39,-227.2 634.8,-227.37 643.18,-233.85 645.39,-227.2"/>
</g>
<!-- Wheat 2(18)
[0.26] -->
<g id="node19" class="node">
<title>Wheat 2(18)
[0.26]</title>
<ellipse fill="none" stroke="black" cx="937.28" cy="-391.09" rx="60.62" ry="26.74"/>
<text text-anchor="middle" x="937.28" y="-394.89" font-family="Times,serif" font-size="14.00">Wheat 2(18)</text>
<text text-anchor="middle" x="937.28" y="-379.89" font-family="Times,serif" font-size="14.00">[0.26]</text>
</g>
<!-- Wheat 2(18)
[0.26]&#45;&gt;Channel(7)
[0.01] -->
<g id="edge18" class="edge">
<title>Wheat 2(18)
[0.26]&#45;&gt;Channel(7)
[0.01]</title>
<path fill="none" stroke="black" d="M941.34,-363.87C943.8,-337.68 942.91,-298.03 920.28,-274.48 884.46,-237.23 739.98,-221.9 654.52,-216"/>
<polygon fill="black" stroke="black" points="654.61,-212.49 644.4,-215.32 654.15,-219.48 654.61,-212.49"/>
</g>
<!-- Wheat 3(19)
[0.1223] -->
<g id="node20" class="node">
<title>Wheat 3(19)
[0.1223]</title>
<ellipse fill="none" stroke="black" cx="1075.28" cy="-301.35" rx="60.62" ry="26.74"/>
<text text-anchor="middle" x="1075.28" y="-305.15" font-family="Times,serif" font-size="14.00">Wheat 3(19)</text>
<text text-anchor="middle" x="1075.28" y="-290.15" font-family="Times,serif" font-size="14.00">[0.1223]</text>
</g>
<!-- Wheat 3(19)
[0.1223]&#45;&gt;Channel(7)
[0.01] -->
<g id="edge19" class="edge">
<title>Wheat 3(19)
[0.1223]&#45;&gt;Channel(7)
[0.01]</title>
<path fill="none" stroke="black" d="M1029.04,-283.59C1018.68,-280.23 1007.68,-276.98 997.28,-274.48 877.31,-245.69 734.08,-227.59 653.5,-218.86"/>
<polygon fill="black" stroke="black" points="653.83,-215.38 643.51,-217.79 653.08,-222.34 653.83,-215.38"/>
</g>
<!-- Wheat 4(20)
[0.7121] -->
<g id="node21" class="node">
<title>Wheat 4(20)
[0.7121]</title>
<ellipse fill="none" stroke="black" cx="1077.28" cy="-391.09" rx="60.62" ry="26.74"/>
<text text-anchor="middle" x="1077.28" y="-394.89" font-family="Times,serif" font-size="14.00">Wheat 4(20)</text>
<text text-anchor="middle" x="1077.28" y="-379.89" font-family="Times,serif" font-size="14.00">[0.7121]</text>
</g>
<!-- Wheat 4(20)
[0.7121]&#45;&gt;Channel(7)
[0.01] -->
<g id="edge20" class="edge">
<title>Wheat 4(20)
[0.7121]&#45;&gt;Channel(7)
[0.01]</title>
<path fill="none" stroke="black" d="M1050.15,-367.01C1036.61,-355.43 1020.02,-341.15 1005.28,-328.22 978.37,-304.61 977.49,-290.1 945.28,-274.48 851.19,-228.86 728.64,-216.44 654.89,-213.31"/>
<polygon fill="black" stroke="black" points="654.94,-209.81 644.82,-212.93 654.68,-216.8 654.94,-209.81"/>
</g>
<!-- Wheat 4(20)
[0.7121]&#45;&gt;Wheat 3(19)
[0.1223] -->
<g id="edge21" class="edge">
<title>Wheat 4(20)
[0.7121]&#45;&gt;Wheat 3(19)
[0.1223]</title>
<path fill="none" stroke="black" d="M1076.68,-363.77C1076.49,-355.8 1076.29,-346.91 1076.1,-338.42"/>
<polygon fill="black" stroke="black" points="1079.6,-338.27 1075.87,-328.35 1072.6,-338.43 1079.6,-338.27"/>
</g>
</g>
</svg>
