<?xml version="1.0" encoding="UTF-8" standalone="no"?>
<!DOCTYPE svg PUBLIC "-//W3C//DTD SVG 1.1//EN"
 "http://www.w3.org/Graphics/SVG/1.1/DTD/svg11.dtd">
<!-- Generated by graphviz version 2.43.0 (0)
 -->
<!-- Title: TEST Pages: 1 -->
<svg width="1650pt" height="964pt"
 viewBox="0.00 0.00 1649.62 964.40" xmlns="http://www.w3.org/2000/svg" xmlns:xlink="http://www.w3.org/1999/xlink">
<g id="graph0" class="graph" transform="scale(1 1) rotate(0) translate(4 960.4)">
<title>TEST</title>
<polygon fill="white" stroke="transparent" points="-4,4 -4,-960.4 1645.62,-960.4 1645.62,4 -4,4"/>
<text text-anchor="middle" x="820.81" y="-7.8" font-family="Times,serif" font-size="14.00">I_nw_project_GrpI</text>
<!-- Barley 1(1)
&lt;1&gt;[0.1446] -->
<g id="node1" class="node">
<title>Barley 1(1)
&lt;1&gt;[0.1446]</title>
<ellipse fill="none" stroke="black" cx="60.81" cy="-391.09" rx="60.62" ry="26.74"/>
<text text-anchor="middle" x="60.81" y="-394.89" font-family="Times,serif" font-size="14.00">Barley 1(1)</text>
<text text-anchor="middle" x="60.81" y="-379.89" font-family="Times,serif" font-size="14.00">&lt;1&gt;[0.1446]</text>
</g>
<!-- Riparian forest 1(21)
&lt;27&gt;[0.1565] -->
<g id="node2" class="node">
<title>Riparian forest 1(21)
&lt;27&gt;[0.1565]</title>
<ellipse fill="none" stroke="black" cx="574.81" cy="-301.35" rx="92.76" ry="26.74"/>
<text text-anchor="middle" x="574.81" y="-305.15" font-family="Times,serif" font-size="14.00">Riparian forest 1(21)</text>
<text text-anchor="middle" x="574.81" y="-290.15" font-family="Times,serif" font-size="14.00">&lt;27&gt;[0.1565]</text>
</g>
<!-- Barley 1(1)
&lt;1&gt;[0.1446]&#45;&gt;Riparian forest 1(21)
&lt;27&gt;[0.1565] -->
<g id="edge1" class="edge">
<title>Barley 1(1)
&lt;1&gt;[0.1446]&#45;&gt;Riparian forest 1(21)
&lt;27&gt;[0.1565]</title>
<path fill="none" stroke="black" d="M106.01,-372.94C115.74,-369.69 126.04,-366.57 135.81,-364.22 251.1,-336.49 386.62,-319.72 476.26,-310.77"/>
<polygon fill="black" stroke="black" points="476.81,-314.24 486.42,-309.77 476.13,-307.27 476.81,-314.24"/>
</g>
<!-- Riparian forest 1(21)
&lt;27&gt;[0.1565]&#45;&gt;Riparian forest 1(21)
&lt;27&gt;[0.1565] -->
<g id="edge2" class="edge">
<title>Riparian forest 1(21)
&lt;27&gt;[0.1565]&#45;&gt;Riparian forest 1(21)
&lt;27&gt;[0.1565]</title>
<path fill="none" stroke="black" d="M648.22,-317.79C669.24,-317.14 685.44,-311.66 685.44,-301.35 685.44,-292.81 674.33,-287.59 658.57,-285.68"/>
<polygon fill="black" stroke="black" points="658.45,-282.16 648.22,-284.91 657.94,-289.14 658.45,-282.16"/>
</g>
<!-- Barley 2(2)
&lt;2&gt;[0.05338] -->
<g id="node3" class="node">
<title>Barley 2(2)
&lt;2&gt;[0.05338]</title>
<ellipse fill="none" stroke="black" cx="121.81" cy="-480.83" rx="65.52" ry="26.74"/>
<text text-anchor="middle" x="121.81" y="-484.63" font-family="Times,serif" font-size="14.00">Barley 2(2)</text>
<text text-anchor="middle" x="121.81" y="-469.63" font-family="Times,serif" font-size="14.00">&lt;2&gt;[0.05338]</text>
</g>
<!-- Barley 2(2)
&lt;2&gt;[0.05338]&#45;&gt;Riparian forest 1(21)
&lt;27&gt;[0.1565] -->
<g id="edge3" class="edge">
<title>Barley 2(2)
&lt;2&gt;[0.05338]&#45;&gt;Riparian forest 1(21)
&lt;27&gt;[0.1565]</title>
<path fill="none" stroke="black" d="M132.28,-454.07C144.68,-427.07 168,-385.65 201.81,-364.22 246.21,-336.08 381.06,-318.93 475.79,-310.04"/>
<polygon fill="black" stroke="black" points="476.35,-313.5 485.98,-309.1 475.71,-306.53 476.35,-313.5"/>
</g>
<!-- Barley 3(3)
&lt;3&gt;[0.4007] -->
<g id="node4" class="node">
<title>Barley 3(3)
&lt;3&gt;[0.4007]</title>
<ellipse fill="none" stroke="black" cx="164.81" cy="-570.57" rx="60.62" ry="26.74"/>
<text text-anchor="middle" x="164.81" y="-574.37" font-family="Times,serif" font-size="14.00">Barley 3(3)</text>
<text text-anchor="middle" x="164.81" y="-559.37" font-family="Times,serif" font-size="14.00">&lt;3&gt;[0.4007]</text>
</g>
<!-- Barley 3(3)
&lt;3&gt;[0.4007]&#45;&gt;Riparian forest 1(21)
&lt;27&gt;[0.1565] -->
<g id="edge4" class="edge">
<title>Barley 3(3)
&lt;3&gt;[0.4007]&#45;&gt;Riparian forest 1(21)
&lt;27&gt;[0.1565]</title>
<path fill="none" stroke="black" d="M179.3,-544.19C185.22,-533.19 191.82,-520.03 196.81,-507.7 221.77,-445.98 190.25,-408.67 239.81,-364.22 273.9,-333.64 389.35,-317.42 475.24,-309.37"/>
<polygon fill="black" stroke="black" points="475.65,-312.85 485.29,-308.45 475.02,-305.88 475.65,-312.85"/>
</g>
<!-- Canola 1(4)
&lt;4&gt;[0.09861] -->
<g id="node5" class="node">
<title>Canola 1(4)
&lt;4&gt;[0.09861]</title>
<ellipse fill="none" stroke="black" cx="197.81" cy="-660.31" rx="65.52" ry="26.74"/>
<text text-anchor="middle" x="197.81" y="-664.11" font-family="Times,serif" font-size="14.00">Canola 1(4)</text>
<text text-anchor="middle" x="197.81" y="-649.11" font-family="Times,serif" font-size="14.00">&lt;4&gt;[0.09861]</text>
</g>
<!-- Canola 1(4)
&lt;4&gt;[0.09861]&#45;&gt;Riparian forest 1(21)
&lt;27&gt;[0.1565] -->
<g id="edge5" class="edge">
<title>Canola 1(4)
&lt;4&gt;[0.09861]&#45;&gt;Riparian forest 1(21)
&lt;27&gt;[0.1565]</title>
<path fill="none" stroke="black" d="M215.64,-634.16C222.57,-623.32 230,-610.21 234.81,-597.44 272,-498.82 204.15,-439.6 277.81,-364.22 305.2,-336.19 401.11,-319.84 476.62,-311.06"/>
<polygon fill="black" stroke="black" points="477.12,-314.53 486.66,-309.93 476.33,-307.58 477.12,-314.53"/>
</g>
<!-- Canola 2(6)
&lt;5&gt;[0.4989] -->
<g id="node6" class="node">
<title>Canola 2(6)
&lt;5&gt;[0.4989]</title>
<ellipse fill="none" stroke="black" cx="240.81" cy="-750.05" rx="60.62" ry="26.74"/>
<text text-anchor="middle" x="240.81" y="-753.85" font-family="Times,serif" font-size="14.00">Canola 2(6)</text>
<text text-anchor="middle" x="240.81" y="-738.85" font-family="Times,serif" font-size="14.00">&lt;5&gt;[0.4989]</text>
</g>
<!-- Canola 2(6)
&lt;5&gt;[0.4989]&#45;&gt;Riparian forest 1(21)
&lt;27&gt;[0.1565] -->
<g id="edge6" class="edge">
<title>Canola 2(6)
&lt;5&gt;[0.4989]&#45;&gt;Riparian forest 1(21)
&lt;27&gt;[0.1565]</title>
<path fill="none" stroke="black" d="M256.08,-723.95C262.13,-713.01 268.63,-699.81 272.81,-687.18 289.2,-637.75 291.81,-623.64 291.81,-571.57 291.81,-571.57 291.81,-571.57 291.81,-479.83 291.81,-427.35 279.26,-401.88 315.81,-364.22 338.7,-340.64 416.02,-324.17 480.27,-314.19"/>
<polygon fill="black" stroke="black" points="481.1,-317.6 490.46,-312.64 480.05,-310.68 481.1,-317.6"/>
</g>
<!-- Channel(7)
&lt;30&gt;[0.03] -->
<g id="node7" class="node">
<title>Channel(7)
&lt;30&gt;[0.03]</title>
<ellipse fill="none" stroke="black" cx="1456.81" cy="-211.61" rx="56.64" ry="26.74"/>
<text text-anchor="middle" x="1456.81" y="-215.41" font-family="Times,serif" font-size="14.00">Channel(7)</text>
<text text-anchor="middle" x="1456.81" y="-200.41" font-family="Times,serif" font-size="14.00">&lt;30&gt;[0.03]</text>
</g>
<!-- Reservoir(5)
&lt;31&gt;[0.04] -->
<g id="node8" class="node">
<title>Reservoir(5)
&lt;31&gt;[0.04]</title>
<ellipse fill="none" stroke="black" cx="1456.81" cy="-121.87" rx="60.21" ry="26.74"/>
<text text-anchor="middle" x="1456.81" y="-125.67" font-family="Times,serif" font-size="14.00">Reservoir(5)</text>
<text text-anchor="middle" x="1456.81" y="-110.67" font-family="Times,serif" font-size="14.00">&lt;31&gt;[0.04]</text>
</g>
<!-- Channel(7)
&lt;30&gt;[0.03]&#45;&gt;Reservoir(5)
&lt;31&gt;[0.04] -->
<g id="edge7" class="edge">
<title>Channel(7)
&lt;30&gt;[0.03]&#45;&gt;Reservoir(5)
&lt;31&gt;[0.04]</title>
<path fill="none" stroke="black" d="M1456.81,-184.29C1456.81,-176.32 1456.81,-167.43 1456.81,-158.94"/>
<polygon fill="black" stroke="black" points="1460.31,-158.87 1456.81,-148.87 1453.31,-158.87 1460.31,-158.87"/>
</g>
<!-- basin -->
<g id="node9" class="node">
<title>basin</title>
<ellipse fill="none" stroke="black" cx="1500.81" cy="-41" rx="29.5" ry="18"/>
<text text-anchor="middle" x="1500.81" y="-37.3" font-family="Times,serif" font-size="14.00">basin</text>
</g>
<!-- Reservoir(5)
&lt;31&gt;[0.04]&#45;&gt;basin -->
<g id="edge8" class="edge">
<title>Reservoir(5)
&lt;31&gt;[0.04]&#45;&gt;basin</title>
<path fill="none" stroke="black" d="M1470.98,-95.48C1476.05,-86.39 1481.76,-76.15 1486.81,-67.09"/>
<polygon fill="black" stroke="black" points="1489.98,-68.6 1491.79,-58.16 1483.87,-65.19 1489.98,-68.6"/>
</g>
<!-- Canola 3(8)
&lt;6&gt;[0.7605] -->
<g id="node10" class="node">
<title>Canola 3(8)
&lt;6&gt;[0.7605]</title>
<ellipse fill="none" stroke="black" cx="1183.81" cy="-391.09" rx="60.62" ry="26.74"/>
<text text-anchor="middle" x="1183.81" y="-394.89" font-family="Times,serif" font-size="14.00">Canola 3(8)</text>
<text text-anchor="middle" x="1183.81" y="-379.89" font-family="Times,serif" font-size="14.00">&lt;6&gt;[0.7605]</text>
</g>
<!-- Riparian forest 2(22)
&lt;28&gt;[1.384] -->
<g id="node11" class="node">
<title>Riparian forest 2(22)
&lt;28&gt;[1.384]</title>
<ellipse fill="none" stroke="black" cx="1368.81" cy="-301.35" rx="92.76" ry="26.74"/>
<text text-anchor="middle" x="1368.81" y="-305.15" font-family="Times,serif" font-size="14.00">Riparian forest 2(22)</text>
<text text-anchor="middle" x="1368.81" y="-290.15" font-family="Times,serif" font-size="14.00">&lt;28&gt;[1.384]</text>
</g>
<!-- Canola 3(8)
&lt;6&gt;[0.7605]&#45;&gt;Riparian forest 2(22)
&lt;28&gt;[1.384] -->
<g id="edge9" class="edge">
<title>Canola 3(8)
&lt;6&gt;[0.7605]&#45;&gt;Riparian forest 2(22)
&lt;28&gt;[1.384]</title>
<path fill="none" stroke="black" d="M1224.41,-370.84C1250.21,-358.6 1283.98,-342.58 1312.37,-329.12"/>
<polygon fill="black" stroke="black" points="1314.24,-332.11 1321.77,-324.66 1311.24,-325.78 1314.24,-332.11"/>
</g>
<!-- Riparian forest 2(22)
&lt;28&gt;[1.384]&#45;&gt;Channel(7)
&lt;30&gt;[0.03] -->
<g id="edge10" class="edge">
<title>Riparian forest 2(22)
&lt;28&gt;[1.384]&#45;&gt;Channel(7)
&lt;30&gt;[0.03]</title>
<path fill="none" stroke="black" d="M1393.79,-275.44C1403.87,-265.4 1415.59,-253.71 1426.17,-243.16"/>
<polygon fill="black" stroke="black" points="1428.67,-245.61 1433.28,-236.07 1423.73,-240.65 1428.67,-245.61"/>
</g>
<!-- Canola 4(9)
&lt;7&gt;[0.717] -->
<g id="node12" class="node">
<title>Canola 4(9)
&lt;7&gt;[0.717]</title>
<ellipse fill="none" stroke="black" cx="1226.81" cy="-480.83" rx="57.05" ry="26.74"/>
<text text-anchor="middle" x="1226.81" y="-484.63" font-family="Times,serif" font-size="14.00">Canola 4(9)</text>
<text text-anchor="middle" x="1226.81" y="-469.63" font-family="Times,serif" font-size="14.00">&lt;7&gt;[0.717]</text>
</g>
<!-- Canola 4(9)
&lt;7&gt;[0.717]&#45;&gt;Riparian forest 2(22)
&lt;28&gt;[1.384] -->
<g id="edge11" class="edge">
<title>Canola 4(9)
&lt;7&gt;[0.717]&#45;&gt;Riparian forest 2(22)
&lt;28&gt;[1.384]</title>
<path fill="none" stroke="black" d="M1239.49,-454.46C1252.36,-430.01 1273.77,-392.63 1297.81,-364.22 1307.08,-353.27 1318.33,-342.57 1329.11,-333.22"/>
<polygon fill="black" stroke="black" points="1331.48,-335.8 1336.85,-326.67 1326.96,-330.46 1331.48,-335.8"/>
</g>
<!-- Canola 5(10)
&lt;8&gt;[0.09667] -->
<g id="node13" class="node">
<title>Canola 5(10)
&lt;8&gt;[0.09667]</title>
<ellipse fill="none" stroke="black" cx="273.81" cy="-839.79" rx="65.52" ry="26.74"/>
<text text-anchor="middle" x="273.81" y="-843.59" font-family="Times,serif" font-size="14.00">Canola 5(10)</text>
<text text-anchor="middle" x="273.81" y="-828.59" font-family="Times,serif" font-size="14.00">&lt;8&gt;[0.09667]</text>
</g>
<!-- Canola 5(10)
&lt;8&gt;[0.09667]&#45;&gt;Riparian forest 1(21)
&lt;27&gt;[0.1565] -->
<g id="edge12" class="edge">
<title>Canola 5(10)
&lt;8&gt;[0.09667]&#45;&gt;Riparian forest 1(21)
&lt;27&gt;[0.1565]</title>
<path fill="none" stroke="black" d="M291.76,-813.69C298.72,-802.85 306.12,-789.73 310.81,-776.92 328.71,-728.02 329.81,-713.38 329.81,-661.31 329.81,-661.31 329.81,-661.31 329.81,-479.83 329.81,-427.35 317.99,-402.57 353.81,-364.22 384.46,-331.4 430.97,-315.49 473.42,-307.95"/>
<polygon fill="black" stroke="black" points="474.24,-311.37 483.54,-306.3 473.11,-304.46 474.24,-311.37"/>
</g>
<!-- Canola 6(11)
&lt;9&gt;[0.3993] -->
<g id="node14" class="node">
<title>Canola 6(11)
&lt;9&gt;[0.3993]</title>
<ellipse fill="none" stroke="black" cx="367.81" cy="-929.53" rx="62.45" ry="26.74"/>
<text text-anchor="middle" x="367.81" y="-933.33" font-family="Times,serif" font-size="14.00">Canola 6(11)</text>
<text text-anchor="middle" x="367.81" y="-918.33" font-family="Times,serif" font-size="14.00">&lt;9&gt;[0.3993]</text>
</g>
<!-- Canola 6(11)
&lt;9&gt;[0.3993]&#45;&gt;Riparian forest 1(21)
&lt;27&gt;[0.1565] -->
<g id="edge13" class="edge">
<title>Canola 6(11)
&lt;9&gt;[0.3993]&#45;&gt;Riparian forest 1(21)
&lt;27&gt;[0.1565]</title>
<path fill="none" stroke="black" d="M367.81,-902.37C367.81,-867.75 367.81,-804.82 367.81,-751.05 367.81,-751.05 367.81,-751.05 367.81,-479.83 367.81,-427.76 352.95,-403.78 386.81,-364.22 409.79,-337.37 444.65,-322.11 478.13,-313.46"/>
<polygon fill="black" stroke="black" points="479.09,-316.83 488,-311.08 477.45,-310.02 479.09,-316.83"/>
</g>
<!-- Flax 1(12)
&lt;10&gt;[0.2765] -->
<g id="node15" class="node">
<title>Flax 1(12)
&lt;10&gt;[0.2765]</title>
<ellipse fill="none" stroke="black" cx="461.81" cy="-391.09" rx="65.52" ry="26.74"/>
<text text-anchor="middle" x="461.81" y="-394.89" font-family="Times,serif" font-size="14.00">Flax 1(12)</text>
<text text-anchor="middle" x="461.81" y="-379.89" font-family="Times,serif" font-size="14.00">&lt;10&gt;[0.2765]</text>
</g>
<!-- Flax 1(12)
&lt;10&gt;[0.2765]&#45;&gt;Riparian forest 1(21)
&lt;27&gt;[0.1565] -->
<g id="edge14" class="edge">
<title>Flax 1(12)
&lt;10&gt;[0.2765]&#45;&gt;Riparian forest 1(21)
&lt;27&gt;[0.1565]</title>
<path fill="none" stroke="black" d="M491.5,-367.04C504.84,-356.68 520.77,-344.31 535.11,-333.17"/>
<polygon fill="black" stroke="black" points="537.59,-335.68 543.34,-326.78 533.3,-330.15 537.59,-335.68"/>
</g>
<!-- Forage 1(13)
&lt;11&gt;[0.04979] -->
<g id="node16" class="node">
<title>Forage 1(13)
&lt;11&gt;[0.04979]</title>
<ellipse fill="none" stroke="black" cx="1250.81" cy="-570.57" rx="70.92" ry="26.74"/>
<text text-anchor="middle" x="1250.81" y="-574.37" font-family="Times,serif" font-size="14.00">Forage 1(13)</text>
<text text-anchor="middle" x="1250.81" y="-559.37" font-family="Times,serif" font-size="14.00">&lt;11&gt;[0.04979]</text>
</g>
<!-- Forage 1(13)
&lt;11&gt;[0.04979]&#45;&gt;Riparian forest 2(22)
&lt;28&gt;[1.384] -->
<g id="edge15" class="edge">
<title>Forage 1(13)
&lt;11&gt;[0.04979]&#45;&gt;Riparian forest 2(22)
&lt;28&gt;[1.384]</title>
<path fill="none" stroke="black" d="M1270.44,-544.44C1278.22,-533.59 1286.74,-520.48 1292.81,-507.7 1321.39,-447.58 1310.47,-425.78 1335.81,-364.22 1339.56,-355.11 1344.24,-345.58 1348.88,-336.81"/>
<polygon fill="black" stroke="black" points="1351.97,-338.44 1353.66,-327.99 1345.82,-335.11 1351.97,-338.44"/>
</g>
<!-- Forage 2(14)
&lt;12&gt;[0.02057] -->
<g id="node17" class="node">
<title>Forage 2(14)
&lt;12&gt;[0.02057]</title>
<ellipse fill="none" stroke="black" cx="494.81" cy="-480.83" rx="70.92" ry="26.74"/>
<text text-anchor="middle" x="494.81" y="-484.63" font-family="Times,serif" font-size="14.00">Forage 2(14)</text>
<text text-anchor="middle" x="494.81" y="-469.63" font-family="Times,serif" font-size="14.00">&lt;12&gt;[0.02057]</text>
</g>
<!-- Forage 2(14)
&lt;12&gt;[0.02057]&#45;&gt;Riparian forest 1(21)
&lt;27&gt;[0.1565] -->
<g id="edge16" class="edge">
<title>Forage 2(14)
&lt;12&gt;[0.02057]&#45;&gt;Riparian forest 1(21)
&lt;27&gt;[0.1565]</title>
<path fill="none" stroke="black" d="M514.06,-454.92C521.87,-444 530.51,-430.78 536.81,-417.96 549.4,-392.36 559.28,-361.61 565.81,-338.25"/>
<polygon fill="black" stroke="black" points="569.23,-338.98 568.48,-328.41 562.48,-337.15 569.23,-338.98"/>
</g>
<!-- Green and Oat 1(15)
&lt;13&gt;[0.2988] -->
<g id="node18" class="node">
<title>Green and Oat 1(15)
&lt;13&gt;[0.2988]</title>
<ellipse fill="none" stroke="black" cx="1268.81" cy="-660.31" rx="91.43" ry="26.74"/>
<text text-anchor="middle" x="1268.81" y="-664.11" font-family="Times,serif" font-size="14.00">Green and Oat 1(15)</text>
<text text-anchor="middle" x="1268.81" y="-649.11" font-family="Times,serif" font-size="14.00">&lt;13&gt;[0.2988]</text>
</g>
<!-- Green and Oat 1(15)
&lt;13&gt;[0.2988]&#45;&gt;Riparian forest 2(22)
&lt;28&gt;[1.384] -->
<g id="edge17" class="edge">
<title>Green and Oat 1(15)
&lt;13&gt;[0.2988]&#45;&gt;Riparian forest 2(22)
&lt;28&gt;[1.384]</title>
<path fill="none" stroke="black" d="M1300.72,-635.08C1312.07,-624.75 1323.76,-611.77 1330.81,-597.44 1372.89,-511.92 1374.05,-396.38 1371.42,-338.52"/>
<polygon fill="black" stroke="black" points="1374.91,-338.22 1370.89,-328.41 1367.92,-338.58 1374.91,-338.22"/>
</g>
<!-- Green and Oat 2(16)
&lt;14&gt;[0.05142] -->
<g id="node19" class="node">
<title>Green and Oat 2(16)
&lt;14&gt;[0.05142]</title>
<ellipse fill="none" stroke="black" cx="512.81" cy="-570.57" rx="91.43" ry="26.74"/>
<text text-anchor="middle" x="512.81" y="-574.37" font-family="Times,serif" font-size="14.00">Green and Oat 2(16)</text>
<text text-anchor="middle" x="512.81" y="-559.37" font-family="Times,serif" font-size="14.00">&lt;14&gt;[0.05142]</text>
</g>
<!-- Green and Oat 2(16)
&lt;14&gt;[0.05142]&#45;&gt;Riparian forest 1(21)
&lt;27&gt;[0.1565] -->
<g id="edge18" class="edge">
<title>Green and Oat 2(16)
&lt;14&gt;[0.05142]&#45;&gt;Riparian forest 1(21)
&lt;27&gt;[0.1565]</title>
<path fill="none" stroke="black" d="M546.02,-545.49C557.38,-535.26 568.75,-522.31 574.81,-507.7 597.91,-452.03 590.5,-380.33 582.8,-338.05"/>
<polygon fill="black" stroke="black" points="586.24,-337.38 580.91,-328.22 579.36,-338.7 586.24,-337.38"/>
</g>
<!-- Oats 1(17)
&lt;15&gt;[0.01845] -->
<g id="node20" class="node">
<title>Oats 1(17)
&lt;15&gt;[0.01845]</title>
<ellipse fill="none" stroke="black" cx="1326.81" cy="-750.05" rx="70.92" ry="26.74"/>
<text text-anchor="middle" x="1326.81" y="-753.85" font-family="Times,serif" font-size="14.00">Oats 1(17)</text>
<text text-anchor="middle" x="1326.81" y="-738.85" font-family="Times,serif" font-size="14.00">&lt;15&gt;[0.01845]</text>
</g>
<!-- Oats 1(17)
&lt;15&gt;[0.01845]&#45;&gt;Riparian forest 2(22)
&lt;28&gt;[1.384] -->
<g id="edge19" class="edge">
<title>Oats 1(17)
&lt;15&gt;[0.01845]&#45;&gt;Riparian forest 2(22)
&lt;28&gt;[1.384]</title>
<path fill="none" stroke="black" d="M1347.27,-724.28C1355.17,-713.49 1363.57,-700.32 1368.81,-687.18 1388.11,-638.82 1387.81,-623.64 1387.81,-571.57 1387.81,-571.57 1387.81,-571.57 1387.81,-479.83 1387.81,-430.61 1380.5,-374.15 1374.95,-338.38"/>
<polygon fill="black" stroke="black" points="1378.39,-337.75 1373.36,-328.42 1371.48,-338.84 1378.39,-337.75"/>
</g>
<!-- Oats 2(18)
&lt;16&gt;[0.1319] -->
<g id="node21" class="node">
<title>Oats 2(18)
&lt;16&gt;[0.1319]</title>
<ellipse fill="none" stroke="black" cx="575.81" cy="-660.31" rx="65.52" ry="26.74"/>
<text text-anchor="middle" x="575.81" y="-664.11" font-family="Times,serif" font-size="14.00">Oats 2(18)</text>
<text text-anchor="middle" x="575.81" y="-649.11" font-family="Times,serif" font-size="14.00">&lt;16&gt;[0.1319]</text>
</g>
<!-- Oats 2(18)
&lt;16&gt;[0.1319]&#45;&gt;Riparian forest 1(21)
&lt;27&gt;[0.1565] -->
<g id="edge20" class="edge">
<title>Oats 2(18)
&lt;16&gt;[0.1319]&#45;&gt;Riparian forest 1(21)
&lt;27&gt;[0.1565]</title>
<path fill="none" stroke="black" d="M594.81,-634.55C601.93,-623.76 609.18,-610.59 612.81,-597.44 624.6,-554.77 627.57,-465.26 602.81,-364.22 600.61,-355.23 597.13,-345.94 593.35,-337.38"/>
<polygon fill="black" stroke="black" points="596.42,-335.67 589.03,-328.08 590.07,-338.62 596.42,-335.67"/>
</g>
<!-- Oats 3(19)
&lt;17&gt;[0.2185] -->
<g id="node22" class="node">
<title>Oats 3(19)
&lt;17&gt;[0.2185]</title>
<ellipse fill="none" stroke="black" cx="1397.81" cy="-839.79" rx="65.52" ry="26.74"/>
<text text-anchor="middle" x="1397.81" y="-843.59" font-family="Times,serif" font-size="14.00">Oats 3(19)</text>
<text text-anchor="middle" x="1397.81" y="-828.59" font-family="Times,serif" font-size="14.00">&lt;17&gt;[0.2185]</text>
</g>
<!-- Oats 3(19)
&lt;17&gt;[0.2185]&#45;&gt;Riparian forest 2(22)
&lt;28&gt;[1.384] -->
<g id="edge21" class="edge">
<title>Oats 3(19)
&lt;17&gt;[0.2185]&#45;&gt;Riparian forest 2(22)
&lt;28&gt;[1.384]</title>
<path fill="none" stroke="black" d="M1404.52,-812.83C1412.8,-778.43 1425.81,-715.74 1425.81,-661.31 1425.81,-661.31 1425.81,-661.31 1425.81,-479.83 1425.81,-428.36 1403.81,-372.34 1387.15,-337.29"/>
<polygon fill="black" stroke="black" points="1390.14,-335.44 1382.61,-327.98 1383.84,-338.5 1390.14,-335.44"/>
</g>
<!-- Pasture(20)
&lt;18&gt;[0.08345] -->
<g id="node23" class="node">
<title>Pasture(20)
&lt;18&gt;[0.08345]</title>
<ellipse fill="none" stroke="black" cx="608.81" cy="-750.05" rx="70.92" ry="26.74"/>
<text text-anchor="middle" x="608.81" y="-753.85" font-family="Times,serif" font-size="14.00">Pasture(20)</text>
<text text-anchor="middle" x="608.81" y="-738.85" font-family="Times,serif" font-size="14.00">&lt;18&gt;[0.08345]</text>
</g>
<!-- Pasture(20)
&lt;18&gt;[0.08345]&#45;&gt;Riparian forest 1(21)
&lt;27&gt;[0.1565] -->
<g id="edge22" class="edge">
<title>Pasture(20)
&lt;18&gt;[0.08345]&#45;&gt;Riparian forest 1(21)
&lt;27&gt;[0.1565]</title>
<path fill="none" stroke="black" d="M629.27,-724.28C637.17,-713.49 645.57,-700.32 650.81,-687.18 670.11,-638.82 669.81,-623.64 669.81,-571.57 669.81,-571.57 669.81,-571.57 669.81,-479.83 669.81,-424.02 632.84,-368.77 605.03,-335.11"/>
<polygon fill="black" stroke="black" points="607.67,-332.81 598.54,-327.44 602.33,-337.33 607.67,-332.81"/>
</g>
<!-- Road(23)
&lt;29&gt;[0.3795] -->
<g id="node24" class="node">
<title>Road(23)
&lt;29&gt;[0.3795]</title>
<ellipse fill="none" stroke="black" cx="1544.81" cy="-301.35" rx="65.52" ry="26.74"/>
<text text-anchor="middle" x="1544.81" y="-305.15" font-family="Times,serif" font-size="14.00">Road(23)</text>
<text text-anchor="middle" x="1544.81" y="-290.15" font-family="Times,serif" font-size="14.00">&lt;29&gt;[0.3795]</text>
</g>
<!-- Road(23)
&lt;29&gt;[0.3795]&#45;&gt;Channel(7)
&lt;30&gt;[0.03] -->
<g id="edge23" class="edge">
<title>Road(23)
&lt;29&gt;[0.3795]&#45;&gt;Channel(7)
&lt;30&gt;[0.03]</title>
<path fill="none" stroke="black" d="M1520.3,-275.91C1510.22,-265.86 1498.42,-254.1 1487.76,-243.46"/>
<polygon fill="black" stroke="black" points="1490.14,-240.9 1480.59,-236.31 1485.2,-245.85 1490.14,-240.9"/>
</g>
<!-- Road(23)
&lt;29&gt;[0.3795]&#45;&gt;basin -->
<g id="edge24" class="edge">
<title>Road(23)
&lt;29&gt;[0.3795]&#45;&gt;basin</title>
<path fill="none" stroke="black" d="M1545.27,-274.23C1545.32,-234.71 1542.93,-157.69 1525.81,-95 1523.24,-85.59 1519.09,-75.79 1514.9,-67.21"/>
<polygon fill="black" stroke="black" points="1517.92,-65.43 1510.24,-58.14 1511.69,-68.63 1517.92,-65.43"/>
</g>
<!-- Unkown(24)
&lt;19&gt;[0.04466] -->
<g id="node25" class="node">
<title>Unkown(24)
&lt;19&gt;[0.04466]</title>
<ellipse fill="none" stroke="black" cx="646.81" cy="-839.79" rx="70.92" ry="26.74"/>
<text text-anchor="middle" x="646.81" y="-843.59" font-family="Times,serif" font-size="14.00">Unkown(24)</text>
<text text-anchor="middle" x="646.81" y="-828.59" font-family="Times,serif" font-size="14.00">&lt;19&gt;[0.04466]</text>
</g>
<!-- Unkown(24)
&lt;19&gt;[0.04466]&#45;&gt;Riparian forest 1(21)
&lt;27&gt;[0.1565] -->
<g id="edge25" class="edge">
<title>Unkown(24)
&lt;19&gt;[0.04466]&#45;&gt;Riparian forest 1(21)
&lt;27&gt;[0.1565]</title>
<path fill="none" stroke="black" d="M667.27,-814.02C675.17,-803.23 683.57,-790.06 688.81,-776.92 708.11,-728.56 707.81,-713.38 707.81,-661.31 707.81,-661.31 707.81,-661.31 707.81,-479.83 707.81,-423.67 691.68,-408.24 656.81,-364.22 647.27,-352.18 634.87,-341.24 622.61,-332.02"/>
<polygon fill="black" stroke="black" points="624.34,-328.95 614.19,-325.92 620.24,-334.62 624.34,-328.95"/>
</g>
<!-- Wheat 1(25)
&lt;20&gt;[0.2667] -->
<g id="node26" class="node">
<title>Wheat 1(25)
&lt;20&gt;[0.2667]</title>
<ellipse fill="none" stroke="black" cx="745.81" cy="-929.53" rx="65.52" ry="26.74"/>
<text text-anchor="middle" x="745.81" y="-933.33" font-family="Times,serif" font-size="14.00">Wheat 1(25)</text>
<text text-anchor="middle" x="745.81" y="-918.33" font-family="Times,serif" font-size="14.00">&lt;20&gt;[0.2667]</text>
</g>
<!-- Wheat 1(25)
&lt;20&gt;[0.2667]&#45;&gt;Riparian forest 1(21)
&lt;27&gt;[0.1565] -->
<g id="edge26" class="edge">
<title>Wheat 1(25)
&lt;20&gt;[0.2667]&#45;&gt;Riparian forest 1(21)
&lt;27&gt;[0.1565]</title>
<path fill="none" stroke="black" d="M745.81,-902.37C745.81,-867.75 745.81,-804.82 745.81,-751.05 745.81,-751.05 745.81,-751.05 745.81,-479.83 745.81,-422.93 730.11,-405.37 690.81,-364.22 676.45,-349.18 657.62,-337.01 639.32,-327.57"/>
<polygon fill="black" stroke="black" points="640.63,-324.32 630.11,-323.02 637.52,-330.59 640.63,-324.32"/>
</g>
<!-- Wheat 2(26)
&lt;21&gt;[0.3189] -->
<g id="node27" class="node">
<title>Wheat 2(26)
&lt;21&gt;[0.3189]</title>
<ellipse fill="none" stroke="black" cx="1491.81" cy="-929.53" rx="65.52" ry="26.74"/>
<text text-anchor="middle" x="1491.81" y="-933.33" font-family="Times,serif" font-size="14.00">Wheat 2(26)</text>
<text text-anchor="middle" x="1491.81" y="-918.33" font-family="Times,serif" font-size="14.00">&lt;21&gt;[0.3189]</text>
</g>
<!-- Wheat 2(26)
&lt;21&gt;[0.3189]&#45;&gt;Riparian forest 2(22)
&lt;28&gt;[1.384] -->
<g id="edge27" class="edge">
<title>Wheat 2(26)
&lt;21&gt;[0.3189]&#45;&gt;Riparian forest 2(22)
&lt;28&gt;[1.384]</title>
<path fill="none" stroke="black" d="M1491.81,-902.37C1491.81,-867.75 1491.81,-804.82 1491.81,-751.05 1491.81,-751.05 1491.81,-751.05 1491.81,-479.83 1491.81,-420.23 1444.38,-366.21 1408.42,-333.82"/>
<polygon fill="black" stroke="black" points="1410.31,-330.82 1400.49,-326.85 1405.69,-336.08 1410.31,-330.82"/>
</g>
<!-- Wheat 3(27)
&lt;22&gt;[0.5041] -->
<g id="node28" class="node">
<title>Wheat 3(27)
&lt;22&gt;[0.5041]</title>
<ellipse fill="none" stroke="black" cx="839.81" cy="-391.09" rx="65.52" ry="26.74"/>
<text text-anchor="middle" x="839.81" y="-394.89" font-family="Times,serif" font-size="14.00">Wheat 3(27)</text>
<text text-anchor="middle" x="839.81" y="-379.89" font-family="Times,serif" font-size="14.00">&lt;22&gt;[0.5041]</text>
</g>
<!-- Wheat 3(27)
&lt;22&gt;[0.5041]&#45;&gt;Riparian forest 1(21)
&lt;27&gt;[0.1565] -->
<g id="edge28" class="edge">
<title>Wheat 3(27)
&lt;22&gt;[0.5041]&#45;&gt;Riparian forest 1(21)
&lt;27&gt;[0.1565]</title>
<path fill="none" stroke="black" d="M789.66,-373.48C748.47,-359.85 689.7,-340.39 644.03,-325.27"/>
<polygon fill="black" stroke="black" points="645.09,-321.93 634.5,-322.11 642.89,-328.58 645.09,-321.93"/>
</g>
<!-- Wheat 4(28)
&lt;23&gt;[0.2773] -->
<g id="node29" class="node">
<title>Wheat 4(28)
&lt;23&gt;[0.2773]</title>
<ellipse fill="none" stroke="black" cx="905.81" cy="-480.83" rx="65.52" ry="26.74"/>
<text text-anchor="middle" x="905.81" y="-484.63" font-family="Times,serif" font-size="14.00">Wheat 4(28)</text>
<text text-anchor="middle" x="905.81" y="-469.63" font-family="Times,serif" font-size="14.00">&lt;23&gt;[0.2773]</text>
</g>
<!-- Wheat 4(28)
&lt;23&gt;[0.2773]&#45;&gt;Riparian forest 1(21)
&lt;27&gt;[0.1565] -->
<g id="edge29" class="edge">
<title>Wheat 4(28)
&lt;23&gt;[0.2773]&#45;&gt;Riparian forest 1(21)
&lt;27&gt;[0.1565]</title>
<path fill="none" stroke="black" d="M917.19,-454.17C926.66,-428.42 935.58,-389.11 914.81,-364.22 884.83,-328.29 765.15,-313.18 676.21,-306.85"/>
<polygon fill="black" stroke="black" points="676.29,-303.35 666.08,-306.16 675.81,-310.33 676.29,-303.35"/>
</g>
<!-- Wheat 5(29)
&lt;24&gt;[0.2649] -->
<g id="node30" class="node">
<title>Wheat 5(29)
&lt;24&gt;[0.2649]</title>
<ellipse fill="none" stroke="black" cx="999.81" cy="-570.57" rx="65.52" ry="26.74"/>
<text text-anchor="middle" x="999.81" y="-574.37" font-family="Times,serif" font-size="14.00">Wheat 5(29)</text>
<text text-anchor="middle" x="999.81" y="-559.37" font-family="Times,serif" font-size="14.00">&lt;24&gt;[0.2649]</text>
</g>
<!-- Wheat 5(29)
&lt;24&gt;[0.2649]&#45;&gt;Riparian forest 1(21)
&lt;27&gt;[0.1565] -->
<g id="edge30" class="edge">
<title>Wheat 5(29)
&lt;24&gt;[0.2649]&#45;&gt;Riparian forest 1(21)
&lt;27&gt;[0.1565]</title>
<path fill="none" stroke="black" d="M1000.61,-543.37C1000.37,-498.15 992.51,-406.25 935.81,-364.22 895.37,-334.25 766.89,-317.68 674.72,-309.41"/>
<polygon fill="black" stroke="black" points="674.79,-305.9 664.52,-308.51 674.17,-312.87 674.79,-305.9"/>
</g>
<!-- Wheat 6(30)
&lt;25&gt;[0.503] -->
<g id="node31" class="node">
<title>Wheat 6(30)
&lt;25&gt;[0.503]</title>
<ellipse fill="none" stroke="black" cx="1580.81" cy="-391.09" rx="60.62" ry="26.74"/>
<text text-anchor="middle" x="1580.81" y="-394.89" font-family="Times,serif" font-size="14.00">Wheat 6(30)</text>
<text text-anchor="middle" x="1580.81" y="-379.89" font-family="Times,serif" font-size="14.00">&lt;25&gt;[0.503]</text>
</g>
<!-- Wheat 6(30)
&lt;25&gt;[0.503]&#45;&gt;Riparian forest 2(22)
&lt;28&gt;[1.384] -->
<g id="edge31" class="edge">
<title>Wheat 6(30)
&lt;25&gt;[0.503]&#45;&gt;Riparian forest 2(22)
&lt;28&gt;[1.384]</title>
<path fill="none" stroke="black" d="M1537.4,-372.12C1506.39,-359.29 1464.26,-341.85 1429.87,-327.62"/>
<polygon fill="black" stroke="black" points="1430.97,-324.29 1420.39,-323.7 1428.29,-330.76 1430.97,-324.29"/>
</g>
<!-- Wheat 7(31)
&lt;26&gt;[0.2986] -->
<g id="node32" class="node">
<title>Wheat 7(31)
&lt;26&gt;[0.2986]</title>
<ellipse fill="none" stroke="black" cx="1093.81" cy="-660.31" rx="65.52" ry="26.74"/>
<text text-anchor="middle" x="1093.81" y="-664.11" font-family="Times,serif" font-size="14.00">Wheat 7(31)</text>
<text text-anchor="middle" x="1093.81" y="-649.11" font-family="Times,serif" font-size="14.00">&lt;26&gt;[0.2986]</text>
</g>
<!-- Wheat 7(31)
&lt;26&gt;[0.2986]&#45;&gt;Riparian forest 1(21)
&lt;27&gt;[0.1565] -->
<g id="edge32" class="edge">
<title>Wheat 7(31)
&lt;26&gt;[0.2986]&#45;&gt;Riparian forest 1(21)
&lt;27&gt;[0.1565]</title>
<path fill="none" stroke="black" d="M1091.88,-633.01C1085.91,-573.17 1062.1,-427.14 969.81,-364.22 923.17,-332.42 776.32,-316.05 675.44,-308.34"/>
<polygon fill="black" stroke="black" points="675.45,-304.83 665.22,-307.58 674.93,-311.82 675.45,-304.83"/>
</g>
</g>
</svg>
