<?xml version="1.0" encoding="UTF-8" standalone="no"?>
<!DOCTYPE svg PUBLIC "-//W3C//DTD SVG 1.1//EN"
 "http://www.w3.org/Graphics/SVG/1.1/DTD/svg11.dtd">
<!-- Generated by graphviz version 2.43.0 (0)
 -->
<!-- Title: TEST Pages: 1 -->
<svg width="991pt" height="336pt"
 viewBox="0.00 0.00 991.36 336.22" xmlns="http://www.w3.org/2000/svg" xmlns:xlink="http://www.w3.org/1999/xlink">
<g id="graph0" class="graph" transform="scale(1 1) rotate(0) translate(4 332.22)">
<title>TEST</title>
<polygon fill="white" stroke="transparent" points="-4,4 -4,-332.22 987.36,-332.22 987.36,4 -4,4"/>
<text text-anchor="middle" x="491.68" y="-7.8" font-family="Times,serif" font-size="14.00">L_se2_project_GrpL</text>
<!-- Corn(2)
[0.4873] -->
<g id="node1" class="node">
<title>Corn(2)
[0.4873]</title>
<ellipse fill="none" stroke="black" cx="44.55" cy="-301.35" rx="44.6" ry="26.74"/>
<text text-anchor="middle" x="44.55" y="-305.15" font-family="Times,serif" font-size="14.00">Corn(2)</text>
<text text-anchor="middle" x="44.55" y="-290.15" font-family="Times,serif" font-size="14.00">[0.4873]</text>
</g>
<!-- Channel(7)
[0.01] -->
<g id="node2" class="node">
<title>Channel(7)
[0.01]</title>
<ellipse fill="none" stroke="black" cx="552.55" cy="-211.61" rx="54.39" ry="26.74"/>
<text text-anchor="middle" x="552.55" y="-215.41" font-family="Times,serif" font-size="14.00">Channel(7)</text>
<text text-anchor="middle" x="552.55" y="-200.41" font-family="Times,serif" font-size="14.00">[0.01]</text>
</g>
<!-- Corn(2)
[0.4873]&#45;&gt;Channel(7)
[0.01] -->
<g id="edge1" class="edge">
<title>Corn(2)
[0.4873]&#45;&gt;Channel(7)
[0.01]</title>
<path fill="none" stroke="black" d="M77.02,-282.8C83.97,-279.61 91.38,-276.63 98.55,-274.48 233.42,-234.07 398.81,-219.96 488.05,-215.11"/>
<polygon fill="black" stroke="black" points="488.48,-218.59 498.28,-214.57 488.12,-211.6 488.48,-218.59"/>
</g>
<!-- Reservoir(5)
[0.01] -->
<g id="node3" class="node">
<title>Reservoir(5)
[0.01]</title>
<ellipse fill="none" stroke="black" cx="690.55" cy="-121.87" rx="60.21" ry="26.74"/>
<text text-anchor="middle" x="690.55" y="-125.67" font-family="Times,serif" font-size="14.00">Reservoir(5)</text>
<text text-anchor="middle" x="690.55" y="-110.67" font-family="Times,serif" font-size="14.00">[0.01]</text>
</g>
<!-- Channel(7)
[0.01]&#45;&gt;Reservoir(5)
[0.01] -->
<g id="edge2" class="edge">
<title>Channel(7)
[0.01]&#45;&gt;Reservoir(5)
[0.01]</title>
<path fill="none" stroke="black" d="M585.25,-189.82C604,-177.9 627.74,-162.8 647.93,-149.96"/>
<polygon fill="black" stroke="black" points="650.08,-152.75 656.64,-144.43 646.32,-146.84 650.08,-152.75"/>
</g>
<!-- basin -->
<g id="node7" class="node">
<title>basin</title>
<ellipse fill="none" stroke="black" cx="754.55" cy="-41" rx="29.5" ry="18"/>
<text text-anchor="middle" x="754.55" y="-37.3" font-family="Times,serif" font-size="14.00">basin</text>
</g>
<!-- Reservoir(5)
[0.01]&#45;&gt;basin -->
<g id="edge6" class="edge">
<title>Reservoir(5)
[0.01]&#45;&gt;basin</title>
<path fill="none" stroke="black" d="M710.45,-96.35C718.39,-86.55 727.51,-75.32 735.38,-65.62"/>
<polygon fill="black" stroke="black" points="738.33,-67.54 741.92,-57.56 732.9,-63.12 738.33,-67.54"/>
</g>
<!-- Flax/Linola(3)
[0.002833] -->
<g id="node4" class="node">
<title>Flax/Linola(3)
[0.002833]</title>
<ellipse fill="none" stroke="black" cx="174.55" cy="-301.35" rx="67.35" ry="26.74"/>
<text text-anchor="middle" x="174.55" y="-305.15" font-family="Times,serif" font-size="14.00">Flax/Linola(3)</text>
<text text-anchor="middle" x="174.55" y="-290.15" font-family="Times,serif" font-size="14.00">[0.002833]</text>
</g>
<!-- Flax/Linola(3)
[0.002833]&#45;&gt;Channel(7)
[0.01] -->
<g id="edge3" class="edge">
<title>Flax/Linola(3)
[0.002833]&#45;&gt;Channel(7)
[0.01]</title>
<path fill="none" stroke="black" d="M223.33,-282.73C232.32,-279.78 241.67,-276.89 250.55,-274.48 332.99,-252.1 430.03,-233.58 491.41,-222.8"/>
<polygon fill="black" stroke="black" points="492.07,-226.24 501.32,-221.07 490.87,-219.34 492.07,-226.24"/>
</g>
<!-- Riparian forest(4)
[0.2065] -->
<g id="node5" class="node">
<title>Riparian forest(4)
[0.2065]</title>
<ellipse fill="none" stroke="black" cx="339.55" cy="-301.35" rx="79.81" ry="26.74"/>
<text text-anchor="middle" x="339.55" y="-305.15" font-family="Times,serif" font-size="14.00">Riparian forest(4)</text>
<text text-anchor="middle" x="339.55" y="-290.15" font-family="Times,serif" font-size="14.00">[0.2065]</text>
</g>
<!-- Riparian forest(4)
[0.2065]&#45;&gt;Channel(7)
[0.01] -->
<g id="edge4" class="edge">
<title>Riparian forest(4)
[0.2065]&#45;&gt;Channel(7)
[0.01]</title>
<path fill="none" stroke="black" d="M388.68,-280.11C422.71,-266.09 467.87,-247.49 502.17,-233.36"/>
<polygon fill="black" stroke="black" points="503.62,-236.55 511.53,-229.5 500.95,-230.08 503.62,-236.55"/>
</g>
<!-- Riparian forest(6)
[0.09536] -->
<g id="node6" class="node">
<title>Riparian forest(6)
[0.09536]</title>
<ellipse fill="none" stroke="black" cx="517.55" cy="-301.35" rx="79.81" ry="26.74"/>
<text text-anchor="middle" x="517.55" y="-305.15" font-family="Times,serif" font-size="14.00">Riparian forest(6)</text>
<text text-anchor="middle" x="517.55" y="-290.15" font-family="Times,serif" font-size="14.00">[0.09536]</text>
</g>
<!-- Riparian forest(6)
[0.09536]&#45;&gt;Channel(7)
[0.01] -->
<g id="edge5" class="edge">
<title>Riparian forest(6)
[0.09536]&#45;&gt;Channel(7)
[0.01]</title>
<path fill="none" stroke="black" d="M527.86,-274.5C531.21,-266.11 534.98,-256.66 538.55,-247.71"/>
<polygon fill="black" stroke="black" points="541.86,-248.86 542.31,-238.28 535.35,-246.27 541.86,-248.86"/>
</g>
<!-- Road(8)
[0.06977] -->
<g id="node8" class="node">
<title>Road(8)
[0.06977]</title>
<ellipse fill="none" stroke="black" cx="664.55" cy="-301.35" rx="49.49" ry="26.74"/>
<text text-anchor="middle" x="664.55" y="-305.15" font-family="Times,serif" font-size="14.00">Road(8)</text>
<text text-anchor="middle" x="664.55" y="-290.15" font-family="Times,serif" font-size="14.00">[0.06977]</text>
</g>
<!-- Road(8)
[0.06977]&#45;&gt;Channel(7)
[0.01] -->
<g id="edge7" class="edge">
<title>Road(8)
[0.06977]&#45;&gt;Channel(7)
[0.01]</title>
<path fill="none" stroke="black" d="M637.15,-278.89C622.59,-267.48 604.51,-253.31 588.8,-241.01"/>
<polygon fill="black" stroke="black" points="590.86,-238.18 580.83,-234.77 586.55,-243.69 590.86,-238.18"/>
</g>
<!-- Wheat 1(9)
[0.02826] -->
<g id="node9" class="node">
<title>Wheat 1(9)
[0.02826]</title>
<ellipse fill="none" stroke="black" cx="787.55" cy="-301.35" rx="55.72" ry="26.74"/>
<text text-anchor="middle" x="787.55" y="-305.15" font-family="Times,serif" font-size="14.00">Wheat 1(9)</text>
<text text-anchor="middle" x="787.55" y="-290.15" font-family="Times,serif" font-size="14.00">[0.02826]</text>
</g>
<!-- Wheat 1(9)
[0.02826]&#45;&gt;Channel(7)
[0.01] -->
<g id="edge8" class="edge">
<title>Wheat 1(9)
[0.02826]&#45;&gt;Channel(7)
[0.01]</title>
<path fill="none" stroke="black" d="M745.66,-283.47C737.99,-280.43 730.04,-277.33 722.55,-274.48 683.55,-259.63 639.23,-243.52 605.62,-231.47"/>
<polygon fill="black" stroke="black" points="606.6,-228.1 596,-228.02 604.24,-234.69 606.6,-228.1"/>
</g>
<!-- Wheat 2(10)
[0.2753] -->
<g id="node10" class="node">
<title>Wheat 2(10)
[0.2753]</title>
<ellipse fill="none" stroke="black" cx="922.55" cy="-301.35" rx="60.62" ry="26.74"/>
<text text-anchor="middle" x="922.55" y="-305.15" font-family="Times,serif" font-size="14.00">Wheat 2(10)</text>
<text text-anchor="middle" x="922.55" y="-290.15" font-family="Times,serif" font-size="14.00">[0.2753]</text>
</g>
<!-- Wheat 2(10)
[0.2753]&#45;&gt;Channel(7)
[0.01] -->
<g id="edge9" class="edge">
<title>Wheat 2(10)
[0.2753]&#45;&gt;Channel(7)
[0.01]</title>
<path fill="none" stroke="black" d="M878.07,-282.77C869.67,-279.78 860.89,-276.87 852.55,-274.48 771.06,-251.16 674.76,-232.9 613.67,-222.43"/>
<polygon fill="black" stroke="black" points="614.25,-218.98 603.81,-220.76 613.08,-225.88 614.25,-218.98"/>
</g>
<!-- Canola(1)
[0.4184] -->
<g id="node11" class="node">
<title>Canola(1)
[0.4184]</title>
<ellipse fill="none" stroke="black" cx="887.55" cy="-121.87" rx="50.41" ry="26.74"/>
<text text-anchor="middle" x="887.55" y="-125.67" font-family="Times,serif" font-size="14.00">Canola(1)</text>
<text text-anchor="middle" x="887.55" y="-110.67" font-family="Times,serif" font-size="14.00">[0.4184]</text>
</g>
<!-- Wheat 2(10)
[0.2753]&#45;&gt;Canola(1)
[0.4184] -->
<g id="edge10" class="edge">
<title>Wheat 2(10)
[0.2753]&#45;&gt;Canola(1)
[0.4184]</title>
<path fill="none" stroke="black" d="M917.46,-274.54C911.44,-244.05 901.4,-193.13 894.63,-158.79"/>
<polygon fill="black" stroke="black" points="898.01,-157.84 892.64,-148.71 891.14,-159.2 898.01,-157.84"/>
</g>
<!-- Canola(1)
[0.4184]&#45;&gt;basin -->
<g id="edge11" class="edge">
<title>Canola(1)
[0.4184]&#45;&gt;basin</title>
<path fill="none" stroke="black" d="M854.67,-101.37C832.96,-88.5 804.76,-71.78 783.82,-59.36"/>
<polygon fill="black" stroke="black" points="785.44,-56.25 775.05,-54.16 781.87,-62.27 785.44,-56.25"/>
</g>
</g>
</svg>
