<?xml version="1.0" encoding="UTF-8" standalone="no"?>
<!DOCTYPE svg PUBLIC "-//W3C//DTD SVG 1.1//EN"
 "http://www.w3.org/Graphics/SVG/1.1/DTD/svg11.dtd">
<!-- Generated by graphviz version 2.43.0 (0)
 -->
<!-- Title: TEST Pages: 1 -->
<svg width="1814pt" height="785pt"
 viewBox="0.00 0.00 1813.86 784.92" xmlns="http://www.w3.org/2000/svg" xmlns:xlink="http://www.w3.org/1999/xlink">
<g id="graph0" class="graph" transform="scale(1 1) rotate(0) translate(4 780.92)">
<title>TEST</title>
<polygon fill="white" stroke="transparent" points="-4,4 -4,-780.92 1809.86,-780.92 1809.86,4 -4,4"/>
<text text-anchor="middle" x="902.93" y="-7.8" font-family="Times,serif" font-size="14.00">E_final_Mid_up1_model_GrpE</text>
<!-- Alfalfa(1)
&lt;1&gt;[0.1188] -->
<g id="node1" class="node">
<title>Alfalfa(1)
&lt;1&gt;[0.1188]</title>
<ellipse fill="none" stroke="black" cx="60.81" cy="-211.61" rx="60.62" ry="26.74"/>
<text text-anchor="middle" x="60.81" y="-215.41" font-family="Times,serif" font-size="14.00">Alfalfa(1)</text>
<text text-anchor="middle" x="60.81" y="-200.41" font-family="Times,serif" font-size="14.00">&lt;1&gt;[0.1188]</text>
</g>
<!-- Channel(5)
&lt;31&gt;[0.03] -->
<g id="node2" class="node">
<title>Channel(5)
&lt;31&gt;[0.03]</title>
<ellipse fill="none" stroke="black" cx="889.81" cy="-121.87" rx="56.64" ry="26.74"/>
<text text-anchor="middle" x="889.81" y="-125.67" font-family="Times,serif" font-size="14.00">Channel(5)</text>
<text text-anchor="middle" x="889.81" y="-110.67" font-family="Times,serif" font-size="14.00">&lt;31&gt;[0.03]</text>
</g>
<!-- Alfalfa(1)
&lt;1&gt;[0.1188]&#45;&gt;Channel(5)
&lt;31&gt;[0.03] -->
<g id="edge1" class="edge">
<title>Alfalfa(1)
&lt;1&gt;[0.1188]&#45;&gt;Channel(5)
&lt;31&gt;[0.03]</title>
<path fill="none" stroke="black" d="M105.51,-193.15C115.36,-189.88 125.84,-186.84 135.81,-184.74 385.42,-132.32 690.2,-123.82 822.83,-122.78"/>
<polygon fill="black" stroke="black" points="822.86,-126.28 832.84,-122.71 822.81,-119.28 822.86,-126.28"/>
</g>
<!-- basin -->
<g id="node3" class="node">
<title>basin</title>
<ellipse fill="none" stroke="black" cx="959.81" cy="-41" rx="29.5" ry="18"/>
<text text-anchor="middle" x="959.81" y="-37.3" font-family="Times,serif" font-size="14.00">basin</text>
</g>
<!-- Channel(5)
&lt;31&gt;[0.03]&#45;&gt;basin -->
<g id="edge2" class="edge">
<title>Channel(5)
&lt;31&gt;[0.03]&#45;&gt;basin</title>
<path fill="none" stroke="black" d="M911.19,-96.78C920.2,-86.63 930.64,-74.87 939.53,-64.85"/>
<polygon fill="black" stroke="black" points="942.25,-67.06 946.27,-57.26 937.01,-62.42 942.25,-67.06"/>
</g>
<!-- Barley_1(2)
&lt;2&gt;[0.07321] -->
<g id="node4" class="node">
<title>Barley_1(2)
&lt;2&gt;[0.07321]</title>
<ellipse fill="none" stroke="black" cx="121.81" cy="-301.35" rx="65.52" ry="26.74"/>
<text text-anchor="middle" x="121.81" y="-305.15" font-family="Times,serif" font-size="14.00">Barley_1(2)</text>
<text text-anchor="middle" x="121.81" y="-290.15" font-family="Times,serif" font-size="14.00">&lt;2&gt;[0.07321]</text>
</g>
<!-- Barley_1(2)
&lt;2&gt;[0.07321]&#45;&gt;Channel(5)
&lt;31&gt;[0.03] -->
<g id="edge3" class="edge">
<title>Barley_1(2)
&lt;2&gt;[0.07321]&#45;&gt;Channel(5)
&lt;31&gt;[0.03]</title>
<path fill="none" stroke="black" d="M131.76,-274.6C143.84,-247.18 167.01,-205.02 201.81,-184.74 254.73,-153.91 661.22,-132.89 823.36,-125.65"/>
<polygon fill="black" stroke="black" points="823.84,-129.13 833.68,-125.19 823.53,-122.14 823.84,-129.13"/>
</g>
<!-- Barley_2(3)
&lt;3&gt;[0.1411] -->
<g id="node5" class="node">
<title>Barley_2(3)
&lt;3&gt;[0.1411]</title>
<ellipse fill="none" stroke="black" cx="164.81" cy="-391.09" rx="60.62" ry="26.74"/>
<text text-anchor="middle" x="164.81" y="-394.89" font-family="Times,serif" font-size="14.00">Barley_2(3)</text>
<text text-anchor="middle" x="164.81" y="-379.89" font-family="Times,serif" font-size="14.00">&lt;3&gt;[0.1411]</text>
</g>
<!-- Barley_2(3)
&lt;3&gt;[0.1411]&#45;&gt;Channel(5)
&lt;31&gt;[0.03] -->
<g id="edge4" class="edge">
<title>Barley_2(3)
&lt;3&gt;[0.1411]&#45;&gt;Channel(5)
&lt;31&gt;[0.03]</title>
<path fill="none" stroke="black" d="M179.3,-364.71C185.22,-353.71 191.82,-340.55 196.81,-328.22 221.77,-266.5 188.35,-226.97 239.81,-184.74 284.22,-148.29 665.88,-130.77 822.83,-125.06"/>
<polygon fill="black" stroke="black" points="823.42,-128.54 833.28,-124.68 823.17,-121.54 823.42,-128.54"/>
</g>
<!-- Barley_3(4)
&lt;4&gt;[0.02916] -->
<g id="node6" class="node">
<title>Barley_3(4)
&lt;4&gt;[0.02916]</title>
<ellipse fill="none" stroke="black" cx="197.81" cy="-480.83" rx="65.52" ry="26.74"/>
<text text-anchor="middle" x="197.81" y="-484.63" font-family="Times,serif" font-size="14.00">Barley_3(4)</text>
<text text-anchor="middle" x="197.81" y="-469.63" font-family="Times,serif" font-size="14.00">&lt;4&gt;[0.02916]</text>
</g>
<!-- Barley_3(4)
&lt;4&gt;[0.02916]&#45;&gt;Channel(5)
&lt;31&gt;[0.03] -->
<g id="edge5" class="edge">
<title>Barley_3(4)
&lt;4&gt;[0.02916]&#45;&gt;Channel(5)
&lt;31&gt;[0.03]</title>
<path fill="none" stroke="black" d="M215.64,-454.68C222.57,-443.84 230,-430.72 234.81,-417.96 272,-319.34 200.3,-256.17 277.81,-184.74 317.35,-148.31 673.36,-130.91 823.5,-125.14"/>
<polygon fill="black" stroke="black" points="823.66,-128.64 833.52,-124.76 823.4,-121.64 823.66,-128.64"/>
</g>
<!-- Canola_1(6)
&lt;5&gt;[0.4642] -->
<g id="node7" class="node">
<title>Canola_1(6)
&lt;5&gt;[0.4642]</title>
<ellipse fill="none" stroke="black" cx="240.81" cy="-570.57" rx="60.62" ry="26.74"/>
<text text-anchor="middle" x="240.81" y="-574.37" font-family="Times,serif" font-size="14.00">Canola_1(6)</text>
<text text-anchor="middle" x="240.81" y="-559.37" font-family="Times,serif" font-size="14.00">&lt;5&gt;[0.4642]</text>
</g>
<!-- Canola_1(6)
&lt;5&gt;[0.4642]&#45;&gt;Channel(5)
&lt;31&gt;[0.03] -->
<g id="edge6" class="edge">
<title>Canola_1(6)
&lt;5&gt;[0.4642]&#45;&gt;Channel(5)
&lt;31&gt;[0.03]</title>
<path fill="none" stroke="black" d="M256.08,-544.47C262.13,-533.53 268.63,-520.33 272.81,-507.7 289.2,-458.27 291.81,-444.16 291.81,-392.09 291.81,-392.09 291.81,-392.09 291.81,-300.35 291.81,-247.87 276.94,-220 315.81,-184.74 352.79,-151.19 679.97,-132.39 823.18,-125.7"/>
<polygon fill="black" stroke="black" points="823.75,-129.17 833.57,-125.22 823.42,-122.18 823.75,-129.17"/>
</g>
<!-- Canola_2(7)
&lt;6&gt;[0.1204] -->
<g id="node8" class="node">
<title>Canola_2(7)
&lt;6&gt;[0.1204]</title>
<ellipse fill="none" stroke="black" cx="278.81" cy="-660.31" rx="60.62" ry="26.74"/>
<text text-anchor="middle" x="278.81" y="-664.11" font-family="Times,serif" font-size="14.00">Canola_2(7)</text>
<text text-anchor="middle" x="278.81" y="-649.11" font-family="Times,serif" font-size="14.00">&lt;6&gt;[0.1204]</text>
</g>
<!-- Canola_2(7)
&lt;6&gt;[0.1204]&#45;&gt;Channel(5)
&lt;31&gt;[0.03] -->
<g id="edge7" class="edge">
<title>Canola_2(7)
&lt;6&gt;[0.1204]&#45;&gt;Channel(5)
&lt;31&gt;[0.03]</title>
<path fill="none" stroke="black" d="M294.08,-634.21C300.13,-623.27 306.63,-610.07 310.81,-597.44 327.2,-548.01 329.81,-533.9 329.81,-481.83 329.81,-481.83 329.81,-481.83 329.81,-300.35 329.81,-247.87 315.08,-220.15 353.81,-184.74 387.88,-153.6 687.26,-133.73 823.19,-126.24"/>
<polygon fill="black" stroke="black" points="823.68,-129.72 833.47,-125.68 823.29,-122.73 823.68,-129.72"/>
</g>
<!-- Canola_3(8)
&lt;7&gt;[0.03476] -->
<g id="node9" class="node">
<title>Canola_3(8)
&lt;7&gt;[0.03476]</title>
<ellipse fill="none" stroke="black" cx="367.81" cy="-750.05" rx="65.52" ry="26.74"/>
<text text-anchor="middle" x="367.81" y="-753.85" font-family="Times,serif" font-size="14.00">Canola_3(8)</text>
<text text-anchor="middle" x="367.81" y="-738.85" font-family="Times,serif" font-size="14.00">&lt;7&gt;[0.03476]</text>
</g>
<!-- Canola_3(8)
&lt;7&gt;[0.03476]&#45;&gt;Channel(5)
&lt;31&gt;[0.03] -->
<g id="edge8" class="edge">
<title>Canola_3(8)
&lt;7&gt;[0.03476]&#45;&gt;Channel(5)
&lt;31&gt;[0.03]</title>
<path fill="none" stroke="black" d="M367.81,-722.89C367.81,-688.27 367.81,-625.34 367.81,-571.57 367.81,-571.57 367.81,-571.57 367.81,-300.35 367.81,-248.28 349.25,-220.81 386.81,-184.74 417.78,-155 694.01,-134.64 823.44,-126.65"/>
<polygon fill="black" stroke="black" points="823.85,-130.13 833.62,-126.03 823.43,-123.14 823.85,-130.13"/>
</g>
<!-- Canola_4(9)
&lt;8&gt;[0.09213] -->
<g id="node10" class="node">
<title>Canola_4(9)
&lt;8&gt;[0.09213]</title>
<ellipse fill="none" stroke="black" cx="461.81" cy="-211.61" rx="65.52" ry="26.74"/>
<text text-anchor="middle" x="461.81" y="-215.41" font-family="Times,serif" font-size="14.00">Canola_4(9)</text>
<text text-anchor="middle" x="461.81" y="-200.41" font-family="Times,serif" font-size="14.00">&lt;8&gt;[0.09213]</text>
</g>
<!-- Canola_4(9)
&lt;8&gt;[0.09213]&#45;&gt;Channel(5)
&lt;31&gt;[0.03] -->
<g id="edge9" class="edge">
<title>Canola_4(9)
&lt;8&gt;[0.09213]&#45;&gt;Channel(5)
&lt;31&gt;[0.03]</title>
<path fill="none" stroke="black" d="M511.01,-193.53C521.12,-190.35 531.76,-187.25 541.81,-184.74 639.71,-160.33 755.4,-141.76 825.65,-131.59"/>
<polygon fill="black" stroke="black" points="826.27,-135.03 835.67,-130.15 825.28,-128.11 826.27,-135.03"/>
</g>
<!-- Canola_5(10)
&lt;9&gt;[0.01933] -->
<g id="node11" class="node">
<title>Canola_5(10)
&lt;9&gt;[0.01933]</title>
<ellipse fill="none" stroke="black" cx="499.81" cy="-301.35" rx="65.52" ry="26.74"/>
<text text-anchor="middle" x="499.81" y="-305.15" font-family="Times,serif" font-size="14.00">Canola_5(10)</text>
<text text-anchor="middle" x="499.81" y="-290.15" font-family="Times,serif" font-size="14.00">&lt;9&gt;[0.01933]</text>
</g>
<!-- Canola_5(10)
&lt;9&gt;[0.01933]&#45;&gt;Channel(5)
&lt;31&gt;[0.03] -->
<g id="edge10" class="edge">
<title>Canola_5(10)
&lt;9&gt;[0.01933]&#45;&gt;Channel(5)
&lt;31&gt;[0.03]</title>
<path fill="none" stroke="black" d="M515.74,-275.26C536.39,-243.07 570.84,-190.64 579.81,-184.74 619.32,-158.79 746.03,-139.75 824.69,-130.07"/>
<polygon fill="black" stroke="black" points="825.48,-133.5 834.98,-128.82 824.63,-126.55 825.48,-133.5"/>
</g>
<!-- Fall_rye_1(11)
&lt;10&gt;[0.2311] -->
<g id="node12" class="node">
<title>Fall_rye_1(11)
&lt;10&gt;[0.2311]</title>
<ellipse fill="none" stroke="black" cx="534.81" cy="-391.09" rx="69.09" ry="26.74"/>
<text text-anchor="middle" x="534.81" y="-394.89" font-family="Times,serif" font-size="14.00">Fall_rye_1(11)</text>
<text text-anchor="middle" x="534.81" y="-379.89" font-family="Times,serif" font-size="14.00">&lt;10&gt;[0.2311]</text>
</g>
<!-- Fall_rye_1(11)
&lt;10&gt;[0.2311]&#45;&gt;Channel(5)
&lt;31&gt;[0.03] -->
<g id="edge11" class="edge">
<title>Fall_rye_1(11)
&lt;10&gt;[0.2311]&#45;&gt;Channel(5)
&lt;31&gt;[0.03]</title>
<path fill="none" stroke="black" d="M553.25,-365.14C560.7,-354.21 568.91,-340.99 574.81,-328.22 602.72,-267.78 569.18,-230.2 617.81,-184.74 647.36,-157.12 754.15,-139.2 824.8,-130.09"/>
<polygon fill="black" stroke="black" points="825.47,-133.53 834.95,-128.8 824.59,-126.59 825.47,-133.53"/>
</g>
<!-- Forage_1(12)
&lt;11&gt;[0.02447] -->
<g id="node13" class="node">
<title>Forage_1(12)
&lt;11&gt;[0.02447]</title>
<ellipse fill="none" stroke="black" cx="570.81" cy="-480.83" rx="70.92" ry="26.74"/>
<text text-anchor="middle" x="570.81" y="-484.63" font-family="Times,serif" font-size="14.00">Forage_1(12)</text>
<text text-anchor="middle" x="570.81" y="-469.63" font-family="Times,serif" font-size="14.00">&lt;11&gt;[0.02447]</text>
</g>
<!-- Forage_1(12)
&lt;11&gt;[0.02447]&#45;&gt;Channel(5)
&lt;31&gt;[0.03] -->
<g id="edge12" class="edge">
<title>Forage_1(12)
&lt;11&gt;[0.02447]&#45;&gt;Channel(5)
&lt;31&gt;[0.03]</title>
<path fill="none" stroke="black" d="M591.14,-455.01C599.03,-444.21 607.44,-431.05 612.81,-417.96 652.82,-320.45 584.17,-262.05 655.81,-184.74 678.74,-160 764.96,-141.95 826.05,-131.94"/>
<polygon fill="black" stroke="black" points="826.69,-135.38 836.01,-130.34 825.58,-128.47 826.69,-135.38"/>
</g>
<!-- Forage_2(13)
&lt;12&gt;[0.03331] -->
<g id="node14" class="node">
<title>Forage_2(13)
&lt;12&gt;[0.03331]</title>
<ellipse fill="none" stroke="black" cx="608.81" cy="-570.57" rx="70.92" ry="26.74"/>
<text text-anchor="middle" x="608.81" y="-574.37" font-family="Times,serif" font-size="14.00">Forage_2(13)</text>
<text text-anchor="middle" x="608.81" y="-559.37" font-family="Times,serif" font-size="14.00">&lt;12&gt;[0.03331]</text>
</g>
<!-- Forage_2(13)
&lt;12&gt;[0.03331]&#45;&gt;Channel(5)
&lt;31&gt;[0.03] -->
<g id="edge13" class="edge">
<title>Forage_2(13)
&lt;12&gt;[0.03331]&#45;&gt;Channel(5)
&lt;31&gt;[0.03]</title>
<path fill="none" stroke="black" d="M629.27,-544.8C637.17,-534.01 645.57,-520.84 650.81,-507.7 670.11,-459.34 669.81,-444.16 669.81,-392.09 669.81,-392.09 669.81,-392.09 669.81,-300.35 669.81,-247.87 658.63,-223.67 693.81,-184.74 726.59,-148.47 780.43,-133.3 823.39,-127.03"/>
<polygon fill="black" stroke="black" points="824.05,-130.48 833.5,-125.69 823.13,-123.54 824.05,-130.48"/>
</g>
<!-- Forage_3(14)
&lt;13&gt;[0.02839] -->
<g id="node15" class="node">
<title>Forage_3(14)
&lt;13&gt;[0.02839]</title>
<ellipse fill="none" stroke="black" cx="646.81" cy="-660.31" rx="70.92" ry="26.74"/>
<text text-anchor="middle" x="646.81" y="-664.11" font-family="Times,serif" font-size="14.00">Forage_3(14)</text>
<text text-anchor="middle" x="646.81" y="-649.11" font-family="Times,serif" font-size="14.00">&lt;13&gt;[0.02839]</text>
</g>
<!-- Forage_3(14)
&lt;13&gt;[0.02839]&#45;&gt;Channel(5)
&lt;31&gt;[0.03] -->
<g id="edge14" class="edge">
<title>Forage_3(14)
&lt;13&gt;[0.02839]&#45;&gt;Channel(5)
&lt;31&gt;[0.03]</title>
<path fill="none" stroke="black" d="M667.27,-634.54C675.17,-623.75 683.57,-610.58 688.81,-597.44 708.11,-549.08 707.81,-533.9 707.81,-481.83 707.81,-481.83 707.81,-481.83 707.81,-300.35 707.81,-247.87 697.96,-224.84 731.81,-184.74 755.4,-156.79 793.28,-141.4 826.03,-132.96"/>
<polygon fill="black" stroke="black" points="827.1,-136.3 836.01,-130.56 825.46,-129.5 827.1,-136.3"/>
</g>
<!-- Grazing_1(15)
&lt;14&gt;[0.01607] -->
<g id="node16" class="node">
<title>Grazing_1(15)
&lt;14&gt;[0.01607]</title>
<ellipse fill="none" stroke="black" cx="745.81" cy="-750.05" rx="70.92" ry="26.74"/>
<text text-anchor="middle" x="745.81" y="-753.85" font-family="Times,serif" font-size="14.00">Grazing_1(15)</text>
<text text-anchor="middle" x="745.81" y="-738.85" font-family="Times,serif" font-size="14.00">&lt;14&gt;[0.01607]</text>
</g>
<!-- Grazing_1(15)
&lt;14&gt;[0.01607]&#45;&gt;Channel(5)
&lt;31&gt;[0.03] -->
<g id="edge15" class="edge">
<title>Grazing_1(15)
&lt;14&gt;[0.01607]&#45;&gt;Channel(5)
&lt;31&gt;[0.03]</title>
<path fill="none" stroke="black" d="M745.81,-722.89C745.81,-688.27 745.81,-625.34 745.81,-571.57 745.81,-571.57 745.81,-571.57 745.81,-300.35 745.81,-248.28 733.84,-226.6 764.81,-184.74 780.96,-162.92 806.94,-148.34 831.04,-138.85"/>
<polygon fill="black" stroke="black" points="832.36,-142.1 840.51,-135.34 829.92,-135.53 832.36,-142.1"/>
</g>
<!-- Grazing_2(16)
&lt;15&gt;[0.0207] -->
<g id="node17" class="node">
<title>Grazing_2(16)
&lt;15&gt;[0.0207]</title>
<ellipse fill="none" stroke="black" cx="841.81" cy="-211.61" rx="67.76" ry="26.74"/>
<text text-anchor="middle" x="841.81" y="-215.41" font-family="Times,serif" font-size="14.00">Grazing_2(16)</text>
<text text-anchor="middle" x="841.81" y="-200.41" font-family="Times,serif" font-size="14.00">&lt;15&gt;[0.0207]</text>
</g>
<!-- Grazing_2(16)
&lt;15&gt;[0.0207]&#45;&gt;Channel(5)
&lt;31&gt;[0.03] -->
<g id="edge16" class="edge">
<title>Grazing_2(16)
&lt;15&gt;[0.0207]&#45;&gt;Channel(5)
&lt;31&gt;[0.03]</title>
<path fill="none" stroke="black" d="M855.69,-185.23C860.47,-176.5 865.9,-166.58 871,-157.25"/>
<polygon fill="black" stroke="black" points="874.23,-158.64 875.96,-148.19 868.09,-155.28 874.23,-158.64"/>
</g>
<!-- Impervious(17)
&lt;16&gt;[0.008795] -->
<g id="node18" class="node">
<title>Impervious(17)
&lt;16&gt;[0.008795]</title>
<ellipse fill="none" stroke="black" cx="871.81" cy="-301.35" rx="75.82" ry="26.74"/>
<text text-anchor="middle" x="871.81" y="-305.15" font-family="Times,serif" font-size="14.00">Impervious(17)</text>
<text text-anchor="middle" x="871.81" y="-290.15" font-family="Times,serif" font-size="14.00">&lt;16&gt;[0.008795]</text>
</g>
<!-- Impervious(17)
&lt;16&gt;[0.008795]&#45;&gt;Channel(5)
&lt;31&gt;[0.03] -->
<g id="edge17" class="edge">
<title>Impervious(17)
&lt;16&gt;[0.008795]&#45;&gt;Channel(5)
&lt;31&gt;[0.03]</title>
<path fill="none" stroke="black" d="M896.36,-275.77C905.24,-265.21 914.2,-252.16 918.81,-238.48 926.43,-215.84 924,-208.05 918.81,-184.74 916.73,-175.39 913.07,-165.78 909.04,-157"/>
<polygon fill="black" stroke="black" points="912.11,-155.31 904.58,-147.86 905.82,-158.38 912.11,-155.31"/>
</g>
<!-- Oat_1(18)
&lt;17&gt;[0.09201] -->
<g id="node19" class="node">
<title>Oat_1(18)
&lt;17&gt;[0.09201]</title>
<ellipse fill="none" stroke="black" cx="914.81" cy="-391.09" rx="70.92" ry="26.74"/>
<text text-anchor="middle" x="914.81" y="-394.89" font-family="Times,serif" font-size="14.00">Oat_1(18)</text>
<text text-anchor="middle" x="914.81" y="-379.89" font-family="Times,serif" font-size="14.00">&lt;17&gt;[0.09201]</text>
</g>
<!-- Oat_1(18)
&lt;17&gt;[0.09201]&#45;&gt;Channel(5)
&lt;31&gt;[0.03] -->
<g id="edge18" class="edge">
<title>Oat_1(18)
&lt;17&gt;[0.09201]&#45;&gt;Channel(5)
&lt;31&gt;[0.03]</title>
<path fill="none" stroke="black" d="M936.56,-365.4C944.57,-354.73 952.69,-341.62 956.81,-328.22 963.83,-305.39 959.55,-298.21 956.81,-274.48 952.11,-233.79 953.06,-221.89 935.81,-184.74 931.02,-174.42 924.34,-164.14 917.56,-155"/>
<polygon fill="black" stroke="black" points="920.23,-152.73 911.35,-146.96 914.69,-157.01 920.23,-152.73"/>
</g>
<!-- Pasture_1(19)
&lt;18&gt;[0.1581] -->
<g id="node20" class="node">
<title>Pasture_1(19)
&lt;18&gt;[0.1581]</title>
<ellipse fill="none" stroke="black" cx="957.81" cy="-480.83" rx="65.52" ry="26.74"/>
<text text-anchor="middle" x="957.81" y="-484.63" font-family="Times,serif" font-size="14.00">Pasture_1(19)</text>
<text text-anchor="middle" x="957.81" y="-469.63" font-family="Times,serif" font-size="14.00">&lt;18&gt;[0.1581]</text>
</g>
<!-- Pasture_1(19)
&lt;18&gt;[0.1581]&#45;&gt;Channel(5)
&lt;31&gt;[0.03] -->
<g id="edge19" class="edge">
<title>Pasture_1(19)
&lt;18&gt;[0.1581]&#45;&gt;Channel(5)
&lt;31&gt;[0.03]</title>
<path fill="none" stroke="black" d="M976.81,-455.07C983.93,-444.28 991.18,-431.11 994.81,-417.96 1001.17,-394.94 997.17,-387.99 994.81,-364.22 986.77,-283.26 999.16,-255.39 958.81,-184.74 951.49,-171.92 940.56,-160.35 929.54,-150.77"/>
<polygon fill="black" stroke="black" points="931.49,-147.84 921.55,-144.16 927.02,-153.23 931.49,-147.84"/>
</g>
<!-- Pasture_2(20)
&lt;19&gt;[0.03697] -->
<g id="node21" class="node">
<title>Pasture_2(20)
&lt;19&gt;[0.03697]</title>
<ellipse fill="none" stroke="black" cx="990.81" cy="-570.57" rx="70.92" ry="26.74"/>
<text text-anchor="middle" x="990.81" y="-574.37" font-family="Times,serif" font-size="14.00">Pasture_2(20)</text>
<text text-anchor="middle" x="990.81" y="-559.37" font-family="Times,serif" font-size="14.00">&lt;19&gt;[0.03697]</text>
</g>
<!-- Pasture_2(20)
&lt;19&gt;[0.03697]&#45;&gt;Channel(5)
&lt;31&gt;[0.03] -->
<g id="edge20" class="edge">
<title>Pasture_2(20)
&lt;19&gt;[0.03697]&#45;&gt;Channel(5)
&lt;31&gt;[0.03]</title>
<path fill="none" stroke="black" d="M1011.27,-544.8C1019.17,-534.01 1027.57,-520.84 1032.81,-507.7 1052.11,-459.34 1051.81,-444.16 1051.81,-392.09 1051.81,-392.09 1051.81,-392.09 1051.81,-300.35 1051.81,-231.03 983.56,-176.93 935.66,-147.49"/>
<polygon fill="black" stroke="black" points="937.35,-144.42 926.98,-142.28 933.75,-150.43 937.35,-144.42"/>
</g>
<!-- Riparian_1(21)
&lt;20&gt;[0.09279] -->
<g id="node22" class="node">
<title>Riparian_1(21)
&lt;20&gt;[0.09279]</title>
<ellipse fill="none" stroke="black" cx="1028.81" cy="-660.31" rx="70.92" ry="26.74"/>
<text text-anchor="middle" x="1028.81" y="-664.11" font-family="Times,serif" font-size="14.00">Riparian_1(21)</text>
<text text-anchor="middle" x="1028.81" y="-649.11" font-family="Times,serif" font-size="14.00">&lt;20&gt;[0.09279]</text>
</g>
<!-- Riparian_1(21)
&lt;20&gt;[0.09279]&#45;&gt;Channel(5)
&lt;31&gt;[0.03] -->
<g id="edge21" class="edge">
<title>Riparian_1(21)
&lt;20&gt;[0.09279]&#45;&gt;Channel(5)
&lt;31&gt;[0.03]</title>
<path fill="none" stroke="black" d="M1049.27,-634.54C1057.17,-623.75 1065.57,-610.58 1070.81,-597.44 1090.11,-549.08 1089.81,-533.9 1089.81,-481.83 1089.81,-481.83 1089.81,-481.83 1089.81,-300.35 1089.81,-241.62 1068.94,-224.6 1025.81,-184.74 1018.93,-178.38 976.44,-159.47 940.76,-144.21"/>
<polygon fill="black" stroke="black" points="941.96,-140.92 931.39,-140.22 939.22,-147.36 941.96,-140.92"/>
</g>
<!-- Riparian_2(22)
&lt;21&gt;[0.03984] -->
<g id="node23" class="node">
<title>Riparian_2(22)
&lt;21&gt;[0.03984]</title>
<ellipse fill="none" stroke="black" cx="1127.81" cy="-750.05" rx="70.92" ry="26.74"/>
<text text-anchor="middle" x="1127.81" y="-753.85" font-family="Times,serif" font-size="14.00">Riparian_2(22)</text>
<text text-anchor="middle" x="1127.81" y="-738.85" font-family="Times,serif" font-size="14.00">&lt;21&gt;[0.03984]</text>
</g>
<!-- Riparian_2(22)
&lt;21&gt;[0.03984]&#45;&gt;Channel(5)
&lt;31&gt;[0.03] -->
<g id="edge22" class="edge">
<title>Riparian_2(22)
&lt;21&gt;[0.03984]&#45;&gt;Channel(5)
&lt;31&gt;[0.03]</title>
<path fill="none" stroke="black" d="M1127.81,-722.89C1127.81,-688.27 1127.81,-625.34 1127.81,-571.57 1127.81,-571.57 1127.81,-571.57 1127.81,-300.35 1127.81,-241.83 1109.74,-222.23 1064.81,-184.74 1025.64,-152.05 1003.8,-166.06 955.81,-148.74 951.27,-147.1 946.58,-145.36 941.88,-143.58"/>
<polygon fill="black" stroke="black" points="942.88,-140.22 932.29,-139.91 940.38,-146.76 942.88,-140.22"/>
</g>
<!-- Riparian_3(23)
&lt;22&gt;[0.0017] -->
<g id="node24" class="node">
<title>Riparian_3(23)
&lt;22&gt;[0.0017]</title>
<ellipse fill="none" stroke="black" cx="1225.81" cy="-211.61" rx="70.01" ry="26.74"/>
<text text-anchor="middle" x="1225.81" y="-215.41" font-family="Times,serif" font-size="14.00">Riparian_3(23)</text>
<text text-anchor="middle" x="1225.81" y="-200.41" font-family="Times,serif" font-size="14.00">&lt;22&gt;[0.0017]</text>
</g>
<!-- Riparian_3(23)
&lt;22&gt;[0.0017]&#45;&gt;Channel(5)
&lt;31&gt;[0.03] -->
<g id="edge23" class="edge">
<title>Riparian_3(23)
&lt;22&gt;[0.0017]&#45;&gt;Channel(5)
&lt;31&gt;[0.03]</title>
<path fill="none" stroke="black" d="M1173.63,-193.59C1163.15,-190.44 1152.17,-187.33 1141.81,-184.74 1060.12,-164.32 1036.68,-172.2 955.81,-148.74 950.84,-147.3 945.72,-145.63 940.64,-143.85"/>
<polygon fill="black" stroke="black" points="941.55,-140.46 930.96,-140.33 939.16,-147.04 941.55,-140.46"/>
</g>
<!-- Riparian_4(24)
&lt;23&gt;[0.4551] -->
<g id="node25" class="node">
<title>Riparian_4(24)
&lt;23&gt;[0.4551]</title>
<ellipse fill="none" stroke="black" cx="1263.81" cy="-301.35" rx="70.01" ry="26.74"/>
<text text-anchor="middle" x="1263.81" y="-305.15" font-family="Times,serif" font-size="14.00">Riparian_4(24)</text>
<text text-anchor="middle" x="1263.81" y="-290.15" font-family="Times,serif" font-size="14.00">&lt;23&gt;[0.4551]</text>
</g>
<!-- Riparian_4(24)
&lt;23&gt;[0.4551]&#45;&gt;Channel(5)
&lt;31&gt;[0.03] -->
<g id="edge24" class="edge">
<title>Riparian_4(24)
&lt;23&gt;[0.4551]&#45;&gt;Channel(5)
&lt;31&gt;[0.03]</title>
<path fill="none" stroke="black" d="M1285.68,-275.4C1305.36,-249.85 1327.92,-210.36 1304.81,-184.74 1252.59,-126.85 1031.58,-167.13 955.81,-148.74 950.58,-147.47 945.21,-145.88 939.9,-144.11"/>
<polygon fill="black" stroke="black" points="941.04,-140.8 930.45,-140.78 938.71,-147.41 941.04,-140.8"/>
</g>
<!-- Riparian_5(25)
&lt;24&gt;[0.09787] -->
<g id="node26" class="node">
<title>Riparian_5(25)
&lt;24&gt;[0.09787]</title>
<ellipse fill="none" stroke="black" cx="1300.81" cy="-391.09" rx="70.92" ry="26.74"/>
<text text-anchor="middle" x="1300.81" y="-394.89" font-family="Times,serif" font-size="14.00">Riparian_5(25)</text>
<text text-anchor="middle" x="1300.81" y="-379.89" font-family="Times,serif" font-size="14.00">&lt;24&gt;[0.09787]</text>
</g>
<!-- Riparian_5(25)
&lt;24&gt;[0.09787]&#45;&gt;Channel(5)
&lt;31&gt;[0.03] -->
<g id="edge25" class="edge">
<title>Riparian_5(25)
&lt;24&gt;[0.09787]&#45;&gt;Channel(5)
&lt;31&gt;[0.03]</title>
<path fill="none" stroke="black" d="M1322.56,-365.4C1330.57,-354.73 1338.69,-341.62 1342.81,-328.22 1361.73,-266.68 1371.02,-227.42 1322.81,-184.74 1261.45,-130.42 1035.49,-167.87 955.81,-148.74 950.58,-147.48 945.2,-145.9 939.89,-144.14"/>
<polygon fill="black" stroke="black" points="941.03,-140.83 930.44,-140.81 938.71,-147.43 941.03,-140.83"/>
</g>
<!-- Riparian_6(26)
&lt;25&gt;[0.02723] -->
<g id="node27" class="node">
<title>Riparian_6(26)
&lt;25&gt;[0.02723]</title>
<ellipse fill="none" stroke="black" cx="1338.81" cy="-480.83" rx="70.92" ry="26.74"/>
<text text-anchor="middle" x="1338.81" y="-484.63" font-family="Times,serif" font-size="14.00">Riparian_6(26)</text>
<text text-anchor="middle" x="1338.81" y="-469.63" font-family="Times,serif" font-size="14.00">&lt;25&gt;[0.02723]</text>
</g>
<!-- Riparian_6(26)
&lt;25&gt;[0.02723]&#45;&gt;Channel(5)
&lt;31&gt;[0.03] -->
<g id="edge26" class="edge">
<title>Riparian_6(26)
&lt;25&gt;[0.02723]&#45;&gt;Channel(5)
&lt;31&gt;[0.03]</title>
<path fill="none" stroke="black" d="M1360.56,-455.14C1368.57,-444.47 1376.69,-431.36 1380.81,-417.96 1401.33,-351.21 1381.14,-211.31 1352.81,-184.74 1288.19,-124.15 1042.02,-169.11 955.81,-148.74 950.57,-147.5 945.19,-145.93 939.88,-144.18"/>
<polygon fill="black" stroke="black" points="941.02,-140.87 930.43,-140.86 938.7,-147.47 941.02,-140.87"/>
</g>
<!-- Wheat_1(27)
&lt;26&gt;[0.1062] -->
<g id="node28" class="node">
<title>Wheat_1(27)
&lt;26&gt;[0.1062]</title>
<ellipse fill="none" stroke="black" cx="1381.81" cy="-570.57" rx="65.52" ry="26.74"/>
<text text-anchor="middle" x="1381.81" y="-574.37" font-family="Times,serif" font-size="14.00">Wheat_1(27)</text>
<text text-anchor="middle" x="1381.81" y="-559.37" font-family="Times,serif" font-size="14.00">&lt;26&gt;[0.1062]</text>
</g>
<!-- Wheat_1(27)
&lt;26&gt;[0.1062]&#45;&gt;Channel(5)
&lt;31&gt;[0.03] -->
<g id="edge27" class="edge">
<title>Wheat_1(27)
&lt;26&gt;[0.1062]&#45;&gt;Channel(5)
&lt;31&gt;[0.03]</title>
<path fill="none" stroke="black" d="M1399.76,-544.47C1406.72,-533.63 1414.12,-520.51 1418.81,-507.7 1436.71,-458.8 1437.81,-444.16 1437.81,-392.09 1437.81,-392.09 1437.81,-392.09 1437.81,-300.35 1437.81,-242.46 1425.96,-216.88 1377.81,-184.74 1299.53,-132.49 1047.47,-170.14 955.81,-148.74 950.49,-147.5 945.04,-145.91 939.65,-144.13"/>
<polygon fill="black" stroke="black" points="940.66,-140.78 930.07,-140.76 938.34,-147.38 940.66,-140.78"/>
</g>
<!-- Wheat_2(28)
&lt;27&gt;[0.1137] -->
<g id="node29" class="node">
<title>Wheat_2(28)
&lt;27&gt;[0.1137]</title>
<ellipse fill="none" stroke="black" cx="1419.81" cy="-660.31" rx="65.52" ry="26.74"/>
<text text-anchor="middle" x="1419.81" y="-664.11" font-family="Times,serif" font-size="14.00">Wheat_2(28)</text>
<text text-anchor="middle" x="1419.81" y="-649.11" font-family="Times,serif" font-size="14.00">&lt;27&gt;[0.1137]</text>
</g>
<!-- Wheat_2(28)
&lt;27&gt;[0.1137]&#45;&gt;Channel(5)
&lt;31&gt;[0.03] -->
<g id="edge28" class="edge">
<title>Wheat_2(28)
&lt;27&gt;[0.1137]&#45;&gt;Channel(5)
&lt;31&gt;[0.03]</title>
<path fill="none" stroke="black" d="M1437.76,-634.21C1444.72,-623.37 1452.12,-610.25 1456.81,-597.44 1474.71,-548.54 1475.81,-533.9 1475.81,-481.83 1475.81,-481.83 1475.81,-481.83 1475.81,-300.35 1475.81,-242.66 1464.8,-216.76 1416.81,-184.74 1331.34,-127.71 1055.96,-171.74 955.81,-148.74 950.49,-147.52 945.03,-145.94 939.64,-144.17"/>
<polygon fill="black" stroke="black" points="940.65,-140.82 930.05,-140.81 938.33,-147.42 940.65,-140.82"/>
</g>
<!-- Wheat_3(29)
&lt;28&gt;[0.2531] -->
<g id="node30" class="node">
<title>Wheat_3(29)
&lt;28&gt;[0.2531]</title>
<ellipse fill="none" stroke="black" cx="1513.81" cy="-750.05" rx="65.52" ry="26.74"/>
<text text-anchor="middle" x="1513.81" y="-753.85" font-family="Times,serif" font-size="14.00">Wheat_3(29)</text>
<text text-anchor="middle" x="1513.81" y="-738.85" font-family="Times,serif" font-size="14.00">&lt;28&gt;[0.2531]</text>
</g>
<!-- Wheat_3(29)
&lt;28&gt;[0.2531]&#45;&gt;Channel(5)
&lt;31&gt;[0.03] -->
<g id="edge29" class="edge">
<title>Wheat_3(29)
&lt;28&gt;[0.2531]&#45;&gt;Channel(5)
&lt;31&gt;[0.03]</title>
<path fill="none" stroke="black" d="M1513.81,-722.89C1513.81,-688.27 1513.81,-625.34 1513.81,-571.57 1513.81,-571.57 1513.81,-571.57 1513.81,-300.35 1513.81,-242.66 1502.89,-216.62 1454.81,-184.74 1362.15,-123.3 1064.24,-173.31 955.81,-148.74 950.48,-147.53 945.02,-145.97 939.63,-144.2"/>
<polygon fill="black" stroke="black" points="940.64,-140.85 930.05,-140.85 938.33,-147.46 940.64,-140.85"/>
</g>
<!-- Wheat_4(30)
&lt;29&gt;[0.07552] -->
<g id="node31" class="node">
<title>Wheat_4(30)
&lt;29&gt;[0.07552]</title>
<ellipse fill="none" stroke="black" cx="1612.81" cy="-211.61" rx="70.92" ry="26.74"/>
<text text-anchor="middle" x="1612.81" y="-215.41" font-family="Times,serif" font-size="14.00">Wheat_4(30)</text>
<text text-anchor="middle" x="1612.81" y="-200.41" font-family="Times,serif" font-size="14.00">&lt;29&gt;[0.07552]</text>
</g>
<!-- Wheat_4(30)
&lt;29&gt;[0.07552]&#45;&gt;Channel(5)
&lt;31&gt;[0.03] -->
<g id="edge30" class="edge">
<title>Wheat_4(30)
&lt;29&gt;[0.07552]&#45;&gt;Channel(5)
&lt;31&gt;[0.03]</title>
<path fill="none" stroke="black" d="M1561.59,-192.93C1550.56,-189.71 1538.89,-186.75 1527.81,-184.74 1277.16,-139.35 1204.5,-203.88 955.81,-148.74 950.48,-147.56 945.01,-146.01 939.62,-144.25"/>
<polygon fill="black" stroke="black" points="940.63,-140.9 930.03,-140.91 938.32,-147.51 940.63,-140.9"/>
</g>
<!-- Winter_Wheat_1(31)
&lt;30&gt;[0.27] -->
<g id="node32" class="node">
<title>Winter_Wheat_1(31)
&lt;30&gt;[0.27]</title>
<ellipse fill="none" stroke="black" cx="1711.81" cy="-301.35" rx="94.09" ry="26.74"/>
<text text-anchor="middle" x="1711.81" y="-305.15" font-family="Times,serif" font-size="14.00">Winter_Wheat_1(31)</text>
<text text-anchor="middle" x="1711.81" y="-290.15" font-family="Times,serif" font-size="14.00">&lt;30&gt;[0.27]</text>
</g>
<!-- Winter_Wheat_1(31)
&lt;30&gt;[0.27]&#45;&gt;Channel(5)
&lt;31&gt;[0.03] -->
<g id="edge31" class="edge">
<title>Winter_Wheat_1(31)
&lt;30&gt;[0.27]&#45;&gt;Channel(5)
&lt;31&gt;[0.03]</title>
<path fill="none" stroke="black" d="M1715.91,-274.4C1718.49,-247.64 1717.55,-206.81 1692.81,-184.74 1631.63,-130.17 1035.98,-165.93 955.81,-148.74 950.47,-147.6 945,-146.07 939.6,-144.33"/>
<polygon fill="black" stroke="black" points="940.61,-140.97 930.01,-141 938.31,-147.59 940.61,-140.97"/>
</g>
<!-- Reservoir(32)
&lt;32&gt;[0.03] -->
<g id="node33" class="node">
<title>Reservoir(32)
&lt;32&gt;[0.03]</title>
<ellipse fill="none" stroke="black" cx="1029.81" cy="-121.87" rx="65.11" ry="26.74"/>
<text text-anchor="middle" x="1029.81" y="-125.67" font-family="Times,serif" font-size="14.00">Reservoir(32)</text>
<text text-anchor="middle" x="1029.81" y="-110.67" font-family="Times,serif" font-size="14.00">&lt;32&gt;[0.03]</text>
</g>
<!-- Reservoir(32)
&lt;32&gt;[0.03]&#45;&gt;basin -->
<g id="edge32" class="edge">
<title>Reservoir(32)
&lt;32&gt;[0.03]&#45;&gt;basin</title>
<path fill="none" stroke="black" d="M1008.05,-96.35C999.05,-86.21 988.69,-74.54 979.88,-64.61"/>
<polygon fill="black" stroke="black" points="982.46,-62.25 973.21,-57.09 977.23,-66.9 982.46,-62.25"/>
</g>
</g>
</svg>
