<?xml version="1.0" encoding="UTF-8" standalone="no"?>
<!DOCTYPE svg PUBLIC "-//W3C//DTD SVG 1.1//EN"
 "http://www.w3.org/Graphics/SVG/1.1/DTD/svg11.dtd">
<!-- Generated by graphviz version 2.43.0 (0)
 -->
<!-- Title: TEST Pages: 1 -->
<svg width="951pt" height="426pt"
 viewBox="0.00 0.00 951.26 425.96" xmlns="http://www.w3.org/2000/svg" xmlns:xlink="http://www.w3.org/1999/xlink">
<g id="graph0" class="graph" transform="scale(1 1) rotate(0) translate(4 421.96)">
<title>TEST</title>
<polygon fill="white" stroke="transparent" points="-4,4 -4,-421.96 947.26,-421.96 947.26,4 -4,4"/>
<text text-anchor="middle" x="471.63" y="-7.8" font-family="Times,serif" font-size="14.00">A_final_final_Madill_parameter_test_base_case_cal_new_excellent_2006_2007_old_setting_new_1_GrpA</text>
<!-- Riparian_1(1)
[0.3837] -->
<g id="node1" class="node">
<title>Riparian_1(1)
[0.3837]</title>
<ellipse fill="none" stroke="black" cx="538.4" cy="-301.35" rx="65.11" ry="26.74"/>
<text text-anchor="middle" x="538.4" y="-305.15" font-family="Times,serif" font-size="14.00">Riparian_1(1)</text>
<text text-anchor="middle" x="538.4" y="-290.15" font-family="Times,serif" font-size="14.00">[0.3837]</text>
</g>
<!-- Channel(7)
[0.001] -->
<g id="node2" class="node">
<title>Channel(7)
[0.001]</title>
<ellipse fill="none" stroke="black" cx="333.4" cy="-211.61" rx="54.39" ry="26.74"/>
<text text-anchor="middle" x="333.4" y="-215.41" font-family="Times,serif" font-size="14.00">Channel(7)</text>
<text text-anchor="middle" x="333.4" y="-200.41" font-family="Times,serif" font-size="14.00">[0.001]</text>
</g>
<!-- Riparian_1(1)
[0.3837]&#45;&gt;Channel(7)
[0.001] -->
<g id="edge1" class="edge">
<title>Riparian_1(1)
[0.3837]&#45;&gt;Channel(7)
[0.001]</title>
<path fill="none" stroke="black" d="M494.42,-281.53C461.73,-267.54 417.09,-248.43 383.11,-233.89"/>
<polygon fill="black" stroke="black" points="384.39,-230.63 373.82,-229.91 381.64,-237.06 384.39,-230.63"/>
</g>
<!-- Reservoir(5)
[0.035] -->
<g id="node3" class="node">
<title>Reservoir(5)
[0.035]</title>
<ellipse fill="none" stroke="black" cx="333.4" cy="-121.87" rx="60.21" ry="26.74"/>
<text text-anchor="middle" x="333.4" y="-125.67" font-family="Times,serif" font-size="14.00">Reservoir(5)</text>
<text text-anchor="middle" x="333.4" y="-110.67" font-family="Times,serif" font-size="14.00">[0.035]</text>
</g>
<!-- Channel(7)
[0.001]&#45;&gt;Reservoir(5)
[0.035] -->
<g id="edge2" class="edge">
<title>Channel(7)
[0.001]&#45;&gt;Reservoir(5)
[0.035]</title>
<path fill="none" stroke="black" d="M333.4,-184.29C333.4,-176.32 333.4,-167.43 333.4,-158.94"/>
<polygon fill="black" stroke="black" points="336.9,-158.87 333.4,-148.87 329.9,-158.87 336.9,-158.87"/>
</g>
<!-- basin -->
<g id="node8" class="node">
<title>basin</title>
<ellipse fill="none" stroke="black" cx="333.4" cy="-41" rx="29.5" ry="18"/>
<text text-anchor="middle" x="333.4" y="-37.3" font-family="Times,serif" font-size="14.00">basin</text>
</g>
<!-- Reservoir(5)
[0.035]&#45;&gt;basin -->
<g id="edge7" class="edge">
<title>Reservoir(5)
[0.035]&#45;&gt;basin</title>
<path fill="none" stroke="black" d="M333.4,-94.61C333.4,-86.51 333.4,-77.57 333.4,-69.39"/>
<polygon fill="black" stroke="black" points="336.9,-69.22 333.4,-59.22 329.9,-69.22 336.9,-69.22"/>
</g>
<!-- Riparian_2(2)
[0.2095] -->
<g id="node4" class="node">
<title>Riparian_2(2)
[0.2095]</title>
<ellipse fill="none" stroke="black" cx="196.4" cy="-301.35" rx="65.11" ry="26.74"/>
<text text-anchor="middle" x="196.4" y="-305.15" font-family="Times,serif" font-size="14.00">Riparian_2(2)</text>
<text text-anchor="middle" x="196.4" y="-290.15" font-family="Times,serif" font-size="14.00">[0.2095]</text>
</g>
<!-- Riparian_2(2)
[0.2095]&#45;&gt;Channel(7)
[0.001] -->
<g id="edge3" class="edge">
<title>Riparian_2(2)
[0.2095]&#45;&gt;Channel(7)
[0.001]</title>
<path fill="none" stroke="black" d="M230.61,-278.44C249.39,-266.41 272.8,-251.42 292.54,-238.78"/>
<polygon fill="black" stroke="black" points="294.49,-241.68 301.03,-233.34 290.72,-235.79 294.49,-241.68"/>
</g>
<!-- Canola_1(3)
[0.3612] -->
<g id="node5" class="node">
<title>Canola_1(3)
[0.3612]</title>
<ellipse fill="none" stroke="black" cx="333.4" cy="-391.09" rx="59.29" ry="26.74"/>
<text text-anchor="middle" x="333.4" y="-394.89" font-family="Times,serif" font-size="14.00">Canola_1(3)</text>
<text text-anchor="middle" x="333.4" y="-379.89" font-family="Times,serif" font-size="14.00">[0.3612]</text>
</g>
<!-- Canola_1(3)
[0.3612]&#45;&gt;Riparian_1(1)
[0.3837] -->
<g id="edge4" class="edge">
<title>Canola_1(3)
[0.3612]&#45;&gt;Riparian_1(1)
[0.3837]</title>
<path fill="none" stroke="black" d="M375.87,-371.91C407.5,-358.38 450.89,-339.8 484.88,-325.25"/>
<polygon fill="black" stroke="black" points="486.39,-328.42 494.2,-321.26 483.63,-321.98 486.39,-328.42"/>
</g>
<!-- Canola_2(4)
[0.5029] -->
<g id="node6" class="node">
<title>Canola_2(4)
[0.5029]</title>
<ellipse fill="none" stroke="black" cx="59.4" cy="-391.09" rx="59.29" ry="26.74"/>
<text text-anchor="middle" x="59.4" y="-394.89" font-family="Times,serif" font-size="14.00">Canola_2(4)</text>
<text text-anchor="middle" x="59.4" y="-379.89" font-family="Times,serif" font-size="14.00">[0.5029]</text>
</g>
<!-- Canola_2(4)
[0.5029]&#45;&gt;Riparian_2(2)
[0.2095] -->
<g id="edge5" class="edge">
<title>Canola_2(4)
[0.5029]&#45;&gt;Riparian_2(2)
[0.2095]</title>
<path fill="none" stroke="black" d="M92.91,-368.63C111.13,-356.96 133.86,-342.4 153.37,-329.91"/>
<polygon fill="black" stroke="black" points="155.26,-332.85 161.8,-324.51 151.49,-326.95 155.26,-332.85"/>
</g>
<!-- Canola_3(6)
[0.1606] -->
<g id="node7" class="node">
<title>Canola_3(6)
[0.1606]</title>
<ellipse fill="none" stroke="black" cx="470.4" cy="-391.09" rx="59.29" ry="26.74"/>
<text text-anchor="middle" x="470.4" y="-394.89" font-family="Times,serif" font-size="14.00">Canola_3(6)</text>
<text text-anchor="middle" x="470.4" y="-379.89" font-family="Times,serif" font-size="14.00">[0.1606]</text>
</g>
<!-- Canola_3(6)
[0.1606]&#45;&gt;Riparian_1(1)
[0.3837] -->
<g id="edge6" class="edge">
<title>Canola_3(6)
[0.1606]&#45;&gt;Riparian_1(1)
[0.3837]</title>
<path fill="none" stroke="black" d="M489.7,-365.18C496.88,-355.92 505.14,-345.26 512.79,-335.39"/>
<polygon fill="black" stroke="black" points="515.69,-337.37 519.04,-327.32 510.15,-333.08 515.69,-337.37"/>
</g>
<!-- Canola_4(8)
[0.0761] -->
<g id="node9" class="node">
<title>Canola_4(8)
[0.0761]</title>
<ellipse fill="none" stroke="black" cx="607.4" cy="-391.09" rx="59.29" ry="26.74"/>
<text text-anchor="middle" x="607.4" y="-394.89" font-family="Times,serif" font-size="14.00">Canola_4(8)</text>
<text text-anchor="middle" x="607.4" y="-379.89" font-family="Times,serif" font-size="14.00">[0.0761]</text>
</g>
<!-- Canola_4(8)
[0.0761]&#45;&gt;Riparian_1(1)
[0.3837] -->
<g id="edge8" class="edge">
<title>Canola_4(8)
[0.0761]&#45;&gt;Riparian_1(1)
[0.3837]</title>
<path fill="none" stroke="black" d="M588.18,-365.65C580.75,-356.21 572.14,-345.26 564.19,-335.15"/>
<polygon fill="black" stroke="black" points="566.93,-332.97 557.99,-327.27 561.42,-337.29 566.93,-332.97"/>
</g>
<!-- Canola_5(9)
[0.1809] -->
<g id="node10" class="node">
<title>Canola_5(9)
[0.1809]</title>
<ellipse fill="none" stroke="black" cx="196.4" cy="-391.09" rx="59.29" ry="26.74"/>
<text text-anchor="middle" x="196.4" y="-394.89" font-family="Times,serif" font-size="14.00">Canola_5(9)</text>
<text text-anchor="middle" x="196.4" y="-379.89" font-family="Times,serif" font-size="14.00">[0.1809]</text>
</g>
<!-- Canola_5(9)
[0.1809]&#45;&gt;Riparian_2(2)
[0.2095] -->
<g id="edge9" class="edge">
<title>Canola_5(9)
[0.1809]&#45;&gt;Riparian_2(2)
[0.2095]</title>
<path fill="none" stroke="black" d="M196.4,-363.77C196.4,-355.8 196.4,-346.91 196.4,-338.42"/>
<polygon fill="black" stroke="black" points="199.9,-338.35 196.4,-328.35 192.9,-338.35 199.9,-338.35"/>
</g>
<!-- Canola_6(10)
[0.0431] -->
<g id="node11" class="node">
<title>Canola_6(10)
[0.0431]</title>
<ellipse fill="none" stroke="black" cx="749.4" cy="-391.09" rx="64.19" ry="26.74"/>
<text text-anchor="middle" x="749.4" y="-394.89" font-family="Times,serif" font-size="14.00">Canola_6(10)</text>
<text text-anchor="middle" x="749.4" y="-379.89" font-family="Times,serif" font-size="14.00">[0.0431]</text>
</g>
<!-- Canola_6(10)
[0.0431]&#45;&gt;Riparian_1(1)
[0.3837] -->
<g id="edge10" class="edge">
<title>Canola_6(10)
[0.0431]&#45;&gt;Riparian_1(1)
[0.3837]</title>
<path fill="none" stroke="black" d="M704.91,-371.59C672.19,-357.99 627.56,-339.43 592.73,-324.94"/>
<polygon fill="black" stroke="black" points="593.77,-321.58 583.19,-320.98 591.08,-328.05 593.77,-321.58"/>
</g>
<!-- Pasture(11)
[0.23] -->
<g id="node12" class="node">
<title>Pasture(11)
[0.23]</title>
<ellipse fill="none" stroke="black" cx="887.4" cy="-391.09" rx="55.72" ry="26.74"/>
<text text-anchor="middle" x="887.4" y="-394.89" font-family="Times,serif" font-size="14.00">Pasture(11)</text>
<text text-anchor="middle" x="887.4" y="-379.89" font-family="Times,serif" font-size="14.00">[0.23]</text>
</g>
<!-- Pasture(11)
[0.23]&#45;&gt;Riparian_1(1)
[0.3837] -->
<g id="edge11" class="edge">
<title>Pasture(11)
[0.23]&#45;&gt;Riparian_1(1)
[0.3837]</title>
<path fill="none" stroke="black" d="M846.5,-372.63C838.58,-369.59 830.3,-366.63 822.4,-364.22 750.47,-342.23 666.02,-324.88 608.02,-314.21"/>
<polygon fill="black" stroke="black" points="608.33,-310.71 597.87,-312.36 607.08,-317.6 608.33,-310.71"/>
</g>
</g>
</svg>
