<?xml version="1.0" encoding="UTF-8" standalone="no"?>
<!DOCTYPE svg PUBLIC "-//W3C//DTD SVG 1.1//EN"
 "http://www.w3.org/Graphics/SVG/1.1/DTD/svg11.dtd">
<!-- Generated by graphviz version 2.43.0 (0)
 -->
<!-- Title: TEST Pages: 1 -->
<svg width="2175pt" height="875pt"
 viewBox="0.00 0.00 2175.45 874.66" xmlns="http://www.w3.org/2000/svg" xmlns:xlink="http://www.w3.org/1999/xlink">
<g id="graph0" class="graph" transform="scale(1 1) rotate(0) translate(4 870.66)">
<title>TEST</title>
<polygon fill="white" stroke="transparent" points="-4,4 -4,-870.66 2171.45,-870.66 2171.45,4 -4,4"/>
<text text-anchor="middle" x="1083.73" y="-7.8" font-family="Times,serif" font-size="14.00">G_Central_GrpG</text>
<!-- Barley(1)
[0.1984] -->
<g id="node1" class="node">
<title>Barley(1)
[0.1984]</title>
<ellipse fill="none" stroke="black" cx="74.24" cy="-301.35" rx="48.17" ry="26.74"/>
<text text-anchor="middle" x="74.24" y="-305.15" font-family="Times,serif" font-size="14.00">Barley(1)</text>
<text text-anchor="middle" x="74.24" y="-290.15" font-family="Times,serif" font-size="14.00">[0.1984]</text>
</g>
<!-- Reservoir(29)
[0.07] -->
<g id="node2" class="node">
<title>Reservoir(29)
[0.07]</title>
<ellipse fill="none" stroke="black" cx="1058.24" cy="-211.61" rx="65.11" ry="26.74"/>
<text text-anchor="middle" x="1058.24" y="-215.41" font-family="Times,serif" font-size="14.00">Reservoir(29)</text>
<text text-anchor="middle" x="1058.24" y="-200.41" font-family="Times,serif" font-size="14.00">[0.07]</text>
</g>
<!-- Barley(1)
[0.1984]&#45;&gt;Reservoir(29)
[0.07] -->
<g id="edge1" class="edge">
<title>Barley(1)
[0.1984]&#45;&gt;Reservoir(29)
[0.07]</title>
<path fill="none" stroke="black" d="M109.96,-283.11C118.4,-279.7 127.5,-276.54 136.24,-274.48 296.58,-236.74 792.92,-219.74 983.06,-214.49"/>
<polygon fill="black" stroke="black" points="983.34,-217.98 993.24,-214.21 983.15,-210.98 983.34,-217.98"/>
</g>
<!-- Channel(19)
[0.01] -->
<g id="node3" class="node">
<title>Channel(19)
[0.01]</title>
<ellipse fill="none" stroke="black" cx="1058.24" cy="-121.87" rx="59.29" ry="26.74"/>
<text text-anchor="middle" x="1058.24" y="-125.67" font-family="Times,serif" font-size="14.00">Channel(19)</text>
<text text-anchor="middle" x="1058.24" y="-110.67" font-family="Times,serif" font-size="14.00">[0.01]</text>
</g>
<!-- Reservoir(29)
[0.07]&#45;&gt;Channel(19)
[0.01] -->
<g id="edge2" class="edge">
<title>Reservoir(29)
[0.07]&#45;&gt;Channel(19)
[0.01]</title>
<path fill="none" stroke="black" d="M1052.02,-184.76C1051.52,-176.71 1051.37,-167.68 1051.58,-159.06"/>
<polygon fill="black" stroke="black" points="1055.09,-158.98 1052.01,-148.84 1048.09,-158.68 1055.09,-158.98"/>
</g>
<!-- Channel(19)
[0.01]&#45;&gt;Reservoir(29)
[0.07] -->
<g id="edge3" class="edge">
<title>Channel(19)
[0.01]&#45;&gt;Reservoir(29)
[0.07]</title>
<path fill="none" stroke="black" d="M1064.46,-148.84C1064.96,-156.9 1065.11,-165.93 1064.89,-174.55"/>
<polygon fill="black" stroke="black" points="1061.39,-174.62 1064.45,-184.76 1068.38,-174.92 1061.39,-174.62"/>
</g>
<!-- basin -->
<g id="node4" class="node">
<title>basin</title>
<ellipse fill="none" stroke="black" cx="1200.24" cy="-41" rx="29.5" ry="18"/>
<text text-anchor="middle" x="1200.24" y="-37.3" font-family="Times,serif" font-size="14.00">basin</text>
</g>
<!-- Channel(19)
[0.01]&#45;&gt;basin -->
<g id="edge4" class="edge">
<title>Channel(19)
[0.01]&#45;&gt;basin</title>
<path fill="none" stroke="black" d="M1094.81,-100.56C1118.25,-87.54 1148.29,-70.85 1170.31,-58.62"/>
<polygon fill="black" stroke="black" points="1172.17,-61.59 1179.21,-53.68 1168.77,-55.47 1172.17,-61.59"/>
</g>
<!-- Canola_(TWN_east)(2)
[0.06047] -->
<g id="node5" class="node">
<title>Canola_(TWN_east)(2)
[0.06047]</title>
<ellipse fill="none" stroke="black" cx="103.24" cy="-391.09" rx="103.48" ry="26.74"/>
<text text-anchor="middle" x="103.24" y="-394.89" font-family="Times,serif" font-size="14.00">Canola_(TWN_east)(2)</text>
<text text-anchor="middle" x="103.24" y="-379.89" font-family="Times,serif" font-size="14.00">[0.06047]</text>
</g>
<!-- Canola_(TWN_east)(2)
[0.06047]&#45;&gt;Reservoir(29)
[0.07] -->
<g id="edge5" class="edge">
<title>Canola_(TWN_east)(2)
[0.06047]&#45;&gt;Reservoir(29)
[0.07]</title>
<path fill="none" stroke="black" d="M120.45,-364.54C140.7,-336.88 177.08,-294.09 220.24,-274.48 288.74,-243.35 791.08,-222.21 983.52,-215.18"/>
<polygon fill="black" stroke="black" points="983.68,-218.68 993.54,-214.82 983.42,-211.68 983.68,-218.68"/>
</g>
<!-- Canola_(twn_west)(3)
[0.04057] -->
<g id="node6" class="node">
<title>Canola_(twn_west)(3)
[0.04057]</title>
<ellipse fill="none" stroke="black" cx="146.24" cy="-480.83" rx="97.66" ry="26.74"/>
<text text-anchor="middle" x="146.24" y="-484.63" font-family="Times,serif" font-size="14.00">Canola_(twn_west)(3)</text>
<text text-anchor="middle" x="146.24" y="-469.63" font-family="Times,serif" font-size="14.00">[0.04057]</text>
</g>
<!-- Canola_(twn_west)(3)
[0.04057]&#45;&gt;Reservoir(29)
[0.07] -->
<g id="edge6" class="edge">
<title>Canola_(twn_west)(3)
[0.04057]&#45;&gt;Reservoir(29)
[0.07]</title>
<path fill="none" stroke="black" d="M180.49,-455.54C192.95,-445.2 206.19,-432.22 215.24,-417.96 250.91,-361.75 206.41,-316.26 258.24,-274.48 313.92,-229.6 795.01,-216.91 983.21,-213.65"/>
<polygon fill="black" stroke="black" points="983.36,-217.15 993.3,-213.48 983.24,-210.15 983.36,-217.15"/>
</g>
<!-- Canola_1(4)
[0.1255] -->
<g id="node7" class="node">
<title>Canola_1(4)
[0.1255]</title>
<ellipse fill="none" stroke="black" cx="223.24" cy="-570.57" rx="59.29" ry="26.74"/>
<text text-anchor="middle" x="223.24" y="-574.37" font-family="Times,serif" font-size="14.00">Canola_1(4)</text>
<text text-anchor="middle" x="223.24" y="-559.37" font-family="Times,serif" font-size="14.00">[0.1255]</text>
</g>
<!-- Canola_1(4)
[0.1255]&#45;&gt;Reservoir(29)
[0.07] -->
<g id="edge7" class="edge">
<title>Canola_1(4)
[0.1255]&#45;&gt;Reservoir(29)
[0.07]</title>
<path fill="none" stroke="black" d="M237.39,-544.33C243.03,-533.36 249.15,-520.18 253.24,-507.7 286.08,-407.55 218.03,-345.14 296.24,-274.48 346.5,-229.07 801.15,-216.74 983.28,-213.61"/>
<polygon fill="black" stroke="black" points="983.38,-217.11 993.32,-213.44 983.26,-210.11 983.38,-217.11"/>
</g>
<!-- Canola_11(6)
[0.2163] -->
<g id="node8" class="node">
<title>Canola_11(6)
[0.2163]</title>
<ellipse fill="none" stroke="black" cx="256.24" cy="-660.31" rx="64.19" ry="26.74"/>
<text text-anchor="middle" x="256.24" y="-664.11" font-family="Times,serif" font-size="14.00">Canola_11(6)</text>
<text text-anchor="middle" x="256.24" y="-649.11" font-family="Times,serif" font-size="14.00">[0.2163]</text>
</g>
<!-- Canola_11(6)
[0.2163]&#45;&gt;Reservoir(29)
[0.07] -->
<g id="edge8" class="edge">
<title>Canola_11(6)
[0.2163]&#45;&gt;Reservoir(29)
[0.07]</title>
<path fill="none" stroke="black" d="M273.18,-634.09C279.76,-623.23 286.77,-610.13 291.24,-597.44 308.55,-548.33 310.24,-533.9 310.24,-481.83 310.24,-481.83 310.24,-481.83 310.24,-390.09 310.24,-337.61 294.98,-309.31 334.24,-274.48 382.03,-232.08 807.59,-218.04 983.08,-214.03"/>
<polygon fill="black" stroke="black" points="983.35,-217.52 993.27,-213.8 983.19,-210.53 983.35,-217.52"/>
</g>
<!-- Canola_12(7)
[0.1266] -->
<g id="node9" class="node">
<title>Canola_12(7)
[0.1266]</title>
<ellipse fill="none" stroke="black" cx="294.24" cy="-750.05" rx="64.19" ry="26.74"/>
<text text-anchor="middle" x="294.24" y="-753.85" font-family="Times,serif" font-size="14.00">Canola_12(7)</text>
<text text-anchor="middle" x="294.24" y="-738.85" font-family="Times,serif" font-size="14.00">[0.1266]</text>
</g>
<!-- Canola_12(7)
[0.1266]&#45;&gt;Reservoir(29)
[0.07] -->
<g id="edge9" class="edge">
<title>Canola_12(7)
[0.1266]&#45;&gt;Reservoir(29)
[0.07]</title>
<path fill="none" stroke="black" d="M311.18,-723.83C317.76,-712.97 324.77,-699.87 329.24,-687.18 346.55,-638.07 348.24,-623.64 348.24,-571.57 348.24,-571.57 348.24,-571.57 348.24,-390.09 348.24,-337.61 333.06,-309.4 372.24,-274.48 417.12,-234.47 814.97,-219.14 983.42,-214.4"/>
<polygon fill="black" stroke="black" points="983.55,-217.9 993.45,-214.13 983.35,-210.9 983.55,-217.9"/>
</g>
<!-- Canola_13(8)
[0.1832] -->
<g id="node10" class="node">
<title>Canola_13(8)
[0.1832]</title>
<ellipse fill="none" stroke="black" cx="386.24" cy="-839.79" rx="64.19" ry="26.74"/>
<text text-anchor="middle" x="386.24" y="-843.59" font-family="Times,serif" font-size="14.00">Canola_13(8)</text>
<text text-anchor="middle" x="386.24" y="-828.59" font-family="Times,serif" font-size="14.00">[0.1832]</text>
</g>
<!-- Canola_13(8)
[0.1832]&#45;&gt;Reservoir(29)
[0.07] -->
<g id="edge10" class="edge">
<title>Canola_13(8)
[0.1832]&#45;&gt;Reservoir(29)
[0.07]</title>
<path fill="none" stroke="black" d="M386.24,-812.63C386.24,-778.01 386.24,-715.08 386.24,-661.31 386.24,-661.31 386.24,-661.31 386.24,-390.09 386.24,-338.02 367.18,-310.02 405.24,-274.48 446.75,-235.72 820.11,-219.8 982.91,-214.66"/>
<polygon fill="black" stroke="black" points="983.43,-218.14 993.32,-214.33 983.22,-211.15 983.43,-218.14"/>
</g>
<!-- Canola_14(9)
[0.1354] -->
<g id="node11" class="node">
<title>Canola_14(9)
[0.1354]</title>
<ellipse fill="none" stroke="black" cx="478.24" cy="-301.35" rx="64.19" ry="26.74"/>
<text text-anchor="middle" x="478.24" y="-305.15" font-family="Times,serif" font-size="14.00">Canola_14(9)</text>
<text text-anchor="middle" x="478.24" y="-290.15" font-family="Times,serif" font-size="14.00">[0.1354]</text>
</g>
<!-- Canola_14(9)
[0.1354]&#45;&gt;Reservoir(29)
[0.07] -->
<g id="edge11" class="edge">
<title>Canola_14(9)
[0.1354]&#45;&gt;Reservoir(29)
[0.07]</title>
<path fill="none" stroke="black" d="M525.67,-282.96C535.66,-279.77 546.22,-276.74 556.24,-274.48 706,-240.76 885.31,-224.25 983.98,-217.16"/>
<polygon fill="black" stroke="black" points="984.42,-220.64 994.15,-216.44 983.93,-213.65 984.42,-220.64"/>
</g>
<!-- Canola_15(10)
[0.007351] -->
<g id="node12" class="node">
<title>Canola_15(10)
[0.007351]</title>
<ellipse fill="none" stroke="black" cx="511.24" cy="-391.09" rx="69.09" ry="26.74"/>
<text text-anchor="middle" x="511.24" y="-394.89" font-family="Times,serif" font-size="14.00">Canola_15(10)</text>
<text text-anchor="middle" x="511.24" y="-379.89" font-family="Times,serif" font-size="14.00">[0.007351]</text>
</g>
<!-- Canola_15(10)
[0.007351]&#45;&gt;Reservoir(29)
[0.07] -->
<g id="edge12" class="edge">
<title>Canola_15(10)
[0.007351]&#45;&gt;Reservoir(29)
[0.07]</title>
<path fill="none" stroke="black" d="M527.76,-364.92C549.18,-332.62 584.91,-280.07 594.24,-274.48 658.25,-236.08 869.33,-220.93 983.44,-215.44"/>
<polygon fill="black" stroke="black" points="983.68,-218.93 993.5,-214.97 983.35,-211.94 983.68,-218.93"/>
</g>
<!-- Canola_2(11)
[0.1883] -->
<g id="node13" class="node">
<title>Canola_2(11)
[0.1883]</title>
<ellipse fill="none" stroke="black" cx="554.24" cy="-480.83" rx="64.19" ry="26.74"/>
<text text-anchor="middle" x="554.24" y="-484.63" font-family="Times,serif" font-size="14.00">Canola_2(11)</text>
<text text-anchor="middle" x="554.24" y="-469.63" font-family="Times,serif" font-size="14.00">[0.1883]</text>
</g>
<!-- Canola_2(11)
[0.1883]&#45;&gt;Reservoir(29)
[0.07] -->
<g id="edge13" class="edge">
<title>Canola_2(11)
[0.1883]&#45;&gt;Reservoir(29)
[0.07]</title>
<path fill="none" stroke="black" d="M570.21,-454.6C576.7,-443.63 583.91,-430.45 589.24,-417.96 615.35,-356.72 581.84,-317.97 632.24,-274.48 683.42,-230.32 875.01,-217.67 983,-214.06"/>
<polygon fill="black" stroke="black" points="983.3,-217.55 993.18,-213.73 983.08,-210.55 983.3,-217.55"/>
</g>
<!-- Canola_3(12)
[0.0896] -->
<g id="node14" class="node">
<title>Canola_3(12)
[0.0896]</title>
<ellipse fill="none" stroke="black" cx="592.24" cy="-570.57" rx="64.19" ry="26.74"/>
<text text-anchor="middle" x="592.24" y="-574.37" font-family="Times,serif" font-size="14.00">Canola_3(12)</text>
<text text-anchor="middle" x="592.24" y="-559.37" font-family="Times,serif" font-size="14.00">[0.0896]</text>
</g>
<!-- Canola_3(12)
[0.0896]&#45;&gt;Reservoir(29)
[0.07] -->
<g id="edge14" class="edge">
<title>Canola_3(12)
[0.0896]&#45;&gt;Reservoir(29)
[0.07]</title>
<path fill="none" stroke="black" d="M608.88,-544.6C615.49,-533.68 622.6,-520.46 627.24,-507.7 663.24,-408.64 594.81,-348.1 670.24,-274.48 713.54,-232.22 883.16,-218.82 983.23,-214.57"/>
<polygon fill="black" stroke="black" points="983.43,-218.07 993.28,-214.17 983.15,-211.07 983.43,-218.07"/>
</g>
<!-- Canola_4(13)
[0.3968] -->
<g id="node15" class="node">
<title>Canola_4(13)
[0.3968]</title>
<ellipse fill="none" stroke="black" cx="630.24" cy="-660.31" rx="64.19" ry="26.74"/>
<text text-anchor="middle" x="630.24" y="-664.11" font-family="Times,serif" font-size="14.00">Canola_4(13)</text>
<text text-anchor="middle" x="630.24" y="-649.11" font-family="Times,serif" font-size="14.00">[0.3968]</text>
</g>
<!-- Canola_4(13)
[0.3968]&#45;&gt;Reservoir(29)
[0.07] -->
<g id="edge15" class="edge">
<title>Canola_4(13)
[0.3968]&#45;&gt;Reservoir(29)
[0.07]</title>
<path fill="none" stroke="black" d="M647.18,-634.09C653.76,-623.23 660.77,-610.13 665.24,-597.44 682.55,-548.33 684.24,-533.9 684.24,-481.83 684.24,-481.83 684.24,-481.83 684.24,-390.09 684.24,-337.61 670.58,-311.03 708.24,-274.48 746.5,-237.34 892.64,-222.15 983.54,-216.2"/>
<polygon fill="black" stroke="black" points="984.04,-219.67 993.8,-215.55 983.6,-212.69 984.04,-219.67"/>
</g>
<!-- Canola_5(14)
[0.1973] -->
<g id="node16" class="node">
<title>Canola_5(14)
[0.1973]</title>
<ellipse fill="none" stroke="black" cx="668.24" cy="-750.05" rx="64.19" ry="26.74"/>
<text text-anchor="middle" x="668.24" y="-753.85" font-family="Times,serif" font-size="14.00">Canola_5(14)</text>
<text text-anchor="middle" x="668.24" y="-738.85" font-family="Times,serif" font-size="14.00">[0.1973]</text>
</g>
<!-- Canola_5(14)
[0.1973]&#45;&gt;Reservoir(29)
[0.07] -->
<g id="edge16" class="edge">
<title>Canola_5(14)
[0.1973]&#45;&gt;Reservoir(29)
[0.07]</title>
<path fill="none" stroke="black" d="M685.18,-723.83C691.76,-712.97 698.77,-699.87 703.24,-687.18 720.55,-638.07 722.24,-623.64 722.24,-571.57 722.24,-571.57 722.24,-571.57 722.24,-390.09 722.24,-337.61 708.96,-311.42 746.24,-274.48 779.1,-241.91 902.64,-225.47 984.05,-218"/>
<polygon fill="black" stroke="black" points="984.61,-221.46 994.26,-217.09 983.99,-214.49 984.61,-221.46"/>
</g>
<!-- Canola_6(15)
[0.1907] -->
<g id="node17" class="node">
<title>Canola_6(15)
[0.1907]</title>
<ellipse fill="none" stroke="black" cx="760.24" cy="-839.79" rx="64.19" ry="26.74"/>
<text text-anchor="middle" x="760.24" y="-843.59" font-family="Times,serif" font-size="14.00">Canola_6(15)</text>
<text text-anchor="middle" x="760.24" y="-828.59" font-family="Times,serif" font-size="14.00">[0.1907]</text>
</g>
<!-- Canola_6(15)
[0.1907]&#45;&gt;Reservoir(29)
[0.07] -->
<g id="edge17" class="edge">
<title>Canola_6(15)
[0.1907]&#45;&gt;Reservoir(29)
[0.07]</title>
<path fill="none" stroke="black" d="M760.24,-812.63C760.24,-778.01 760.24,-715.08 760.24,-661.31 760.24,-661.31 760.24,-661.31 760.24,-390.09 760.24,-338.02 743.45,-312.3 779.24,-274.48 806.96,-245.18 912.02,-228.14 985,-219.61"/>
<polygon fill="black" stroke="black" points="985.53,-223.07 995.07,-218.46 984.74,-216.11 985.53,-223.07"/>
</g>
<!-- Canola_7(16)
[0.05269] -->
<g id="node18" class="node">
<title>Canola_7(16)
[0.05269]</title>
<ellipse fill="none" stroke="black" cx="852.24" cy="-301.35" rx="64.19" ry="26.74"/>
<text text-anchor="middle" x="852.24" y="-305.15" font-family="Times,serif" font-size="14.00">Canola_7(16)</text>
<text text-anchor="middle" x="852.24" y="-290.15" font-family="Times,serif" font-size="14.00">[0.05269]</text>
</g>
<!-- Canola_7(16)
[0.05269]&#45;&gt;Reservoir(29)
[0.07] -->
<g id="edge18" class="edge">
<title>Canola_7(16)
[0.05269]&#45;&gt;Reservoir(29)
[0.07]</title>
<path fill="none" stroke="black" d="M896.18,-281.64C927.93,-268.11 971,-249.77 1004.75,-235.39"/>
<polygon fill="black" stroke="black" points="1006.18,-238.59 1014.01,-231.45 1003.44,-232.15 1006.18,-238.59"/>
</g>
<!-- Canola_8(17)
[0.4031] -->
<g id="node19" class="node">
<title>Canola_8(17)
[0.4031]</title>
<ellipse fill="none" stroke="black" cx="890.24" cy="-391.09" rx="64.19" ry="26.74"/>
<text text-anchor="middle" x="890.24" y="-394.89" font-family="Times,serif" font-size="14.00">Canola_8(17)</text>
<text text-anchor="middle" x="890.24" y="-379.89" font-family="Times,serif" font-size="14.00">[0.4031]</text>
</g>
<!-- Canola_8(17)
[0.4031]&#45;&gt;Reservoir(29)
[0.07] -->
<g id="edge19" class="edge">
<title>Canola_8(17)
[0.4031]&#45;&gt;Reservoir(29)
[0.07]</title>
<path fill="none" stroke="black" d="M903.67,-364.65C917.61,-339.8 941.13,-301.82 968.24,-274.48 981.18,-261.42 997.23,-249.38 1012.18,-239.46"/>
<polygon fill="black" stroke="black" points="1014.33,-242.24 1020.82,-233.87 1010.52,-236.36 1014.33,-242.24"/>
</g>
<!-- Canola_9(18)
[0.07519] -->
<g id="node20" class="node">
<title>Canola_9(18)
[0.07519]</title>
<ellipse fill="none" stroke="black" cx="928.24" cy="-480.83" rx="64.19" ry="26.74"/>
<text text-anchor="middle" x="928.24" y="-484.63" font-family="Times,serif" font-size="14.00">Canola_9(18)</text>
<text text-anchor="middle" x="928.24" y="-469.63" font-family="Times,serif" font-size="14.00">[0.07519]</text>
</g>
<!-- Canola_9(18)
[0.07519]&#45;&gt;Reservoir(29)
[0.07] -->
<g id="edge20" class="edge">
<title>Canola_9(18)
[0.07519]&#45;&gt;Reservoir(29)
[0.07]</title>
<path fill="none" stroke="black" d="M944.21,-454.6C950.7,-443.63 957.91,-430.45 963.24,-417.96 989.35,-356.72 974.61,-333.06 1006.24,-274.48 1011.91,-263.98 1019.55,-253.62 1027.23,-244.47"/>
<polygon fill="black" stroke="black" points="1030.01,-246.61 1033.94,-236.78 1024.74,-242.01 1030.01,-246.61"/>
</g>
<!-- Forage_1(20)
[0.1046] -->
<g id="node21" class="node">
<title>Forage_1(20)
[0.1046]</title>
<ellipse fill="none" stroke="black" cx="966.24" cy="-570.57" rx="63.78" ry="26.74"/>
<text text-anchor="middle" x="966.24" y="-574.37" font-family="Times,serif" font-size="14.00">Forage_1(20)</text>
<text text-anchor="middle" x="966.24" y="-559.37" font-family="Times,serif" font-size="14.00">[0.1046]</text>
</g>
<!-- Forage_1(20)
[0.1046]&#45;&gt;Reservoir(29)
[0.07] -->
<g id="edge21" class="edge">
<title>Forage_1(20)
[0.1046]&#45;&gt;Reservoir(29)
[0.07]</title>
<path fill="none" stroke="black" d="M982.88,-544.6C989.49,-533.68 996.6,-520.46 1001.24,-507.7 1037.24,-408.64 1023.05,-377.73 1044.24,-274.48 1045.97,-266.04 1047.95,-256.99 1049.86,-248.48"/>
<polygon fill="black" stroke="black" points="1053.34,-248.98 1052.15,-238.45 1046.52,-247.42 1053.34,-248.98"/>
</g>
<!-- Forage_2(21)
[0.2142] -->
<g id="node22" class="node">
<title>Forage_2(21)
[0.2142]</title>
<ellipse fill="none" stroke="black" cx="1004.24" cy="-660.31" rx="63.78" ry="26.74"/>
<text text-anchor="middle" x="1004.24" y="-664.11" font-family="Times,serif" font-size="14.00">Forage_2(21)</text>
<text text-anchor="middle" x="1004.24" y="-649.11" font-family="Times,serif" font-size="14.00">[0.2142]</text>
</g>
<!-- Forage_2(21)
[0.2142]&#45;&gt;Reservoir(29)
[0.07] -->
<g id="edge22" class="edge">
<title>Forage_2(21)
[0.2142]&#45;&gt;Reservoir(29)
[0.07]</title>
<path fill="none" stroke="black" d="M1021,-634.39C1027.63,-623.47 1034.73,-610.24 1039.24,-597.44 1056.55,-548.33 1058.24,-533.9 1058.24,-481.83 1058.24,-481.83 1058.24,-481.83 1058.24,-390.09 1058.24,-341.36 1058.24,-285.11 1058.24,-249.22"/>
<polygon fill="black" stroke="black" points="1061.74,-248.77 1058.24,-238.77 1054.74,-248.77 1061.74,-248.77"/>
</g>
<!-- Forage_3(22)
[0.09283] -->
<g id="node23" class="node">
<title>Forage_3(22)
[0.09283]</title>
<ellipse fill="none" stroke="black" cx="1042.24" cy="-750.05" rx="63.78" ry="26.74"/>
<text text-anchor="middle" x="1042.24" y="-753.85" font-family="Times,serif" font-size="14.00">Forage_3(22)</text>
<text text-anchor="middle" x="1042.24" y="-738.85" font-family="Times,serif" font-size="14.00">[0.09283]</text>
</g>
<!-- Forage_3(22)
[0.09283]&#45;&gt;Reservoir(29)
[0.07] -->
<g id="edge23" class="edge">
<title>Forage_3(22)
[0.09283]&#45;&gt;Reservoir(29)
[0.07]</title>
<path fill="none" stroke="black" d="M1059,-724.13C1065.63,-713.21 1072.73,-699.98 1077.24,-687.18 1094.55,-638.07 1096.24,-623.64 1096.24,-571.57 1096.24,-571.57 1096.24,-571.57 1096.24,-390.09 1096.24,-340.04 1081.61,-283.78 1070.51,-248.28"/>
<polygon fill="black" stroke="black" points="1073.73,-246.86 1067.34,-238.4 1067.06,-248.99 1073.73,-246.86"/>
</g>
<!-- Forage_4(23)
[0.04132] -->
<g id="node24" class="node">
<title>Forage_4(23)
[0.04132]</title>
<ellipse fill="none" stroke="black" cx="1134.24" cy="-839.79" rx="63.78" ry="26.74"/>
<text text-anchor="middle" x="1134.24" y="-843.59" font-family="Times,serif" font-size="14.00">Forage_4(23)</text>
<text text-anchor="middle" x="1134.24" y="-828.59" font-family="Times,serif" font-size="14.00">[0.04132]</text>
</g>
<!-- Forage_4(23)
[0.04132]&#45;&gt;Reservoir(29)
[0.07] -->
<g id="edge24" class="edge">
<title>Forage_4(23)
[0.04132]&#45;&gt;Reservoir(29)
[0.07]</title>
<path fill="none" stroke="black" d="M1134.24,-812.63C1134.24,-778.01 1134.24,-715.08 1134.24,-661.31 1134.24,-661.31 1134.24,-661.31 1134.24,-390.09 1134.24,-336.55 1104.65,-280.73 1082.4,-246.32"/>
<polygon fill="black" stroke="black" points="1085.08,-244.02 1076.64,-237.62 1079.24,-247.89 1085.08,-244.02"/>
</g>
<!-- Forage_5(24)
[0.0574] -->
<g id="node25" class="node">
<title>Forage_5(24)
[0.0574]</title>
<ellipse fill="none" stroke="black" cx="1226.24" cy="-301.35" rx="63.78" ry="26.74"/>
<text text-anchor="middle" x="1226.24" y="-305.15" font-family="Times,serif" font-size="14.00">Forage_5(24)</text>
<text text-anchor="middle" x="1226.24" y="-290.15" font-family="Times,serif" font-size="14.00">[0.0574]</text>
</g>
<!-- Forage_5(24)
[0.0574]&#45;&gt;Reservoir(29)
[0.07] -->
<g id="edge25" class="edge">
<title>Forage_5(24)
[0.0574]&#45;&gt;Reservoir(29)
[0.07]</title>
<path fill="none" stroke="black" d="M1187.27,-280C1163.27,-267.47 1132.31,-251.3 1106.73,-237.94"/>
<polygon fill="black" stroke="black" points="1108.06,-234.68 1097.57,-233.15 1104.82,-240.89 1108.06,-234.68"/>
</g>
<!-- Impermeable(25)
[0.03251] -->
<g id="node26" class="node">
<title>Impermeable(25)
[0.03251]</title>
<ellipse fill="none" stroke="black" cx="1249.24" cy="-391.09" rx="79.39" ry="26.74"/>
<text text-anchor="middle" x="1249.24" y="-394.89" font-family="Times,serif" font-size="14.00">Impermeable(25)</text>
<text text-anchor="middle" x="1249.24" y="-379.89" font-family="Times,serif" font-size="14.00">[0.03251]</text>
</g>
<!-- Impermeable(25)
[0.03251]&#45;&gt;Reservoir(29)
[0.07] -->
<g id="edge26" class="edge">
<title>Impermeable(25)
[0.03251]&#45;&gt;Reservoir(29)
[0.07]</title>
<path fill="none" stroke="black" d="M1274.11,-365.17C1295.79,-340.38 1320.68,-302.13 1299.24,-274.48 1288.47,-260.6 1194.1,-239.38 1126.71,-225.75"/>
<polygon fill="black" stroke="black" points="1127.05,-222.25 1116.56,-223.72 1125.67,-229.12 1127.05,-222.25"/>
</g>
<!-- Oat_1(26)
[0.2384] -->
<g id="node27" class="node">
<title>Oat_1(26)
[0.2384]</title>
<ellipse fill="none" stroke="black" cx="1315.24" cy="-480.83" rx="50.82" ry="26.74"/>
<text text-anchor="middle" x="1315.24" y="-484.63" font-family="Times,serif" font-size="14.00">Oat_1(26)</text>
<text text-anchor="middle" x="1315.24" y="-469.63" font-family="Times,serif" font-size="14.00">[0.2384]</text>
</g>
<!-- Oat_1(26)
[0.2384]&#45;&gt;Reservoir(29)
[0.07] -->
<g id="edge27" class="edge">
<title>Oat_1(26)
[0.2384]&#45;&gt;Reservoir(29)
[0.07]</title>
<path fill="none" stroke="black" d="M1326.46,-454.47C1330.74,-443.48 1335.11,-430.32 1337.24,-417.96 1348.17,-354.57 1363.15,-320.53 1318.24,-274.48 1311.39,-267.46 1200.07,-242.7 1125.34,-226.71"/>
<polygon fill="black" stroke="black" points="1126.01,-223.28 1115.5,-224.62 1124.55,-230.13 1126.01,-223.28"/>
</g>
<!-- Oat_2(27)
[0.1459] -->
<g id="node28" class="node">
<title>Oat_2(27)
[0.1459]</title>
<ellipse fill="none" stroke="black" cx="1353.24" cy="-570.57" rx="50.82" ry="26.74"/>
<text text-anchor="middle" x="1353.24" y="-574.37" font-family="Times,serif" font-size="14.00">Oat_2(27)</text>
<text text-anchor="middle" x="1353.24" y="-559.37" font-family="Times,serif" font-size="14.00">[0.1459]</text>
</g>
<!-- Oat_2(27)
[0.1459]&#45;&gt;Reservoir(29)
[0.07] -->
<g id="edge28" class="edge">
<title>Oat_2(27)
[0.1459]&#45;&gt;Reservoir(29)
[0.07]</title>
<path fill="none" stroke="black" d="M1364.46,-544.21C1368.74,-533.22 1373.11,-520.06 1375.24,-507.7 1387.99,-433.75 1349.34,-276.71 1347.24,-274.48 1343.39,-270.41 1210.28,-243.1 1126.07,-226.15"/>
<polygon fill="black" stroke="black" points="1126.55,-222.68 1116.06,-224.14 1125.17,-229.54 1126.55,-222.68"/>
</g>
<!-- Pasture_1(28)
[0.134] -->
<g id="node29" class="node">
<title>Pasture_1(28)
[0.134]</title>
<ellipse fill="none" stroke="black" cx="1377.24" cy="-660.31" rx="65.11" ry="26.74"/>
<text text-anchor="middle" x="1377.24" y="-664.11" font-family="Times,serif" font-size="14.00">Pasture_1(28)</text>
<text text-anchor="middle" x="1377.24" y="-649.11" font-family="Times,serif" font-size="14.00">[0.134]</text>
</g>
<!-- Pasture_1(28)
[0.134]&#45;&gt;Reservoir(29)
[0.07] -->
<g id="edge29" class="edge">
<title>Pasture_1(28)
[0.134]&#45;&gt;Reservoir(29)
[0.07]</title>
<path fill="none" stroke="black" d="M1394.69,-634.15C1401.45,-623.3 1408.66,-610.19 1413.24,-597.44 1430.84,-548.44 1432.24,-533.9 1432.24,-481.83 1432.24,-481.83 1432.24,-481.83 1432.24,-390.09 1432.24,-331.36 1415.66,-309.13 1368.24,-274.48 1365.77,-272.68 1216.74,-243.45 1126.24,-225.82"/>
<polygon fill="black" stroke="black" points="1126.8,-222.36 1116.32,-223.89 1125.46,-229.23 1126.8,-222.36"/>
</g>
<!-- Riparian_1(30)
[2.317] -->
<g id="node30" class="node">
<title>Riparian_1(30)
[2.317]</title>
<ellipse fill="none" stroke="black" cx="1410.24" cy="-750.05" rx="70.01" ry="26.74"/>
<text text-anchor="middle" x="1410.24" y="-753.85" font-family="Times,serif" font-size="14.00">Riparian_1(30)</text>
<text text-anchor="middle" x="1410.24" y="-738.85" font-family="Times,serif" font-size="14.00">[2.317]</text>
</g>
<!-- Riparian_1(30)
[2.317]&#45;&gt;Reservoir(29)
[0.07] -->
<g id="edge30" class="edge">
<title>Riparian_1(30)
[2.317]&#45;&gt;Reservoir(29)
[0.07]</title>
<path fill="none" stroke="black" d="M1430.19,-724.21C1437.91,-713.41 1446.11,-700.26 1451.24,-687.18 1470.26,-638.71 1470.24,-623.64 1470.24,-571.57 1470.24,-571.57 1470.24,-571.57 1470.24,-390.09 1470.24,-331.99 1456.36,-308.46 1409.24,-274.48 1329.95,-217.29 1288.46,-255.75 1192.24,-238.48 1170.6,-234.6 1147.03,-230.13 1125.79,-226.01"/>
<polygon fill="black" stroke="black" points="1126.37,-222.56 1115.89,-224.08 1125.04,-229.43 1126.37,-222.56"/>
</g>
<!-- Riparian_2(31)
[0.2337] -->
<g id="node31" class="node">
<title>Riparian_2(31)
[0.2337]</title>
<ellipse fill="none" stroke="black" cx="1508.24" cy="-839.79" rx="70.01" ry="26.74"/>
<text text-anchor="middle" x="1508.24" y="-843.59" font-family="Times,serif" font-size="14.00">Riparian_2(31)</text>
<text text-anchor="middle" x="1508.24" y="-828.59" font-family="Times,serif" font-size="14.00">[0.2337]</text>
</g>
<!-- Riparian_2(31)
[0.2337]&#45;&gt;Reservoir(29)
[0.07] -->
<g id="edge31" class="edge">
<title>Riparian_2(31)
[0.2337]&#45;&gt;Reservoir(29)
[0.07]</title>
<path fill="none" stroke="black" d="M1508.24,-812.63C1508.24,-778.01 1508.24,-715.08 1508.24,-661.31 1508.24,-661.31 1508.24,-661.31 1508.24,-390.09 1508.24,-332.4 1496.22,-307.95 1449.24,-274.48 1402.27,-241.02 1249.12,-247.95 1192.24,-238.48 1170.55,-234.87 1146.97,-230.48 1125.73,-226.34"/>
<polygon fill="black" stroke="black" points="1126.32,-222.89 1115.83,-224.4 1124.97,-229.76 1126.32,-222.89"/>
</g>
<!-- Riparian_3(32)
[0.14] -->
<g id="node32" class="node">
<title>Riparian_3(32)
[0.14]</title>
<ellipse fill="none" stroke="black" cx="1606.24" cy="-301.35" rx="70.01" ry="26.74"/>
<text text-anchor="middle" x="1606.24" y="-305.15" font-family="Times,serif" font-size="14.00">Riparian_3(32)</text>
<text text-anchor="middle" x="1606.24" y="-290.15" font-family="Times,serif" font-size="14.00">[0.14]</text>
</g>
<!-- Riparian_3(32)
[0.14]&#45;&gt;Reservoir(29)
[0.07] -->
<g id="edge32" class="edge">
<title>Riparian_3(32)
[0.14]&#45;&gt;Reservoir(29)
[0.07]</title>
<path fill="none" stroke="black" d="M1555.11,-282.91C1544.35,-279.72 1533,-276.7 1522.24,-274.48 1377.75,-244.63 1338.12,-260.48 1192.24,-238.48 1170.29,-235.17 1146.47,-230.82 1125.08,-226.63"/>
<polygon fill="black" stroke="black" points="1125.6,-223.17 1115.11,-224.66 1124.24,-230.04 1125.6,-223.17"/>
</g>
<!-- Riparian_4(33)
[0.06434] -->
<g id="node33" class="node">
<title>Riparian_4(33)
[0.06434]</title>
<ellipse fill="none" stroke="black" cx="1644.24" cy="-391.09" rx="70.01" ry="26.74"/>
<text text-anchor="middle" x="1644.24" y="-394.89" font-family="Times,serif" font-size="14.00">Riparian_4(33)</text>
<text text-anchor="middle" x="1644.24" y="-379.89" font-family="Times,serif" font-size="14.00">[0.06434]</text>
</g>
<!-- Riparian_4(33)
[0.06434]&#45;&gt;Reservoir(29)
[0.07] -->
<g id="edge33" class="edge">
<title>Riparian_4(33)
[0.06434]&#45;&gt;Reservoir(29)
[0.07]</title>
<path fill="none" stroke="black" d="M1665.9,-365.47C1685.79,-339.82 1708.87,-299.9 1685.24,-274.48 1647.84,-234.25 1246.68,-245.7 1192.24,-238.48 1170.14,-235.55 1146.18,-231.28 1124.71,-227.05"/>
<polygon fill="black" stroke="black" points="1125.21,-223.58 1114.72,-225.05 1123.84,-230.44 1125.21,-223.58"/>
</g>
<!-- Wheat_1(34)
[0.2134] -->
<g id="node34" class="node">
<title>Wheat_1(34)
[0.2134]</title>
<ellipse fill="none" stroke="black" cx="1689.24" cy="-480.83" rx="62.87" ry="26.74"/>
<text text-anchor="middle" x="1689.24" y="-484.63" font-family="Times,serif" font-size="14.00">Wheat_1(34)</text>
<text text-anchor="middle" x="1689.24" y="-469.63" font-family="Times,serif" font-size="14.00">[0.2134]</text>
</g>
<!-- Wheat_1(34)
[0.2134]&#45;&gt;Reservoir(29)
[0.07] -->
<g id="edge34" class="edge">
<title>Wheat_1(34)
[0.2134]&#45;&gt;Reservoir(29)
[0.07]</title>
<path fill="none" stroke="black" d="M1706.71,-454.86C1713.26,-444.04 1719.92,-430.9 1723.24,-417.96 1739.24,-355.6 1752.03,-316.49 1703.24,-274.48 1660.11,-237.34 1248.67,-245.89 1192.24,-238.48 1170.13,-235.58 1146.17,-231.31 1124.71,-227.08"/>
<polygon fill="black" stroke="black" points="1125.21,-223.61 1114.72,-225.08 1123.83,-230.48 1125.21,-223.61"/>
</g>
<!-- Wheat_2(35)
[0.03848] -->
<g id="node35" class="node">
<title>Wheat_2(35)
[0.03848]</title>
<ellipse fill="none" stroke="black" cx="1727.24" cy="-570.57" rx="62.87" ry="26.74"/>
<text text-anchor="middle" x="1727.24" y="-574.37" font-family="Times,serif" font-size="14.00">Wheat_2(35)</text>
<text text-anchor="middle" x="1727.24" y="-559.37" font-family="Times,serif" font-size="14.00">[0.03848]</text>
</g>
<!-- Wheat_2(35)
[0.03848]&#45;&gt;Reservoir(29)
[0.07] -->
<g id="edge35" class="edge">
<title>Wheat_2(35)
[0.03848]&#45;&gt;Reservoir(29)
[0.07]</title>
<path fill="none" stroke="black" d="M1744.71,-544.6C1751.26,-533.78 1757.92,-520.64 1761.24,-507.7 1779.05,-438.29 1752.44,-292.06 1733.24,-274.48 1688.8,-233.8 1251.98,-246.21 1192.24,-238.48 1170.13,-235.62 1146.17,-231.37 1124.7,-227.13"/>
<polygon fill="black" stroke="black" points="1125.2,-223.66 1114.71,-225.13 1123.83,-230.53 1125.2,-223.66"/>
</g>
<!-- Wheat_3(36)
[0.1055] -->
<g id="node36" class="node">
<title>Wheat_3(36)
[0.1055]</title>
<ellipse fill="none" stroke="black" cx="1765.24" cy="-660.31" rx="62.87" ry="26.74"/>
<text text-anchor="middle" x="1765.24" y="-664.11" font-family="Times,serif" font-size="14.00">Wheat_3(36)</text>
<text text-anchor="middle" x="1765.24" y="-649.11" font-family="Times,serif" font-size="14.00">[0.1055]</text>
</g>
<!-- Wheat_3(36)
[0.1055]&#45;&gt;Reservoir(29)
[0.07] -->
<g id="edge36" class="edge">
<title>Wheat_3(36)
[0.1055]&#45;&gt;Reservoir(29)
[0.07]</title>
<path fill="none" stroke="black" d="M1781.5,-634.33C1787.94,-623.4 1794.83,-610.18 1799.24,-597.44 1816.24,-548.22 1818.24,-533.9 1818.24,-481.83 1818.24,-481.83 1818.24,-481.83 1818.24,-390.09 1818.24,-331.79 1805.29,-306 1756.24,-274.48 1703.41,-240.53 1254.52,-246.45 1192.24,-238.48 1170.12,-235.65 1146.16,-231.41 1124.7,-227.17"/>
<polygon fill="black" stroke="black" points="1125.2,-223.7 1114.71,-225.16 1123.82,-230.56 1125.2,-223.7"/>
</g>
<!-- Wheat_4(37)
[0.2869] -->
<g id="node37" class="node">
<title>Wheat_4(37)
[0.2869]</title>
<ellipse fill="none" stroke="black" cx="1803.24" cy="-750.05" rx="62.87" ry="26.74"/>
<text text-anchor="middle" x="1803.24" y="-753.85" font-family="Times,serif" font-size="14.00">Wheat_4(37)</text>
<text text-anchor="middle" x="1803.24" y="-738.85" font-family="Times,serif" font-size="14.00">[0.2869]</text>
</g>
<!-- Wheat_4(37)
[0.2869]&#45;&gt;Reservoir(29)
[0.07] -->
<g id="edge37" class="edge">
<title>Wheat_4(37)
[0.2869]&#45;&gt;Reservoir(29)
[0.07]</title>
<path fill="none" stroke="black" d="M1819.5,-724.07C1825.94,-713.14 1832.83,-699.92 1837.24,-687.18 1854.24,-637.96 1856.24,-623.64 1856.24,-571.57 1856.24,-571.57 1856.24,-571.57 1856.24,-390.09 1856.24,-331.99 1844.07,-305.95 1795.24,-274.48 1738.82,-238.12 1258.83,-246.86 1192.24,-238.48 1170.12,-235.7 1146.15,-231.46 1124.69,-227.22"/>
<polygon fill="black" stroke="black" points="1125.19,-223.76 1114.7,-225.21 1123.81,-230.62 1125.19,-223.76"/>
</g>
<!-- Wheat_5(38)
[0.08959] -->
<g id="node38" class="node">
<title>Wheat_5(38)
[0.08959]</title>
<ellipse fill="none" stroke="black" cx="1894.24" cy="-839.79" rx="62.87" ry="26.74"/>
<text text-anchor="middle" x="1894.24" y="-843.59" font-family="Times,serif" font-size="14.00">Wheat_5(38)</text>
<text text-anchor="middle" x="1894.24" y="-828.59" font-family="Times,serif" font-size="14.00">[0.08959]</text>
</g>
<!-- Wheat_5(38)
[0.08959]&#45;&gt;Reservoir(29)
[0.07] -->
<g id="edge38" class="edge">
<title>Wheat_5(38)
[0.08959]&#45;&gt;Reservoir(29)
[0.07]</title>
<path fill="none" stroke="black" d="M1894.24,-812.63C1894.24,-778.01 1894.24,-715.08 1894.24,-661.31 1894.24,-661.31 1894.24,-661.31 1894.24,-390.09 1894.24,-332.2 1882.85,-305.92 1834.24,-274.48 1774.24,-235.68 1263.14,-247.27 1192.24,-238.48 1170.11,-235.74 1146.15,-231.51 1124.69,-227.27"/>
<polygon fill="black" stroke="black" points="1125.19,-223.8 1114.69,-225.26 1123.81,-230.67 1125.19,-223.8"/>
</g>
<!-- Wheat_6(39)
[0.1298] -->
<g id="node39" class="node">
<title>Wheat_6(39)
[0.1298]</title>
<ellipse fill="none" stroke="black" cx="1985.24" cy="-301.35" rx="62.87" ry="26.74"/>
<text text-anchor="middle" x="1985.24" y="-305.15" font-family="Times,serif" font-size="14.00">Wheat_6(39)</text>
<text text-anchor="middle" x="1985.24" y="-290.15" font-family="Times,serif" font-size="14.00">[0.1298]</text>
</g>
<!-- Wheat_6(39)
[0.1298]&#45;&gt;Reservoir(29)
[0.07] -->
<g id="edge39" class="edge">
<title>Wheat_6(39)
[0.1298]&#45;&gt;Reservoir(29)
[0.07]</title>
<path fill="none" stroke="black" d="M1939.37,-282.66C1929.25,-279.4 1918.49,-276.42 1908.24,-274.48 1595.18,-215.19 1508.55,-276.77 1192.24,-238.48 1170,-235.79 1145.92,-231.56 1124.38,-227.29"/>
<polygon fill="black" stroke="black" points="1124.85,-223.82 1114.36,-225.27 1123.47,-230.68 1124.85,-223.82"/>
</g>
<!-- Winter_wheat_1(40)
[0.081] -->
<g id="node40" class="node">
<title>Winter_wheat_1(40)
[0.081]</title>
<ellipse fill="none" stroke="black" cx="2076.24" cy="-391.09" rx="91.43" ry="26.74"/>
<text text-anchor="middle" x="2076.24" y="-394.89" font-family="Times,serif" font-size="14.00">Winter_wheat_1(40)</text>
<text text-anchor="middle" x="2076.24" y="-379.89" font-family="Times,serif" font-size="14.00">[0.081]</text>
</g>
<!-- Winter_wheat_1(40)
[0.081]&#45;&gt;Reservoir(29)
[0.07] -->
<g id="edge40" class="edge">
<title>Winter_wheat_1(40)
[0.081]&#45;&gt;Reservoir(29)
[0.07]</title>
<path fill="none" stroke="black" d="M2080.36,-364.11C2082.98,-337.32 2082.06,-296.46 2057.24,-274.48 2021.23,-242.59 1240.01,-244.05 1192.24,-238.48 1169.99,-235.88 1145.9,-231.68 1124.37,-227.41"/>
<polygon fill="black" stroke="black" points="1124.84,-223.93 1114.34,-225.38 1123.45,-230.79 1124.84,-223.93"/>
</g>
<!-- Canola_10(5)
[0.04689] -->
<g id="node41" class="node">
<title>Canola_10(5)
[0.04689]</title>
<ellipse fill="none" stroke="black" cx="1200.24" cy="-121.87" rx="64.19" ry="26.74"/>
<text text-anchor="middle" x="1200.24" y="-125.67" font-family="Times,serif" font-size="14.00">Canola_10(5)</text>
<text text-anchor="middle" x="1200.24" y="-110.67" font-family="Times,serif" font-size="14.00">[0.04689]</text>
</g>
<!-- Canola_10(5)
[0.04689]&#45;&gt;basin -->
<g id="edge41" class="edge">
<title>Canola_10(5)
[0.04689]&#45;&gt;basin</title>
<path fill="none" stroke="black" d="M1200.24,-94.61C1200.24,-86.51 1200.24,-77.57 1200.24,-69.39"/>
<polygon fill="black" stroke="black" points="1203.74,-69.22 1200.24,-59.22 1196.74,-69.22 1203.74,-69.22"/>
</g>
<!-- Winter_wheat_2(41)
[0.02548] -->
<g id="node42" class="node">
<title>Winter_wheat_2(41)
[0.02548]</title>
<ellipse fill="none" stroke="black" cx="1292.24" cy="-211.61" rx="91.43" ry="26.74"/>
<text text-anchor="middle" x="1292.24" y="-215.41" font-family="Times,serif" font-size="14.00">Winter_wheat_2(41)</text>
<text text-anchor="middle" x="1292.24" y="-200.41" font-family="Times,serif" font-size="14.00">[0.02548]</text>
</g>
<!-- Winter_wheat_2(41)
[0.02548]&#45;&gt;basin -->
<g id="edge42" class="edge">
<title>Winter_wheat_2(41)
[0.02548]&#45;&gt;basin</title>
<path fill="none" stroke="black" d="M1293.43,-184.31C1293.35,-159.5 1290.01,-122.18 1273.24,-95 1263.43,-79.11 1246.92,-66.52 1232.08,-57.61"/>
<polygon fill="black" stroke="black" points="1233.56,-54.42 1223.13,-52.54 1230.1,-60.51 1233.56,-54.42"/>
</g>
</g>
</svg>
