<?xml version="1.0" encoding="UTF-8" standalone="no"?>
<!DOCTYPE svg PUBLIC "-//W3C//DTD SVG 1.1//EN"
 "http://www.w3.org/Graphics/SVG/1.1/DTD/svg11.dtd">
<!-- Generated by graphviz version 2.43.0 (0)
 -->
<!-- Title: TEST Pages: 1 -->
<svg width="2059pt" height="964pt"
 viewBox="0.00 0.00 2059.39 964.40" xmlns="http://www.w3.org/2000/svg" xmlns:xlink="http://www.w3.org/1999/xlink">
<g id="graph0" class="graph" transform="scale(1 1) rotate(0) translate(4 960.4)">
<title>TEST</title>
<polygon fill="white" stroke="transparent" points="-4,4 -4,-960.4 2055.39,-960.4 2055.39,4 -4,4"/>
<text text-anchor="middle" x="1025.7" y="-7.8" font-family="Times,serif" font-size="14.00">H_Mcwean_project_GrpH</text>
<!-- Canola 1(1)
[1.853] -->
<g id="node1" class="node">
<title>Canola 1(1)
[1.853]</title>
<ellipse fill="none" stroke="black" cx="1404.28" cy="-391.09" rx="57.05" ry="26.74"/>
<text text-anchor="middle" x="1404.28" y="-394.89" font-family="Times,serif" font-size="14.00">Canola 1(1)</text>
<text text-anchor="middle" x="1404.28" y="-379.89" font-family="Times,serif" font-size="14.00">[1.853]</text>
</g>
<!-- Riparian forest 1(30)
[0.5069] -->
<g id="node2" class="node">
<title>Riparian forest 1(30)
[0.5069]</title>
<ellipse fill="none" stroke="black" cx="1603.28" cy="-301.35" rx="92.76" ry="26.74"/>
<text text-anchor="middle" x="1603.28" y="-305.15" font-family="Times,serif" font-size="14.00">Riparian forest 1(30)</text>
<text text-anchor="middle" x="1603.28" y="-290.15" font-family="Times,serif" font-size="14.00">[0.5069]</text>
</g>
<!-- Canola 1(1)
[1.853]&#45;&gt;Riparian forest 1(30)
[0.5069] -->
<g id="edge1" class="edge">
<title>Canola 1(1)
[1.853]&#45;&gt;Riparian forest 1(30)
[0.5069]</title>
<path fill="none" stroke="black" d="M1445.03,-372.12C1473.69,-359.48 1512.5,-342.37 1544.51,-328.26"/>
<polygon fill="black" stroke="black" points="1546.03,-331.41 1553.77,-324.18 1543.21,-325.01 1546.03,-331.41"/>
</g>
<!-- Channel(7)
[0.03] -->
<g id="node3" class="node">
<title>Channel(7)
[0.03]</title>
<ellipse fill="none" stroke="black" cx="1045.28" cy="-211.61" rx="54.39" ry="26.74"/>
<text text-anchor="middle" x="1045.28" y="-215.41" font-family="Times,serif" font-size="14.00">Channel(7)</text>
<text text-anchor="middle" x="1045.28" y="-200.41" font-family="Times,serif" font-size="14.00">[0.03]</text>
</g>
<!-- Riparian forest 1(30)
[0.5069]&#45;&gt;Channel(7)
[0.03] -->
<g id="edge2" class="edge">
<title>Riparian forest 1(30)
[0.5069]&#45;&gt;Channel(7)
[0.03]</title>
<path fill="none" stroke="black" d="M1523.03,-287.73C1410.49,-270.04 1208.19,-238.23 1106.77,-222.28"/>
<polygon fill="black" stroke="black" points="1107.11,-218.79 1096.69,-220.69 1106.02,-225.7 1107.11,-218.79"/>
</g>
<!-- Reservoir(5)
[0.04] -->
<g id="node4" class="node">
<title>Reservoir(5)
[0.04]</title>
<ellipse fill="none" stroke="black" cx="1045.28" cy="-121.87" rx="60.21" ry="26.74"/>
<text text-anchor="middle" x="1045.28" y="-125.67" font-family="Times,serif" font-size="14.00">Reservoir(5)</text>
<text text-anchor="middle" x="1045.28" y="-110.67" font-family="Times,serif" font-size="14.00">[0.04]</text>
</g>
<!-- Channel(7)
[0.03]&#45;&gt;Reservoir(5)
[0.04] -->
<g id="edge3" class="edge">
<title>Channel(7)
[0.03]&#45;&gt;Reservoir(5)
[0.04]</title>
<path fill="none" stroke="black" d="M1045.28,-184.29C1045.28,-176.32 1045.28,-167.43 1045.28,-158.94"/>
<polygon fill="black" stroke="black" points="1048.78,-158.87 1045.28,-148.87 1041.78,-158.87 1048.78,-158.87"/>
</g>
<!-- basin -->
<g id="node5" class="node">
<title>basin</title>
<ellipse fill="none" stroke="black" cx="1045.28" cy="-41" rx="29.5" ry="18"/>
<text text-anchor="middle" x="1045.28" y="-37.3" font-family="Times,serif" font-size="14.00">basin</text>
</g>
<!-- Reservoir(5)
[0.04]&#45;&gt;basin -->
<g id="edge4" class="edge">
<title>Reservoir(5)
[0.04]&#45;&gt;basin</title>
<path fill="none" stroke="black" d="M1045.28,-94.61C1045.28,-86.51 1045.28,-77.57 1045.28,-69.39"/>
<polygon fill="black" stroke="black" points="1048.78,-69.22 1045.28,-59.22 1041.78,-69.22 1048.78,-69.22"/>
</g>
<!-- Canola 2(2)
[0.09513] -->
<g id="node6" class="node">
<title>Canola 2(2)
[0.09513]</title>
<ellipse fill="none" stroke="black" cx="57.28" cy="-391.09" rx="57.05" ry="26.74"/>
<text text-anchor="middle" x="57.28" y="-394.89" font-family="Times,serif" font-size="14.00">Canola 2(2)</text>
<text text-anchor="middle" x="57.28" y="-379.89" font-family="Times,serif" font-size="14.00">[0.09513]</text>
</g>
<!-- Riparian forest 2(31)
[0.1322] -->
<g id="node7" class="node">
<title>Riparian forest 2(31)
[0.1322]</title>
<ellipse fill="none" stroke="black" cx="336.28" cy="-301.35" rx="92.76" ry="26.74"/>
<text text-anchor="middle" x="336.28" y="-305.15" font-family="Times,serif" font-size="14.00">Riparian forest 2(31)</text>
<text text-anchor="middle" x="336.28" y="-290.15" font-family="Times,serif" font-size="14.00">[0.1322]</text>
</g>
<!-- Canola 2(2)
[0.09513]&#45;&gt;Riparian forest 2(31)
[0.1322] -->
<g id="edge5" class="edge">
<title>Canola 2(2)
[0.09513]&#45;&gt;Riparian forest 2(31)
[0.1322]</title>
<path fill="none" stroke="black" d="M101.07,-373.67C110.03,-370.44 119.43,-367.14 128.28,-364.22 172.23,-349.69 221.9,-334.86 261.68,-323.36"/>
<polygon fill="black" stroke="black" points="262.67,-326.71 271.31,-320.58 260.74,-319.99 262.67,-326.71"/>
</g>
<!-- Riparian forest 2(31)
[0.1322]&#45;&gt;Channel(7)
[0.03] -->
<g id="edge6" class="edge">
<title>Riparian forest 2(31)
[0.1322]&#45;&gt;Channel(7)
[0.03]</title>
<path fill="none" stroke="black" d="M420.39,-289.94C564.5,-272.11 855.36,-236.11 982.92,-220.33"/>
<polygon fill="black" stroke="black" points="983.43,-223.79 992.92,-219.09 982.57,-216.84 983.43,-223.79"/>
</g>
<!-- Alfalfa 1(3)
[0.06223] -->
<g id="node8" class="node">
<title>Alfalfa 1(3)
[0.06223]</title>
<ellipse fill="none" stroke="black" cx="722.28" cy="-391.09" rx="57.05" ry="26.74"/>
<text text-anchor="middle" x="722.28" y="-394.89" font-family="Times,serif" font-size="14.00">Alfalfa 1(3)</text>
<text text-anchor="middle" x="722.28" y="-379.89" font-family="Times,serif" font-size="14.00">[0.06223]</text>
</g>
<!-- Riparian forest 3(32)
[0.3887] -->
<g id="node9" class="node">
<title>Riparian forest 3(32)
[0.3887]</title>
<ellipse fill="none" stroke="black" cx="904.28" cy="-301.35" rx="92.76" ry="26.74"/>
<text text-anchor="middle" x="904.28" y="-305.15" font-family="Times,serif" font-size="14.00">Riparian forest 3(32)</text>
<text text-anchor="middle" x="904.28" y="-290.15" font-family="Times,serif" font-size="14.00">[0.3887]</text>
</g>
<!-- Alfalfa 1(3)
[0.06223]&#45;&gt;Riparian forest 3(32)
[0.3887] -->
<g id="edge7" class="edge">
<title>Alfalfa 1(3)
[0.06223]&#45;&gt;Riparian forest 3(32)
[0.3887]</title>
<path fill="none" stroke="black" d="M761.32,-371.27C786.75,-359.01 820.32,-342.82 848.54,-329.22"/>
<polygon fill="black" stroke="black" points="850.4,-332.21 857.89,-324.71 847.36,-325.9 850.4,-332.21"/>
</g>
<!-- Riparian forest 3(32)
[0.3887]&#45;&gt;Channel(7)
[0.03] -->
<g id="edge8" class="edge">
<title>Riparian forest 3(32)
[0.3887]&#45;&gt;Channel(7)
[0.03]</title>
<path fill="none" stroke="black" d="M942.43,-276.61C961.39,-264.81 984.32,-250.54 1003.72,-238.47"/>
<polygon fill="black" stroke="black" points="1005.72,-241.35 1012.36,-233.09 1002.02,-235.4 1005.72,-241.35"/>
</g>
<!-- Barley 1(4)
[0.1848] -->
<g id="node10" class="node">
<title>Barley 1(4)
[0.1848]</title>
<ellipse fill="none" stroke="black" cx="1443.28" cy="-480.83" rx="55.72" ry="26.74"/>
<text text-anchor="middle" x="1443.28" y="-484.63" font-family="Times,serif" font-size="14.00">Barley 1(4)</text>
<text text-anchor="middle" x="1443.28" y="-469.63" font-family="Times,serif" font-size="14.00">[0.1848]</text>
</g>
<!-- Barley 1(4)
[0.1848]&#45;&gt;Riparian forest 1(30)
[0.5069] -->
<g id="edge9" class="edge">
<title>Barley 1(4)
[0.1848]&#45;&gt;Riparian forest 1(30)
[0.5069]</title>
<path fill="none" stroke="black" d="M1454.78,-454.3C1466.87,-429.38 1487.67,-391.35 1513.28,-364.22 1524.92,-351.89 1539.41,-340.62 1553.34,-331.18"/>
<polygon fill="black" stroke="black" points="1555.48,-333.96 1561.91,-325.54 1551.63,-328.11 1555.48,-333.96"/>
</g>
<!-- Barley 2(6)
[0.07193] -->
<g id="node11" class="node">
<title>Barley 2(6)
[0.07193]</title>
<ellipse fill="none" stroke="black" cx="1064.28" cy="-391.09" rx="55.72" ry="26.74"/>
<text text-anchor="middle" x="1064.28" y="-394.89" font-family="Times,serif" font-size="14.00">Barley 2(6)</text>
<text text-anchor="middle" x="1064.28" y="-379.89" font-family="Times,serif" font-size="14.00">[0.07193]</text>
</g>
<!-- Riparian forest 4(33)
[0.09664] -->
<g id="node12" class="node">
<title>Riparian forest 4(33)
[0.09664]</title>
<ellipse fill="none" stroke="black" cx="1186.28" cy="-301.35" rx="92.76" ry="26.74"/>
<text text-anchor="middle" x="1186.28" y="-305.15" font-family="Times,serif" font-size="14.00">Riparian forest 4(33)</text>
<text text-anchor="middle" x="1186.28" y="-290.15" font-family="Times,serif" font-size="14.00">[0.09664]</text>
</g>
<!-- Barley 2(6)
[0.07193]&#45;&gt;Riparian forest 4(33)
[0.09664] -->
<g id="edge10" class="edge">
<title>Barley 2(6)
[0.07193]&#45;&gt;Riparian forest 4(33)
[0.09664]</title>
<path fill="none" stroke="black" d="M1094.43,-368.4C1109.45,-357.6 1127.86,-344.36 1144.24,-332.58"/>
<polygon fill="black" stroke="black" points="1146.52,-335.25 1152.6,-326.57 1142.44,-329.57 1146.52,-335.25"/>
</g>
<!-- Riparian forest 4(33)
[0.09664]&#45;&gt;Channel(7)
[0.03] -->
<g id="edge11" class="edge">
<title>Riparian forest 4(33)
[0.09664]&#45;&gt;Channel(7)
[0.03]</title>
<path fill="none" stroke="black" d="M1148.12,-276.61C1129.16,-264.81 1106.23,-250.54 1086.83,-238.47"/>
<polygon fill="black" stroke="black" points="1088.53,-235.4 1078.19,-233.09 1084.83,-241.35 1088.53,-235.4"/>
</g>
<!-- Barley 3(8)
[0.3145] -->
<g id="node13" class="node">
<title>Barley 3(8)
[0.3145]</title>
<ellipse fill="none" stroke="black" cx="119.28" cy="-480.83" rx="55.72" ry="26.74"/>
<text text-anchor="middle" x="119.28" y="-484.63" font-family="Times,serif" font-size="14.00">Barley 3(8)</text>
<text text-anchor="middle" x="119.28" y="-469.63" font-family="Times,serif" font-size="14.00">[0.3145]</text>
</g>
<!-- Barley 3(8)
[0.3145]&#45;&gt;Riparian forest 2(31)
[0.1322] -->
<g id="edge12" class="edge">
<title>Barley 3(8)
[0.3145]&#45;&gt;Riparian forest 2(31)
[0.1322]</title>
<path fill="none" stroke="black" d="M129.23,-454.09C140.37,-428.27 160.69,-388.91 189.28,-364.22 209.81,-346.49 236.16,-333.26 260.86,-323.7"/>
<polygon fill="black" stroke="black" points="262.09,-326.98 270.24,-320.21 259.64,-320.42 262.09,-326.98"/>
</g>
<!-- Buckwheat 1(9)
[0.1522] -->
<g id="node14" class="node">
<title>Buckwheat 1(9)
[0.1522]</title>
<ellipse fill="none" stroke="black" cx="1463.28" cy="-570.57" rx="73.58" ry="26.74"/>
<text text-anchor="middle" x="1463.28" y="-574.37" font-family="Times,serif" font-size="14.00">Buckwheat 1(9)</text>
<text text-anchor="middle" x="1463.28" y="-559.37" font-family="Times,serif" font-size="14.00">[0.1522]</text>
</g>
<!-- Buckwheat 1(9)
[0.1522]&#45;&gt;Riparian forest 1(30)
[0.5069] -->
<g id="edge13" class="edge">
<title>Buckwheat 1(9)
[0.1522]&#45;&gt;Riparian forest 1(30)
[0.5069]</title>
<path fill="none" stroke="black" d="M1484.39,-544.63C1492.74,-533.82 1501.85,-520.67 1508.28,-507.7 1537.83,-448.05 1519.65,-422.8 1551.28,-364.22 1556.74,-354.11 1564.03,-344.13 1571.42,-335.24"/>
<polygon fill="black" stroke="black" points="1574.3,-337.26 1578.18,-327.4 1569,-332.68 1574.3,-337.26"/>
</g>
<!-- Buckwheat 2(10)
[0.04747] -->
<g id="node15" class="node">
<title>Buckwheat 2(10)
[0.04747]</title>
<ellipse fill="none" stroke="black" cx="1497.28" cy="-660.31" rx="77.56" ry="26.74"/>
<text text-anchor="middle" x="1497.28" y="-664.11" font-family="Times,serif" font-size="14.00">Buckwheat 2(10)</text>
<text text-anchor="middle" x="1497.28" y="-649.11" font-family="Times,serif" font-size="14.00">[0.04747]</text>
</g>
<!-- Buckwheat 2(10)
[0.04747]&#45;&gt;Riparian forest 1(30)
[0.5069] -->
<g id="edge14" class="edge">
<title>Buckwheat 2(10)
[0.04747]&#45;&gt;Riparian forest 1(30)
[0.5069]</title>
<path fill="none" stroke="black" d="M1521.34,-634.7C1530.48,-624.03 1540.16,-610.92 1546.28,-597.44 1589.84,-501.46 1568.08,-467.47 1589.28,-364.22 1591.01,-355.78 1592.99,-346.73 1594.9,-338.22"/>
<polygon fill="black" stroke="black" points="1598.38,-338.72 1597.19,-328.19 1591.55,-337.16 1598.38,-338.72"/>
</g>
<!-- Buckwheat 3(11)
[0.02179] -->
<g id="node16" class="node">
<title>Buckwheat 3(11)
[0.02179]</title>
<ellipse fill="none" stroke="black" cx="135.28" cy="-570.57" rx="77.56" ry="26.74"/>
<text text-anchor="middle" x="135.28" y="-574.37" font-family="Times,serif" font-size="14.00">Buckwheat 3(11)</text>
<text text-anchor="middle" x="135.28" y="-559.37" font-family="Times,serif" font-size="14.00">[0.02179]</text>
</g>
<!-- Buckwheat 3(11)
[0.02179]&#45;&gt;Riparian forest 2(31)
[0.1322] -->
<g id="edge15" class="edge">
<title>Buckwheat 3(11)
[0.02179]&#45;&gt;Riparian forest 2(31)
[0.1322]</title>
<path fill="none" stroke="black" d="M158.36,-544.9C167.46,-534.13 177.37,-520.94 184.28,-507.7 215.05,-448.67 185.79,-416.28 227.28,-364.22 239.18,-349.29 255.72,-337.32 272.34,-328.05"/>
<polygon fill="black" stroke="black" points="274.35,-330.94 281.54,-323.17 271.07,-324.76 274.35,-330.94"/>
</g>
<!-- Flax/Linola 1(12)
[0.5815] -->
<g id="node17" class="node">
<title>Flax/Linola 1(12)
[0.5815]</title>
<ellipse fill="none" stroke="black" cx="1533.28" cy="-750.05" rx="79.81" ry="26.74"/>
<text text-anchor="middle" x="1533.28" y="-753.85" font-family="Times,serif" font-size="14.00">Flax/Linola 1(12)</text>
<text text-anchor="middle" x="1533.28" y="-738.85" font-family="Times,serif" font-size="14.00">[0.5815]</text>
</g>
<!-- Flax/Linola 1(12)
[0.5815]&#45;&gt;Riparian forest 1(30)
[0.5069] -->
<g id="edge16" class="edge">
<title>Flax/Linola 1(12)
[0.5815]&#45;&gt;Riparian forest 1(30)
[0.5069]</title>
<path fill="none" stroke="black" d="M1558.74,-724.35C1568.2,-713.78 1578.12,-700.74 1584.28,-687.18 1605.8,-639.77 1603.28,-623.64 1603.28,-571.57 1603.28,-571.57 1603.28,-571.57 1603.28,-479.83 1603.28,-431.1 1603.28,-374.85 1603.28,-338.97"/>
<polygon fill="black" stroke="black" points="1606.78,-338.51 1603.28,-328.51 1599.78,-338.51 1606.78,-338.51"/>
</g>
<!-- Forage 1(13)
[0.06318] -->
<g id="node18" class="node">
<title>Forage 1(13)
[0.06318]</title>
<ellipse fill="none" stroke="black" cx="189.28" cy="-660.31" rx="61.54" ry="26.74"/>
<text text-anchor="middle" x="189.28" y="-664.11" font-family="Times,serif" font-size="14.00">Forage 1(13)</text>
<text text-anchor="middle" x="189.28" y="-649.11" font-family="Times,serif" font-size="14.00">[0.06318]</text>
</g>
<!-- Forage 1(13)
[0.06318]&#45;&gt;Riparian forest 2(31)
[0.1322] -->
<g id="edge17" class="edge">
<title>Forage 1(13)
[0.06318]&#45;&gt;Riparian forest 2(31)
[0.1322]</title>
<path fill="none" stroke="black" d="M204.92,-634.23C211.14,-623.28 217.86,-610.08 222.28,-597.44 257.04,-497.94 213.07,-455.78 265.28,-364.22 271.99,-352.45 281.79,-341.82 291.99,-332.82"/>
<polygon fill="black" stroke="black" points="294.4,-335.37 299.82,-326.26 289.9,-330 294.4,-335.37"/>
</g>
<!-- Forage 2(14)
[0.09065] -->
<g id="node19" class="node">
<title>Forage 2(14)
[0.09065]</title>
<ellipse fill="none" stroke="black" cx="776.28" cy="-480.83" rx="61.54" ry="26.74"/>
<text text-anchor="middle" x="776.28" y="-484.63" font-family="Times,serif" font-size="14.00">Forage 2(14)</text>
<text text-anchor="middle" x="776.28" y="-469.63" font-family="Times,serif" font-size="14.00">[0.09065]</text>
</g>
<!-- Forage 2(14)
[0.09065]&#45;&gt;Riparian forest 3(32)
[0.3887] -->
<g id="edge18" class="edge">
<title>Forage 2(14)
[0.09065]&#45;&gt;Riparian forest 3(32)
[0.3887]</title>
<path fill="none" stroke="black" d="M791.76,-454.45C806.57,-430.63 829.89,-394.27 852.28,-364.22 859.41,-354.65 867.54,-344.6 875.23,-335.46"/>
<polygon fill="black" stroke="black" points="878.02,-337.58 881.82,-327.69 872.68,-333.05 878.02,-337.58"/>
</g>
<!-- Forage 3(15)
[0.3248] -->
<g id="node20" class="node">
<title>Forage 3(15)
[0.3248]</title>
<ellipse fill="none" stroke="black" cx="227.28" cy="-750.05" rx="61.54" ry="26.74"/>
<text text-anchor="middle" x="227.28" y="-753.85" font-family="Times,serif" font-size="14.00">Forage 3(15)</text>
<text text-anchor="middle" x="227.28" y="-738.85" font-family="Times,serif" font-size="14.00">[0.3248]</text>
</g>
<!-- Forage 3(15)
[0.3248]&#45;&gt;Riparian forest 2(31)
[0.1322] -->
<g id="edge19" class="edge">
<title>Forage 3(15)
[0.3248]&#45;&gt;Riparian forest 2(31)
[0.1322]</title>
<path fill="none" stroke="black" d="M243.04,-724.01C249.28,-713.07 255.98,-699.86 260.28,-687.18 276.97,-637.86 279.28,-623.64 279.28,-571.57 279.28,-571.57 279.28,-571.57 279.28,-479.83 279.28,-427.35 285.41,-413.56 303.28,-364.22 306.56,-355.14 310.98,-345.75 315.51,-337.11"/>
<polygon fill="black" stroke="black" points="318.72,-338.54 320.43,-328.08 312.57,-335.19 318.72,-338.54"/>
</g>
<!-- Forage 4(16)
[0.07213] -->
<g id="node21" class="node">
<title>Forage 4(16)
[0.07213]</title>
<ellipse fill="none" stroke="black" cx="1589.28" cy="-839.79" rx="61.54" ry="26.74"/>
<text text-anchor="middle" x="1589.28" y="-843.59" font-family="Times,serif" font-size="14.00">Forage 4(16)</text>
<text text-anchor="middle" x="1589.28" y="-828.59" font-family="Times,serif" font-size="14.00">[0.07213]</text>
</g>
<!-- Forage 4(16)
[0.07213]&#45;&gt;Riparian forest 1(30)
[0.5069] -->
<g id="edge20" class="edge">
<title>Forage 4(16)
[0.07213]&#45;&gt;Riparian forest 1(30)
[0.5069]</title>
<path fill="none" stroke="black" d="M1605.04,-813.75C1611.28,-802.81 1617.98,-789.6 1622.28,-776.92 1638.97,-727.6 1641.28,-713.38 1641.28,-661.31 1641.28,-661.31 1641.28,-661.31 1641.28,-479.83 1641.28,-429.78 1626.65,-373.52 1615.55,-338.02"/>
<polygon fill="black" stroke="black" points="1618.76,-336.6 1612.38,-328.14 1612.1,-338.73 1618.76,-336.6"/>
</g>
<!-- Forage 5(17)
[0.08817] -->
<g id="node22" class="node">
<title>Forage 5(17)
[0.08817]</title>
<ellipse fill="none" stroke="black" cx="814.28" cy="-570.57" rx="61.54" ry="26.74"/>
<text text-anchor="middle" x="814.28" y="-574.37" font-family="Times,serif" font-size="14.00">Forage 5(17)</text>
<text text-anchor="middle" x="814.28" y="-559.37" font-family="Times,serif" font-size="14.00">[0.08817]</text>
</g>
<!-- Forage 5(17)
[0.08817]&#45;&gt;Riparian forest 3(32)
[0.3887] -->
<g id="edge21" class="edge">
<title>Forage 5(17)
[0.08817]&#45;&gt;Riparian forest 3(32)
[0.3887]</title>
<path fill="none" stroke="black" d="M829.38,-544.29C835.51,-533.31 842.3,-520.13 847.28,-507.7 859.61,-476.85 882.7,-388.19 895.38,-338.04"/>
<polygon fill="black" stroke="black" points="898.79,-338.8 897.84,-328.25 892.01,-337.09 898.79,-338.8"/>
</g>
<!-- Forage 6(18)
[0.3111] -->
<g id="node23" class="node">
<title>Forage 6(18)
[0.3111]</title>
<ellipse fill="none" stroke="black" cx="1679.28" cy="-929.53" rx="61.54" ry="26.74"/>
<text text-anchor="middle" x="1679.28" y="-933.33" font-family="Times,serif" font-size="14.00">Forage 6(18)</text>
<text text-anchor="middle" x="1679.28" y="-918.33" font-family="Times,serif" font-size="14.00">[0.3111]</text>
</g>
<!-- Forage 6(18)
[0.3111]&#45;&gt;Riparian forest 1(30)
[0.5069] -->
<g id="edge22" class="edge">
<title>Forage 6(18)
[0.3111]&#45;&gt;Riparian forest 1(30)
[0.5069]</title>
<path fill="none" stroke="black" d="M1679.28,-902.37C1679.28,-867.75 1679.28,-804.82 1679.28,-751.05 1679.28,-751.05 1679.28,-751.05 1679.28,-479.83 1679.28,-426.6 1650.03,-371.11 1627.82,-336.65"/>
<polygon fill="black" stroke="black" points="1630.49,-334.35 1622.06,-327.94 1624.65,-338.21 1630.49,-334.35"/>
</g>
<!-- Forage 7(19)
[0.2167] -->
<g id="node24" class="node">
<title>Forage 7(19)
[0.2167]</title>
<ellipse fill="none" stroke="black" cx="1769.28" cy="-391.09" rx="61.54" ry="26.74"/>
<text text-anchor="middle" x="1769.28" y="-394.89" font-family="Times,serif" font-size="14.00">Forage 7(19)</text>
<text text-anchor="middle" x="1769.28" y="-379.89" font-family="Times,serif" font-size="14.00">[0.2167]</text>
</g>
<!-- Forage 7(19)
[0.2167]&#45;&gt;Riparian forest 1(30)
[0.5069] -->
<g id="edge23" class="edge">
<title>Forage 7(19)
[0.2167]&#45;&gt;Riparian forest 1(30)
[0.5069]</title>
<path fill="none" stroke="black" d="M1731.19,-369.96C1708.69,-358.07 1679.87,-342.84 1655.29,-329.85"/>
<polygon fill="black" stroke="black" points="1656.93,-326.75 1646.45,-325.17 1653.66,-332.94 1656.93,-326.75"/>
</g>
<!-- Forage 8(20)
[0.1428] -->
<g id="node25" class="node">
<title>Forage 8(20)
[0.1428]</title>
<ellipse fill="none" stroke="black" cx="265.28" cy="-839.79" rx="61.54" ry="26.74"/>
<text text-anchor="middle" x="265.28" y="-843.59" font-family="Times,serif" font-size="14.00">Forage 8(20)</text>
<text text-anchor="middle" x="265.28" y="-828.59" font-family="Times,serif" font-size="14.00">[0.1428]</text>
</g>
<!-- Forage 8(20)
[0.1428]&#45;&gt;Riparian forest 2(31)
[0.1322] -->
<g id="edge24" class="edge">
<title>Forage 8(20)
[0.1428]&#45;&gt;Riparian forest 2(31)
[0.1322]</title>
<path fill="none" stroke="black" d="M281.04,-813.75C287.28,-802.81 293.98,-789.6 298.28,-776.92 314.97,-727.6 317.28,-713.38 317.28,-661.31 317.28,-661.31 317.28,-661.31 317.28,-479.83 317.28,-430.61 324.59,-374.15 330.14,-338.38"/>
<polygon fill="black" stroke="black" points="333.61,-338.84 331.72,-328.42 326.7,-337.75 333.61,-338.84"/>
</g>
<!-- Mixed Oats and Peas(21)
[0.2888] -->
<g id="node26" class="node">
<title>Mixed Oats and Peas(21)
[0.2888]</title>
<ellipse fill="none" stroke="black" cx="804.28" cy="-660.31" rx="109.7" ry="26.74"/>
<text text-anchor="middle" x="804.28" y="-664.11" font-family="Times,serif" font-size="14.00">Mixed Oats and Peas(21)</text>
<text text-anchor="middle" x="804.28" y="-649.11" font-family="Times,serif" font-size="14.00">[0.2888]</text>
</g>
<!-- Mixed Oats and Peas(21)
[0.2888]&#45;&gt;Riparian forest 3(32)
[0.3887] -->
<g id="edge25" class="edge">
<title>Mixed Oats and Peas(21)
[0.2888]&#45;&gt;Riparian forest 3(32)
[0.3887]</title>
<path fill="none" stroke="black" d="M848.98,-635.47C863.02,-625.64 877.01,-612.89 885.28,-597.44 930.09,-513.71 920.06,-396.91 911.05,-338.54"/>
<polygon fill="black" stroke="black" points="914.45,-337.66 909.39,-328.35 907.54,-338.78 914.45,-337.66"/>
</g>
<!-- Oats 1(22)
[0.101] -->
<g id="node27" class="node">
<title>Oats 1(22)
[0.101]</title>
<ellipse fill="none" stroke="black" cx="1106.28" cy="-480.83" rx="52.15" ry="26.74"/>
<text text-anchor="middle" x="1106.28" y="-484.63" font-family="Times,serif" font-size="14.00">Oats 1(22)</text>
<text text-anchor="middle" x="1106.28" y="-469.63" font-family="Times,serif" font-size="14.00">[0.101]</text>
</g>
<!-- Oats 1(22)
[0.101]&#45;&gt;Riparian forest 4(33)
[0.09664] -->
<g id="edge26" class="edge">
<title>Oats 1(22)
[0.101]&#45;&gt;Riparian forest 4(33)
[0.09664]</title>
<path fill="none" stroke="black" d="M1117.74,-454.4C1131.6,-423.65 1155,-371.73 1170.54,-337.25"/>
<polygon fill="black" stroke="black" points="1173.79,-338.57 1174.71,-328.02 1167.4,-335.7 1173.79,-338.57"/>
</g>
<!-- Oats 2(23)
[0.06745] -->
<g id="node28" class="node">
<title>Oats 2(23)
[0.06745]</title>
<ellipse fill="none" stroke="black" cx="1144.28" cy="-570.57" rx="52.15" ry="26.74"/>
<text text-anchor="middle" x="1144.28" y="-574.37" font-family="Times,serif" font-size="14.00">Oats 2(23)</text>
<text text-anchor="middle" x="1144.28" y="-559.37" font-family="Times,serif" font-size="14.00">[0.06745]</text>
</g>
<!-- Oats 2(23)
[0.06745]&#45;&gt;Riparian forest 4(33)
[0.09664] -->
<g id="edge27" class="edge">
<title>Oats 2(23)
[0.06745]&#45;&gt;Riparian forest 4(33)
[0.09664]</title>
<path fill="none" stroke="black" d="M1155.45,-544.15C1159.83,-533.14 1164.47,-519.99 1167.28,-507.7 1180.56,-449.42 1184.6,-379.81 1185.8,-338.44"/>
<polygon fill="black" stroke="black" points="1189.3,-338.39 1186.05,-328.3 1182.3,-338.21 1189.3,-338.39"/>
</g>
<!-- Oats 3(24)
[0.1849] -->
<g id="node29" class="node">
<title>Oats 3(24)
[0.1849]</title>
<ellipse fill="none" stroke="black" cx="355.28" cy="-929.53" rx="52.15" ry="26.74"/>
<text text-anchor="middle" x="355.28" y="-933.33" font-family="Times,serif" font-size="14.00">Oats 3(24)</text>
<text text-anchor="middle" x="355.28" y="-918.33" font-family="Times,serif" font-size="14.00">[0.1849]</text>
</g>
<!-- Oats 3(24)
[0.1849]&#45;&gt;Riparian forest 2(31)
[0.1322] -->
<g id="edge28" class="edge">
<title>Oats 3(24)
[0.1849]&#45;&gt;Riparian forest 2(31)
[0.1322]</title>
<path fill="none" stroke="black" d="M355.28,-902.37C355.28,-867.75 355.28,-804.82 355.28,-751.05 355.28,-751.05 355.28,-751.05 355.28,-479.83 355.28,-430.61 347.96,-374.15 342.41,-338.38"/>
<polygon fill="black" stroke="black" points="345.85,-337.75 340.83,-328.42 338.94,-338.84 345.85,-337.75"/>
</g>
<!-- Oats 4(25)
[0.2957] -->
<g id="node30" class="node">
<title>Oats 4(25)
[0.2957]</title>
<ellipse fill="none" stroke="black" cx="435.28" cy="-391.09" rx="52.15" ry="26.74"/>
<text text-anchor="middle" x="435.28" y="-394.89" font-family="Times,serif" font-size="14.00">Oats 4(25)</text>
<text text-anchor="middle" x="435.28" y="-379.89" font-family="Times,serif" font-size="14.00">[0.2957]</text>
</g>
<!-- Oats 4(25)
[0.2957]&#45;&gt;Riparian forest 2(31)
[0.1322] -->
<g id="edge29" class="edge">
<title>Oats 4(25)
[0.2957]&#45;&gt;Riparian forest 2(31)
[0.1322]</title>
<path fill="none" stroke="black" d="M409.78,-367.5C398.2,-357.24 384.32,-344.93 371.75,-333.79"/>
<polygon fill="black" stroke="black" points="373.93,-331.04 364.12,-327.03 369.28,-336.28 373.93,-331.04"/>
</g>
<!-- Pasture 1(26)
[0.2223] -->
<g id="node31" class="node">
<title>Pasture 1(26)
[0.2223]</title>
<ellipse fill="none" stroke="black" cx="1859.28" cy="-480.83" rx="62.87" ry="26.74"/>
<text text-anchor="middle" x="1859.28" y="-484.63" font-family="Times,serif" font-size="14.00">Pasture 1(26)</text>
<text text-anchor="middle" x="1859.28" y="-469.63" font-family="Times,serif" font-size="14.00">[0.2223]</text>
</g>
<!-- Pasture 1(26)
[0.2223]&#45;&gt;Riparian forest 1(30)
[0.5069] -->
<g id="edge30" class="edge">
<title>Pasture 1(26)
[0.2223]&#45;&gt;Riparian forest 1(30)
[0.5069]</title>
<path fill="none" stroke="black" d="M1862.48,-453.88C1864.16,-427.91 1862.34,-388.42 1840.28,-364.22 1820.47,-342.5 1752.94,-326.19 1695,-315.79"/>
<polygon fill="black" stroke="black" points="1695.51,-312.32 1685.05,-314.04 1694.3,-319.22 1695.51,-312.32"/>
</g>
<!-- Pasture 2(27)
[0.07877] -->
<g id="node32" class="node">
<title>Pasture 2(27)
[0.07877]</title>
<ellipse fill="none" stroke="black" cx="889.28" cy="-750.05" rx="62.87" ry="26.74"/>
<text text-anchor="middle" x="889.28" y="-753.85" font-family="Times,serif" font-size="14.00">Pasture 2(27)</text>
<text text-anchor="middle" x="889.28" y="-738.85" font-family="Times,serif" font-size="14.00">[0.07877]</text>
</g>
<!-- Pasture 2(27)
[0.07877]&#45;&gt;Riparian forest 3(32)
[0.3887] -->
<g id="edge31" class="edge">
<title>Pasture 2(27)
[0.07877]&#45;&gt;Riparian forest 3(32)
[0.3887]</title>
<path fill="none" stroke="black" d="M905.54,-724.07C911.98,-713.14 918.87,-699.92 923.28,-687.18 940.28,-637.96 942.28,-623.64 942.28,-571.57 942.28,-571.57 942.28,-571.57 942.28,-479.83 942.28,-428.07 940.84,-414.43 928.28,-364.22 926.06,-355.37 922.92,-346.07 919.64,-337.45"/>
<polygon fill="black" stroke="black" points="922.85,-336.08 915.91,-328.07 916.35,-338.66 922.85,-336.08"/>
</g>
<!-- Pasture 3(28)
[0.05171] -->
<g id="node33" class="node">
<title>Pasture 3(28)
[0.05171]</title>
<ellipse fill="none" stroke="black" cx="462.28" cy="-480.83" rx="62.87" ry="26.74"/>
<text text-anchor="middle" x="462.28" y="-484.63" font-family="Times,serif" font-size="14.00">Pasture 3(28)</text>
<text text-anchor="middle" x="462.28" y="-469.63" font-family="Times,serif" font-size="14.00">[0.05171]</text>
</g>
<!-- Pasture 3(28)
[0.05171]&#45;&gt;Riparian forest 2(31)
[0.1322] -->
<g id="edge32" class="edge">
<title>Pasture 3(28)
[0.05171]&#45;&gt;Riparian forest 2(31)
[0.1322]</title>
<path fill="none" stroke="black" d="M481.02,-454.9C497.19,-430.09 515.2,-391.83 496.28,-364.22 480.3,-340.92 454.2,-326.39 427.67,-317.34"/>
<polygon fill="black" stroke="black" points="428.48,-313.92 417.89,-314.24 426.37,-320.6 428.48,-313.92"/>
</g>
<!-- Pasture 4(29)
[0.3331] -->
<g id="node34" class="node">
<title>Pasture 4(29)
[0.3331]</title>
<ellipse fill="none" stroke="black" cx="1171.28" cy="-660.31" rx="62.87" ry="26.74"/>
<text text-anchor="middle" x="1171.28" y="-664.11" font-family="Times,serif" font-size="14.00">Pasture 4(29)</text>
<text text-anchor="middle" x="1171.28" y="-649.11" font-family="Times,serif" font-size="14.00">[0.3331]</text>
</g>
<!-- Pasture 4(29)
[0.3331]&#45;&gt;Riparian forest 4(33)
[0.09664] -->
<g id="edge33" class="edge">
<title>Pasture 4(29)
[0.3331]&#45;&gt;Riparian forest 4(33)
[0.09664]</title>
<path fill="none" stroke="black" d="M1188.75,-634.34C1195.3,-623.52 1201.95,-610.38 1205.28,-597.44 1228.64,-506.39 1208.86,-394.63 1195.7,-338.36"/>
<polygon fill="black" stroke="black" points="1199.08,-337.42 1193.34,-328.51 1192.27,-339.06 1199.08,-337.42"/>
</g>
<!-- Road(34)
[0.4417] -->
<g id="node35" class="node">
<title>Road(34)
[0.4417]</title>
<ellipse fill="none" stroke="black" cx="1243.28" cy="-750.05" rx="48.17" ry="26.74"/>
<text text-anchor="middle" x="1243.28" y="-753.85" font-family="Times,serif" font-size="14.00">Road(34)</text>
<text text-anchor="middle" x="1243.28" y="-738.85" font-family="Times,serif" font-size="14.00">[0.4417]</text>
</g>
<!-- Road(34)
[0.4417]&#45;&gt;Riparian forest 4(33)
[0.09664] -->
<g id="edge34" class="edge">
<title>Road(34)
[0.4417]&#45;&gt;Riparian forest 4(33)
[0.09664]</title>
<path fill="none" stroke="black" d="M1247.78,-723.28C1253.4,-688.82 1262.28,-625.8 1262.28,-571.57 1262.28,-571.57 1262.28,-571.57 1262.28,-479.83 1262.28,-426.6 1233.03,-371.11 1210.82,-336.65"/>
<polygon fill="black" stroke="black" points="1213.49,-334.35 1205.06,-327.94 1207.65,-338.21 1213.49,-334.35"/>
</g>
<!-- Triticale(35)
[0.08036] -->
<g id="node36" class="node">
<title>Triticale(35)
[0.08036]</title>
<ellipse fill="none" stroke="black" cx="980.28" cy="-839.79" rx="60.21" ry="26.74"/>
<text text-anchor="middle" x="980.28" y="-843.59" font-family="Times,serif" font-size="14.00">Triticale(35)</text>
<text text-anchor="middle" x="980.28" y="-828.59" font-family="Times,serif" font-size="14.00">[0.08036]</text>
</g>
<!-- Triticale(35)
[0.08036]&#45;&gt;Riparian forest 3(32)
[0.3887] -->
<g id="edge35" class="edge">
<title>Triticale(35)
[0.08036]&#45;&gt;Riparian forest 3(32)
[0.3887]</title>
<path fill="none" stroke="black" d="M980.28,-812.63C980.28,-778.01 980.28,-715.08 980.28,-661.31 980.28,-661.31 980.28,-661.31 980.28,-479.83 980.28,-426.52 971.18,-412.36 948.28,-364.22 943.64,-354.48 937.47,-344.64 931.22,-335.77"/>
<polygon fill="black" stroke="black" points="933.98,-333.6 925.26,-327.59 928.32,-337.73 933.98,-333.6"/>
</g>
<!-- Unknown structure(36)
[0.073] -->
<g id="node37" class="node">
<title>Unknown structure(36)
[0.073]</title>
<ellipse fill="none" stroke="black" cx="1950.28" cy="-570.57" rx="101.23" ry="26.74"/>
<text text-anchor="middle" x="1950.28" y="-574.37" font-family="Times,serif" font-size="14.00">Unknown structure(36)</text>
<text text-anchor="middle" x="1950.28" y="-559.37" font-family="Times,serif" font-size="14.00">[0.073]</text>
</g>
<!-- Unknown structure(36)
[0.073]&#45;&gt;Riparian forest 1(30)
[0.5069] -->
<g id="edge36" class="edge">
<title>Unknown structure(36)
[0.073]&#45;&gt;Riparian forest 1(30)
[0.5069]</title>
<path fill="none" stroke="black" d="M1949.45,-543.35C1947.89,-519.27 1943.51,-483.02 1931.28,-453.96 1912.06,-408.33 1906.57,-391.53 1865.28,-364.22 1817.4,-332.56 1755.16,-317.04 1703.36,-309.46"/>
<polygon fill="black" stroke="black" points="1703.53,-305.95 1693.14,-308.04 1702.57,-312.88 1703.53,-305.95"/>
</g>
<!-- Wheat 1(37)
[0.106] -->
<g id="node38" class="node">
<title>Wheat 1(37)
[0.106]</title>
<ellipse fill="none" stroke="black" cx="527.28" cy="-570.57" rx="60.62" ry="26.74"/>
<text text-anchor="middle" x="527.28" y="-574.37" font-family="Times,serif" font-size="14.00">Wheat 1(37)</text>
<text text-anchor="middle" x="527.28" y="-559.37" font-family="Times,serif" font-size="14.00">[0.106]</text>
</g>
<!-- Wheat 1(37)
[0.106]&#45;&gt;Riparian forest 2(31)
[0.1322] -->
<g id="edge37" class="edge">
<title>Wheat 1(37)
[0.106]&#45;&gt;Riparian forest 2(31)
[0.1322]</title>
<path fill="none" stroke="black" d="M534.76,-543.77C545.51,-500.78 559.48,-414.28 515.28,-364.22 493.48,-339.53 461.34,-324.69 430.28,-315.77"/>
<polygon fill="black" stroke="black" points="430.82,-312.29 420.25,-313.08 429,-319.05 430.82,-312.29"/>
</g>
<!-- Wheat 2(38)
[0.2234] -->
<g id="node39" class="node">
<title>Wheat 2(38)
[0.2234]</title>
<ellipse fill="none" stroke="black" cx="1319.28" cy="-839.79" rx="60.62" ry="26.74"/>
<text text-anchor="middle" x="1319.28" y="-843.59" font-family="Times,serif" font-size="14.00">Wheat 2(38)</text>
<text text-anchor="middle" x="1319.28" y="-828.59" font-family="Times,serif" font-size="14.00">[0.2234]</text>
</g>
<!-- Wheat 2(38)
[0.2234]&#45;&gt;Riparian forest 4(33)
[0.09664] -->
<g id="edge38" class="edge">
<title>Wheat 2(38)
[0.2234]&#45;&gt;Riparian forest 4(33)
[0.09664]</title>
<path fill="none" stroke="black" d="M1319.28,-812.63C1319.28,-778.01 1319.28,-715.08 1319.28,-661.31 1319.28,-661.31 1319.28,-661.31 1319.28,-479.83 1319.28,-418.54 1267.86,-364.85 1228.96,-333.01"/>
<polygon fill="black" stroke="black" points="1230.87,-330.05 1220.87,-326.55 1226.5,-335.52 1230.87,-330.05"/>
</g>
<!-- Wheat 3(39)
[0.1576] -->
<g id="node40" class="node">
<title>Wheat 3(39)
[0.1576]</title>
<ellipse fill="none" stroke="black" cx="616.28" cy="-660.31" rx="60.62" ry="26.74"/>
<text text-anchor="middle" x="616.28" y="-664.11" font-family="Times,serif" font-size="14.00">Wheat 3(39)</text>
<text text-anchor="middle" x="616.28" y="-649.11" font-family="Times,serif" font-size="14.00">[0.1576]</text>
</g>
<!-- Wheat 3(39)
[0.1576]&#45;&gt;Riparian forest 2(31)
[0.1322] -->
<g id="edge39" class="edge">
<title>Wheat 3(39)
[0.1576]&#45;&gt;Riparian forest 2(31)
[0.1322]</title>
<path fill="none" stroke="black" d="M617.97,-633.39C620.2,-576.23 616.99,-438.52 542.28,-364.22 513.65,-335.76 472.48,-320.3 434.45,-311.94"/>
<polygon fill="black" stroke="black" points="434.84,-308.45 424.34,-309.87 433.43,-315.31 434.84,-308.45"/>
</g>
</g>
</svg>
