<?xml version="1.0" encoding="UTF-8" standalone="no"?>
<!DOCTYPE svg PUBLIC "-//W3C//DTD SVG 1.1//EN"
 "http://www.w3.org/Graphics/SVG/1.1/DTD/svg11.dtd">
<!-- Generated by graphviz version 2.43.0 (0)
 -->
<!-- Title: TEST Pages: 1 -->
<svg width="852pt" height="516pt"
 viewBox="0.00 0.00 852.09 515.70" xmlns="http://www.w3.org/2000/svg" xmlns:xlink="http://www.w3.org/1999/xlink">
<g id="graph0" class="graph" transform="scale(1 1) rotate(0) translate(4 511.7)">
<title>TEST</title>
<polygon fill="white" stroke="transparent" points="-4,4 -4,-511.7 848.09,-511.7 848.09,4 -4,4"/>
<text text-anchor="middle" x="422.04" y="-7.8" font-family="Times,serif" font-size="14.00">J_pankiw_test_model_setup1_GrpJ</text>
<!-- Alfalfa_1(1)
[0.05979] -->
<g id="node1" class="node">
<title>Alfalfa_1(1)
[0.05979]</title>
<ellipse fill="none" stroke="black" cx="229.4" cy="-211.61" rx="59.29" ry="26.74"/>
<text text-anchor="middle" x="229.4" y="-215.41" font-family="Times,serif" font-size="14.00">Alfalfa_1(1)</text>
<text text-anchor="middle" x="229.4" y="-200.41" font-family="Times,serif" font-size="14.00">[0.05979]</text>
</g>
<!-- Reservoir(7)
[0.005] -->
<g id="node2" class="node">
<title>Reservoir(7)
[0.005]</title>
<ellipse fill="none" stroke="black" cx="361.4" cy="-121.87" rx="60.21" ry="26.74"/>
<text text-anchor="middle" x="361.4" y="-125.67" font-family="Times,serif" font-size="14.00">Reservoir(7)</text>
<text text-anchor="middle" x="361.4" y="-110.67" font-family="Times,serif" font-size="14.00">[0.005]</text>
</g>
<!-- Alfalfa_1(1)
[0.05979]&#45;&gt;Reservoir(7)
[0.005] -->
<g id="edge1" class="edge">
<title>Alfalfa_1(1)
[0.05979]&#45;&gt;Reservoir(7)
[0.005]</title>
<path fill="none" stroke="black" d="M262.03,-188.92C279.64,-177.22 301.55,-162.65 320.31,-150.18"/>
<polygon fill="black" stroke="black" points="322.3,-153.06 328.69,-144.61 318.42,-147.23 322.3,-153.06"/>
</g>
<!-- basin -->
<g id="node3" class="node">
<title>basin</title>
<ellipse fill="none" stroke="black" cx="361.4" cy="-41" rx="29.5" ry="18"/>
<text text-anchor="middle" x="361.4" y="-37.3" font-family="Times,serif" font-size="14.00">basin</text>
</g>
<!-- Reservoir(7)
[0.005]&#45;&gt;basin -->
<g id="edge2" class="edge">
<title>Reservoir(7)
[0.005]&#45;&gt;basin</title>
<path fill="none" stroke="black" d="M361.4,-94.61C361.4,-86.51 361.4,-77.57 361.4,-69.39"/>
<polygon fill="black" stroke="black" points="364.9,-69.22 361.4,-59.22 357.9,-69.22 364.9,-69.22"/>
</g>
<!-- Alfalfa_2(2)
[0.002697] -->
<g id="node4" class="node">
<title>Alfalfa_2(2)
[0.002697]</title>
<ellipse fill="none" stroke="black" cx="59.4" cy="-301.35" rx="59.29" ry="26.74"/>
<text text-anchor="middle" x="59.4" y="-305.15" font-family="Times,serif" font-size="14.00">Alfalfa_2(2)</text>
<text text-anchor="middle" x="59.4" y="-290.15" font-family="Times,serif" font-size="14.00">[0.002697]</text>
</g>
<!-- Channel(5)
[0.01] -->
<g id="node5" class="node">
<title>Channel(5)
[0.01]</title>
<ellipse fill="none" stroke="black" cx="361.4" cy="-211.61" rx="54.39" ry="26.74"/>
<text text-anchor="middle" x="361.4" y="-215.41" font-family="Times,serif" font-size="14.00">Channel(5)</text>
<text text-anchor="middle" x="361.4" y="-200.41" font-family="Times,serif" font-size="14.00">[0.01]</text>
</g>
<!-- Alfalfa_2(2)
[0.002697]&#45;&gt;Channel(5)
[0.01] -->
<g id="edge3" class="edge">
<title>Alfalfa_2(2)
[0.002697]&#45;&gt;Channel(5)
[0.01]</title>
<path fill="none" stroke="black" d="M102.59,-282.77C110.75,-279.78 119.28,-276.87 127.4,-274.48 201.49,-252.68 223.53,-261.04 297.4,-238.48 302.22,-237.01 307.18,-235.32 312.11,-233.53"/>
<polygon fill="black" stroke="black" points="313.38,-236.79 321.5,-229.99 310.91,-230.24 313.38,-236.79"/>
</g>
<!-- Channel(5)
[0.01]&#45;&gt;Reservoir(7)
[0.005] -->
<g id="edge4" class="edge">
<title>Channel(5)
[0.01]&#45;&gt;Reservoir(7)
[0.005]</title>
<path fill="none" stroke="black" d="M361.4,-184.29C361.4,-176.32 361.4,-167.43 361.4,-158.94"/>
<polygon fill="black" stroke="black" points="364.9,-158.87 361.4,-148.87 357.9,-158.87 364.9,-158.87"/>
</g>
<!-- Canola_1(3)
[0.751] -->
<g id="node6" class="node">
<title>Canola_1(3)
[0.751]</title>
<ellipse fill="none" stroke="black" cx="649.4" cy="-301.35" rx="59.29" ry="26.74"/>
<text text-anchor="middle" x="649.4" y="-305.15" font-family="Times,serif" font-size="14.00">Canola_1(3)</text>
<text text-anchor="middle" x="649.4" y="-290.15" font-family="Times,serif" font-size="14.00">[0.751]</text>
</g>
<!-- Riparian_forest_1(9)
[0.04763] -->
<g id="node7" class="node">
<title>Riparian_forest_1(9)
[0.04763]</title>
<ellipse fill="none" stroke="black" cx="649.4" cy="-211.61" rx="91.85" ry="26.74"/>
<text text-anchor="middle" x="649.4" y="-215.41" font-family="Times,serif" font-size="14.00">Riparian_forest_1(9)</text>
<text text-anchor="middle" x="649.4" y="-200.41" font-family="Times,serif" font-size="14.00">[0.04763]</text>
</g>
<!-- Canola_1(3)
[0.751]&#45;&gt;Riparian_forest_1(9)
[0.04763] -->
<g id="edge5" class="edge">
<title>Canola_1(3)
[0.751]&#45;&gt;Riparian_forest_1(9)
[0.04763]</title>
<path fill="none" stroke="black" d="M649.4,-274.03C649.4,-266.06 649.4,-257.17 649.4,-248.68"/>
<polygon fill="black" stroke="black" points="652.9,-248.61 649.4,-238.61 645.9,-248.61 652.9,-248.61"/>
</g>
<!-- Riparian_forest_1(9)
[0.04763]&#45;&gt;Reservoir(7)
[0.005] -->
<g id="edge6" class="edge">
<title>Riparian_forest_1(9)
[0.04763]&#45;&gt;Reservoir(7)
[0.005]</title>
<path fill="none" stroke="black" d="M587.26,-191.68C537.6,-176.55 468.49,-155.5 419.83,-140.67"/>
<polygon fill="black" stroke="black" points="420.67,-137.27 410.08,-137.7 418.63,-143.96 420.67,-137.27"/>
</g>
<!-- Fescue_(grass_seed)_1(4)
[0.05789] -->
<g id="node8" class="node">
<title>Fescue_(grass_seed)_1(4)
[0.05789]</title>
<ellipse fill="none" stroke="black" cx="248.4" cy="-301.35" rx="111.95" ry="26.74"/>
<text text-anchor="middle" x="248.4" y="-305.15" font-family="Times,serif" font-size="14.00">Fescue_(grass_seed)_1(4)</text>
<text text-anchor="middle" x="248.4" y="-290.15" font-family="Times,serif" font-size="14.00">[0.05789]</text>
</g>
<!-- Fescue_(grass_seed)_1(4)
[0.05789]&#45;&gt;Channel(5)
[0.01] -->
<g id="edge7" class="edge">
<title>Fescue_(grass_seed)_1(4)
[0.05789]&#45;&gt;Channel(5)
[0.01]</title>
<path fill="none" stroke="black" d="M280.48,-275.44C294.33,-264.68 310.61,-252.04 324.92,-240.93"/>
<polygon fill="black" stroke="black" points="327.34,-243.49 333.09,-234.59 323.04,-237.96 327.34,-243.49"/>
</g>
<!-- Flax/Linola_1(6)
[0.06004] -->
<g id="node9" class="node">
<title>Flax/Linola_1(6)
[0.06004]</title>
<ellipse fill="none" stroke="black" cx="337.4" cy="-480.83" rx="77.15" ry="26.74"/>
<text text-anchor="middle" x="337.4" y="-484.63" font-family="Times,serif" font-size="14.00">Flax/Linola_1(6)</text>
<text text-anchor="middle" x="337.4" y="-469.63" font-family="Times,serif" font-size="14.00">[0.06004]</text>
</g>
<!-- Flax/Linola_1(6)
[0.06004]&#45;&gt;Flax/Linola_1(6)
[0.06004] -->
<g id="edge8" class="edge">
<title>Flax/Linola_1(6)
[0.06004]&#45;&gt;Flax/Linola_1(6)
[0.06004]</title>
<path fill="none" stroke="black" d="M398.66,-497.31C417.6,-496.98 432.47,-491.49 432.47,-480.83 432.47,-472.17 422.65,-466.92 408.82,-465.08"/>
<polygon fill="black" stroke="black" points="408.89,-461.57 398.66,-464.35 408.39,-468.56 408.89,-461.57"/>
</g>
<!-- Wheat_1(13)
[0.09569] -->
<g id="node10" class="node">
<title>Wheat_1(13)
[0.09569]</title>
<ellipse fill="none" stroke="black" cx="337.4" cy="-391.09" rx="62.87" ry="26.74"/>
<text text-anchor="middle" x="337.4" y="-394.89" font-family="Times,serif" font-size="14.00">Wheat_1(13)</text>
<text text-anchor="middle" x="337.4" y="-379.89" font-family="Times,serif" font-size="14.00">[0.09569]</text>
</g>
<!-- Flax/Linola_1(6)
[0.06004]&#45;&gt;Wheat_1(13)
[0.09569] -->
<g id="edge9" class="edge">
<title>Flax/Linola_1(6)
[0.06004]&#45;&gt;Wheat_1(13)
[0.09569]</title>
<path fill="none" stroke="black" d="M337.4,-453.51C337.4,-445.54 337.4,-436.65 337.4,-428.16"/>
<polygon fill="black" stroke="black" points="340.9,-428.09 337.4,-418.09 333.9,-428.09 340.9,-428.09"/>
</g>
<!-- Riparian_forest_2(10)
[0.1034] -->
<g id="node11" class="node">
<title>Riparian_forest_2(10)
[0.1034]</title>
<ellipse fill="none" stroke="black" cx="475.4" cy="-301.35" rx="96.75" ry="26.74"/>
<text text-anchor="middle" x="475.4" y="-305.15" font-family="Times,serif" font-size="14.00">Riparian_forest_2(10)</text>
<text text-anchor="middle" x="475.4" y="-290.15" font-family="Times,serif" font-size="14.00">[0.1034]</text>
</g>
<!-- Wheat_1(13)
[0.09569]&#45;&gt;Riparian_forest_2(10)
[0.1034] -->
<g id="edge10" class="edge">
<title>Wheat_1(13)
[0.09569]&#45;&gt;Riparian_forest_2(10)
[0.1034]</title>
<path fill="none" stroke="black" d="M371.51,-368.4C388.95,-357.31 410.43,-343.66 429.32,-331.64"/>
<polygon fill="black" stroke="black" points="431.24,-334.58 437.8,-326.26 427.48,-328.67 431.24,-334.58"/>
</g>
<!-- Riparian_forest_2(10)
[0.1034]&#45;&gt;Channel(5)
[0.01] -->
<g id="edge12" class="edge">
<title>Riparian_forest_2(10)
[0.1034]&#45;&gt;Channel(5)
[0.01]</title>
<path fill="none" stroke="black" d="M443.64,-275.91C429.41,-264.96 412.55,-251.98 397.81,-240.64"/>
<polygon fill="black" stroke="black" points="399.93,-237.85 389.87,-234.52 395.66,-243.4 399.93,-237.85"/>
</g>
<!-- Forage_1(8)
[0.01628] -->
<g id="node12" class="node">
<title>Forage_1(8)
[0.01628]</title>
<ellipse fill="none" stroke="black" cx="785.4" cy="-301.35" rx="58.88" ry="26.74"/>
<text text-anchor="middle" x="785.4" y="-305.15" font-family="Times,serif" font-size="14.00">Forage_1(8)</text>
<text text-anchor="middle" x="785.4" y="-290.15" font-family="Times,serif" font-size="14.00">[0.01628]</text>
</g>
<!-- Forage_1(8)
[0.01628]&#45;&gt;Riparian_forest_1(9)
[0.04763] -->
<g id="edge11" class="edge">
<title>Forage_1(8)
[0.01628]&#45;&gt;Riparian_forest_1(9)
[0.04763]</title>
<path fill="none" stroke="black" d="M752.13,-278.89C734.81,-267.71 713.38,-253.89 694.58,-241.76"/>
<polygon fill="black" stroke="black" points="696.45,-238.8 686.15,-236.32 692.65,-244.68 696.45,-238.8"/>
</g>
<!-- Road_1(11)
[0.0253] -->
<g id="node13" class="node">
<title>Road_1(11)
[0.0253]</title>
<ellipse fill="none" stroke="black" cx="475.4" cy="-391.09" rx="57.05" ry="26.74"/>
<text text-anchor="middle" x="475.4" y="-394.89" font-family="Times,serif" font-size="14.00">Road_1(11)</text>
<text text-anchor="middle" x="475.4" y="-379.89" font-family="Times,serif" font-size="14.00">[0.0253]</text>
</g>
<!-- Road_1(11)
[0.0253]&#45;&gt;Riparian_forest_2(10)
[0.1034] -->
<g id="edge13" class="edge">
<title>Road_1(11)
[0.0253]&#45;&gt;Riparian_forest_2(10)
[0.1034]</title>
<path fill="none" stroke="black" d="M475.4,-363.77C475.4,-355.8 475.4,-346.91 475.4,-338.42"/>
<polygon fill="black" stroke="black" points="478.9,-338.35 475.4,-328.35 471.9,-338.35 478.9,-338.35"/>
</g>
<!-- Impervious(12)
[0.02168] -->
<g id="node14" class="node">
<title>Impervious(12)
[0.02168]</title>
<ellipse fill="none" stroke="black" cx="622.4" cy="-391.09" rx="71.34" ry="26.74"/>
<text text-anchor="middle" x="622.4" y="-394.89" font-family="Times,serif" font-size="14.00">Impervious(12)</text>
<text text-anchor="middle" x="622.4" y="-379.89" font-family="Times,serif" font-size="14.00">[0.02168]</text>
</g>
<!-- Impervious(12)
[0.02168]&#45;&gt;Riparian_forest_2(10)
[0.1034] -->
<g id="edge14" class="edge">
<title>Impervious(12)
[0.02168]&#45;&gt;Riparian_forest_2(10)
[0.1034]</title>
<path fill="none" stroke="black" d="M585.3,-367.95C566.63,-356.81 543.77,-343.16 523.74,-331.2"/>
<polygon fill="black" stroke="black" points="525.44,-328.14 515.06,-326.02 521.85,-334.15 525.44,-328.14"/>
</g>
</g>
</svg>
