<?xml version="1.0" encoding="UTF-8" standalone="no"?>
<!DOCTYPE svg PUBLIC "-//W3C//DTD SVG 1.1//EN"
 "http://www.w3.org/Graphics/SVG/1.1/DTD/svg11.dtd">
<!-- Generated by graphviz version 2.43.0 (0)
 -->
<!-- Title: TEST Pages: 1 -->
<svg width="946pt" height="336pt"
 viewBox="0.00 0.00 945.57 336.22" xmlns="http://www.w3.org/2000/svg" xmlns:xlink="http://www.w3.org/1999/xlink">
<g id="graph0" class="graph" transform="scale(1 1) rotate(0) translate(4 332.22)">
<title>TEST</title>
<polygon fill="white" stroke="transparent" points="-4,4 -4,-332.22 941.57,-332.22 941.57,4 -4,4"/>
<text text-anchor="middle" x="468.79" y="-7.8" font-family="Times,serif" font-size="14.00">L_se2_project_GrpL</text>
<!-- Corn(2)
&lt;1&gt;[0.4873] -->
<g id="node1" class="node">
<title>Corn(2)
&lt;1&gt;[0.4873]</title>
<ellipse fill="none" stroke="black" cx="60.81" cy="-301.35" rx="60.62" ry="26.74"/>
<text text-anchor="middle" x="60.81" y="-305.15" font-family="Times,serif" font-size="14.00">Corn(2)</text>
<text text-anchor="middle" x="60.81" y="-290.15" font-family="Times,serif" font-size="14.00">&lt;1&gt;[0.4873]</text>
</g>
<!-- Channel(7)
&lt;7&gt;[0.01] -->
<g id="node2" class="node">
<title>Channel(7)
&lt;7&gt;[0.01]</title>
<ellipse fill="none" stroke="black" cx="468.81" cy="-211.61" rx="54.39" ry="26.74"/>
<text text-anchor="middle" x="468.81" y="-215.41" font-family="Times,serif" font-size="14.00">Channel(7)</text>
<text text-anchor="middle" x="468.81" y="-200.41" font-family="Times,serif" font-size="14.00">&lt;7&gt;[0.01]</text>
</g>
<!-- Corn(2)
&lt;1&gt;[0.4873]&#45;&gt;Channel(7)
&lt;7&gt;[0.01] -->
<g id="edge1" class="edge">
<title>Corn(2)
&lt;1&gt;[0.4873]&#45;&gt;Channel(7)
&lt;7&gt;[0.01]</title>
<path fill="none" stroke="black" d="M104.87,-282.75C113.39,-279.73 122.31,-276.81 130.81,-274.48 225.35,-248.57 337.78,-230.43 406.18,-220.76"/>
<polygon fill="black" stroke="black" points="406.94,-224.19 416.36,-219.34 405.97,-217.26 406.94,-224.19"/>
</g>
<!-- Reservoir(5)
&lt;9&gt;[0.01] -->
<g id="node3" class="node">
<title>Reservoir(5)
&lt;9&gt;[0.01]</title>
<ellipse fill="none" stroke="black" cx="468.81" cy="-121.87" rx="60.21" ry="26.74"/>
<text text-anchor="middle" x="468.81" y="-125.67" font-family="Times,serif" font-size="14.00">Reservoir(5)</text>
<text text-anchor="middle" x="468.81" y="-110.67" font-family="Times,serif" font-size="14.00">&lt;9&gt;[0.01]</text>
</g>
<!-- Channel(7)
&lt;7&gt;[0.01]&#45;&gt;Reservoir(5)
&lt;9&gt;[0.01] -->
<g id="edge2" class="edge">
<title>Channel(7)
&lt;7&gt;[0.01]&#45;&gt;Reservoir(5)
&lt;9&gt;[0.01]</title>
<path fill="none" stroke="black" d="M468.81,-184.29C468.81,-176.32 468.81,-167.43 468.81,-158.94"/>
<polygon fill="black" stroke="black" points="472.31,-158.87 468.81,-148.87 465.31,-158.87 472.31,-158.87"/>
</g>
<!-- basin -->
<g id="node7" class="node">
<title>basin</title>
<ellipse fill="none" stroke="black" cx="540.81" cy="-41" rx="29.5" ry="18"/>
<text text-anchor="middle" x="540.81" y="-37.3" font-family="Times,serif" font-size="14.00">basin</text>
</g>
<!-- Reservoir(5)
&lt;9&gt;[0.01]&#45;&gt;basin -->
<g id="edge6" class="edge">
<title>Reservoir(5)
&lt;9&gt;[0.01]&#45;&gt;basin</title>
<path fill="none" stroke="black" d="M490.8,-96.78C500.07,-86.63 510.81,-74.87 519.95,-64.85"/>
<polygon fill="black" stroke="black" points="522.72,-67 526.88,-57.26 517.55,-62.29 522.72,-67"/>
</g>
<!-- Flax/Linola(3)
&lt;2&gt;[0.002833] -->
<g id="node4" class="node">
<title>Flax/Linola(3)
&lt;2&gt;[0.002833]</title>
<ellipse fill="none" stroke="black" cx="210.81" cy="-301.35" rx="70.92" ry="26.74"/>
<text text-anchor="middle" x="210.81" y="-305.15" font-family="Times,serif" font-size="14.00">Flax/Linola(3)</text>
<text text-anchor="middle" x="210.81" y="-290.15" font-family="Times,serif" font-size="14.00">&lt;2&gt;[0.002833]</text>
</g>
<!-- Flax/Linola(3)
&lt;2&gt;[0.002833]&#45;&gt;Channel(7)
&lt;7&gt;[0.01] -->
<g id="edge3" class="edge">
<title>Flax/Linola(3)
&lt;2&gt;[0.002833]&#45;&gt;Channel(7)
&lt;7&gt;[0.01]</title>
<path fill="none" stroke="black" d="M262.4,-282.81C306.65,-267.76 370.19,-246.15 415.05,-230.89"/>
<polygon fill="black" stroke="black" points="416.27,-234.17 424.61,-227.64 414.02,-227.55 416.27,-234.17"/>
</g>
<!-- Riparian forest(4)
&lt;3&gt;[0.2065] -->
<g id="node5" class="node">
<title>Riparian forest(4)
&lt;3&gt;[0.2065]</title>
<ellipse fill="none" stroke="black" cx="379.81" cy="-301.35" rx="79.81" ry="26.74"/>
<text text-anchor="middle" x="379.81" y="-305.15" font-family="Times,serif" font-size="14.00">Riparian forest(4)</text>
<text text-anchor="middle" x="379.81" y="-290.15" font-family="Times,serif" font-size="14.00">&lt;3&gt;[0.2065]</text>
</g>
<!-- Riparian forest(4)
&lt;3&gt;[0.2065]&#45;&gt;Channel(7)
&lt;7&gt;[0.01] -->
<g id="edge4" class="edge">
<title>Riparian forest(4)
&lt;3&gt;[0.2065]&#45;&gt;Channel(7)
&lt;7&gt;[0.01]</title>
<path fill="none" stroke="black" d="M405.08,-275.44C415.27,-265.4 427.12,-253.71 437.82,-243.16"/>
<polygon fill="black" stroke="black" points="440.35,-245.59 445.01,-236.07 435.43,-240.6 440.35,-245.59"/>
</g>
<!-- Riparian forest(6)
&lt;4&gt;[0.09536] -->
<g id="node6" class="node">
<title>Riparian forest(6)
&lt;4&gt;[0.09536]</title>
<ellipse fill="none" stroke="black" cx="557.81" cy="-301.35" rx="79.81" ry="26.74"/>
<text text-anchor="middle" x="557.81" y="-305.15" font-family="Times,serif" font-size="14.00">Riparian forest(6)</text>
<text text-anchor="middle" x="557.81" y="-290.15" font-family="Times,serif" font-size="14.00">&lt;4&gt;[0.09536]</text>
</g>
<!-- Riparian forest(6)
&lt;4&gt;[0.09536]&#45;&gt;Channel(7)
&lt;7&gt;[0.01] -->
<g id="edge5" class="edge">
<title>Riparian forest(6)
&lt;4&gt;[0.09536]&#45;&gt;Channel(7)
&lt;7&gt;[0.01]</title>
<path fill="none" stroke="black" d="M532.55,-275.44C522.36,-265.4 510.5,-253.71 499.8,-243.16"/>
<polygon fill="black" stroke="black" points="502.19,-240.6 492.61,-236.07 497.27,-245.59 502.19,-240.6"/>
</g>
<!-- Road(8)
&lt;5&gt;[0.06977] -->
<g id="node8" class="node">
<title>Road(8)
&lt;5&gt;[0.06977]</title>
<ellipse fill="none" stroke="black" cx="721.81" cy="-301.35" rx="65.52" ry="26.74"/>
<text text-anchor="middle" x="721.81" y="-305.15" font-family="Times,serif" font-size="14.00">Road(8)</text>
<text text-anchor="middle" x="721.81" y="-290.15" font-family="Times,serif" font-size="14.00">&lt;5&gt;[0.06977]</text>
</g>
<!-- Road(8)
&lt;5&gt;[0.06977]&#45;&gt;Channel(7)
&lt;7&gt;[0.01] -->
<g id="edge7" class="edge">
<title>Road(8)
&lt;5&gt;[0.06977]&#45;&gt;Channel(7)
&lt;7&gt;[0.01]</title>
<path fill="none" stroke="black" d="M672.72,-283.4C628.6,-268.17 567.11,-246.93 542.81,-238.48 536.01,-236.11 528.85,-233.62 521.78,-231.15"/>
<polygon fill="black" stroke="black" points="522.83,-227.81 512.24,-227.82 520.52,-234.42 522.83,-227.81"/>
</g>
<!-- Wheat 1(9)
&lt;6&gt;[0.02826] -->
<g id="node9" class="node">
<title>Wheat 1(9)
&lt;6&gt;[0.02826]</title>
<ellipse fill="none" stroke="black" cx="871.81" cy="-301.35" rx="65.52" ry="26.74"/>
<text text-anchor="middle" x="871.81" y="-305.15" font-family="Times,serif" font-size="14.00">Wheat 1(9)</text>
<text text-anchor="middle" x="871.81" y="-290.15" font-family="Times,serif" font-size="14.00">&lt;6&gt;[0.02826]</text>
</g>
<!-- Wheat 1(9)
&lt;6&gt;[0.02826]&#45;&gt;Channel(7)
&lt;7&gt;[0.01] -->
<g id="edge8" class="edge">
<title>Wheat 1(9)
&lt;6&gt;[0.02826]&#45;&gt;Channel(7)
&lt;7&gt;[0.01]</title>
<path fill="none" stroke="black" d="M824.61,-282.54C815.48,-279.53 805.92,-276.67 796.81,-274.48 685.97,-247.77 653.6,-265.42 542.81,-238.48 535.46,-236.69 527.8,-234.46 520.33,-232.06"/>
<polygon fill="black" stroke="black" points="521.24,-228.67 510.65,-228.83 519.03,-235.31 521.24,-228.67"/>
</g>
<!-- Wheat 2(10)
&lt;8&gt;[0.2753] -->
<g id="node10" class="node">
<title>Wheat 2(10)
&lt;8&gt;[0.2753]</title>
<ellipse fill="none" stroke="black" cx="612.81" cy="-211.61" rx="60.62" ry="26.74"/>
<text text-anchor="middle" x="612.81" y="-215.41" font-family="Times,serif" font-size="14.00">Wheat 2(10)</text>
<text text-anchor="middle" x="612.81" y="-200.41" font-family="Times,serif" font-size="14.00">&lt;8&gt;[0.2753]</text>
</g>
<!-- Canola(1)
&lt;10&gt;[0.4184] -->
<g id="node11" class="node">
<title>Canola(1)
&lt;10&gt;[0.4184]</title>
<ellipse fill="none" stroke="black" cx="612.81" cy="-121.87" rx="65.52" ry="26.74"/>
<text text-anchor="middle" x="612.81" y="-125.67" font-family="Times,serif" font-size="14.00">Canola(1)</text>
<text text-anchor="middle" x="612.81" y="-110.67" font-family="Times,serif" font-size="14.00">&lt;10&gt;[0.4184]</text>
</g>
<!-- Wheat 2(10)
&lt;8&gt;[0.2753]&#45;&gt;Canola(1)
&lt;10&gt;[0.4184] -->
<g id="edge9" class="edge">
<title>Wheat 2(10)
&lt;8&gt;[0.2753]&#45;&gt;Canola(1)
&lt;10&gt;[0.4184]</title>
<path fill="none" stroke="black" d="M612.81,-184.29C612.81,-176.32 612.81,-167.43 612.81,-158.94"/>
<polygon fill="black" stroke="black" points="616.31,-158.87 612.81,-148.87 609.31,-158.87 616.31,-158.87"/>
</g>
<!-- Canola(1)
&lt;10&gt;[0.4184]&#45;&gt;basin -->
<g id="edge10" class="edge">
<title>Canola(1)
&lt;10&gt;[0.4184]&#45;&gt;basin</title>
<path fill="none" stroke="black" d="M590.42,-96.35C581.17,-86.21 570.52,-74.54 561.46,-64.61"/>
<polygon fill="black" stroke="black" points="563.92,-62.12 554.59,-57.09 558.75,-66.84 563.92,-62.12"/>
</g>
</g>
</svg>
