<?xml version="1.0" encoding="UTF-8" standalone="no"?>
<!DOCTYPE svg PUBLIC "-//W3C//DTD SVG 1.1//EN"
 "http://www.w3.org/Graphics/SVG/1.1/DTD/svg11.dtd">
<!-- Generated by graphviz version 2.43.0 (0)
 -->
<!-- Title: TEST Pages: 1 -->
<svg width="1556pt" height="875pt"
 viewBox="0.00 0.00 1555.92 874.66" xmlns="http://www.w3.org/2000/svg" xmlns:xlink="http://www.w3.org/1999/xlink">
<g id="graph0" class="graph" transform="scale(1 1) rotate(0) translate(4 870.66)">
<title>TEST</title>
<polygon fill="white" stroke="transparent" points="-4,4 -4,-870.66 1551.92,-870.66 1551.92,4 -4,4"/>
<text text-anchor="middle" x="773.96" y="-7.8" font-family="Times,serif" font-size="14.00">F_Mid_up2_model_GrpF</text>
<!-- Barley_1(1)
[0.0789] -->
<g id="node1" class="node">
<title>Barley_1(1)
[0.0789]</title>
<ellipse fill="none" stroke="black" cx="57.98" cy="-301.35" rx="57.97" ry="26.74"/>
<text text-anchor="middle" x="57.98" y="-305.15" font-family="Times,serif" font-size="14.00">Barley_1(1)</text>
<text text-anchor="middle" x="57.98" y="-290.15" font-family="Times,serif" font-size="14.00">[0.0789]</text>
</g>
<!-- Reservoir(5)
[0.03] -->
<g id="node2" class="node">
<title>Reservoir(5)
[0.03]</title>
<ellipse fill="none" stroke="black" cx="702.98" cy="-211.61" rx="60.21" ry="26.74"/>
<text text-anchor="middle" x="702.98" y="-215.41" font-family="Times,serif" font-size="14.00">Reservoir(5)</text>
<text text-anchor="middle" x="702.98" y="-200.41" font-family="Times,serif" font-size="14.00">[0.03]</text>
</g>
<!-- Barley_1(1)
[0.0789]&#45;&gt;Reservoir(5)
[0.03] -->
<g id="edge1" class="edge">
<title>Barley_1(1)
[0.0789]&#45;&gt;Reservoir(5)
[0.03]</title>
<path fill="none" stroke="black" d="M100.89,-283.06C110.35,-279.78 120.4,-276.69 129.98,-274.48 308.04,-233.49 523.63,-219.5 632.61,-214.84"/>
<polygon fill="black" stroke="black" points="632.97,-218.33 642.82,-214.42 632.68,-211.34 632.97,-218.33"/>
</g>
<!-- Reservoir(28)
[0.035] -->
<g id="node3" class="node">
<title>Reservoir(28)
[0.035]</title>
<ellipse fill="none" stroke="black" cx="656.98" cy="-121.87" rx="65.11" ry="26.74"/>
<text text-anchor="middle" x="656.98" y="-125.67" font-family="Times,serif" font-size="14.00">Reservoir(28)</text>
<text text-anchor="middle" x="656.98" y="-110.67" font-family="Times,serif" font-size="14.00">[0.035]</text>
</g>
<!-- Reservoir(5)
[0.03]&#45;&gt;Reservoir(28)
[0.035] -->
<g id="edge2" class="edge">
<title>Reservoir(5)
[0.03]&#45;&gt;Reservoir(28)
[0.035]</title>
<path fill="none" stroke="black" d="M689.68,-185.23C685.1,-176.5 679.9,-166.58 675.01,-157.25"/>
<polygon fill="black" stroke="black" points="678,-155.42 670.26,-148.19 671.8,-158.67 678,-155.42"/>
</g>
<!-- basin -->
<g id="node4" class="node">
<title>basin</title>
<ellipse fill="none" stroke="black" cx="702.98" cy="-41" rx="29.5" ry="18"/>
<text text-anchor="middle" x="702.98" y="-37.3" font-family="Times,serif" font-size="14.00">basin</text>
</g>
<!-- Reservoir(5)
[0.03]&#45;&gt;basin -->
<g id="edge3" class="edge">
<title>Reservoir(5)
[0.03]&#45;&gt;basin</title>
<path fill="none" stroke="black" d="M717.4,-185.26C722.79,-174.38 728.27,-161.3 730.98,-148.74 736.02,-125.39 736.73,-118.18 730.98,-95 728.56,-85.21 723.95,-75.23 719.17,-66.62"/>
<polygon fill="black" stroke="black" points="722.1,-64.7 714,-57.87 716.08,-68.26 722.1,-64.7"/>
</g>
<!-- Reservoir(28)
[0.035]&#45;&gt;basin -->
<g id="edge4" class="edge">
<title>Reservoir(28)
[0.035]&#45;&gt;basin</title>
<path fill="none" stroke="black" d="M671.79,-95.48C677.15,-86.29 683.19,-75.94 688.52,-66.8"/>
<polygon fill="black" stroke="black" points="691.54,-68.56 693.56,-58.16 685.49,-65.04 691.54,-68.56"/>
</g>
<!-- Barley_2(2)
[0.09911] -->
<g id="node5" class="node">
<title>Barley_2(2)
[0.09911]</title>
<ellipse fill="none" stroke="black" cx="119.98" cy="-391.09" rx="57.97" ry="26.74"/>
<text text-anchor="middle" x="119.98" y="-394.89" font-family="Times,serif" font-size="14.00">Barley_2(2)</text>
<text text-anchor="middle" x="119.98" y="-379.89" font-family="Times,serif" font-size="14.00">[0.09911]</text>
</g>
<!-- Barley_2(2)
[0.09911]&#45;&gt;Reservoir(5)
[0.03] -->
<g id="edge5" class="edge">
<title>Barley_2(2)
[0.09911]&#45;&gt;Reservoir(5)
[0.03]</title>
<path fill="none" stroke="black" d="M128.52,-364.1C138.93,-336.9 159.28,-295.31 191.98,-274.48 263.55,-228.89 510.15,-216.89 632.71,-213.74"/>
<polygon fill="black" stroke="black" points="632.83,-217.24 642.74,-213.49 632.66,-210.24 632.83,-217.24"/>
</g>
<!-- Barley_3(3)
[0.1576] -->
<g id="node6" class="node">
<title>Barley_3(3)
[0.1576]</title>
<ellipse fill="none" stroke="black" cx="157.98" cy="-480.83" rx="57.97" ry="26.74"/>
<text text-anchor="middle" x="157.98" y="-484.63" font-family="Times,serif" font-size="14.00">Barley_3(3)</text>
<text text-anchor="middle" x="157.98" y="-469.63" font-family="Times,serif" font-size="14.00">[0.1576]</text>
</g>
<!-- Barley_3(3)
[0.1576]&#45;&gt;Reservoir(5)
[0.03] -->
<g id="edge6" class="edge">
<title>Barley_3(3)
[0.1576]&#45;&gt;Reservoir(5)
[0.03]</title>
<path fill="none" stroke="black" d="M170.83,-454.61C176.21,-443.53 182.29,-430.26 186.98,-417.96 210.73,-355.77 179.27,-317.61 229.98,-274.48 289.15,-224.15 515.58,-214.36 632.38,-212.72"/>
<polygon fill="black" stroke="black" points="632.69,-216.22 642.64,-212.59 632.6,-209.22 632.69,-216.22"/>
</g>
<!-- Barlyey_4(4)
[0.1111] -->
<g id="node7" class="node">
<title>Barlyey_4(4)
[0.1111]</title>
<ellipse fill="none" stroke="black" cx="190.98" cy="-570.57" rx="62.87" ry="26.74"/>
<text text-anchor="middle" x="190.98" y="-574.37" font-family="Times,serif" font-size="14.00">Barlyey_4(4)</text>
<text text-anchor="middle" x="190.98" y="-559.37" font-family="Times,serif" font-size="14.00">[0.1111]</text>
</g>
<!-- Barlyey_4(4)
[0.1111]&#45;&gt;Reservoir(5)
[0.03] -->
<g id="edge7" class="edge">
<title>Barlyey_4(4)
[0.1111]&#45;&gt;Reservoir(5)
[0.03]</title>
<path fill="none" stroke="black" d="M207.13,-544.54C213.54,-533.61 220.46,-520.4 224.98,-507.7 260.37,-408.42 191.94,-347.46 267.98,-274.48 318.83,-225.68 522.92,-215.09 632.53,-212.98"/>
<polygon fill="black" stroke="black" points="632.9,-216.47 642.84,-212.8 632.78,-209.48 632.9,-216.47"/>
</g>
<!-- Canola_1(6)
[0.1303] -->
<g id="node8" class="node">
<title>Canola_1(6)
[0.1303]</title>
<ellipse fill="none" stroke="black" cx="232.98" cy="-660.31" rx="59.29" ry="26.74"/>
<text text-anchor="middle" x="232.98" y="-664.11" font-family="Times,serif" font-size="14.00">Canola_1(6)</text>
<text text-anchor="middle" x="232.98" y="-649.11" font-family="Times,serif" font-size="14.00">[0.1303]</text>
</g>
<!-- Canola_1(6)
[0.1303]&#45;&gt;Reservoir(5)
[0.03] -->
<g id="edge8" class="edge">
<title>Canola_1(6)
[0.1303]&#45;&gt;Reservoir(5)
[0.03]</title>
<path fill="none" stroke="black" d="M247.25,-634.11C252.91,-623.14 259.01,-609.96 262.98,-597.44 278.73,-547.81 281.98,-533.9 281.98,-481.83 281.98,-481.83 281.98,-481.83 281.98,-390.09 281.98,-337.61 267.96,-310.65 305.98,-274.48 351.73,-230.97 531.31,-218.05 632.56,-214.22"/>
<polygon fill="black" stroke="black" points="632.84,-217.72 642.7,-213.86 632.58,-210.72 632.84,-217.72"/>
</g>
<!-- Channel(7)
[0.01] -->
<g id="node9" class="node">
<title>Channel(7)
[0.01]</title>
<ellipse fill="none" stroke="black" cx="275.98" cy="-750.05" rx="54.39" ry="26.74"/>
<text text-anchor="middle" x="275.98" y="-753.85" font-family="Times,serif" font-size="14.00">Channel(7)</text>
<text text-anchor="middle" x="275.98" y="-738.85" font-family="Times,serif" font-size="14.00">[0.01]</text>
</g>
<!-- Channel(7)
[0.01]&#45;&gt;Reservoir(5)
[0.03] -->
<g id="edge9" class="edge">
<title>Channel(7)
[0.01]&#45;&gt;Reservoir(5)
[0.03]</title>
<path fill="none" stroke="black" d="M287.74,-723.61C292.44,-712.6 297.54,-699.45 300.98,-687.18 315.04,-637.04 319.98,-623.64 319.98,-571.57 319.98,-571.57 319.98,-571.57 319.98,-390.09 319.98,-337.61 306.25,-310.95 343.98,-274.48 384.25,-235.56 540.63,-220.88 633.19,-215.53"/>
<polygon fill="black" stroke="black" points="633.53,-219.01 643.32,-214.96 633.14,-212.02 633.53,-219.01"/>
</g>
<!-- Canola_2(8)
[0.09043] -->
<g id="node10" class="node">
<title>Canola_2(8)
[0.09043]</title>
<ellipse fill="none" stroke="black" cx="357.98" cy="-839.79" rx="59.29" ry="26.74"/>
<text text-anchor="middle" x="357.98" y="-843.59" font-family="Times,serif" font-size="14.00">Canola_2(8)</text>
<text text-anchor="middle" x="357.98" y="-828.59" font-family="Times,serif" font-size="14.00">[0.09043]</text>
</g>
<!-- Canola_2(8)
[0.09043]&#45;&gt;Reservoir(5)
[0.03] -->
<g id="edge10" class="edge">
<title>Canola_2(8)
[0.09043]&#45;&gt;Reservoir(5)
[0.03]</title>
<path fill="none" stroke="black" d="M357.98,-812.63C357.98,-778.01 357.98,-715.08 357.98,-661.31 357.98,-661.31 357.98,-661.31 357.98,-390.09 357.98,-338.02 340.62,-311.75 376.98,-274.48 411.77,-238.82 548.38,-223.1 633.33,-216.66"/>
<polygon fill="black" stroke="black" points="633.7,-220.14 643.42,-215.92 633.19,-213.16 633.7,-220.14"/>
</g>
<!-- Canola_3(9)
[0.0354] -->
<g id="node11" class="node">
<title>Canola_3(9)
[0.0354]</title>
<ellipse fill="none" stroke="black" cx="444.98" cy="-301.35" rx="59.29" ry="26.74"/>
<text text-anchor="middle" x="444.98" y="-305.15" font-family="Times,serif" font-size="14.00">Canola_3(9)</text>
<text text-anchor="middle" x="444.98" y="-290.15" font-family="Times,serif" font-size="14.00">[0.0354]</text>
</g>
<!-- Canola_3(9)
[0.0354]&#45;&gt;Reservoir(5)
[0.03] -->
<g id="edge11" class="edge">
<title>Canola_3(9)
[0.0354]&#45;&gt;Reservoir(5)
[0.03]</title>
<path fill="none" stroke="black" d="M490.5,-284.08C499.59,-280.87 509.08,-277.54 517.98,-274.48 560.75,-259.75 609.25,-243.55 645.86,-231.42"/>
<polygon fill="black" stroke="black" points="646.98,-234.74 655.38,-228.27 644.78,-228.09 646.98,-234.74"/>
</g>
<!-- Canola_4(10)
[0.05225] -->
<g id="node12" class="node">
<title>Canola_4(10)
[0.05225]</title>
<ellipse fill="none" stroke="black" cx="477.98" cy="-391.09" rx="64.19" ry="26.74"/>
<text text-anchor="middle" x="477.98" y="-394.89" font-family="Times,serif" font-size="14.00">Canola_4(10)</text>
<text text-anchor="middle" x="477.98" y="-379.89" font-family="Times,serif" font-size="14.00">[0.05225]</text>
</g>
<!-- Canola_4(10)
[0.05225]&#45;&gt;Reservoir(5)
[0.03] -->
<g id="edge12" class="edge">
<title>Canola_4(10)
[0.05225]&#45;&gt;Reservoir(5)
[0.03]</title>
<path fill="none" stroke="black" d="M492.78,-364.66C510.56,-334.79 539.99,-287.62 555.98,-274.48 581.05,-253.88 613.97,-239.18 642.3,-229.29"/>
<polygon fill="black" stroke="black" points="643.75,-232.49 652.11,-225.99 641.52,-225.86 643.75,-232.49"/>
</g>
<!-- Canola_5(11)
[0.02893] -->
<g id="node13" class="node">
<title>Canola_5(11)
[0.02893]</title>
<ellipse fill="none" stroke="black" cx="515.98" cy="-480.83" rx="64.19" ry="26.74"/>
<text text-anchor="middle" x="515.98" y="-484.63" font-family="Times,serif" font-size="14.00">Canola_5(11)</text>
<text text-anchor="middle" x="515.98" y="-469.63" font-family="Times,serif" font-size="14.00">[0.02893]</text>
</g>
<!-- Canola_5(11)
[0.02893]&#45;&gt;Reservoir(5)
[0.03] -->
<g id="edge13" class="edge">
<title>Canola_5(11)
[0.02893]&#45;&gt;Reservoir(5)
[0.03]</title>
<path fill="none" stroke="black" d="M531.96,-454.6C538.45,-443.63 545.66,-430.45 550.98,-417.96 577.09,-356.72 552.49,-326.54 593.98,-274.48 608.03,-256.85 628.56,-243.36 648.02,-233.54"/>
<polygon fill="black" stroke="black" points="649.66,-236.64 657.16,-229.15 646.63,-230.33 649.66,-236.64"/>
</g>
<!-- Canola_6(12)
[0.3424] -->
<g id="node14" class="node">
<title>Canola_6(12)
[0.3424]</title>
<ellipse fill="none" stroke="black" cx="553.98" cy="-570.57" rx="64.19" ry="26.74"/>
<text text-anchor="middle" x="553.98" y="-574.37" font-family="Times,serif" font-size="14.00">Canola_6(12)</text>
<text text-anchor="middle" x="553.98" y="-559.37" font-family="Times,serif" font-size="14.00">[0.3424]</text>
</g>
<!-- Canola_6(12)
[0.3424]&#45;&gt;Reservoir(5)
[0.03] -->
<g id="edge14" class="edge">
<title>Canola_6(12)
[0.3424]&#45;&gt;Reservoir(5)
[0.03]</title>
<path fill="none" stroke="black" d="M570.63,-544.6C577.23,-533.68 584.35,-520.46 588.98,-507.7 624.98,-408.64 579.78,-366.04 631.98,-274.48 639.28,-261.68 650.24,-250.22 661.38,-240.75"/>
<polygon fill="black" stroke="black" points="663.89,-243.22 669.47,-234.22 659.49,-237.78 663.89,-243.22"/>
</g>
<!-- Canola_7(13)
[0.229] -->
<g id="node15" class="node">
<title>Canola_7(13)
[0.229]</title>
<ellipse fill="none" stroke="black" cx="591.98" cy="-660.31" rx="64.19" ry="26.74"/>
<text text-anchor="middle" x="591.98" y="-664.11" font-family="Times,serif" font-size="14.00">Canola_7(13)</text>
<text text-anchor="middle" x="591.98" y="-649.11" font-family="Times,serif" font-size="14.00">[0.229]</text>
</g>
<!-- Canola_7(13)
[0.229]&#45;&gt;Reservoir(5)
[0.03] -->
<g id="edge15" class="edge">
<title>Canola_7(13)
[0.229]&#45;&gt;Reservoir(5)
[0.03]</title>
<path fill="none" stroke="black" d="M608.93,-634.09C615.5,-623.23 622.51,-610.13 626.98,-597.44 644.29,-548.33 645.98,-533.9 645.98,-481.83 645.98,-481.83 645.98,-481.83 645.98,-390.09 645.98,-337.61 652.12,-323.82 669.98,-274.48 673.37,-265.14 677.95,-255.46 682.62,-246.61"/>
<polygon fill="black" stroke="black" points="685.74,-248.19 687.47,-237.74 679.6,-244.83 685.74,-248.19"/>
</g>
<!-- Canola_8(14)
[0.02824] -->
<g id="node16" class="node">
<title>Canola_8(14)
[0.02824]</title>
<ellipse fill="none" stroke="black" cx="629.98" cy="-750.05" rx="64.19" ry="26.74"/>
<text text-anchor="middle" x="629.98" y="-753.85" font-family="Times,serif" font-size="14.00">Canola_8(14)</text>
<text text-anchor="middle" x="629.98" y="-738.85" font-family="Times,serif" font-size="14.00">[0.02824]</text>
</g>
<!-- Canola_8(14)
[0.02824]&#45;&gt;Reservoir(5)
[0.03] -->
<g id="edge16" class="edge">
<title>Canola_8(14)
[0.02824]&#45;&gt;Reservoir(5)
[0.03]</title>
<path fill="none" stroke="black" d="M646.93,-723.83C653.5,-712.97 660.51,-699.87 664.98,-687.18 682.29,-638.07 683.98,-623.64 683.98,-571.57 683.98,-571.57 683.98,-571.57 683.98,-390.09 683.98,-340.87 691.3,-284.41 696.85,-248.64"/>
<polygon fill="black" stroke="black" points="700.32,-249.1 698.43,-238.68 693.4,-248.01 700.32,-249.1"/>
</g>
<!-- Forage_1(15)
[0.07808] -->
<g id="node17" class="node">
<title>Forage_1(15)
[0.07808]</title>
<ellipse fill="none" stroke="black" cx="721.98" cy="-839.79" rx="63.78" ry="26.74"/>
<text text-anchor="middle" x="721.98" y="-843.59" font-family="Times,serif" font-size="14.00">Forage_1(15)</text>
<text text-anchor="middle" x="721.98" y="-828.59" font-family="Times,serif" font-size="14.00">[0.07808]</text>
</g>
<!-- Forage_1(15)
[0.07808]&#45;&gt;Reservoir(5)
[0.03] -->
<g id="edge17" class="edge">
<title>Forage_1(15)
[0.07808]&#45;&gt;Reservoir(5)
[0.03]</title>
<path fill="none" stroke="black" d="M721.98,-812.63C721.98,-778.01 721.98,-715.08 721.98,-661.31 721.98,-661.31 721.98,-661.31 721.98,-390.09 721.98,-340.87 714.67,-284.41 709.12,-248.64"/>
<polygon fill="black" stroke="black" points="712.56,-248.01 707.53,-238.68 705.65,-249.1 712.56,-248.01"/>
</g>
<!-- Forage_2(16)
[0.05882] -->
<g id="node18" class="node">
<title>Forage_2(16)
[0.05882]</title>
<ellipse fill="none" stroke="black" cx="813.98" cy="-301.35" rx="63.78" ry="26.74"/>
<text text-anchor="middle" x="813.98" y="-305.15" font-family="Times,serif" font-size="14.00">Forage_2(16)</text>
<text text-anchor="middle" x="813.98" y="-290.15" font-family="Times,serif" font-size="14.00">[0.05882]</text>
</g>
<!-- Forage_2(16)
[0.05882]&#45;&gt;Reservoir(5)
[0.03] -->
<g id="edge18" class="edge">
<title>Forage_2(16)
[0.05882]&#45;&gt;Reservoir(5)
[0.03]</title>
<path fill="none" stroke="black" d="M784.82,-277.3C771.05,-266.42 754.47,-253.31 739.85,-241.75"/>
<polygon fill="black" stroke="black" points="741.97,-238.96 731.95,-235.51 737.63,-244.46 741.97,-238.96"/>
</g>
<!-- Forage_3(17)
[0.007212] -->
<g id="node19" class="node">
<title>Forage_3(17)
[0.007212]</title>
<ellipse fill="none" stroke="black" cx="851.98" cy="-391.09" rx="63.78" ry="26.74"/>
<text text-anchor="middle" x="851.98" y="-394.89" font-family="Times,serif" font-size="14.00">Forage_3(17)</text>
<text text-anchor="middle" x="851.98" y="-379.89" font-family="Times,serif" font-size="14.00">[0.007212]</text>
</g>
<!-- Forage_3(17)
[0.007212]&#45;&gt;Reservoir(5)
[0.03] -->
<g id="edge19" class="edge">
<title>Forage_3(17)
[0.007212]&#45;&gt;Reservoir(5)
[0.03]</title>
<path fill="none" stroke="black" d="M871.32,-365C888,-340.07 906.57,-301.73 886.98,-274.48 861.14,-238.53 813.37,-223.18 772.98,-216.76"/>
<polygon fill="black" stroke="black" points="773.28,-213.27 762.89,-215.31 772.29,-220.2 773.28,-213.27"/>
</g>
<!-- Grazing_1(18)
[0.1173] -->
<g id="node20" class="node">
<title>Grazing_1(18)
[0.1173]</title>
<ellipse fill="none" stroke="black" cx="885.98" cy="-480.83" rx="67.76" ry="26.74"/>
<text text-anchor="middle" x="885.98" y="-484.63" font-family="Times,serif" font-size="14.00">Grazing_1(18)</text>
<text text-anchor="middle" x="885.98" y="-469.63" font-family="Times,serif" font-size="14.00">[0.1173]</text>
</g>
<!-- Grazing_1(18)
[0.1173]&#45;&gt;Reservoir(5)
[0.03] -->
<g id="edge20" class="edge">
<title>Grazing_1(18)
[0.1173]&#45;&gt;Reservoir(5)
[0.03]</title>
<path fill="none" stroke="black" d="M906.2,-454.91C913.64,-444.2 921.18,-431.13 924.98,-417.96 942.83,-356.16 949.44,-321.9 905.98,-274.48 872.15,-237.56 817.02,-222.41 772.75,-216.31"/>
<polygon fill="black" stroke="black" points="772.97,-212.81 762.62,-215.04 772.1,-219.76 772.97,-212.81"/>
</g>
<!-- Impervious(19)
[0.008959] -->
<g id="node21" class="node">
<title>Impervious(19)
[0.008959]</title>
<ellipse fill="none" stroke="black" cx="920.98" cy="-570.57" rx="71.34" ry="26.74"/>
<text text-anchor="middle" x="920.98" y="-574.37" font-family="Times,serif" font-size="14.00">Impervious(19)</text>
<text text-anchor="middle" x="920.98" y="-559.37" font-family="Times,serif" font-size="14.00">[0.008959]</text>
</g>
<!-- Impervious(19)
[0.008959]&#45;&gt;Reservoir(5)
[0.03] -->
<g id="edge21" class="edge">
<title>Impervious(19)
[0.008959]&#45;&gt;Reservoir(5)
[0.03]</title>
<path fill="none" stroke="black" d="M942.73,-544.88C950.74,-534.21 958.86,-521.1 962.98,-507.7 983.02,-442.52 964.09,-305.87 935.98,-274.48 913.97,-249.89 830.64,-232.12 769.9,-222.09"/>
<polygon fill="black" stroke="black" points="770.41,-218.63 759.98,-220.49 769.3,-225.54 770.41,-218.63"/>
</g>
<!-- Oat(20)
[0.1839] -->
<g id="node22" class="node">
<title>Oat(20)
[0.1839]</title>
<ellipse fill="none" stroke="black" cx="984.98" cy="-660.31" rx="44.6" ry="26.74"/>
<text text-anchor="middle" x="984.98" y="-664.11" font-family="Times,serif" font-size="14.00">Oat(20)</text>
<text text-anchor="middle" x="984.98" y="-649.11" font-family="Times,serif" font-size="14.00">[0.1839]</text>
</g>
<!-- Oat(20)
[0.1839]&#45;&gt;Reservoir(5)
[0.03] -->
<g id="edge22" class="edge">
<title>Oat(20)
[0.1839]&#45;&gt;Reservoir(5)
[0.03]</title>
<path fill="none" stroke="black" d="M993.28,-633.76C1003.63,-599.55 1019.98,-536.79 1019.98,-481.83 1019.98,-481.83 1019.98,-481.83 1019.98,-390.09 1019.98,-332.6 1007.04,-310.18 961.98,-274.48 908.26,-231.91 829.89,-217.89 773.44,-213.64"/>
<polygon fill="black" stroke="black" points="773.37,-210.13 763.16,-212.95 772.91,-217.11 773.37,-210.13"/>
</g>
<!-- Riparian_1(21)
[0.06239] -->
<g id="node23" class="node">
<title>Riparian_1(21)
[0.06239]</title>
<ellipse fill="none" stroke="black" cx="997.98" cy="-750.05" rx="70.01" ry="26.74"/>
<text text-anchor="middle" x="997.98" y="-753.85" font-family="Times,serif" font-size="14.00">Riparian_1(21)</text>
<text text-anchor="middle" x="997.98" y="-738.85" font-family="Times,serif" font-size="14.00">[0.06239]</text>
</g>
<!-- Riparian_1(21)
[0.06239]&#45;&gt;Reservoir(5)
[0.03] -->
<g id="edge23" class="edge">
<title>Riparian_1(21)
[0.06239]&#45;&gt;Reservoir(5)
[0.03]</title>
<path fill="none" stroke="black" d="M1017.94,-724.21C1025.66,-713.41 1033.85,-700.26 1038.98,-687.18 1058.01,-638.71 1057.98,-623.64 1057.98,-571.57 1057.98,-571.57 1057.98,-571.57 1057.98,-390.09 1057.98,-332.6 1045.55,-309.53 999.98,-274.48 964.82,-247.44 847.35,-229.2 771.11,-219.88"/>
<polygon fill="black" stroke="black" points="771.45,-216.4 761.1,-218.68 770.62,-223.35 771.45,-216.4"/>
</g>
<!-- Riparian_2(22)
[0.03349] -->
<g id="node24" class="node">
<title>Riparian_2(22)
[0.03349]</title>
<ellipse fill="none" stroke="black" cx="1095.98" cy="-839.79" rx="70.01" ry="26.74"/>
<text text-anchor="middle" x="1095.98" y="-843.59" font-family="Times,serif" font-size="14.00">Riparian_2(22)</text>
<text text-anchor="middle" x="1095.98" y="-828.59" font-family="Times,serif" font-size="14.00">[0.03349]</text>
</g>
<!-- Riparian_2(22)
[0.03349]&#45;&gt;Reservoir(5)
[0.03] -->
<g id="edge24" class="edge">
<title>Riparian_2(22)
[0.03349]&#45;&gt;Reservoir(5)
[0.03]</title>
<path fill="none" stroke="black" d="M1095.98,-812.63C1095.98,-778.01 1095.98,-715.08 1095.98,-661.31 1095.98,-661.31 1095.98,-661.31 1095.98,-390.09 1095.98,-332.8 1084.68,-309.03 1038.98,-274.48 997.9,-243.41 857.89,-226.02 772.11,-218.05"/>
<polygon fill="black" stroke="black" points="772.2,-214.54 761.93,-217.12 771.57,-221.52 772.2,-214.54"/>
</g>
<!-- Riparian_3(23)
[0.1608] -->
<g id="node25" class="node">
<title>Riparian_3(23)
[0.1608]</title>
<ellipse fill="none" stroke="black" cx="1193.98" cy="-301.35" rx="70.01" ry="26.74"/>
<text text-anchor="middle" x="1193.98" y="-305.15" font-family="Times,serif" font-size="14.00">Riparian_3(23)</text>
<text text-anchor="middle" x="1193.98" y="-290.15" font-family="Times,serif" font-size="14.00">[0.1608]</text>
</g>
<!-- Riparian_3(23)
[0.1608]&#45;&gt;Reservoir(5)
[0.03] -->
<g id="edge25" class="edge">
<title>Riparian_3(23)
[0.1608]&#45;&gt;Reservoir(5)
[0.03]</title>
<path fill="none" stroke="black" d="M1142.33,-283.13C1131.71,-279.96 1120.54,-276.9 1109.98,-274.48 992.22,-247.55 852.54,-229.21 771.22,-219.86"/>
<polygon fill="black" stroke="black" points="771.45,-216.36 761.12,-218.71 770.66,-223.32 771.45,-216.36"/>
</g>
<!-- Riparian_4(24)
[0.44] -->
<g id="node26" class="node">
<title>Riparian_4(24)
[0.44]</title>
<ellipse fill="none" stroke="black" cx="1231.98" cy="-391.09" rx="70.01" ry="26.74"/>
<text text-anchor="middle" x="1231.98" y="-394.89" font-family="Times,serif" font-size="14.00">Riparian_4(24)</text>
<text text-anchor="middle" x="1231.98" y="-379.89" font-family="Times,serif" font-size="14.00">[0.44]</text>
</g>
<!-- Riparian_4(24)
[0.44]&#45;&gt;Reservoir(5)
[0.03] -->
<g id="edge26" class="edge">
<title>Riparian_4(24)
[0.44]&#45;&gt;Reservoir(5)
[0.03]</title>
<path fill="none" stroke="black" d="M1253.83,-365.16C1273.49,-339.63 1296.02,-300.16 1272.98,-274.48 1240.12,-237.85 917.9,-220.89 772.97,-215.07"/>
<polygon fill="black" stroke="black" points="772.98,-211.57 762.85,-214.67 772.71,-218.57 772.98,-211.57"/>
</g>
<!-- Wheat_1(25)
[0.3289] -->
<g id="node27" class="node">
<title>Wheat_1(25)
[0.3289]</title>
<ellipse fill="none" stroke="black" cx="1302.98" cy="-480.83" rx="62.87" ry="26.74"/>
<text text-anchor="middle" x="1302.98" y="-484.63" font-family="Times,serif" font-size="14.00">Wheat_1(25)</text>
<text text-anchor="middle" x="1302.98" y="-469.63" font-family="Times,serif" font-size="14.00">[0.3289]</text>
</g>
<!-- Wheat_1(25)
[0.3289]&#45;&gt;Reservoir(5)
[0.03] -->
<g id="edge27" class="edge">
<title>Wheat_1(25)
[0.3289]&#45;&gt;Reservoir(5)
[0.03]</title>
<path fill="none" stroke="black" d="M1311.52,-453.93C1324.31,-409.57 1341.98,-319.53 1291.98,-274.48 1254.08,-240.33 920.88,-221.94 773.07,-215.4"/>
<polygon fill="black" stroke="black" points="772.9,-211.89 762.76,-214.95 772.59,-218.89 772.9,-211.89"/>
</g>
<!-- Wheat_2(26)
[0.1887] -->
<g id="node28" class="node">
<title>Wheat_2(26)
[0.1887]</title>
<ellipse fill="none" stroke="black" cx="1393.98" cy="-570.57" rx="62.87" ry="26.74"/>
<text text-anchor="middle" x="1393.98" y="-574.37" font-family="Times,serif" font-size="14.00">Wheat_2(26)</text>
<text text-anchor="middle" x="1393.98" y="-559.37" font-family="Times,serif" font-size="14.00">[0.1887]</text>
</g>
<!-- Wheat_2(26)
[0.1887]&#45;&gt;Reservoir(5)
[0.03] -->
<g id="edge28" class="edge">
<title>Wheat_2(26)
[0.1887]&#45;&gt;Reservoir(5)
[0.03]</title>
<path fill="none" stroke="black" d="M1396.69,-543.46C1401.17,-484.67 1402.65,-341.77 1320.98,-274.48 1279.39,-240.21 925.91,-221.74 773,-215.28"/>
<polygon fill="black" stroke="black" points="772.92,-211.78 762.79,-214.86 772.63,-218.77 772.92,-211.78"/>
</g>
<!-- Wheat_3(27)
[0.15] -->
<g id="node29" class="node">
<title>Wheat_3(27)
[0.15]</title>
<ellipse fill="none" stroke="black" cx="1484.98" cy="-660.31" rx="62.87" ry="26.74"/>
<text text-anchor="middle" x="1484.98" y="-664.11" font-family="Times,serif" font-size="14.00">Wheat_3(27)</text>
<text text-anchor="middle" x="1484.98" y="-649.11" font-family="Times,serif" font-size="14.00">[0.15]</text>
</g>
<!-- Wheat_3(27)
[0.15]&#45;&gt;Reservoir(5)
[0.03] -->
<g id="edge29" class="edge">
<title>Wheat_3(27)
[0.15]&#45;&gt;Reservoir(5)
[0.03]</title>
<path fill="none" stroke="black" d="M1484.98,-633.15C1484.98,-598.53 1484.98,-535.6 1484.98,-481.83 1484.98,-481.83 1484.98,-481.83 1484.98,-390.09 1484.98,-313.1 1426.51,-305.35 1355.98,-274.48 1252.9,-229.36 919.8,-217.03 773.26,-213.76"/>
<polygon fill="black" stroke="black" points="773.12,-210.25 763.04,-213.53 772.96,-217.25 773.12,-210.25"/>
</g>
</g>
</svg>
