<?xml version="1.0" encoding="UTF-8" standalone="no"?>
<!DOCTYPE svg PUBLIC "-//W3C//DTD SVG 1.1//EN"
 "http://www.w3.org/Graphics/SVG/1.1/DTD/svg11.dtd">
<!-- Generated by graphviz version 2.43.0 (0)
 -->
<!-- Title: TEST Pages: 1 -->
<svg width="2199pt" height="875pt"
 viewBox="0.00 0.00 2199.45 874.66" xmlns="http://www.w3.org/2000/svg" xmlns:xlink="http://www.w3.org/1999/xlink">
<g id="graph0" class="graph" transform="scale(1 1) rotate(0) translate(4 870.66)">
<title>TEST</title>
<polygon fill="white" stroke="transparent" points="-4,4 -4,-870.66 2195.45,-870.66 2195.45,4 -4,4"/>
<text text-anchor="middle" x="1095.73" y="-7.8" font-family="Times,serif" font-size="14.00">G_Central_GrpG</text>
<!-- Barley(1)
&lt;1&gt;[0.1984] -->
<g id="node1" class="node">
<title>Barley(1)
&lt;1&gt;[0.1984]</title>
<ellipse fill="none" stroke="black" cx="61.24" cy="-301.35" rx="60.62" ry="26.74"/>
<text text-anchor="middle" x="61.24" y="-305.15" font-family="Times,serif" font-size="14.00">Barley(1)</text>
<text text-anchor="middle" x="61.24" y="-290.15" font-family="Times,serif" font-size="14.00">&lt;1&gt;[0.1984]</text>
</g>
<!-- Reservoir(29)
&lt;38&gt;[0.07] -->
<g id="node2" class="node">
<title>Reservoir(29)
&lt;38&gt;[0.07]</title>
<ellipse fill="none" stroke="black" cx="1072.24" cy="-211.61" rx="65.11" ry="26.74"/>
<text text-anchor="middle" x="1072.24" y="-215.41" font-family="Times,serif" font-size="14.00">Reservoir(29)</text>
<text text-anchor="middle" x="1072.24" y="-200.41" font-family="Times,serif" font-size="14.00">&lt;38&gt;[0.07]</text>
</g>
<!-- Barley(1)
&lt;1&gt;[0.1984]&#45;&gt;Reservoir(29)
&lt;38&gt;[0.07] -->
<g id="edge1" class="edge">
<title>Barley(1)
&lt;1&gt;[0.1984]&#45;&gt;Reservoir(29)
&lt;38&gt;[0.07]</title>
<path fill="none" stroke="black" d="M105.51,-282.9C115.48,-279.59 126.11,-276.52 136.24,-274.48 300.44,-241.35 805.15,-221.51 997.09,-215"/>
<polygon fill="black" stroke="black" points="997.49,-218.49 1007.36,-214.65 997.25,-211.49 997.49,-218.49"/>
</g>
<!-- Channel(19)
&lt;39&gt;[0.01] -->
<g id="node3" class="node">
<title>Channel(19)
&lt;39&gt;[0.01]</title>
<ellipse fill="none" stroke="black" cx="1072.24" cy="-121.87" rx="59.29" ry="26.74"/>
<text text-anchor="middle" x="1072.24" y="-125.67" font-family="Times,serif" font-size="14.00">Channel(19)</text>
<text text-anchor="middle" x="1072.24" y="-110.67" font-family="Times,serif" font-size="14.00">&lt;39&gt;[0.01]</text>
</g>
<!-- Reservoir(29)
&lt;38&gt;[0.07]&#45;&gt;Channel(19)
&lt;39&gt;[0.01] -->
<g id="edge2" class="edge">
<title>Reservoir(29)
&lt;38&gt;[0.07]&#45;&gt;Channel(19)
&lt;39&gt;[0.01]</title>
<path fill="none" stroke="black" d="M1066.02,-184.76C1065.52,-176.71 1065.37,-167.68 1065.58,-159.06"/>
<polygon fill="black" stroke="black" points="1069.09,-158.98 1066.01,-148.84 1062.09,-158.68 1069.09,-158.98"/>
</g>
<!-- Channel(19)
&lt;39&gt;[0.01]&#45;&gt;Reservoir(29)
&lt;38&gt;[0.07] -->
<g id="edge3" class="edge">
<title>Channel(19)
&lt;39&gt;[0.01]&#45;&gt;Reservoir(29)
&lt;38&gt;[0.07]</title>
<path fill="none" stroke="black" d="M1078.46,-148.84C1078.96,-156.9 1079.11,-165.93 1078.89,-174.55"/>
<polygon fill="black" stroke="black" points="1075.39,-174.62 1078.45,-184.76 1082.38,-174.92 1075.39,-174.62"/>
</g>
<!-- basin -->
<g id="node4" class="node">
<title>basin</title>
<ellipse fill="none" stroke="black" cx="1220.24" cy="-41" rx="29.5" ry="18"/>
<text text-anchor="middle" x="1220.24" y="-37.3" font-family="Times,serif" font-size="14.00">basin</text>
</g>
<!-- Channel(19)
&lt;39&gt;[0.01]&#45;&gt;basin -->
<g id="edge4" class="edge">
<title>Channel(19)
&lt;39&gt;[0.01]&#45;&gt;basin</title>
<path fill="none" stroke="black" d="M1109.58,-100.97C1134.42,-87.73 1166.63,-70.57 1189.88,-58.18"/>
<polygon fill="black" stroke="black" points="1191.77,-61.14 1198.94,-53.35 1188.47,-54.96 1191.77,-61.14"/>
</g>
<!-- Canola_(TWN_east)(2)
&lt;2&gt;[0.06047] -->
<g id="node5" class="node">
<title>Canola_(TWN_east)(2)
&lt;2&gt;[0.06047]</title>
<ellipse fill="none" stroke="black" cx="103.24" cy="-391.09" rx="103.48" ry="26.74"/>
<text text-anchor="middle" x="103.24" y="-394.89" font-family="Times,serif" font-size="14.00">Canola_(TWN_east)(2)</text>
<text text-anchor="middle" x="103.24" y="-379.89" font-family="Times,serif" font-size="14.00">&lt;2&gt;[0.06047]</text>
</g>
<!-- Canola_(TWN_east)(2)
&lt;2&gt;[0.06047]&#45;&gt;Reservoir(29)
&lt;38&gt;[0.07] -->
<g id="edge5" class="edge">
<title>Canola_(TWN_east)(2)
&lt;2&gt;[0.06047]&#45;&gt;Reservoir(29)
&lt;38&gt;[0.07]</title>
<path fill="none" stroke="black" d="M120.45,-364.53C140.69,-336.86 177.07,-294.07 220.24,-274.48 290.02,-242.82 802.45,-221.95 997.31,-215.09"/>
<polygon fill="black" stroke="black" points="997.59,-218.58 1007.47,-214.73 997.35,-211.59 997.59,-218.58"/>
</g>
<!-- Canola_(twn_west)(3)
&lt;3&gt;[0.04057] -->
<g id="node6" class="node">
<title>Canola_(twn_west)(3)
&lt;3&gt;[0.04057]</title>
<ellipse fill="none" stroke="black" cx="146.24" cy="-480.83" rx="97.66" ry="26.74"/>
<text text-anchor="middle" x="146.24" y="-484.63" font-family="Times,serif" font-size="14.00">Canola_(twn_west)(3)</text>
<text text-anchor="middle" x="146.24" y="-469.63" font-family="Times,serif" font-size="14.00">&lt;3&gt;[0.04057]</text>
</g>
<!-- Canola_(twn_west)(3)
&lt;3&gt;[0.04057]&#45;&gt;Reservoir(29)
&lt;38&gt;[0.07] -->
<g id="edge6" class="edge">
<title>Canola_(twn_west)(3)
&lt;3&gt;[0.04057]&#45;&gt;Reservoir(29)
&lt;38&gt;[0.07]</title>
<path fill="none" stroke="black" d="M180.49,-455.54C192.95,-445.2 206.19,-432.22 215.24,-417.96 250.91,-361.75 206.38,-316.22 258.24,-274.48 315.02,-228.78 806.17,-216.57 996.93,-213.54"/>
<polygon fill="black" stroke="black" points="997.2,-217.04 1007.15,-213.39 997.09,-210.04 997.2,-217.04"/>
</g>
<!-- Canola_1(4)
&lt;4&gt;[0.1255] -->
<g id="node7" class="node">
<title>Canola_1(4)
&lt;4&gt;[0.1255]</title>
<ellipse fill="none" stroke="black" cx="221.24" cy="-570.57" rx="60.62" ry="26.74"/>
<text text-anchor="middle" x="221.24" y="-574.37" font-family="Times,serif" font-size="14.00">Canola_1(4)</text>
<text text-anchor="middle" x="221.24" y="-559.37" font-family="Times,serif" font-size="14.00">&lt;4&gt;[0.1255]</text>
</g>
<!-- Canola_1(4)
&lt;4&gt;[0.1255]&#45;&gt;Reservoir(29)
&lt;38&gt;[0.07] -->
<g id="edge7" class="edge">
<title>Canola_1(4)
&lt;4&gt;[0.1255]&#45;&gt;Reservoir(29)
&lt;38&gt;[0.07]</title>
<path fill="none" stroke="black" d="M236.39,-544.43C242.42,-533.48 248.93,-520.29 253.24,-507.7 287.37,-407.98 217.98,-345.08 296.24,-274.48 347.54,-228.19 812.1,-216.38 996.91,-213.49"/>
<polygon fill="black" stroke="black" points="997.14,-216.99 1007.09,-213.34 997.04,-209.99 997.14,-216.99"/>
</g>
<!-- Canola_11(6)
&lt;5&gt;[0.2163] -->
<g id="node8" class="node">
<title>Canola_11(6)
&lt;5&gt;[0.2163]</title>
<ellipse fill="none" stroke="black" cx="256.24" cy="-660.31" rx="64.19" ry="26.74"/>
<text text-anchor="middle" x="256.24" y="-664.11" font-family="Times,serif" font-size="14.00">Canola_11(6)</text>
<text text-anchor="middle" x="256.24" y="-649.11" font-family="Times,serif" font-size="14.00">&lt;5&gt;[0.2163]</text>
</g>
<!-- Canola_11(6)
&lt;5&gt;[0.2163]&#45;&gt;Reservoir(29)
&lt;38&gt;[0.07] -->
<g id="edge8" class="edge">
<title>Canola_11(6)
&lt;5&gt;[0.2163]&#45;&gt;Reservoir(29)
&lt;38&gt;[0.07]</title>
<path fill="none" stroke="black" d="M273.18,-634.09C279.76,-623.23 286.77,-610.13 291.24,-597.44 308.55,-548.33 310.24,-533.9 310.24,-481.83 310.24,-481.83 310.24,-481.83 310.24,-390.09 310.24,-337.61 294.95,-309.28 334.24,-274.48 383.13,-231.18 819.29,-217.64 997.2,-213.89"/>
<polygon fill="black" stroke="black" points="997.33,-217.39 1007.26,-213.69 997.19,-210.39 997.33,-217.39"/>
</g>
<!-- Canola_12(7)
&lt;6&gt;[0.1266] -->
<g id="node9" class="node">
<title>Canola_12(7)
&lt;6&gt;[0.1266]</title>
<ellipse fill="none" stroke="black" cx="294.24" cy="-750.05" rx="64.19" ry="26.74"/>
<text text-anchor="middle" x="294.24" y="-753.85" font-family="Times,serif" font-size="14.00">Canola_12(7)</text>
<text text-anchor="middle" x="294.24" y="-738.85" font-family="Times,serif" font-size="14.00">&lt;6&gt;[0.1266]</text>
</g>
<!-- Canola_12(7)
&lt;6&gt;[0.1266]&#45;&gt;Reservoir(29)
&lt;38&gt;[0.07] -->
<g id="edge9" class="edge">
<title>Canola_12(7)
&lt;6&gt;[0.1266]&#45;&gt;Reservoir(29)
&lt;38&gt;[0.07]</title>
<path fill="none" stroke="black" d="M311.18,-723.83C317.76,-712.97 324.77,-699.87 329.24,-687.18 346.55,-638.07 348.24,-623.64 348.24,-571.57 348.24,-571.57 348.24,-571.57 348.24,-390.09 348.24,-337.61 333.03,-309.36 372.24,-274.48 418.18,-233.6 826,-218.74 997.15,-214.27"/>
<polygon fill="black" stroke="black" points="997.43,-217.76 1007.33,-214 997.25,-210.76 997.43,-217.76"/>
</g>
<!-- Canola_13(8)
&lt;7&gt;[0.1832] -->
<g id="node10" class="node">
<title>Canola_13(8)
&lt;7&gt;[0.1832]</title>
<ellipse fill="none" stroke="black" cx="386.24" cy="-839.79" rx="64.19" ry="26.74"/>
<text text-anchor="middle" x="386.24" y="-843.59" font-family="Times,serif" font-size="14.00">Canola_13(8)</text>
<text text-anchor="middle" x="386.24" y="-828.59" font-family="Times,serif" font-size="14.00">&lt;7&gt;[0.1832]</text>
</g>
<!-- Canola_13(8)
&lt;7&gt;[0.1832]&#45;&gt;Reservoir(29)
&lt;38&gt;[0.07] -->
<g id="edge10" class="edge">
<title>Canola_13(8)
&lt;7&gt;[0.1832]&#45;&gt;Reservoir(29)
&lt;38&gt;[0.07]</title>
<path fill="none" stroke="black" d="M386.24,-812.63C386.24,-778.01 386.24,-715.08 386.24,-661.31 386.24,-661.31 386.24,-661.31 386.24,-390.09 386.24,-338.02 367.14,-309.98 405.24,-274.48 447.84,-234.78 832.13,-219.33 997.32,-214.48"/>
<polygon fill="black" stroke="black" points="997.5,-217.98 1007.4,-214.19 997.3,-210.98 997.5,-217.98"/>
</g>
<!-- Canola_14(9)
&lt;8&gt;[0.1354] -->
<g id="node11" class="node">
<title>Canola_14(9)
&lt;8&gt;[0.1354]</title>
<ellipse fill="none" stroke="black" cx="478.24" cy="-301.35" rx="64.19" ry="26.74"/>
<text text-anchor="middle" x="478.24" y="-305.15" font-family="Times,serif" font-size="14.00">Canola_14(9)</text>
<text text-anchor="middle" x="478.24" y="-290.15" font-family="Times,serif" font-size="14.00">&lt;8&gt;[0.1354]</text>
</g>
<!-- Canola_14(9)
&lt;8&gt;[0.1354]&#45;&gt;Reservoir(29)
&lt;38&gt;[0.07] -->
<g id="edge11" class="edge">
<title>Canola_14(9)
&lt;8&gt;[0.1354]&#45;&gt;Reservoir(29)
&lt;38&gt;[0.07]</title>
<path fill="none" stroke="black" d="M525.66,-282.94C535.66,-279.75 546.21,-276.72 556.24,-274.48 711.18,-239.87 896.9,-223.61 997.89,-216.82"/>
<polygon fill="black" stroke="black" points="998.24,-220.31 1007.99,-216.16 997.78,-213.32 998.24,-220.31"/>
</g>
<!-- Canola_15(10)
&lt;9&gt;[0.007351] -->
<g id="node12" class="node">
<title>Canola_15(10)
&lt;9&gt;[0.007351]</title>
<ellipse fill="none" stroke="black" cx="509.24" cy="-391.09" rx="70.92" ry="26.74"/>
<text text-anchor="middle" x="509.24" y="-394.89" font-family="Times,serif" font-size="14.00">Canola_15(10)</text>
<text text-anchor="middle" x="509.24" y="-379.89" font-family="Times,serif" font-size="14.00">&lt;9&gt;[0.007351]</text>
</g>
<!-- Canola_15(10)
&lt;9&gt;[0.007351]&#45;&gt;Reservoir(29)
&lt;38&gt;[0.07] -->
<g id="edge12" class="edge">
<title>Canola_15(10)
&lt;9&gt;[0.007351]&#45;&gt;Reservoir(29)
&lt;38&gt;[0.07]</title>
<path fill="none" stroke="black" d="M526.19,-364.91C548.16,-332.6 584.8,-280.05 594.24,-274.48 660.8,-235.23 880.08,-220.41 997.1,-215.2"/>
<polygon fill="black" stroke="black" points="997.57,-218.69 1007.41,-214.76 997.27,-211.69 997.57,-218.69"/>
</g>
<!-- Canola_2(11)
&lt;10&gt;[0.1883] -->
<g id="node13" class="node">
<title>Canola_2(11)
&lt;10&gt;[0.1883]</title>
<ellipse fill="none" stroke="black" cx="552.24" cy="-480.83" rx="65.52" ry="26.74"/>
<text text-anchor="middle" x="552.24" y="-484.63" font-family="Times,serif" font-size="14.00">Canola_2(11)</text>
<text text-anchor="middle" x="552.24" y="-469.63" font-family="Times,serif" font-size="14.00">&lt;10&gt;[0.1883]</text>
</g>
<!-- Canola_2(11)
&lt;10&gt;[0.1883]&#45;&gt;Reservoir(29)
&lt;38&gt;[0.07] -->
<g id="edge13" class="edge">
<title>Canola_2(11)
&lt;10&gt;[0.1883]&#45;&gt;Reservoir(29)
&lt;38&gt;[0.07]</title>
<path fill="none" stroke="black" d="M569.2,-454.71C576.07,-443.75 583.69,-430.56 589.24,-417.96 616.08,-357.04 581.74,-317.86 632.24,-274.48 685.58,-228.66 886.09,-216.73 997.11,-213.65"/>
<polygon fill="black" stroke="black" points="997.33,-217.14 1007.24,-213.39 997.15,-210.15 997.33,-217.14"/>
</g>
<!-- Canola_3(12)
&lt;11&gt;[0.0896] -->
<g id="node14" class="node">
<title>Canola_3(12)
&lt;11&gt;[0.0896]</title>
<ellipse fill="none" stroke="black" cx="590.24" cy="-570.57" rx="65.52" ry="26.74"/>
<text text-anchor="middle" x="590.24" y="-574.37" font-family="Times,serif" font-size="14.00">Canola_3(12)</text>
<text text-anchor="middle" x="590.24" y="-559.37" font-family="Times,serif" font-size="14.00">&lt;11&gt;[0.0896]</text>
</g>
<!-- Canola_3(12)
&lt;11&gt;[0.0896]&#45;&gt;Reservoir(29)
&lt;38&gt;[0.07] -->
<g id="edge14" class="edge">
<title>Canola_3(12)
&lt;11&gt;[0.0896]&#45;&gt;Reservoir(29)
&lt;38&gt;[0.07]</title>
<path fill="none" stroke="black" d="M608.06,-544.42C615,-533.58 622.42,-520.46 627.24,-507.7 664.43,-409.08 594.61,-347.9 670.24,-274.48 715.53,-230.51 893.65,-217.78 996.96,-214.1"/>
<polygon fill="black" stroke="black" points="997.15,-217.6 1007.03,-213.76 996.92,-210.6 997.15,-217.6"/>
</g>
<!-- Canola_4(13)
&lt;12&gt;[0.3968] -->
<g id="node15" class="node">
<title>Canola_4(13)
&lt;12&gt;[0.3968]</title>
<ellipse fill="none" stroke="black" cx="628.24" cy="-660.31" rx="65.52" ry="26.74"/>
<text text-anchor="middle" x="628.24" y="-664.11" font-family="Times,serif" font-size="14.00">Canola_4(13)</text>
<text text-anchor="middle" x="628.24" y="-649.11" font-family="Times,serif" font-size="14.00">&lt;12&gt;[0.3968]</text>
</g>
<!-- Canola_4(13)
&lt;12&gt;[0.3968]&#45;&gt;Reservoir(29)
&lt;38&gt;[0.07] -->
<g id="edge15" class="edge">
<title>Canola_4(13)
&lt;12&gt;[0.3968]&#45;&gt;Reservoir(29)
&lt;38&gt;[0.07]</title>
<path fill="none" stroke="black" d="M646.19,-634.21C653.14,-623.37 660.55,-610.25 665.24,-597.44 683.14,-548.54 684.24,-533.9 684.24,-481.83 684.24,-481.83 684.24,-481.83 684.24,-390.09 684.24,-337.61 670.46,-310.91 708.24,-274.48 748.53,-235.63 903.24,-220.99 997.51,-215.61"/>
<polygon fill="black" stroke="black" points="997.78,-219.1 1007.57,-215.06 997.39,-212.11 997.78,-219.1"/>
</g>
<!-- Canola_5(14)
&lt;13&gt;[0.1973] -->
<g id="node16" class="node">
<title>Canola_5(14)
&lt;13&gt;[0.1973]</title>
<ellipse fill="none" stroke="black" cx="666.24" cy="-750.05" rx="65.52" ry="26.74"/>
<text text-anchor="middle" x="666.24" y="-753.85" font-family="Times,serif" font-size="14.00">Canola_5(14)</text>
<text text-anchor="middle" x="666.24" y="-738.85" font-family="Times,serif" font-size="14.00">&lt;13&gt;[0.1973]</text>
</g>
<!-- Canola_5(14)
&lt;13&gt;[0.1973]&#45;&gt;Reservoir(29)
&lt;38&gt;[0.07] -->
<g id="edge16" class="edge">
<title>Canola_5(14)
&lt;13&gt;[0.1973]&#45;&gt;Reservoir(29)
&lt;38&gt;[0.07]</title>
<path fill="none" stroke="black" d="M684.19,-723.95C691.14,-713.11 698.55,-699.99 703.24,-687.18 721.14,-638.28 722.24,-623.64 722.24,-571.57 722.24,-571.57 722.24,-571.57 722.24,-390.09 722.24,-337.61 708.81,-311.27 746.24,-274.48 781.08,-240.23 912.84,-224.21 997.82,-217.29"/>
<polygon fill="black" stroke="black" points="998.24,-220.77 1007.94,-216.49 997.69,-213.79 998.24,-220.77"/>
</g>
<!-- Canola_6(15)
&lt;14&gt;[0.1907] -->
<g id="node17" class="node">
<title>Canola_6(15)
&lt;14&gt;[0.1907]</title>
<ellipse fill="none" stroke="black" cx="760.24" cy="-839.79" rx="65.52" ry="26.74"/>
<text text-anchor="middle" x="760.24" y="-843.59" font-family="Times,serif" font-size="14.00">Canola_6(15)</text>
<text text-anchor="middle" x="760.24" y="-828.59" font-family="Times,serif" font-size="14.00">&lt;14&gt;[0.1907]</text>
</g>
<!-- Canola_6(15)
&lt;14&gt;[0.1907]&#45;&gt;Reservoir(29)
&lt;38&gt;[0.07] -->
<g id="edge17" class="edge">
<title>Canola_6(15)
&lt;14&gt;[0.1907]&#45;&gt;Reservoir(29)
&lt;38&gt;[0.07]</title>
<path fill="none" stroke="black" d="M760.24,-812.63C760.24,-778.01 760.24,-715.08 760.24,-661.31 760.24,-661.31 760.24,-661.31 760.24,-390.09 760.24,-338.02 743.26,-312.12 779.24,-274.48 808.85,-243.5 921.82,-226.77 998.51,-218.77"/>
<polygon fill="black" stroke="black" points="999.02,-222.24 1008.61,-217.75 998.31,-215.28 999.02,-222.24"/>
</g>
<!-- Canola_7(16)
&lt;15&gt;[0.05269] -->
<g id="node18" class="node">
<title>Canola_7(16)
&lt;15&gt;[0.05269]</title>
<ellipse fill="none" stroke="black" cx="859.24" cy="-301.35" rx="70.92" ry="26.74"/>
<text text-anchor="middle" x="859.24" y="-305.15" font-family="Times,serif" font-size="14.00">Canola_7(16)</text>
<text text-anchor="middle" x="859.24" y="-290.15" font-family="Times,serif" font-size="14.00">&lt;15&gt;[0.05269]</text>
</g>
<!-- Canola_7(16)
&lt;15&gt;[0.05269]&#45;&gt;Reservoir(29)
&lt;38&gt;[0.07] -->
<g id="edge18" class="edge">
<title>Canola_7(16)
&lt;15&gt;[0.05269]&#45;&gt;Reservoir(29)
&lt;38&gt;[0.07]</title>
<path fill="none" stroke="black" d="M905.98,-281.1C938.89,-267.54 983.06,-249.35 1017.59,-235.12"/>
<polygon fill="black" stroke="black" points="1019.15,-238.26 1027.06,-231.22 1016.48,-231.79 1019.15,-238.26"/>
</g>
<!-- Canola_8(17)
&lt;16&gt;[0.4031] -->
<g id="node19" class="node">
<title>Canola_8(17)
&lt;16&gt;[0.4031]</title>
<ellipse fill="none" stroke="black" cx="902.24" cy="-391.09" rx="65.52" ry="26.74"/>
<text text-anchor="middle" x="902.24" y="-394.89" font-family="Times,serif" font-size="14.00">Canola_8(17)</text>
<text text-anchor="middle" x="902.24" y="-379.89" font-family="Times,serif" font-size="14.00">&lt;16&gt;[0.4031]</text>
</g>
<!-- Canola_8(17)
&lt;16&gt;[0.4031]&#45;&gt;Reservoir(29)
&lt;38&gt;[0.07] -->
<g id="edge19" class="edge">
<title>Canola_8(17)
&lt;16&gt;[0.4031]&#45;&gt;Reservoir(29)
&lt;38&gt;[0.07]</title>
<path fill="none" stroke="black" d="M918.12,-364.93C936.91,-335.58 967.5,-289.17 982.24,-274.48 995.26,-261.5 1011.33,-249.48 1026.27,-239.55"/>
<polygon fill="black" stroke="black" points="1028.41,-242.33 1034.9,-233.95 1024.61,-236.45 1028.41,-242.33"/>
</g>
<!-- Canola_9(18)
&lt;17&gt;[0.07519] -->
<g id="node20" class="node">
<title>Canola_9(18)
&lt;17&gt;[0.07519]</title>
<ellipse fill="none" stroke="black" cx="935.24" cy="-480.83" rx="70.92" ry="26.74"/>
<text text-anchor="middle" x="935.24" y="-484.63" font-family="Times,serif" font-size="14.00">Canola_9(18)</text>
<text text-anchor="middle" x="935.24" y="-469.63" font-family="Times,serif" font-size="14.00">&lt;17&gt;[0.07519]</text>
</g>
<!-- Canola_9(18)
&lt;17&gt;[0.07519]&#45;&gt;Reservoir(29)
&lt;38&gt;[0.07] -->
<g id="edge20" class="edge">
<title>Canola_9(18)
&lt;17&gt;[0.07519]&#45;&gt;Reservoir(29)
&lt;38&gt;[0.07]</title>
<path fill="none" stroke="black" d="M954.87,-454.7C962.65,-443.85 971.16,-430.74 977.24,-417.96 1005.82,-357.84 988.61,-333.06 1020.24,-274.48 1025.91,-263.98 1033.55,-253.62 1041.23,-244.47"/>
<polygon fill="black" stroke="black" points="1044.01,-246.61 1047.94,-236.78 1038.74,-242.01 1044.01,-246.61"/>
</g>
<!-- Forage_1(20)
&lt;18&gt;[0.1046] -->
<g id="node21" class="node">
<title>Forage_1(20)
&lt;18&gt;[0.1046]</title>
<ellipse fill="none" stroke="black" cx="978.24" cy="-570.57" rx="65.52" ry="26.74"/>
<text text-anchor="middle" x="978.24" y="-574.37" font-family="Times,serif" font-size="14.00">Forage_1(20)</text>
<text text-anchor="middle" x="978.24" y="-559.37" font-family="Times,serif" font-size="14.00">&lt;18&gt;[0.1046]</text>
</g>
<!-- Forage_1(20)
&lt;18&gt;[0.1046]&#45;&gt;Reservoir(29)
&lt;38&gt;[0.07] -->
<g id="edge21" class="edge">
<title>Forage_1(20)
&lt;18&gt;[0.1046]&#45;&gt;Reservoir(29)
&lt;38&gt;[0.07]</title>
<path fill="none" stroke="black" d="M996.06,-544.42C1003,-533.58 1010.42,-520.46 1015.24,-507.7 1052.43,-409.08 1037.05,-377.73 1058.24,-274.48 1059.97,-266.04 1061.95,-256.99 1063.86,-248.48"/>
<polygon fill="black" stroke="black" points="1067.34,-248.98 1066.15,-238.45 1060.52,-247.42 1067.34,-248.98"/>
</g>
<!-- Forage_2(21)
&lt;19&gt;[0.2142] -->
<g id="node22" class="node">
<title>Forage_2(21)
&lt;19&gt;[0.2142]</title>
<ellipse fill="none" stroke="black" cx="1016.24" cy="-660.31" rx="65.52" ry="26.74"/>
<text text-anchor="middle" x="1016.24" y="-664.11" font-family="Times,serif" font-size="14.00">Forage_2(21)</text>
<text text-anchor="middle" x="1016.24" y="-649.11" font-family="Times,serif" font-size="14.00">&lt;19&gt;[0.2142]</text>
</g>
<!-- Forage_2(21)
&lt;19&gt;[0.2142]&#45;&gt;Reservoir(29)
&lt;38&gt;[0.07] -->
<g id="edge22" class="edge">
<title>Forage_2(21)
&lt;19&gt;[0.2142]&#45;&gt;Reservoir(29)
&lt;38&gt;[0.07]</title>
<path fill="none" stroke="black" d="M1034.19,-634.21C1041.14,-623.37 1048.55,-610.25 1053.24,-597.44 1071.14,-548.54 1072.24,-533.9 1072.24,-481.83 1072.24,-481.83 1072.24,-481.83 1072.24,-390.09 1072.24,-341.36 1072.24,-285.11 1072.24,-249.22"/>
<polygon fill="black" stroke="black" points="1075.74,-248.77 1072.24,-238.77 1068.74,-248.77 1075.74,-248.77"/>
</g>
<!-- Forage_3(22)
&lt;20&gt;[0.09283] -->
<g id="node23" class="node">
<title>Forage_3(22)
&lt;20&gt;[0.09283]</title>
<ellipse fill="none" stroke="black" cx="1049.24" cy="-750.05" rx="70.92" ry="26.74"/>
<text text-anchor="middle" x="1049.24" y="-753.85" font-family="Times,serif" font-size="14.00">Forage_3(22)</text>
<text text-anchor="middle" x="1049.24" y="-738.85" font-family="Times,serif" font-size="14.00">&lt;20&gt;[0.09283]</text>
</g>
<!-- Forage_3(22)
&lt;20&gt;[0.09283]&#45;&gt;Reservoir(29)
&lt;38&gt;[0.07] -->
<g id="edge23" class="edge">
<title>Forage_3(22)
&lt;20&gt;[0.09283]&#45;&gt;Reservoir(29)
&lt;38&gt;[0.07]</title>
<path fill="none" stroke="black" d="M1069.69,-724.28C1077.6,-713.49 1085.99,-700.32 1091.24,-687.18 1110.53,-638.82 1110.24,-623.64 1110.24,-571.57 1110.24,-571.57 1110.24,-571.57 1110.24,-390.09 1110.24,-340.04 1095.61,-283.78 1084.51,-248.28"/>
<polygon fill="black" stroke="black" points="1087.73,-246.86 1081.34,-238.4 1081.06,-248.99 1087.73,-246.86"/>
</g>
<!-- Forage_4(23)
&lt;21&gt;[0.04132] -->
<g id="node24" class="node">
<title>Forage_4(23)
&lt;21&gt;[0.04132]</title>
<ellipse fill="none" stroke="black" cx="1148.24" cy="-839.79" rx="70.92" ry="26.74"/>
<text text-anchor="middle" x="1148.24" y="-843.59" font-family="Times,serif" font-size="14.00">Forage_4(23)</text>
<text text-anchor="middle" x="1148.24" y="-828.59" font-family="Times,serif" font-size="14.00">&lt;21&gt;[0.04132]</text>
</g>
<!-- Forage_4(23)
&lt;21&gt;[0.04132]&#45;&gt;Reservoir(29)
&lt;38&gt;[0.07] -->
<g id="edge24" class="edge">
<title>Forage_4(23)
&lt;21&gt;[0.04132]&#45;&gt;Reservoir(29)
&lt;38&gt;[0.07]</title>
<path fill="none" stroke="black" d="M1148.24,-812.63C1148.24,-778.01 1148.24,-715.08 1148.24,-661.31 1148.24,-661.31 1148.24,-661.31 1148.24,-390.09 1148.24,-336.55 1118.65,-280.73 1096.4,-246.32"/>
<polygon fill="black" stroke="black" points="1099.08,-244.02 1090.64,-237.62 1093.24,-247.89 1099.08,-244.02"/>
</g>
<!-- Forage_5(24)
&lt;22&gt;[0.0574] -->
<g id="node25" class="node">
<title>Forage_5(24)
&lt;22&gt;[0.0574]</title>
<ellipse fill="none" stroke="black" cx="1242.24" cy="-301.35" rx="65.52" ry="26.74"/>
<text text-anchor="middle" x="1242.24" y="-305.15" font-family="Times,serif" font-size="14.00">Forage_5(24)</text>
<text text-anchor="middle" x="1242.24" y="-290.15" font-family="Times,serif" font-size="14.00">&lt;22&gt;[0.0574]</text>
</g>
<!-- Forage_5(24)
&lt;22&gt;[0.0574]&#45;&gt;Reservoir(29)
&lt;38&gt;[0.07] -->
<g id="edge25" class="edge">
<title>Forage_5(24)
&lt;22&gt;[0.0574]&#45;&gt;Reservoir(29)
&lt;38&gt;[0.07]</title>
<path fill="none" stroke="black" d="M1202.38,-279.78C1177.98,-267.18 1146.58,-250.98 1120.73,-237.64"/>
<polygon fill="black" stroke="black" points="1122.34,-234.53 1111.85,-233.05 1119.13,-240.75 1122.34,-234.53"/>
</g>
<!-- Impermeable(25)
&lt;23&gt;[0.03251] -->
<g id="node26" class="node">
<title>Impermeable(25)
&lt;23&gt;[0.03251]</title>
<ellipse fill="none" stroke="black" cx="1267.24" cy="-391.09" rx="79.39" ry="26.74"/>
<text text-anchor="middle" x="1267.24" y="-394.89" font-family="Times,serif" font-size="14.00">Impermeable(25)</text>
<text text-anchor="middle" x="1267.24" y="-379.89" font-family="Times,serif" font-size="14.00">&lt;23&gt;[0.03251]</text>
</g>
<!-- Impermeable(25)
&lt;23&gt;[0.03251]&#45;&gt;Reservoir(29)
&lt;38&gt;[0.07] -->
<g id="edge26" class="edge">
<title>Impermeable(25)
&lt;23&gt;[0.03251]&#45;&gt;Reservoir(29)
&lt;38&gt;[0.07]</title>
<path fill="none" stroke="black" d="M1292.13,-365.16C1313.83,-340.34 1338.74,-302.08 1317.24,-274.48 1306.21,-260.32 1209.1,-238.97 1140.52,-225.42"/>
<polygon fill="black" stroke="black" points="1141.1,-221.96 1130.62,-223.47 1139.76,-228.83 1141.1,-221.96"/>
</g>
<!-- Oat_1(26)
&lt;24&gt;[0.2384] -->
<g id="node27" class="node">
<title>Oat_1(26)
&lt;24&gt;[0.2384]</title>
<ellipse fill="none" stroke="black" cx="1318.24" cy="-480.83" rx="65.52" ry="26.74"/>
<text text-anchor="middle" x="1318.24" y="-484.63" font-family="Times,serif" font-size="14.00">Oat_1(26)</text>
<text text-anchor="middle" x="1318.24" y="-469.63" font-family="Times,serif" font-size="14.00">&lt;24&gt;[0.2384]</text>
</g>
<!-- Oat_1(26)
&lt;24&gt;[0.2384]&#45;&gt;Reservoir(29)
&lt;38&gt;[0.07] -->
<g id="edge27" class="edge">
<title>Oat_1(26)
&lt;24&gt;[0.2384]&#45;&gt;Reservoir(29)
&lt;38&gt;[0.07]</title>
<path fill="none" stroke="black" d="M1337.23,-455.07C1344.36,-444.28 1351.61,-431.11 1355.24,-417.96 1372.36,-355.96 1381.23,-320.45 1336.24,-274.48 1322.54,-260.48 1215.08,-238.54 1141.56,-224.89"/>
<polygon fill="black" stroke="black" points="1141.89,-221.4 1131.42,-223.02 1140.62,-228.28 1141.89,-221.4"/>
</g>
<!-- Oat_2(27)
&lt;25&gt;[0.1459] -->
<g id="node28" class="node">
<title>Oat_2(27)
&lt;25&gt;[0.1459]</title>
<ellipse fill="none" stroke="black" cx="1356.24" cy="-570.57" rx="65.52" ry="26.74"/>
<text text-anchor="middle" x="1356.24" y="-574.37" font-family="Times,serif" font-size="14.00">Oat_2(27)</text>
<text text-anchor="middle" x="1356.24" y="-559.37" font-family="Times,serif" font-size="14.00">&lt;25&gt;[0.1459]</text>
</g>
<!-- Oat_2(27)
&lt;25&gt;[0.1459]&#45;&gt;Reservoir(29)
&lt;38&gt;[0.07] -->
<g id="edge28" class="edge">
<title>Oat_2(27)
&lt;25&gt;[0.1459]&#45;&gt;Reservoir(29)
&lt;38&gt;[0.07]</title>
<path fill="none" stroke="black" d="M1375.23,-544.81C1382.36,-534.02 1389.61,-520.85 1393.24,-507.7 1411.8,-440.49 1389.38,-299.01 1366.24,-274.48 1358.46,-266.23 1225.54,-240.63 1141.11,-225.07"/>
<polygon fill="black" stroke="black" points="1141.54,-221.59 1131.07,-223.22 1140.27,-228.47 1141.54,-221.59"/>
</g>
<!-- Pasture_1(28)
&lt;26&gt;[0.134] -->
<g id="node29" class="node">
<title>Pasture_1(28)
&lt;26&gt;[0.134]</title>
<ellipse fill="none" stroke="black" cx="1395.24" cy="-660.31" rx="65.11" ry="26.74"/>
<text text-anchor="middle" x="1395.24" y="-664.11" font-family="Times,serif" font-size="14.00">Pasture_1(28)</text>
<text text-anchor="middle" x="1395.24" y="-649.11" font-family="Times,serif" font-size="14.00">&lt;26&gt;[0.134]</text>
</g>
<!-- Pasture_1(28)
&lt;26&gt;[0.134]&#45;&gt;Reservoir(29)
&lt;38&gt;[0.07] -->
<g id="edge29" class="edge">
<title>Pasture_1(28)
&lt;26&gt;[0.134]&#45;&gt;Reservoir(29)
&lt;38&gt;[0.07]</title>
<path fill="none" stroke="black" d="M1412.69,-634.15C1419.45,-623.3 1426.66,-610.19 1431.24,-597.44 1448.84,-548.44 1450.24,-533.9 1450.24,-481.83 1450.24,-481.83 1450.24,-481.83 1450.24,-390.09 1450.24,-332.4 1437.33,-309.17 1391.24,-274.48 1386.21,-270.7 1233.42,-242.17 1141.15,-225.2"/>
<polygon fill="black" stroke="black" points="1141.5,-221.71 1131.04,-223.34 1140.24,-228.59 1141.5,-221.71"/>
</g>
<!-- Riparian_1(30)
&lt;27&gt;[2.317] -->
<g id="node30" class="node">
<title>Riparian_1(30)
&lt;27&gt;[2.317]</title>
<ellipse fill="none" stroke="black" cx="1428.24" cy="-750.05" rx="70.01" ry="26.74"/>
<text text-anchor="middle" x="1428.24" y="-753.85" font-family="Times,serif" font-size="14.00">Riparian_1(30)</text>
<text text-anchor="middle" x="1428.24" y="-738.85" font-family="Times,serif" font-size="14.00">&lt;27&gt;[2.317]</text>
</g>
<!-- Riparian_1(30)
&lt;27&gt;[2.317]&#45;&gt;Reservoir(29)
&lt;38&gt;[0.07] -->
<g id="edge30" class="edge">
<title>Riparian_1(30)
&lt;27&gt;[2.317]&#45;&gt;Reservoir(29)
&lt;38&gt;[0.07]</title>
<path fill="none" stroke="black" d="M1448.19,-724.21C1455.91,-713.41 1464.11,-700.26 1469.24,-687.18 1488.26,-638.71 1488.24,-623.64 1488.24,-571.57 1488.24,-571.57 1488.24,-571.57 1488.24,-390.09 1488.24,-332.6 1476.44,-308.69 1430.24,-274.48 1353.78,-217.87 1312.97,-254.72 1219.24,-238.48 1193.77,-234.07 1165.83,-229.16 1141.21,-224.82"/>
<polygon fill="black" stroke="black" points="1141.69,-221.36 1131.24,-223.07 1140.48,-228.25 1141.69,-221.36"/>
</g>
<!-- Riparian_2(31)
&lt;28&gt;[0.2337] -->
<g id="node31" class="node">
<title>Riparian_2(31)
&lt;28&gt;[0.2337]</title>
<ellipse fill="none" stroke="black" cx="1526.24" cy="-839.79" rx="70.01" ry="26.74"/>
<text text-anchor="middle" x="1526.24" y="-843.59" font-family="Times,serif" font-size="14.00">Riparian_2(31)</text>
<text text-anchor="middle" x="1526.24" y="-828.59" font-family="Times,serif" font-size="14.00">&lt;28&gt;[0.2337]</text>
</g>
<!-- Riparian_2(31)
&lt;28&gt;[0.2337]&#45;&gt;Reservoir(29)
&lt;38&gt;[0.07] -->
<g id="edge31" class="edge">
<title>Riparian_2(31)
&lt;28&gt;[0.2337]&#45;&gt;Reservoir(29)
&lt;38&gt;[0.07]</title>
<path fill="none" stroke="black" d="M1526.24,-812.63C1526.24,-778.01 1526.24,-715.08 1526.24,-661.31 1526.24,-661.31 1526.24,-661.31 1526.24,-390.09 1526.24,-332.8 1515.6,-308.13 1469.24,-274.48 1423.81,-241.51 1274.66,-247.35 1219.24,-238.48 1193.6,-234.38 1165.51,-229.53 1140.82,-225.14"/>
<polygon fill="black" stroke="black" points="1141.28,-221.66 1130.82,-223.35 1140.05,-228.55 1141.28,-221.66"/>
</g>
<!-- Riparian_3(32)
&lt;29&gt;[0.14] -->
<g id="node32" class="node">
<title>Riparian_3(32)
&lt;29&gt;[0.14]</title>
<ellipse fill="none" stroke="black" cx="1624.24" cy="-301.35" rx="70.01" ry="26.74"/>
<text text-anchor="middle" x="1624.24" y="-305.15" font-family="Times,serif" font-size="14.00">Riparian_3(32)</text>
<text text-anchor="middle" x="1624.24" y="-290.15" font-family="Times,serif" font-size="14.00">&lt;29&gt;[0.14]</text>
</g>
<!-- Riparian_3(32)
&lt;29&gt;[0.14]&#45;&gt;Reservoir(29)
&lt;38&gt;[0.07] -->
<g id="edge32" class="edge">
<title>Riparian_3(32)
&lt;29&gt;[0.14]&#45;&gt;Reservoir(29)
&lt;38&gt;[0.07]</title>
<path fill="none" stroke="black" d="M1573.1,-282.94C1562.34,-279.75 1550.99,-276.72 1540.24,-274.48 1399.69,-245.22 1361.33,-258.93 1219.24,-238.48 1193.43,-234.77 1165.19,-229.97 1140.43,-225.53"/>
<polygon fill="black" stroke="black" points="1140.87,-222.05 1130.41,-223.71 1139.62,-228.94 1140.87,-222.05"/>
</g>
<!-- Riparian_4(33)
&lt;30&gt;[0.06434] -->
<g id="node33" class="node">
<title>Riparian_4(33)
&lt;30&gt;[0.06434]</title>
<ellipse fill="none" stroke="black" cx="1661.24" cy="-391.09" rx="70.92" ry="26.74"/>
<text text-anchor="middle" x="1661.24" y="-394.89" font-family="Times,serif" font-size="14.00">Riparian_4(33)</text>
<text text-anchor="middle" x="1661.24" y="-379.89" font-family="Times,serif" font-size="14.00">&lt;30&gt;[0.06434]</text>
</g>
<!-- Riparian_4(33)
&lt;30&gt;[0.06434]&#45;&gt;Reservoir(29)
&lt;38&gt;[0.07] -->
<g id="edge33" class="edge">
<title>Riparian_4(33)
&lt;30&gt;[0.06434]&#45;&gt;Reservoir(29)
&lt;38&gt;[0.07]</title>
<path fill="none" stroke="black" d="M1683.22,-365.5C1703.42,-339.88 1726.92,-299.99 1703.24,-274.48 1666.55,-234.96 1272.75,-245.16 1219.24,-238.48 1193.25,-235.24 1164.87,-230.52 1140.03,-226"/>
<polygon fill="black" stroke="black" points="1140.45,-222.52 1129.98,-224.15 1139.18,-229.4 1140.45,-222.52"/>
</g>
<!-- Wheat_1(34)
&lt;31&gt;[0.2134] -->
<g id="node34" class="node">
<title>Wheat_1(34)
&lt;31&gt;[0.2134]</title>
<ellipse fill="none" stroke="black" cx="1704.24" cy="-480.83" rx="65.52" ry="26.74"/>
<text text-anchor="middle" x="1704.24" y="-484.63" font-family="Times,serif" font-size="14.00">Wheat_1(34)</text>
<text text-anchor="middle" x="1704.24" y="-469.63" font-family="Times,serif" font-size="14.00">&lt;31&gt;[0.2134]</text>
</g>
<!-- Wheat_1(34)
&lt;31&gt;[0.2134]&#45;&gt;Reservoir(29)
&lt;38&gt;[0.07] -->
<g id="edge34" class="edge">
<title>Wheat_1(34)
&lt;31&gt;[0.2134]&#45;&gt;Reservoir(29)
&lt;38&gt;[0.07]</title>
<path fill="none" stroke="black" d="M1723.23,-455.07C1730.36,-444.28 1737.61,-431.11 1741.24,-417.96 1758.38,-355.9 1770,-316.52 1721.24,-274.48 1678.89,-237.96 1274.74,-245.34 1219.24,-238.48 1193.24,-235.27 1164.86,-230.56 1140.03,-226.04"/>
<polygon fill="black" stroke="black" points="1140.45,-222.56 1129.98,-224.18 1139.18,-229.44 1140.45,-222.56"/>
</g>
<!-- Wheat_2(35)
&lt;32&gt;[0.03848] -->
<g id="node35" class="node">
<title>Wheat_2(35)
&lt;32&gt;[0.03848]</title>
<ellipse fill="none" stroke="black" cx="1737.24" cy="-570.57" rx="70.92" ry="26.74"/>
<text text-anchor="middle" x="1737.24" y="-574.37" font-family="Times,serif" font-size="14.00">Wheat_2(35)</text>
<text text-anchor="middle" x="1737.24" y="-559.37" font-family="Times,serif" font-size="14.00">&lt;32&gt;[0.03848]</text>
</g>
<!-- Wheat_2(35)
&lt;32&gt;[0.03848]&#45;&gt;Reservoir(29)
&lt;38&gt;[0.07] -->
<g id="edge35" class="edge">
<title>Wheat_2(35)
&lt;32&gt;[0.03848]&#45;&gt;Reservoir(29)
&lt;38&gt;[0.07]</title>
<path fill="none" stroke="black" d="M1758.99,-544.88C1767,-534.21 1775.12,-521.1 1779.24,-507.7 1799.8,-440.81 1779.71,-300.58 1751.24,-274.48 1707.56,-234.45 1278.05,-245.62 1219.24,-238.48 1193.24,-235.32 1164.85,-230.62 1140.02,-226.1"/>
<polygon fill="black" stroke="black" points="1140.44,-222.62 1129.97,-224.24 1139.17,-229.5 1140.44,-222.62"/>
</g>
<!-- Wheat_3(36)
&lt;33&gt;[0.1055] -->
<g id="node36" class="node">
<title>Wheat_3(36)
&lt;33&gt;[0.1055]</title>
<ellipse fill="none" stroke="black" cx="1780.24" cy="-660.31" rx="65.52" ry="26.74"/>
<text text-anchor="middle" x="1780.24" y="-664.11" font-family="Times,serif" font-size="14.00">Wheat_3(36)</text>
<text text-anchor="middle" x="1780.24" y="-649.11" font-family="Times,serif" font-size="14.00">&lt;33&gt;[0.1055]</text>
</g>
<!-- Wheat_3(36)
&lt;33&gt;[0.1055]&#45;&gt;Reservoir(29)
&lt;38&gt;[0.07] -->
<g id="edge36" class="edge">
<title>Wheat_3(36)
&lt;33&gt;[0.1055]&#45;&gt;Reservoir(29)
&lt;38&gt;[0.07]</title>
<path fill="none" stroke="black" d="M1798.19,-634.21C1805.14,-623.37 1812.55,-610.25 1817.24,-597.44 1835.14,-548.54 1836.24,-533.9 1836.24,-481.83 1836.24,-481.83 1836.24,-481.83 1836.24,-390.09 1836.24,-332.2 1824.71,-306.12 1776.24,-274.48 1724.3,-240.58 1280.81,-245.87 1219.24,-238.48 1193.23,-235.36 1164.85,-230.67 1140.02,-226.14"/>
<polygon fill="black" stroke="black" points="1140.44,-222.66 1129.97,-224.28 1139.16,-229.54 1140.44,-222.66"/>
</g>
<!-- Wheat_4(37)
&lt;34&gt;[0.2869] -->
<g id="node37" class="node">
<title>Wheat_4(37)
&lt;34&gt;[0.2869]</title>
<ellipse fill="none" stroke="black" cx="1818.24" cy="-750.05" rx="65.52" ry="26.74"/>
<text text-anchor="middle" x="1818.24" y="-753.85" font-family="Times,serif" font-size="14.00">Wheat_4(37)</text>
<text text-anchor="middle" x="1818.24" y="-738.85" font-family="Times,serif" font-size="14.00">&lt;34&gt;[0.2869]</text>
</g>
<!-- Wheat_4(37)
&lt;34&gt;[0.2869]&#45;&gt;Reservoir(29)
&lt;38&gt;[0.07] -->
<g id="edge37" class="edge">
<title>Wheat_4(37)
&lt;34&gt;[0.2869]&#45;&gt;Reservoir(29)
&lt;38&gt;[0.07]</title>
<path fill="none" stroke="black" d="M1836.19,-723.95C1843.14,-713.11 1850.55,-699.99 1855.24,-687.18 1873.14,-638.28 1874.24,-623.64 1874.24,-571.57 1874.24,-571.57 1874.24,-571.57 1874.24,-390.09 1874.24,-332.4 1863.5,-306.08 1815.24,-274.48 1759.73,-238.14 1285.12,-246.24 1219.24,-238.48 1193.23,-235.42 1164.84,-230.74 1140.01,-226.2"/>
<polygon fill="black" stroke="black" points="1140.43,-222.72 1129.96,-224.34 1139.16,-229.6 1140.43,-222.72"/>
</g>
<!-- Wheat_5(38)
&lt;35&gt;[0.08959] -->
<g id="node38" class="node">
<title>Wheat_5(38)
&lt;35&gt;[0.08959]</title>
<ellipse fill="none" stroke="black" cx="1912.24" cy="-839.79" rx="70.92" ry="26.74"/>
<text text-anchor="middle" x="1912.24" y="-843.59" font-family="Times,serif" font-size="14.00">Wheat_5(38)</text>
<text text-anchor="middle" x="1912.24" y="-828.59" font-family="Times,serif" font-size="14.00">&lt;35&gt;[0.08959]</text>
</g>
<!-- Wheat_5(38)
&lt;35&gt;[0.08959]&#45;&gt;Reservoir(29)
&lt;38&gt;[0.07] -->
<g id="edge38" class="edge">
<title>Wheat_5(38)
&lt;35&gt;[0.08959]&#45;&gt;Reservoir(29)
&lt;38&gt;[0.07]</title>
<path fill="none" stroke="black" d="M1912.24,-812.63C1912.24,-778.01 1912.24,-715.08 1912.24,-661.31 1912.24,-661.31 1912.24,-661.31 1912.24,-390.09 1912.24,-332.4 1901.56,-305.99 1853.24,-274.48 1794.13,-235.94 1289.33,-246.61 1219.24,-238.48 1193.11,-235.45 1164.59,-230.75 1139.68,-226.19"/>
<polygon fill="black" stroke="black" points="1140.08,-222.71 1129.6,-224.32 1138.8,-229.59 1140.08,-222.71"/>
</g>
<!-- Wheat_6(39)
&lt;36&gt;[0.1298] -->
<g id="node39" class="node">
<title>Wheat_6(39)
&lt;36&gt;[0.1298]</title>
<ellipse fill="none" stroke="black" cx="2006.24" cy="-301.35" rx="65.52" ry="26.74"/>
<text text-anchor="middle" x="2006.24" y="-305.15" font-family="Times,serif" font-size="14.00">Wheat_6(39)</text>
<text text-anchor="middle" x="2006.24" y="-290.15" font-family="Times,serif" font-size="14.00">&lt;36&gt;[0.1298]</text>
</g>
<!-- Wheat_6(39)
&lt;36&gt;[0.1298]&#45;&gt;Reservoir(29)
&lt;38&gt;[0.07] -->
<g id="edge39" class="edge">
<title>Wheat_6(39)
&lt;36&gt;[0.1298]&#45;&gt;Reservoir(29)
&lt;38&gt;[0.07]</title>
<path fill="none" stroke="black" d="M1958.54,-282.68C1948.03,-279.42 1936.86,-276.43 1926.24,-274.48 1616.79,-217.59 1531.88,-273.81 1219.24,-238.48 1193.1,-235.53 1164.58,-230.85 1139.67,-226.28"/>
<polygon fill="black" stroke="black" points="1140.07,-222.79 1129.6,-224.4 1138.78,-229.67 1140.07,-222.79"/>
</g>
<!-- Winter_wheat_1(40)
&lt;37&gt;[0.081] -->
<g id="node40" class="node">
<title>Winter_wheat_1(40)
&lt;37&gt;[0.081]</title>
<ellipse fill="none" stroke="black" cx="2100.24" cy="-391.09" rx="91.43" ry="26.74"/>
<text text-anchor="middle" x="2100.24" y="-394.89" font-family="Times,serif" font-size="14.00">Winter_wheat_1(40)</text>
<text text-anchor="middle" x="2100.24" y="-379.89" font-family="Times,serif" font-size="14.00">&lt;37&gt;[0.081]</text>
</g>
<!-- Winter_wheat_1(40)
&lt;37&gt;[0.081]&#45;&gt;Reservoir(29)
&lt;38&gt;[0.07] -->
<g id="edge40" class="edge">
<title>Winter_wheat_1(40)
&lt;37&gt;[0.081]&#45;&gt;Reservoir(29)
&lt;38&gt;[0.07]</title>
<path fill="none" stroke="black" d="M2104.36,-364.11C2106.97,-337.32 2106.06,-296.46 2081.24,-274.48 2045.36,-242.7 1266.89,-243.65 1219.24,-238.48 1193.09,-235.65 1164.56,-230.99 1139.65,-226.41"/>
<polygon fill="black" stroke="black" points="1140.06,-222.92 1129.58,-224.52 1138.77,-229.8 1140.06,-222.92"/>
</g>
<!-- Canola_10(5)
&lt;40&gt;[0.04689] -->
<g id="node41" class="node">
<title>Canola_10(5)
&lt;40&gt;[0.04689]</title>
<ellipse fill="none" stroke="black" cx="1220.24" cy="-121.87" rx="70.92" ry="26.74"/>
<text text-anchor="middle" x="1220.24" y="-125.67" font-family="Times,serif" font-size="14.00">Canola_10(5)</text>
<text text-anchor="middle" x="1220.24" y="-110.67" font-family="Times,serif" font-size="14.00">&lt;40&gt;[0.04689]</text>
</g>
<!-- Canola_10(5)
&lt;40&gt;[0.04689]&#45;&gt;basin -->
<g id="edge41" class="edge">
<title>Canola_10(5)
&lt;40&gt;[0.04689]&#45;&gt;basin</title>
<path fill="none" stroke="black" d="M1220.24,-94.61C1220.24,-86.51 1220.24,-77.57 1220.24,-69.39"/>
<polygon fill="black" stroke="black" points="1223.74,-69.22 1220.24,-59.22 1216.74,-69.22 1223.74,-69.22"/>
</g>
<!-- Winter_wheat_2(41)
&lt;41&gt;[0.02548] -->
<g id="node42" class="node">
<title>Winter_wheat_2(41)
&lt;41&gt;[0.02548]</title>
<ellipse fill="none" stroke="black" cx="1319.24" cy="-211.61" rx="91.43" ry="26.74"/>
<text text-anchor="middle" x="1319.24" y="-215.41" font-family="Times,serif" font-size="14.00">Winter_wheat_2(41)</text>
<text text-anchor="middle" x="1319.24" y="-200.41" font-family="Times,serif" font-size="14.00">&lt;41&gt;[0.02548]</text>
</g>
<!-- Winter_wheat_2(41)
&lt;41&gt;[0.02548]&#45;&gt;basin -->
<g id="edge42" class="edge">
<title>Winter_wheat_2(41)
&lt;41&gt;[0.02548]&#45;&gt;basin</title>
<path fill="none" stroke="black" d="M1320.69,-184.62C1320.84,-159.7 1317.7,-121.98 1300.24,-95 1289.01,-77.65 1269.89,-64.67 1253.15,-55.9"/>
<polygon fill="black" stroke="black" points="1254.68,-52.75 1244.16,-51.46 1251.58,-59.03 1254.68,-52.75"/>
</g>
</g>
</svg>
