<?xml version="1.0" encoding="UTF-8" standalone="no"?>
<!DOCTYPE svg PUBLIC "-//W3C//DTD SVG 1.1//EN"
 "http://www.w3.org/Graphics/SVG/1.1/DTD/svg11.dtd">
<!-- Generated by graphviz version 2.43.0 (0)
 -->
<!-- Title: TEST Pages: 1 -->
<svg width="2253pt" height="964pt"
 viewBox="0.00 0.00 2252.57 964.40" xmlns="http://www.w3.org/2000/svg" xmlns:xlink="http://www.w3.org/1999/xlink">
<g id="graph0" class="graph" transform="scale(1 1) rotate(0) translate(4 960.4)">
<title>TEST</title>
<polygon fill="white" stroke="transparent" points="-4,4 -4,-960.4 2248.57,-960.4 2248.57,4 -4,4"/>
<text text-anchor="middle" x="1122.29" y="-7.8" font-family="Times,serif" font-size="14.00">M_Miami_project_GrpM</text>
<!-- Alfalfa 1(1)
&lt;1&gt;[0.04494] -->
<g id="node1" class="node">
<title>Alfalfa 1(1)
&lt;1&gt;[0.04494]</title>
<ellipse fill="none" stroke="black" cx="65.76" cy="-391.09" rx="65.52" ry="26.74"/>
<text text-anchor="middle" x="65.76" y="-394.89" font-family="Times,serif" font-size="14.00">Alfalfa 1(1)</text>
<text text-anchor="middle" x="65.76" y="-379.89" font-family="Times,serif" font-size="14.00">&lt;1&gt;[0.04494]</text>
</g>
<!-- Riparian forest(30)
&lt;39&gt;[4.085] -->
<g id="node2" class="node">
<title>Riparian forest(30)
&lt;39&gt;[4.085]</title>
<ellipse fill="none" stroke="black" cx="1078.76" cy="-301.35" rx="84.71" ry="26.74"/>
<text text-anchor="middle" x="1078.76" y="-305.15" font-family="Times,serif" font-size="14.00">Riparian forest(30)</text>
<text text-anchor="middle" x="1078.76" y="-290.15" font-family="Times,serif" font-size="14.00">&lt;39&gt;[4.085]</text>
</g>
<!-- Alfalfa 1(1)
&lt;1&gt;[0.04494]&#45;&gt;Riparian forest(30)
&lt;39&gt;[4.085] -->
<g id="edge1" class="edge">
<title>Alfalfa 1(1)
&lt;1&gt;[0.04494]&#45;&gt;Riparian forest(30)
&lt;39&gt;[4.085]</title>
<path fill="none" stroke="black" d="M113.49,-372.54C123.99,-369.27 135.15,-366.25 145.76,-364.22 304.5,-333.78 780.84,-313.26 984.61,-305.65"/>
<polygon fill="black" stroke="black" points="984.83,-309.14 994.7,-305.27 984.57,-302.14 984.83,-309.14"/>
</g>
<!-- Channel(7)
&lt;40&gt;[0.03] -->
<g id="node3" class="node">
<title>Channel(7)
&lt;40&gt;[0.03]</title>
<ellipse fill="none" stroke="black" cx="1078.76" cy="-211.61" rx="56.64" ry="26.74"/>
<text text-anchor="middle" x="1078.76" y="-215.41" font-family="Times,serif" font-size="14.00">Channel(7)</text>
<text text-anchor="middle" x="1078.76" y="-200.41" font-family="Times,serif" font-size="14.00">&lt;40&gt;[0.03]</text>
</g>
<!-- Riparian forest(30)
&lt;39&gt;[4.085]&#45;&gt;Channel(7)
&lt;40&gt;[0.03] -->
<g id="edge2" class="edge">
<title>Riparian forest(30)
&lt;39&gt;[4.085]&#45;&gt;Channel(7)
&lt;40&gt;[0.03]</title>
<path fill="none" stroke="black" d="M1078.76,-274.03C1078.76,-266.06 1078.76,-257.17 1078.76,-248.68"/>
<polygon fill="black" stroke="black" points="1082.26,-248.61 1078.76,-238.61 1075.26,-248.61 1082.26,-248.61"/>
</g>
<!-- Reservoir(5)
&lt;41&gt;[0.04] -->
<g id="node4" class="node">
<title>Reservoir(5)
&lt;41&gt;[0.04]</title>
<ellipse fill="none" stroke="black" cx="1078.76" cy="-121.87" rx="60.21" ry="26.74"/>
<text text-anchor="middle" x="1078.76" y="-125.67" font-family="Times,serif" font-size="14.00">Reservoir(5)</text>
<text text-anchor="middle" x="1078.76" y="-110.67" font-family="Times,serif" font-size="14.00">&lt;41&gt;[0.04]</text>
</g>
<!-- Channel(7)
&lt;40&gt;[0.03]&#45;&gt;Reservoir(5)
&lt;41&gt;[0.04] -->
<g id="edge3" class="edge">
<title>Channel(7)
&lt;40&gt;[0.03]&#45;&gt;Reservoir(5)
&lt;41&gt;[0.04]</title>
<path fill="none" stroke="black" d="M1078.76,-184.29C1078.76,-176.32 1078.76,-167.43 1078.76,-158.94"/>
<polygon fill="black" stroke="black" points="1082.26,-158.87 1078.76,-148.87 1075.26,-158.87 1082.26,-158.87"/>
</g>
<!-- basin -->
<g id="node5" class="node">
<title>basin</title>
<ellipse fill="none" stroke="black" cx="1150.76" cy="-41" rx="29.5" ry="18"/>
<text text-anchor="middle" x="1150.76" y="-37.3" font-family="Times,serif" font-size="14.00">basin</text>
</g>
<!-- Reservoir(5)
&lt;41&gt;[0.04]&#45;&gt;basin -->
<g id="edge4" class="edge">
<title>Reservoir(5)
&lt;41&gt;[0.04]&#45;&gt;basin</title>
<path fill="none" stroke="black" d="M1100.75,-96.78C1110.02,-86.63 1120.76,-74.87 1129.9,-64.85"/>
<polygon fill="black" stroke="black" points="1132.67,-67 1136.83,-57.26 1127.5,-62.29 1132.67,-67"/>
</g>
<!-- Alfalfa 2(2)
&lt;2&gt;[0.01013] -->
<g id="node6" class="node">
<title>Alfalfa 2(2)
&lt;2&gt;[0.01013]</title>
<ellipse fill="none" stroke="black" cx="131.76" cy="-480.83" rx="65.52" ry="26.74"/>
<text text-anchor="middle" x="131.76" y="-484.63" font-family="Times,serif" font-size="14.00">Alfalfa 2(2)</text>
<text text-anchor="middle" x="131.76" y="-469.63" font-family="Times,serif" font-size="14.00">&lt;2&gt;[0.01013]</text>
</g>
<!-- Alfalfa 2(2)
&lt;2&gt;[0.01013]&#45;&gt;Riparian forest(30)
&lt;39&gt;[4.085] -->
<g id="edge5" class="edge">
<title>Alfalfa 2(2)
&lt;2&gt;[0.01013]&#45;&gt;Riparian forest(30)
&lt;39&gt;[4.085]</title>
<path fill="none" stroke="black" d="M141.64,-453.96C153.66,-426.43 176.78,-384.17 211.76,-364.22 277.53,-326.7 773.12,-309.98 984.12,-304.51"/>
<polygon fill="black" stroke="black" points="984.34,-308.01 994.25,-304.25 984.17,-301.01 984.34,-308.01"/>
</g>
<!-- Alfalfa 3(3)
&lt;3&gt;[0.03774] -->
<g id="node7" class="node">
<title>Alfalfa 3(3)
&lt;3&gt;[0.03774]</title>
<ellipse fill="none" stroke="black" cx="169.76" cy="-570.57" rx="65.52" ry="26.74"/>
<text text-anchor="middle" x="169.76" y="-574.37" font-family="Times,serif" font-size="14.00">Alfalfa 3(3)</text>
<text text-anchor="middle" x="169.76" y="-559.37" font-family="Times,serif" font-size="14.00">&lt;3&gt;[0.03774]</text>
</g>
<!-- Alfalfa 3(3)
&lt;3&gt;[0.03774]&#45;&gt;Riparian forest(30)
&lt;39&gt;[4.085] -->
<g id="edge6" class="edge">
<title>Alfalfa 3(3)
&lt;3&gt;[0.03774]&#45;&gt;Riparian forest(30)
&lt;39&gt;[4.085]</title>
<path fill="none" stroke="black" d="M186.72,-544.45C193.6,-533.49 201.21,-520.3 206.76,-507.7 233.61,-446.78 197.87,-405.93 249.76,-364.22 305.87,-319.12 778.01,-306.74 983.66,-303.47"/>
<polygon fill="black" stroke="black" points="983.9,-306.97 993.85,-303.31 983.79,-299.97 983.9,-306.97"/>
</g>
<!-- Barley(4)
&lt;4&gt;[0.2606] -->
<g id="node8" class="node">
<title>Barley(4)
&lt;4&gt;[0.2606]</title>
<ellipse fill="none" stroke="black" cx="212.76" cy="-660.31" rx="60.62" ry="26.74"/>
<text text-anchor="middle" x="212.76" y="-664.11" font-family="Times,serif" font-size="14.00">Barley(4)</text>
<text text-anchor="middle" x="212.76" y="-649.11" font-family="Times,serif" font-size="14.00">&lt;4&gt;[0.2606]</text>
</g>
<!-- Barley(4)
&lt;4&gt;[0.2606]&#45;&gt;Riparian forest(30)
&lt;39&gt;[4.085] -->
<g id="edge7" class="edge">
<title>Barley(4)
&lt;4&gt;[0.2606]&#45;&gt;Riparian forest(30)
&lt;39&gt;[4.085]</title>
<path fill="none" stroke="black" d="M227.91,-634.17C233.94,-623.22 240.45,-610.03 244.76,-597.44 278.9,-497.72 209.45,-434.76 287.76,-364.22 338.47,-318.54 784.7,-306.51 983.69,-303.4"/>
<polygon fill="black" stroke="black" points="983.9,-306.9 993.85,-303.25 983.79,-299.9 983.9,-306.9"/>
</g>
<!-- Canola 1(6)
&lt;5&gt;[1.193] -->
<g id="node9" class="node">
<title>Canola 1(6)
&lt;5&gt;[1.193]</title>
<ellipse fill="none" stroke="black" cx="254.76" cy="-750.05" rx="57.05" ry="26.74"/>
<text text-anchor="middle" x="254.76" y="-753.85" font-family="Times,serif" font-size="14.00">Canola 1(6)</text>
<text text-anchor="middle" x="254.76" y="-738.85" font-family="Times,serif" font-size="14.00">&lt;5&gt;[1.193]</text>
</g>
<!-- Canola 1(6)
&lt;5&gt;[1.193]&#45;&gt;Riparian forest(30)
&lt;39&gt;[4.085] -->
<g id="edge8" class="edge">
<title>Canola 1(6)
&lt;5&gt;[1.193]&#45;&gt;Riparian forest(30)
&lt;39&gt;[4.085]</title>
<path fill="none" stroke="black" d="M268.03,-723.75C273.31,-712.76 279,-699.59 282.76,-687.18 297.85,-637.34 301.76,-623.64 301.76,-571.57 301.76,-571.57 301.76,-571.57 301.76,-479.83 301.76,-427.35 286.45,-398.98 325.76,-364.22 374.09,-321.49 792.83,-307.89 984.13,-303.89"/>
<polygon fill="black" stroke="black" points="984.25,-307.39 994.18,-303.69 984.11,-300.39 984.25,-307.39"/>
</g>
<!-- Canola 2(8)
&lt;6&gt;[0.1686] -->
<g id="node10" class="node">
<title>Canola 2(8)
&lt;6&gt;[0.1686]</title>
<ellipse fill="none" stroke="black" cx="288.76" cy="-839.79" rx="60.62" ry="26.74"/>
<text text-anchor="middle" x="288.76" y="-843.59" font-family="Times,serif" font-size="14.00">Canola 2(8)</text>
<text text-anchor="middle" x="288.76" y="-828.59" font-family="Times,serif" font-size="14.00">&lt;6&gt;[0.1686]</text>
</g>
<!-- Canola 2(8)
&lt;6&gt;[0.1686]&#45;&gt;Riparian forest(30)
&lt;39&gt;[4.085] -->
<g id="edge9" class="edge">
<title>Canola 2(8)
&lt;6&gt;[0.1686]&#45;&gt;Riparian forest(30)
&lt;39&gt;[4.085]</title>
<path fill="none" stroke="black" d="M304.03,-813.69C310.08,-802.75 316.58,-789.55 320.76,-776.92 337.15,-727.49 339.76,-713.38 339.76,-661.31 339.76,-661.31 339.76,-661.31 339.76,-479.83 339.76,-427.35 324.52,-399.07 363.76,-364.22 409.16,-323.9 800.02,-309.11 983.88,-304.35"/>
<polygon fill="black" stroke="black" points="984.18,-307.84 994.09,-304.09 984,-300.84 984.18,-307.84"/>
</g>
<!-- Canola 3(9)
&lt;7&gt;[0.3337] -->
<g id="node11" class="node">
<title>Canola 3(9)
&lt;7&gt;[0.3337]</title>
<ellipse fill="none" stroke="black" cx="377.76" cy="-929.53" rx="60.62" ry="26.74"/>
<text text-anchor="middle" x="377.76" y="-933.33" font-family="Times,serif" font-size="14.00">Canola 3(9)</text>
<text text-anchor="middle" x="377.76" y="-918.33" font-family="Times,serif" font-size="14.00">&lt;7&gt;[0.3337]</text>
</g>
<!-- Canola 3(9)
&lt;7&gt;[0.3337]&#45;&gt;Riparian forest(30)
&lt;39&gt;[4.085] -->
<g id="edge10" class="edge">
<title>Canola 3(9)
&lt;7&gt;[0.3337]&#45;&gt;Riparian forest(30)
&lt;39&gt;[4.085]</title>
<path fill="none" stroke="black" d="M377.76,-902.37C377.76,-867.75 377.76,-804.82 377.76,-751.05 377.76,-751.05 377.76,-751.05 377.76,-479.83 377.76,-427.76 358.63,-399.68 396.76,-364.22 438.87,-325.05 806.94,-309.75 984.17,-304.61"/>
<polygon fill="black" stroke="black" points="984.38,-308.11 994.27,-304.32 984.18,-301.11 984.38,-308.11"/>
</g>
<!-- Canola 4(10)
&lt;8&gt;[0.1513] -->
<g id="node12" class="node">
<title>Canola 4(10)
&lt;8&gt;[0.1513]</title>
<ellipse fill="none" stroke="black" cx="467.76" cy="-391.09" rx="62.45" ry="26.74"/>
<text text-anchor="middle" x="467.76" y="-394.89" font-family="Times,serif" font-size="14.00">Canola 4(10)</text>
<text text-anchor="middle" x="467.76" y="-379.89" font-family="Times,serif" font-size="14.00">&lt;8&gt;[0.1513]</text>
</g>
<!-- Canola 4(10)
&lt;8&gt;[0.1513]&#45;&gt;Riparian forest(30)
&lt;39&gt;[4.085] -->
<g id="edge11" class="edge">
<title>Canola 4(10)
&lt;8&gt;[0.1513]&#45;&gt;Riparian forest(30)
&lt;39&gt;[4.085]</title>
<path fill="none" stroke="black" d="M513.53,-372.76C523.39,-369.52 533.84,-366.46 543.76,-364.22 696.19,-329.88 877.58,-314.01 985.18,-307.13"/>
<polygon fill="black" stroke="black" points="985.6,-310.61 995.36,-306.49 985.16,-303.62 985.6,-310.61"/>
</g>
<!-- Canola 5(11)
&lt;9&gt;[0.1832] -->
<g id="node13" class="node">
<title>Canola 5(11)
&lt;9&gt;[0.1832]</title>
<ellipse fill="none" stroke="black" cx="505.76" cy="-480.83" rx="62.45" ry="26.74"/>
<text text-anchor="middle" x="505.76" y="-484.63" font-family="Times,serif" font-size="14.00">Canola 5(11)</text>
<text text-anchor="middle" x="505.76" y="-469.63" font-family="Times,serif" font-size="14.00">&lt;9&gt;[0.1832]</text>
</g>
<!-- Canola 5(11)
&lt;9&gt;[0.1832]&#45;&gt;Riparian forest(30)
&lt;39&gt;[4.085] -->
<g id="edge12" class="edge">
<title>Canola 5(11)
&lt;9&gt;[0.1832]&#45;&gt;Riparian forest(30)
&lt;39&gt;[4.085]</title>
<path fill="none" stroke="black" d="M519.13,-454.45C535.78,-423.85 564.17,-375.16 581.76,-364.22 646.97,-323.65 858.85,-309.61 983.93,-304.8"/>
<polygon fill="black" stroke="black" points="984.4,-308.29 994.26,-304.42 984.14,-301.29 984.4,-308.29"/>
</g>
<!-- Canola 7(13)
&lt;10&gt;[0.1789] -->
<g id="node14" class="node">
<title>Canola 7(13)
&lt;10&gt;[0.1789]</title>
<ellipse fill="none" stroke="black" cx="539.76" cy="-570.57" rx="65.52" ry="26.74"/>
<text text-anchor="middle" x="539.76" y="-574.37" font-family="Times,serif" font-size="14.00">Canola 7(13)</text>
<text text-anchor="middle" x="539.76" y="-559.37" font-family="Times,serif" font-size="14.00">&lt;10&gt;[0.1789]</text>
</g>
<!-- Canola 7(13)
&lt;10&gt;[0.1789]&#45;&gt;Riparian forest(30)
&lt;39&gt;[4.085] -->
<g id="edge13" class="edge">
<title>Canola 7(13)
&lt;10&gt;[0.1789]&#45;&gt;Riparian forest(30)
&lt;39&gt;[4.085]</title>
<path fill="none" stroke="black" d="M556.72,-544.45C563.6,-533.49 571.21,-520.3 576.76,-507.7 603.61,-446.78 569.14,-407.45 619.76,-364.22 672.94,-318.81 865.73,-306.54 983.88,-303.35"/>
<polygon fill="black" stroke="black" points="984.11,-306.84 994.02,-303.09 983.93,-299.85 984.11,-306.84"/>
</g>
<!-- Corn 1(14)
&lt;11&gt;[0.1067] -->
<g id="node15" class="node">
<title>Corn 1(14)
&lt;11&gt;[0.1067]</title>
<ellipse fill="none" stroke="black" cx="577.76" cy="-660.31" rx="65.52" ry="26.74"/>
<text text-anchor="middle" x="577.76" y="-664.11" font-family="Times,serif" font-size="14.00">Corn 1(14)</text>
<text text-anchor="middle" x="577.76" y="-649.11" font-family="Times,serif" font-size="14.00">&lt;11&gt;[0.1067]</text>
</g>
<!-- Corn 1(14)
&lt;11&gt;[0.1067]&#45;&gt;Riparian forest(30)
&lt;39&gt;[4.085] -->
<g id="edge14" class="edge">
<title>Corn 1(14)
&lt;11&gt;[0.1067]&#45;&gt;Riparian forest(30)
&lt;39&gt;[4.085]</title>
<path fill="none" stroke="black" d="M595.59,-634.16C602.52,-623.32 609.95,-610.21 614.76,-597.44 651.95,-498.82 581.89,-437.38 657.76,-364.22 703.01,-320.59 874.16,-307.62 983.81,-303.84"/>
<polygon fill="black" stroke="black" points="984.02,-307.33 993.9,-303.51 983.79,-300.34 984.02,-307.33"/>
</g>
<!-- Corn 2(15)
&lt;12&gt;[0.08615] -->
<g id="node16" class="node">
<title>Corn 2(15)
&lt;12&gt;[0.08615]</title>
<ellipse fill="none" stroke="black" cx="610.76" cy="-750.05" rx="70.92" ry="26.74"/>
<text text-anchor="middle" x="610.76" y="-753.85" font-family="Times,serif" font-size="14.00">Corn 2(15)</text>
<text text-anchor="middle" x="610.76" y="-738.85" font-family="Times,serif" font-size="14.00">&lt;12&gt;[0.08615]</text>
</g>
<!-- Corn 2(15)
&lt;12&gt;[0.08615]&#45;&gt;Riparian forest(30)
&lt;39&gt;[4.085] -->
<g id="edge15" class="edge">
<title>Corn 2(15)
&lt;12&gt;[0.08615]&#45;&gt;Riparian forest(30)
&lt;39&gt;[4.085]</title>
<path fill="none" stroke="black" d="M631.22,-724.28C639.12,-713.49 647.52,-700.32 652.76,-687.18 672.06,-638.82 671.76,-623.64 671.76,-571.57 671.76,-571.57 671.76,-571.57 671.76,-479.83 671.76,-427.35 657.84,-400.49 695.76,-364.22 736.06,-325.68 884.43,-311.11 984.23,-305.63"/>
<polygon fill="black" stroke="black" points="984.53,-309.12 994.33,-305.1 984.16,-302.13 984.53,-309.12"/>
</g>
<!-- Forage 1(16)
&lt;13&gt;[0.1047] -->
<g id="node17" class="node">
<title>Forage 1(16)
&lt;13&gt;[0.1047]</title>
<ellipse fill="none" stroke="black" cx="653.76" cy="-839.79" rx="65.52" ry="26.74"/>
<text text-anchor="middle" x="653.76" y="-843.59" font-family="Times,serif" font-size="14.00">Forage 1(16)</text>
<text text-anchor="middle" x="653.76" y="-828.59" font-family="Times,serif" font-size="14.00">&lt;13&gt;[0.1047]</text>
</g>
<!-- Forage 1(16)
&lt;13&gt;[0.1047]&#45;&gt;Riparian forest(30)
&lt;39&gt;[4.085] -->
<g id="edge16" class="edge">
<title>Forage 1(16)
&lt;13&gt;[0.1047]&#45;&gt;Riparian forest(30)
&lt;39&gt;[4.085]</title>
<path fill="none" stroke="black" d="M671.71,-813.69C678.67,-802.85 686.07,-789.73 690.76,-776.92 708.66,-728.02 709.76,-713.38 709.76,-661.31 709.76,-661.31 709.76,-661.31 709.76,-479.83 709.76,-427.35 696.15,-400.82 733.76,-364.22 768.77,-330.15 895.58,-314.48 985.26,-307.53"/>
<polygon fill="black" stroke="black" points="985.75,-311 995.46,-306.76 985.22,-304.02 985.75,-311"/>
</g>
<!-- Forage 2(17)
&lt;14&gt;[0.07527] -->
<g id="node18" class="node">
<title>Forage 2(17)
&lt;14&gt;[0.07527]</title>
<ellipse fill="none" stroke="black" cx="747.76" cy="-929.53" rx="70.92" ry="26.74"/>
<text text-anchor="middle" x="747.76" y="-933.33" font-family="Times,serif" font-size="14.00">Forage 2(17)</text>
<text text-anchor="middle" x="747.76" y="-918.33" font-family="Times,serif" font-size="14.00">&lt;14&gt;[0.07527]</text>
</g>
<!-- Forage 2(17)
&lt;14&gt;[0.07527]&#45;&gt;Riparian forest(30)
&lt;39&gt;[4.085] -->
<g id="edge17" class="edge">
<title>Forage 2(17)
&lt;14&gt;[0.07527]&#45;&gt;Riparian forest(30)
&lt;39&gt;[4.085]</title>
<path fill="none" stroke="black" d="M747.76,-902.37C747.76,-867.75 747.76,-804.82 747.76,-751.05 747.76,-751.05 747.76,-751.05 747.76,-479.83 747.76,-427.76 730.55,-401.64 766.76,-364.22 796.64,-333.35 905.45,-317.15 986.21,-309.19"/>
<polygon fill="black" stroke="black" points="986.79,-312.65 996.41,-308.21 986.13,-305.68 986.79,-312.65"/>
</g>
<!-- Forage 3(18)
&lt;15&gt;[0.02371] -->
<g id="node19" class="node">
<title>Forage 3(18)
&lt;15&gt;[0.02371]</title>
<ellipse fill="none" stroke="black" cx="846.76" cy="-391.09" rx="70.92" ry="26.74"/>
<text text-anchor="middle" x="846.76" y="-394.89" font-family="Times,serif" font-size="14.00">Forage 3(18)</text>
<text text-anchor="middle" x="846.76" y="-379.89" font-family="Times,serif" font-size="14.00">&lt;15&gt;[0.02371]</text>
</g>
<!-- Forage 3(18)
&lt;15&gt;[0.02371]&#45;&gt;Riparian forest(30)
&lt;39&gt;[4.085] -->
<g id="edge18" class="edge">
<title>Forage 3(18)
&lt;15&gt;[0.02371]&#45;&gt;Riparian forest(30)
&lt;39&gt;[4.085]</title>
<path fill="none" stroke="black" d="M895.68,-371.59C930.73,-358.33 978.23,-340.37 1016.06,-326.06"/>
<polygon fill="black" stroke="black" points="1017.35,-329.32 1025.46,-322.51 1014.87,-322.77 1017.35,-329.32"/>
</g>
<!-- Forage 4(19)
&lt;16&gt;[0.07189] -->
<g id="node20" class="node">
<title>Forage 4(19)
&lt;16&gt;[0.07189]</title>
<ellipse fill="none" stroke="black" cx="884.76" cy="-480.83" rx="70.92" ry="26.74"/>
<text text-anchor="middle" x="884.76" y="-484.63" font-family="Times,serif" font-size="14.00">Forage 4(19)</text>
<text text-anchor="middle" x="884.76" y="-469.63" font-family="Times,serif" font-size="14.00">&lt;16&gt;[0.07189]</text>
</g>
<!-- Forage 4(19)
&lt;16&gt;[0.07189]&#45;&gt;Riparian forest(30)
&lt;39&gt;[4.085] -->
<g id="edge19" class="edge">
<title>Forage 4(19)
&lt;16&gt;[0.07189]&#45;&gt;Riparian forest(30)
&lt;39&gt;[4.085]</title>
<path fill="none" stroke="black" d="M901.56,-454.48C921.45,-424.93 953.89,-378.33 969.76,-364.22 985.27,-350.43 1004.36,-338.33 1022.2,-328.57"/>
<polygon fill="black" stroke="black" points="1024.2,-331.47 1031.39,-323.69 1020.91,-325.29 1024.2,-331.47"/>
</g>
<!-- Forage 5(20)
&lt;17&gt;[0.7458] -->
<g id="node21" class="node">
<title>Forage 5(20)
&lt;17&gt;[0.7458]</title>
<ellipse fill="none" stroke="black" cx="927.76" cy="-570.57" rx="65.52" ry="26.74"/>
<text text-anchor="middle" x="927.76" y="-574.37" font-family="Times,serif" font-size="14.00">Forage 5(20)</text>
<text text-anchor="middle" x="927.76" y="-559.37" font-family="Times,serif" font-size="14.00">&lt;17&gt;[0.7458]</text>
</g>
<!-- Forage 5(20)
&lt;17&gt;[0.7458]&#45;&gt;Riparian forest(30)
&lt;39&gt;[4.085] -->
<g id="edge20" class="edge">
<title>Forage 5(20)
&lt;17&gt;[0.7458]&#45;&gt;Riparian forest(30)
&lt;39&gt;[4.085]</title>
<path fill="none" stroke="black" d="M944.72,-544.45C951.6,-533.49 959.21,-520.3 964.76,-507.7 991.61,-446.78 971.69,-420.17 1007.76,-364.22 1015.24,-352.61 1025.52,-341.93 1035.93,-332.82"/>
<polygon fill="black" stroke="black" points="1038.45,-335.28 1043.87,-326.18 1033.95,-329.91 1038.45,-335.28"/>
</g>
<!-- Hay(grass)(21)
&lt;18&gt;[0.1065] -->
<g id="node22" class="node">
<title>Hay(grass)(21)
&lt;18&gt;[0.1065]</title>
<ellipse fill="none" stroke="black" cx="962.76" cy="-660.31" rx="69.09" ry="26.74"/>
<text text-anchor="middle" x="962.76" y="-664.11" font-family="Times,serif" font-size="14.00">Hay(grass)(21)</text>
<text text-anchor="middle" x="962.76" y="-649.11" font-family="Times,serif" font-size="14.00">&lt;18&gt;[0.1065]</text>
</g>
<!-- Hay(grass)(21)
&lt;18&gt;[0.1065]&#45;&gt;Riparian forest(30)
&lt;39&gt;[4.085] -->
<g id="edge21" class="edge">
<title>Hay(grass)(21)
&lt;18&gt;[0.1065]&#45;&gt;Riparian forest(30)
&lt;39&gt;[4.085]</title>
<path fill="none" stroke="black" d="M982.09,-634.36C989.6,-623.54 997.61,-610.4 1002.76,-597.44 1041.67,-499.49 1010.99,-463.72 1045.76,-364.22 1048.95,-355.11 1053.32,-345.7 1057.85,-337.06"/>
<polygon fill="black" stroke="black" points="1061.06,-338.49 1062.77,-328.03 1054.91,-335.14 1061.06,-338.49"/>
</g>
<!-- Oats 1(22)
&lt;19&gt;[0.1505] -->
<g id="node23" class="node">
<title>Oats 1(22)
&lt;19&gt;[0.1505]</title>
<ellipse fill="none" stroke="black" cx="1003.76" cy="-750.05" rx="65.52" ry="26.74"/>
<text text-anchor="middle" x="1003.76" y="-753.85" font-family="Times,serif" font-size="14.00">Oats 1(22)</text>
<text text-anchor="middle" x="1003.76" y="-738.85" font-family="Times,serif" font-size="14.00">&lt;19&gt;[0.1505]</text>
</g>
<!-- Oats 1(22)
&lt;19&gt;[0.1505]&#45;&gt;Riparian forest(30)
&lt;39&gt;[4.085] -->
<g id="edge22" class="edge">
<title>Oats 1(22)
&lt;19&gt;[0.1505]&#45;&gt;Riparian forest(30)
&lt;39&gt;[4.085]</title>
<path fill="none" stroke="black" d="M1021.71,-723.95C1028.67,-713.11 1036.07,-699.99 1040.76,-687.18 1058.66,-638.28 1059.76,-623.64 1059.76,-571.57 1059.76,-571.57 1059.76,-571.57 1059.76,-479.83 1059.76,-430.61 1067.07,-374.15 1072.63,-338.38"/>
<polygon fill="black" stroke="black" points="1076.1,-338.84 1074.21,-328.42 1069.18,-337.75 1076.1,-338.84"/>
</g>
<!-- Pasture 1(23)
&lt;20&gt;[0.04908] -->
<g id="node24" class="node">
<title>Pasture 1(23)
&lt;20&gt;[0.04908]</title>
<ellipse fill="none" stroke="black" cx="1036.76" cy="-839.79" rx="70.92" ry="26.74"/>
<text text-anchor="middle" x="1036.76" y="-843.59" font-family="Times,serif" font-size="14.00">Pasture 1(23)</text>
<text text-anchor="middle" x="1036.76" y="-828.59" font-family="Times,serif" font-size="14.00">&lt;20&gt;[0.04908]</text>
</g>
<!-- Pasture 1(23)
&lt;20&gt;[0.04908]&#45;&gt;Riparian forest(30)
&lt;39&gt;[4.085] -->
<g id="edge23" class="edge">
<title>Pasture 1(23)
&lt;20&gt;[0.04908]&#45;&gt;Riparian forest(30)
&lt;39&gt;[4.085]</title>
<path fill="none" stroke="black" d="M1057.22,-814.02C1065.12,-803.23 1073.52,-790.06 1078.76,-776.92 1098.06,-728.56 1097.76,-713.38 1097.76,-661.31 1097.76,-661.31 1097.76,-661.31 1097.76,-479.83 1097.76,-430.61 1090.45,-374.15 1084.9,-338.38"/>
<polygon fill="black" stroke="black" points="1088.34,-337.75 1083.31,-328.42 1081.43,-338.84 1088.34,-337.75"/>
</g>
<!-- Pasture 2(24)
&lt;21&gt;[0.06046] -->
<g id="node25" class="node">
<title>Pasture 2(24)
&lt;21&gt;[0.06046]</title>
<ellipse fill="none" stroke="black" cx="1135.76" cy="-929.53" rx="70.92" ry="26.74"/>
<text text-anchor="middle" x="1135.76" y="-933.33" font-family="Times,serif" font-size="14.00">Pasture 2(24)</text>
<text text-anchor="middle" x="1135.76" y="-918.33" font-family="Times,serif" font-size="14.00">&lt;21&gt;[0.06046]</text>
</g>
<!-- Pasture 2(24)
&lt;21&gt;[0.06046]&#45;&gt;Riparian forest(30)
&lt;39&gt;[4.085] -->
<g id="edge24" class="edge">
<title>Pasture 2(24)
&lt;21&gt;[0.06046]&#45;&gt;Riparian forest(30)
&lt;39&gt;[4.085]</title>
<path fill="none" stroke="black" d="M1135.76,-902.37C1135.76,-867.75 1135.76,-804.82 1135.76,-751.05 1135.76,-751.05 1135.76,-751.05 1135.76,-479.83 1135.76,-428.36 1113.76,-372.34 1097.1,-337.29"/>
<polygon fill="black" stroke="black" points="1100.09,-335.44 1092.56,-327.98 1093.79,-338.5 1100.09,-335.44"/>
</g>
<!-- Pasture 3(25)
&lt;22&gt;[0.08648] -->
<g id="node26" class="node">
<title>Pasture 3(25)
&lt;22&gt;[0.08648]</title>
<ellipse fill="none" stroke="black" cx="1234.76" cy="-391.09" rx="70.92" ry="26.74"/>
<text text-anchor="middle" x="1234.76" y="-394.89" font-family="Times,serif" font-size="14.00">Pasture 3(25)</text>
<text text-anchor="middle" x="1234.76" y="-379.89" font-family="Times,serif" font-size="14.00">&lt;22&gt;[0.08648]</text>
</g>
<!-- Pasture 3(25)
&lt;22&gt;[0.08648]&#45;&gt;Riparian forest(30)
&lt;39&gt;[4.085] -->
<g id="edge25" class="edge">
<title>Pasture 3(25)
&lt;22&gt;[0.08648]&#45;&gt;Riparian forest(30)
&lt;39&gt;[4.085]</title>
<path fill="none" stroke="black" d="M1196.2,-368.4C1175.58,-356.81 1149.97,-342.4 1127.94,-330.01"/>
<polygon fill="black" stroke="black" points="1129.49,-326.86 1119.06,-325.01 1126.06,-332.97 1129.49,-326.86"/>
</g>
<!-- Pasture 4(26)
&lt;23&gt;[0.1196] -->
<g id="node27" class="node">
<title>Pasture 4(26)
&lt;23&gt;[0.1196]</title>
<ellipse fill="none" stroke="black" cx="1277.76" cy="-480.83" rx="65.52" ry="26.74"/>
<text text-anchor="middle" x="1277.76" y="-484.63" font-family="Times,serif" font-size="14.00">Pasture 4(26)</text>
<text text-anchor="middle" x="1277.76" y="-469.63" font-family="Times,serif" font-size="14.00">&lt;23&gt;[0.1196]</text>
</g>
<!-- Pasture 4(26)
&lt;23&gt;[0.1196]&#45;&gt;Riparian forest(30)
&lt;39&gt;[4.085] -->
<g id="edge26" class="edge">
<title>Pasture 4(26)
&lt;23&gt;[0.1196]&#45;&gt;Riparian forest(30)
&lt;39&gt;[4.085]</title>
<path fill="none" stroke="black" d="M1297.83,-454.98C1315.51,-429.88 1335.49,-391.08 1314.76,-364.22 1296.38,-340.41 1225.75,-323.97 1166.51,-314.06"/>
<polygon fill="black" stroke="black" points="1166.78,-310.56 1156.35,-312.4 1165.66,-317.47 1166.78,-310.56"/>
</g>
<!-- Pasture 5(27)
&lt;24&gt;[0.0391] -->
<g id="node28" class="node">
<title>Pasture 5(27)
&lt;24&gt;[0.0391]</title>
<ellipse fill="none" stroke="black" cx="1315.76" cy="-570.57" rx="65.52" ry="26.74"/>
<text text-anchor="middle" x="1315.76" y="-574.37" font-family="Times,serif" font-size="14.00">Pasture 5(27)</text>
<text text-anchor="middle" x="1315.76" y="-559.37" font-family="Times,serif" font-size="14.00">&lt;24&gt;[0.0391]</text>
</g>
<!-- Pasture 5(27)
&lt;24&gt;[0.0391]&#45;&gt;Riparian forest(30)
&lt;39&gt;[4.085] -->
<g id="edge27" class="edge">
<title>Pasture 5(27)
&lt;24&gt;[0.0391]&#45;&gt;Riparian forest(30)
&lt;39&gt;[4.085]</title>
<path fill="none" stroke="black" d="M1334.76,-544.81C1341.88,-534.02 1349.13,-520.85 1352.76,-507.7 1369.89,-445.7 1378.57,-410.37 1333.76,-364.22 1310.6,-340.37 1230.97,-323.61 1166.79,-313.6"/>
<polygon fill="black" stroke="black" points="1167.04,-310.1 1156.63,-312.05 1165.99,-317.02 1167.04,-310.1"/>
</g>
<!-- Pasture 6(28)
&lt;25&gt;[0.201] -->
<g id="node29" class="node">
<title>Pasture 6(28)
&lt;25&gt;[0.201]</title>
<ellipse fill="none" stroke="black" cx="1356.76" cy="-660.31" rx="62.87" ry="26.74"/>
<text text-anchor="middle" x="1356.76" y="-664.11" font-family="Times,serif" font-size="14.00">Pasture 6(28)</text>
<text text-anchor="middle" x="1356.76" y="-649.11" font-family="Times,serif" font-size="14.00">&lt;25&gt;[0.201]</text>
</g>
<!-- Pasture 6(28)
&lt;25&gt;[0.201]&#45;&gt;Riparian forest(30)
&lt;39&gt;[4.085] -->
<g id="edge28" class="edge">
<title>Pasture 6(28)
&lt;25&gt;[0.201]&#45;&gt;Riparian forest(30)
&lt;39&gt;[4.085]</title>
<path fill="none" stroke="black" d="M1374.23,-634.34C1380.78,-623.52 1387.44,-610.38 1390.76,-597.44 1408.28,-529.17 1383.39,-385.16 1363.76,-364.22 1337.59,-336.31 1242.98,-319.79 1169.87,-310.94"/>
<polygon fill="black" stroke="black" points="1170.04,-307.43 1159.7,-309.74 1169.22,-314.39 1170.04,-307.43"/>
</g>
<!-- Pasture 7(29)
&lt;26&gt;[0.05042] -->
<g id="node30" class="node">
<title>Pasture 7(29)
&lt;26&gt;[0.05042]</title>
<ellipse fill="none" stroke="black" cx="1386.76" cy="-750.05" rx="70.92" ry="26.74"/>
<text text-anchor="middle" x="1386.76" y="-753.85" font-family="Times,serif" font-size="14.00">Pasture 7(29)</text>
<text text-anchor="middle" x="1386.76" y="-738.85" font-family="Times,serif" font-size="14.00">&lt;26&gt;[0.05042]</text>
</g>
<!-- Pasture 7(29)
&lt;26&gt;[0.05042]&#45;&gt;Riparian forest(30)
&lt;39&gt;[4.085] -->
<g id="edge29" class="edge">
<title>Pasture 7(29)
&lt;26&gt;[0.05042]&#45;&gt;Riparian forest(30)
&lt;39&gt;[4.085]</title>
<path fill="none" stroke="black" d="M1407.22,-724.28C1415.12,-713.49 1423.52,-700.32 1428.76,-687.18 1448.06,-638.82 1447.76,-623.64 1447.76,-571.57 1447.76,-571.57 1447.76,-571.57 1447.76,-479.83 1447.76,-421.94 1434.03,-399.02 1387.76,-364.22 1353.87,-338.73 1247.69,-321.42 1169.22,-311.73"/>
<polygon fill="black" stroke="black" points="1169.17,-308.2 1158.82,-310.48 1168.33,-315.15 1169.17,-308.2"/>
</g>
<!-- Road(31)
&lt;27&gt;[0.4808] -->
<g id="node31" class="node">
<title>Road(31)
&lt;27&gt;[0.4808]</title>
<ellipse fill="none" stroke="black" cx="1429.76" cy="-839.79" rx="65.52" ry="26.74"/>
<text text-anchor="middle" x="1429.76" y="-843.59" font-family="Times,serif" font-size="14.00">Road(31)</text>
<text text-anchor="middle" x="1429.76" y="-828.59" font-family="Times,serif" font-size="14.00">&lt;27&gt;[0.4808]</text>
</g>
<!-- Road(31)
&lt;27&gt;[0.4808]&#45;&gt;Riparian forest(30)
&lt;39&gt;[4.085] -->
<g id="edge30" class="edge">
<title>Road(31)
&lt;27&gt;[0.4808]&#45;&gt;Riparian forest(30)
&lt;39&gt;[4.085]</title>
<path fill="none" stroke="black" d="M1447.71,-813.69C1454.67,-802.85 1462.07,-789.73 1466.76,-776.92 1484.66,-728.02 1485.76,-713.38 1485.76,-661.31 1485.76,-661.31 1485.76,-661.31 1485.76,-479.83 1485.76,-422.14 1473.12,-398.55 1426.76,-364.22 1387.11,-334.86 1259.97,-317.97 1170.89,-309.47"/>
<polygon fill="black" stroke="black" points="1171.05,-305.97 1160.77,-308.53 1170.4,-312.94 1171.05,-305.97"/>
</g>
<!-- Unknown structure(32)
&lt;28&gt;[0.1017] -->
<g id="node32" class="node">
<title>Unknown structure(32)
&lt;28&gt;[0.1017]</title>
<ellipse fill="none" stroke="black" cx="1523.76" cy="-929.53" rx="101.23" ry="26.74"/>
<text text-anchor="middle" x="1523.76" y="-933.33" font-family="Times,serif" font-size="14.00">Unknown structure(32)</text>
<text text-anchor="middle" x="1523.76" y="-918.33" font-family="Times,serif" font-size="14.00">&lt;28&gt;[0.1017]</text>
</g>
<!-- Unknown structure(32)
&lt;28&gt;[0.1017]&#45;&gt;Riparian forest(30)
&lt;39&gt;[4.085] -->
<g id="edge31" class="edge">
<title>Unknown structure(32)
&lt;28&gt;[0.1017]&#45;&gt;Riparian forest(30)
&lt;39&gt;[4.085]</title>
<path fill="none" stroke="black" d="M1523.76,-902.37C1523.76,-867.75 1523.76,-804.82 1523.76,-751.05 1523.76,-751.05 1523.76,-751.05 1523.76,-479.83 1523.76,-422.34 1512.14,-398.19 1465.76,-364.22 1420.25,-330.89 1271.35,-314.78 1172.08,-307.57"/>
<polygon fill="black" stroke="black" points="1172.26,-304.07 1162.03,-306.85 1171.76,-311.05 1172.26,-304.07"/>
</g>
<!-- Wheat 1(33)
&lt;29&gt;[0.1546] -->
<g id="node33" class="node">
<title>Wheat 1(33)
&lt;29&gt;[0.1546]</title>
<ellipse fill="none" stroke="black" cx="1617.76" cy="-391.09" rx="65.52" ry="26.74"/>
<text text-anchor="middle" x="1617.76" y="-394.89" font-family="Times,serif" font-size="14.00">Wheat 1(33)</text>
<text text-anchor="middle" x="1617.76" y="-379.89" font-family="Times,serif" font-size="14.00">&lt;29&gt;[0.1546]</text>
</g>
<!-- Wheat 1(33)
&lt;29&gt;[0.1546]&#45;&gt;Riparian forest(30)
&lt;39&gt;[4.085] -->
<g id="edge32" class="edge">
<title>Wheat 1(33)
&lt;29&gt;[0.1546]&#45;&gt;Riparian forest(30)
&lt;39&gt;[4.085]</title>
<path fill="none" stroke="black" d="M1569.07,-372.82C1558.82,-369.61 1548.01,-366.55 1537.76,-364.22 1411.99,-335.65 1263.62,-318.59 1170.36,-309.84"/>
<polygon fill="black" stroke="black" points="1170.66,-306.35 1160.38,-308.91 1170.02,-313.32 1170.66,-306.35"/>
</g>
<!-- Wheat 10(34)
&lt;30&gt;[0.3102] -->
<g id="node34" class="node">
<title>Wheat 10(34)
&lt;30&gt;[0.3102]</title>
<ellipse fill="none" stroke="black" cx="1655.76" cy="-480.83" rx="65.52" ry="26.74"/>
<text text-anchor="middle" x="1655.76" y="-484.63" font-family="Times,serif" font-size="14.00">Wheat 10(34)</text>
<text text-anchor="middle" x="1655.76" y="-469.63" font-family="Times,serif" font-size="14.00">&lt;30&gt;[0.3102]</text>
</g>
<!-- Wheat 10(34)
&lt;30&gt;[0.3102]&#45;&gt;Riparian forest(30)
&lt;39&gt;[4.085] -->
<g id="edge33" class="edge">
<title>Wheat 10(34)
&lt;30&gt;[0.3102]&#45;&gt;Riparian forest(30)
&lt;39&gt;[4.085]</title>
<path fill="none" stroke="black" d="M1675.98,-455.23C1694.5,-429.6 1715.8,-389.7 1692.76,-364.22 1658.62,-326.47 1336.87,-310.67 1173.29,-305.04"/>
<polygon fill="black" stroke="black" points="1173.34,-301.54 1163.23,-304.7 1173.1,-308.53 1173.34,-301.54"/>
</g>
<!-- Wheat 2(35)
&lt;31&gt;[0.1055] -->
<g id="node35" class="node">
<title>Wheat 2(35)
&lt;31&gt;[0.1055]</title>
<ellipse fill="none" stroke="black" cx="1693.76" cy="-570.57" rx="65.52" ry="26.74"/>
<text text-anchor="middle" x="1693.76" y="-574.37" font-family="Times,serif" font-size="14.00">Wheat 2(35)</text>
<text text-anchor="middle" x="1693.76" y="-559.37" font-family="Times,serif" font-size="14.00">&lt;31&gt;[0.1055]</text>
</g>
<!-- Wheat 2(35)
&lt;31&gt;[0.1055]&#45;&gt;Riparian forest(30)
&lt;39&gt;[4.085] -->
<g id="edge34" class="edge">
<title>Wheat 2(35)
&lt;31&gt;[0.1055]&#45;&gt;Riparian forest(30)
&lt;39&gt;[4.085]</title>
<path fill="none" stroke="black" d="M1712.76,-544.81C1719.88,-534.02 1727.13,-520.85 1730.76,-507.7 1747.87,-445.75 1760.43,-407.32 1712.76,-364.22 1673.59,-328.81 1340.04,-311.8 1173.12,-305.44"/>
<polygon fill="black" stroke="black" points="1173.22,-301.95 1163.1,-305.07 1172.96,-308.94 1173.22,-301.95"/>
</g>
<!-- Wheat 3(36)
&lt;32&gt;[0.5043] -->
<g id="node36" class="node">
<title>Wheat 3(36)
&lt;32&gt;[0.5043]</title>
<ellipse fill="none" stroke="black" cx="1731.76" cy="-660.31" rx="65.52" ry="26.74"/>
<text text-anchor="middle" x="1731.76" y="-664.11" font-family="Times,serif" font-size="14.00">Wheat 3(36)</text>
<text text-anchor="middle" x="1731.76" y="-649.11" font-family="Times,serif" font-size="14.00">&lt;32&gt;[0.5043]</text>
</g>
<!-- Wheat 3(36)
&lt;32&gt;[0.5043]&#45;&gt;Riparian forest(30)
&lt;39&gt;[4.085] -->
<g id="edge35" class="edge">
<title>Wheat 3(36)
&lt;32&gt;[0.5043]&#45;&gt;Riparian forest(30)
&lt;39&gt;[4.085]</title>
<path fill="none" stroke="black" d="M1750.76,-634.55C1757.88,-623.76 1765.13,-610.59 1768.76,-597.44 1787.25,-530.51 1769.47,-388.78 1743.76,-364.22 1703.38,-325.64 1347.13,-310.09 1173.32,-304.75"/>
<polygon fill="black" stroke="black" points="1173.26,-301.25 1163.16,-304.45 1173.05,-308.25 1173.26,-301.25"/>
</g>
<!-- Wheat 4(37)
&lt;33&gt;[0.2888] -->
<g id="node37" class="node">
<title>Wheat 4(37)
&lt;33&gt;[0.2888]</title>
<ellipse fill="none" stroke="black" cx="1769.76" cy="-750.05" rx="65.52" ry="26.74"/>
<text text-anchor="middle" x="1769.76" y="-753.85" font-family="Times,serif" font-size="14.00">Wheat 4(37)</text>
<text text-anchor="middle" x="1769.76" y="-738.85" font-family="Times,serif" font-size="14.00">&lt;33&gt;[0.2888]</text>
</g>
<!-- Wheat 4(37)
&lt;33&gt;[0.2888]&#45;&gt;Riparian forest(30)
&lt;39&gt;[4.085] -->
<g id="edge36" class="edge">
<title>Wheat 4(37)
&lt;33&gt;[0.2888]&#45;&gt;Riparian forest(30)
&lt;39&gt;[4.085]</title>
<path fill="none" stroke="black" d="M1787.71,-723.95C1794.67,-713.11 1802.07,-699.99 1806.76,-687.18 1824.66,-638.28 1825.76,-623.64 1825.76,-571.57 1825.76,-571.57 1825.76,-571.57 1825.76,-479.83 1825.76,-422.54 1816.01,-396.62 1768.76,-364.22 1720.72,-331.28 1350.2,-312.76 1172.82,-305.7"/>
<polygon fill="black" stroke="black" points="1172.85,-302.2 1162.72,-305.3 1172.57,-309.2 1172.85,-302.2"/>
</g>
<!-- Wheat 5(38)
&lt;34&gt;[0.01906] -->
<g id="node38" class="node">
<title>Wheat 5(38)
&lt;34&gt;[0.01906]</title>
<ellipse fill="none" stroke="black" cx="1802.76" cy="-839.79" rx="70.92" ry="26.74"/>
<text text-anchor="middle" x="1802.76" y="-843.59" font-family="Times,serif" font-size="14.00">Wheat 5(38)</text>
<text text-anchor="middle" x="1802.76" y="-828.59" font-family="Times,serif" font-size="14.00">&lt;34&gt;[0.01906]</text>
</g>
<!-- Wheat 5(38)
&lt;34&gt;[0.01906]&#45;&gt;Riparian forest(30)
&lt;39&gt;[4.085] -->
<g id="edge37" class="edge">
<title>Wheat 5(38)
&lt;34&gt;[0.01906]&#45;&gt;Riparian forest(30)
&lt;39&gt;[4.085]</title>
<path fill="none" stroke="black" d="M1823.22,-814.02C1831.12,-803.23 1839.52,-790.06 1844.76,-776.92 1864.06,-728.56 1863.76,-713.38 1863.76,-661.31 1863.76,-661.31 1863.76,-661.31 1863.76,-479.83 1863.76,-422.74 1854.81,-396.56 1807.76,-364.22 1756.59,-329.05 1358.32,-311.51 1173.01,-305.19"/>
<polygon fill="black" stroke="black" points="1173.12,-301.69 1163,-304.85 1172.88,-308.69 1173.12,-301.69"/>
</g>
<!-- Wheat 6(39)
&lt;35&gt;[0.5118] -->
<g id="node39" class="node">
<title>Wheat 6(39)
&lt;35&gt;[0.5118]</title>
<ellipse fill="none" stroke="black" cx="1901.76" cy="-929.53" rx="65.52" ry="26.74"/>
<text text-anchor="middle" x="1901.76" y="-933.33" font-family="Times,serif" font-size="14.00">Wheat 6(39)</text>
<text text-anchor="middle" x="1901.76" y="-918.33" font-family="Times,serif" font-size="14.00">&lt;35&gt;[0.5118]</text>
</g>
<!-- Wheat 6(39)
&lt;35&gt;[0.5118]&#45;&gt;Riparian forest(30)
&lt;39&gt;[4.085] -->
<g id="edge38" class="edge">
<title>Wheat 6(39)
&lt;35&gt;[0.5118]&#45;&gt;Riparian forest(30)
&lt;39&gt;[4.085]</title>
<path fill="none" stroke="black" d="M1901.76,-902.37C1901.76,-867.75 1901.76,-804.82 1901.76,-751.05 1901.76,-751.05 1901.76,-751.05 1901.76,-479.83 1901.76,-422.74 1892.88,-396.46 1845.76,-364.22 1791.44,-327.05 1366.11,-310.44 1173.26,-304.77"/>
<polygon fill="black" stroke="black" points="1173.23,-301.26 1163.14,-304.47 1173.03,-308.26 1173.23,-301.26"/>
</g>
<!-- Wheat 7(40)
&lt;36&gt;[0.1215] -->
<g id="node40" class="node">
<title>Wheat 7(40)
&lt;36&gt;[0.1215]</title>
<ellipse fill="none" stroke="black" cx="1995.76" cy="-391.09" rx="65.52" ry="26.74"/>
<text text-anchor="middle" x="1995.76" y="-394.89" font-family="Times,serif" font-size="14.00">Wheat 7(40)</text>
<text text-anchor="middle" x="1995.76" y="-379.89" font-family="Times,serif" font-size="14.00">&lt;36&gt;[0.1215]</text>
</g>
<!-- Wheat 7(40)
&lt;36&gt;[0.1215]&#45;&gt;Riparian forest(30)
&lt;39&gt;[4.085] -->
<g id="edge39" class="edge">
<title>Wheat 7(40)
&lt;36&gt;[0.1215]&#45;&gt;Riparian forest(30)
&lt;39&gt;[4.085]</title>
<path fill="none" stroke="black" d="M1948.02,-372.6C1937.52,-369.33 1926.36,-366.3 1915.76,-364.22 1650.43,-312.29 1330.01,-303.14 1173.75,-302.03"/>
<polygon fill="black" stroke="black" points="1173.72,-298.53 1163.7,-301.97 1173.68,-305.53 1173.72,-298.53"/>
</g>
<!-- Wheat 8(41)
&lt;37&gt;[0.8175] -->
<g id="node41" class="node">
<title>Wheat 8(41)
&lt;37&gt;[0.8175]</title>
<ellipse fill="none" stroke="black" cx="2089.76" cy="-480.83" rx="65.52" ry="26.74"/>
<text text-anchor="middle" x="2089.76" y="-484.63" font-family="Times,serif" font-size="14.00">Wheat 8(41)</text>
<text text-anchor="middle" x="2089.76" y="-469.63" font-family="Times,serif" font-size="14.00">&lt;37&gt;[0.8175]</text>
</g>
<!-- Wheat 8(41)
&lt;37&gt;[0.8175]&#45;&gt;Riparian forest(30)
&lt;39&gt;[4.085] -->
<g id="edge40" class="edge">
<title>Wheat 8(41)
&lt;37&gt;[0.8175]&#45;&gt;Riparian forest(30)
&lt;39&gt;[4.085]</title>
<path fill="none" stroke="black" d="M2093.8,-453.95C2096.33,-427.25 2095.35,-386.46 2070.76,-364.22 2005.22,-304.96 1409.49,-300.92 1173.96,-301.67"/>
<polygon fill="black" stroke="black" points="1173.69,-298.18 1163.7,-301.71 1173.71,-305.18 1173.69,-298.18"/>
</g>
<!-- Wheat 9(42)
&lt;38&gt;[0.188] -->
<g id="node42" class="node">
<title>Wheat 9(42)
&lt;38&gt;[0.188]</title>
<ellipse fill="none" stroke="black" cx="2183.76" cy="-570.57" rx="60.62" ry="26.74"/>
<text text-anchor="middle" x="2183.76" y="-574.37" font-family="Times,serif" font-size="14.00">Wheat 9(42)</text>
<text text-anchor="middle" x="2183.76" y="-559.37" font-family="Times,serif" font-size="14.00">&lt;38&gt;[0.188]</text>
</g>
<!-- Wheat 9(42)
&lt;38&gt;[0.188]&#45;&gt;Riparian forest(30)
&lt;39&gt;[4.085] -->
<g id="edge41" class="edge">
<title>Wheat 9(42)
&lt;38&gt;[0.188]&#45;&gt;Riparian forest(30)
&lt;39&gt;[4.085]</title>
<path fill="none" stroke="black" d="M2183.03,-543.31C2181.54,-519.2 2177.2,-482.93 2164.76,-453.96 2145.01,-407.98 2140.88,-387.84 2096.76,-364.22 2016.73,-321.38 1411.64,-307.47 1174.08,-303.63"/>
<polygon fill="black" stroke="black" points="1173.79,-300.13 1163.73,-303.47 1173.67,-307.13 1173.79,-300.13"/>
</g>
<!-- Canola 6(12)
&lt;42&gt;[0.2193] -->
<g id="node43" class="node">
<title>Canola 6(12)
&lt;42&gt;[0.2193]</title>
<ellipse fill="none" stroke="black" cx="1222.76" cy="-121.87" rx="65.52" ry="26.74"/>
<text text-anchor="middle" x="1222.76" y="-125.67" font-family="Times,serif" font-size="14.00">Canola 6(12)</text>
<text text-anchor="middle" x="1222.76" y="-110.67" font-family="Times,serif" font-size="14.00">&lt;42&gt;[0.2193]</text>
</g>
<!-- Canola 6(12)
&lt;42&gt;[0.2193]&#45;&gt;basin -->
<g id="edge42" class="edge">
<title>Canola 6(12)
&lt;42&gt;[0.2193]&#45;&gt;basin</title>
<path fill="none" stroke="black" d="M1200.37,-96.35C1191.12,-86.21 1180.47,-74.54 1171.41,-64.61"/>
<polygon fill="black" stroke="black" points="1173.87,-62.12 1164.54,-57.09 1168.7,-66.84 1173.87,-62.12"/>
</g>
</g>
</svg>
