<?xml version="1.0" encoding="UTF-8" standalone="no"?>
<!DOCTYPE svg PUBLIC "-//W3C//DTD SVG 1.1//EN"
 "http://www.w3.org/Graphics/SVG/1.1/DTD/svg11.dtd">
<!-- Generated by graphviz version 2.43.0 (0)
 -->
<!-- Title: TEST Pages: 1 -->
<svg width="1589pt" height="875pt"
 viewBox="0.00 0.00 1588.74 874.66" xmlns="http://www.w3.org/2000/svg" xmlns:xlink="http://www.w3.org/1999/xlink">
<g id="graph0" class="graph" transform="scale(1 1) rotate(0) translate(4 870.66)">
<title>TEST</title>
<polygon fill="white" stroke="transparent" points="-4,4 -4,-870.66 1584.74,-870.66 1584.74,4 -4,4"/>
<text text-anchor="middle" x="790.37" y="-7.8" font-family="Times,serif" font-size="14.00">F_Mid_up2_model_GrpF</text>
<!-- Barley_1(1)
&lt;1&gt;[0.0789] -->
<g id="node1" class="node">
<title>Barley_1(1)
&lt;1&gt;[0.0789]</title>
<ellipse fill="none" stroke="black" cx="60.81" cy="-301.35" rx="60.62" ry="26.74"/>
<text text-anchor="middle" x="60.81" y="-305.15" font-family="Times,serif" font-size="14.00">Barley_1(1)</text>
<text text-anchor="middle" x="60.81" y="-290.15" font-family="Times,serif" font-size="14.00">&lt;1&gt;[0.0789]</text>
</g>
<!-- Reservoir(5)
&lt;27&gt;[0.03] -->
<g id="node2" class="node">
<title>Reservoir(5)
&lt;27&gt;[0.03]</title>
<ellipse fill="none" stroke="black" cx="716.81" cy="-211.61" rx="60.21" ry="26.74"/>
<text text-anchor="middle" x="716.81" y="-215.41" font-family="Times,serif" font-size="14.00">Reservoir(5)</text>
<text text-anchor="middle" x="716.81" y="-200.41" font-family="Times,serif" font-size="14.00">&lt;27&gt;[0.03]</text>
</g>
<!-- Barley_1(1)
&lt;1&gt;[0.0789]&#45;&gt;Reservoir(5)
&lt;27&gt;[0.03] -->
<g id="edge1" class="edge">
<title>Barley_1(1)
&lt;1&gt;[0.0789]&#45;&gt;Reservoir(5)
&lt;27&gt;[0.03]</title>
<path fill="none" stroke="black" d="M105.55,-283.07C115.4,-279.79 125.86,-276.7 135.81,-274.48 317.1,-234.11 536.26,-219.84 646.39,-214.98"/>
<polygon fill="black" stroke="black" points="646.87,-218.47 656.71,-214.54 646.57,-211.47 646.87,-218.47"/>
</g>
<!-- Reservoir(28)
&lt;28&gt;[0.035] -->
<g id="node3" class="node">
<title>Reservoir(28)
&lt;28&gt;[0.035]</title>
<ellipse fill="none" stroke="black" cx="670.81" cy="-121.87" rx="65.11" ry="26.74"/>
<text text-anchor="middle" x="670.81" y="-125.67" font-family="Times,serif" font-size="14.00">Reservoir(28)</text>
<text text-anchor="middle" x="670.81" y="-110.67" font-family="Times,serif" font-size="14.00">&lt;28&gt;[0.035]</text>
</g>
<!-- Reservoir(5)
&lt;27&gt;[0.03]&#45;&gt;Reservoir(28)
&lt;28&gt;[0.035] -->
<g id="edge2" class="edge">
<title>Reservoir(5)
&lt;27&gt;[0.03]&#45;&gt;Reservoir(28)
&lt;28&gt;[0.035]</title>
<path fill="none" stroke="black" d="M703.51,-185.23C698.93,-176.5 693.72,-166.58 688.84,-157.25"/>
<polygon fill="black" stroke="black" points="691.83,-155.42 684.09,-148.19 685.63,-158.67 691.83,-155.42"/>
</g>
<!-- basin -->
<g id="node4" class="node">
<title>basin</title>
<ellipse fill="none" stroke="black" cx="716.81" cy="-41" rx="29.5" ry="18"/>
<text text-anchor="middle" x="716.81" y="-37.3" font-family="Times,serif" font-size="14.00">basin</text>
</g>
<!-- Reservoir(5)
&lt;27&gt;[0.03]&#45;&gt;basin -->
<g id="edge3" class="edge">
<title>Reservoir(5)
&lt;27&gt;[0.03]&#45;&gt;basin</title>
<path fill="none" stroke="black" d="M731.22,-185.26C736.62,-174.38 742.1,-161.3 744.81,-148.74 749.85,-125.39 750.56,-118.18 744.81,-95 742.38,-85.21 737.78,-75.23 733,-66.62"/>
<polygon fill="black" stroke="black" points="735.93,-64.7 727.83,-57.87 729.9,-68.26 735.93,-64.7"/>
</g>
<!-- Reservoir(28)
&lt;28&gt;[0.035]&#45;&gt;basin -->
<g id="edge4" class="edge">
<title>Reservoir(28)
&lt;28&gt;[0.035]&#45;&gt;basin</title>
<path fill="none" stroke="black" d="M685.62,-95.48C690.98,-86.29 697.02,-75.94 702.35,-66.8"/>
<polygon fill="black" stroke="black" points="705.37,-68.56 707.38,-58.16 699.32,-65.04 705.37,-68.56"/>
</g>
<!-- Barley_2(2)
&lt;2&gt;[0.09911] -->
<g id="node5" class="node">
<title>Barley_2(2)
&lt;2&gt;[0.09911]</title>
<ellipse fill="none" stroke="black" cx="121.81" cy="-391.09" rx="65.52" ry="26.74"/>
<text text-anchor="middle" x="121.81" y="-394.89" font-family="Times,serif" font-size="14.00">Barley_2(2)</text>
<text text-anchor="middle" x="121.81" y="-379.89" font-family="Times,serif" font-size="14.00">&lt;2&gt;[0.09911]</text>
</g>
<!-- Barley_2(2)
&lt;2&gt;[0.09911]&#45;&gt;Reservoir(5)
&lt;27&gt;[0.03] -->
<g id="edge5" class="edge">
<title>Barley_2(2)
&lt;2&gt;[0.09911]&#45;&gt;Reservoir(5)
&lt;27&gt;[0.03]</title>
<path fill="none" stroke="black" d="M131.88,-364.53C144.06,-337.29 167.32,-295.27 201.81,-274.48 275.14,-230.28 523.68,-217.6 646.68,-214.01"/>
<polygon fill="black" stroke="black" points="646.85,-217.51 656.75,-213.73 646.65,-210.51 646.85,-217.51"/>
</g>
<!-- Barley_3(3)
&lt;3&gt;[0.1576] -->
<g id="node6" class="node">
<title>Barley_3(3)
&lt;3&gt;[0.1576]</title>
<ellipse fill="none" stroke="black" cx="164.81" cy="-480.83" rx="60.62" ry="26.74"/>
<text text-anchor="middle" x="164.81" y="-484.63" font-family="Times,serif" font-size="14.00">Barley_3(3)</text>
<text text-anchor="middle" x="164.81" y="-469.63" font-family="Times,serif" font-size="14.00">&lt;3&gt;[0.1576]</text>
</g>
<!-- Barley_3(3)
&lt;3&gt;[0.1576]&#45;&gt;Reservoir(5)
&lt;27&gt;[0.03] -->
<g id="edge6" class="edge">
<title>Barley_3(3)
&lt;3&gt;[0.1576]&#45;&gt;Reservoir(5)
&lt;27&gt;[0.03]</title>
<path fill="none" stroke="black" d="M179.3,-454.45C185.22,-443.45 191.82,-430.29 196.81,-417.96 221.77,-356.24 189.08,-317.59 239.81,-274.48 299.58,-223.7 528.43,-214.13 646.07,-212.63"/>
<polygon fill="black" stroke="black" points="646.45,-216.13 656.41,-212.52 646.37,-209.13 646.45,-216.13"/>
</g>
<!-- Barlyey_4(4)
&lt;4&gt;[0.1111] -->
<g id="node7" class="node">
<title>Barlyey_4(4)
&lt;4&gt;[0.1111]</title>
<ellipse fill="none" stroke="black" cx="200.81" cy="-570.57" rx="62.87" ry="26.74"/>
<text text-anchor="middle" x="200.81" y="-574.37" font-family="Times,serif" font-size="14.00">Barlyey_4(4)</text>
<text text-anchor="middle" x="200.81" y="-559.37" font-family="Times,serif" font-size="14.00">&lt;4&gt;[0.1111]</text>
</g>
<!-- Barlyey_4(4)
&lt;4&gt;[0.1111]&#45;&gt;Reservoir(5)
&lt;27&gt;[0.03] -->
<g id="edge7" class="edge">
<title>Barlyey_4(4)
&lt;4&gt;[0.1111]&#45;&gt;Reservoir(5)
&lt;27&gt;[0.03]</title>
<path fill="none" stroke="black" d="M216.96,-544.54C223.37,-533.61 230.28,-520.4 234.81,-507.7 270.2,-408.42 201.72,-347.42 277.81,-274.48 329.27,-225.16 536.07,-214.82 646.49,-212.87"/>
<polygon fill="black" stroke="black" points="646.6,-216.37 656.54,-212.71 646.49,-209.37 646.6,-216.37"/>
</g>
<!-- Canola_1(6)
&lt;5&gt;[0.1303] -->
<g id="node8" class="node">
<title>Canola_1(6)
&lt;5&gt;[0.1303]</title>
<ellipse fill="none" stroke="black" cx="240.81" cy="-660.31" rx="60.62" ry="26.74"/>
<text text-anchor="middle" x="240.81" y="-664.11" font-family="Times,serif" font-size="14.00">Canola_1(6)</text>
<text text-anchor="middle" x="240.81" y="-649.11" font-family="Times,serif" font-size="14.00">&lt;5&gt;[0.1303]</text>
</g>
<!-- Canola_1(6)
&lt;5&gt;[0.1303]&#45;&gt;Reservoir(5)
&lt;27&gt;[0.03] -->
<g id="edge8" class="edge">
<title>Canola_1(6)
&lt;5&gt;[0.1303]&#45;&gt;Reservoir(5)
&lt;27&gt;[0.03]</title>
<path fill="none" stroke="black" d="M256.08,-634.21C262.13,-623.27 268.63,-610.07 272.81,-597.44 289.2,-548.01 291.81,-533.9 291.81,-481.83 291.81,-481.83 291.81,-481.83 291.81,-390.09 291.81,-337.61 277.76,-310.62 315.81,-274.48 362.17,-230.46 544.39,-217.76 646.5,-214.09"/>
<polygon fill="black" stroke="black" points="646.85,-217.58 656.73,-213.75 646.62,-210.59 646.85,-217.58"/>
</g>
<!-- Channel(7)
&lt;6&gt;[0.01] -->
<g id="node9" class="node">
<title>Channel(7)
&lt;6&gt;[0.01]</title>
<ellipse fill="none" stroke="black" cx="285.81" cy="-750.05" rx="54.39" ry="26.74"/>
<text text-anchor="middle" x="285.81" y="-753.85" font-family="Times,serif" font-size="14.00">Channel(7)</text>
<text text-anchor="middle" x="285.81" y="-738.85" font-family="Times,serif" font-size="14.00">&lt;6&gt;[0.01]</text>
</g>
<!-- Channel(7)
&lt;6&gt;[0.01]&#45;&gt;Reservoir(5)
&lt;27&gt;[0.03] -->
<g id="edge9" class="edge">
<title>Channel(7)
&lt;6&gt;[0.01]&#45;&gt;Reservoir(5)
&lt;27&gt;[0.03]</title>
<path fill="none" stroke="black" d="M297.57,-723.61C302.27,-712.6 307.37,-699.45 310.81,-687.18 324.87,-637.04 329.81,-623.64 329.81,-571.57 329.81,-571.57 329.81,-571.57 329.81,-390.09 329.81,-337.61 316.04,-310.92 353.81,-274.48 394.61,-235.12 553.1,-220.6 646.63,-215.4"/>
<polygon fill="black" stroke="black" points="647.07,-218.88 656.87,-214.85 646.69,-211.89 647.07,-218.88"/>
</g>
<!-- Canola_2(8)
&lt;7&gt;[0.09043] -->
<g id="node10" class="node">
<title>Canola_2(8)
&lt;7&gt;[0.09043]</title>
<ellipse fill="none" stroke="black" cx="367.81" cy="-839.79" rx="65.52" ry="26.74"/>
<text text-anchor="middle" x="367.81" y="-843.59" font-family="Times,serif" font-size="14.00">Canola_2(8)</text>
<text text-anchor="middle" x="367.81" y="-828.59" font-family="Times,serif" font-size="14.00">&lt;7&gt;[0.09043]</text>
</g>
<!-- Canola_2(8)
&lt;7&gt;[0.09043]&#45;&gt;Reservoir(5)
&lt;27&gt;[0.03] -->
<g id="edge10" class="edge">
<title>Canola_2(8)
&lt;7&gt;[0.09043]&#45;&gt;Reservoir(5)
&lt;27&gt;[0.03]</title>
<path fill="none" stroke="black" d="M367.81,-812.63C367.81,-778.01 367.81,-715.08 367.81,-661.31 367.81,-661.31 367.81,-661.31 367.81,-390.09 367.81,-338.02 350.41,-311.71 386.81,-274.48 422.15,-238.34 561.09,-222.77 647.02,-216.49"/>
<polygon fill="black" stroke="black" points="647.5,-219.96 657.23,-215.77 647.01,-212.98 647.5,-219.96"/>
</g>
<!-- Canola_3(9)
&lt;8&gt;[0.0354] -->
<g id="node11" class="node">
<title>Canola_3(9)
&lt;8&gt;[0.0354]</title>
<ellipse fill="none" stroke="black" cx="456.81" cy="-301.35" rx="60.62" ry="26.74"/>
<text text-anchor="middle" x="456.81" y="-305.15" font-family="Times,serif" font-size="14.00">Canola_3(9)</text>
<text text-anchor="middle" x="456.81" y="-290.15" font-family="Times,serif" font-size="14.00">&lt;8&gt;[0.0354]</text>
</g>
<!-- Canola_3(9)
&lt;8&gt;[0.0354]&#45;&gt;Reservoir(5)
&lt;27&gt;[0.03] -->
<g id="edge11" class="edge">
<title>Canola_3(9)
&lt;8&gt;[0.0354]&#45;&gt;Reservoir(5)
&lt;27&gt;[0.03]</title>
<path fill="none" stroke="black" d="M503.6,-284.14C512.94,-280.92 522.68,-277.58 531.81,-274.48 574.64,-259.93 623.14,-243.72 659.73,-231.55"/>
<polygon fill="black" stroke="black" points="660.86,-234.86 669.24,-228.38 658.65,-228.22 660.86,-234.86"/>
</g>
<!-- Canola_4(10)
&lt;9&gt;[0.05225] -->
<g id="node12" class="node">
<title>Canola_4(10)
&lt;9&gt;[0.05225]</title>
<ellipse fill="none" stroke="black" cx="489.81" cy="-391.09" rx="65.52" ry="26.74"/>
<text text-anchor="middle" x="489.81" y="-394.89" font-family="Times,serif" font-size="14.00">Canola_4(10)</text>
<text text-anchor="middle" x="489.81" y="-379.89" font-family="Times,serif" font-size="14.00">&lt;9&gt;[0.05225]</text>
</g>
<!-- Canola_4(10)
&lt;9&gt;[0.05225]&#45;&gt;Reservoir(5)
&lt;27&gt;[0.03] -->
<g id="edge12" class="edge">
<title>Canola_4(10)
&lt;9&gt;[0.05225]&#45;&gt;Reservoir(5)
&lt;27&gt;[0.03]</title>
<path fill="none" stroke="black" d="M504.89,-364.93C523.18,-335.07 553.56,-287.67 569.81,-274.48 595,-254.03 627.93,-239.34 656.24,-229.42"/>
<polygon fill="black" stroke="black" points="657.68,-232.62 666.04,-226.11 655.44,-225.99 657.68,-232.62"/>
</g>
<!-- Canola_5(11)
&lt;10&gt;[0.02893] -->
<g id="node13" class="node">
<title>Canola_5(11)
&lt;10&gt;[0.02893]</title>
<ellipse fill="none" stroke="black" cx="522.81" cy="-480.83" rx="70.92" ry="26.74"/>
<text text-anchor="middle" x="522.81" y="-484.63" font-family="Times,serif" font-size="14.00">Canola_5(11)</text>
<text text-anchor="middle" x="522.81" y="-469.63" font-family="Times,serif" font-size="14.00">&lt;10&gt;[0.02893]</text>
</g>
<!-- Canola_5(11)
&lt;10&gt;[0.02893]&#45;&gt;Reservoir(5)
&lt;27&gt;[0.03] -->
<g id="edge13" class="edge">
<title>Canola_5(11)
&lt;10&gt;[0.02893]&#45;&gt;Reservoir(5)
&lt;27&gt;[0.03]</title>
<path fill="none" stroke="black" d="M542.44,-454.7C550.22,-443.85 558.74,-430.74 564.81,-417.96 593.39,-357.84 566.32,-326.54 607.81,-274.48 621.86,-256.85 642.39,-243.36 661.85,-233.54"/>
<polygon fill="black" stroke="black" points="663.49,-236.64 670.99,-229.15 660.46,-230.33 663.49,-236.64"/>
</g>
<!-- Canola_6(12)
&lt;11&gt;[0.3424] -->
<g id="node14" class="node">
<title>Canola_6(12)
&lt;11&gt;[0.3424]</title>
<ellipse fill="none" stroke="black" cx="565.81" cy="-570.57" rx="65.52" ry="26.74"/>
<text text-anchor="middle" x="565.81" y="-574.37" font-family="Times,serif" font-size="14.00">Canola_6(12)</text>
<text text-anchor="middle" x="565.81" y="-559.37" font-family="Times,serif" font-size="14.00">&lt;11&gt;[0.3424]</text>
</g>
<!-- Canola_6(12)
&lt;11&gt;[0.3424]&#45;&gt;Reservoir(5)
&lt;27&gt;[0.03] -->
<g id="edge14" class="edge">
<title>Canola_6(12)
&lt;11&gt;[0.3424]&#45;&gt;Reservoir(5)
&lt;27&gt;[0.03]</title>
<path fill="none" stroke="black" d="M583.64,-544.42C590.57,-533.58 598,-520.46 602.81,-507.7 640,-409.08 593.61,-366.04 645.81,-274.48 653.11,-261.68 664.07,-250.22 675.21,-240.75"/>
<polygon fill="black" stroke="black" points="677.72,-243.22 683.3,-234.22 673.32,-237.78 677.72,-243.22"/>
</g>
<!-- Canola_7(13)
&lt;12&gt;[0.229] -->
<g id="node15" class="node">
<title>Canola_7(13)
&lt;12&gt;[0.229]</title>
<ellipse fill="none" stroke="black" cx="605.81" cy="-660.31" rx="64.19" ry="26.74"/>
<text text-anchor="middle" x="605.81" y="-664.11" font-family="Times,serif" font-size="14.00">Canola_7(13)</text>
<text text-anchor="middle" x="605.81" y="-649.11" font-family="Times,serif" font-size="14.00">&lt;12&gt;[0.229]</text>
</g>
<!-- Canola_7(13)
&lt;12&gt;[0.229]&#45;&gt;Reservoir(5)
&lt;27&gt;[0.03] -->
<g id="edge15" class="edge">
<title>Canola_7(13)
&lt;12&gt;[0.229]&#45;&gt;Reservoir(5)
&lt;27&gt;[0.03]</title>
<path fill="none" stroke="black" d="M622.76,-634.09C629.33,-623.23 636.34,-610.13 640.81,-597.44 658.12,-548.33 659.81,-533.9 659.81,-481.83 659.81,-481.83 659.81,-481.83 659.81,-390.09 659.81,-337.61 665.95,-323.82 683.81,-274.48 687.19,-265.14 691.78,-255.46 696.45,-246.61"/>
<polygon fill="black" stroke="black" points="699.57,-248.19 701.3,-237.74 693.43,-244.83 699.57,-248.19"/>
</g>
<!-- Canola_8(14)
&lt;13&gt;[0.02824] -->
<g id="node16" class="node">
<title>Canola_8(14)
&lt;13&gt;[0.02824]</title>
<ellipse fill="none" stroke="black" cx="636.81" cy="-750.05" rx="70.92" ry="26.74"/>
<text text-anchor="middle" x="636.81" y="-753.85" font-family="Times,serif" font-size="14.00">Canola_8(14)</text>
<text text-anchor="middle" x="636.81" y="-738.85" font-family="Times,serif" font-size="14.00">&lt;13&gt;[0.02824]</text>
</g>
<!-- Canola_8(14)
&lt;13&gt;[0.02824]&#45;&gt;Reservoir(5)
&lt;27&gt;[0.03] -->
<g id="edge16" class="edge">
<title>Canola_8(14)
&lt;13&gt;[0.02824]&#45;&gt;Reservoir(5)
&lt;27&gt;[0.03]</title>
<path fill="none" stroke="black" d="M657.27,-724.28C665.17,-713.49 673.57,-700.32 678.81,-687.18 698.11,-638.82 697.81,-623.64 697.81,-571.57 697.81,-571.57 697.81,-571.57 697.81,-390.09 697.81,-340.87 705.12,-284.41 710.68,-248.64"/>
<polygon fill="black" stroke="black" points="714.15,-249.1 712.26,-238.68 707.23,-248.01 714.15,-249.1"/>
</g>
<!-- Forage_1(15)
&lt;14&gt;[0.07808] -->
<g id="node17" class="node">
<title>Forage_1(15)
&lt;14&gt;[0.07808]</title>
<ellipse fill="none" stroke="black" cx="735.81" cy="-839.79" rx="70.92" ry="26.74"/>
<text text-anchor="middle" x="735.81" y="-843.59" font-family="Times,serif" font-size="14.00">Forage_1(15)</text>
<text text-anchor="middle" x="735.81" y="-828.59" font-family="Times,serif" font-size="14.00">&lt;14&gt;[0.07808]</text>
</g>
<!-- Forage_1(15)
&lt;14&gt;[0.07808]&#45;&gt;Reservoir(5)
&lt;27&gt;[0.03] -->
<g id="edge17" class="edge">
<title>Forage_1(15)
&lt;14&gt;[0.07808]&#45;&gt;Reservoir(5)
&lt;27&gt;[0.03]</title>
<path fill="none" stroke="black" d="M735.81,-812.63C735.81,-778.01 735.81,-715.08 735.81,-661.31 735.81,-661.31 735.81,-661.31 735.81,-390.09 735.81,-340.87 728.5,-284.41 722.95,-248.64"/>
<polygon fill="black" stroke="black" points="726.39,-248.01 721.36,-238.68 719.48,-249.1 726.39,-248.01"/>
</g>
<!-- Forage_2(16)
&lt;15&gt;[0.05882] -->
<g id="node18" class="node">
<title>Forage_2(16)
&lt;15&gt;[0.05882]</title>
<ellipse fill="none" stroke="black" cx="834.81" cy="-301.35" rx="70.92" ry="26.74"/>
<text text-anchor="middle" x="834.81" y="-305.15" font-family="Times,serif" font-size="14.00">Forage_2(16)</text>
<text text-anchor="middle" x="834.81" y="-290.15" font-family="Times,serif" font-size="14.00">&lt;15&gt;[0.05882]</text>
</g>
<!-- Forage_2(16)
&lt;15&gt;[0.05882]&#45;&gt;Reservoir(5)
&lt;27&gt;[0.03] -->
<g id="edge18" class="edge">
<title>Forage_2(16)
&lt;15&gt;[0.05882]&#45;&gt;Reservoir(5)
&lt;27&gt;[0.03]</title>
<path fill="none" stroke="black" d="M803.5,-277.07C788.75,-266.1 771.02,-252.92 755.44,-241.34"/>
<polygon fill="black" stroke="black" points="757.16,-238.25 747.05,-235.09 752.98,-243.87 757.16,-238.25"/>
</g>
<!-- Forage_3(17)
&lt;16&gt;[0.007212] -->
<g id="node19" class="node">
<title>Forage_3(17)
&lt;16&gt;[0.007212]</title>
<ellipse fill="none" stroke="black" cx="867.81" cy="-391.09" rx="75.82" ry="26.74"/>
<text text-anchor="middle" x="867.81" y="-394.89" font-family="Times,serif" font-size="14.00">Forage_3(17)</text>
<text text-anchor="middle" x="867.81" y="-379.89" font-family="Times,serif" font-size="14.00">&lt;16&gt;[0.007212]</text>
</g>
<!-- Forage_3(17)
&lt;16&gt;[0.007212]&#45;&gt;Reservoir(5)
&lt;27&gt;[0.03] -->
<g id="edge19" class="edge">
<title>Forage_3(17)
&lt;16&gt;[0.007212]&#45;&gt;Reservoir(5)
&lt;27&gt;[0.03]</title>
<path fill="none" stroke="black" d="M891.35,-365.29C911.85,-340.59 935.35,-302.41 914.81,-274.48 885.72,-234.91 831.43,-219.94 787.05,-214.59"/>
<polygon fill="black" stroke="black" points="787.19,-211.09 776.87,-213.51 786.45,-218.05 787.19,-211.09"/>
</g>
<!-- Grazing_1(18)
&lt;17&gt;[0.1173] -->
<g id="node20" class="node">
<title>Grazing_1(18)
&lt;17&gt;[0.1173]</title>
<ellipse fill="none" stroke="black" cx="913.81" cy="-480.83" rx="67.76" ry="26.74"/>
<text text-anchor="middle" x="913.81" y="-484.63" font-family="Times,serif" font-size="14.00">Grazing_1(18)</text>
<text text-anchor="middle" x="913.81" y="-469.63" font-family="Times,serif" font-size="14.00">&lt;17&gt;[0.1173]</text>
</g>
<!-- Grazing_1(18)
&lt;17&gt;[0.1173]&#45;&gt;Reservoir(5)
&lt;27&gt;[0.03] -->
<g id="edge20" class="edge">
<title>Grazing_1(18)
&lt;17&gt;[0.1173]&#45;&gt;Reservoir(5)
&lt;27&gt;[0.03]</title>
<path fill="none" stroke="black" d="M934.03,-454.91C941.47,-444.2 949.01,-431.13 952.81,-417.96 970.68,-356.1 976.96,-321.35 932.81,-274.48 895.56,-234.93 834.9,-220.1 787.34,-214.8"/>
<polygon fill="black" stroke="black" points="787.39,-211.29 777.09,-213.78 786.7,-218.26 787.39,-211.29"/>
</g>
<!-- Impervious(19)
&lt;18&gt;[0.008959] -->
<g id="node21" class="node">
<title>Impervious(19)
&lt;18&gt;[0.008959]</title>
<ellipse fill="none" stroke="black" cx="943.81" cy="-570.57" rx="75.82" ry="26.74"/>
<text text-anchor="middle" x="943.81" y="-574.37" font-family="Times,serif" font-size="14.00">Impervious(19)</text>
<text text-anchor="middle" x="943.81" y="-559.37" font-family="Times,serif" font-size="14.00">&lt;18&gt;[0.008959]</text>
</g>
<!-- Impervious(19)
&lt;18&gt;[0.008959]&#45;&gt;Reservoir(5)
&lt;27&gt;[0.03] -->
<g id="edge21" class="edge">
<title>Impervious(19)
&lt;18&gt;[0.008959]&#45;&gt;Reservoir(5)
&lt;27&gt;[0.03]</title>
<path fill="none" stroke="black" d="M968.36,-544.99C977.24,-534.43 986.2,-521.38 990.81,-507.7 1012.43,-443.49 994.88,-309.64 962.81,-274.48 939.04,-248.42 848.71,-230.75 784.41,-221.17"/>
<polygon fill="black" stroke="black" points="784.73,-217.68 774.33,-219.71 783.72,-224.61 784.73,-217.68"/>
</g>
<!-- Oat(20)
&lt;19&gt;[0.1839] -->
<g id="node22" class="node">
<title>Oat(20)
&lt;19&gt;[0.1839]</title>
<ellipse fill="none" stroke="black" cx="991.81" cy="-660.31" rx="65.52" ry="26.74"/>
<text text-anchor="middle" x="991.81" y="-664.11" font-family="Times,serif" font-size="14.00">Oat(20)</text>
<text text-anchor="middle" x="991.81" y="-649.11" font-family="Times,serif" font-size="14.00">&lt;19&gt;[0.1839]</text>
</g>
<!-- Oat(20)
&lt;19&gt;[0.1839]&#45;&gt;Reservoir(5)
&lt;27&gt;[0.03] -->
<g id="edge22" class="edge">
<title>Oat(20)
&lt;19&gt;[0.1839]&#45;&gt;Reservoir(5)
&lt;27&gt;[0.03]</title>
<path fill="none" stroke="black" d="M1009.76,-634.21C1016.72,-623.37 1024.12,-610.25 1028.81,-597.44 1046.71,-548.54 1047.81,-533.9 1047.81,-481.83 1047.81,-481.83 1047.81,-481.83 1047.81,-390.09 1047.81,-332.4 1034.34,-309.91 988.81,-274.48 957.39,-250.03 854.14,-231.47 784.28,-221.31"/>
<polygon fill="black" stroke="black" points="784.62,-217.83 774.23,-219.88 783.63,-224.76 784.62,-217.83"/>
</g>
<!-- Riparian_1(21)
&lt;20&gt;[0.06239] -->
<g id="node23" class="node">
<title>Riparian_1(21)
&lt;20&gt;[0.06239]</title>
<ellipse fill="none" stroke="black" cx="1024.81" cy="-750.05" rx="70.92" ry="26.74"/>
<text text-anchor="middle" x="1024.81" y="-753.85" font-family="Times,serif" font-size="14.00">Riparian_1(21)</text>
<text text-anchor="middle" x="1024.81" y="-738.85" font-family="Times,serif" font-size="14.00">&lt;20&gt;[0.06239]</text>
</g>
<!-- Riparian_1(21)
&lt;20&gt;[0.06239]&#45;&gt;Reservoir(5)
&lt;27&gt;[0.03] -->
<g id="edge23" class="edge">
<title>Riparian_1(21)
&lt;20&gt;[0.06239]&#45;&gt;Reservoir(5)
&lt;27&gt;[0.03]</title>
<path fill="none" stroke="black" d="M1045.27,-724.28C1053.17,-713.49 1061.57,-700.32 1066.81,-687.18 1086.11,-638.82 1085.81,-623.64 1085.81,-571.57 1085.81,-571.57 1085.81,-571.57 1085.81,-390.09 1085.81,-332.6 1073.54,-309.32 1027.81,-274.48 990.49,-246.04 864.98,-228.05 785.28,-219.19"/>
<polygon fill="black" stroke="black" points="785.63,-215.71 775.31,-218.11 784.87,-222.67 785.63,-215.71"/>
</g>
<!-- Riparian_2(22)
&lt;21&gt;[0.03349] -->
<g id="node24" class="node">
<title>Riparian_2(22)
&lt;21&gt;[0.03349]</title>
<ellipse fill="none" stroke="black" cx="1123.81" cy="-839.79" rx="70.92" ry="26.74"/>
<text text-anchor="middle" x="1123.81" y="-843.59" font-family="Times,serif" font-size="14.00">Riparian_2(22)</text>
<text text-anchor="middle" x="1123.81" y="-828.59" font-family="Times,serif" font-size="14.00">&lt;21&gt;[0.03349]</text>
</g>
<!-- Riparian_2(22)
&lt;21&gt;[0.03349]&#45;&gt;Reservoir(5)
&lt;27&gt;[0.03] -->
<g id="edge24" class="edge">
<title>Riparian_2(22)
&lt;21&gt;[0.03349]&#45;&gt;Reservoir(5)
&lt;27&gt;[0.03]</title>
<path fill="none" stroke="black" d="M1123.81,-812.63C1123.81,-778.01 1123.81,-715.08 1123.81,-661.31 1123.81,-661.31 1123.81,-661.31 1123.81,-390.09 1123.81,-332.8 1112.63,-308.87 1066.81,-274.48 1023.51,-241.98 875.11,-224.96 786.04,-217.48"/>
<polygon fill="black" stroke="black" points="786.27,-213.98 776.02,-216.65 785.7,-220.96 786.27,-213.98"/>
</g>
<!-- Riparian_3(23)
&lt;22&gt;[0.1608] -->
<g id="node25" class="node">
<title>Riparian_3(23)
&lt;22&gt;[0.1608]</title>
<ellipse fill="none" stroke="black" cx="1221.81" cy="-301.35" rx="70.01" ry="26.74"/>
<text text-anchor="middle" x="1221.81" y="-305.15" font-family="Times,serif" font-size="14.00">Riparian_3(23)</text>
<text text-anchor="middle" x="1221.81" y="-290.15" font-family="Times,serif" font-size="14.00">&lt;22&gt;[0.1608]</text>
</g>
<!-- Riparian_3(23)
&lt;22&gt;[0.1608]&#45;&gt;Reservoir(5)
&lt;27&gt;[0.03] -->
<g id="edge25" class="edge">
<title>Riparian_3(23)
&lt;22&gt;[0.1608]&#45;&gt;Reservoir(5)
&lt;27&gt;[0.03]</title>
<path fill="none" stroke="black" d="M1170.17,-283.09C1159.55,-279.92 1148.38,-276.87 1137.81,-274.48 1015.03,-246.72 869.18,-228.51 785.37,-219.43"/>
<polygon fill="black" stroke="black" points="785.53,-215.92 775.21,-218.34 784.78,-222.88 785.53,-215.92"/>
</g>
<!-- Riparian_4(24)
&lt;23&gt;[0.44] -->
<g id="node26" class="node">
<title>Riparian_4(24)
&lt;23&gt;[0.44]</title>
<ellipse fill="none" stroke="black" cx="1259.81" cy="-391.09" rx="70.01" ry="26.74"/>
<text text-anchor="middle" x="1259.81" y="-394.89" font-family="Times,serif" font-size="14.00">Riparian_4(24)</text>
<text text-anchor="middle" x="1259.81" y="-379.89" font-family="Times,serif" font-size="14.00">&lt;23&gt;[0.44]</text>
</g>
<!-- Riparian_4(24)
&lt;23&gt;[0.44]&#45;&gt;Reservoir(5)
&lt;27&gt;[0.03] -->
<g id="edge26" class="edge">
<title>Riparian_4(24)
&lt;23&gt;[0.44]&#45;&gt;Reservoir(5)
&lt;27&gt;[0.03]</title>
<path fill="none" stroke="black" d="M1281.67,-365.15C1301.34,-339.61 1323.89,-300.13 1300.81,-274.48 1266.97,-236.87 934.54,-220.39 786.87,-214.88"/>
<polygon fill="black" stroke="black" points="786.69,-211.37 776.57,-214.5 786.43,-218.37 786.69,-211.37"/>
</g>
<!-- Wheat_1(25)
&lt;24&gt;[0.3289] -->
<g id="node27" class="node">
<title>Wheat_1(25)
&lt;24&gt;[0.3289]</title>
<ellipse fill="none" stroke="black" cx="1329.81" cy="-480.83" rx="65.52" ry="26.74"/>
<text text-anchor="middle" x="1329.81" y="-484.63" font-family="Times,serif" font-size="14.00">Wheat_1(25)</text>
<text text-anchor="middle" x="1329.81" y="-469.63" font-family="Times,serif" font-size="14.00">&lt;24&gt;[0.3289]</text>
</g>
<!-- Wheat_1(25)
&lt;24&gt;[0.3289]&#45;&gt;Reservoir(5)
&lt;27&gt;[0.03] -->
<g id="edge27" class="edge">
<title>Wheat_1(25)
&lt;24&gt;[0.3289]&#45;&gt;Reservoir(5)
&lt;27&gt;[0.03]</title>
<path fill="none" stroke="black" d="M1338.53,-453.91C1351.62,-409.54 1369.85,-319.46 1319.81,-274.48 1280.82,-239.43 937.08,-221.46 786.72,-215.21"/>
<polygon fill="black" stroke="black" points="786.8,-211.71 776.67,-214.8 786.52,-218.71 786.8,-211.71"/>
</g>
<!-- Wheat_2(26)
&lt;25&gt;[0.1887] -->
<g id="node28" class="node">
<title>Wheat_2(26)
&lt;25&gt;[0.1887]</title>
<ellipse fill="none" stroke="black" cx="1423.81" cy="-570.57" rx="65.52" ry="26.74"/>
<text text-anchor="middle" x="1423.81" y="-574.37" font-family="Times,serif" font-size="14.00">Wheat_2(26)</text>
<text text-anchor="middle" x="1423.81" y="-559.37" font-family="Times,serif" font-size="14.00">&lt;25&gt;[0.1887]</text>
</g>
<!-- Wheat_2(26)
&lt;25&gt;[0.1887]&#45;&gt;Reservoir(5)
&lt;27&gt;[0.03] -->
<g id="edge28" class="edge">
<title>Wheat_2(26)
&lt;25&gt;[0.1887]&#45;&gt;Reservoir(5)
&lt;27&gt;[0.03]</title>
<path fill="none" stroke="black" d="M1426.36,-543.41C1430.46,-484.49 1431.02,-341.37 1348.81,-274.48 1305.94,-239.6 942.49,-221.4 786.96,-215.15"/>
<polygon fill="black" stroke="black" points="786.71,-211.64 776.57,-214.74 786.43,-218.64 786.71,-211.64"/>
</g>
<!-- Wheat_3(27)
&lt;26&gt;[0.15] -->
<g id="node29" class="node">
<title>Wheat_3(27)
&lt;26&gt;[0.15]</title>
<ellipse fill="none" stroke="black" cx="1517.81" cy="-660.31" rx="62.87" ry="26.74"/>
<text text-anchor="middle" x="1517.81" y="-664.11" font-family="Times,serif" font-size="14.00">Wheat_3(27)</text>
<text text-anchor="middle" x="1517.81" y="-649.11" font-family="Times,serif" font-size="14.00">&lt;26&gt;[0.15]</text>
</g>
<!-- Wheat_3(27)
&lt;26&gt;[0.15]&#45;&gt;Reservoir(5)
&lt;27&gt;[0.03] -->
<g id="edge29" class="edge">
<title>Wheat_3(27)
&lt;26&gt;[0.15]&#45;&gt;Reservoir(5)
&lt;27&gt;[0.03]</title>
<path fill="none" stroke="black" d="M1517.81,-633.15C1517.81,-598.53 1517.81,-535.6 1517.81,-481.83 1517.81,-481.83 1517.81,-481.83 1517.81,-390.09 1517.81,-311.77 1456.83,-305.27 1384.81,-274.48 1278.66,-229.1 936.33,-216.9 787.27,-213.71"/>
<polygon fill="black" stroke="black" points="786.94,-210.2 776.87,-213.49 786.8,-217.2 786.94,-210.2"/>
</g>
</g>
</svg>
