<?xml version="1.0" encoding="UTF-8" standalone="no"?>
<!DOCTYPE svg PUBLIC "-//W3C//DTD SVG 1.1//EN"
 "http://www.w3.org/Graphics/SVG/1.1/DTD/svg11.dtd">
<!-- Generated by graphviz version 2.43.0 (0)
 -->
<!-- Title: TEST Pages: 1 -->
<svg width="2171pt" height="964pt"
 viewBox="0.00 0.00 2171.09 964.40" xmlns="http://www.w3.org/2000/svg" xmlns:xlink="http://www.w3.org/1999/xlink">
<g id="graph0" class="graph" transform="scale(1 1) rotate(0) translate(4 960.4)">
<title>TEST</title>
<polygon fill="white" stroke="transparent" points="-4,4 -4,-960.4 2167.09,-960.4 2167.09,4 -4,4"/>
<text text-anchor="middle" x="1081.54" y="-7.8" font-family="Times,serif" font-size="14.00">M_Miami_project_GrpM</text>
<!-- Alfalfa 1(1)
[0.04494] -->
<g id="node1" class="node">
<title>Alfalfa 1(1)
[0.04494]</title>
<ellipse fill="none" stroke="black" cx="57.28" cy="-391.09" rx="57.05" ry="26.74"/>
<text text-anchor="middle" x="57.28" y="-394.89" font-family="Times,serif" font-size="14.00">Alfalfa 1(1)</text>
<text text-anchor="middle" x="57.28" y="-379.89" font-family="Times,serif" font-size="14.00">[0.04494]</text>
</g>
<!-- Riparian forest(30)
[4.085] -->
<g id="node2" class="node">
<title>Riparian forest(30)
[4.085]</title>
<ellipse fill="none" stroke="black" cx="1038.28" cy="-301.35" rx="84.71" ry="26.74"/>
<text text-anchor="middle" x="1038.28" y="-305.15" font-family="Times,serif" font-size="14.00">Riparian forest(30)</text>
<text text-anchor="middle" x="1038.28" y="-290.15" font-family="Times,serif" font-size="14.00">[4.085]</text>
</g>
<!-- Alfalfa 1(1)
[0.04494]&#45;&gt;Riparian forest(30)
[4.085] -->
<g id="edge1" class="edge">
<title>Alfalfa 1(1)
[0.04494]&#45;&gt;Riparian forest(30)
[4.085]</title>
<path fill="none" stroke="black" d="M99.13,-372.64C108.57,-369.32 118.65,-366.26 128.28,-364.22 281.88,-331.7 743.54,-312.44 943.84,-305.41"/>
<polygon fill="black" stroke="black" points="944.18,-308.9 954.05,-305.05 943.94,-301.9 944.18,-308.9"/>
</g>
<!-- Channel(7)
[0.03] -->
<g id="node3" class="node">
<title>Channel(7)
[0.03]</title>
<ellipse fill="none" stroke="black" cx="1038.28" cy="-211.61" rx="54.39" ry="26.74"/>
<text text-anchor="middle" x="1038.28" y="-215.41" font-family="Times,serif" font-size="14.00">Channel(7)</text>
<text text-anchor="middle" x="1038.28" y="-200.41" font-family="Times,serif" font-size="14.00">[0.03]</text>
</g>
<!-- Riparian forest(30)
[4.085]&#45;&gt;Channel(7)
[0.03] -->
<g id="edge2" class="edge">
<title>Riparian forest(30)
[4.085]&#45;&gt;Channel(7)
[0.03]</title>
<path fill="none" stroke="black" d="M1038.28,-274.03C1038.28,-266.06 1038.28,-257.17 1038.28,-248.68"/>
<polygon fill="black" stroke="black" points="1041.78,-248.61 1038.28,-238.61 1034.78,-248.61 1041.78,-248.61"/>
</g>
<!-- Reservoir(5)
[0.04] -->
<g id="node4" class="node">
<title>Reservoir(5)
[0.04]</title>
<ellipse fill="none" stroke="black" cx="1038.28" cy="-121.87" rx="60.21" ry="26.74"/>
<text text-anchor="middle" x="1038.28" y="-125.67" font-family="Times,serif" font-size="14.00">Reservoir(5)</text>
<text text-anchor="middle" x="1038.28" y="-110.67" font-family="Times,serif" font-size="14.00">[0.04]</text>
</g>
<!-- Channel(7)
[0.03]&#45;&gt;Reservoir(5)
[0.04] -->
<g id="edge3" class="edge">
<title>Channel(7)
[0.03]&#45;&gt;Reservoir(5)
[0.04]</title>
<path fill="none" stroke="black" d="M1038.28,-184.29C1038.28,-176.32 1038.28,-167.43 1038.28,-158.94"/>
<polygon fill="black" stroke="black" points="1041.78,-158.87 1038.28,-148.87 1034.78,-158.87 1041.78,-158.87"/>
</g>
<!-- basin -->
<g id="node5" class="node">
<title>basin</title>
<ellipse fill="none" stroke="black" cx="1108.28" cy="-41" rx="29.5" ry="18"/>
<text text-anchor="middle" x="1108.28" y="-37.3" font-family="Times,serif" font-size="14.00">basin</text>
</g>
<!-- Reservoir(5)
[0.04]&#45;&gt;basin -->
<g id="edge4" class="edge">
<title>Reservoir(5)
[0.04]&#45;&gt;basin</title>
<path fill="none" stroke="black" d="M1060.04,-96.35C1069.03,-86.21 1079.4,-74.54 1088.2,-64.61"/>
<polygon fill="black" stroke="black" points="1090.86,-66.9 1094.88,-57.09 1085.62,-62.25 1090.86,-66.9"/>
</g>
<!-- Alfalfa 2(2)
[0.01013] -->
<g id="node6" class="node">
<title>Alfalfa 2(2)
[0.01013]</title>
<ellipse fill="none" stroke="black" cx="118.28" cy="-480.83" rx="57.05" ry="26.74"/>
<text text-anchor="middle" x="118.28" y="-484.63" font-family="Times,serif" font-size="14.00">Alfalfa 2(2)</text>
<text text-anchor="middle" x="118.28" y="-469.63" font-family="Times,serif" font-size="14.00">[0.01013]</text>
</g>
<!-- Alfalfa 2(2)
[0.01013]&#45;&gt;Riparian forest(30)
[4.085] -->
<g id="edge5" class="edge">
<title>Alfalfa 2(2)
[0.01013]&#45;&gt;Riparian forest(30)
[4.085]</title>
<path fill="none" stroke="black" d="M126.22,-454.05C136.17,-426.6 156.07,-384.41 189.28,-364.22 252.41,-325.82 735.08,-309.66 943.23,-304.42"/>
<polygon fill="black" stroke="black" points="943.62,-307.92 953.53,-304.17 943.45,-300.92 943.62,-307.92"/>
</g>
<!-- Alfalfa 3(3)
[0.03774] -->
<g id="node7" class="node">
<title>Alfalfa 3(3)
[0.03774]</title>
<ellipse fill="none" stroke="black" cx="156.28" cy="-570.57" rx="57.05" ry="26.74"/>
<text text-anchor="middle" x="156.28" y="-574.37" font-family="Times,serif" font-size="14.00">Alfalfa 3(3)</text>
<text text-anchor="middle" x="156.28" y="-559.37" font-family="Times,serif" font-size="14.00">[0.03774]</text>
</g>
<!-- Alfalfa 3(3)
[0.03774]&#45;&gt;Riparian forest(30)
[4.085] -->
<g id="edge6" class="edge">
<title>Alfalfa 3(3)
[0.03774]&#45;&gt;Riparian forest(30)
[4.085]</title>
<path fill="none" stroke="black" d="M168.63,-544.31C173.82,-533.22 179.69,-519.96 184.28,-507.7 207.61,-445.35 175.42,-405.97 227.28,-364.22 281.96,-320.19 741.2,-307.23 943.37,-303.64"/>
<polygon fill="black" stroke="black" points="943.45,-307.14 953.39,-303.47 943.33,-300.14 943.45,-307.14"/>
</g>
<!-- Barley(4)
[0.2606] -->
<g id="node8" class="node">
<title>Barley(4)
[0.2606]</title>
<ellipse fill="none" stroke="black" cx="203.28" cy="-660.31" rx="48.17" ry="26.74"/>
<text text-anchor="middle" x="203.28" y="-664.11" font-family="Times,serif" font-size="14.00">Barley(4)</text>
<text text-anchor="middle" x="203.28" y="-649.11" font-family="Times,serif" font-size="14.00">[0.2606]</text>
</g>
<!-- Barley(4)
[0.2606]&#45;&gt;Riparian forest(30)
[4.085] -->
<g id="edge7" class="edge">
<title>Barley(4)
[0.2606]&#45;&gt;Riparian forest(30)
[4.085]</title>
<path fill="none" stroke="black" d="M211.9,-633.61C215.41,-622.56 219.34,-609.45 222.28,-597.44 247.34,-495.06 187.03,-434.84 265.28,-364.22 314.62,-319.69 747.76,-307.05 943.26,-303.59"/>
<polygon fill="black" stroke="black" points="943.58,-307.09 953.52,-303.41 943.46,-300.09 943.58,-307.09"/>
</g>
<!-- Canola 1(6)
[1.193] -->
<g id="node9" class="node">
<title>Canola 1(6)
[1.193]</title>
<ellipse fill="none" stroke="black" cx="232.28" cy="-750.05" rx="57.05" ry="26.74"/>
<text text-anchor="middle" x="232.28" y="-753.85" font-family="Times,serif" font-size="14.00">Canola 1(6)</text>
<text text-anchor="middle" x="232.28" y="-738.85" font-family="Times,serif" font-size="14.00">[1.193]</text>
</g>
<!-- Canola 1(6)
[1.193]&#45;&gt;Riparian forest(30)
[4.085] -->
<g id="edge8" class="edge">
<title>Canola 1(6)
[1.193]&#45;&gt;Riparian forest(30)
[4.085]</title>
<path fill="none" stroke="black" d="M245.54,-723.75C250.82,-712.76 256.52,-699.59 260.28,-687.18 275.36,-637.34 279.28,-623.64 279.28,-571.57 279.28,-571.57 279.28,-571.57 279.28,-479.83 279.28,-427.35 264,-399.02 303.28,-364.22 350.22,-322.63 755.7,-308.46 943.52,-304.1"/>
<polygon fill="black" stroke="black" points="943.74,-307.6 953.66,-303.87 943.58,-300.6 943.74,-307.6"/>
</g>
<!-- Canola 2(8)
[0.1686] -->
<g id="node10" class="node">
<title>Canola 2(8)
[0.1686]</title>
<ellipse fill="none" stroke="black" cx="270.28" cy="-839.79" rx="57.05" ry="26.74"/>
<text text-anchor="middle" x="270.28" y="-843.59" font-family="Times,serif" font-size="14.00">Canola 2(8)</text>
<text text-anchor="middle" x="270.28" y="-828.59" font-family="Times,serif" font-size="14.00">[0.1686]</text>
</g>
<!-- Canola 2(8)
[0.1686]&#45;&gt;Riparian forest(30)
[4.085] -->
<g id="edge9" class="edge">
<title>Canola 2(8)
[0.1686]&#45;&gt;Riparian forest(30)
[4.085]</title>
<path fill="none" stroke="black" d="M283.54,-813.49C288.82,-802.5 294.52,-789.33 298.28,-776.92 313.36,-727.08 317.28,-713.38 317.28,-661.31 317.28,-661.31 317.28,-661.31 317.28,-479.83 317.28,-427.35 302.08,-399.11 341.28,-364.22 385.33,-325.01 763.66,-309.68 943.74,-304.57"/>
<polygon fill="black" stroke="black" points="943.84,-308.07 953.74,-304.29 943.65,-301.07 943.84,-308.07"/>
</g>
<!-- Canola 3(9)
[0.3337] -->
<g id="node11" class="node">
<title>Canola 3(9)
[0.3337]</title>
<ellipse fill="none" stroke="black" cx="355.28" cy="-929.53" rx="57.05" ry="26.74"/>
<text text-anchor="middle" x="355.28" y="-933.33" font-family="Times,serif" font-size="14.00">Canola 3(9)</text>
<text text-anchor="middle" x="355.28" y="-918.33" font-family="Times,serif" font-size="14.00">[0.3337]</text>
</g>
<!-- Canola 3(9)
[0.3337]&#45;&gt;Riparian forest(30)
[4.085] -->
<g id="edge10" class="edge">
<title>Canola 3(9)
[0.3337]&#45;&gt;Riparian forest(30)
[4.085]</title>
<path fill="none" stroke="black" d="M355.28,-902.37C355.28,-867.75 355.28,-804.82 355.28,-751.05 355.28,-751.05 355.28,-751.05 355.28,-479.83 355.28,-427.76 336.19,-399.73 374.28,-364.22 415.04,-326.22 770.09,-310.38 943.61,-304.87"/>
<polygon fill="black" stroke="black" points="943.87,-308.36 953.76,-304.55 943.66,-301.36 943.87,-308.36"/>
</g>
<!-- Canola 4(10)
[0.1513] -->
<g id="node12" class="node">
<title>Canola 4(10)
[0.1513]</title>
<ellipse fill="none" stroke="black" cx="445.28" cy="-391.09" rx="62.45" ry="26.74"/>
<text text-anchor="middle" x="445.28" y="-394.89" font-family="Times,serif" font-size="14.00">Canola 4(10)</text>
<text text-anchor="middle" x="445.28" y="-379.89" font-family="Times,serif" font-size="14.00">[0.1513]</text>
</g>
<!-- Canola 4(10)
[0.1513]&#45;&gt;Riparian forest(30)
[4.085] -->
<g id="edge11" class="edge">
<title>Canola 4(10)
[0.1513]&#45;&gt;Riparian forest(30)
[4.085]</title>
<path fill="none" stroke="black" d="M491.05,-372.79C500.91,-369.55 511.35,-366.48 521.28,-364.22 667.15,-331.05 840.47,-314.91 944.8,-307.64"/>
<polygon fill="black" stroke="black" points="945.25,-311.12 954.99,-306.95 944.77,-304.14 945.25,-311.12"/>
</g>
<!-- Canola 5(11)
[0.1832] -->
<g id="node13" class="node">
<title>Canola 5(11)
[0.1832]</title>
<ellipse fill="none" stroke="black" cx="483.28" cy="-480.83" rx="62.45" ry="26.74"/>
<text text-anchor="middle" x="483.28" y="-484.63" font-family="Times,serif" font-size="14.00">Canola 5(11)</text>
<text text-anchor="middle" x="483.28" y="-469.63" font-family="Times,serif" font-size="14.00">[0.1832]</text>
</g>
<!-- Canola 5(11)
[0.1832]&#45;&gt;Riparian forest(30)
[4.085] -->
<g id="edge12" class="edge">
<title>Canola 5(11)
[0.1832]&#45;&gt;Riparian forest(30)
[4.085]</title>
<path fill="none" stroke="black" d="M496.65,-454.46C513.31,-423.88 541.71,-375.2 559.28,-364.22 621.6,-325.25 823.22,-310.64 944.11,-305.3"/>
<polygon fill="black" stroke="black" points="944.27,-308.8 954.11,-304.87 943.97,-301.8 944.27,-308.8"/>
</g>
<!-- Canola 7(13)
[0.1789] -->
<g id="node14" class="node">
<title>Canola 7(13)
[0.1789]</title>
<ellipse fill="none" stroke="black" cx="521.28" cy="-570.57" rx="62.45" ry="26.74"/>
<text text-anchor="middle" x="521.28" y="-574.37" font-family="Times,serif" font-size="14.00">Canola 7(13)</text>
<text text-anchor="middle" x="521.28" y="-559.37" font-family="Times,serif" font-size="14.00">[0.1789]</text>
</g>
<!-- Canola 7(13)
[0.1789]&#45;&gt;Riparian forest(30)
[4.085] -->
<g id="edge13" class="edge">
<title>Canola 7(13)
[0.1789]&#45;&gt;Riparian forest(30)
[4.085]</title>
<path fill="none" stroke="black" d="M536.26,-544.24C542.37,-533.25 549.18,-520.08 554.28,-507.7 579.62,-446.14 546.77,-407.59 597.28,-364.22 647.74,-320.89 829.57,-307.86 943.4,-303.97"/>
<polygon fill="black" stroke="black" points="943.63,-307.46 953.51,-303.64 943.41,-300.47 943.63,-307.46"/>
</g>
<!-- Corn 1(14)
[0.1067] -->
<g id="node15" class="node">
<title>Corn 1(14)
[0.1067]</title>
<ellipse fill="none" stroke="black" cx="567.28" cy="-660.31" rx="54.39" ry="26.74"/>
<text text-anchor="middle" x="567.28" y="-664.11" font-family="Times,serif" font-size="14.00">Corn 1(14)</text>
<text text-anchor="middle" x="567.28" y="-649.11" font-family="Times,serif" font-size="14.00">[0.1067]</text>
</g>
<!-- Corn 1(14)
[0.1067]&#45;&gt;Riparian forest(30)
[4.085] -->
<g id="edge14" class="edge">
<title>Corn 1(14)
[0.1067]&#45;&gt;Riparian forest(30)
[4.085]</title>
<path fill="none" stroke="black" d="M578.92,-633.83C583.6,-622.82 588.72,-609.68 592.28,-597.44 621.72,-496.24 559.64,-437.62 635.28,-364.22 677.98,-322.77 838.46,-309.08 943.56,-304.57"/>
<polygon fill="black" stroke="black" points="944.02,-308.05 953.87,-304.14 943.74,-301.06 944.02,-308.05"/>
</g>
<!-- Corn 2(15)
[0.08615] -->
<g id="node16" class="node">
<title>Corn 2(15)
[0.08615]</title>
<ellipse fill="none" stroke="black" cx="605.28" cy="-750.05" rx="54.39" ry="26.74"/>
<text text-anchor="middle" x="605.28" y="-753.85" font-family="Times,serif" font-size="14.00">Corn 2(15)</text>
<text text-anchor="middle" x="605.28" y="-738.85" font-family="Times,serif" font-size="14.00">[0.08615]</text>
</g>
<!-- Corn 2(15)
[0.08615]&#45;&gt;Riparian forest(30)
[4.085] -->
<g id="edge15" class="edge">
<title>Corn 2(15)
[0.08615]&#45;&gt;Riparian forest(30)
[4.085]</title>
<path fill="none" stroke="black" d="M617.04,-723.61C621.73,-712.6 626.83,-699.45 630.28,-687.18 644.34,-637.04 649.28,-623.64 649.28,-571.57 649.28,-571.57 649.28,-571.57 649.28,-479.83 649.28,-427.35 635.49,-400.64 673.28,-364.22 711.06,-327.8 849.16,-312.67 944.22,-306.49"/>
<polygon fill="black" stroke="black" points="944.67,-309.97 954.43,-305.85 944.23,-302.98 944.67,-309.97"/>
</g>
<!-- Forage 1(16)
[0.1047] -->
<g id="node17" class="node">
<title>Forage 1(16)
[0.1047]</title>
<ellipse fill="none" stroke="black" cx="635.28" cy="-839.79" rx="61.54" ry="26.74"/>
<text text-anchor="middle" x="635.28" y="-843.59" font-family="Times,serif" font-size="14.00">Forage 1(16)</text>
<text text-anchor="middle" x="635.28" y="-828.59" font-family="Times,serif" font-size="14.00">[0.1047]</text>
</g>
<!-- Forage 1(16)
[0.1047]&#45;&gt;Riparian forest(30)
[4.085] -->
<g id="edge16" class="edge">
<title>Forage 1(16)
[0.1047]&#45;&gt;Riparian forest(30)
[4.085]</title>
<path fill="none" stroke="black" d="M651.04,-813.75C657.28,-802.81 663.98,-789.6 668.28,-776.92 684.97,-727.6 687.28,-713.38 687.28,-661.31 687.28,-661.31 687.28,-661.31 687.28,-479.83 687.28,-427.35 673.84,-401 711.28,-364.22 743.8,-332.27 860.52,-316.2 945.25,-308.57"/>
<polygon fill="black" stroke="black" points="945.76,-312.04 955.42,-307.68 945.15,-305.06 945.76,-312.04"/>
</g>
<!-- Forage 2(17)
[0.07527] -->
<g id="node18" class="node">
<title>Forage 2(17)
[0.07527]</title>
<ellipse fill="none" stroke="black" cx="725.28" cy="-929.53" rx="61.54" ry="26.74"/>
<text text-anchor="middle" x="725.28" y="-933.33" font-family="Times,serif" font-size="14.00">Forage 2(17)</text>
<text text-anchor="middle" x="725.28" y="-918.33" font-family="Times,serif" font-size="14.00">[0.07527]</text>
</g>
<!-- Forage 2(17)
[0.07527]&#45;&gt;Riparian forest(30)
[4.085] -->
<g id="edge17" class="edge">
<title>Forage 2(17)
[0.07527]&#45;&gt;Riparian forest(30)
[4.085]</title>
<path fill="none" stroke="black" d="M725.28,-902.37C725.28,-867.75 725.28,-804.82 725.28,-751.05 725.28,-751.05 725.28,-751.05 725.28,-479.83 725.28,-427.76 708.28,-401.85 744.28,-364.22 771.84,-335.41 871.33,-318.94 947.02,-310.35"/>
<polygon fill="black" stroke="black" points="947.51,-313.82 957.06,-309.24 946.74,-306.86 947.51,-313.82"/>
</g>
<!-- Forage 3(18)
[0.02371] -->
<g id="node19" class="node">
<title>Forage 3(18)
[0.02371]</title>
<ellipse fill="none" stroke="black" cx="815.28" cy="-391.09" rx="61.54" ry="26.74"/>
<text text-anchor="middle" x="815.28" y="-394.89" font-family="Times,serif" font-size="14.00">Forage 3(18)</text>
<text text-anchor="middle" x="815.28" y="-379.89" font-family="Times,serif" font-size="14.00">[0.02371]</text>
</g>
<!-- Forage 3(18)
[0.02371]&#45;&gt;Riparian forest(30)
[4.085] -->
<g id="edge18" class="edge">
<title>Forage 3(18)
[0.02371]&#45;&gt;Riparian forest(30)
[4.085]</title>
<path fill="none" stroke="black" d="M859.87,-372.55C893.35,-359.37 939.62,-341.17 976.64,-326.6"/>
<polygon fill="black" stroke="black" points="978.31,-329.71 986.33,-322.79 975.74,-323.19 978.31,-329.71"/>
</g>
<!-- Forage 4(19)
[0.07189] -->
<g id="node20" class="node">
<title>Forage 4(19)
[0.07189]</title>
<ellipse fill="none" stroke="black" cx="853.28" cy="-480.83" rx="61.54" ry="26.74"/>
<text text-anchor="middle" x="853.28" y="-484.63" font-family="Times,serif" font-size="14.00">Forage 4(19)</text>
<text text-anchor="middle" x="853.28" y="-469.63" font-family="Times,serif" font-size="14.00">[0.07189]</text>
</g>
<!-- Forage 4(19)
[0.07189]&#45;&gt;Riparian forest(30)
[4.085] -->
<g id="edge19" class="edge">
<title>Forage 4(19)
[0.07189]&#45;&gt;Riparian forest(30)
[4.085]</title>
<path fill="none" stroke="black" d="M865.49,-454.34C878.55,-429.09 901.23,-390.49 929.28,-364.22 944.29,-350.16 963.07,-338.05 980.8,-328.36"/>
<polygon fill="black" stroke="black" points="982.75,-331.29 989.95,-323.52 979.47,-325.1 982.75,-331.29"/>
</g>
<!-- Forage 5(20)
[0.7458] -->
<g id="node21" class="node">
<title>Forage 5(20)
[0.7458]</title>
<ellipse fill="none" stroke="black" cx="891.28" cy="-570.57" rx="61.54" ry="26.74"/>
<text text-anchor="middle" x="891.28" y="-574.37" font-family="Times,serif" font-size="14.00">Forage 5(20)</text>
<text text-anchor="middle" x="891.28" y="-559.37" font-family="Times,serif" font-size="14.00">[0.7458]</text>
</g>
<!-- Forage 5(20)
[0.7458]&#45;&gt;Riparian forest(30)
[4.085] -->
<g id="edge20" class="edge">
<title>Forage 5(20)
[0.7458]&#45;&gt;Riparian forest(30)
[4.085]</title>
<path fill="none" stroke="black" d="M906.26,-544.24C912.37,-533.25 919.18,-520.08 924.28,-507.7 949.62,-446.14 931.21,-420.17 967.28,-364.22 974.76,-352.61 985.03,-341.93 995.44,-332.82"/>
<polygon fill="black" stroke="black" points="997.96,-335.28 1003.38,-326.18 993.47,-329.91 997.96,-335.28"/>
</g>
<!-- Hay(grass)(21)
[0.1065] -->
<g id="node22" class="node">
<title>Hay(grass)(21)
[0.1065]</title>
<ellipse fill="none" stroke="black" cx="922.28" cy="-660.31" rx="69.09" ry="26.74"/>
<text text-anchor="middle" x="922.28" y="-664.11" font-family="Times,serif" font-size="14.00">Hay(grass)(21)</text>
<text text-anchor="middle" x="922.28" y="-649.11" font-family="Times,serif" font-size="14.00">[0.1065]</text>
</g>
<!-- Hay(grass)(21)
[0.1065]&#45;&gt;Riparian forest(30)
[4.085] -->
<g id="edge21" class="edge">
<title>Hay(grass)(21)
[0.1065]&#45;&gt;Riparian forest(30)
[4.085]</title>
<path fill="none" stroke="black" d="M941.6,-634.36C949.11,-623.54 957.13,-610.4 962.28,-597.44 1001.19,-499.49 970.51,-463.72 1005.28,-364.22 1008.46,-355.11 1012.84,-345.7 1017.37,-337.06"/>
<polygon fill="black" stroke="black" points="1020.57,-338.49 1022.29,-328.03 1014.43,-335.14 1020.57,-338.49"/>
</g>
<!-- Oats 1(22)
[0.1505] -->
<g id="node23" class="node">
<title>Oats 1(22)
[0.1505]</title>
<ellipse fill="none" stroke="black" cx="977.28" cy="-750.05" rx="52.15" ry="26.74"/>
<text text-anchor="middle" x="977.28" y="-753.85" font-family="Times,serif" font-size="14.00">Oats 1(22)</text>
<text text-anchor="middle" x="977.28" y="-738.85" font-family="Times,serif" font-size="14.00">[0.1505]</text>
</g>
<!-- Oats 1(22)
[0.1505]&#45;&gt;Riparian forest(30)
[4.085] -->
<g id="edge22" class="edge">
<title>Oats 1(22)
[0.1505]&#45;&gt;Riparian forest(30)
[4.085]</title>
<path fill="none" stroke="black" d="M988.03,-723.52C992.34,-712.5 997.04,-699.36 1000.28,-687.18 1013.63,-636.85 1019.28,-623.64 1019.28,-571.57 1019.28,-571.57 1019.28,-571.57 1019.28,-479.83 1019.28,-430.61 1026.59,-374.15 1032.14,-338.38"/>
<polygon fill="black" stroke="black" points="1035.61,-338.84 1033.72,-328.42 1028.7,-337.75 1035.61,-338.84"/>
</g>
<!-- Pasture 1(23)
[0.04908] -->
<g id="node24" class="node">
<title>Pasture 1(23)
[0.04908]</title>
<ellipse fill="none" stroke="black" cx="1004.28" cy="-839.79" rx="62.87" ry="26.74"/>
<text text-anchor="middle" x="1004.28" y="-843.59" font-family="Times,serif" font-size="14.00">Pasture 1(23)</text>
<text text-anchor="middle" x="1004.28" y="-828.59" font-family="Times,serif" font-size="14.00">[0.04908]</text>
</g>
<!-- Pasture 1(23)
[0.04908]&#45;&gt;Riparian forest(30)
[4.085] -->
<g id="edge23" class="edge">
<title>Pasture 1(23)
[0.04908]&#45;&gt;Riparian forest(30)
[4.085]</title>
<path fill="none" stroke="black" d="M1020.54,-813.81C1026.98,-802.88 1033.87,-789.66 1038.28,-776.92 1055.28,-727.7 1057.28,-713.38 1057.28,-661.31 1057.28,-661.31 1057.28,-661.31 1057.28,-479.83 1057.28,-430.61 1049.96,-374.15 1044.41,-338.38"/>
<polygon fill="black" stroke="black" points="1047.85,-337.75 1042.83,-328.42 1040.94,-338.84 1047.85,-337.75"/>
</g>
<!-- Pasture 2(24)
[0.06046] -->
<g id="node25" class="node">
<title>Pasture 2(24)
[0.06046]</title>
<ellipse fill="none" stroke="black" cx="1095.28" cy="-929.53" rx="62.87" ry="26.74"/>
<text text-anchor="middle" x="1095.28" y="-933.33" font-family="Times,serif" font-size="14.00">Pasture 2(24)</text>
<text text-anchor="middle" x="1095.28" y="-918.33" font-family="Times,serif" font-size="14.00">[0.06046]</text>
</g>
<!-- Pasture 2(24)
[0.06046]&#45;&gt;Riparian forest(30)
[4.085] -->
<g id="edge24" class="edge">
<title>Pasture 2(24)
[0.06046]&#45;&gt;Riparian forest(30)
[4.085]</title>
<path fill="none" stroke="black" d="M1095.28,-902.37C1095.28,-867.75 1095.28,-804.82 1095.28,-751.05 1095.28,-751.05 1095.28,-751.05 1095.28,-479.83 1095.28,-428.36 1073.27,-372.34 1056.61,-337.29"/>
<polygon fill="black" stroke="black" points="1059.6,-335.44 1052.07,-327.98 1053.31,-338.5 1059.6,-335.44"/>
</g>
<!-- Pasture 3(25)
[0.08648] -->
<g id="node26" class="node">
<title>Pasture 3(25)
[0.08648]</title>
<ellipse fill="none" stroke="black" cx="1186.28" cy="-391.09" rx="62.87" ry="26.74"/>
<text text-anchor="middle" x="1186.28" y="-394.89" font-family="Times,serif" font-size="14.00">Pasture 3(25)</text>
<text text-anchor="middle" x="1186.28" y="-379.89" font-family="Times,serif" font-size="14.00">[0.08648]</text>
</g>
<!-- Pasture 3(25)
[0.08648]&#45;&gt;Riparian forest(30)
[4.085] -->
<g id="edge25" class="edge">
<title>Pasture 3(25)
[0.08648]&#45;&gt;Riparian forest(30)
[4.085]</title>
<path fill="none" stroke="black" d="M1150.45,-368.85C1131.06,-357.36 1106.86,-343.01 1085.9,-330.59"/>
<polygon fill="black" stroke="black" points="1087.53,-327.48 1077.15,-325.39 1083.96,-333.5 1087.53,-327.48"/>
</g>
<!-- Pasture 4(26)
[0.1196] -->
<g id="node27" class="node">
<title>Pasture 4(26)
[0.1196]</title>
<ellipse fill="none" stroke="black" cx="1224.28" cy="-480.83" rx="62.87" ry="26.74"/>
<text text-anchor="middle" x="1224.28" y="-484.63" font-family="Times,serif" font-size="14.00">Pasture 4(26)</text>
<text text-anchor="middle" x="1224.28" y="-469.63" font-family="Times,serif" font-size="14.00">[0.1196]</text>
</g>
<!-- Pasture 4(26)
[0.1196]&#45;&gt;Riparian forest(30)
[4.085] -->
<g id="edge26" class="edge">
<title>Pasture 4(26)
[0.1196]&#45;&gt;Riparian forest(30)
[4.085]</title>
<path fill="none" stroke="black" d="M1243.25,-454.98C1259.92,-429.87 1278.62,-391.07 1258.28,-364.22 1241.64,-342.26 1178.33,-325.92 1123.86,-315.57"/>
<polygon fill="black" stroke="black" points="1124.28,-312.08 1113.81,-313.7 1123.01,-318.97 1124.28,-312.08"/>
</g>
<!-- Pasture 5(27)
[0.0391] -->
<g id="node28" class="node">
<title>Pasture 5(27)
[0.0391]</title>
<ellipse fill="none" stroke="black" cx="1262.28" cy="-570.57" rx="62.87" ry="26.74"/>
<text text-anchor="middle" x="1262.28" y="-574.37" font-family="Times,serif" font-size="14.00">Pasture 5(27)</text>
<text text-anchor="middle" x="1262.28" y="-559.37" font-family="Times,serif" font-size="14.00">[0.0391]</text>
</g>
<!-- Pasture 5(27)
[0.0391]&#45;&gt;Riparian forest(30)
[4.085] -->
<g id="edge27" class="edge">
<title>Pasture 5(27)
[0.0391]&#45;&gt;Riparian forest(30)
[4.085]</title>
<path fill="none" stroke="black" d="M1279.75,-544.6C1286.3,-533.78 1292.95,-520.64 1296.28,-507.7 1312.27,-445.39 1321.73,-410.71 1277.28,-364.22 1256.13,-342.11 1184.26,-325.42 1124.81,-314.98"/>
<polygon fill="black" stroke="black" points="1125.07,-311.48 1114.63,-313.23 1123.89,-318.38 1125.07,-311.48"/>
</g>
<!-- Pasture 6(28)
[0.201] -->
<g id="node29" class="node">
<title>Pasture 6(28)
[0.201]</title>
<ellipse fill="none" stroke="black" cx="1300.28" cy="-660.31" rx="62.87" ry="26.74"/>
<text text-anchor="middle" x="1300.28" y="-664.11" font-family="Times,serif" font-size="14.00">Pasture 6(28)</text>
<text text-anchor="middle" x="1300.28" y="-649.11" font-family="Times,serif" font-size="14.00">[0.201]</text>
</g>
<!-- Pasture 6(28)
[0.201]&#45;&gt;Riparian forest(30)
[4.085] -->
<g id="edge28" class="edge">
<title>Pasture 6(28)
[0.201]&#45;&gt;Riparian forest(30)
[4.085]</title>
<path fill="none" stroke="black" d="M1317.75,-634.34C1324.3,-623.52 1330.95,-610.38 1334.28,-597.44 1351.78,-529.23 1326.85,-385.36 1307.28,-364.22 1283.11,-338.12 1196.52,-321.49 1128.02,-312.12"/>
<polygon fill="black" stroke="black" points="1128.43,-308.64 1118.06,-310.79 1127.51,-315.58 1128.43,-308.64"/>
</g>
<!-- Pasture 7(29)
[0.05042] -->
<g id="node30" class="node">
<title>Pasture 7(29)
[0.05042]</title>
<ellipse fill="none" stroke="black" cx="1338.28" cy="-750.05" rx="62.87" ry="26.74"/>
<text text-anchor="middle" x="1338.28" y="-753.85" font-family="Times,serif" font-size="14.00">Pasture 7(29)</text>
<text text-anchor="middle" x="1338.28" y="-738.85" font-family="Times,serif" font-size="14.00">[0.05042]</text>
</g>
<!-- Pasture 7(29)
[0.05042]&#45;&gt;Riparian forest(30)
[4.085] -->
<g id="edge29" class="edge">
<title>Pasture 7(29)
[0.05042]&#45;&gt;Riparian forest(30)
[4.085]</title>
<path fill="none" stroke="black" d="M1354.54,-724.07C1360.98,-713.14 1367.87,-699.92 1372.28,-687.18 1389.28,-637.96 1391.28,-623.64 1391.28,-571.57 1391.28,-571.57 1391.28,-571.57 1391.28,-479.83 1391.28,-421.94 1377.36,-399.26 1331.28,-364.22 1299.7,-340.21 1201.69,-322.85 1127.65,-312.73"/>
<polygon fill="black" stroke="black" points="1127.74,-309.21 1117.37,-311.35 1126.81,-316.15 1127.74,-309.21"/>
</g>
<!-- Road(31)
[0.4808] -->
<g id="node31" class="node">
<title>Road(31)
[0.4808]</title>
<ellipse fill="none" stroke="black" cx="1391.28" cy="-839.79" rx="48.17" ry="26.74"/>
<text text-anchor="middle" x="1391.28" y="-843.59" font-family="Times,serif" font-size="14.00">Road(31)</text>
<text text-anchor="middle" x="1391.28" y="-828.59" font-family="Times,serif" font-size="14.00">[0.4808]</text>
</g>
<!-- Road(31)
[0.4808]&#45;&gt;Riparian forest(30)
[4.085] -->
<g id="edge30" class="edge">
<title>Road(31)
[0.4808]&#45;&gt;Riparian forest(30)
[4.085]</title>
<path fill="none" stroke="black" d="M1400.28,-813.29C1411.52,-779.14 1429.28,-716.45 1429.28,-661.31 1429.28,-661.31 1429.28,-661.31 1429.28,-479.83 1429.28,-422.14 1416.49,-398.74 1370.28,-364.22 1333.04,-336.4 1214.57,-319.31 1129.78,-310.33"/>
<polygon fill="black" stroke="black" points="1129.92,-306.82 1119.61,-309.27 1129.2,-313.79 1129.92,-306.82"/>
</g>
<!-- Unknown structure(32)
[0.1017] -->
<g id="node32" class="node">
<title>Unknown structure(32)
[0.1017]</title>
<ellipse fill="none" stroke="black" cx="1467.28" cy="-929.53" rx="101.23" ry="26.74"/>
<text text-anchor="middle" x="1467.28" y="-933.33" font-family="Times,serif" font-size="14.00">Unknown structure(32)</text>
<text text-anchor="middle" x="1467.28" y="-918.33" font-family="Times,serif" font-size="14.00">[0.1017]</text>
</g>
<!-- Unknown structure(32)
[0.1017]&#45;&gt;Riparian forest(30)
[4.085] -->
<g id="edge31" class="edge">
<title>Unknown structure(32)
[0.1017]&#45;&gt;Riparian forest(30)
[4.085]</title>
<path fill="none" stroke="black" d="M1467.28,-902.37C1467.28,-867.75 1467.28,-804.82 1467.28,-751.05 1467.28,-751.05 1467.28,-751.05 1467.28,-479.83 1467.28,-422.34 1455.54,-398.34 1409.28,-364.22 1366.24,-332.48 1226.42,-316.03 1131.26,-308.29"/>
<polygon fill="black" stroke="black" points="1131.29,-304.79 1121.05,-307.48 1130.74,-311.76 1131.29,-304.79"/>
</g>
<!-- Wheat 1(33)
[0.1546] -->
<g id="node33" class="node">
<title>Wheat 1(33)
[0.1546]</title>
<ellipse fill="none" stroke="black" cx="1556.28" cy="-391.09" rx="60.62" ry="26.74"/>
<text text-anchor="middle" x="1556.28" y="-394.89" font-family="Times,serif" font-size="14.00">Wheat 1(33)</text>
<text text-anchor="middle" x="1556.28" y="-379.89" font-family="Times,serif" font-size="14.00">[0.1546]</text>
</g>
<!-- Wheat 1(33)
[0.1546]&#45;&gt;Riparian forest(30)
[4.085] -->
<g id="edge32" class="edge">
<title>Wheat 1(33)
[0.1546]&#45;&gt;Riparian forest(30)
[4.085]</title>
<path fill="none" stroke="black" d="M1511.08,-372.93C1501.35,-369.68 1491.05,-366.57 1481.28,-364.22 1361.67,-335.52 1220.48,-318.65 1130.2,-309.96"/>
<polygon fill="black" stroke="black" points="1130.28,-306.45 1119.99,-308.99 1129.62,-313.42 1130.28,-306.45"/>
</g>
<!-- Wheat 10(34)
[0.3102] -->
<g id="node34" class="node">
<title>Wheat 10(34)
[0.3102]</title>
<ellipse fill="none" stroke="black" cx="1590.28" cy="-480.83" rx="65.11" ry="26.74"/>
<text text-anchor="middle" x="1590.28" y="-484.63" font-family="Times,serif" font-size="14.00">Wheat 10(34)</text>
<text text-anchor="middle" x="1590.28" y="-469.63" font-family="Times,serif" font-size="14.00">[0.3102]</text>
</g>
<!-- Wheat 10(34)
[0.3102]&#45;&gt;Riparian forest(30)
[4.085] -->
<g id="edge33" class="edge">
<title>Wheat 10(34)
[0.3102]&#45;&gt;Riparian forest(30)
[4.085]</title>
<path fill="none" stroke="black" d="M1610.15,-455.23C1628.34,-429.59 1649.2,-389.69 1626.28,-364.22 1593.91,-328.27 1290.45,-311.72 1132.64,-305.49"/>
<polygon fill="black" stroke="black" points="1132.59,-301.98 1122.46,-305.09 1132.32,-308.98 1132.59,-301.98"/>
</g>
<!-- Wheat 2(35)
[0.1055] -->
<g id="node35" class="node">
<title>Wheat 2(35)
[0.1055]</title>
<ellipse fill="none" stroke="black" cx="1632.28" cy="-570.57" rx="60.62" ry="26.74"/>
<text text-anchor="middle" x="1632.28" y="-574.37" font-family="Times,serif" font-size="14.00">Wheat 2(35)</text>
<text text-anchor="middle" x="1632.28" y="-559.37" font-family="Times,serif" font-size="14.00">[0.1055]</text>
</g>
<!-- Wheat 2(35)
[0.1055]&#45;&gt;Riparian forest(30)
[4.085] -->
<g id="edge34" class="edge">
<title>Wheat 2(35)
[0.1055]&#45;&gt;Riparian forest(30)
[4.085]</title>
<path fill="none" stroke="black" d="M1648.73,-544.47C1654.9,-533.63 1661.16,-520.51 1664.28,-507.7 1679.47,-445.25 1693.86,-407.42 1646.28,-364.22 1609.07,-330.44 1293.9,-312.77 1132.6,-305.87"/>
<polygon fill="black" stroke="black" points="1132.34,-302.36 1122.2,-305.43 1132.04,-309.35 1132.34,-302.36"/>
</g>
<!-- Wheat 3(36)
[0.5043] -->
<g id="node36" class="node">
<title>Wheat 3(36)
[0.5043]</title>
<ellipse fill="none" stroke="black" cx="1670.28" cy="-660.31" rx="60.62" ry="26.74"/>
<text text-anchor="middle" x="1670.28" y="-664.11" font-family="Times,serif" font-size="14.00">Wheat 3(36)</text>
<text text-anchor="middle" x="1670.28" y="-649.11" font-family="Times,serif" font-size="14.00">[0.5043]</text>
</g>
<!-- Wheat 3(36)
[0.5043]&#45;&gt;Riparian forest(30)
[4.085] -->
<g id="edge35" class="edge">
<title>Wheat 3(36)
[0.5043]&#45;&gt;Riparian forest(30)
[4.085]</title>
<path fill="none" stroke="black" d="M1686.73,-634.21C1692.9,-623.37 1699.16,-610.25 1702.28,-597.44 1719.08,-528.37 1694.9,-381.98 1676.28,-364.22 1637.78,-327.5 1300.83,-311.12 1132.77,-305.18"/>
<polygon fill="black" stroke="black" points="1132.8,-301.68 1122.68,-304.83 1132.56,-308.67 1132.8,-301.68"/>
</g>
<!-- Wheat 4(37)
[0.2888] -->
<g id="node37" class="node">
<title>Wheat 4(37)
[0.2888]</title>
<ellipse fill="none" stroke="black" cx="1708.28" cy="-750.05" rx="60.62" ry="26.74"/>
<text text-anchor="middle" x="1708.28" y="-753.85" font-family="Times,serif" font-size="14.00">Wheat 4(37)</text>
<text text-anchor="middle" x="1708.28" y="-738.85" font-family="Times,serif" font-size="14.00">[0.2888]</text>
</g>
<!-- Wheat 4(37)
[0.2888]&#45;&gt;Riparian forest(30)
[4.085] -->
<g id="edge36" class="edge">
<title>Wheat 4(37)
[0.2888]&#45;&gt;Riparian forest(30)
[4.085]</title>
<path fill="none" stroke="black" d="M1723.54,-723.95C1729.59,-713.01 1736.09,-699.81 1740.28,-687.18 1756.66,-637.75 1759.28,-623.64 1759.28,-571.57 1759.28,-571.57 1759.28,-571.57 1759.28,-479.83 1759.28,-422.14 1748.01,-396.6 1700.28,-364.22 1654.35,-333.07 1303.9,-313.81 1132.33,-306.15"/>
<polygon fill="black" stroke="black" points="1132.43,-302.65 1122.29,-305.71 1132.13,-309.64 1132.43,-302.65"/>
</g>
<!-- Wheat 5(38)
[0.01906] -->
<g id="node38" class="node">
<title>Wheat 5(38)
[0.01906]</title>
<ellipse fill="none" stroke="black" cx="1746.28" cy="-839.79" rx="60.62" ry="26.74"/>
<text text-anchor="middle" x="1746.28" y="-843.59" font-family="Times,serif" font-size="14.00">Wheat 5(38)</text>
<text text-anchor="middle" x="1746.28" y="-828.59" font-family="Times,serif" font-size="14.00">[0.01906]</text>
</g>
<!-- Wheat 5(38)
[0.01906]&#45;&gt;Riparian forest(30)
[4.085] -->
<g id="edge37" class="edge">
<title>Wheat 5(38)
[0.01906]&#45;&gt;Riparian forest(30)
[4.085]</title>
<path fill="none" stroke="black" d="M1761.54,-813.69C1767.59,-802.75 1774.09,-789.55 1778.28,-776.92 1794.66,-727.49 1797.28,-713.38 1797.28,-661.31 1797.28,-661.31 1797.28,-661.31 1797.28,-479.83 1797.28,-422.34 1786.82,-396.53 1739.28,-364.22 1690.24,-330.9 1312.55,-312.54 1132.79,-305.61"/>
<polygon fill="black" stroke="black" points="1132.67,-302.1 1122.55,-305.22 1132.41,-309.1 1132.67,-302.1"/>
</g>
<!-- Wheat 6(39)
[0.5118] -->
<g id="node39" class="node">
<title>Wheat 6(39)
[0.5118]</title>
<ellipse fill="none" stroke="black" cx="1835.28" cy="-929.53" rx="60.62" ry="26.74"/>
<text text-anchor="middle" x="1835.28" y="-933.33" font-family="Times,serif" font-size="14.00">Wheat 6(39)</text>
<text text-anchor="middle" x="1835.28" y="-918.33" font-family="Times,serif" font-size="14.00">[0.5118]</text>
</g>
<!-- Wheat 6(39)
[0.5118]&#45;&gt;Riparian forest(30)
[4.085] -->
<g id="edge38" class="edge">
<title>Wheat 6(39)
[0.5118]&#45;&gt;Riparian forest(30)
[4.085]</title>
<path fill="none" stroke="black" d="M1835.28,-902.37C1835.28,-867.75 1835.28,-804.82 1835.28,-751.05 1835.28,-751.05 1835.28,-751.05 1835.28,-479.83 1835.28,-422.54 1825.62,-396.48 1778.28,-364.22 1726.1,-328.67 1320.46,-311.3 1132.87,-305.1"/>
<polygon fill="black" stroke="black" points="1132.84,-301.6 1122.74,-304.77 1132.62,-308.6 1132.84,-301.6"/>
</g>
<!-- Wheat 7(40)
[0.1215] -->
<g id="node40" class="node">
<title>Wheat 7(40)
[0.1215]</title>
<ellipse fill="none" stroke="black" cx="1924.28" cy="-391.09" rx="60.62" ry="26.74"/>
<text text-anchor="middle" x="1924.28" y="-394.89" font-family="Times,serif" font-size="14.00">Wheat 7(40)</text>
<text text-anchor="middle" x="1924.28" y="-379.89" font-family="Times,serif" font-size="14.00">[0.1215]</text>
</g>
<!-- Wheat 7(40)
[0.1215]&#45;&gt;Riparian forest(30)
[4.085] -->
<g id="edge39" class="edge">
<title>Wheat 7(40)
[0.1215]&#45;&gt;Riparian forest(30)
[4.085]</title>
<path fill="none" stroke="black" d="M1879.59,-372.59C1869.73,-369.32 1859.26,-366.29 1849.28,-364.22 1594.48,-311.47 1286.31,-302.6 1133.61,-301.78"/>
<polygon fill="black" stroke="black" points="1133.34,-298.27 1123.33,-301.73 1133.31,-305.27 1133.34,-298.27"/>
</g>
<!-- Wheat 8(41)
[0.8175] -->
<g id="node41" class="node">
<title>Wheat 8(41)
[0.8175]</title>
<ellipse fill="none" stroke="black" cx="2013.28" cy="-480.83" rx="60.62" ry="26.74"/>
<text text-anchor="middle" x="2013.28" y="-484.63" font-family="Times,serif" font-size="14.00">Wheat 8(41)</text>
<text text-anchor="middle" x="2013.28" y="-469.63" font-family="Times,serif" font-size="14.00">[0.8175]</text>
</g>
<!-- Wheat 8(41)
[0.8175]&#45;&gt;Riparian forest(30)
[4.085] -->
<g id="edge40" class="edge">
<title>Wheat 8(41)
[0.8175]&#45;&gt;Riparian forest(30)
[4.085]</title>
<path fill="none" stroke="black" d="M2017.3,-453.96C2019.83,-427.27 2018.84,-386.48 1994.28,-364.22 1931.5,-307.33 1363.1,-301.81 1133.67,-301.92"/>
<polygon fill="black" stroke="black" points="1133.33,-298.42 1123.33,-301.93 1133.34,-305.42 1133.33,-298.42"/>
</g>
<!-- Wheat 9(42)
[0.188] -->
<g id="node42" class="node">
<title>Wheat 9(42)
[0.188]</title>
<ellipse fill="none" stroke="black" cx="2102.28" cy="-570.57" rx="60.62" ry="26.74"/>
<text text-anchor="middle" x="2102.28" y="-574.37" font-family="Times,serif" font-size="14.00">Wheat 9(42)</text>
<text text-anchor="middle" x="2102.28" y="-559.37" font-family="Times,serif" font-size="14.00">[0.188]</text>
</g>
<!-- Wheat 9(42)
[0.188]&#45;&gt;Riparian forest(30)
[4.085] -->
<g id="edge41" class="edge">
<title>Wheat 9(42)
[0.188]&#45;&gt;Riparian forest(30)
[4.085]</title>
<path fill="none" stroke="black" d="M2101.47,-543.51C2098.4,-496.73 2084.24,-400.07 2020.28,-364.22 1944.2,-321.58 1364.61,-307.6 1133.23,-303.69"/>
<polygon fill="black" stroke="black" points="1133.2,-300.19 1123.15,-303.52 1133.09,-307.19 1133.2,-300.19"/>
</g>
<!-- Canola 6(12)
[0.2193] -->
<g id="node43" class="node">
<title>Canola 6(12)
[0.2193]</title>
<ellipse fill="none" stroke="black" cx="1178.28" cy="-121.87" rx="62.45" ry="26.74"/>
<text text-anchor="middle" x="1178.28" y="-125.67" font-family="Times,serif" font-size="14.00">Canola 6(12)</text>
<text text-anchor="middle" x="1178.28" y="-110.67" font-family="Times,serif" font-size="14.00">[0.2193]</text>
</g>
<!-- Canola 6(12)
[0.2193]&#45;&gt;basin -->
<g id="edge42" class="edge">
<title>Canola 6(12)
[0.2193]&#45;&gt;basin</title>
<path fill="none" stroke="black" d="M1156.51,-96.35C1147.52,-86.21 1137.16,-74.54 1128.35,-64.61"/>
<polygon fill="black" stroke="black" points="1130.93,-62.25 1121.67,-57.09 1125.69,-66.9 1130.93,-62.25"/>
</g>
</g>
</svg>
