<?xml version="1.0" encoding="UTF-8" standalone="no"?>
<!DOCTYPE svg PUBLIC "-//W3C//DTD SVG 1.1//EN"
 "http://www.w3.org/Graphics/SVG/1.1/DTD/svg11.dtd">
<!-- Generated by graphviz version 2.43.0 (0)
 -->
<!-- Title: TEST Pages: 1 -->
<svg width="1758pt" height="785pt"
 viewBox="0.00 0.00 1758.25 784.92" xmlns="http://www.w3.org/2000/svg" xmlns:xlink="http://www.w3.org/1999/xlink">
<g id="graph0" class="graph" transform="scale(1 1) rotate(0) translate(4 780.92)">
<title>TEST</title>
<polygon fill="white" stroke="transparent" points="-4,4 -4,-780.92 1754.25,-780.92 1754.25,4 -4,4"/>
<text text-anchor="middle" x="875.12" y="-7.8" font-family="Times,serif" font-size="14.00">E_final_Mid_up1_model_GrpE</text>
<!-- Alfalfa(1)
[0.1188] -->
<g id="node1" class="node">
<title>Alfalfa(1)
[0.1188]</title>
<ellipse fill="none" stroke="black" cx="50.2" cy="-211.61" rx="50.41" ry="26.74"/>
<text text-anchor="middle" x="50.2" y="-215.41" font-family="Times,serif" font-size="14.00">Alfalfa(1)</text>
<text text-anchor="middle" x="50.2" y="-200.41" font-family="Times,serif" font-size="14.00">[0.1188]</text>
</g>
<!-- Channel(5)
[0.03] -->
<g id="node2" class="node">
<title>Channel(5)
[0.03]</title>
<ellipse fill="none" stroke="black" cx="850.2" cy="-121.87" rx="54.39" ry="26.74"/>
<text text-anchor="middle" x="850.2" y="-125.67" font-family="Times,serif" font-size="14.00">Channel(5)</text>
<text text-anchor="middle" x="850.2" y="-110.67" font-family="Times,serif" font-size="14.00">[0.03]</text>
</g>
<!-- Alfalfa(1)
[0.1188]&#45;&gt;Channel(5)
[0.03] -->
<g id="edge1" class="edge">
<title>Alfalfa(1)
[0.1188]&#45;&gt;Channel(5)
[0.03]</title>
<path fill="none" stroke="black" d="M87.49,-193.36C96.1,-189.99 105.34,-186.85 114.2,-184.74 241.01,-154.51 630.68,-133.27 785.66,-125.81"/>
<polygon fill="black" stroke="black" points="786.14,-129.29 795.96,-125.32 785.81,-122.3 786.14,-129.29"/>
</g>
<!-- basin -->
<g id="node3" class="node">
<title>basin</title>
<ellipse fill="none" stroke="black" cx="919.2" cy="-41" rx="29.5" ry="18"/>
<text text-anchor="middle" x="919.2" y="-37.3" font-family="Times,serif" font-size="14.00">basin</text>
</g>
<!-- Channel(5)
[0.03]&#45;&gt;basin -->
<g id="edge2" class="edge">
<title>Channel(5)
[0.03]&#45;&gt;basin</title>
<path fill="none" stroke="black" d="M871.28,-96.78C880.16,-86.63 890.45,-74.87 899.21,-64.85"/>
<polygon fill="black" stroke="black" points="901.9,-67.09 905.85,-57.26 896.64,-62.48 901.9,-67.09"/>
</g>
<!-- Barley_1(2)
[0.07321] -->
<g id="node4" class="node">
<title>Barley_1(2)
[0.07321]</title>
<ellipse fill="none" stroke="black" cx="104.2" cy="-301.35" rx="57.97" ry="26.74"/>
<text text-anchor="middle" x="104.2" y="-305.15" font-family="Times,serif" font-size="14.00">Barley_1(2)</text>
<text text-anchor="middle" x="104.2" y="-290.15" font-family="Times,serif" font-size="14.00">[0.07321]</text>
</g>
<!-- Barley_1(2)
[0.07321]&#45;&gt;Channel(5)
[0.03] -->
<g id="edge3" class="edge">
<title>Barley_1(2)
[0.07321]&#45;&gt;Channel(5)
[0.03]</title>
<path fill="none" stroke="black" d="M112.44,-274.67C122.69,-247.33 143,-205.22 176.2,-184.74 227.37,-153.18 627.39,-132.54 785.86,-125.53"/>
<polygon fill="black" stroke="black" points="786.11,-129.02 795.95,-125.09 785.8,-122.03 786.11,-129.02"/>
</g>
<!-- Barley_2(3)
[0.1411] -->
<g id="node5" class="node">
<title>Barley_2(3)
[0.1411]</title>
<ellipse fill="none" stroke="black" cx="142.2" cy="-391.09" rx="57.97" ry="26.74"/>
<text text-anchor="middle" x="142.2" y="-394.89" font-family="Times,serif" font-size="14.00">Barley_2(3)</text>
<text text-anchor="middle" x="142.2" y="-379.89" font-family="Times,serif" font-size="14.00">[0.1411]</text>
</g>
<!-- Barley_2(3)
[0.1411]&#45;&gt;Channel(5)
[0.03] -->
<g id="edge4" class="edge">
<title>Barley_2(3)
[0.1411]&#45;&gt;Channel(5)
[0.03]</title>
<path fill="none" stroke="black" d="M155.06,-364.87C160.43,-353.79 166.51,-340.52 171.2,-328.22 194.95,-266.03 162.79,-227.03 214.2,-184.74 257.73,-148.94 632.89,-130.99 785.77,-125.11"/>
<polygon fill="black" stroke="black" points="786.09,-128.6 795.95,-124.72 785.82,-121.61 786.09,-128.6"/>
</g>
<!-- Barley_3(4)
[0.02916] -->
<g id="node6" class="node">
<title>Barley_3(4)
[0.02916]</title>
<ellipse fill="none" stroke="black" cx="180.2" cy="-480.83" rx="57.97" ry="26.74"/>
<text text-anchor="middle" x="180.2" y="-484.63" font-family="Times,serif" font-size="14.00">Barley_3(4)</text>
<text text-anchor="middle" x="180.2" y="-469.63" font-family="Times,serif" font-size="14.00">[0.02916]</text>
</g>
<!-- Barley_3(4)
[0.02916]&#45;&gt;Channel(5)
[0.03] -->
<g id="edge5" class="edge">
<title>Barley_3(4)
[0.02916]&#45;&gt;Channel(5)
[0.03]</title>
<path fill="none" stroke="black" d="M193.85,-454.54C199.31,-443.56 205.22,-430.39 209.2,-417.96 241.39,-317.59 174.78,-256.26 252.2,-184.74 290.83,-149.06 639.27,-131.21 785.77,-125.23"/>
<polygon fill="black" stroke="black" points="786.11,-128.72 795.96,-124.82 785.83,-121.73 786.11,-128.72"/>
</g>
<!-- Canola_1(6)
[0.4642] -->
<g id="node7" class="node">
<title>Canola_1(6)
[0.4642]</title>
<ellipse fill="none" stroke="black" cx="217.2" cy="-570.57" rx="59.29" ry="26.74"/>
<text text-anchor="middle" x="217.2" y="-574.37" font-family="Times,serif" font-size="14.00">Canola_1(6)</text>
<text text-anchor="middle" x="217.2" y="-559.37" font-family="Times,serif" font-size="14.00">[0.4642]</text>
</g>
<!-- Canola_1(6)
[0.4642]&#45;&gt;Channel(5)
[0.03] -->
<g id="edge6" class="edge">
<title>Canola_1(6)
[0.4642]&#45;&gt;Channel(5)
[0.03]</title>
<path fill="none" stroke="black" d="M231.47,-544.37C237.14,-533.4 243.23,-520.22 247.2,-507.7 262.95,-458.07 266.2,-444.16 266.2,-392.09 266.2,-392.09 266.2,-392.09 266.2,-300.35 266.2,-247.87 251.38,-220.05 290.2,-184.74 326.3,-151.91 646.25,-132.68 785.7,-125.78"/>
<polygon fill="black" stroke="black" points="786.01,-129.27 795.82,-125.29 785.67,-122.28 786.01,-129.27"/>
</g>
<!-- Canola_2(7)
[0.1204] -->
<g id="node8" class="node">
<title>Canola_2(7)
[0.1204]</title>
<ellipse fill="none" stroke="black" cx="255.2" cy="-660.31" rx="59.29" ry="26.74"/>
<text text-anchor="middle" x="255.2" y="-664.11" font-family="Times,serif" font-size="14.00">Canola_2(7)</text>
<text text-anchor="middle" x="255.2" y="-649.11" font-family="Times,serif" font-size="14.00">[0.1204]</text>
</g>
<!-- Canola_2(7)
[0.1204]&#45;&gt;Channel(5)
[0.03] -->
<g id="edge7" class="edge">
<title>Canola_2(7)
[0.1204]&#45;&gt;Channel(5)
[0.03]</title>
<path fill="none" stroke="black" d="M269.47,-634.11C275.14,-623.14 281.23,-609.96 285.2,-597.44 300.95,-547.81 304.2,-533.9 304.2,-481.83 304.2,-481.83 304.2,-481.83 304.2,-300.35 304.2,-247.87 289.52,-220.2 328.2,-184.74 361.4,-154.3 653.79,-134.02 785.9,-126.33"/>
<polygon fill="black" stroke="black" points="786.49,-129.8 796.27,-125.73 786.08,-122.81 786.49,-129.8"/>
</g>
<!-- Canola_3(8)
[0.03476] -->
<g id="node9" class="node">
<title>Canola_3(8)
[0.03476]</title>
<ellipse fill="none" stroke="black" cx="342.2" cy="-750.05" rx="59.29" ry="26.74"/>
<text text-anchor="middle" x="342.2" y="-753.85" font-family="Times,serif" font-size="14.00">Canola_3(8)</text>
<text text-anchor="middle" x="342.2" y="-738.85" font-family="Times,serif" font-size="14.00">[0.03476]</text>
</g>
<!-- Canola_3(8)
[0.03476]&#45;&gt;Channel(5)
[0.03] -->
<g id="edge8" class="edge">
<title>Canola_3(8)
[0.03476]&#45;&gt;Channel(5)
[0.03]</title>
<path fill="none" stroke="black" d="M342.2,-722.89C342.2,-688.27 342.2,-625.34 342.2,-571.57 342.2,-571.57 342.2,-571.57 342.2,-300.35 342.2,-248.28 323.71,-220.87 361.2,-184.74 391.28,-155.75 659.96,-134.99 785.76,-126.77"/>
<polygon fill="black" stroke="black" points="786.27,-130.25 796.03,-126.11 785.82,-123.26 786.27,-130.25"/>
</g>
<!-- Canola_4(9)
[0.09213] -->
<g id="node10" class="node">
<title>Canola_4(9)
[0.09213]</title>
<ellipse fill="none" stroke="black" cx="429.2" cy="-211.61" rx="59.29" ry="26.74"/>
<text text-anchor="middle" x="429.2" y="-215.41" font-family="Times,serif" font-size="14.00">Canola_4(9)</text>
<text text-anchor="middle" x="429.2" y="-200.41" font-family="Times,serif" font-size="14.00">[0.09213]</text>
</g>
<!-- Canola_4(9)
[0.09213]&#45;&gt;Channel(5)
[0.03] -->
<g id="edge9" class="edge">
<title>Canola_4(9)
[0.09213]&#45;&gt;Channel(5)
[0.03]</title>
<path fill="none" stroke="black" d="M473.62,-193.56C482.98,-190.34 492.84,-187.21 502.2,-184.74 600.6,-158.75 717.56,-140.47 787.73,-130.81"/>
<polygon fill="black" stroke="black" points="788.3,-134.27 797.74,-129.45 787.36,-127.33 788.3,-134.27"/>
</g>
<!-- Canola_5(10)
[0.01933] -->
<g id="node11" class="node">
<title>Canola_5(10)
[0.01933]</title>
<ellipse fill="none" stroke="black" cx="462.2" cy="-301.35" rx="64.19" ry="26.74"/>
<text text-anchor="middle" x="462.2" y="-305.15" font-family="Times,serif" font-size="14.00">Canola_5(10)</text>
<text text-anchor="middle" x="462.2" y="-290.15" font-family="Times,serif" font-size="14.00">[0.01933]</text>
</g>
<!-- Canola_5(10)
[0.01933]&#45;&gt;Channel(5)
[0.03] -->
<g id="edge10" class="edge">
<title>Canola_5(10)
[0.01933]&#45;&gt;Channel(5)
[0.03]</title>
<path fill="none" stroke="black" d="M476.29,-274.9C493.62,-244.5 522.87,-196.28 540.2,-184.74 579.89,-158.34 708.44,-139.28 786.99,-129.75"/>
<polygon fill="black" stroke="black" points="787.74,-133.19 797.26,-128.53 786.91,-126.24 787.74,-133.19"/>
</g>
<!-- Fall_rye_1(11)
[0.2311] -->
<g id="node12" class="node">
<title>Fall_rye_1(11)
[0.2311]</title>
<ellipse fill="none" stroke="black" cx="495.2" cy="-391.09" rx="69.09" ry="26.74"/>
<text text-anchor="middle" x="495.2" y="-394.89" font-family="Times,serif" font-size="14.00">Fall_rye_1(11)</text>
<text text-anchor="middle" x="495.2" y="-379.89" font-family="Times,serif" font-size="14.00">[0.2311]</text>
</g>
<!-- Fall_rye_1(11)
[0.2311]&#45;&gt;Channel(5)
[0.03] -->
<g id="edge11" class="edge">
<title>Fall_rye_1(11)
[0.2311]&#45;&gt;Channel(5)
[0.03]</title>
<path fill="none" stroke="black" d="M513.64,-365.14C521.09,-354.21 529.31,-340.99 535.2,-328.22 563.11,-267.78 529.57,-230.2 578.2,-184.74 608.05,-156.85 716.68,-138.85 787.3,-129.82"/>
<polygon fill="black" stroke="black" points="787.94,-133.26 797.43,-128.55 787.07,-126.32 787.94,-133.26"/>
</g>
<!-- Forage_1(12)
[0.02447] -->
<g id="node13" class="node">
<title>Forage_1(12)
[0.02447]</title>
<ellipse fill="none" stroke="black" cx="538.2" cy="-480.83" rx="63.78" ry="26.74"/>
<text text-anchor="middle" x="538.2" y="-484.63" font-family="Times,serif" font-size="14.00">Forage_1(12)</text>
<text text-anchor="middle" x="538.2" y="-469.63" font-family="Times,serif" font-size="14.00">[0.02447]</text>
</g>
<!-- Forage_1(12)
[0.02447]&#45;&gt;Channel(5)
[0.03] -->
<g id="edge12" class="edge">
<title>Forage_1(12)
[0.02447]&#45;&gt;Channel(5)
[0.03]</title>
<path fill="none" stroke="black" d="M554.85,-454.86C561.45,-443.94 568.57,-430.72 573.2,-417.96 609.2,-318.9 544.57,-262.05 616.2,-184.74 639.37,-159.74 727.14,-141.58 788.33,-131.63"/>
<polygon fill="black" stroke="black" points="788.96,-135.07 798.29,-130.05 787.86,-128.16 788.96,-135.07"/>
</g>
<!-- Forage_2(13)
[0.03331] -->
<g id="node14" class="node">
<title>Forage_2(13)
[0.03331]</title>
<ellipse fill="none" stroke="black" cx="576.2" cy="-570.57" rx="63.78" ry="26.74"/>
<text text-anchor="middle" x="576.2" y="-574.37" font-family="Times,serif" font-size="14.00">Forage_2(13)</text>
<text text-anchor="middle" x="576.2" y="-559.37" font-family="Times,serif" font-size="14.00">[0.03331]</text>
</g>
<!-- Forage_2(13)
[0.03331]&#45;&gt;Channel(5)
[0.03] -->
<g id="edge13" class="edge">
<title>Forage_2(13)
[0.03331]&#45;&gt;Channel(5)
[0.03]</title>
<path fill="none" stroke="black" d="M592.97,-544.65C599.6,-533.73 606.69,-520.5 611.2,-507.7 628.51,-458.59 630.2,-444.16 630.2,-392.09 630.2,-392.09 630.2,-392.09 630.2,-300.35 630.2,-247.87 619.02,-223.67 654.2,-184.74 687.54,-147.85 742.65,-132.79 785.95,-126.72"/>
<polygon fill="black" stroke="black" points="786.64,-130.16 796.12,-125.43 785.76,-123.22 786.64,-130.16"/>
</g>
<!-- Forage_3(14)
[0.02839] -->
<g id="node15" class="node">
<title>Forage_3(14)
[0.02839]</title>
<ellipse fill="none" stroke="black" cx="614.2" cy="-660.31" rx="63.78" ry="26.74"/>
<text text-anchor="middle" x="614.2" y="-664.11" font-family="Times,serif" font-size="14.00">Forage_3(14)</text>
<text text-anchor="middle" x="614.2" y="-649.11" font-family="Times,serif" font-size="14.00">[0.02839]</text>
</g>
<!-- Forage_3(14)
[0.02839]&#45;&gt;Channel(5)
[0.03] -->
<g id="edge14" class="edge">
<title>Forage_3(14)
[0.02839]&#45;&gt;Channel(5)
[0.03]</title>
<path fill="none" stroke="black" d="M630.97,-634.39C637.6,-623.47 644.69,-610.24 649.2,-597.44 666.51,-548.33 668.2,-533.9 668.2,-481.83 668.2,-481.83 668.2,-481.83 668.2,-300.35 668.2,-247.87 658.35,-224.84 692.2,-184.74 716.23,-156.28 755.06,-140.84 788.21,-132.5"/>
<polygon fill="black" stroke="black" points="789.36,-135.83 798.29,-130.14 787.76,-129.02 789.36,-135.83"/>
</g>
<!-- Grazing_1(15)
[0.01607] -->
<g id="node16" class="node">
<title>Grazing_1(15)
[0.01607]</title>
<ellipse fill="none" stroke="black" cx="706.2" cy="-750.05" rx="67.76" ry="26.74"/>
<text text-anchor="middle" x="706.2" y="-753.85" font-family="Times,serif" font-size="14.00">Grazing_1(15)</text>
<text text-anchor="middle" x="706.2" y="-738.85" font-family="Times,serif" font-size="14.00">[0.01607]</text>
</g>
<!-- Grazing_1(15)
[0.01607]&#45;&gt;Channel(5)
[0.03] -->
<g id="edge15" class="edge">
<title>Grazing_1(15)
[0.01607]&#45;&gt;Channel(5)
[0.03]</title>
<path fill="none" stroke="black" d="M706.2,-722.89C706.2,-688.27 706.2,-625.34 706.2,-571.57 706.2,-571.57 706.2,-571.57 706.2,-300.35 706.2,-248.28 694.23,-226.6 725.2,-184.74 741.67,-162.49 768.36,-147.77 792.86,-138.3"/>
<polygon fill="black" stroke="black" points="794.27,-141.51 802.47,-134.8 791.87,-134.93 794.27,-141.51"/>
</g>
<!-- Grazing_2(16)
[0.0207] -->
<g id="node17" class="node">
<title>Grazing_2(16)
[0.0207]</title>
<ellipse fill="none" stroke="black" cx="802.2" cy="-211.61" rx="67.76" ry="26.74"/>
<text text-anchor="middle" x="802.2" y="-215.41" font-family="Times,serif" font-size="14.00">Grazing_2(16)</text>
<text text-anchor="middle" x="802.2" y="-200.41" font-family="Times,serif" font-size="14.00">[0.0207]</text>
</g>
<!-- Grazing_2(16)
[0.0207]&#45;&gt;Channel(5)
[0.03] -->
<g id="edge16" class="edge">
<title>Grazing_2(16)
[0.0207]&#45;&gt;Channel(5)
[0.03]</title>
<path fill="none" stroke="black" d="M816.09,-185.23C820.96,-176.33 826.5,-166.19 831.69,-156.71"/>
<polygon fill="black" stroke="black" points="834.79,-158.34 836.52,-147.89 828.65,-154.98 834.79,-158.34"/>
</g>
<!-- Impervious(17)
[0.008795] -->
<g id="node18" class="node">
<title>Impervious(17)
[0.008795]</title>
<ellipse fill="none" stroke="black" cx="837.2" cy="-301.35" rx="71.34" ry="26.74"/>
<text text-anchor="middle" x="837.2" y="-305.15" font-family="Times,serif" font-size="14.00">Impervious(17)</text>
<text text-anchor="middle" x="837.2" y="-290.15" font-family="Times,serif" font-size="14.00">[0.008795]</text>
</g>
<!-- Impervious(17)
[0.008795]&#45;&gt;Channel(5)
[0.03] -->
<g id="edge17" class="edge">
<title>Impervious(17)
[0.008795]&#45;&gt;Channel(5)
[0.03]</title>
<path fill="none" stroke="black" d="M858.96,-275.66C866.97,-264.99 875.09,-251.88 879.2,-238.48 886.22,-215.65 884.4,-208.05 879.2,-184.74 877.12,-175.39 873.47,-165.78 869.44,-157"/>
<polygon fill="black" stroke="black" points="872.51,-155.31 864.97,-147.86 866.22,-158.38 872.51,-155.31"/>
</g>
<!-- Oat_1(18)
[0.09201] -->
<g id="node19" class="node">
<title>Oat_1(18)
[0.09201]</title>
<ellipse fill="none" stroke="black" cx="895.2" cy="-391.09" rx="50.82" ry="26.74"/>
<text text-anchor="middle" x="895.2" y="-394.89" font-family="Times,serif" font-size="14.00">Oat_1(18)</text>
<text text-anchor="middle" x="895.2" y="-379.89" font-family="Times,serif" font-size="14.00">[0.09201]</text>
</g>
<!-- Oat_1(18)
[0.09201]&#45;&gt;Channel(5)
[0.03] -->
<g id="edge18" class="edge">
<title>Oat_1(18)
[0.09201]&#45;&gt;Channel(5)
[0.03]</title>
<path fill="none" stroke="black" d="M906.43,-364.73C910.71,-353.74 915.07,-340.58 917.2,-328.22 921.26,-304.68 919.94,-298.21 917.2,-274.48 912.51,-233.79 913.45,-221.89 896.2,-184.74 891.37,-174.33 884.62,-163.95 877.77,-154.75"/>
<polygon fill="black" stroke="black" points="880.39,-152.43 871.5,-146.67 874.86,-156.72 880.39,-152.43"/>
</g>
<!-- Pasture_1(19)
[0.1581] -->
<g id="node20" class="node">
<title>Pasture_1(19)
[0.1581]</title>
<ellipse fill="none" stroke="black" cx="919.2" cy="-480.83" rx="65.11" ry="26.74"/>
<text text-anchor="middle" x="919.2" y="-484.63" font-family="Times,serif" font-size="14.00">Pasture_1(19)</text>
<text text-anchor="middle" x="919.2" y="-469.63" font-family="Times,serif" font-size="14.00">[0.1581]</text>
</g>
<!-- Pasture_1(19)
[0.1581]&#45;&gt;Channel(5)
[0.03] -->
<g id="edge19" class="edge">
<title>Pasture_1(19)
[0.1581]&#45;&gt;Channel(5)
[0.03]</title>
<path fill="none" stroke="black" d="M937.69,-455C944.63,-444.2 951.68,-431.04 955.2,-417.96 961.43,-394.9 957.56,-387.99 955.2,-364.22 947.17,-283.26 959.55,-255.39 919.2,-184.74 911.75,-171.69 900.54,-159.92 889.32,-150.24"/>
<polygon fill="black" stroke="black" points="891.54,-147.53 881.59,-143.88 887.09,-152.94 891.54,-147.53"/>
</g>
<!-- Pasture_2(20)
[0.03697] -->
<g id="node21" class="node">
<title>Pasture_2(20)
[0.03697]</title>
<ellipse fill="none" stroke="black" cx="957.2" cy="-570.57" rx="65.11" ry="26.74"/>
<text text-anchor="middle" x="957.2" y="-574.37" font-family="Times,serif" font-size="14.00">Pasture_2(20)</text>
<text text-anchor="middle" x="957.2" y="-559.37" font-family="Times,serif" font-size="14.00">[0.03697]</text>
</g>
<!-- Pasture_2(20)
[0.03697]&#45;&gt;Channel(5)
[0.03] -->
<g id="edge20" class="edge">
<title>Pasture_2(20)
[0.03697]&#45;&gt;Channel(5)
[0.03]</title>
<path fill="none" stroke="black" d="M974.65,-544.41C981.42,-533.56 988.62,-520.45 993.2,-507.7 1010.81,-458.7 1012.2,-444.16 1012.2,-392.09 1012.2,-392.09 1012.2,-392.09 1012.2,-300.35 1012.2,-230.84 943.57,-176.62 895.65,-147.24"/>
<polygon fill="black" stroke="black" points="897.34,-144.18 886.96,-142.05 893.75,-150.18 897.34,-144.18"/>
</g>
<!-- Riparian_1(21)
[0.09279] -->
<g id="node22" class="node">
<title>Riparian_1(21)
[0.09279]</title>
<ellipse fill="none" stroke="black" cx="990.2" cy="-660.31" rx="70.01" ry="26.74"/>
<text text-anchor="middle" x="990.2" y="-664.11" font-family="Times,serif" font-size="14.00">Riparian_1(21)</text>
<text text-anchor="middle" x="990.2" y="-649.11" font-family="Times,serif" font-size="14.00">[0.09279]</text>
</g>
<!-- Riparian_1(21)
[0.09279]&#45;&gt;Channel(5)
[0.03] -->
<g id="edge21" class="edge">
<title>Riparian_1(21)
[0.09279]&#45;&gt;Channel(5)
[0.03]</title>
<path fill="none" stroke="black" d="M1010.16,-634.47C1017.88,-623.67 1026.07,-610.51 1031.2,-597.44 1050.23,-548.97 1050.2,-533.9 1050.2,-481.83 1050.2,-481.83 1050.2,-481.83 1050.2,-300.35 1050.2,-241.62 1029.33,-224.6 986.2,-184.74 979.28,-178.34 936.29,-159.23 900.47,-143.92"/>
<polygon fill="black" stroke="black" points="901.65,-140.62 891.08,-139.92 898.91,-147.06 901.65,-140.62"/>
</g>
<!-- Riparian_2(22)
[0.03984] -->
<g id="node23" class="node">
<title>Riparian_2(22)
[0.03984]</title>
<ellipse fill="none" stroke="black" cx="1088.2" cy="-750.05" rx="70.01" ry="26.74"/>
<text text-anchor="middle" x="1088.2" y="-753.85" font-family="Times,serif" font-size="14.00">Riparian_2(22)</text>
<text text-anchor="middle" x="1088.2" y="-738.85" font-family="Times,serif" font-size="14.00">[0.03984]</text>
</g>
<!-- Riparian_2(22)
[0.03984]&#45;&gt;Channel(5)
[0.03] -->
<g id="edge22" class="edge">
<title>Riparian_2(22)
[0.03984]&#45;&gt;Channel(5)
[0.03]</title>
<path fill="none" stroke="black" d="M1088.2,-722.89C1088.2,-688.27 1088.2,-625.34 1088.2,-571.57 1088.2,-571.57 1088.2,-571.57 1088.2,-300.35 1088.2,-241.83 1070.23,-222.11 1025.2,-184.74 985.3,-151.62 962.94,-166.47 914.2,-148.74 909.72,-147.11 905.09,-145.36 900.46,-143.57"/>
<polygon fill="black" stroke="black" points="901.6,-140.26 891.01,-139.86 899.04,-146.77 901.6,-140.26"/>
</g>
<!-- Riparian_3(23)
[0.0017] -->
<g id="node24" class="node">
<title>Riparian_3(23)
[0.0017]</title>
<ellipse fill="none" stroke="black" cx="1186.2" cy="-211.61" rx="70.01" ry="26.74"/>
<text text-anchor="middle" x="1186.2" y="-215.41" font-family="Times,serif" font-size="14.00">Riparian_3(23)</text>
<text text-anchor="middle" x="1186.2" y="-200.41" font-family="Times,serif" font-size="14.00">[0.0017]</text>
</g>
<!-- Riparian_3(23)
[0.0017]&#45;&gt;Channel(5)
[0.03] -->
<g id="edge23" class="edge">
<title>Riparian_3(23)
[0.0017]&#45;&gt;Channel(5)
[0.03]</title>
<path fill="none" stroke="black" d="M1134.03,-193.57C1123.55,-190.42 1112.57,-187.32 1102.2,-184.74 1019.65,-164.19 995.81,-172.8 914.2,-148.74 909.37,-147.32 904.4,-145.66 899.46,-143.89"/>
<polygon fill="black" stroke="black" points="900.66,-140.6 890.07,-140.37 898.2,-147.16 900.66,-140.6"/>
</g>
<!-- Riparian_4(24)
[0.4551] -->
<g id="node25" class="node">
<title>Riparian_4(24)
[0.4551]</title>
<ellipse fill="none" stroke="black" cx="1224.2" cy="-301.35" rx="70.01" ry="26.74"/>
<text text-anchor="middle" x="1224.2" y="-305.15" font-family="Times,serif" font-size="14.00">Riparian_4(24)</text>
<text text-anchor="middle" x="1224.2" y="-290.15" font-family="Times,serif" font-size="14.00">[0.4551]</text>
</g>
<!-- Riparian_4(24)
[0.4551]&#45;&gt;Channel(5)
[0.03] -->
<g id="edge24" class="edge">
<title>Riparian_4(24)
[0.4551]&#45;&gt;Channel(5)
[0.03]</title>
<path fill="none" stroke="black" d="M1246.08,-275.39C1265.76,-249.84 1288.32,-210.35 1265.2,-184.74 1212.67,-126.54 990.31,-167.62 914.2,-148.74 909.17,-147.49 904.01,-145.93 898.91,-144.19"/>
<polygon fill="black" stroke="black" points="899.82,-140.79 889.23,-140.66 897.43,-147.37 899.82,-140.79"/>
</g>
<!-- Riparian_5(25)
[0.09787] -->
<g id="node26" class="node">
<title>Riparian_5(25)
[0.09787]</title>
<ellipse fill="none" stroke="black" cx="1262.2" cy="-391.09" rx="70.01" ry="26.74"/>
<text text-anchor="middle" x="1262.2" y="-394.89" font-family="Times,serif" font-size="14.00">Riparian_5(25)</text>
<text text-anchor="middle" x="1262.2" y="-379.89" font-family="Times,serif" font-size="14.00">[0.09787]</text>
</g>
<!-- Riparian_5(25)
[0.09787]&#45;&gt;Channel(5)
[0.03] -->
<g id="edge25" class="edge">
<title>Riparian_5(25)
[0.09787]&#45;&gt;Channel(5)
[0.03]</title>
<path fill="none" stroke="black" d="M1283.44,-365.32C1291.27,-354.64 1299.19,-341.55 1303.2,-328.22 1321.78,-266.57 1331.42,-227.41 1283.2,-184.74 1221.5,-130.14 994.22,-168.38 914.2,-148.74 909.17,-147.5 904.01,-145.95 898.91,-144.21"/>
<polygon fill="black" stroke="black" points="899.81,-140.82 889.22,-140.7 897.43,-147.4 899.81,-140.82"/>
</g>
<!-- Riparian_6(26)
[0.02723] -->
<g id="node27" class="node">
<title>Riparian_6(26)
[0.02723]</title>
<ellipse fill="none" stroke="black" cx="1300.2" cy="-480.83" rx="70.01" ry="26.74"/>
<text text-anchor="middle" x="1300.2" y="-484.63" font-family="Times,serif" font-size="14.00">Riparian_6(26)</text>
<text text-anchor="middle" x="1300.2" y="-469.63" font-family="Times,serif" font-size="14.00">[0.02723]</text>
</g>
<!-- Riparian_6(26)
[0.02723]&#45;&gt;Channel(5)
[0.03] -->
<g id="edge26" class="edge">
<title>Riparian_6(26)
[0.02723]&#45;&gt;Channel(5)
[0.03]</title>
<path fill="none" stroke="black" d="M1321.44,-455.06C1329.27,-444.38 1337.19,-431.29 1341.2,-417.96 1361.4,-350.91 1340.47,-210.29 1313.2,-184.74 1248.25,-123.86 1000.74,-169.65 914.2,-148.74 909.16,-147.52 904,-145.98 898.9,-144.25"/>
<polygon fill="black" stroke="black" points="899.8,-140.86 889.21,-140.74 897.42,-147.44 899.8,-140.86"/>
</g>
<!-- Wheat_1(27)
[0.1062] -->
<g id="node28" class="node">
<title>Wheat_1(27)
[0.1062]</title>
<ellipse fill="none" stroke="black" cx="1345.2" cy="-570.57" rx="62.87" ry="26.74"/>
<text text-anchor="middle" x="1345.2" y="-574.37" font-family="Times,serif" font-size="14.00">Wheat_1(27)</text>
<text text-anchor="middle" x="1345.2" y="-559.37" font-family="Times,serif" font-size="14.00">[0.1062]</text>
</g>
<!-- Wheat_1(27)
[0.1062]&#45;&gt;Channel(5)
[0.03] -->
<g id="edge27" class="edge">
<title>Wheat_1(27)
[0.1062]&#45;&gt;Channel(5)
[0.03]</title>
<path fill="none" stroke="black" d="M1361.47,-544.59C1367.9,-533.66 1374.8,-520.44 1379.2,-507.7 1396.21,-458.48 1398.2,-444.16 1398.2,-392.09 1398.2,-392.09 1398.2,-392.09 1398.2,-300.35 1398.2,-242.46 1386.36,-216.87 1338.2,-184.74 1259.55,-132.26 1006.18,-170.7 914.2,-148.74 909.16,-147.54 903.99,-146 898.89,-144.28"/>
<polygon fill="black" stroke="black" points="899.79,-140.88 889.2,-140.78 897.42,-147.47 899.79,-140.88"/>
</g>
<!-- Wheat_2(28)
[0.1137] -->
<g id="node29" class="node">
<title>Wheat_2(28)
[0.1137]</title>
<ellipse fill="none" stroke="black" cx="1383.2" cy="-660.31" rx="62.87" ry="26.74"/>
<text text-anchor="middle" x="1383.2" y="-664.11" font-family="Times,serif" font-size="14.00">Wheat_2(28)</text>
<text text-anchor="middle" x="1383.2" y="-649.11" font-family="Times,serif" font-size="14.00">[0.1137]</text>
</g>
<!-- Wheat_2(28)
[0.1137]&#45;&gt;Channel(5)
[0.03] -->
<g id="edge28" class="edge">
<title>Wheat_2(28)
[0.1137]&#45;&gt;Channel(5)
[0.03]</title>
<path fill="none" stroke="black" d="M1399.47,-634.33C1405.9,-623.4 1412.8,-610.18 1417.2,-597.44 1434.21,-548.22 1436.2,-533.9 1436.2,-481.83 1436.2,-481.83 1436.2,-481.83 1436.2,-300.35 1436.2,-242.66 1425.19,-216.75 1377.2,-184.74 1291.35,-127.47 1014.67,-172.35 914.2,-148.74 909.16,-147.55 903.99,-146.03 898.88,-144.32"/>
<polygon fill="black" stroke="black" points="899.78,-140.92 889.19,-140.82 897.41,-147.51 899.78,-140.92"/>
</g>
<!-- Wheat_3(29)
[0.2531] -->
<g id="node30" class="node">
<title>Wheat_3(29)
[0.2531]</title>
<ellipse fill="none" stroke="black" cx="1474.2" cy="-750.05" rx="62.87" ry="26.74"/>
<text text-anchor="middle" x="1474.2" y="-753.85" font-family="Times,serif" font-size="14.00">Wheat_3(29)</text>
<text text-anchor="middle" x="1474.2" y="-738.85" font-family="Times,serif" font-size="14.00">[0.2531]</text>
</g>
<!-- Wheat_3(29)
[0.2531]&#45;&gt;Channel(5)
[0.03] -->
<g id="edge29" class="edge">
<title>Wheat_3(29)
[0.2531]&#45;&gt;Channel(5)
[0.03]</title>
<path fill="none" stroke="black" d="M1474.2,-722.89C1474.2,-688.27 1474.2,-625.34 1474.2,-571.57 1474.2,-571.57 1474.2,-571.57 1474.2,-300.35 1474.2,-242.66 1463.29,-216.61 1415.2,-184.74 1322.17,-123.07 1022.94,-173.96 914.2,-148.74 909.15,-147.57 903.98,-146.05 898.87,-144.35"/>
<polygon fill="black" stroke="black" points="899.77,-140.95 889.18,-140.86 897.41,-147.54 899.77,-140.95"/>
</g>
<!-- Wheat_4(30)
[0.07552] -->
<g id="node31" class="node">
<title>Wheat_4(30)
[0.07552]</title>
<ellipse fill="none" stroke="black" cx="1565.2" cy="-211.61" rx="62.87" ry="26.74"/>
<text text-anchor="middle" x="1565.2" y="-215.41" font-family="Times,serif" font-size="14.00">Wheat_4(30)</text>
<text text-anchor="middle" x="1565.2" y="-200.41" font-family="Times,serif" font-size="14.00">[0.07552]</text>
</g>
<!-- Wheat_4(30)
[0.07552]&#45;&gt;Channel(5)
[0.03] -->
<g id="edge30" class="edge">
<title>Wheat_4(30)
[0.07552]&#45;&gt;Channel(5)
[0.03]</title>
<path fill="none" stroke="black" d="M1519.32,-193.02C1509.2,-189.75 1498.45,-186.75 1488.2,-184.74 1237.36,-135.62 1163.47,-205.37 914.2,-148.74 909.15,-147.59 903.97,-146.09 898.86,-144.39"/>
<polygon fill="black" stroke="black" points="899.76,-141 889.17,-140.92 897.4,-147.59 899.76,-141"/>
</g>
<!-- Winter_Wheat_1(31)
[0.27] -->
<g id="node32" class="node">
<title>Winter_Wheat_1(31)
[0.27]</title>
<ellipse fill="none" stroke="black" cx="1656.2" cy="-301.35" rx="94.09" ry="26.74"/>
<text text-anchor="middle" x="1656.2" y="-305.15" font-family="Times,serif" font-size="14.00">Winter_Wheat_1(31)</text>
<text text-anchor="middle" x="1656.2" y="-290.15" font-family="Times,serif" font-size="14.00">[0.27]</text>
</g>
<!-- Winter_Wheat_1(31)
[0.27]&#45;&gt;Channel(5)
[0.03] -->
<g id="edge31" class="edge">
<title>Winter_Wheat_1(31)
[0.27]&#45;&gt;Channel(5)
[0.03]</title>
<path fill="none" stroke="black" d="M1660.3,-274.41C1662.88,-247.65 1661.94,-206.82 1637.2,-184.74 1577.21,-131.17 992.75,-166.05 914.2,-148.74 908.94,-147.58 903.55,-146.03 898.23,-144.26"/>
<polygon fill="black" stroke="black" points="899.4,-140.96 888.81,-140.87 897.04,-147.55 899.4,-140.96"/>
</g>
<!-- Reservoir(32)
[0.03] -->
<g id="node33" class="node">
<title>Reservoir(32)
[0.03]</title>
<ellipse fill="none" stroke="black" cx="988.2" cy="-121.87" rx="65.11" ry="26.74"/>
<text text-anchor="middle" x="988.2" y="-125.67" font-family="Times,serif" font-size="14.00">Reservoir(32)</text>
<text text-anchor="middle" x="988.2" y="-110.67" font-family="Times,serif" font-size="14.00">[0.03]</text>
</g>
<!-- Reservoir(32)
[0.03]&#45;&gt;basin -->
<g id="edge32" class="edge">
<title>Reservoir(32)
[0.03]&#45;&gt;basin</title>
<path fill="none" stroke="black" d="M966.75,-96.35C957.97,-86.31 947.87,-74.77 939.25,-64.91"/>
<polygon fill="black" stroke="black" points="941.63,-62.31 932.41,-57.09 936.36,-66.92 941.63,-62.31"/>
</g>
</g>
</svg>
