<?xml version="1.0" encoding="UTF-8" standalone="no"?>
<!DOCTYPE svg PUBLIC "-//W3C//DTD SVG 1.1//EN"
 "http://www.w3.org/Graphics/SVG/1.1/DTD/svg11.dtd">
<!-- Generated by graphviz version 2.43.0 (0)
 -->
<!-- Title: TEST Pages: 1 -->
<svg width="2152pt" height="964pt"
 viewBox="0.00 0.00 2151.88 964.40" xmlns="http://www.w3.org/2000/svg" xmlns:xlink="http://www.w3.org/1999/xlink">
<g id="graph0" class="graph" transform="scale(1 1) rotate(0) translate(4 960.4)">
<title>TEST</title>
<polygon fill="white" stroke="transparent" points="-4,4 -4,-960.4 2147.88,-960.4 2147.88,4 -4,4"/>
<text text-anchor="middle" x="1071.94" y="-7.8" font-family="Times,serif" font-size="14.00">H_Mcwean_project_GrpH</text>
<!-- Canola 1(1)
&lt;1&gt;[1.853] -->
<g id="node1" class="node">
<title>Canola 1(1)
&lt;1&gt;[1.853]</title>
<ellipse fill="none" stroke="black" cx="1485.76" cy="-391.09" rx="57.05" ry="26.74"/>
<text text-anchor="middle" x="1485.76" y="-394.89" font-family="Times,serif" font-size="14.00">Canola 1(1)</text>
<text text-anchor="middle" x="1485.76" y="-379.89" font-family="Times,serif" font-size="14.00">&lt;1&gt;[1.853]</text>
</g>
<!-- Riparian forest 1(30)
&lt;28&gt;[0.5069] -->
<g id="node2" class="node">
<title>Riparian forest 1(30)
&lt;28&gt;[0.5069]</title>
<ellipse fill="none" stroke="black" cx="1684.76" cy="-301.35" rx="92.76" ry="26.74"/>
<text text-anchor="middle" x="1684.76" y="-305.15" font-family="Times,serif" font-size="14.00">Riparian forest 1(30)</text>
<text text-anchor="middle" x="1684.76" y="-290.15" font-family="Times,serif" font-size="14.00">&lt;28&gt;[0.5069]</text>
</g>
<!-- Canola 1(1)
&lt;1&gt;[1.853]&#45;&gt;Riparian forest 1(30)
&lt;28&gt;[0.5069] -->
<g id="edge1" class="edge">
<title>Canola 1(1)
&lt;1&gt;[1.853]&#45;&gt;Riparian forest 1(30)
&lt;28&gt;[0.5069]</title>
<path fill="none" stroke="black" d="M1526.51,-372.12C1555.18,-359.48 1593.99,-342.37 1625.99,-328.26"/>
<polygon fill="black" stroke="black" points="1627.52,-331.41 1635.26,-324.18 1624.7,-325.01 1627.52,-331.41"/>
</g>
<!-- Channel(7)
&lt;38&gt;[0.03] -->
<g id="node3" class="node">
<title>Channel(7)
&lt;38&gt;[0.03]</title>
<ellipse fill="none" stroke="black" cx="1107.76" cy="-211.61" rx="56.64" ry="26.74"/>
<text text-anchor="middle" x="1107.76" y="-215.41" font-family="Times,serif" font-size="14.00">Channel(7)</text>
<text text-anchor="middle" x="1107.76" y="-200.41" font-family="Times,serif" font-size="14.00">&lt;38&gt;[0.03]</text>
</g>
<!-- Riparian forest 1(30)
&lt;28&gt;[0.5069]&#45;&gt;Channel(7)
&lt;38&gt;[0.03] -->
<g id="edge2" class="edge">
<title>Riparian forest 1(30)
&lt;28&gt;[0.5069]&#45;&gt;Channel(7)
&lt;38&gt;[0.03]</title>
<path fill="none" stroke="black" d="M1603.92,-288.06C1488.06,-270.44 1277.15,-238.37 1171.56,-222.31"/>
<polygon fill="black" stroke="black" points="1171.78,-218.8 1161.37,-220.76 1170.73,-225.73 1171.78,-218.8"/>
</g>
<!-- Reservoir(5)
&lt;39&gt;[0.04] -->
<g id="node4" class="node">
<title>Reservoir(5)
&lt;39&gt;[0.04]</title>
<ellipse fill="none" stroke="black" cx="1107.76" cy="-121.87" rx="60.21" ry="26.74"/>
<text text-anchor="middle" x="1107.76" y="-125.67" font-family="Times,serif" font-size="14.00">Reservoir(5)</text>
<text text-anchor="middle" x="1107.76" y="-110.67" font-family="Times,serif" font-size="14.00">&lt;39&gt;[0.04]</text>
</g>
<!-- Channel(7)
&lt;38&gt;[0.03]&#45;&gt;Reservoir(5)
&lt;39&gt;[0.04] -->
<g id="edge3" class="edge">
<title>Channel(7)
&lt;38&gt;[0.03]&#45;&gt;Reservoir(5)
&lt;39&gt;[0.04]</title>
<path fill="none" stroke="black" d="M1107.76,-184.29C1107.76,-176.32 1107.76,-167.43 1107.76,-158.94"/>
<polygon fill="black" stroke="black" points="1111.26,-158.87 1107.76,-148.87 1104.26,-158.87 1111.26,-158.87"/>
</g>
<!-- basin -->
<g id="node5" class="node">
<title>basin</title>
<ellipse fill="none" stroke="black" cx="1107.76" cy="-41" rx="29.5" ry="18"/>
<text text-anchor="middle" x="1107.76" y="-37.3" font-family="Times,serif" font-size="14.00">basin</text>
</g>
<!-- Reservoir(5)
&lt;39&gt;[0.04]&#45;&gt;basin -->
<g id="edge4" class="edge">
<title>Reservoir(5)
&lt;39&gt;[0.04]&#45;&gt;basin</title>
<path fill="none" stroke="black" d="M1107.76,-94.61C1107.76,-86.51 1107.76,-77.57 1107.76,-69.39"/>
<polygon fill="black" stroke="black" points="1111.26,-69.22 1107.76,-59.22 1104.26,-69.22 1111.26,-69.22"/>
</g>
<!-- Canola 2(2)
&lt;2&gt;[0.09513] -->
<g id="node6" class="node">
<title>Canola 2(2)
&lt;2&gt;[0.09513]</title>
<ellipse fill="none" stroke="black" cx="65.76" cy="-391.09" rx="65.52" ry="26.74"/>
<text text-anchor="middle" x="65.76" y="-394.89" font-family="Times,serif" font-size="14.00">Canola 2(2)</text>
<text text-anchor="middle" x="65.76" y="-379.89" font-family="Times,serif" font-size="14.00">&lt;2&gt;[0.09513]</text>
</g>
<!-- Riparian forest 2(31)
&lt;34&gt;[0.1322] -->
<g id="node7" class="node">
<title>Riparian forest 2(31)
&lt;34&gt;[0.1322]</title>
<ellipse fill="none" stroke="black" cx="355.76" cy="-301.35" rx="92.76" ry="26.74"/>
<text text-anchor="middle" x="355.76" y="-305.15" font-family="Times,serif" font-size="14.00">Riparian forest 2(31)</text>
<text text-anchor="middle" x="355.76" y="-290.15" font-family="Times,serif" font-size="14.00">&lt;34&gt;[0.1322]</text>
</g>
<!-- Canola 2(2)
&lt;2&gt;[0.09513]&#45;&gt;Riparian forest 2(31)
&lt;34&gt;[0.1322] -->
<g id="edge5" class="edge">
<title>Canola 2(2)
&lt;2&gt;[0.09513]&#45;&gt;Riparian forest 2(31)
&lt;34&gt;[0.1322]</title>
<path fill="none" stroke="black" d="M116.05,-373.6C125.89,-370.44 136.14,-367.19 145.76,-364.22 190.72,-350.33 241.3,-335.41 281.55,-323.7"/>
<polygon fill="black" stroke="black" points="282.67,-327.02 291.29,-320.87 280.71,-320.3 282.67,-327.02"/>
</g>
<!-- Riparian forest 2(31)
&lt;34&gt;[0.1322]&#45;&gt;Channel(7)
&lt;38&gt;[0.03] -->
<g id="edge6" class="edge">
<title>Riparian forest 2(31)
&lt;34&gt;[0.1322]&#45;&gt;Channel(7)
&lt;38&gt;[0.03]</title>
<path fill="none" stroke="black" d="M440.56,-290.46C592.18,-272.77 906.56,-236.09 1042.64,-220.21"/>
<polygon fill="black" stroke="black" points="1043.38,-223.65 1052.9,-219.01 1042.57,-216.69 1043.38,-223.65"/>
</g>
<!-- Alfalfa 1(3)
&lt;3&gt;[0.06223] -->
<g id="node8" class="node">
<title>Alfalfa 1(3)
&lt;3&gt;[0.06223]</title>
<ellipse fill="none" stroke="black" cx="772.76" cy="-391.09" rx="65.52" ry="26.74"/>
<text text-anchor="middle" x="772.76" y="-394.89" font-family="Times,serif" font-size="14.00">Alfalfa 1(3)</text>
<text text-anchor="middle" x="772.76" y="-379.89" font-family="Times,serif" font-size="14.00">&lt;3&gt;[0.06223]</text>
</g>
<!-- Riparian forest 3(32)
&lt;35&gt;[0.3887] -->
<g id="node9" class="node">
<title>Riparian forest 3(32)
&lt;35&gt;[0.3887]</title>
<ellipse fill="none" stroke="black" cx="956.76" cy="-301.35" rx="92.76" ry="26.74"/>
<text text-anchor="middle" x="956.76" y="-305.15" font-family="Times,serif" font-size="14.00">Riparian forest 3(32)</text>
<text text-anchor="middle" x="956.76" y="-290.15" font-family="Times,serif" font-size="14.00">&lt;35&gt;[0.3887]</text>
</g>
<!-- Alfalfa 1(3)
&lt;3&gt;[0.06223]&#45;&gt;Riparian forest 3(32)
&lt;35&gt;[0.3887] -->
<g id="edge7" class="edge">
<title>Alfalfa 1(3)
&lt;3&gt;[0.06223]&#45;&gt;Riparian forest 3(32)
&lt;35&gt;[0.3887]</title>
<path fill="none" stroke="black" d="M814.51,-370.18C840.04,-358.01 873.02,-342.28 900.79,-329.04"/>
<polygon fill="black" stroke="black" points="902.48,-332.11 910,-324.65 899.46,-325.8 902.48,-332.11"/>
</g>
<!-- Riparian forest 3(32)
&lt;35&gt;[0.3887]&#45;&gt;Channel(7)
&lt;38&gt;[0.03] -->
<g id="edge8" class="edge">
<title>Riparian forest 3(32)
&lt;35&gt;[0.3887]&#45;&gt;Channel(7)
&lt;38&gt;[0.03]</title>
<path fill="none" stroke="black" d="M996.83,-277.07C1017.55,-265.03 1042.87,-250.32 1064.09,-237.99"/>
<polygon fill="black" stroke="black" points="1066.02,-240.92 1072.9,-232.86 1062.5,-234.86 1066.02,-240.92"/>
</g>
<!-- Barley 1(4)
&lt;4&gt;[0.1848] -->
<g id="node10" class="node">
<title>Barley 1(4)
&lt;4&gt;[0.1848]</title>
<ellipse fill="none" stroke="black" cx="1519.76" cy="-480.83" rx="60.62" ry="26.74"/>
<text text-anchor="middle" x="1519.76" y="-484.63" font-family="Times,serif" font-size="14.00">Barley 1(4)</text>
<text text-anchor="middle" x="1519.76" y="-469.63" font-family="Times,serif" font-size="14.00">&lt;4&gt;[0.1848]</text>
</g>
<!-- Barley 1(4)
&lt;4&gt;[0.1848]&#45;&gt;Riparian forest 1(30)
&lt;28&gt;[0.5069] -->
<g id="edge9" class="edge">
<title>Barley 1(4)
&lt;4&gt;[0.1848]&#45;&gt;Riparian forest 1(30)
&lt;28&gt;[0.5069]</title>
<path fill="none" stroke="black" d="M1532.47,-454.35C1545.72,-429.47 1568.22,-391.48 1594.76,-364.22 1606.59,-352.07 1621.14,-340.86 1635.06,-331.41"/>
<polygon fill="black" stroke="black" points="1637.2,-334.19 1643.62,-325.76 1633.35,-328.35 1637.2,-334.19"/>
</g>
<!-- Barley 2(6)
&lt;5&gt;[0.07193] -->
<g id="node11" class="node">
<title>Barley 2(6)
&lt;5&gt;[0.07193]</title>
<ellipse fill="none" stroke="black" cx="1126.76" cy="-391.09" rx="65.52" ry="26.74"/>
<text text-anchor="middle" x="1126.76" y="-394.89" font-family="Times,serif" font-size="14.00">Barley 2(6)</text>
<text text-anchor="middle" x="1126.76" y="-379.89" font-family="Times,serif" font-size="14.00">&lt;5&gt;[0.07193]</text>
</g>
<!-- Riparian forest 4(33)
&lt;36&gt;[0.09664] -->
<g id="node12" class="node">
<title>Riparian forest 4(33)
&lt;36&gt;[0.09664]</title>
<ellipse fill="none" stroke="black" cx="1258.76" cy="-301.35" rx="92.76" ry="26.74"/>
<text text-anchor="middle" x="1258.76" y="-305.15" font-family="Times,serif" font-size="14.00">Riparian forest 4(33)</text>
<text text-anchor="middle" x="1258.76" y="-290.15" font-family="Times,serif" font-size="14.00">&lt;36&gt;[0.09664]</text>
</g>
<!-- Barley 2(6)
&lt;5&gt;[0.07193]&#45;&gt;Riparian forest 4(33)
&lt;36&gt;[0.09664] -->
<g id="edge10" class="edge">
<title>Barley 2(6)
&lt;5&gt;[0.07193]&#45;&gt;Riparian forest 4(33)
&lt;36&gt;[0.09664]</title>
<path fill="none" stroke="black" d="M1160.41,-367.72C1176.82,-356.81 1196.78,-343.55 1214.41,-331.83"/>
<polygon fill="black" stroke="black" points="1216.47,-334.66 1222.86,-326.21 1212.59,-328.84 1216.47,-334.66"/>
</g>
<!-- Riparian forest 4(33)
&lt;36&gt;[0.09664]&#45;&gt;Channel(7)
&lt;38&gt;[0.03] -->
<g id="edge11" class="edge">
<title>Riparian forest 4(33)
&lt;36&gt;[0.09664]&#45;&gt;Channel(7)
&lt;38&gt;[0.03]</title>
<path fill="none" stroke="black" d="M1218.69,-277.07C1197.97,-265.03 1172.65,-250.32 1151.44,-237.99"/>
<polygon fill="black" stroke="black" points="1153.02,-234.86 1142.62,-232.86 1149.51,-240.92 1153.02,-234.86"/>
</g>
<!-- Barley 3(8)
&lt;6&gt;[0.3145] -->
<g id="node13" class="node">
<title>Barley 3(8)
&lt;6&gt;[0.3145]</title>
<ellipse fill="none" stroke="black" cx="133.76" cy="-480.83" rx="60.62" ry="26.74"/>
<text text-anchor="middle" x="133.76" y="-484.63" font-family="Times,serif" font-size="14.00">Barley 3(8)</text>
<text text-anchor="middle" x="133.76" y="-469.63" font-family="Times,serif" font-size="14.00">&lt;6&gt;[0.3145]</text>
</g>
<!-- Barley 3(8)
&lt;6&gt;[0.3145]&#45;&gt;Riparian forest 2(31)
&lt;34&gt;[0.1322] -->
<g id="edge12" class="edge">
<title>Barley 3(8)
&lt;6&gt;[0.3145]&#45;&gt;Riparian forest 2(31)
&lt;34&gt;[0.1322]</title>
<path fill="none" stroke="black" d="M144.88,-454.1C157.17,-428.29 179.22,-388.94 208.76,-364.22 229.66,-346.73 256.22,-333.54 281,-323.94"/>
<polygon fill="black" stroke="black" points="282.25,-327.2 290.39,-320.43 279.8,-320.65 282.25,-327.2"/>
</g>
<!-- Buckwheat 1(9)
&lt;7&gt;[0.1522] -->
<g id="node14" class="node">
<title>Buckwheat 1(9)
&lt;7&gt;[0.1522]</title>
<ellipse fill="none" stroke="black" cx="1544.76" cy="-570.57" rx="73.58" ry="26.74"/>
<text text-anchor="middle" x="1544.76" y="-574.37" font-family="Times,serif" font-size="14.00">Buckwheat 1(9)</text>
<text text-anchor="middle" x="1544.76" y="-559.37" font-family="Times,serif" font-size="14.00">&lt;7&gt;[0.1522]</text>
</g>
<!-- Buckwheat 1(9)
&lt;7&gt;[0.1522]&#45;&gt;Riparian forest 1(30)
&lt;28&gt;[0.5069] -->
<g id="edge13" class="edge">
<title>Buckwheat 1(9)
&lt;7&gt;[0.1522]&#45;&gt;Riparian forest 1(30)
&lt;28&gt;[0.5069]</title>
<path fill="none" stroke="black" d="M1565.88,-544.63C1574.22,-533.82 1583.33,-520.67 1589.76,-507.7 1619.32,-448.05 1601.13,-422.8 1632.76,-364.22 1638.22,-354.11 1645.51,-344.13 1652.9,-335.24"/>
<polygon fill="black" stroke="black" points="1655.78,-337.26 1659.67,-327.4 1650.48,-332.68 1655.78,-337.26"/>
</g>
<!-- Buckwheat 2(10)
&lt;8&gt;[0.04747] -->
<g id="node15" class="node">
<title>Buckwheat 2(10)
&lt;8&gt;[0.04747]</title>
<ellipse fill="none" stroke="black" cx="1578.76" cy="-660.31" rx="77.56" ry="26.74"/>
<text text-anchor="middle" x="1578.76" y="-664.11" font-family="Times,serif" font-size="14.00">Buckwheat 2(10)</text>
<text text-anchor="middle" x="1578.76" y="-649.11" font-family="Times,serif" font-size="14.00">&lt;8&gt;[0.04747]</text>
</g>
<!-- Buckwheat 2(10)
&lt;8&gt;[0.04747]&#45;&gt;Riparian forest 1(30)
&lt;28&gt;[0.5069] -->
<g id="edge14" class="edge">
<title>Buckwheat 2(10)
&lt;8&gt;[0.04747]&#45;&gt;Riparian forest 1(30)
&lt;28&gt;[0.5069]</title>
<path fill="none" stroke="black" d="M1602.82,-634.7C1611.97,-624.03 1621.64,-610.92 1627.76,-597.44 1671.32,-501.46 1649.57,-467.47 1670.76,-364.22 1672.49,-355.78 1674.47,-346.73 1676.39,-338.22"/>
<polygon fill="black" stroke="black" points="1679.86,-338.72 1678.67,-328.19 1673.04,-337.16 1679.86,-338.72"/>
</g>
<!-- Buckwheat 3(11)
&lt;9&gt;[0.02179] -->
<g id="node16" class="node">
<title>Buckwheat 3(11)
&lt;9&gt;[0.02179]</title>
<ellipse fill="none" stroke="black" cx="154.76" cy="-570.57" rx="77.56" ry="26.74"/>
<text text-anchor="middle" x="154.76" y="-574.37" font-family="Times,serif" font-size="14.00">Buckwheat 3(11)</text>
<text text-anchor="middle" x="154.76" y="-559.37" font-family="Times,serif" font-size="14.00">&lt;9&gt;[0.02179]</text>
</g>
<!-- Buckwheat 3(11)
&lt;9&gt;[0.02179]&#45;&gt;Riparian forest 2(31)
&lt;34&gt;[0.1322] -->
<g id="edge15" class="edge">
<title>Buckwheat 3(11)
&lt;9&gt;[0.02179]&#45;&gt;Riparian forest 2(31)
&lt;34&gt;[0.1322]</title>
<path fill="none" stroke="black" d="M177.85,-544.9C186.95,-534.13 196.86,-520.94 203.76,-507.7 234.53,-448.67 205.27,-416.28 246.76,-364.22 258.66,-349.29 275.21,-337.32 291.82,-328.05"/>
<polygon fill="black" stroke="black" points="293.83,-330.94 301.03,-323.17 290.55,-324.76 293.83,-330.94"/>
</g>
<!-- Flax/Linola 1(12)
&lt;10&gt;[0.5815] -->
<g id="node17" class="node">
<title>Flax/Linola 1(12)
&lt;10&gt;[0.5815]</title>
<ellipse fill="none" stroke="black" cx="1614.76" cy="-750.05" rx="79.81" ry="26.74"/>
<text text-anchor="middle" x="1614.76" y="-753.85" font-family="Times,serif" font-size="14.00">Flax/Linola 1(12)</text>
<text text-anchor="middle" x="1614.76" y="-738.85" font-family="Times,serif" font-size="14.00">&lt;10&gt;[0.5815]</text>
</g>
<!-- Flax/Linola 1(12)
&lt;10&gt;[0.5815]&#45;&gt;Riparian forest 1(30)
&lt;28&gt;[0.5069] -->
<g id="edge16" class="edge">
<title>Flax/Linola 1(12)
&lt;10&gt;[0.5815]&#45;&gt;Riparian forest 1(30)
&lt;28&gt;[0.5069]</title>
<path fill="none" stroke="black" d="M1640.22,-724.35C1649.68,-713.78 1659.6,-700.74 1665.76,-687.18 1687.29,-639.77 1684.76,-623.64 1684.76,-571.57 1684.76,-571.57 1684.76,-571.57 1684.76,-479.83 1684.76,-431.1 1684.76,-374.85 1684.76,-338.97"/>
<polygon fill="black" stroke="black" points="1688.26,-338.51 1684.76,-328.51 1681.26,-338.51 1688.26,-338.51"/>
</g>
<!-- Forage 1(13)
&lt;11&gt;[0.06318] -->
<g id="node18" class="node">
<title>Forage 1(13)
&lt;11&gt;[0.06318]</title>
<ellipse fill="none" stroke="black" cx="199.76" cy="-660.31" rx="70.92" ry="26.74"/>
<text text-anchor="middle" x="199.76" y="-664.11" font-family="Times,serif" font-size="14.00">Forage 1(13)</text>
<text text-anchor="middle" x="199.76" y="-649.11" font-family="Times,serif" font-size="14.00">&lt;11&gt;[0.06318]</text>
</g>
<!-- Forage 1(13)
&lt;11&gt;[0.06318]&#45;&gt;Riparian forest 2(31)
&lt;34&gt;[0.1322] -->
<g id="edge17" class="edge">
<title>Forage 1(13)
&lt;11&gt;[0.06318]&#45;&gt;Riparian forest 2(31)
&lt;34&gt;[0.1322]</title>
<path fill="none" stroke="black" d="M220.09,-634.49C227.98,-623.69 236.39,-610.53 241.76,-597.44 281.77,-499.93 232.56,-455.78 284.76,-364.22 291.47,-352.45 301.28,-341.82 311.47,-332.82"/>
<polygon fill="black" stroke="black" points="313.88,-335.37 319.3,-326.26 309.39,-330 313.88,-335.37"/>
</g>
<!-- Forage 2(14)
&lt;12&gt;[0.09065] -->
<g id="node19" class="node">
<title>Forage 2(14)
&lt;12&gt;[0.09065]</title>
<ellipse fill="none" stroke="black" cx="819.76" cy="-480.83" rx="70.92" ry="26.74"/>
<text text-anchor="middle" x="819.76" y="-484.63" font-family="Times,serif" font-size="14.00">Forage 2(14)</text>
<text text-anchor="middle" x="819.76" y="-469.63" font-family="Times,serif" font-size="14.00">&lt;12&gt;[0.09065]</text>
</g>
<!-- Forage 2(14)
&lt;12&gt;[0.09065]&#45;&gt;Riparian forest 3(32)
&lt;35&gt;[0.3887] -->
<g id="edge18" class="edge">
<title>Forage 2(14)
&lt;12&gt;[0.09065]&#45;&gt;Riparian forest 3(32)
&lt;35&gt;[0.3887]</title>
<path fill="none" stroke="black" d="M837.54,-454.67C854.43,-431.02 880.74,-394.77 904.76,-364.22 912.21,-354.75 920.51,-344.68 928.25,-335.46"/>
<polygon fill="black" stroke="black" points="931.09,-337.53 934.88,-327.63 925.75,-333 931.09,-337.53"/>
</g>
<!-- Forage 3(15)
&lt;13&gt;[0.3248] -->
<g id="node20" class="node">
<title>Forage 3(15)
&lt;13&gt;[0.3248]</title>
<ellipse fill="none" stroke="black" cx="242.76" cy="-750.05" rx="65.52" ry="26.74"/>
<text text-anchor="middle" x="242.76" y="-753.85" font-family="Times,serif" font-size="14.00">Forage 3(15)</text>
<text text-anchor="middle" x="242.76" y="-738.85" font-family="Times,serif" font-size="14.00">&lt;13&gt;[0.3248]</text>
</g>
<!-- Forage 3(15)
&lt;13&gt;[0.3248]&#45;&gt;Riparian forest 2(31)
&lt;34&gt;[0.1322] -->
<g id="edge19" class="edge">
<title>Forage 3(15)
&lt;13&gt;[0.3248]&#45;&gt;Riparian forest 2(31)
&lt;34&gt;[0.1322]</title>
<path fill="none" stroke="black" d="M260.71,-723.95C267.67,-713.11 275.07,-699.99 279.76,-687.18 297.66,-638.28 298.76,-623.64 298.76,-571.57 298.76,-571.57 298.76,-571.57 298.76,-479.83 298.76,-427.35 304.9,-413.56 322.76,-364.22 326.05,-355.14 330.47,-345.75 335,-337.11"/>
<polygon fill="black" stroke="black" points="338.21,-338.54 339.91,-328.08 332.06,-335.19 338.21,-338.54"/>
</g>
<!-- Forage 4(16)
&lt;14&gt;[0.07213] -->
<g id="node21" class="node">
<title>Forage 4(16)
&lt;14&gt;[0.07213]</title>
<ellipse fill="none" stroke="black" cx="1661.76" cy="-839.79" rx="70.92" ry="26.74"/>
<text text-anchor="middle" x="1661.76" y="-843.59" font-family="Times,serif" font-size="14.00">Forage 4(16)</text>
<text text-anchor="middle" x="1661.76" y="-828.59" font-family="Times,serif" font-size="14.00">&lt;14&gt;[0.07213]</text>
</g>
<!-- Forage 4(16)
&lt;14&gt;[0.07213]&#45;&gt;Riparian forest 1(30)
&lt;28&gt;[0.5069] -->
<g id="edge20" class="edge">
<title>Forage 4(16)
&lt;14&gt;[0.07213]&#45;&gt;Riparian forest 1(30)
&lt;28&gt;[0.5069]</title>
<path fill="none" stroke="black" d="M1682.22,-814.02C1690.12,-803.23 1698.52,-790.06 1703.76,-776.92 1723.06,-728.56 1722.76,-713.38 1722.76,-661.31 1722.76,-661.31 1722.76,-661.31 1722.76,-479.83 1722.76,-429.78 1708.13,-373.52 1697.03,-338.02"/>
<polygon fill="black" stroke="black" points="1700.25,-336.6 1693.86,-328.14 1693.58,-338.73 1700.25,-336.6"/>
</g>
<!-- Forage 5(17)
&lt;15&gt;[0.08817] -->
<g id="node22" class="node">
<title>Forage 5(17)
&lt;15&gt;[0.08817]</title>
<ellipse fill="none" stroke="black" cx="857.76" cy="-570.57" rx="70.92" ry="26.74"/>
<text text-anchor="middle" x="857.76" y="-574.37" font-family="Times,serif" font-size="14.00">Forage 5(17)</text>
<text text-anchor="middle" x="857.76" y="-559.37" font-family="Times,serif" font-size="14.00">&lt;15&gt;[0.08817]</text>
</g>
<!-- Forage 5(17)
&lt;15&gt;[0.08817]&#45;&gt;Riparian forest 3(32)
&lt;35&gt;[0.3887] -->
<g id="edge21" class="edge">
<title>Forage 5(17)
&lt;15&gt;[0.08817]&#45;&gt;Riparian forest 3(32)
&lt;35&gt;[0.3887]</title>
<path fill="none" stroke="black" d="M877.52,-544.5C885.32,-533.66 893.82,-520.54 899.76,-507.7 913.72,-477.55 936.15,-388.61 948.3,-338.23"/>
<polygon fill="black" stroke="black" points="951.73,-338.93 950.65,-328.39 944.92,-337.3 951.73,-338.93"/>
</g>
<!-- Forage 6(18)
&lt;16&gt;[0.3111] -->
<g id="node23" class="node">
<title>Forage 6(18)
&lt;16&gt;[0.3111]</title>
<ellipse fill="none" stroke="black" cx="1760.76" cy="-929.53" rx="65.52" ry="26.74"/>
<text text-anchor="middle" x="1760.76" y="-933.33" font-family="Times,serif" font-size="14.00">Forage 6(18)</text>
<text text-anchor="middle" x="1760.76" y="-918.33" font-family="Times,serif" font-size="14.00">&lt;16&gt;[0.3111]</text>
</g>
<!-- Forage 6(18)
&lt;16&gt;[0.3111]&#45;&gt;Riparian forest 1(30)
&lt;28&gt;[0.5069] -->
<g id="edge22" class="edge">
<title>Forage 6(18)
&lt;16&gt;[0.3111]&#45;&gt;Riparian forest 1(30)
&lt;28&gt;[0.5069]</title>
<path fill="none" stroke="black" d="M1760.76,-902.37C1760.76,-867.75 1760.76,-804.82 1760.76,-751.05 1760.76,-751.05 1760.76,-751.05 1760.76,-479.83 1760.76,-426.6 1731.51,-371.11 1709.31,-336.65"/>
<polygon fill="black" stroke="black" points="1711.98,-334.35 1703.55,-327.94 1706.14,-338.21 1711.98,-334.35"/>
</g>
<!-- Forage 7(19)
&lt;17&gt;[0.2167] -->
<g id="node24" class="node">
<title>Forage 7(19)
&lt;17&gt;[0.2167]</title>
<ellipse fill="none" stroke="black" cx="1854.76" cy="-391.09" rx="65.52" ry="26.74"/>
<text text-anchor="middle" x="1854.76" y="-394.89" font-family="Times,serif" font-size="14.00">Forage 7(19)</text>
<text text-anchor="middle" x="1854.76" y="-379.89" font-family="Times,serif" font-size="14.00">&lt;17&gt;[0.2167]</text>
</g>
<!-- Forage 7(19)
&lt;17&gt;[0.2167]&#45;&gt;Riparian forest 1(30)
&lt;28&gt;[0.5069] -->
<g id="edge23" class="edge">
<title>Forage 7(19)
&lt;17&gt;[0.2167]&#45;&gt;Riparian forest 1(30)
&lt;28&gt;[0.5069]</title>
<path fill="none" stroke="black" d="M1814.9,-369.52C1791.92,-357.66 1762.72,-342.59 1737.81,-329.73"/>
<polygon fill="black" stroke="black" points="1739.34,-326.58 1728.85,-325.11 1736.13,-332.8 1739.34,-326.58"/>
</g>
<!-- Forage 8(20)
&lt;18&gt;[0.1428] -->
<g id="node25" class="node">
<title>Forage 8(20)
&lt;18&gt;[0.1428]</title>
<ellipse fill="none" stroke="black" cx="280.76" cy="-839.79" rx="65.52" ry="26.74"/>
<text text-anchor="middle" x="280.76" y="-843.59" font-family="Times,serif" font-size="14.00">Forage 8(20)</text>
<text text-anchor="middle" x="280.76" y="-828.59" font-family="Times,serif" font-size="14.00">&lt;18&gt;[0.1428]</text>
</g>
<!-- Forage 8(20)
&lt;18&gt;[0.1428]&#45;&gt;Riparian forest 2(31)
&lt;34&gt;[0.1322] -->
<g id="edge24" class="edge">
<title>Forage 8(20)
&lt;18&gt;[0.1428]&#45;&gt;Riparian forest 2(31)
&lt;34&gt;[0.1322]</title>
<path fill="none" stroke="black" d="M298.71,-813.69C305.67,-802.85 313.07,-789.73 317.76,-776.92 335.66,-728.02 336.76,-713.38 336.76,-661.31 336.76,-661.31 336.76,-661.31 336.76,-479.83 336.76,-430.61 344.07,-374.15 349.63,-338.38"/>
<polygon fill="black" stroke="black" points="353.1,-338.84 351.21,-328.42 346.18,-337.75 353.1,-338.84"/>
</g>
<!-- Mixed Oats and Peas(21)
&lt;19&gt;[0.2888] -->
<g id="node26" class="node">
<title>Mixed Oats and Peas(21)
&lt;19&gt;[0.2888]</title>
<ellipse fill="none" stroke="black" cx="856.76" cy="-660.31" rx="109.7" ry="26.74"/>
<text text-anchor="middle" x="856.76" y="-664.11" font-family="Times,serif" font-size="14.00">Mixed Oats and Peas(21)</text>
<text text-anchor="middle" x="856.76" y="-649.11" font-family="Times,serif" font-size="14.00">&lt;19&gt;[0.2888]</text>
</g>
<!-- Mixed Oats and Peas(21)
&lt;19&gt;[0.2888]&#45;&gt;Riparian forest 3(32)
&lt;35&gt;[0.3887] -->
<g id="edge25" class="edge">
<title>Mixed Oats and Peas(21)
&lt;19&gt;[0.2888]&#45;&gt;Riparian forest 3(32)
&lt;35&gt;[0.3887]</title>
<path fill="none" stroke="black" d="M901.46,-635.47C915.51,-625.64 929.49,-612.89 937.76,-597.44 982.57,-513.71 972.54,-396.91 963.53,-338.54"/>
<polygon fill="black" stroke="black" points="966.93,-337.66 961.87,-328.35 960.02,-338.78 966.93,-337.66"/>
</g>
<!-- Oats 1(22)
&lt;20&gt;[0.101] -->
<g id="node27" class="node">
<title>Oats 1(22)
&lt;20&gt;[0.101]</title>
<ellipse fill="none" stroke="black" cx="1169.76" cy="-480.83" rx="60.62" ry="26.74"/>
<text text-anchor="middle" x="1169.76" y="-484.63" font-family="Times,serif" font-size="14.00">Oats 1(22)</text>
<text text-anchor="middle" x="1169.76" y="-469.63" font-family="Times,serif" font-size="14.00">&lt;20&gt;[0.101]</text>
</g>
<!-- Oats 1(22)
&lt;20&gt;[0.101]&#45;&gt;Riparian forest 4(33)
&lt;36&gt;[0.09664] -->
<g id="edge26" class="edge">
<title>Oats 1(22)
&lt;20&gt;[0.101]&#45;&gt;Riparian forest 4(33)
&lt;36&gt;[0.09664]</title>
<path fill="none" stroke="black" d="M1183.11,-454.3C1188.89,-443.17 1195.71,-429.94 1201.76,-417.96 1215.42,-390.92 1230.57,-360.16 1241.81,-337.17"/>
<polygon fill="black" stroke="black" points="1244.98,-338.66 1246.22,-328.13 1238.69,-335.58 1244.98,-338.66"/>
</g>
<!-- Oats 2(23)
&lt;21&gt;[0.06745] -->
<g id="node28" class="node">
<title>Oats 2(23)
&lt;21&gt;[0.06745]</title>
<ellipse fill="none" stroke="black" cx="1197.76" cy="-570.57" rx="70.92" ry="26.74"/>
<text text-anchor="middle" x="1197.76" y="-574.37" font-family="Times,serif" font-size="14.00">Oats 2(23)</text>
<text text-anchor="middle" x="1197.76" y="-559.37" font-family="Times,serif" font-size="14.00">&lt;21&gt;[0.06745]</text>
</g>
<!-- Oats 2(23)
&lt;21&gt;[0.06745]&#45;&gt;Riparian forest 4(33)
&lt;36&gt;[0.09664] -->
<g id="edge27" class="edge">
<title>Oats 2(23)
&lt;21&gt;[0.06745]&#45;&gt;Riparian forest 4(33)
&lt;36&gt;[0.09664]</title>
<path fill="none" stroke="black" d="M1218.9,-544.68C1226.81,-533.97 1235.03,-520.9 1239.76,-507.7 1260.04,-451.16 1261.9,-380.52 1260.77,-338.56"/>
<polygon fill="black" stroke="black" points="1264.27,-338.41 1260.43,-328.53 1257.27,-338.64 1264.27,-338.41"/>
</g>
<!-- Oats 3(24)
&lt;22&gt;[0.1849] -->
<g id="node29" class="node">
<title>Oats 3(24)
&lt;22&gt;[0.1849]</title>
<ellipse fill="none" stroke="black" cx="374.76" cy="-929.53" rx="65.52" ry="26.74"/>
<text text-anchor="middle" x="374.76" y="-933.33" font-family="Times,serif" font-size="14.00">Oats 3(24)</text>
<text text-anchor="middle" x="374.76" y="-918.33" font-family="Times,serif" font-size="14.00">&lt;22&gt;[0.1849]</text>
</g>
<!-- Oats 3(24)
&lt;22&gt;[0.1849]&#45;&gt;Riparian forest 2(31)
&lt;34&gt;[0.1322] -->
<g id="edge28" class="edge">
<title>Oats 3(24)
&lt;22&gt;[0.1849]&#45;&gt;Riparian forest 2(31)
&lt;34&gt;[0.1322]</title>
<path fill="none" stroke="black" d="M374.76,-902.37C374.76,-867.75 374.76,-804.82 374.76,-751.05 374.76,-751.05 374.76,-751.05 374.76,-479.83 374.76,-430.61 367.45,-374.15 361.9,-338.38"/>
<polygon fill="black" stroke="black" points="365.34,-337.75 360.31,-328.42 358.43,-338.84 365.34,-337.75"/>
</g>
<!-- Oats 4(25)
&lt;23&gt;[0.2957] -->
<g id="node30" class="node">
<title>Oats 4(25)
&lt;23&gt;[0.2957]</title>
<ellipse fill="none" stroke="black" cx="468.76" cy="-391.09" rx="65.52" ry="26.74"/>
<text text-anchor="middle" x="468.76" y="-394.89" font-family="Times,serif" font-size="14.00">Oats 4(25)</text>
<text text-anchor="middle" x="468.76" y="-379.89" font-family="Times,serif" font-size="14.00">&lt;23&gt;[0.2957]</text>
</g>
<!-- Oats 4(25)
&lt;23&gt;[0.2957]&#45;&gt;Riparian forest 2(31)
&lt;34&gt;[0.1322] -->
<g id="edge29" class="edge">
<title>Oats 4(25)
&lt;23&gt;[0.2957]&#45;&gt;Riparian forest 2(31)
&lt;34&gt;[0.1322]</title>
<path fill="none" stroke="black" d="M439.07,-367.04C425.73,-356.68 409.8,-344.31 395.46,-333.17"/>
<polygon fill="black" stroke="black" points="397.27,-330.15 387.23,-326.78 392.98,-335.68 397.27,-330.15"/>
</g>
<!-- Pasture 1(26)
&lt;24&gt;[0.2223] -->
<g id="node31" class="node">
<title>Pasture 1(26)
&lt;24&gt;[0.2223]</title>
<ellipse fill="none" stroke="black" cx="1948.76" cy="-480.83" rx="65.52" ry="26.74"/>
<text text-anchor="middle" x="1948.76" y="-484.63" font-family="Times,serif" font-size="14.00">Pasture 1(26)</text>
<text text-anchor="middle" x="1948.76" y="-469.63" font-family="Times,serif" font-size="14.00">&lt;24&gt;[0.2223]</text>
</g>
<!-- Pasture 1(26)
&lt;24&gt;[0.2223]&#45;&gt;Riparian forest 1(30)
&lt;28&gt;[0.5069] -->
<g id="edge30" class="edge">
<title>Pasture 1(26)
&lt;24&gt;[0.2223]&#45;&gt;Riparian forest 1(30)
&lt;28&gt;[0.5069]</title>
<path fill="none" stroke="black" d="M1952.01,-453.85C1953.72,-427.84 1951.92,-388.33 1929.76,-364.22 1909.02,-341.65 1837.94,-325.29 1777.65,-315.08"/>
<polygon fill="black" stroke="black" points="1778.12,-311.61 1767.69,-313.43 1776.98,-318.52 1778.12,-311.61"/>
</g>
<!-- Pasture 2(27)
&lt;25&gt;[0.07877] -->
<g id="node32" class="node">
<title>Pasture 2(27)
&lt;25&gt;[0.07877]</title>
<ellipse fill="none" stroke="black" cx="933.76" cy="-750.05" rx="70.92" ry="26.74"/>
<text text-anchor="middle" x="933.76" y="-753.85" font-family="Times,serif" font-size="14.00">Pasture 2(27)</text>
<text text-anchor="middle" x="933.76" y="-738.85" font-family="Times,serif" font-size="14.00">&lt;25&gt;[0.07877]</text>
</g>
<!-- Pasture 2(27)
&lt;25&gt;[0.07877]&#45;&gt;Riparian forest 3(32)
&lt;35&gt;[0.3887] -->
<g id="edge31" class="edge">
<title>Pasture 2(27)
&lt;25&gt;[0.07877]&#45;&gt;Riparian forest 3(32)
&lt;35&gt;[0.3887]</title>
<path fill="none" stroke="black" d="M954.22,-724.28C962.12,-713.49 970.52,-700.32 975.76,-687.18 995.06,-638.82 994.76,-623.64 994.76,-571.57 994.76,-571.57 994.76,-571.57 994.76,-479.83 994.76,-428.07 993.33,-414.43 980.76,-364.22 978.55,-355.37 975.4,-346.07 972.12,-337.45"/>
<polygon fill="black" stroke="black" points="975.34,-336.08 968.4,-328.07 968.83,-338.66 975.34,-336.08"/>
</g>
<!-- Pasture 3(28)
&lt;26&gt;[0.05171] -->
<g id="node33" class="node">
<title>Pasture 3(28)
&lt;26&gt;[0.05171]</title>
<ellipse fill="none" stroke="black" cx="501.76" cy="-480.83" rx="70.92" ry="26.74"/>
<text text-anchor="middle" x="501.76" y="-484.63" font-family="Times,serif" font-size="14.00">Pasture 3(28)</text>
<text text-anchor="middle" x="501.76" y="-469.63" font-family="Times,serif" font-size="14.00">&lt;26&gt;[0.05171]</text>
</g>
<!-- Pasture 3(28)
&lt;26&gt;[0.05171]&#45;&gt;Riparian forest 2(31)
&lt;34&gt;[0.1322] -->
<g id="edge32" class="edge">
<title>Pasture 3(28)
&lt;26&gt;[0.05171]&#45;&gt;Riparian forest 2(31)
&lt;34&gt;[0.1322]</title>
<path fill="none" stroke="black" d="M523.5,-454.93C542.38,-430.14 563.79,-391.9 543.76,-364.22 522.95,-335.46 488.32,-319.84 454.42,-311.43"/>
<polygon fill="black" stroke="black" points="454.94,-307.96 444.41,-309.15 453.38,-314.79 454.94,-307.96"/>
</g>
<!-- Pasture 4(29)
&lt;27&gt;[0.3331] -->
<g id="node34" class="node">
<title>Pasture 4(29)
&lt;27&gt;[0.3331]</title>
<ellipse fill="none" stroke="black" cx="1240.76" cy="-660.31" rx="65.52" ry="26.74"/>
<text text-anchor="middle" x="1240.76" y="-664.11" font-family="Times,serif" font-size="14.00">Pasture 4(29)</text>
<text text-anchor="middle" x="1240.76" y="-649.11" font-family="Times,serif" font-size="14.00">&lt;27&gt;[0.3331]</text>
</g>
<!-- Pasture 4(29)
&lt;27&gt;[0.3331]&#45;&gt;Riparian forest 4(33)
&lt;36&gt;[0.09664] -->
<g id="edge33" class="edge">
<title>Pasture 4(29)
&lt;27&gt;[0.3331]&#45;&gt;Riparian forest 4(33)
&lt;36&gt;[0.09664]</title>
<path fill="none" stroke="black" d="M1259.76,-634.55C1266.88,-623.76 1274.13,-610.59 1277.76,-597.44 1302.85,-506.6 1282.19,-394.3 1268.49,-338.03"/>
<polygon fill="black" stroke="black" points="1271.85,-337.04 1266.02,-328.19 1265.06,-338.74 1271.85,-337.04"/>
</g>
<!-- Road(34)
&lt;37&gt;[0.4417] -->
<g id="node35" class="node">
<title>Road(34)
&lt;37&gt;[0.4417]</title>
<ellipse fill="none" stroke="black" cx="1306.76" cy="-750.05" rx="65.52" ry="26.74"/>
<text text-anchor="middle" x="1306.76" y="-753.85" font-family="Times,serif" font-size="14.00">Road(34)</text>
<text text-anchor="middle" x="1306.76" y="-738.85" font-family="Times,serif" font-size="14.00">&lt;37&gt;[0.4417]</text>
</g>
<!-- Road(34)
&lt;37&gt;[0.4417]&#45;&gt;Riparian forest 4(33)
&lt;36&gt;[0.09664] -->
<g id="edge34" class="edge">
<title>Road(34)
&lt;37&gt;[0.4417]&#45;&gt;Riparian forest 4(33)
&lt;36&gt;[0.09664]</title>
<path fill="none" stroke="black" d="M1313.47,-723.09C1321.75,-688.69 1334.76,-626 1334.76,-571.57 1334.76,-571.57 1334.76,-571.57 1334.76,-479.83 1334.76,-426.6 1305.51,-371.11 1283.31,-336.65"/>
<polygon fill="black" stroke="black" points="1285.98,-334.35 1277.55,-327.94 1280.14,-338.21 1285.98,-334.35"/>
</g>
<!-- Triticale(35)
&lt;29&gt;[0.08036] -->
<g id="node36" class="node">
<title>Triticale(35)
&lt;29&gt;[0.08036]</title>
<ellipse fill="none" stroke="black" cx="1032.76" cy="-839.79" rx="70.92" ry="26.74"/>
<text text-anchor="middle" x="1032.76" y="-843.59" font-family="Times,serif" font-size="14.00">Triticale(35)</text>
<text text-anchor="middle" x="1032.76" y="-828.59" font-family="Times,serif" font-size="14.00">&lt;29&gt;[0.08036]</text>
</g>
<!-- Triticale(35)
&lt;29&gt;[0.08036]&#45;&gt;Riparian forest 3(32)
&lt;35&gt;[0.3887] -->
<g id="edge35" class="edge">
<title>Triticale(35)
&lt;29&gt;[0.08036]&#45;&gt;Riparian forest 3(32)
&lt;35&gt;[0.3887]</title>
<path fill="none" stroke="black" d="M1032.76,-812.63C1032.76,-778.01 1032.76,-715.08 1032.76,-661.31 1032.76,-661.31 1032.76,-661.31 1032.76,-479.83 1032.76,-426.52 1023.67,-412.36 1000.76,-364.22 996.13,-354.48 989.96,-344.64 983.71,-335.77"/>
<polygon fill="black" stroke="black" points="986.46,-333.6 977.74,-327.59 980.81,-337.73 986.46,-333.6"/>
</g>
<!-- Unknown structure(36)
&lt;30&gt;[0.073] -->
<g id="node37" class="node">
<title>Unknown structure(36)
&lt;30&gt;[0.073]</title>
<ellipse fill="none" stroke="black" cx="2042.76" cy="-570.57" rx="101.23" ry="26.74"/>
<text text-anchor="middle" x="2042.76" y="-574.37" font-family="Times,serif" font-size="14.00">Unknown structure(36)</text>
<text text-anchor="middle" x="2042.76" y="-559.37" font-family="Times,serif" font-size="14.00">&lt;30&gt;[0.073]</text>
</g>
<!-- Unknown structure(36)
&lt;30&gt;[0.073]&#45;&gt;Riparian forest 1(30)
&lt;28&gt;[0.5069] -->
<g id="edge36" class="edge">
<title>Unknown structure(36)
&lt;30&gt;[0.073]&#45;&gt;Riparian forest 1(30)
&lt;28&gt;[0.5069]</title>
<path fill="none" stroke="black" d="M2042.08,-543.29C2040.62,-519.17 2036.3,-482.89 2023.76,-453.96 2003.74,-407.8 1997.11,-391.38 1954.76,-364.22 1904.28,-331.84 1838.9,-316.33 1785.13,-308.93"/>
<polygon fill="black" stroke="black" points="1785.25,-305.42 1774.88,-307.6 1784.35,-312.36 1785.25,-305.42"/>
</g>
<!-- Wheat 1(37)
&lt;31&gt;[0.106] -->
<g id="node38" class="node">
<title>Wheat 1(37)
&lt;31&gt;[0.106]</title>
<ellipse fill="none" stroke="black" cx="574.76" cy="-570.57" rx="60.62" ry="26.74"/>
<text text-anchor="middle" x="574.76" y="-574.37" font-family="Times,serif" font-size="14.00">Wheat 1(37)</text>
<text text-anchor="middle" x="574.76" y="-559.37" font-family="Times,serif" font-size="14.00">&lt;31&gt;[0.106]</text>
</g>
<!-- Wheat 1(37)
&lt;31&gt;[0.106]&#45;&gt;Riparian forest 2(31)
&lt;34&gt;[0.1322] -->
<g id="edge37" class="edge">
<title>Wheat 1(37)
&lt;31&gt;[0.106]&#45;&gt;Riparian forest 2(31)
&lt;34&gt;[0.1322]</title>
<path fill="none" stroke="black" d="M582.39,-543.91C593.48,-500.73 608.13,-413.46 562.76,-364.22 535.23,-334.34 493.94,-318.67 455.46,-310.53"/>
<polygon fill="black" stroke="black" points="455.71,-307.02 445.22,-308.53 454.36,-313.88 455.71,-307.02"/>
</g>
<!-- Wheat 2(38)
&lt;32&gt;[0.2234] -->
<g id="node39" class="node">
<title>Wheat 2(38)
&lt;32&gt;[0.2234]</title>
<ellipse fill="none" stroke="black" cx="1400.76" cy="-839.79" rx="65.52" ry="26.74"/>
<text text-anchor="middle" x="1400.76" y="-843.59" font-family="Times,serif" font-size="14.00">Wheat 2(38)</text>
<text text-anchor="middle" x="1400.76" y="-828.59" font-family="Times,serif" font-size="14.00">&lt;32&gt;[0.2234]</text>
</g>
<!-- Wheat 2(38)
&lt;32&gt;[0.2234]&#45;&gt;Riparian forest 4(33)
&lt;36&gt;[0.09664] -->
<g id="edge38" class="edge">
<title>Wheat 2(38)
&lt;32&gt;[0.2234]&#45;&gt;Riparian forest 4(33)
&lt;36&gt;[0.09664]</title>
<path fill="none" stroke="black" d="M1400.76,-812.63C1400.76,-778.01 1400.76,-715.08 1400.76,-661.31 1400.76,-661.31 1400.76,-661.31 1400.76,-479.83 1400.76,-416.75 1345.4,-363.25 1303.81,-331.96"/>
<polygon fill="black" stroke="black" points="1305.83,-329.1 1295.7,-326 1301.69,-334.74 1305.83,-329.1"/>
</g>
<!-- Wheat 3(39)
&lt;33&gt;[0.1576] -->
<g id="node40" class="node">
<title>Wheat 3(39)
&lt;33&gt;[0.1576]</title>
<ellipse fill="none" stroke="black" cx="663.76" cy="-660.31" rx="65.52" ry="26.74"/>
<text text-anchor="middle" x="663.76" y="-664.11" font-family="Times,serif" font-size="14.00">Wheat 3(39)</text>
<text text-anchor="middle" x="663.76" y="-649.11" font-family="Times,serif" font-size="14.00">&lt;33&gt;[0.1576]</text>
</g>
<!-- Wheat 3(39)
&lt;33&gt;[0.1576]&#45;&gt;Riparian forest 2(31)
&lt;34&gt;[0.1322] -->
<g id="edge39" class="edge">
<title>Wheat 3(39)
&lt;33&gt;[0.1576]&#45;&gt;Riparian forest 2(31)
&lt;34&gt;[0.1322]</title>
<path fill="none" stroke="black" d="M665.73,-633.22C668.52,-575.71 666.49,-437.36 590.76,-364.22 555.35,-330.02 503.4,-314.14 457.34,-306.99"/>
<polygon fill="black" stroke="black" points="457.7,-303.51 447.3,-305.56 456.7,-310.44 457.7,-303.51"/>
</g>
</g>
</svg>
