<?xml version="1.0" encoding="UTF-8" standalone="no"?>
<!DOCTYPE svg PUBLIC "-//W3C//DTD SVG 1.1//EN"
 "http://www.w3.org/Graphics/SVG/1.1/DTD/svg11.dtd">
<!-- Generated by graphviz version 2.43.0 (0)
 -->
<!-- Title: TEST Pages: 1 -->
<svg width="1724pt" height="605pt"
 viewBox="0.00 0.00 1724.04 605.44" xmlns="http://www.w3.org/2000/svg" xmlns:xlink="http://www.w3.org/1999/xlink">
<g id="graph0" class="graph" transform="scale(1 1) rotate(0) translate(4 601.44)">
<title>TEST</title>
<polygon fill="white" stroke="transparent" points="-4,4 -4,-601.44 1720.04,-601.44 1720.04,4 -4,4"/>
<text text-anchor="middle" x="858.02" y="-7.8" font-family="Times,serif" font-size="14.00">B_final_steppler2000_2001_new_10yrs_GrpB</text>
<!-- Canola 1(1)
[0.09347] -->
<g id="node1" class="node">
<title>Canola 1(1)
[0.09347]</title>
<ellipse fill="none" stroke="black" cx="1580.28" cy="-480.83" rx="57.05" ry="26.74"/>
<text text-anchor="middle" x="1580.28" y="-484.63" font-family="Times,serif" font-size="14.00">Canola 1(1)</text>
<text text-anchor="middle" x="1580.28" y="-469.63" font-family="Times,serif" font-size="14.00">[0.09347]</text>
</g>
<!-- Riparian 6(33)
[8.079e&#45;05] -->
<g id="node2" class="node">
<title>Riparian 6(33)
[8.079e&#45;05]</title>
<ellipse fill="none" stroke="black" cx="1580.28" cy="-391.09" rx="67.76" ry="26.74"/>
<text text-anchor="middle" x="1580.28" y="-394.89" font-family="Times,serif" font-size="14.00">Riparian 6(33)</text>
<text text-anchor="middle" x="1580.28" y="-379.89" font-family="Times,serif" font-size="14.00">[8.079e&#45;05]</text>
</g>
<!-- Canola 1(1)
[0.09347]&#45;&gt;Riparian 6(33)
[8.079e&#45;05] -->
<g id="edge1" class="edge">
<title>Canola 1(1)
[0.09347]&#45;&gt;Riparian 6(33)
[8.079e&#45;05]</title>
<path fill="none" stroke="black" d="M1580.28,-453.51C1580.28,-445.54 1580.28,-436.65 1580.28,-428.16"/>
<polygon fill="black" stroke="black" points="1583.78,-428.09 1580.28,-418.09 1576.78,-428.09 1583.78,-428.09"/>
</g>
<!-- Wheat 3(24)
[0.1673] -->
<g id="node3" class="node">
<title>Wheat 3(24)
[0.1673]</title>
<ellipse fill="none" stroke="black" cx="1387.28" cy="-301.35" rx="60.62" ry="26.74"/>
<text text-anchor="middle" x="1387.28" y="-305.15" font-family="Times,serif" font-size="14.00">Wheat 3(24)</text>
<text text-anchor="middle" x="1387.28" y="-290.15" font-family="Times,serif" font-size="14.00">[0.1673]</text>
</g>
<!-- Riparian 6(33)
[8.079e&#45;05]&#45;&gt;Wheat 3(24)
[0.1673] -->
<g id="edge2" class="edge">
<title>Riparian 6(33)
[8.079e&#45;05]&#45;&gt;Wheat 3(24)
[0.1673]</title>
<path fill="none" stroke="black" d="M1536.96,-370.4C1507.65,-357.08 1468.82,-339.42 1438.06,-325.44"/>
<polygon fill="black" stroke="black" points="1439.34,-322.18 1428.79,-321.22 1436.44,-328.55 1439.34,-322.18"/>
</g>
<!-- Channel(7)
[0.01] -->
<g id="node8" class="node">
<title>Channel(7)
[0.01]</title>
<ellipse fill="none" stroke="black" cx="682.28" cy="-211.61" rx="54.39" ry="26.74"/>
<text text-anchor="middle" x="682.28" y="-215.41" font-family="Times,serif" font-size="14.00">Channel(7)</text>
<text text-anchor="middle" x="682.28" y="-200.41" font-family="Times,serif" font-size="14.00">[0.01]</text>
</g>
<!-- Wheat 3(24)
[0.1673]&#45;&gt;Channel(7)
[0.01] -->
<g id="edge14" class="edge">
<title>Wheat 3(24)
[0.1673]&#45;&gt;Channel(7)
[0.01]</title>
<path fill="none" stroke="black" d="M1333.61,-288.65C1309.97,-283.78 1281.83,-278.37 1256.28,-274.48 1071.92,-246.4 852.35,-226.45 746.12,-217.65"/>
<polygon fill="black" stroke="black" points="746.15,-214.14 735.89,-216.81 745.57,-221.12 746.15,-214.14"/>
</g>
<!-- Canola 2(2)
[0.2817] -->
<g id="node4" class="node">
<title>Canola 2(2)
[0.2817]</title>
<ellipse fill="none" stroke="black" cx="552.28" cy="-211.61" rx="57.05" ry="26.74"/>
<text text-anchor="middle" x="552.28" y="-215.41" font-family="Times,serif" font-size="14.00">Canola 2(2)</text>
<text text-anchor="middle" x="552.28" y="-200.41" font-family="Times,serif" font-size="14.00">[0.2817]</text>
</g>
<!-- Reservoir(5)
[0.034] -->
<g id="node5" class="node">
<title>Reservoir(5)
[0.034]</title>
<ellipse fill="none" stroke="black" cx="617.28" cy="-121.87" rx="60.21" ry="26.74"/>
<text text-anchor="middle" x="617.28" y="-125.67" font-family="Times,serif" font-size="14.00">Reservoir(5)</text>
<text text-anchor="middle" x="617.28" y="-110.67" font-family="Times,serif" font-size="14.00">[0.034]</text>
</g>
<!-- Canola 2(2)
[0.2817]&#45;&gt;Reservoir(5)
[0.034] -->
<g id="edge3" class="edge">
<title>Canola 2(2)
[0.2817]&#45;&gt;Reservoir(5)
[0.034]</title>
<path fill="none" stroke="black" d="M570.73,-185.7C577.65,-176.36 585.62,-165.6 592.99,-155.65"/>
<polygon fill="black" stroke="black" points="595.86,-157.66 599,-147.54 590.24,-153.49 595.86,-157.66"/>
</g>
<!-- basin -->
<g id="node6" class="node">
<title>basin</title>
<ellipse fill="none" stroke="black" cx="544.28" cy="-41" rx="29.5" ry="18"/>
<text text-anchor="middle" x="544.28" y="-37.3" font-family="Times,serif" font-size="14.00">basin</text>
</g>
<!-- Reservoir(5)
[0.034]&#45;&gt;basin -->
<g id="edge4" class="edge">
<title>Reservoir(5)
[0.034]&#45;&gt;basin</title>
<path fill="none" stroke="black" d="M594.98,-96.78C585.58,-86.63 574.7,-74.87 565.43,-64.85"/>
<polygon fill="black" stroke="black" points="567.76,-62.22 558.4,-57.26 562.62,-66.98 567.76,-62.22"/>
</g>
<!-- Canola 3(3)
[0.04029] -->
<g id="node7" class="node">
<title>Canola 3(3)
[0.04029]</title>
<ellipse fill="none" stroke="black" cx="57.28" cy="-301.35" rx="57.05" ry="26.74"/>
<text text-anchor="middle" x="57.28" y="-305.15" font-family="Times,serif" font-size="14.00">Canola 3(3)</text>
<text text-anchor="middle" x="57.28" y="-290.15" font-family="Times,serif" font-size="14.00">[0.04029]</text>
</g>
<!-- Canola 3(3)
[0.04029]&#45;&gt;Channel(7)
[0.01] -->
<g id="edge5" class="edge">
<title>Canola 3(3)
[0.04029]&#45;&gt;Channel(7)
[0.01]</title>
<path fill="none" stroke="black" d="M98.14,-282.38C106.64,-279.27 115.64,-276.42 124.28,-274.48 339.08,-226.31 403.86,-288.33 618.28,-238.48 623.33,-237.31 628.5,-235.79 633.6,-234.08"/>
<polygon fill="black" stroke="black" points="635.07,-237.27 643.3,-230.6 632.7,-230.69 635.07,-237.27"/>
</g>
<!-- Channel(7)
[0.01]&#45;&gt;Reservoir(5)
[0.034] -->
<g id="edge6" class="edge">
<title>Channel(7)
[0.01]&#45;&gt;Reservoir(5)
[0.034]</title>
<path fill="none" stroke="black" d="M664.17,-186.17C657.18,-176.74 649.09,-165.81 641.61,-155.72"/>
<polygon fill="black" stroke="black" points="644.28,-153.44 635.51,-147.48 638.65,-157.6 644.28,-153.44"/>
</g>
<!-- Canola 4(4)
[0.03029] -->
<g id="node9" class="node">
<title>Canola 4(4)
[0.03029]</title>
<ellipse fill="none" stroke="black" cx="190.28" cy="-301.35" rx="57.05" ry="26.74"/>
<text text-anchor="middle" x="190.28" y="-305.15" font-family="Times,serif" font-size="14.00">Canola 4(4)</text>
<text text-anchor="middle" x="190.28" y="-290.15" font-family="Times,serif" font-size="14.00">[0.03029]</text>
</g>
<!-- Canola 4(4)
[0.03029]&#45;&gt;Channel(7)
[0.01] -->
<g id="edge7" class="edge">
<title>Canola 4(4)
[0.03029]&#45;&gt;Channel(7)
[0.01]</title>
<path fill="none" stroke="black" d="M231.26,-282.29C239.42,-279.26 248.02,-276.47 256.28,-274.48 413.46,-236.62 461.29,-277.17 618.28,-238.48 623.31,-237.24 628.47,-235.68 633.57,-233.94"/>
<polygon fill="black" stroke="black" points="635.05,-237.13 643.26,-230.42 632.66,-230.55 635.05,-237.13"/>
</g>
<!-- Canola 5(6)
[0.05071] -->
<g id="node10" class="node">
<title>Canola 5(6)
[0.05071]</title>
<ellipse fill="none" stroke="black" cx="1509.28" cy="-570.57" rx="57.05" ry="26.74"/>
<text text-anchor="middle" x="1509.28" y="-574.37" font-family="Times,serif" font-size="14.00">Canola 5(6)</text>
<text text-anchor="middle" x="1509.28" y="-559.37" font-family="Times,serif" font-size="14.00">[0.05071]</text>
</g>
<!-- Canola 5(6)
[0.05071]&#45;&gt;Canola 1(1)
[0.09347] -->
<g id="edge8" class="edge">
<title>Canola 5(6)
[0.05071]&#45;&gt;Canola 1(1)
[0.09347]</title>
<path fill="none" stroke="black" d="M1529.05,-545.13C1536.82,-535.53 1545.85,-524.37 1554.15,-514.12"/>
<polygon fill="black" stroke="black" points="1557.03,-516.12 1560.6,-506.14 1551.59,-511.71 1557.03,-516.12"/>
</g>
<!-- Canola 6(8)
[0.01816] -->
<g id="node11" class="node">
<title>Canola 6(8)
[0.01816]</title>
<ellipse fill="none" stroke="black" cx="87.28" cy="-391.09" rx="57.05" ry="26.74"/>
<text text-anchor="middle" x="87.28" y="-394.89" font-family="Times,serif" font-size="14.00">Canola 6(8)</text>
<text text-anchor="middle" x="87.28" y="-379.89" font-family="Times,serif" font-size="14.00">[0.01816]</text>
</g>
<!-- Grazing 1(16)
[0.1429] -->
<g id="node12" class="node">
<title>Grazing 1(16)
[0.1429]</title>
<ellipse fill="none" stroke="black" cx="331.28" cy="-301.35" rx="65.52" ry="26.74"/>
<text text-anchor="middle" x="331.28" y="-305.15" font-family="Times,serif" font-size="14.00">Grazing 1(16)</text>
<text text-anchor="middle" x="331.28" y="-290.15" font-family="Times,serif" font-size="14.00">[0.1429]</text>
</g>
<!-- Canola 6(8)
[0.01816]&#45;&gt;Grazing 1(16)
[0.1429] -->
<g id="edge9" class="edge">
<title>Canola 6(8)
[0.01816]&#45;&gt;Grazing 1(16)
[0.1429]</title>
<path fill="none" stroke="black" d="M130.45,-373.19C138.36,-370.16 146.55,-367.06 154.28,-364.22 176.38,-356.09 230.07,-337.38 272.56,-322.65"/>
<polygon fill="black" stroke="black" points="273.96,-325.87 282.26,-319.29 271.67,-319.25 273.96,-325.87"/>
</g>
<!-- Grazing 1(16)
[0.1429]&#45;&gt;Channel(7)
[0.01] -->
<g id="edge10" class="edge">
<title>Grazing 1(16)
[0.1429]&#45;&gt;Channel(7)
[0.01]</title>
<path fill="none" stroke="black" d="M378.68,-282.45C387.44,-279.52 396.58,-276.72 405.28,-274.48 498.26,-250.55 525.89,-264.62 618.28,-238.48 623.19,-237.09 628.25,-235.44 633.26,-233.66"/>
<polygon fill="black" stroke="black" points="634.65,-236.88 642.8,-230.12 632.21,-230.32 634.65,-236.88"/>
</g>
<!-- Canola 7(9)
[0.02911] -->
<g id="node13" class="node">
<title>Canola 7(9)
[0.02911]</title>
<ellipse fill="none" stroke="black" cx="220.28" cy="-391.09" rx="57.05" ry="26.74"/>
<text text-anchor="middle" x="220.28" y="-394.89" font-family="Times,serif" font-size="14.00">Canola 7(9)</text>
<text text-anchor="middle" x="220.28" y="-379.89" font-family="Times,serif" font-size="14.00">[0.02911]</text>
</g>
<!-- Forage 3(15)
[0.0249] -->
<g id="node14" class="node">
<title>Forage 3(15)
[0.0249]</title>
<ellipse fill="none" stroke="black" cx="476.28" cy="-301.35" rx="61.54" ry="26.74"/>
<text text-anchor="middle" x="476.28" y="-305.15" font-family="Times,serif" font-size="14.00">Forage 3(15)</text>
<text text-anchor="middle" x="476.28" y="-290.15" font-family="Times,serif" font-size="14.00">[0.0249]</text>
</g>
<!-- Canola 7(9)
[0.02911]&#45;&gt;Forage 3(15)
[0.0249] -->
<g id="edge11" class="edge">
<title>Canola 7(9)
[0.02911]&#45;&gt;Forage 3(15)
[0.0249]</title>
<path fill="none" stroke="black" d="M262.69,-372.87C270.49,-369.88 278.6,-366.87 286.28,-364.22 338.91,-346.04 353.47,-345.88 406.28,-328.22 411.14,-326.59 416.18,-324.85 421.22,-323.07"/>
<polygon fill="black" stroke="black" points="422.63,-326.28 430.86,-319.6 420.27,-319.69 422.63,-326.28"/>
</g>
<!-- Forage 3(15)
[0.0249]&#45;&gt;Channel(7)
[0.01] -->
<g id="edge12" class="edge">
<title>Forage 3(15)
[0.0249]&#45;&gt;Channel(7)
[0.01]</title>
<path fill="none" stroke="black" d="M519.21,-282.06C552.19,-268.02 597.8,-248.59 632.4,-233.85"/>
<polygon fill="black" stroke="black" points="634.02,-236.97 641.85,-229.83 631.28,-230.53 634.02,-236.97"/>
</g>
<!-- Corn(10)
[0.07423] -->
<g id="node15" class="node">
<title>Corn(10)
[0.07423]</title>
<ellipse fill="none" stroke="black" cx="1328.28" cy="-391.09" rx="49.49" ry="26.74"/>
<text text-anchor="middle" x="1328.28" y="-394.89" font-family="Times,serif" font-size="14.00">Corn(10)</text>
<text text-anchor="middle" x="1328.28" y="-379.89" font-family="Times,serif" font-size="14.00">[0.07423]</text>
</g>
<!-- Corn(10)
[0.07423]&#45;&gt;Wheat 3(24)
[0.1673] -->
<g id="edge13" class="edge">
<title>Corn(10)
[0.07423]&#45;&gt;Wheat 3(24)
[0.1673]</title>
<path fill="none" stroke="black" d="M1344.71,-365.65C1350.93,-356.39 1358.13,-345.69 1364.81,-335.75"/>
<polygon fill="black" stroke="black" points="1367.84,-337.52 1370.52,-327.27 1362.03,-333.61 1367.84,-337.52"/>
</g>
<!-- Fall rye(11)
[0.02793] -->
<g id="node16" class="node">
<title>Fall rye(11)
[0.02793]</title>
<ellipse fill="none" stroke="black" cx="613.28" cy="-301.35" rx="57.05" ry="26.74"/>
<text text-anchor="middle" x="613.28" y="-305.15" font-family="Times,serif" font-size="14.00">Fall rye(11)</text>
<text text-anchor="middle" x="613.28" y="-290.15" font-family="Times,serif" font-size="14.00">[0.02793]</text>
</g>
<!-- Fall rye(11)
[0.02793]&#45;&gt;Channel(7)
[0.01] -->
<g id="edge15" class="edge">
<title>Fall rye(11)
[0.02793]&#45;&gt;Channel(7)
[0.01]</title>
<path fill="none" stroke="black" d="M632.5,-275.91C640.05,-266.31 648.82,-255.15 656.88,-244.9"/>
<polygon fill="black" stroke="black" points="659.73,-246.94 663.16,-236.92 654.23,-242.62 659.73,-246.94"/>
</g>
<!-- Fallow(12)
[0.03577] -->
<g id="node17" class="node">
<title>Fallow(12)
[0.03577]</title>
<ellipse fill="none" stroke="black" cx="472.28" cy="-480.83" rx="54.39" ry="26.74"/>
<text text-anchor="middle" x="472.28" y="-484.63" font-family="Times,serif" font-size="14.00">Fallow(12)</text>
<text text-anchor="middle" x="472.28" y="-469.63" font-family="Times,serif" font-size="14.00">[0.03577]</text>
</g>
<!-- Wheat 4(25)
[0.05324] -->
<g id="node18" class="node">
<title>Wheat 4(25)
[0.05324]</title>
<ellipse fill="none" stroke="black" cx="472.28" cy="-391.09" rx="60.62" ry="26.74"/>
<text text-anchor="middle" x="472.28" y="-394.89" font-family="Times,serif" font-size="14.00">Wheat 4(25)</text>
<text text-anchor="middle" x="472.28" y="-379.89" font-family="Times,serif" font-size="14.00">[0.05324]</text>
</g>
<!-- Fallow(12)
[0.03577]&#45;&gt;Wheat 4(25)
[0.05324] -->
<g id="edge16" class="edge">
<title>Fallow(12)
[0.03577]&#45;&gt;Wheat 4(25)
[0.05324]</title>
<path fill="none" stroke="black" d="M472.28,-453.51C472.28,-445.54 472.28,-436.65 472.28,-428.16"/>
<polygon fill="black" stroke="black" points="475.78,-428.09 472.28,-418.09 468.78,-428.09 475.78,-428.09"/>
</g>
<!-- Wheat 4(25)
[0.05324]&#45;&gt;Fall rye(11)
[0.02793] -->
<g id="edge17" class="edge">
<title>Wheat 4(25)
[0.05324]&#45;&gt;Fall rye(11)
[0.02793]</title>
<path fill="none" stroke="black" d="M506.41,-368.85C525.81,-356.78 550.26,-341.56 570.88,-328.73"/>
<polygon fill="black" stroke="black" points="572.82,-331.65 579.46,-323.39 569.12,-325.71 572.82,-331.65"/>
</g>
<!-- Forage 1(13)
[0.0328] -->
<g id="node19" class="node">
<title>Forage 1(13)
[0.0328]</title>
<ellipse fill="none" stroke="black" cx="751.28" cy="-301.35" rx="61.54" ry="26.74"/>
<text text-anchor="middle" x="751.28" y="-305.15" font-family="Times,serif" font-size="14.00">Forage 1(13)</text>
<text text-anchor="middle" x="751.28" y="-290.15" font-family="Times,serif" font-size="14.00">[0.0328]</text>
</g>
<!-- Forage 1(13)
[0.0328]&#45;&gt;Channel(7)
[0.01] -->
<g id="edge18" class="edge">
<title>Forage 1(13)
[0.0328]&#45;&gt;Channel(7)
[0.01]</title>
<path fill="none" stroke="black" d="M731.69,-275.44C724.21,-265.93 715.56,-254.94 707.62,-244.84"/>
<polygon fill="black" stroke="black" points="710.37,-242.67 701.44,-236.97 704.87,-247 710.37,-242.67"/>
</g>
<!-- Forage 2(14)
[0.03939] -->
<g id="node20" class="node">
<title>Forage 2(14)
[0.03939]</title>
<ellipse fill="none" stroke="black" cx="892.28" cy="-301.35" rx="61.54" ry="26.74"/>
<text text-anchor="middle" x="892.28" y="-305.15" font-family="Times,serif" font-size="14.00">Forage 2(14)</text>
<text text-anchor="middle" x="892.28" y="-290.15" font-family="Times,serif" font-size="14.00">[0.03939]</text>
</g>
<!-- Forage 2(14)
[0.03939]&#45;&gt;Channel(7)
[0.01] -->
<g id="edge19" class="edge">
<title>Forage 2(14)
[0.03939]&#45;&gt;Channel(7)
[0.01]</title>
<path fill="none" stroke="black" d="M848.76,-282.17C814.94,-268.04 767.98,-248.42 732.55,-233.61"/>
<polygon fill="black" stroke="black" points="733.46,-230.2 722.88,-229.58 730.76,-236.66 733.46,-230.2"/>
</g>
<!-- Grazing 2(17)
[0.03852] -->
<g id="node21" class="node">
<title>Grazing 2(17)
[0.03852]</title>
<ellipse fill="none" stroke="black" cx="1650.28" cy="-570.57" rx="65.52" ry="26.74"/>
<text text-anchor="middle" x="1650.28" y="-574.37" font-family="Times,serif" font-size="14.00">Grazing 2(17)</text>
<text text-anchor="middle" x="1650.28" y="-559.37" font-family="Times,serif" font-size="14.00">[0.03852]</text>
</g>
<!-- Grazing 2(17)
[0.03852]&#45;&gt;Canola 1(1)
[0.09347] -->
<g id="edge20" class="edge">
<title>Grazing 2(17)
[0.03852]&#45;&gt;Canola 1(1)
[0.09347]</title>
<path fill="none" stroke="black" d="M1630.4,-544.66C1622.81,-535.15 1614.05,-524.16 1605.99,-514.06"/>
<polygon fill="black" stroke="black" points="1608.69,-511.83 1599.71,-506.19 1603.21,-516.19 1608.69,-511.83"/>
</g>
<!-- Oat 1(18)
[0.1222] -->
<g id="node22" class="node">
<title>Oat 1(18)
[0.1222]</title>
<ellipse fill="none" stroke="black" cx="344.28" cy="-391.09" rx="48.58" ry="26.74"/>
<text text-anchor="middle" x="344.28" y="-394.89" font-family="Times,serif" font-size="14.00">Oat 1(18)</text>
<text text-anchor="middle" x="344.28" y="-379.89" font-family="Times,serif" font-size="14.00">[0.1222]</text>
</g>
<!-- Oat 1(18)
[0.1222]&#45;&gt;Forage 3(15)
[0.0249] -->
<g id="edge21" class="edge">
<title>Oat 1(18)
[0.1222]&#45;&gt;Forage 3(15)
[0.0249]</title>
<path fill="none" stroke="black" d="M374.56,-369.96C392.46,-358.06 415.38,-342.83 434.93,-329.83"/>
<polygon fill="black" stroke="black" points="436.97,-332.68 443.36,-324.23 433.09,-326.85 436.97,-332.68"/>
</g>
<!-- Oat 2(19)
[0.03181] -->
<g id="node23" class="node">
<title>Oat 2(19)
[0.03181]</title>
<ellipse fill="none" stroke="black" cx="1445.28" cy="-391.09" rx="49.49" ry="26.74"/>
<text text-anchor="middle" x="1445.28" y="-394.89" font-family="Times,serif" font-size="14.00">Oat 2(19)</text>
<text text-anchor="middle" x="1445.28" y="-379.89" font-family="Times,serif" font-size="14.00">[0.03181]</text>
</g>
<!-- Oat 2(19)
[0.03181]&#45;&gt;Wheat 3(24)
[0.1673] -->
<g id="edge22" class="edge">
<title>Oat 2(19)
[0.03181]&#45;&gt;Wheat 3(24)
[0.1673]</title>
<path fill="none" stroke="black" d="M1429.12,-365.65C1423,-356.39 1415.93,-345.69 1409.36,-335.75"/>
<polygon fill="black" stroke="black" points="1412.18,-333.68 1403.75,-327.27 1406.34,-337.54 1412.18,-333.68"/>
</g>
<!-- Road(20)
[0.04612] -->
<g id="node24" class="node">
<title>Road(20)
[0.04612]</title>
<ellipse fill="none" stroke="black" cx="607.28" cy="-480.83" rx="49.49" ry="26.74"/>
<text text-anchor="middle" x="607.28" y="-484.63" font-family="Times,serif" font-size="14.00">Road(20)</text>
<text text-anchor="middle" x="607.28" y="-469.63" font-family="Times,serif" font-size="14.00">[0.04612]</text>
</g>
<!-- Wheat 1(22)
[0.2323] -->
<g id="node25" class="node">
<title>Wheat 1(22)
[0.2323]</title>
<ellipse fill="none" stroke="black" cx="752.28" cy="-391.09" rx="60.62" ry="26.74"/>
<text text-anchor="middle" x="752.28" y="-394.89" font-family="Times,serif" font-size="14.00">Wheat 1(22)</text>
<text text-anchor="middle" x="752.28" y="-379.89" font-family="Times,serif" font-size="14.00">[0.2323]</text>
</g>
<!-- Road(20)
[0.04612]&#45;&gt;Wheat 1(22)
[0.2323] -->
<g id="edge23" class="edge">
<title>Road(20)
[0.04612]&#45;&gt;Wheat 1(22)
[0.2323]</title>
<path fill="none" stroke="black" d="M639.46,-460.36C659.86,-448.01 686.51,-431.89 708.78,-418.41"/>
<polygon fill="black" stroke="black" points="710.65,-421.37 717.4,-413.2 707.03,-415.38 710.65,-421.37"/>
</g>
<!-- Wheat 1(22)
[0.2323]&#45;&gt;Forage 1(13)
[0.0328] -->
<g id="edge24" class="edge">
<title>Wheat 1(22)
[0.2323]&#45;&gt;Forage 1(13)
[0.0328]</title>
<path fill="none" stroke="black" d="M751.98,-363.77C751.88,-355.8 751.78,-346.91 751.69,-338.42"/>
<polygon fill="black" stroke="black" points="755.19,-338.31 751.57,-328.35 748.19,-338.39 755.19,-338.31"/>
</g>
<!-- Unknown(21)
[0.008736] -->
<g id="node26" class="node">
<title>Unknown(21)
[0.008736]</title>
<ellipse fill="none" stroke="black" cx="740.28" cy="-480.83" rx="65.11" ry="26.74"/>
<text text-anchor="middle" x="740.28" y="-484.63" font-family="Times,serif" font-size="14.00">Unknown(21)</text>
<text text-anchor="middle" x="740.28" y="-469.63" font-family="Times,serif" font-size="14.00">[0.008736]</text>
</g>
<!-- Unknown(21)
[0.008736]&#45;&gt;Wheat 1(22)
[0.2323] -->
<g id="edge25" class="edge">
<title>Unknown(21)
[0.008736]&#45;&gt;Wheat 1(22)
[0.2323]</title>
<path fill="none" stroke="black" d="M743.81,-453.98C744.92,-445.84 746.17,-436.7 747.37,-428"/>
<polygon fill="black" stroke="black" points="750.84,-428.44 748.72,-418.06 743.9,-427.49 750.84,-428.44"/>
</g>
<!-- Wheat 2(23)
[0.1551] -->
<g id="node27" class="node">
<title>Wheat 2(23)
[0.1551]</title>
<ellipse fill="none" stroke="black" cx="1032.28" cy="-301.35" rx="60.62" ry="26.74"/>
<text text-anchor="middle" x="1032.28" y="-305.15" font-family="Times,serif" font-size="14.00">Wheat 2(23)</text>
<text text-anchor="middle" x="1032.28" y="-290.15" font-family="Times,serif" font-size="14.00">[0.1551]</text>
</g>
<!-- Wheat 2(23)
[0.1551]&#45;&gt;Channel(7)
[0.01] -->
<g id="edge26" class="edge">
<title>Wheat 2(23)
[0.1551]&#45;&gt;Channel(7)
[0.01]</title>
<path fill="none" stroke="black" d="M988.05,-282.71C979.88,-279.76 971.37,-276.88 963.28,-274.48 888.49,-252.35 800.41,-234.2 743.06,-223.41"/>
<polygon fill="black" stroke="black" points="743.55,-219.94 733.08,-221.54 742.27,-226.82 743.55,-219.94"/>
</g>
<!-- Wheat 5(26)
[0.082] -->
<g id="node28" class="node">
<title>Wheat 5(26)
[0.082]</title>
<ellipse fill="none" stroke="black" cx="612.28" cy="-391.09" rx="60.62" ry="26.74"/>
<text text-anchor="middle" x="612.28" y="-394.89" font-family="Times,serif" font-size="14.00">Wheat 5(26)</text>
<text text-anchor="middle" x="612.28" y="-379.89" font-family="Times,serif" font-size="14.00">[0.082]</text>
</g>
<!-- Wheat 5(26)
[0.082]&#45;&gt;Fall rye(11)
[0.02793] -->
<g id="edge27" class="edge">
<title>Wheat 5(26)
[0.082]&#45;&gt;Fall rye(11)
[0.02793]</title>
<path fill="none" stroke="black" d="M612.58,-363.77C612.67,-355.8 612.77,-346.91 612.86,-338.42"/>
<polygon fill="black" stroke="black" points="616.36,-338.39 612.98,-328.35 609.37,-338.31 616.36,-338.39"/>
</g>
<!-- Wheat 6(27)
[0.0001] -->
<g id="node29" class="node">
<title>Wheat 6(27)
[0.0001]</title>
<ellipse fill="none" stroke="black" cx="1046.28" cy="-391.09" rx="60.62" ry="26.74"/>
<text text-anchor="middle" x="1046.28" y="-394.89" font-family="Times,serif" font-size="14.00">Wheat 6(27)</text>
<text text-anchor="middle" x="1046.28" y="-379.89" font-family="Times,serif" font-size="14.00">[0.0001]</text>
</g>
<!-- Wheat 6(27)
[0.0001]&#45;&gt;Forage 2(14)
[0.03939] -->
<g id="edge28" class="edge">
<title>Wheat 6(27)
[0.0001]&#45;&gt;Forage 2(14)
[0.03939]</title>
<path fill="none" stroke="black" d="M1009.78,-369.3C988.19,-356.99 960.65,-341.31 937.67,-328.21"/>
<polygon fill="black" stroke="black" points="939.2,-325.06 928.78,-323.15 935.73,-331.14 939.2,-325.06"/>
</g>
<!-- Riparian 1(28)
[0.04534] -->
<g id="node30" class="node">
<title>Riparian 1(28)
[0.04534]</title>
<ellipse fill="none" stroke="black" cx="899.28" cy="-391.09" rx="67.76" ry="26.74"/>
<text text-anchor="middle" x="899.28" y="-394.89" font-family="Times,serif" font-size="14.00">Riparian 1(28)</text>
<text text-anchor="middle" x="899.28" y="-379.89" font-family="Times,serif" font-size="14.00">[0.04534]</text>
</g>
<!-- Riparian 1(28)
[0.04534]&#45;&gt;Forage 1(13)
[0.0328] -->
<g id="edge29" class="edge">
<title>Riparian 1(28)
[0.04534]&#45;&gt;Forage 1(13)
[0.0328]</title>
<path fill="none" stroke="black" d="M862.69,-368.4C842.3,-356.31 816.77,-341.18 795.3,-328.45"/>
<polygon fill="black" stroke="black" points="797.06,-325.42 786.67,-323.34 793.49,-331.45 797.06,-325.42"/>
</g>
<!-- Riparian 2(29)
[0.003324] -->
<g id="node31" class="node">
<title>Riparian 2(29)
[0.003324]</title>
<ellipse fill="none" stroke="black" cx="1193.28" cy="-391.09" rx="67.76" ry="26.74"/>
<text text-anchor="middle" x="1193.28" y="-394.89" font-family="Times,serif" font-size="14.00">Riparian 2(29)</text>
<text text-anchor="middle" x="1193.28" y="-379.89" font-family="Times,serif" font-size="14.00">[0.003324]</text>
</g>
<!-- Riparian 2(29)
[0.003324]&#45;&gt;Forage 2(14)
[0.03939] -->
<g id="edge30" class="edge">
<title>Riparian 2(29)
[0.003324]&#45;&gt;Forage 2(14)
[0.03939]</title>
<path fill="none" stroke="black" d="M1143.79,-372.7C1134.68,-369.72 1125.23,-366.76 1116.28,-364.22 1048.66,-345.01 1029.59,-348.44 962.28,-328.22 957.29,-326.72 952.13,-325.05 947,-323.31"/>
<polygon fill="black" stroke="black" points="947.78,-319.88 937.18,-319.88 945.47,-326.48 947.78,-319.88"/>
</g>
<!-- Riparian 3(30)
[0.04701] -->
<g id="node32" class="node">
<title>Riparian 3(30)
[0.04701]</title>
<ellipse fill="none" stroke="black" cx="891.28" cy="-480.83" rx="67.76" ry="26.74"/>
<text text-anchor="middle" x="891.28" y="-484.63" font-family="Times,serif" font-size="14.00">Riparian 3(30)</text>
<text text-anchor="middle" x="891.28" y="-469.63" font-family="Times,serif" font-size="14.00">[0.04701]</text>
</g>
<!-- Riparian 3(30)
[0.04701]&#45;&gt;Wheat 1(22)
[0.2323] -->
<g id="edge31" class="edge">
<title>Riparian 3(30)
[0.04701]&#45;&gt;Wheat 1(22)
[0.2323]</title>
<path fill="none" stroke="black" d="M856.2,-457.69C837.56,-445.93 814.51,-431.38 794.86,-418.97"/>
<polygon fill="black" stroke="black" points="796.7,-416 786.38,-413.62 792.97,-421.91 796.7,-416"/>
</g>
<!-- Riparian 4(31)
[8.289e&#45;05] -->
<g id="node33" class="node">
<title>Riparian 4(31)
[8.289e&#45;05]</title>
<ellipse fill="none" stroke="black" cx="1045.28" cy="-480.83" rx="67.76" ry="26.74"/>
<text text-anchor="middle" x="1045.28" y="-484.63" font-family="Times,serif" font-size="14.00">Riparian 4(31)</text>
<text text-anchor="middle" x="1045.28" y="-469.63" font-family="Times,serif" font-size="14.00">[8.289e&#45;05]</text>
</g>
<!-- Riparian 4(31)
[8.289e&#45;05]&#45;&gt;Wheat 1(22)
[0.2323] -->
<g id="edge32" class="edge">
<title>Riparian 4(31)
[8.289e&#45;05]&#45;&gt;Wheat 1(22)
[0.2323]</title>
<path fill="none" stroke="black" d="M995.35,-462.39C986.37,-459.45 977.08,-456.52 968.28,-453.96 904.1,-435.3 886.16,-437.58 822.28,-417.96 817.09,-416.37 811.73,-414.6 806.38,-412.77"/>
<polygon fill="black" stroke="black" points="807.43,-409.42 796.83,-409.41 805.1,-416.03 807.43,-409.42"/>
</g>
<!-- Riparian 5(32)
[0.03538] -->
<g id="node34" class="node">
<title>Riparian 5(32)
[0.03538]</title>
<ellipse fill="none" stroke="black" cx="1179.28" cy="-301.35" rx="67.76" ry="26.74"/>
<text text-anchor="middle" x="1179.28" y="-305.15" font-family="Times,serif" font-size="14.00">Riparian 5(32)</text>
<text text-anchor="middle" x="1179.28" y="-290.15" font-family="Times,serif" font-size="14.00">[0.03538]</text>
</g>
<!-- Riparian 5(32)
[0.03538]&#45;&gt;Channel(7)
[0.01] -->
<g id="edge33" class="edge">
<title>Riparian 5(32)
[0.03538]&#45;&gt;Channel(7)
[0.01]</title>
<path fill="none" stroke="black" d="M1130.36,-282.47C1121.12,-279.5 1111.46,-276.68 1102.28,-274.48 977.57,-244.6 828.36,-226.75 745.57,-218.39"/>
<polygon fill="black" stroke="black" points="745.86,-214.9 735.56,-217.39 745.17,-221.87 745.86,-214.9"/>
</g>
<!-- Riparian 7(34)
[0.02887] -->
<g id="node35" class="node">
<title>Riparian 7(34)
[0.02887]</title>
<ellipse fill="none" stroke="black" cx="471.28" cy="-121.87" rx="67.76" ry="26.74"/>
<text text-anchor="middle" x="471.28" y="-125.67" font-family="Times,serif" font-size="14.00">Riparian 7(34)</text>
<text text-anchor="middle" x="471.28" y="-110.67" font-family="Times,serif" font-size="14.00">[0.02887]</text>
</g>
<!-- Riparian 7(34)
[0.02887]&#45;&gt;basin -->
<g id="edge34" class="edge">
<title>Riparian 7(34)
[0.02887]&#45;&gt;basin</title>
<path fill="none" stroke="black" d="M493.97,-96.35C503.35,-86.21 514.16,-74.54 523.34,-64.61"/>
<polygon fill="black" stroke="black" points="526.08,-66.81 530.31,-57.09 520.94,-62.05 526.08,-66.81"/>
</g>
</g>
</svg>
