<?xml version="1.0" encoding="UTF-8" standalone="no"?>
<!DOCTYPE svg PUBLIC "-//W3C//DTD SVG 1.1//EN"
 "http://www.w3.org/Graphics/SVG/1.1/DTD/svg11.dtd">
<!-- Generated by graphviz version 2.43.0 (0)
 -->
<!-- Title: TEST Pages: 1 -->
<svg width="1179pt" height="875pt"
 viewBox="0.00 0.00 1178.57 874.66" xmlns="http://www.w3.org/2000/svg" xmlns:xlink="http://www.w3.org/1999/xlink">
<g id="graph0" class="graph" transform="scale(1 1) rotate(0) translate(4 870.66)">
<title>TEST</title>
<polygon fill="white" stroke="transparent" points="-4,4 -4,-870.66 1174.57,-870.66 1174.57,4 -4,4"/>
<text text-anchor="middle" x="585.29" y="-7.8" font-family="Times,serif" font-size="14.00">K_se1_project_GrpK</text>
<!-- Alfalfa 1(1)
&lt;1&gt;[0.2014] -->
<g id="node1" class="node">
<title>Alfalfa 1(1)
&lt;1&gt;[0.2014]</title>
<ellipse fill="none" stroke="black" cx="60.81" cy="-301.35" rx="60.62" ry="26.74"/>
<text text-anchor="middle" x="60.81" y="-305.15" font-family="Times,serif" font-size="14.00">Alfalfa 1(1)</text>
<text text-anchor="middle" x="60.81" y="-290.15" font-family="Times,serif" font-size="14.00">&lt;1&gt;[0.2014]</text>
</g>
<!-- Channel(7)
&lt;19&gt;[0.01] -->
<g id="node2" class="node">
<title>Channel(7)
&lt;19&gt;[0.01]</title>
<ellipse fill="none" stroke="black" cx="602.81" cy="-211.61" rx="56.64" ry="26.74"/>
<text text-anchor="middle" x="602.81" y="-215.41" font-family="Times,serif" font-size="14.00">Channel(7)</text>
<text text-anchor="middle" x="602.81" y="-200.41" font-family="Times,serif" font-size="14.00">&lt;19&gt;[0.01]</text>
</g>
<!-- Alfalfa 1(1)
&lt;1&gt;[0.2014]&#45;&gt;Channel(7)
&lt;19&gt;[0.01] -->
<g id="edge1" class="edge">
<title>Alfalfa 1(1)
&lt;1&gt;[0.2014]&#45;&gt;Channel(7)
&lt;19&gt;[0.01]</title>
<path fill="none" stroke="black" d="M105.99,-283.13C115.72,-279.89 126.03,-276.79 135.81,-274.48 276.45,-241.26 445.42,-224.43 536.61,-217.18"/>
<polygon fill="black" stroke="black" points="537.11,-220.65 546.8,-216.39 536.56,-213.67 537.11,-220.65"/>
</g>
<!-- Reservoir(5)
&lt;20&gt;[0.02] -->
<g id="node3" class="node">
<title>Reservoir(5)
&lt;20&gt;[0.02]</title>
<ellipse fill="none" stroke="black" cx="602.81" cy="-121.87" rx="60.21" ry="26.74"/>
<text text-anchor="middle" x="602.81" y="-125.67" font-family="Times,serif" font-size="14.00">Reservoir(5)</text>
<text text-anchor="middle" x="602.81" y="-110.67" font-family="Times,serif" font-size="14.00">&lt;20&gt;[0.02]</text>
</g>
<!-- Channel(7)
&lt;19&gt;[0.01]&#45;&gt;Reservoir(5)
&lt;20&gt;[0.02] -->
<g id="edge2" class="edge">
<title>Channel(7)
&lt;19&gt;[0.01]&#45;&gt;Reservoir(5)
&lt;20&gt;[0.02]</title>
<path fill="none" stroke="black" d="M602.81,-184.29C602.81,-176.32 602.81,-167.43 602.81,-158.94"/>
<polygon fill="black" stroke="black" points="606.31,-158.87 602.81,-148.87 599.31,-158.87 606.31,-158.87"/>
</g>
<!-- basin -->
<g id="node4" class="node">
<title>basin</title>
<ellipse fill="none" stroke="black" cx="602.81" cy="-41" rx="29.5" ry="18"/>
<text text-anchor="middle" x="602.81" y="-37.3" font-family="Times,serif" font-size="14.00">basin</text>
</g>
<!-- Reservoir(5)
&lt;20&gt;[0.02]&#45;&gt;basin -->
<g id="edge3" class="edge">
<title>Reservoir(5)
&lt;20&gt;[0.02]&#45;&gt;basin</title>
<path fill="none" stroke="black" d="M602.81,-94.61C602.81,-86.51 602.81,-77.57 602.81,-69.39"/>
<polygon fill="black" stroke="black" points="606.31,-69.22 602.81,-59.22 599.31,-69.22 606.31,-69.22"/>
</g>
<!-- Alfalfa 2(2)
&lt;2&gt;[0.07546] -->
<g id="node5" class="node">
<title>Alfalfa 2(2)
&lt;2&gt;[0.07546]</title>
<ellipse fill="none" stroke="black" cx="121.81" cy="-391.09" rx="65.52" ry="26.74"/>
<text text-anchor="middle" x="121.81" y="-394.89" font-family="Times,serif" font-size="14.00">Alfalfa 2(2)</text>
<text text-anchor="middle" x="121.81" y="-379.89" font-family="Times,serif" font-size="14.00">&lt;2&gt;[0.07546]</text>
</g>
<!-- Alfalfa 2(2)
&lt;2&gt;[0.07546]&#45;&gt;Channel(7)
&lt;19&gt;[0.01] -->
<g id="edge4" class="edge">
<title>Alfalfa 2(2)
&lt;2&gt;[0.07546]&#45;&gt;Channel(7)
&lt;19&gt;[0.01]</title>
<path fill="none" stroke="black" d="M132.23,-364.26C144.59,-337.19 167.88,-295.72 201.81,-274.48 256.38,-240.32 437.45,-223.4 536.56,-216.52"/>
<polygon fill="black" stroke="black" points="537.02,-219.99 546.76,-215.82 536.55,-213.01 537.02,-219.99"/>
</g>
<!-- Alfalfa 3(3)
&lt;3&gt;[0.08513] -->
<g id="node6" class="node">
<title>Alfalfa 3(3)
&lt;3&gt;[0.08513]</title>
<ellipse fill="none" stroke="black" cx="159.81" cy="-480.83" rx="65.52" ry="26.74"/>
<text text-anchor="middle" x="159.81" y="-484.63" font-family="Times,serif" font-size="14.00">Alfalfa 3(3)</text>
<text text-anchor="middle" x="159.81" y="-469.63" font-family="Times,serif" font-size="14.00">&lt;3&gt;[0.08513]</text>
</g>
<!-- Alfalfa 3(3)
&lt;3&gt;[0.08513]&#45;&gt;Channel(7)
&lt;19&gt;[0.01] -->
<g id="edge5" class="edge">
<title>Alfalfa 3(3)
&lt;3&gt;[0.08513]&#45;&gt;Channel(7)
&lt;19&gt;[0.01]</title>
<path fill="none" stroke="black" d="M176.77,-454.71C183.65,-443.75 191.26,-430.56 196.81,-417.96 223.66,-357.04 189.95,-318.59 239.81,-274.48 282.79,-236.46 444,-221.34 536.48,-215.7"/>
<polygon fill="black" stroke="black" points="536.81,-219.18 546.58,-215.1 536.4,-212.2 536.81,-219.18"/>
</g>
<!-- Alfalfa 4(4)
&lt;4&gt;[0.1425] -->
<g id="node7" class="node">
<title>Alfalfa 4(4)
&lt;4&gt;[0.1425]</title>
<ellipse fill="none" stroke="black" cx="202.81" cy="-570.57" rx="60.62" ry="26.74"/>
<text text-anchor="middle" x="202.81" y="-574.37" font-family="Times,serif" font-size="14.00">Alfalfa 4(4)</text>
<text text-anchor="middle" x="202.81" y="-559.37" font-family="Times,serif" font-size="14.00">&lt;4&gt;[0.1425]</text>
</g>
<!-- Alfalfa 4(4)
&lt;4&gt;[0.1425]&#45;&gt;Channel(7)
&lt;19&gt;[0.01] -->
<g id="edge6" class="edge">
<title>Alfalfa 4(4)
&lt;4&gt;[0.1425]&#45;&gt;Channel(7)
&lt;19&gt;[0.01]</title>
<path fill="none" stroke="black" d="M217.96,-544.43C223.99,-533.48 230.5,-520.29 234.81,-507.7 268.95,-407.98 203.5,-349.23 277.81,-274.48 313.27,-238.81 452.31,-222.99 536.62,-216.55"/>
<polygon fill="black" stroke="black" points="536.91,-220.04 546.62,-215.81 536.39,-213.06 536.91,-220.04"/>
</g>
<!-- Fescue (grass seed)(6)
&lt;5&gt;[0.05066] -->
<g id="node8" class="node">
<title>Fescue (grass seed)(6)
&lt;5&gt;[0.05066]</title>
<ellipse fill="none" stroke="black" cx="203.81" cy="-660.31" rx="97.66" ry="26.74"/>
<text text-anchor="middle" x="203.81" y="-664.11" font-family="Times,serif" font-size="14.00">Fescue (grass seed)(6)</text>
<text text-anchor="middle" x="203.81" y="-649.11" font-family="Times,serif" font-size="14.00">&lt;5&gt;[0.05066]</text>
</g>
<!-- Fescue (grass seed)(6)
&lt;5&gt;[0.05066]&#45;&gt;Channel(7)
&lt;19&gt;[0.01] -->
<g id="edge7" class="edge">
<title>Fescue (grass seed)(6)
&lt;5&gt;[0.05066]&#45;&gt;Channel(7)
&lt;19&gt;[0.01]</title>
<path fill="none" stroke="black" d="M239.76,-635C252.12,-624.83 264.85,-611.97 272.81,-597.44 297.84,-551.78 291.81,-533.9 291.81,-481.83 291.81,-481.83 291.81,-481.83 291.81,-390.09 291.81,-337.61 278.85,-311.73 315.81,-274.48 346.24,-243.81 462.23,-226.63 537.11,-218.52"/>
<polygon fill="black" stroke="black" points="537.81,-221.97 547.39,-217.44 537.08,-215.01 537.81,-221.97"/>
</g>
<!-- Flax/Linola 1(8)
&lt;6&gt;[0.2791] -->
<g id="node9" class="node">
<title>Flax/Linola 1(8)
&lt;6&gt;[0.2791]</title>
<ellipse fill="none" stroke="black" cx="264.81" cy="-750.05" rx="74.91" ry="26.74"/>
<text text-anchor="middle" x="264.81" y="-753.85" font-family="Times,serif" font-size="14.00">Flax/Linola 1(8)</text>
<text text-anchor="middle" x="264.81" y="-738.85" font-family="Times,serif" font-size="14.00">&lt;6&gt;[0.2791]</text>
</g>
<!-- Flax/Linola 1(8)
&lt;6&gt;[0.2791]&#45;&gt;Channel(7)
&lt;19&gt;[0.01] -->
<g id="edge8" class="edge">
<title>Flax/Linola 1(8)
&lt;6&gt;[0.2791]&#45;&gt;Channel(7)
&lt;19&gt;[0.01]</title>
<path fill="none" stroke="black" d="M287.5,-724.27C296.1,-713.58 305.17,-700.49 310.81,-687.18 331.14,-639.24 329.81,-623.64 329.81,-571.57 329.81,-571.57 329.81,-571.57 329.81,-390.09 329.81,-337.61 317.43,-312.3 353.81,-274.48 379.02,-248.27 473.35,-230.33 538.38,-220.77"/>
<polygon fill="black" stroke="black" points="539.16,-224.19 548.56,-219.31 538.16,-217.26 539.16,-224.19"/>
</g>
<!-- Flax/Linola 2(9)
&lt;7&gt;[0.2339] -->
<g id="node10" class="node">
<title>Flax/Linola 2(9)
&lt;7&gt;[0.2339]</title>
<ellipse fill="none" stroke="black" cx="367.81" cy="-839.79" rx="74.91" ry="26.74"/>
<text text-anchor="middle" x="367.81" y="-843.59" font-family="Times,serif" font-size="14.00">Flax/Linola 2(9)</text>
<text text-anchor="middle" x="367.81" y="-828.59" font-family="Times,serif" font-size="14.00">&lt;7&gt;[0.2339]</text>
</g>
<!-- Flax/Linola 2(9)
&lt;7&gt;[0.2339]&#45;&gt;Channel(7)
&lt;19&gt;[0.01] -->
<g id="edge9" class="edge">
<title>Flax/Linola 2(9)
&lt;7&gt;[0.2339]&#45;&gt;Channel(7)
&lt;19&gt;[0.01]</title>
<path fill="none" stroke="black" d="M367.81,-812.63C367.81,-778.01 367.81,-715.08 367.81,-661.31 367.81,-661.31 367.81,-661.31 367.81,-390.09 367.81,-338.02 352.19,-313.37 386.81,-274.48 424.1,-232.59 487.63,-218.24 536.17,-213.7"/>
<polygon fill="black" stroke="black" points="536.61,-217.18 546.29,-212.88 536.04,-210.2 536.61,-217.18"/>
</g>
<!-- Flax/Linola 3(10)
&lt;8&gt;[0.3428] -->
<g id="node11" class="node">
<title>Flax/Linola 3(10)
&lt;8&gt;[0.3428]</title>
<ellipse fill="none" stroke="black" cx="475.81" cy="-301.35" rx="79.81" ry="26.74"/>
<text text-anchor="middle" x="475.81" y="-305.15" font-family="Times,serif" font-size="14.00">Flax/Linola 3(10)</text>
<text text-anchor="middle" x="475.81" y="-290.15" font-family="Times,serif" font-size="14.00">&lt;8&gt;[0.3428]</text>
</g>
<!-- Flax/Linola 3(10)
&lt;8&gt;[0.3428]&#45;&gt;Channel(7)
&lt;19&gt;[0.01] -->
<g id="edge10" class="edge">
<title>Flax/Linola 3(10)
&lt;8&gt;[0.3428]&#45;&gt;Channel(7)
&lt;19&gt;[0.01]</title>
<path fill="none" stroke="black" d="M509.84,-276.84C526.24,-265.51 546,-251.86 563.08,-240.06"/>
<polygon fill="black" stroke="black" points="565.49,-242.65 571.73,-234.08 561.51,-236.89 565.49,-242.65"/>
</g>
<!-- Flax/Linola 4(11)
&lt;9&gt;[0.2035] -->
<g id="node12" class="node">
<title>Flax/Linola 4(11)
&lt;9&gt;[0.2035]</title>
<ellipse fill="none" stroke="black" cx="513.81" cy="-391.09" rx="79.81" ry="26.74"/>
<text text-anchor="middle" x="513.81" y="-394.89" font-family="Times,serif" font-size="14.00">Flax/Linola 4(11)</text>
<text text-anchor="middle" x="513.81" y="-379.89" font-family="Times,serif" font-size="14.00">&lt;9&gt;[0.2035]</text>
</g>
<!-- Flax/Linola 4(11)
&lt;9&gt;[0.2035]&#45;&gt;Channel(7)
&lt;19&gt;[0.01] -->
<g id="edge11" class="edge">
<title>Flax/Linola 4(11)
&lt;9&gt;[0.2035]&#45;&gt;Channel(7)
&lt;19&gt;[0.01]</title>
<path fill="none" stroke="black" d="M537.97,-365.17C547.35,-354.46 557.56,-341.39 564.81,-328.22 578.66,-303.07 588.52,-272.05 594.71,-248.47"/>
<polygon fill="black" stroke="black" points="598.17,-249.09 597.23,-238.54 591.38,-247.37 598.17,-249.09"/>
</g>
<!-- Flax/Linola 5(12)
&lt;10&gt;[0.0001125] -->
<g id="node13" class="node">
<title>Flax/Linola 5(12)
&lt;10&gt;[0.0001125]</title>
<ellipse fill="none" stroke="black" cx="551.81" cy="-480.83" rx="79.81" ry="26.74"/>
<text text-anchor="middle" x="551.81" y="-484.63" font-family="Times,serif" font-size="14.00">Flax/Linola 5(12)</text>
<text text-anchor="middle" x="551.81" y="-469.63" font-family="Times,serif" font-size="14.00">&lt;10&gt;[0.0001125]</text>
</g>
<!-- Flax/Linola 5(12)
&lt;10&gt;[0.0001125]&#45;&gt;Channel(7)
&lt;19&gt;[0.01] -->
<g id="edge12" class="edge">
<title>Flax/Linola 5(12)
&lt;10&gt;[0.0001125]&#45;&gt;Channel(7)
&lt;19&gt;[0.01]</title>
<path fill="none" stroke="black" d="M578.69,-455.3C588.22,-444.84 597.83,-431.85 602.81,-417.96 623.08,-361.51 616.71,-290.56 609.96,-248.56"/>
<polygon fill="black" stroke="black" points="613.38,-247.8 608.25,-238.53 606.48,-248.97 613.38,-247.8"/>
</g>
<!-- Forage(13)
&lt;11&gt;[0.01663] -->
<g id="node14" class="node">
<title>Forage(13)
&lt;11&gt;[0.01663]</title>
<ellipse fill="none" stroke="black" cx="598.81" cy="-570.57" rx="70.92" ry="26.74"/>
<text text-anchor="middle" x="598.81" y="-574.37" font-family="Times,serif" font-size="14.00">Forage(13)</text>
<text text-anchor="middle" x="598.81" y="-559.37" font-family="Times,serif" font-size="14.00">&lt;11&gt;[0.01663]</text>
</g>
<!-- Forage(13)
&lt;11&gt;[0.01663]&#45;&gt;Channel(7)
&lt;19&gt;[0.01] -->
<g id="edge13" class="edge">
<title>Forage(13)
&lt;11&gt;[0.01663]&#45;&gt;Channel(7)
&lt;19&gt;[0.01]</title>
<path fill="none" stroke="black" d="M620.56,-544.88C628.57,-534.21 636.69,-521.1 640.81,-507.7 653.36,-466.87 655.68,-381.87 629.81,-274.48 627.59,-265.28 624.09,-255.72 620.33,-246.95"/>
<polygon fill="black" stroke="black" points="623.5,-245.47 616.19,-237.8 617.12,-248.35 623.5,-245.47"/>
</g>
<!-- Riparian forest(14)
&lt;12&gt;[1.847] -->
<g id="node15" class="node">
<title>Riparian forest(14)
&lt;12&gt;[1.847]</title>
<ellipse fill="none" stroke="black" cx="622.81" cy="-660.31" rx="84.71" ry="26.74"/>
<text text-anchor="middle" x="622.81" y="-664.11" font-family="Times,serif" font-size="14.00">Riparian forest(14)</text>
<text text-anchor="middle" x="622.81" y="-649.11" font-family="Times,serif" font-size="14.00">&lt;12&gt;[1.847]</text>
</g>
<!-- Riparian forest(14)
&lt;12&gt;[1.847]&#45;&gt;Channel(7)
&lt;19&gt;[0.01] -->
<g id="edge14" class="edge">
<title>Riparian forest(14)
&lt;12&gt;[1.847]&#45;&gt;Channel(7)
&lt;19&gt;[0.01]</title>
<path fill="none" stroke="black" d="M651.09,-634.73C661.39,-624.26 672.14,-611.27 678.81,-597.44 701.43,-550.54 697.81,-533.9 697.81,-481.83 697.81,-481.83 697.81,-481.83 697.81,-390.09 697.81,-333.47 659.76,-277.43 631.82,-243.92"/>
<polygon fill="black" stroke="black" points="634.48,-241.64 625.32,-236.3 629.15,-246.18 634.48,-241.64"/>
</g>
<!-- Road(15)
&lt;13&gt;[0.04636] -->
<g id="node16" class="node">
<title>Road(15)
&lt;13&gt;[0.04636]</title>
<ellipse fill="none" stroke="black" cx="674.81" cy="-750.05" rx="70.92" ry="26.74"/>
<text text-anchor="middle" x="674.81" y="-753.85" font-family="Times,serif" font-size="14.00">Road(15)</text>
<text text-anchor="middle" x="674.81" y="-738.85" font-family="Times,serif" font-size="14.00">&lt;13&gt;[0.04636]</text>
</g>
<!-- Road(15)
&lt;13&gt;[0.04636]&#45;&gt;Channel(7)
&lt;19&gt;[0.01] -->
<g id="edge15" class="edge">
<title>Road(15)
&lt;13&gt;[0.04636]&#45;&gt;Channel(7)
&lt;19&gt;[0.01]</title>
<path fill="none" stroke="black" d="M695.27,-724.28C703.17,-713.49 711.57,-700.32 716.81,-687.18 736.11,-638.82 735.81,-623.64 735.81,-571.57 735.81,-571.57 735.81,-571.57 735.81,-390.09 735.81,-333.93 719.68,-318.5 684.81,-274.48 674.08,-260.94 659.73,-248.78 646.03,-238.9"/>
<polygon fill="black" stroke="black" points="647.83,-235.89 637.62,-233.06 643.83,-241.64 647.83,-235.89"/>
</g>
<!-- Unknown structure(16)
&lt;14&gt;[0.01568] -->
<g id="node17" class="node">
<title>Unknown structure(16)
&lt;14&gt;[0.01568]</title>
<ellipse fill="none" stroke="black" cx="773.81" cy="-839.79" rx="101.23" ry="26.74"/>
<text text-anchor="middle" x="773.81" y="-843.59" font-family="Times,serif" font-size="14.00">Unknown structure(16)</text>
<text text-anchor="middle" x="773.81" y="-828.59" font-family="Times,serif" font-size="14.00">&lt;14&gt;[0.01568]</text>
</g>
<!-- Unknown structure(16)
&lt;14&gt;[0.01568]&#45;&gt;Channel(7)
&lt;19&gt;[0.01] -->
<g id="edge16" class="edge">
<title>Unknown structure(16)
&lt;14&gt;[0.01568]&#45;&gt;Channel(7)
&lt;19&gt;[0.01]</title>
<path fill="none" stroke="black" d="M773.81,-812.63C773.81,-778.01 773.81,-715.08 773.81,-661.31 773.81,-661.31 773.81,-661.31 773.81,-390.09 773.81,-333.19 758.11,-315.63 718.81,-274.48 701.65,-256.51 678.1,-242.63 656.7,-232.62"/>
<polygon fill="black" stroke="black" points="657.93,-229.33 647.37,-228.42 655.06,-235.72 657.93,-229.33"/>
</g>
<!-- Wheat 1(17)
&lt;15&gt;[0.1105] -->
<g id="node18" class="node">
<title>Wheat 1(17)
&lt;15&gt;[0.1105]</title>
<ellipse fill="none" stroke="black" cx="867.81" cy="-301.35" rx="65.52" ry="26.74"/>
<text text-anchor="middle" x="867.81" y="-305.15" font-family="Times,serif" font-size="14.00">Wheat 1(17)</text>
<text text-anchor="middle" x="867.81" y="-290.15" font-family="Times,serif" font-size="14.00">&lt;15&gt;[0.1105]</text>
</g>
<!-- Wheat 1(17)
&lt;15&gt;[0.1105]&#45;&gt;Channel(7)
&lt;19&gt;[0.01] -->
<g id="edge17" class="edge">
<title>Wheat 1(17)
&lt;15&gt;[0.1105]&#45;&gt;Channel(7)
&lt;19&gt;[0.01]</title>
<path fill="none" stroke="black" d="M817.66,-283.74C772.13,-268.67 705.11,-246.48 658.06,-230.9"/>
<polygon fill="black" stroke="black" points="658.93,-227.5 648.34,-227.68 656.73,-234.15 658.93,-227.5"/>
</g>
<!-- Wheat 2(18)
&lt;16&gt;[0.26] -->
<g id="node19" class="node">
<title>Wheat 2(18)
&lt;16&gt;[0.26]</title>
<ellipse fill="none" stroke="black" cx="959.81" cy="-391.09" rx="60.62" ry="26.74"/>
<text text-anchor="middle" x="959.81" y="-394.89" font-family="Times,serif" font-size="14.00">Wheat 2(18)</text>
<text text-anchor="middle" x="959.81" y="-379.89" font-family="Times,serif" font-size="14.00">&lt;16&gt;[0.26]</text>
</g>
<!-- Wheat 2(18)
&lt;16&gt;[0.26]&#45;&gt;Channel(7)
&lt;19&gt;[0.01] -->
<g id="edge18" class="edge">
<title>Wheat 2(18)
&lt;16&gt;[0.26]&#45;&gt;Channel(7)
&lt;19&gt;[0.01]</title>
<path fill="none" stroke="black" d="M963.9,-363.85C966.38,-337.64 965.51,-297.97 942.81,-274.48 905.86,-236.25 757.11,-221.3 669.07,-215.72"/>
<polygon fill="black" stroke="black" points="669.11,-212.22 658.91,-215.1 668.68,-219.2 669.11,-212.22"/>
</g>
<!-- Wheat 3(19)
&lt;17&gt;[0.1223] -->
<g id="node20" class="node">
<title>Wheat 3(19)
&lt;17&gt;[0.1223]</title>
<ellipse fill="none" stroke="black" cx="1102.81" cy="-301.35" rx="65.52" ry="26.74"/>
<text text-anchor="middle" x="1102.81" y="-305.15" font-family="Times,serif" font-size="14.00">Wheat 3(19)</text>
<text text-anchor="middle" x="1102.81" y="-290.15" font-family="Times,serif" font-size="14.00">&lt;17&gt;[0.1223]</text>
</g>
<!-- Wheat 3(19)
&lt;17&gt;[0.1223]&#45;&gt;Channel(7)
&lt;19&gt;[0.01] -->
<g id="edge19" class="edge">
<title>Wheat 3(19)
&lt;17&gt;[0.1223]&#45;&gt;Channel(7)
&lt;19&gt;[0.01]</title>
<path fill="none" stroke="black" d="M1053.12,-283.49C1042.23,-280.18 1030.7,-276.97 1019.81,-274.48 896.87,-246.38 750.5,-228.08 667.95,-219.11"/>
<polygon fill="black" stroke="black" points="668.28,-215.63 657.96,-218.04 667.53,-222.59 668.28,-215.63"/>
</g>
<!-- Wheat 4(20)
&lt;18&gt;[0.7121] -->
<g id="node21" class="node">
<title>Wheat 4(20)
&lt;18&gt;[0.7121]</title>
<ellipse fill="none" stroke="black" cx="1104.81" cy="-391.09" rx="65.52" ry="26.74"/>
<text text-anchor="middle" x="1104.81" y="-394.89" font-family="Times,serif" font-size="14.00">Wheat 4(20)</text>
<text text-anchor="middle" x="1104.81" y="-379.89" font-family="Times,serif" font-size="14.00">&lt;18&gt;[0.7121]</text>
</g>
<!-- Wheat 4(20)
&lt;18&gt;[0.7121]&#45;&gt;Channel(7)
&lt;19&gt;[0.01] -->
<g id="edge20" class="edge">
<title>Wheat 4(20)
&lt;18&gt;[0.7121]&#45;&gt;Channel(7)
&lt;19&gt;[0.01]</title>
<path fill="none" stroke="black" d="M1075.26,-366.95C1060.81,-355.48 1043.24,-341.31 1027.81,-328.22 1000.51,-305.06 1000.06,-290.02 967.81,-274.48 871.32,-227.97 745.77,-215.8 669.89,-212.96"/>
<polygon fill="black" stroke="black" points="669.63,-209.45 659.52,-212.62 669.4,-216.45 669.63,-209.45"/>
</g>
<!-- Wheat 4(20)
&lt;18&gt;[0.7121]&#45;&gt;Wheat 3(19)
&lt;17&gt;[0.1223] -->
<g id="edge21" class="edge">
<title>Wheat 4(20)
&lt;18&gt;[0.7121]&#45;&gt;Wheat 3(19)
&lt;17&gt;[0.1223]</title>
<path fill="none" stroke="black" d="M1104.21,-363.77C1104.03,-355.8 1103.83,-346.91 1103.63,-338.42"/>
<polygon fill="black" stroke="black" points="1107.13,-338.27 1103.4,-328.35 1100.13,-338.43 1107.13,-338.27"/>
</g>
</g>
</svg>
