<?xml version="1.0" encoding="UTF-8" standalone="no"?>
<!DOCTYPE svg PUBLIC "-//W3C//DTD SVG 1.1//EN"
 "http://www.w3.org/Graphics/SVG/1.1/DTD/svg11.dtd">
<!-- Generated by graphviz version 2.43.0 (0)
 -->
<!-- Pages: 1 -->
<svg width="664pt" height="211pt"
 viewBox="0.00 0.00 664.00 211.00" xmlns="http://www.w3.org/2000/svg" xmlns:xlink="http://www.w3.org/1999/xlink">
<g id="graph0" class="graph" transform="scale(1 1) rotate(0) translate(4 207)">
<polygon fill="white" stroke="transparent" points="-4,4 -4,-207 660,-207 660,4 -4,4"/>
<text text-anchor="middle" x="328" y="-7.8" font-family="Times,serif" font-size="14.00">REW</text>
<!-- Madill (A) -->
<g id="node1" class="node">
<title>Madill (A)</title>
<ellipse fill="none" stroke="black" cx="121" cy="-185" rx="49.29" ry="18"/>
<text text-anchor="middle" x="121" y="-181.3" font-family="Times,serif" font-size="14.00">Madill (A)</text>
</g>
<!-- HWY240 (G) -->
<g id="node2" class="node">
<title>HWY240 (G)</title>
<ellipse fill="none" stroke="black" cx="377" cy="-113" rx="59.59" ry="18"/>
<text text-anchor="middle" x="377" y="-109.3" font-family="Times,serif" font-size="14.00">HWY240 (G)</text>
</g>
<!-- Madill (A)&#45;&gt;HWY240 (G) -->
<g id="edge1" class="edge">
<title>Madill (A)&#45;&gt;HWY240 (G)</title>
<path fill="none" stroke="black" d="M158.09,-172.99C165.03,-170.97 172.23,-168.9 179,-167 227.8,-153.32 283.59,-138.45 323.48,-127.96"/>
<polygon fill="black" stroke="black" points="324.49,-131.31 333.27,-125.39 322.71,-124.54 324.49,-131.31"/>
</g>
<!-- Miami (M) -->
<g id="node8" class="node">
<title>Miami (M)</title>
<ellipse fill="none" stroke="black" cx="429" cy="-41" rx="51.99" ry="18"/>
<text text-anchor="middle" x="429" y="-37.3" font-family="Times,serif" font-size="14.00">Miami (M)</text>
</g>
<!-- HWY240 (G)&#45;&gt;Miami (M) -->
<g id="edge7" class="edge">
<title>HWY240 (G)&#45;&gt;Miami (M)</title>
<path fill="none" stroke="black" d="M389.59,-95.05C395.85,-86.63 403.54,-76.28 410.45,-66.97"/>
<polygon fill="black" stroke="black" points="413.37,-68.9 416.53,-58.79 407.76,-64.73 413.37,-68.9"/>
</g>
<!-- Steppler (B) -->
<g id="node3" class="node">
<title>Steppler (B)</title>
<ellipse fill="none" stroke="black" cx="242" cy="-185" rx="53.89" ry="18"/>
<text text-anchor="middle" x="242" y="-181.3" font-family="Times,serif" font-size="14.00">Steppler (B)</text>
</g>
<!-- Steppler (B)&#45;&gt;HWY240 (G) -->
<g id="edge2" class="edge">
<title>Steppler (B)&#45;&gt;HWY240 (G)</title>
<path fill="none" stroke="black" d="M269.97,-169.5C289.97,-159.12 317.13,-145.04 339.08,-133.66"/>
<polygon fill="black" stroke="black" points="340.87,-136.68 348.13,-128.97 337.64,-130.46 340.87,-136.68"/>
</g>
<!-- C -->
<g id="node4" class="node">
<title>C</title>
<ellipse fill="none" stroke="black" cx="341" cy="-185" rx="27" ry="18"/>
<text text-anchor="middle" x="341" y="-181.3" font-family="Times,serif" font-size="14.00">C</text>
</g>
<!-- C&#45;&gt;HWY240 (G) -->
<g id="edge3" class="edge">
<title>C&#45;&gt;HWY240 (G)</title>
<path fill="none" stroke="black" d="M349.35,-167.76C353.54,-159.61 358.73,-149.53 363.47,-140.31"/>
<polygon fill="black" stroke="black" points="366.73,-141.62 368.19,-131.12 360.51,-138.42 366.73,-141.62"/>
</g>
<!-- D -->
<g id="node5" class="node">
<title>D</title>
<ellipse fill="none" stroke="black" cx="413" cy="-185" rx="27" ry="18"/>
<text text-anchor="middle" x="413" y="-181.3" font-family="Times,serif" font-size="14.00">D</text>
</g>
<!-- D&#45;&gt;HWY240 (G) -->
<g id="edge4" class="edge">
<title>D&#45;&gt;HWY240 (G)</title>
<path fill="none" stroke="black" d="M404.65,-167.76C400.46,-159.61 395.27,-149.53 390.53,-140.31"/>
<polygon fill="black" stroke="black" points="393.49,-138.42 385.81,-131.12 387.27,-141.62 393.49,-138.42"/>
</g>
<!-- E -->
<g id="node6" class="node">
<title>E</title>
<ellipse fill="none" stroke="black" cx="485" cy="-185" rx="27" ry="18"/>
<text text-anchor="middle" x="485" y="-181.3" font-family="Times,serif" font-size="14.00">E</text>
</g>
<!-- E&#45;&gt;HWY240 (G) -->
<g id="edge5" class="edge">
<title>E&#45;&gt;HWY240 (G)</title>
<path fill="none" stroke="black" d="M466.19,-171.81C450.64,-161.73 428.2,-147.19 409.72,-135.21"/>
<polygon fill="black" stroke="black" points="411.57,-132.24 401.28,-129.74 407.77,-138.11 411.57,-132.24"/>
</g>
<!-- F -->
<g id="node7" class="node">
<title>F</title>
<ellipse fill="none" stroke="black" cx="557" cy="-185" rx="27" ry="18"/>
<text text-anchor="middle" x="557" y="-181.3" font-family="Times,serif" font-size="14.00">F</text>
</g>
<!-- F&#45;&gt;HWY240 (G) -->
<g id="edge6" class="edge">
<title>F&#45;&gt;HWY240 (G)</title>
<path fill="none" stroke="black" d="M535.82,-173.62C530.99,-171.35 525.84,-169.03 521,-167 489.24,-153.69 452.84,-140.31 424.59,-130.32"/>
<polygon fill="black" stroke="black" points="425.55,-126.95 414.95,-126.94 423.23,-133.55 425.55,-126.95"/>
</g>
<!-- Miami (M)&#45;&gt;Miami (M) -->
<g id="edge13" class="edge">
<title>Miami (M)&#45;&gt;Miami (M)</title>
<path fill="none" stroke="black" d="M465.01,-54.1C482.97,-55.91 499,-51.55 499,-41 499,-32.51 488.62,-28.03 475.21,-27.54"/>
<polygon fill="black" stroke="black" points="474.89,-24.05 465.01,-27.9 475.13,-31.05 474.89,-24.05"/>
</g>
<!-- H -->
<g id="node9" class="node">
<title>H</title>
<ellipse fill="none" stroke="black" cx="27" cy="-185" rx="27" ry="18"/>
<text text-anchor="middle" x="27" y="-181.3" font-family="Times,serif" font-size="14.00">H</text>
</g>
<!-- I -->
<g id="node10" class="node">
<title>I</title>
<ellipse fill="none" stroke="black" cx="168" cy="-113" rx="27" ry="18"/>
<text text-anchor="middle" x="168" y="-109.3" font-family="Times,serif" font-size="14.00">I</text>
</g>
<!-- H&#45;&gt;I -->
<g id="edge8" class="edge">
<title>H&#45;&gt;I</title>
<path fill="none" stroke="black" d="M48.11,-173.52C71.89,-161.72 110.73,-142.43 137.73,-129.03"/>
<polygon fill="black" stroke="black" points="139.35,-132.13 146.75,-124.55 136.23,-125.86 139.35,-132.13"/>
</g>
<!-- I&#45;&gt;Miami (M) -->
<g id="edge9" class="edge">
<title>I&#45;&gt;Miami (M)</title>
<path fill="none" stroke="black" d="M192.55,-105.41C235.17,-93.98 323.61,-70.27 379.42,-55.3"/>
<polygon fill="black" stroke="black" points="380.35,-58.67 389.11,-52.7 378.54,-51.91 380.35,-58.67"/>
</g>
<!-- J -->
<g id="node11" class="node">
<title>J</title>
<ellipse fill="none" stroke="black" cx="629" cy="-185" rx="27" ry="18"/>
<text text-anchor="middle" x="629" y="-181.3" font-family="Times,serif" font-size="14.00">J</text>
</g>
<!-- K -->
<g id="node12" class="node">
<title>K</title>
<ellipse fill="none" stroke="black" cx="482" cy="-113" rx="27" ry="18"/>
<text text-anchor="middle" x="482" y="-109.3" font-family="Times,serif" font-size="14.00">K</text>
</g>
<!-- J&#45;&gt;K -->
<g id="edge10" class="edge">
<title>J&#45;&gt;K</title>
<path fill="none" stroke="black" d="M607.62,-173.82C582.59,-161.9 540.92,-142.06 512.49,-128.52"/>
<polygon fill="black" stroke="black" points="513.93,-125.33 503.4,-124.19 510.92,-131.65 513.93,-125.33"/>
</g>
<!-- K&#45;&gt;Miami (M) -->
<g id="edge11" class="edge">
<title>K&#45;&gt;Miami (M)</title>
<path fill="none" stroke="black" d="M470.24,-96.46C463.73,-87.87 455.48,-76.97 448.07,-67.19"/>
<polygon fill="black" stroke="black" points="450.67,-64.82 441.84,-58.96 445.09,-69.05 450.67,-64.82"/>
</g>
<!-- L -->
<g id="node13" class="node">
<title>L</title>
<ellipse fill="none" stroke="black" cx="554" cy="-113" rx="27" ry="18"/>
<text text-anchor="middle" x="554" y="-109.3" font-family="Times,serif" font-size="14.00">L</text>
</g>
<!-- L&#45;&gt;Miami (M) -->
<g id="edge12" class="edge">
<title>L&#45;&gt;Miami (M)</title>
<path fill="none" stroke="black" d="M533.92,-100.75C515.11,-90.22 486.61,-74.26 464.06,-61.63"/>
<polygon fill="black" stroke="black" points="465.55,-58.46 455.12,-56.63 462.13,-64.56 465.55,-58.46"/>
</g>
</g>
</svg>
