<?xml version="1.0" encoding="UTF-8" standalone="no"?>
<!DOCTYPE svg PUBLIC "-//W3C//DTD SVG 1.1//EN"
 "http://www.w3.org/Graphics/SVG/1.1/DTD/svg11.dtd">
<!-- Generated by graphviz version 2.43.0 (0)
 -->
<!-- Title: TEST Pages: 1 -->
<svg width="966pt" height="426pt"
 viewBox="0.00 0.00 965.67 425.96" xmlns="http://www.w3.org/2000/svg" xmlns:xlink="http://www.w3.org/1999/xlink">
<g id="graph0" class="graph" transform="scale(1 1) rotate(0) translate(4 421.96)">
<title>TEST</title>
<polygon fill="white" stroke="transparent" points="-4,4 -4,-421.96 961.67,-421.96 961.67,4 -4,4"/>
<text text-anchor="middle" x="478.84" y="-7.8" font-family="Times,serif" font-size="14.00">A_final_final_Madill_parameter_test_base_case_cal_new_excellent_2006_2007_old_setting_new_1_GrpA</text>
<!-- Riparian_1(1)
&lt;9&gt;[0.3837] -->
<g id="node1" class="node">
<title>Riparian_1(1)
&lt;9&gt;[0.3837]</title>
<ellipse fill="none" stroke="black" cx="550.81" cy="-301.35" rx="65.11" ry="26.74"/>
<text text-anchor="middle" x="550.81" y="-305.15" font-family="Times,serif" font-size="14.00">Riparian_1(1)</text>
<text text-anchor="middle" x="550.81" y="-290.15" font-family="Times,serif" font-size="14.00">&lt;9&gt;[0.3837]</text>
</g>
<!-- Channel(7)
&lt;10&gt;[0.001] -->
<g id="node2" class="node">
<title>Channel(7)
&lt;10&gt;[0.001]</title>
<ellipse fill="none" stroke="black" cx="340.81" cy="-211.61" rx="60.62" ry="26.74"/>
<text text-anchor="middle" x="340.81" y="-215.41" font-family="Times,serif" font-size="14.00">Channel(7)</text>
<text text-anchor="middle" x="340.81" y="-200.41" font-family="Times,serif" font-size="14.00">&lt;10&gt;[0.001]</text>
</g>
<!-- Riparian_1(1)
&lt;9&gt;[0.3837]&#45;&gt;Channel(7)
&lt;10&gt;[0.001] -->
<g id="edge1" class="edge">
<title>Riparian_1(1)
&lt;9&gt;[0.3837]&#45;&gt;Channel(7)
&lt;10&gt;[0.001]</title>
<path fill="none" stroke="black" d="M506.28,-281.74C473.37,-267.99 428.45,-249.23 393.71,-234.71"/>
<polygon fill="black" stroke="black" points="394.78,-231.37 384.2,-230.74 392.08,-237.82 394.78,-231.37"/>
</g>
<!-- Reservoir(5)
&lt;11&gt;[0.035] -->
<g id="node3" class="node">
<title>Reservoir(5)
&lt;11&gt;[0.035]</title>
<ellipse fill="none" stroke="black" cx="340.81" cy="-121.87" rx="60.62" ry="26.74"/>
<text text-anchor="middle" x="340.81" y="-125.67" font-family="Times,serif" font-size="14.00">Reservoir(5)</text>
<text text-anchor="middle" x="340.81" y="-110.67" font-family="Times,serif" font-size="14.00">&lt;11&gt;[0.035]</text>
</g>
<!-- Channel(7)
&lt;10&gt;[0.001]&#45;&gt;Reservoir(5)
&lt;11&gt;[0.035] -->
<g id="edge2" class="edge">
<title>Channel(7)
&lt;10&gt;[0.001]&#45;&gt;Reservoir(5)
&lt;11&gt;[0.035]</title>
<path fill="none" stroke="black" d="M340.81,-184.29C340.81,-176.32 340.81,-167.43 340.81,-158.94"/>
<polygon fill="black" stroke="black" points="344.31,-158.87 340.81,-148.87 337.31,-158.87 344.31,-158.87"/>
</g>
<!-- basin -->
<g id="node8" class="node">
<title>basin</title>
<ellipse fill="none" stroke="black" cx="340.81" cy="-41" rx="29.5" ry="18"/>
<text text-anchor="middle" x="340.81" y="-37.3" font-family="Times,serif" font-size="14.00">basin</text>
</g>
<!-- Reservoir(5)
&lt;11&gt;[0.035]&#45;&gt;basin -->
<g id="edge7" class="edge">
<title>Reservoir(5)
&lt;11&gt;[0.035]&#45;&gt;basin</title>
<path fill="none" stroke="black" d="M340.81,-94.61C340.81,-86.51 340.81,-77.57 340.81,-69.39"/>
<polygon fill="black" stroke="black" points="344.31,-69.22 340.81,-59.22 337.31,-69.22 344.31,-69.22"/>
</g>
<!-- Riparian_2(2)
&lt;8&gt;[0.2095] -->
<g id="node4" class="node">
<title>Riparian_2(2)
&lt;8&gt;[0.2095]</title>
<ellipse fill="none" stroke="black" cx="200.81" cy="-301.35" rx="65.11" ry="26.74"/>
<text text-anchor="middle" x="200.81" y="-305.15" font-family="Times,serif" font-size="14.00">Riparian_2(2)</text>
<text text-anchor="middle" x="200.81" y="-290.15" font-family="Times,serif" font-size="14.00">&lt;8&gt;[0.2095]</text>
</g>
<!-- Riparian_2(2)
&lt;8&gt;[0.2095]&#45;&gt;Channel(7)
&lt;10&gt;[0.001] -->
<g id="edge3" class="edge">
<title>Riparian_2(2)
&lt;8&gt;[0.2095]&#45;&gt;Channel(7)
&lt;10&gt;[0.001]</title>
<path fill="none" stroke="black" d="M235.78,-278.44C254.69,-266.59 278.19,-251.86 298.16,-239.34"/>
<polygon fill="black" stroke="black" points="300.16,-242.22 306.77,-233.94 296.44,-236.29 300.16,-242.22"/>
</g>
<!-- Canola_1(3)
&lt;3&gt;[0.3612] -->
<g id="node5" class="node">
<title>Canola_1(3)
&lt;3&gt;[0.3612]</title>
<ellipse fill="none" stroke="black" cx="340.81" cy="-391.09" rx="60.62" ry="26.74"/>
<text text-anchor="middle" x="340.81" y="-394.89" font-family="Times,serif" font-size="14.00">Canola_1(3)</text>
<text text-anchor="middle" x="340.81" y="-379.89" font-family="Times,serif" font-size="14.00">&lt;3&gt;[0.3612]</text>
</g>
<!-- Canola_1(3)
&lt;3&gt;[0.3612]&#45;&gt;Riparian_1(1)
&lt;9&gt;[0.3837] -->
<g id="edge4" class="edge">
<title>Canola_1(3)
&lt;3&gt;[0.3612]&#45;&gt;Riparian_1(1)
&lt;9&gt;[0.3837]</title>
<path fill="none" stroke="black" d="M384.07,-372.02C416.66,-358.4 461.57,-339.64 496.57,-325.01"/>
<polygon fill="black" stroke="black" points="498.28,-328.09 506.16,-321.01 495.59,-321.63 498.28,-328.09"/>
</g>
<!-- Canola_2(4)
&lt;1&gt;[0.5029] -->
<g id="node6" class="node">
<title>Canola_2(4)
&lt;1&gt;[0.5029]</title>
<ellipse fill="none" stroke="black" cx="60.81" cy="-391.09" rx="60.62" ry="26.74"/>
<text text-anchor="middle" x="60.81" y="-394.89" font-family="Times,serif" font-size="14.00">Canola_2(4)</text>
<text text-anchor="middle" x="60.81" y="-379.89" font-family="Times,serif" font-size="14.00">&lt;1&gt;[0.5029]</text>
</g>
<!-- Canola_2(4)
&lt;1&gt;[0.5029]&#45;&gt;Riparian_2(2)
&lt;8&gt;[0.2095] -->
<g id="edge5" class="edge">
<title>Canola_2(4)
&lt;1&gt;[0.5029]&#45;&gt;Riparian_2(2)
&lt;8&gt;[0.2095]</title>
<path fill="none" stroke="black" d="M95.06,-368.63C113.82,-356.87 137.26,-342.18 157.3,-329.62"/>
<polygon fill="black" stroke="black" points="159.33,-332.48 165.94,-324.2 155.61,-326.55 159.33,-332.48"/>
</g>
<!-- Canola_3(6)
&lt;4&gt;[0.1606] -->
<g id="node7" class="node">
<title>Canola_3(6)
&lt;4&gt;[0.1606]</title>
<ellipse fill="none" stroke="black" cx="480.81" cy="-391.09" rx="60.62" ry="26.74"/>
<text text-anchor="middle" x="480.81" y="-394.89" font-family="Times,serif" font-size="14.00">Canola_3(6)</text>
<text text-anchor="middle" x="480.81" y="-379.89" font-family="Times,serif" font-size="14.00">&lt;4&gt;[0.1606]</text>
</g>
<!-- Canola_3(6)
&lt;4&gt;[0.1606]&#45;&gt;Riparian_1(1)
&lt;9&gt;[0.3837] -->
<g id="edge6" class="edge">
<title>Canola_3(6)
&lt;4&gt;[0.1606]&#45;&gt;Riparian_1(1)
&lt;9&gt;[0.3837]</title>
<path fill="none" stroke="black" d="M500.68,-365.18C508.21,-355.75 516.89,-344.86 524.9,-334.83"/>
<polygon fill="black" stroke="black" points="527.63,-337.02 531.13,-327.02 522.16,-332.65 527.63,-337.02"/>
</g>
<!-- Canola_4(8)
&lt;5&gt;[0.0761] -->
<g id="node9" class="node">
<title>Canola_4(8)
&lt;5&gt;[0.0761]</title>
<ellipse fill="none" stroke="black" cx="620.81" cy="-391.09" rx="60.62" ry="26.74"/>
<text text-anchor="middle" x="620.81" y="-394.89" font-family="Times,serif" font-size="14.00">Canola_4(8)</text>
<text text-anchor="middle" x="620.81" y="-379.89" font-family="Times,serif" font-size="14.00">&lt;5&gt;[0.0761]</text>
</g>
<!-- Canola_4(8)
&lt;5&gt;[0.0761]&#45;&gt;Riparian_1(1)
&lt;9&gt;[0.3837] -->
<g id="edge8" class="edge">
<title>Canola_4(8)
&lt;5&gt;[0.0761]&#45;&gt;Riparian_1(1)
&lt;9&gt;[0.3837]</title>
<path fill="none" stroke="black" d="M600.94,-365.18C593.41,-355.75 584.73,-344.86 576.73,-334.83"/>
<polygon fill="black" stroke="black" points="579.46,-332.65 570.49,-327.02 573.99,-337.02 579.46,-332.65"/>
</g>
<!-- Canola_5(9)
&lt;2&gt;[0.1809] -->
<g id="node10" class="node">
<title>Canola_5(9)
&lt;2&gt;[0.1809]</title>
<ellipse fill="none" stroke="black" cx="200.81" cy="-391.09" rx="60.62" ry="26.74"/>
<text text-anchor="middle" x="200.81" y="-394.89" font-family="Times,serif" font-size="14.00">Canola_5(9)</text>
<text text-anchor="middle" x="200.81" y="-379.89" font-family="Times,serif" font-size="14.00">&lt;2&gt;[0.1809]</text>
</g>
<!-- Canola_5(9)
&lt;2&gt;[0.1809]&#45;&gt;Riparian_2(2)
&lt;8&gt;[0.2095] -->
<g id="edge9" class="edge">
<title>Canola_5(9)
&lt;2&gt;[0.1809]&#45;&gt;Riparian_2(2)
&lt;8&gt;[0.2095]</title>
<path fill="none" stroke="black" d="M200.81,-363.77C200.81,-355.8 200.81,-346.91 200.81,-338.42"/>
<polygon fill="black" stroke="black" points="204.31,-338.35 200.81,-328.35 197.31,-338.35 204.31,-338.35"/>
</g>
<!-- Canola_6(10)
&lt;6&gt;[0.0431] -->
<g id="node11" class="node">
<title>Canola_6(10)
&lt;6&gt;[0.0431]</title>
<ellipse fill="none" stroke="black" cx="763.81" cy="-391.09" rx="64.19" ry="26.74"/>
<text text-anchor="middle" x="763.81" y="-394.89" font-family="Times,serif" font-size="14.00">Canola_6(10)</text>
<text text-anchor="middle" x="763.81" y="-379.89" font-family="Times,serif" font-size="14.00">&lt;6&gt;[0.0431]</text>
</g>
<!-- Canola_6(10)
&lt;6&gt;[0.0431]&#45;&gt;Riparian_1(1)
&lt;9&gt;[0.3837] -->
<g id="edge10" class="edge">
<title>Canola_6(10)
&lt;6&gt;[0.0431]&#45;&gt;Riparian_1(1)
&lt;9&gt;[0.3837]</title>
<path fill="none" stroke="black" d="M719.16,-371.7C686.04,-358.06 640.71,-339.38 605.44,-324.85"/>
<polygon fill="black" stroke="black" points="606.35,-321.44 595.77,-320.87 603.68,-327.92 606.35,-321.44"/>
</g>
<!-- Pasture(11)
&lt;7&gt;[0.23] -->
<g id="node12" class="node">
<title>Pasture(11)
&lt;7&gt;[0.23]</title>
<ellipse fill="none" stroke="black" cx="901.81" cy="-391.09" rx="55.72" ry="26.74"/>
<text text-anchor="middle" x="901.81" y="-394.89" font-family="Times,serif" font-size="14.00">Pasture(11)</text>
<text text-anchor="middle" x="901.81" y="-379.89" font-family="Times,serif" font-size="14.00">&lt;7&gt;[0.23]</text>
</g>
<!-- Pasture(11)
&lt;7&gt;[0.23]&#45;&gt;Riparian_1(1)
&lt;9&gt;[0.3837] -->
<g id="edge11" class="edge">
<title>Pasture(11)
&lt;7&gt;[0.23]&#45;&gt;Riparian_1(1)
&lt;9&gt;[0.3837]</title>
<path fill="none" stroke="black" d="M860.92,-372.62C853,-369.58 844.71,-366.63 836.81,-364.22 764.12,-342.06 678.72,-324.67 620.29,-314.04"/>
<polygon fill="black" stroke="black" points="620.89,-310.6 610.43,-312.27 619.65,-317.49 620.89,-310.6"/>
</g>
</g>
</svg>
