<?xml version="1.0" encoding="UTF-8" standalone="no"?>
<!DOCTYPE svg PUBLIC "-//W3C//DTD SVG 1.1//EN"
 "http://www.w3.org/Graphics/SVG/1.1/DTD/svg11.dtd">
<!-- Generated by graphviz version 2.43.0 (0)
 -->
<!-- Title: TEST Pages: 1 -->
<svg width="1671pt" height="964pt"
 viewBox="0.00 0.00 1670.57 964.40" xmlns="http://www.w3.org/2000/svg" xmlns:xlink="http://www.w3.org/1999/xlink">
<g id="graph0" class="graph" transform="scale(1 1) rotate(0) translate(4 960.4)">
<title>TEST</title>
<polygon fill="white" stroke="transparent" points="-4,4 -4,-960.4 1666.57,-960.4 1666.57,4 -4,4"/>
<text text-anchor="middle" x="831.29" y="-7.8" font-family="Times,serif" font-size="14.00">I_nw_project_GrpI</text>
<!-- Barley 1(1)
&lt;1&gt;[0.1446] -->
<g id="node1" class="node">
<title>Barley 1(1)
&lt;1&gt;[0.1446]</title>
<ellipse fill="none" stroke="black" cx="591.81" cy="-391.09" rx="60.62" ry="26.74"/>
<text text-anchor="middle" x="591.81" y="-394.89" font-family="Times,serif" font-size="14.00">Barley 1(1)</text>
<text text-anchor="middle" x="591.81" y="-379.89" font-family="Times,serif" font-size="14.00">&lt;1&gt;[0.1446]</text>
</g>
<!-- Riparian forest 1(21)
&lt;27&gt;[0.1565] -->
<g id="node2" class="node">
<title>Riparian forest 1(21)
&lt;27&gt;[0.1565]</title>
<ellipse fill="none" stroke="black" cx="1058.81" cy="-301.35" rx="92.76" ry="26.74"/>
<text text-anchor="middle" x="1058.81" y="-305.15" font-family="Times,serif" font-size="14.00">Riparian forest 1(21)</text>
<text text-anchor="middle" x="1058.81" y="-290.15" font-family="Times,serif" font-size="14.00">&lt;27&gt;[0.1565]</text>
</g>
<!-- Barley 1(1)
&lt;1&gt;[0.1446]&#45;&gt;Riparian forest 1(21)
&lt;27&gt;[0.1565] -->
<g id="edge1" class="edge">
<title>Barley 1(1)
&lt;1&gt;[0.1446]&#45;&gt;Riparian forest 1(21)
&lt;27&gt;[0.1565]</title>
<path fill="none" stroke="black" d="M637.04,-373.06C646.76,-369.8 657.06,-366.65 666.81,-364.22 766.34,-339.4 882.69,-322.53 962.63,-312.75"/>
<polygon fill="black" stroke="black" points="963.17,-316.21 972.68,-311.53 962.33,-309.26 963.17,-316.21"/>
</g>
<!-- Channel(7)
&lt;30&gt;[0.03] -->
<g id="node3" class="node">
<title>Channel(7)
&lt;30&gt;[0.03]</title>
<ellipse fill="none" stroke="black" cx="1102.81" cy="-211.61" rx="56.64" ry="26.74"/>
<text text-anchor="middle" x="1102.81" y="-215.41" font-family="Times,serif" font-size="14.00">Channel(7)</text>
<text text-anchor="middle" x="1102.81" y="-200.41" font-family="Times,serif" font-size="14.00">&lt;30&gt;[0.03]</text>
</g>
<!-- Riparian forest 1(21)
&lt;27&gt;[0.1565]&#45;&gt;Channel(7)
&lt;30&gt;[0.03] -->
<g id="edge2" class="edge">
<title>Riparian forest 1(21)
&lt;27&gt;[0.1565]&#45;&gt;Channel(7)
&lt;30&gt;[0.03]</title>
<path fill="none" stroke="black" d="M1071.77,-274.5C1076.06,-265.95 1080.91,-256.29 1085.47,-247.19"/>
<polygon fill="black" stroke="black" points="1088.74,-248.48 1090.09,-237.97 1082.48,-245.34 1088.74,-248.48"/>
</g>
<!-- Reservoir(5)
&lt;31&gt;[0.04] -->
<g id="node4" class="node">
<title>Reservoir(5)
&lt;31&gt;[0.04]</title>
<ellipse fill="none" stroke="black" cx="1124.81" cy="-121.87" rx="60.21" ry="26.74"/>
<text text-anchor="middle" x="1124.81" y="-125.67" font-family="Times,serif" font-size="14.00">Reservoir(5)</text>
<text text-anchor="middle" x="1124.81" y="-110.67" font-family="Times,serif" font-size="14.00">&lt;31&gt;[0.04]</text>
</g>
<!-- Channel(7)
&lt;30&gt;[0.03]&#45;&gt;Reservoir(5)
&lt;31&gt;[0.04] -->
<g id="edge3" class="edge">
<title>Channel(7)
&lt;30&gt;[0.03]&#45;&gt;Reservoir(5)
&lt;31&gt;[0.04]</title>
<path fill="none" stroke="black" d="M1109.29,-184.76C1111.33,-176.62 1113.63,-167.48 1115.81,-158.77"/>
<polygon fill="black" stroke="black" points="1119.26,-159.39 1118.3,-148.84 1112.47,-157.69 1119.26,-159.39"/>
</g>
<!-- basin -->
<g id="node5" class="node">
<title>basin</title>
<ellipse fill="none" stroke="black" cx="1168.81" cy="-41" rx="29.5" ry="18"/>
<text text-anchor="middle" x="1168.81" y="-37.3" font-family="Times,serif" font-size="14.00">basin</text>
</g>
<!-- Reservoir(5)
&lt;31&gt;[0.04]&#45;&gt;basin -->
<g id="edge4" class="edge">
<title>Reservoir(5)
&lt;31&gt;[0.04]&#45;&gt;basin</title>
<path fill="none" stroke="black" d="M1138.98,-95.48C1144.05,-86.39 1149.76,-76.15 1154.81,-67.09"/>
<polygon fill="black" stroke="black" points="1157.98,-68.6 1159.79,-58.16 1151.87,-65.19 1157.98,-68.6"/>
</g>
<!-- Barley 2(2)
&lt;2&gt;[0.05338] -->
<g id="node6" class="node">
<title>Barley 2(2)
&lt;2&gt;[0.05338]</title>
<ellipse fill="none" stroke="black" cx="624.81" cy="-480.83" rx="65.52" ry="26.74"/>
<text text-anchor="middle" x="624.81" y="-484.63" font-family="Times,serif" font-size="14.00">Barley 2(2)</text>
<text text-anchor="middle" x="624.81" y="-469.63" font-family="Times,serif" font-size="14.00">&lt;2&gt;[0.05338]</text>
</g>
<!-- Barley 2(2)
&lt;2&gt;[0.05338]&#45;&gt;Riparian forest 1(21)
&lt;27&gt;[0.1565] -->
<g id="edge5" class="edge">
<title>Barley 2(2)
&lt;2&gt;[0.05338]&#45;&gt;Riparian forest 1(21)
&lt;27&gt;[0.1565]</title>
<path fill="none" stroke="black" d="M640.72,-454.71C661.34,-422.48 695.77,-370.01 704.81,-364.22 746.24,-337.71 870.93,-320.38 960.59,-310.99"/>
<polygon fill="black" stroke="black" points="961.21,-314.44 970.8,-309.94 960.49,-307.48 961.21,-314.44"/>
</g>
<!-- Barley 3(3)
&lt;3&gt;[0.4007] -->
<g id="node7" class="node">
<title>Barley 3(3)
&lt;3&gt;[0.4007]</title>
<ellipse fill="none" stroke="black" cx="667.81" cy="-570.57" rx="60.62" ry="26.74"/>
<text text-anchor="middle" x="667.81" y="-574.37" font-family="Times,serif" font-size="14.00">Barley 3(3)</text>
<text text-anchor="middle" x="667.81" y="-559.37" font-family="Times,serif" font-size="14.00">&lt;3&gt;[0.4007]</text>
</g>
<!-- Barley 3(3)
&lt;3&gt;[0.4007]&#45;&gt;Riparian forest 1(21)
&lt;27&gt;[0.1565] -->
<g id="edge6" class="edge">
<title>Barley 3(3)
&lt;3&gt;[0.4007]&#45;&gt;Riparian forest 1(21)
&lt;27&gt;[0.1565]</title>
<path fill="none" stroke="black" d="M682.3,-544.19C688.22,-533.19 694.82,-520.03 699.81,-507.7 724.77,-445.98 693.49,-408.94 742.81,-364.22 774.29,-335.68 879.79,-319.22 960.31,-310.56"/>
<polygon fill="black" stroke="black" points="960.92,-314.01 970.5,-309.49 960.19,-307.05 960.92,-314.01"/>
</g>
<!-- Canola 1(4)
&lt;4&gt;[0.09861] -->
<g id="node8" class="node">
<title>Canola 1(4)
&lt;4&gt;[0.09861]</title>
<ellipse fill="none" stroke="black" cx="700.81" cy="-660.31" rx="65.52" ry="26.74"/>
<text text-anchor="middle" x="700.81" y="-664.11" font-family="Times,serif" font-size="14.00">Canola 1(4)</text>
<text text-anchor="middle" x="700.81" y="-649.11" font-family="Times,serif" font-size="14.00">&lt;4&gt;[0.09861]</text>
</g>
<!-- Canola 1(4)
&lt;4&gt;[0.09861]&#45;&gt;Riparian forest 1(21)
&lt;27&gt;[0.1565] -->
<g id="edge7" class="edge">
<title>Canola 1(4)
&lt;4&gt;[0.09861]&#45;&gt;Riparian forest 1(21)
&lt;27&gt;[0.1565]</title>
<path fill="none" stroke="black" d="M718.64,-634.16C725.57,-623.32 733,-610.21 737.81,-597.44 775,-498.82 707.66,-440.1 780.81,-364.22 805.79,-338.31 892.27,-321.86 962.22,-312.49"/>
<polygon fill="black" stroke="black" points="962.95,-315.92 972.41,-311.16 962.05,-308.98 962.95,-315.92"/>
</g>
<!-- Canola 2(6)
&lt;5&gt;[0.4989] -->
<g id="node9" class="node">
<title>Canola 2(6)
&lt;5&gt;[0.4989]</title>
<ellipse fill="none" stroke="black" cx="743.81" cy="-750.05" rx="60.62" ry="26.74"/>
<text text-anchor="middle" x="743.81" y="-753.85" font-family="Times,serif" font-size="14.00">Canola 2(6)</text>
<text text-anchor="middle" x="743.81" y="-738.85" font-family="Times,serif" font-size="14.00">&lt;5&gt;[0.4989]</text>
</g>
<!-- Canola 2(6)
&lt;5&gt;[0.4989]&#45;&gt;Riparian forest 1(21)
&lt;27&gt;[0.1565] -->
<g id="edge8" class="edge">
<title>Canola 2(6)
&lt;5&gt;[0.4989]&#45;&gt;Riparian forest 1(21)
&lt;27&gt;[0.1565]</title>
<path fill="none" stroke="black" d="M759.08,-723.95C765.13,-713.01 771.63,-699.81 775.81,-687.18 792.2,-637.75 794.81,-623.64 794.81,-571.57 794.81,-571.57 794.81,-571.57 794.81,-479.83 794.81,-427.35 782.6,-402.2 818.81,-364.22 839.41,-342.62 908.16,-326.26 966.82,-315.81"/>
<polygon fill="black" stroke="black" points="967.64,-319.22 976.89,-314.05 966.44,-312.32 967.64,-319.22"/>
</g>
<!-- Canola 3(8)
&lt;6&gt;[0.7605] -->
<g id="node10" class="node">
<title>Canola 3(8)
&lt;6&gt;[0.7605]</title>
<ellipse fill="none" stroke="black" cx="60.81" cy="-391.09" rx="60.62" ry="26.74"/>
<text text-anchor="middle" x="60.81" y="-394.89" font-family="Times,serif" font-size="14.00">Canola 3(8)</text>
<text text-anchor="middle" x="60.81" y="-379.89" font-family="Times,serif" font-size="14.00">&lt;6&gt;[0.7605]</text>
</g>
<!-- Riparian forest 2(22)
&lt;28&gt;[1.384] -->
<g id="node11" class="node">
<title>Riparian forest 2(22)
&lt;28&gt;[1.384]</title>
<ellipse fill="none" stroke="black" cx="286.81" cy="-301.35" rx="92.76" ry="26.74"/>
<text text-anchor="middle" x="286.81" y="-305.15" font-family="Times,serif" font-size="14.00">Riparian forest 2(22)</text>
<text text-anchor="middle" x="286.81" y="-290.15" font-family="Times,serif" font-size="14.00">&lt;28&gt;[1.384]</text>
</g>
<!-- Canola 3(8)
&lt;6&gt;[0.7605]&#45;&gt;Riparian forest 2(22)
&lt;28&gt;[1.384] -->
<g id="edge9" class="edge">
<title>Canola 3(8)
&lt;6&gt;[0.7605]&#45;&gt;Riparian forest 2(22)
&lt;28&gt;[1.384]</title>
<path fill="none" stroke="black" d="M105.46,-372.76C139.14,-359.68 185.8,-341.57 223.35,-326.99"/>
<polygon fill="black" stroke="black" points="224.63,-330.24 232.69,-323.36 222.1,-323.72 224.63,-330.24"/>
</g>
<!-- Riparian forest 2(22)
&lt;28&gt;[1.384]&#45;&gt;Channel(7)
&lt;30&gt;[0.03] -->
<g id="edge10" class="edge">
<title>Riparian forest 2(22)
&lt;28&gt;[1.384]&#45;&gt;Channel(7)
&lt;30&gt;[0.03]</title>
<path fill="none" stroke="black" d="M372.6,-291.13C536.63,-273.49 891.45,-235.34 1037.73,-219.61"/>
<polygon fill="black" stroke="black" points="1038.33,-223.06 1047.9,-218.51 1037.58,-216.1 1038.33,-223.06"/>
</g>
<!-- Canola 4(9)
&lt;7&gt;[0.717] -->
<g id="node12" class="node">
<title>Canola 4(9)
&lt;7&gt;[0.717]</title>
<ellipse fill="none" stroke="black" cx="125.81" cy="-480.83" rx="57.05" ry="26.74"/>
<text text-anchor="middle" x="125.81" y="-484.63" font-family="Times,serif" font-size="14.00">Canola 4(9)</text>
<text text-anchor="middle" x="125.81" y="-469.63" font-family="Times,serif" font-size="14.00">&lt;7&gt;[0.717]</text>
</g>
<!-- Canola 4(9)
&lt;7&gt;[0.717]&#45;&gt;Riparian forest 2(22)
&lt;28&gt;[1.384] -->
<g id="edge11" class="edge">
<title>Canola 4(9)
&lt;7&gt;[0.717]&#45;&gt;Riparian forest 2(22)
&lt;28&gt;[1.384]</title>
<path fill="none" stroke="black" d="M137.56,-454.31C149.88,-429.4 171.02,-391.38 196.81,-364.22 208.49,-351.92 222.99,-340.67 236.92,-331.23"/>
<polygon fill="black" stroke="black" points="239.06,-334.01 245.49,-325.59 235.21,-328.16 239.06,-334.01"/>
</g>
<!-- Canola 5(10)
&lt;8&gt;[0.09667] -->
<g id="node13" class="node">
<title>Canola 5(10)
&lt;8&gt;[0.09667]</title>
<ellipse fill="none" stroke="black" cx="776.81" cy="-839.79" rx="65.52" ry="26.74"/>
<text text-anchor="middle" x="776.81" y="-843.59" font-family="Times,serif" font-size="14.00">Canola 5(10)</text>
<text text-anchor="middle" x="776.81" y="-828.59" font-family="Times,serif" font-size="14.00">&lt;8&gt;[0.09667]</text>
</g>
<!-- Canola 5(10)
&lt;8&gt;[0.09667]&#45;&gt;Riparian forest 1(21)
&lt;27&gt;[0.1565] -->
<g id="edge12" class="edge">
<title>Canola 5(10)
&lt;8&gt;[0.09667]&#45;&gt;Riparian forest 1(21)
&lt;27&gt;[0.1565]</title>
<path fill="none" stroke="black" d="M794.76,-813.69C801.72,-802.85 809.12,-789.73 813.81,-776.92 831.71,-728.02 832.81,-713.38 832.81,-661.31 832.81,-661.31 832.81,-661.31 832.81,-479.83 832.81,-427.35 821.46,-403 856.81,-364.22 883.29,-335.17 923,-319.6 960.23,-311.31"/>
<polygon fill="black" stroke="black" points="961.05,-314.72 970.13,-309.26 959.63,-307.86 961.05,-314.72"/>
</g>
<!-- Canola 6(11)
&lt;9&gt;[0.3993] -->
<g id="node14" class="node">
<title>Canola 6(11)
&lt;9&gt;[0.3993]</title>
<ellipse fill="none" stroke="black" cx="870.81" cy="-929.53" rx="62.45" ry="26.74"/>
<text text-anchor="middle" x="870.81" y="-933.33" font-family="Times,serif" font-size="14.00">Canola 6(11)</text>
<text text-anchor="middle" x="870.81" y="-918.33" font-family="Times,serif" font-size="14.00">&lt;9&gt;[0.3993]</text>
</g>
<!-- Canola 6(11)
&lt;9&gt;[0.3993]&#45;&gt;Riparian forest 1(21)
&lt;27&gt;[0.1565] -->
<g id="edge13" class="edge">
<title>Canola 6(11)
&lt;9&gt;[0.3993]&#45;&gt;Riparian forest 1(21)
&lt;27&gt;[0.1565]</title>
<path fill="none" stroke="black" d="M870.81,-902.37C870.81,-867.75 870.81,-804.82 870.81,-751.05 870.81,-751.05 870.81,-751.05 870.81,-479.83 870.81,-427.76 856.61,-404.33 889.81,-364.22 909.32,-340.65 938.63,-326.06 967.4,-317.03"/>
<polygon fill="black" stroke="black" points="968.51,-320.35 977.11,-314.17 966.53,-313.63 968.51,-320.35"/>
</g>
<!-- Flax 1(12)
&lt;10&gt;[0.2765] -->
<g id="node15" class="node">
<title>Flax 1(12)
&lt;10&gt;[0.2765]</title>
<ellipse fill="none" stroke="black" cx="964.81" cy="-391.09" rx="65.52" ry="26.74"/>
<text text-anchor="middle" x="964.81" y="-394.89" font-family="Times,serif" font-size="14.00">Flax 1(12)</text>
<text text-anchor="middle" x="964.81" y="-379.89" font-family="Times,serif" font-size="14.00">&lt;10&gt;[0.2765]</text>
</g>
<!-- Flax 1(12)
&lt;10&gt;[0.2765]&#45;&gt;Riparian forest 1(21)
&lt;27&gt;[0.1565] -->
<g id="edge14" class="edge">
<title>Flax 1(12)
&lt;10&gt;[0.2765]&#45;&gt;Riparian forest 1(21)
&lt;27&gt;[0.1565]</title>
<path fill="none" stroke="black" d="M990.5,-366.12C1001.01,-356.3 1013.32,-344.81 1024.58,-334.3"/>
<polygon fill="black" stroke="black" points="1027.25,-336.6 1032.17,-327.21 1022.47,-331.48 1027.25,-336.6"/>
</g>
<!-- Forage 1(13)
&lt;11&gt;[0.04979] -->
<g id="node16" class="node">
<title>Forage 1(13)
&lt;11&gt;[0.04979]</title>
<ellipse fill="none" stroke="black" cx="149.81" cy="-570.57" rx="70.92" ry="26.74"/>
<text text-anchor="middle" x="149.81" y="-574.37" font-family="Times,serif" font-size="14.00">Forage 1(13)</text>
<text text-anchor="middle" x="149.81" y="-559.37" font-family="Times,serif" font-size="14.00">&lt;11&gt;[0.04979]</text>
</g>
<!-- Forage 1(13)
&lt;11&gt;[0.04979]&#45;&gt;Riparian forest 2(22)
&lt;28&gt;[1.384] -->
<g id="edge15" class="edge">
<title>Forage 1(13)
&lt;11&gt;[0.04979]&#45;&gt;Riparian forest 2(22)
&lt;28&gt;[1.384]</title>
<path fill="none" stroke="black" d="M169.44,-544.44C177.22,-533.59 185.74,-520.48 191.81,-507.7 220.39,-447.58 203.18,-422.8 234.81,-364.22 240.27,-354.11 247.56,-344.13 254.95,-335.24"/>
<polygon fill="black" stroke="black" points="257.83,-337.26 261.72,-327.4 252.53,-332.68 257.83,-337.26"/>
</g>
<!-- Forage 2(14)
&lt;12&gt;[0.02057] -->
<g id="node17" class="node">
<title>Forage 2(14)
&lt;12&gt;[0.02057]</title>
<ellipse fill="none" stroke="black" cx="997.81" cy="-480.83" rx="70.92" ry="26.74"/>
<text text-anchor="middle" x="997.81" y="-484.63" font-family="Times,serif" font-size="14.00">Forage 2(14)</text>
<text text-anchor="middle" x="997.81" y="-469.63" font-family="Times,serif" font-size="14.00">&lt;12&gt;[0.02057]</text>
</g>
<!-- Forage 2(14)
&lt;12&gt;[0.02057]&#45;&gt;Riparian forest 1(21)
&lt;27&gt;[0.1565] -->
<g id="edge16" class="edge">
<title>Forage 2(14)
&lt;12&gt;[0.02057]&#45;&gt;Riparian forest 1(21)
&lt;27&gt;[0.1565]</title>
<path fill="none" stroke="black" d="M1018.27,-455.06C1026.17,-444.27 1034.57,-431.1 1039.81,-417.96 1049.94,-392.57 1054.67,-361.97 1056.88,-338.63"/>
<polygon fill="black" stroke="black" points="1060.39,-338.72 1057.73,-328.46 1053.41,-338.14 1060.39,-338.72"/>
</g>
<!-- Green and Oat 1(15)
&lt;13&gt;[0.2988] -->
<g id="node18" class="node">
<title>Green and Oat 1(15)
&lt;13&gt;[0.2988]</title>
<ellipse fill="none" stroke="black" cx="167.81" cy="-660.31" rx="91.43" ry="26.74"/>
<text text-anchor="middle" x="167.81" y="-664.11" font-family="Times,serif" font-size="14.00">Green and Oat 1(15)</text>
<text text-anchor="middle" x="167.81" y="-649.11" font-family="Times,serif" font-size="14.00">&lt;13&gt;[0.2988]</text>
</g>
<!-- Green and Oat 1(15)
&lt;13&gt;[0.2988]&#45;&gt;Riparian forest 2(22)
&lt;28&gt;[1.384] -->
<g id="edge17" class="edge">
<title>Green and Oat 1(15)
&lt;13&gt;[0.2988]&#45;&gt;Riparian forest 2(22)
&lt;28&gt;[1.384]</title>
<path fill="none" stroke="black" d="M199.32,-634.88C210.61,-624.52 222.38,-611.57 229.81,-597.44 278.89,-504.17 251.62,-467.47 272.81,-364.22 274.54,-355.78 276.52,-346.73 278.44,-338.22"/>
<polygon fill="black" stroke="black" points="281.91,-338.72 280.72,-328.19 275.09,-337.16 281.91,-338.72"/>
</g>
<!-- Green and Oat 2(16)
&lt;14&gt;[0.05142] -->
<g id="node19" class="node">
<title>Green and Oat 2(16)
&lt;14&gt;[0.05142]</title>
<ellipse fill="none" stroke="black" cx="1015.81" cy="-570.57" rx="91.43" ry="26.74"/>
<text text-anchor="middle" x="1015.81" y="-574.37" font-family="Times,serif" font-size="14.00">Green and Oat 2(16)</text>
<text text-anchor="middle" x="1015.81" y="-559.37" font-family="Times,serif" font-size="14.00">&lt;14&gt;[0.05142]</text>
</g>
<!-- Green and Oat 2(16)
&lt;14&gt;[0.05142]&#45;&gt;Riparian forest 1(21)
&lt;27&gt;[0.1565] -->
<g id="edge18" class="edge">
<title>Green and Oat 2(16)
&lt;14&gt;[0.05142]&#45;&gt;Riparian forest 1(21)
&lt;27&gt;[0.1565]</title>
<path fill="none" stroke="black" d="M1049.02,-545.49C1060.38,-535.26 1071.75,-522.31 1077.81,-507.7 1101.05,-451.67 1085.21,-379.87 1071.84,-337.7"/>
<polygon fill="black" stroke="black" points="1075.14,-336.56 1068.69,-328.16 1068.5,-338.75 1075.14,-336.56"/>
</g>
<!-- Oats 1(17)
&lt;15&gt;[0.01845] -->
<g id="node20" class="node">
<title>Oats 1(17)
&lt;15&gt;[0.01845]</title>
<ellipse fill="none" stroke="black" cx="225.81" cy="-750.05" rx="70.92" ry="26.74"/>
<text text-anchor="middle" x="225.81" y="-753.85" font-family="Times,serif" font-size="14.00">Oats 1(17)</text>
<text text-anchor="middle" x="225.81" y="-738.85" font-family="Times,serif" font-size="14.00">&lt;15&gt;[0.01845]</text>
</g>
<!-- Oats 1(17)
&lt;15&gt;[0.01845]&#45;&gt;Riparian forest 2(22)
&lt;28&gt;[1.384] -->
<g id="edge19" class="edge">
<title>Oats 1(17)
&lt;15&gt;[0.01845]&#45;&gt;Riparian forest 2(22)
&lt;28&gt;[1.384]</title>
<path fill="none" stroke="black" d="M246.27,-724.28C254.17,-713.49 262.57,-700.32 267.81,-687.18 287.11,-638.82 286.81,-623.64 286.81,-571.57 286.81,-571.57 286.81,-571.57 286.81,-479.83 286.81,-431.1 286.81,-374.85 286.81,-338.97"/>
<polygon fill="black" stroke="black" points="290.31,-338.51 286.81,-328.51 283.31,-338.51 290.31,-338.51"/>
</g>
<!-- Oats 2(18)
&lt;16&gt;[0.1319] -->
<g id="node21" class="node">
<title>Oats 2(18)
&lt;16&gt;[0.1319]</title>
<ellipse fill="none" stroke="black" cx="1078.81" cy="-660.31" rx="65.52" ry="26.74"/>
<text text-anchor="middle" x="1078.81" y="-664.11" font-family="Times,serif" font-size="14.00">Oats 2(18)</text>
<text text-anchor="middle" x="1078.81" y="-649.11" font-family="Times,serif" font-size="14.00">&lt;16&gt;[0.1319]</text>
</g>
<!-- Oats 2(18)
&lt;16&gt;[0.1319]&#45;&gt;Riparian forest 1(21)
&lt;27&gt;[0.1565] -->
<g id="edge20" class="edge">
<title>Oats 2(18)
&lt;16&gt;[0.1319]&#45;&gt;Riparian forest 1(21)
&lt;27&gt;[0.1565]</title>
<path fill="none" stroke="black" d="M1097.81,-634.55C1104.93,-623.76 1112.18,-610.59 1115.81,-597.44 1122.17,-574.42 1116.94,-567.56 1115.81,-543.7 1112.03,-463.66 1125.09,-439.91 1098.81,-364.22 1095.44,-354.52 1090.26,-344.83 1084.72,-336.08"/>
<polygon fill="black" stroke="black" points="1087.59,-334.07 1079.13,-327.69 1081.76,-337.95 1087.59,-334.07"/>
</g>
<!-- Oats 3(19)
&lt;17&gt;[0.2185] -->
<g id="node22" class="node">
<title>Oats 3(19)
&lt;17&gt;[0.2185]</title>
<ellipse fill="none" stroke="black" cx="268.81" cy="-839.79" rx="65.52" ry="26.74"/>
<text text-anchor="middle" x="268.81" y="-843.59" font-family="Times,serif" font-size="14.00">Oats 3(19)</text>
<text text-anchor="middle" x="268.81" y="-828.59" font-family="Times,serif" font-size="14.00">&lt;17&gt;[0.2185]</text>
</g>
<!-- Oats 3(19)
&lt;17&gt;[0.2185]&#45;&gt;Riparian forest 2(22)
&lt;28&gt;[1.384] -->
<g id="edge21" class="edge">
<title>Oats 3(19)
&lt;17&gt;[0.2185]&#45;&gt;Riparian forest 2(22)
&lt;28&gt;[1.384]</title>
<path fill="none" stroke="black" d="M286.76,-813.69C293.72,-802.85 301.12,-789.73 305.81,-776.92 323.71,-728.02 324.81,-713.38 324.81,-661.31 324.81,-661.31 324.81,-661.31 324.81,-479.83 324.81,-429.78 310.19,-373.52 299.08,-338.02"/>
<polygon fill="black" stroke="black" points="302.3,-336.6 295.91,-328.14 295.63,-338.73 302.3,-336.6"/>
</g>
<!-- Pasture(20)
&lt;18&gt;[0.08345] -->
<g id="node23" class="node">
<title>Pasture(20)
&lt;18&gt;[0.08345]</title>
<ellipse fill="none" stroke="black" cx="1111.81" cy="-750.05" rx="70.92" ry="26.74"/>
<text text-anchor="middle" x="1111.81" y="-753.85" font-family="Times,serif" font-size="14.00">Pasture(20)</text>
<text text-anchor="middle" x="1111.81" y="-738.85" font-family="Times,serif" font-size="14.00">&lt;18&gt;[0.08345]</text>
</g>
<!-- Pasture(20)
&lt;18&gt;[0.08345]&#45;&gt;Riparian forest 1(21)
&lt;27&gt;[0.1565] -->
<g id="edge22" class="edge">
<title>Pasture(20)
&lt;18&gt;[0.08345]&#45;&gt;Riparian forest 1(21)
&lt;27&gt;[0.1565]</title>
<path fill="none" stroke="black" d="M1132.27,-724.28C1140.17,-713.49 1148.57,-700.32 1153.81,-687.18 1173.11,-638.82 1172.81,-623.64 1172.81,-571.57 1172.81,-571.57 1172.81,-571.57 1172.81,-479.83 1172.81,-421.44 1128.59,-366.94 1095.23,-334.13"/>
<polygon fill="black" stroke="black" points="1097.51,-331.47 1087.87,-327.07 1092.66,-336.52 1097.51,-331.47"/>
</g>
<!-- Road(23)
&lt;29&gt;[0.3795] -->
<g id="node24" class="node">
<title>Road(23)
&lt;29&gt;[0.3795]</title>
<ellipse fill="none" stroke="black" cx="1234.81" cy="-301.35" rx="65.52" ry="26.74"/>
<text text-anchor="middle" x="1234.81" y="-305.15" font-family="Times,serif" font-size="14.00">Road(23)</text>
<text text-anchor="middle" x="1234.81" y="-290.15" font-family="Times,serif" font-size="14.00">&lt;29&gt;[0.3795]</text>
</g>
<!-- Road(23)
&lt;29&gt;[0.3795]&#45;&gt;Channel(7)
&lt;30&gt;[0.03] -->
<g id="edge23" class="edge">
<title>Road(23)
&lt;29&gt;[0.3795]&#45;&gt;Channel(7)
&lt;30&gt;[0.03]</title>
<path fill="none" stroke="black" d="M1201.16,-277.98C1183.62,-266.32 1162.03,-251.97 1143.55,-239.69"/>
<polygon fill="black" stroke="black" points="1145.3,-236.65 1135.03,-234.03 1141.43,-242.48 1145.3,-236.65"/>
</g>
<!-- Road(23)
&lt;29&gt;[0.3795]&#45;&gt;basin -->
<g id="edge24" class="edge">
<title>Road(23)
&lt;29&gt;[0.3795]&#45;&gt;basin</title>
<path fill="none" stroke="black" d="M1231.67,-274.22C1226.46,-234.69 1214.5,-157.66 1193.81,-95 1190.75,-85.73 1186.48,-75.97 1182.32,-67.39"/>
<polygon fill="black" stroke="black" points="1185.37,-65.65 1177.76,-58.28 1179.11,-68.79 1185.37,-65.65"/>
</g>
<!-- Unkown(24)
&lt;19&gt;[0.04466] -->
<g id="node25" class="node">
<title>Unkown(24)
&lt;19&gt;[0.04466]</title>
<ellipse fill="none" stroke="black" cx="1149.81" cy="-839.79" rx="70.92" ry="26.74"/>
<text text-anchor="middle" x="1149.81" y="-843.59" font-family="Times,serif" font-size="14.00">Unkown(24)</text>
<text text-anchor="middle" x="1149.81" y="-828.59" font-family="Times,serif" font-size="14.00">&lt;19&gt;[0.04466]</text>
</g>
<!-- Unkown(24)
&lt;19&gt;[0.04466]&#45;&gt;Riparian forest 1(21)
&lt;27&gt;[0.1565] -->
<g id="edge25" class="edge">
<title>Unkown(24)
&lt;19&gt;[0.04466]&#45;&gt;Riparian forest 1(21)
&lt;27&gt;[0.1565]</title>
<path fill="none" stroke="black" d="M1170.27,-814.02C1178.17,-803.23 1186.57,-790.06 1191.81,-776.92 1211.11,-728.56 1210.81,-713.38 1210.81,-661.31 1210.81,-661.31 1210.81,-661.31 1210.81,-479.83 1210.81,-422.93 1193.48,-406.87 1155.81,-364.22 1144.09,-350.96 1128.87,-339.46 1113.96,-330.1"/>
<polygon fill="black" stroke="black" points="1115.62,-327.01 1105.25,-324.84 1112,-333.01 1115.62,-327.01"/>
</g>
<!-- Wheat 1(25)
&lt;20&gt;[0.2667] -->
<g id="node26" class="node">
<title>Wheat 1(25)
&lt;20&gt;[0.2667]</title>
<ellipse fill="none" stroke="black" cx="1248.81" cy="-929.53" rx="65.52" ry="26.74"/>
<text text-anchor="middle" x="1248.81" y="-933.33" font-family="Times,serif" font-size="14.00">Wheat 1(25)</text>
<text text-anchor="middle" x="1248.81" y="-918.33" font-family="Times,serif" font-size="14.00">&lt;20&gt;[0.2667]</text>
</g>
<!-- Wheat 1(25)
&lt;20&gt;[0.2667]&#45;&gt;Riparian forest 1(21)
&lt;27&gt;[0.1565] -->
<g id="edge26" class="edge">
<title>Wheat 1(25)
&lt;20&gt;[0.2667]&#45;&gt;Riparian forest 1(21)
&lt;27&gt;[0.1565]</title>
<path fill="none" stroke="black" d="M1248.81,-902.37C1248.81,-867.75 1248.81,-804.82 1248.81,-751.05 1248.81,-751.05 1248.81,-751.05 1248.81,-479.83 1248.81,-422.34 1232,-404.32 1190.81,-364.22 1173.83,-347.69 1151.61,-334.97 1130.26,-325.49"/>
<polygon fill="black" stroke="black" points="1131.43,-322.19 1120.85,-321.49 1128.69,-328.63 1131.43,-322.19"/>
</g>
<!-- Wheat 2(26)
&lt;21&gt;[0.3189] -->
<g id="node27" class="node">
<title>Wheat 2(26)
&lt;21&gt;[0.3189]</title>
<ellipse fill="none" stroke="black" cx="362.81" cy="-929.53" rx="65.52" ry="26.74"/>
<text text-anchor="middle" x="362.81" y="-933.33" font-family="Times,serif" font-size="14.00">Wheat 2(26)</text>
<text text-anchor="middle" x="362.81" y="-918.33" font-family="Times,serif" font-size="14.00">&lt;21&gt;[0.3189]</text>
</g>
<!-- Wheat 2(26)
&lt;21&gt;[0.3189]&#45;&gt;Riparian forest 2(22)
&lt;28&gt;[1.384] -->
<g id="edge27" class="edge">
<title>Wheat 2(26)
&lt;21&gt;[0.3189]&#45;&gt;Riparian forest 2(22)
&lt;28&gt;[1.384]</title>
<path fill="none" stroke="black" d="M362.81,-902.37C362.81,-867.75 362.81,-804.82 362.81,-751.05 362.81,-751.05 362.81,-751.05 362.81,-479.83 362.81,-426.6 333.56,-371.11 311.36,-336.65"/>
<polygon fill="black" stroke="black" points="314.03,-334.35 305.6,-327.94 308.19,-338.21 314.03,-334.35"/>
</g>
<!-- Wheat 3(27)
&lt;22&gt;[0.5041] -->
<g id="node28" class="node">
<title>Wheat 3(27)
&lt;22&gt;[0.5041]</title>
<ellipse fill="none" stroke="black" cx="1342.81" cy="-391.09" rx="65.52" ry="26.74"/>
<text text-anchor="middle" x="1342.81" y="-394.89" font-family="Times,serif" font-size="14.00">Wheat 3(27)</text>
<text text-anchor="middle" x="1342.81" y="-379.89" font-family="Times,serif" font-size="14.00">&lt;22&gt;[0.5041]</text>
</g>
<!-- Wheat 3(27)
&lt;22&gt;[0.5041]&#45;&gt;Riparian forest 1(21)
&lt;27&gt;[0.1565] -->
<g id="edge28" class="edge">
<title>Wheat 3(27)
&lt;22&gt;[0.5041]&#45;&gt;Riparian forest 1(21)
&lt;27&gt;[0.1565]</title>
<path fill="none" stroke="black" d="M1292.5,-373.67C1282.66,-370.5 1272.42,-367.23 1262.81,-364.22 1219.35,-350.6 1170.53,-335.78 1131.54,-324.06"/>
<polygon fill="black" stroke="black" points="1132.44,-320.67 1121.85,-321.15 1130.42,-327.37 1132.44,-320.67"/>
</g>
<!-- Wheat 4(28)
&lt;23&gt;[0.2773] -->
<g id="node29" class="node">
<title>Wheat 4(28)
&lt;23&gt;[0.2773]</title>
<ellipse fill="none" stroke="black" cx="1408.81" cy="-480.83" rx="65.52" ry="26.74"/>
<text text-anchor="middle" x="1408.81" y="-484.63" font-family="Times,serif" font-size="14.00">Wheat 4(28)</text>
<text text-anchor="middle" x="1408.81" y="-469.63" font-family="Times,serif" font-size="14.00">&lt;23&gt;[0.2773]</text>
</g>
<!-- Wheat 4(28)
&lt;23&gt;[0.2773]&#45;&gt;Riparian forest 1(21)
&lt;27&gt;[0.1565] -->
<g id="edge29" class="edge">
<title>Wheat 4(28)
&lt;23&gt;[0.2773]&#45;&gt;Riparian forest 1(21)
&lt;27&gt;[0.1565]</title>
<path fill="none" stroke="black" d="M1420.4,-453.99C1430.04,-428.09 1439.09,-388.67 1417.81,-364.22 1379.81,-320.55 1216.61,-339.42 1159.81,-328.22 1151.58,-326.6 1143.02,-324.71 1134.51,-322.72"/>
<polygon fill="black" stroke="black" points="1135.12,-319.26 1124.58,-320.33 1133.48,-326.07 1135.12,-319.26"/>
</g>
<!-- Wheat 5(29)
&lt;24&gt;[0.2649] -->
<g id="node30" class="node">
<title>Wheat 5(29)
&lt;24&gt;[0.2649]</title>
<ellipse fill="none" stroke="black" cx="1502.81" cy="-570.57" rx="65.52" ry="26.74"/>
<text text-anchor="middle" x="1502.81" y="-574.37" font-family="Times,serif" font-size="14.00">Wheat 5(29)</text>
<text text-anchor="middle" x="1502.81" y="-559.37" font-family="Times,serif" font-size="14.00">&lt;24&gt;[0.2649]</text>
</g>
<!-- Wheat 5(29)
&lt;24&gt;[0.2649]&#45;&gt;Riparian forest 1(21)
&lt;27&gt;[0.1565] -->
<g id="edge30" class="edge">
<title>Wheat 5(29)
&lt;24&gt;[0.2649]&#45;&gt;Riparian forest 1(21)
&lt;27&gt;[0.1565]</title>
<path fill="none" stroke="black" d="M1503.78,-543.49C1503.86,-498.02 1496.52,-405.17 1438.81,-364.22 1387.83,-328.04 1221.21,-340 1159.81,-328.22 1151.42,-326.61 1142.68,-324.71 1134.02,-322.69"/>
<polygon fill="black" stroke="black" points="1134.83,-319.29 1124.29,-320.36 1133.2,-326.09 1134.83,-319.29"/>
</g>
<!-- Wheat 6(30)
&lt;25&gt;[0.503] -->
<g id="node31" class="node">
<title>Wheat 6(30)
&lt;25&gt;[0.503]</title>
<ellipse fill="none" stroke="black" cx="451.81" cy="-391.09" rx="60.62" ry="26.74"/>
<text text-anchor="middle" x="451.81" y="-394.89" font-family="Times,serif" font-size="14.00">Wheat 6(30)</text>
<text text-anchor="middle" x="451.81" y="-379.89" font-family="Times,serif" font-size="14.00">&lt;25&gt;[0.503]</text>
</g>
<!-- Wheat 6(30)
&lt;25&gt;[0.503]&#45;&gt;Riparian forest 2(22)
&lt;28&gt;[1.384] -->
<g id="edge31" class="edge">
<title>Wheat 6(30)
&lt;25&gt;[0.503]&#45;&gt;Riparian forest 2(22)
&lt;28&gt;[1.384]</title>
<path fill="none" stroke="black" d="M413.96,-369.96C391.68,-358.12 363.2,-342.97 338.84,-330.02"/>
<polygon fill="black" stroke="black" points="340.2,-326.78 329.73,-325.17 336.91,-332.96 340.2,-326.78"/>
</g>
<!-- Wheat 7(31)
&lt;26&gt;[0.2986] -->
<g id="node32" class="node">
<title>Wheat 7(31)
&lt;26&gt;[0.2986]</title>
<ellipse fill="none" stroke="black" cx="1596.81" cy="-660.31" rx="65.52" ry="26.74"/>
<text text-anchor="middle" x="1596.81" y="-664.11" font-family="Times,serif" font-size="14.00">Wheat 7(31)</text>
<text text-anchor="middle" x="1596.81" y="-649.11" font-family="Times,serif" font-size="14.00">&lt;26&gt;[0.2986]</text>
</g>
<!-- Wheat 7(31)
&lt;26&gt;[0.2986]&#45;&gt;Riparian forest 1(21)
&lt;27&gt;[0.1565] -->
<g id="edge32" class="edge">
<title>Wheat 7(31)
&lt;26&gt;[0.2986]&#45;&gt;Riparian forest 1(21)
&lt;27&gt;[0.1565]</title>
<path fill="none" stroke="black" d="M1595.27,-633.23C1590.13,-573.18 1568.14,-425.61 1474.81,-364.22 1415.95,-325.5 1229.1,-340.99 1159.81,-328.22 1151.4,-326.67 1142.66,-324.81 1133.99,-322.81"/>
<polygon fill="black" stroke="black" points="1134.8,-319.41 1124.26,-320.5 1133.18,-326.22 1134.8,-319.41"/>
</g>
</g>
</svg>
