<?xml version="1.0" encoding="UTF-8" standalone="no"?>
<!DOCTYPE svg PUBLIC "-//W3C//DTD SVG 1.1//EN"
 "http://www.w3.org/Graphics/SVG/1.1/DTD/svg11.dtd">
<!-- Generated by graphviz version 2.43.0 (0)
 -->
<!-- Title: TEST Pages: 1 -->
<svg width="1941pt" height="605pt"
 viewBox="0.00 0.00 1941.47 605.44" xmlns="http://www.w3.org/2000/svg" xmlns:xlink="http://www.w3.org/1999/xlink">
<g id="graph0" class="graph" transform="scale(1 1) rotate(0) translate(4 601.44)">
<title>TEST</title>
<polygon fill="white" stroke="transparent" points="-4,4 -4,-601.44 1937.47,-601.44 1937.47,4 -4,4"/>
<text text-anchor="middle" x="966.74" y="-7.8" font-family="Times,serif" font-size="14.00">B_final_steppler2000_2001_new_10yrs_GrpB</text>
<!-- Canola 1(1)
&lt;8&gt;[0.09347] -->
<g id="node1" class="node">
<title>Canola 1(1)
&lt;8&gt;[0.09347]</title>
<ellipse fill="none" stroke="black" cx="1792.71" cy="-480.83" rx="65.52" ry="26.74"/>
<text text-anchor="middle" x="1792.71" y="-484.63" font-family="Times,serif" font-size="14.00">Canola 1(1)</text>
<text text-anchor="middle" x="1792.71" y="-469.63" font-family="Times,serif" font-size="14.00">&lt;8&gt;[0.09347]</text>
</g>
<!-- Riparian 6(33)
&lt;20&gt;[8.079e&#45;05] -->
<g id="node2" class="node">
<title>Riparian 6(33)
&lt;20&gt;[8.079e&#45;05]</title>
<ellipse fill="none" stroke="black" cx="1792.71" cy="-391.09" rx="77.56" ry="26.74"/>
<text text-anchor="middle" x="1792.71" y="-394.89" font-family="Times,serif" font-size="14.00">Riparian 6(33)</text>
<text text-anchor="middle" x="1792.71" y="-379.89" font-family="Times,serif" font-size="14.00">&lt;20&gt;[8.079e&#45;05]</text>
</g>
<!-- Canola 1(1)
&lt;8&gt;[0.09347]&#45;&gt;Riparian 6(33)
&lt;20&gt;[8.079e&#45;05] -->
<g id="edge1" class="edge">
<title>Canola 1(1)
&lt;8&gt;[0.09347]&#45;&gt;Riparian 6(33)
&lt;20&gt;[8.079e&#45;05]</title>
<path fill="none" stroke="black" d="M1792.71,-453.51C1792.71,-445.54 1792.71,-436.65 1792.71,-428.16"/>
<polygon fill="black" stroke="black" points="1796.21,-428.09 1792.71,-418.09 1789.21,-428.09 1796.21,-428.09"/>
</g>
<!-- Wheat 3(24)
&lt;30&gt;[0.1673] -->
<g id="node3" class="node">
<title>Wheat 3(24)
&lt;30&gt;[0.1673]</title>
<ellipse fill="none" stroke="black" cx="1547.71" cy="-301.35" rx="65.52" ry="26.74"/>
<text text-anchor="middle" x="1547.71" y="-305.15" font-family="Times,serif" font-size="14.00">Wheat 3(24)</text>
<text text-anchor="middle" x="1547.71" y="-290.15" font-family="Times,serif" font-size="14.00">&lt;30&gt;[0.1673]</text>
</g>
<!-- Riparian 6(33)
&lt;20&gt;[8.079e&#45;05]&#45;&gt;Wheat 3(24)
&lt;30&gt;[0.1673] -->
<g id="edge2" class="edge">
<title>Riparian 6(33)
&lt;20&gt;[8.079e&#45;05]&#45;&gt;Wheat 3(24)
&lt;30&gt;[0.1673]</title>
<path fill="none" stroke="black" d="M1740.15,-371.27C1700.58,-357.1 1646.37,-337.68 1605.56,-323.07"/>
<polygon fill="black" stroke="black" points="1606.62,-319.73 1596.02,-319.65 1604.26,-326.32 1606.62,-319.73"/>
</g>
<!-- Channel(7)
&lt;32&gt;[0.01] -->
<g id="node8" class="node">
<title>Channel(7)
&lt;32&gt;[0.01]</title>
<ellipse fill="none" stroke="black" cx="764.71" cy="-211.61" rx="56.64" ry="26.74"/>
<text text-anchor="middle" x="764.71" y="-215.41" font-family="Times,serif" font-size="14.00">Channel(7)</text>
<text text-anchor="middle" x="764.71" y="-200.41" font-family="Times,serif" font-size="14.00">&lt;32&gt;[0.01]</text>
</g>
<!-- Wheat 3(24)
&lt;30&gt;[0.1673]&#45;&gt;Channel(7)
&lt;32&gt;[0.01] -->
<g id="edge14" class="edge">
<title>Wheat 3(24)
&lt;30&gt;[0.1673]&#45;&gt;Channel(7)
&lt;32&gt;[0.01]</title>
<path fill="none" stroke="black" d="M1487.85,-290.07C1456.83,-284.96 1418.3,-278.93 1383.71,-274.48 1182.71,-248.6 943.81,-227.42 830.55,-217.95"/>
<polygon fill="black" stroke="black" points="830.57,-214.44 820.32,-217.1 829.99,-221.42 830.57,-214.44"/>
</g>
<!-- Canola 2(2)
&lt;31&gt;[0.2817] -->
<g id="node4" class="node">
<title>Canola 2(2)
&lt;31&gt;[0.2817]</title>
<ellipse fill="none" stroke="black" cx="624.71" cy="-211.61" rx="65.52" ry="26.74"/>
<text text-anchor="middle" x="624.71" y="-215.41" font-family="Times,serif" font-size="14.00">Canola 2(2)</text>
<text text-anchor="middle" x="624.71" y="-200.41" font-family="Times,serif" font-size="14.00">&lt;31&gt;[0.2817]</text>
</g>
<!-- Reservoir(5)
&lt;34&gt;[0.034] -->
<g id="node5" class="node">
<title>Reservoir(5)
&lt;34&gt;[0.034]</title>
<ellipse fill="none" stroke="black" cx="694.71" cy="-121.87" rx="60.62" ry="26.74"/>
<text text-anchor="middle" x="694.71" y="-125.67" font-family="Times,serif" font-size="14.00">Reservoir(5)</text>
<text text-anchor="middle" x="694.71" y="-110.67" font-family="Times,serif" font-size="14.00">&lt;34&gt;[0.034]</text>
</g>
<!-- Canola 2(2)
&lt;31&gt;[0.2817]&#45;&gt;Reservoir(5)
&lt;34&gt;[0.034] -->
<g id="edge3" class="edge">
<title>Canola 2(2)
&lt;31&gt;[0.2817]&#45;&gt;Reservoir(5)
&lt;34&gt;[0.034]</title>
<path fill="none" stroke="black" d="M644.58,-185.7C652.11,-176.27 660.79,-165.38 668.79,-155.35"/>
<polygon fill="black" stroke="black" points="671.53,-157.54 675.03,-147.54 666.06,-153.17 671.53,-157.54"/>
</g>
<!-- basin -->
<g id="node6" class="node">
<title>basin</title>
<ellipse fill="none" stroke="black" cx="619.71" cy="-41" rx="29.5" ry="18"/>
<text text-anchor="middle" x="619.71" y="-37.3" font-family="Times,serif" font-size="14.00">basin</text>
</g>
<!-- Reservoir(5)
&lt;34&gt;[0.034]&#45;&gt;basin -->
<g id="edge4" class="edge">
<title>Reservoir(5)
&lt;34&gt;[0.034]&#45;&gt;basin</title>
<path fill="none" stroke="black" d="M671.8,-96.78C661.91,-86.38 650.42,-74.3 640.76,-64.13"/>
<polygon fill="black" stroke="black" points="643.2,-61.62 633.77,-56.79 638.13,-66.45 643.2,-61.62"/>
</g>
<!-- Canola 3(3)
&lt;21&gt;[0.04029] -->
<g id="node7" class="node">
<title>Canola 3(3)
&lt;21&gt;[0.04029]</title>
<ellipse fill="none" stroke="black" cx="70.71" cy="-301.35" rx="70.92" ry="26.74"/>
<text text-anchor="middle" x="70.71" y="-305.15" font-family="Times,serif" font-size="14.00">Canola 3(3)</text>
<text text-anchor="middle" x="70.71" y="-290.15" font-family="Times,serif" font-size="14.00">&lt;21&gt;[0.04029]</text>
</g>
<!-- Canola 3(3)
&lt;21&gt;[0.04029]&#45;&gt;Channel(7)
&lt;32&gt;[0.01] -->
<g id="edge5" class="edge">
<title>Canola 3(3)
&lt;21&gt;[0.04029]&#45;&gt;Channel(7)
&lt;32&gt;[0.01]</title>
<path fill="none" stroke="black" d="M120.36,-282C129.98,-279.04 140.08,-276.34 149.71,-274.48 390.23,-228 460.76,-292.43 699.71,-238.48 704.76,-237.34 709.94,-235.86 715.05,-234.19"/>
<polygon fill="black" stroke="black" points="716.49,-237.39 724.77,-230.77 714.17,-230.79 716.49,-237.39"/>
</g>
<!-- Channel(7)
&lt;32&gt;[0.01]&#45;&gt;Reservoir(5)
&lt;34&gt;[0.034] -->
<g id="edge6" class="edge">
<title>Channel(7)
&lt;32&gt;[0.01]&#45;&gt;Reservoir(5)
&lt;34&gt;[0.034]</title>
<path fill="none" stroke="black" d="M745.21,-186.17C737.61,-176.65 728.8,-165.59 720.68,-155.41"/>
<polygon fill="black" stroke="black" points="723.32,-153.12 714.35,-147.48 717.85,-157.48 723.32,-153.12"/>
</g>
<!-- Canola 4(4)
&lt;22&gt;[0.03029] -->
<g id="node9" class="node">
<title>Canola 4(4)
&lt;22&gt;[0.03029]</title>
<ellipse fill="none" stroke="black" cx="229.71" cy="-301.35" rx="70.92" ry="26.74"/>
<text text-anchor="middle" x="229.71" y="-305.15" font-family="Times,serif" font-size="14.00">Canola 4(4)</text>
<text text-anchor="middle" x="229.71" y="-290.15" font-family="Times,serif" font-size="14.00">&lt;22&gt;[0.03029]</text>
</g>
<!-- Canola 4(4)
&lt;22&gt;[0.03029]&#45;&gt;Channel(7)
&lt;32&gt;[0.01] -->
<g id="edge7" class="edge">
<title>Canola 4(4)
&lt;22&gt;[0.03029]&#45;&gt;Channel(7)
&lt;32&gt;[0.01]</title>
<path fill="none" stroke="black" d="M279.4,-282.21C289.02,-279.23 299.1,-276.47 308.71,-274.48 479.6,-239.1 530.01,-279.16 699.71,-238.48 704.68,-237.29 709.77,-235.79 714.8,-234.12"/>
<polygon fill="black" stroke="black" points="716.12,-237.37 724.38,-230.73 713.78,-230.77 716.12,-237.37"/>
</g>
<!-- Canola 5(6)
&lt;1&gt;[0.05071] -->
<g id="node10" class="node">
<title>Canola 5(6)
&lt;1&gt;[0.05071]</title>
<ellipse fill="none" stroke="black" cx="1717.71" cy="-570.57" rx="65.52" ry="26.74"/>
<text text-anchor="middle" x="1717.71" y="-574.37" font-family="Times,serif" font-size="14.00">Canola 5(6)</text>
<text text-anchor="middle" x="1717.71" y="-559.37" font-family="Times,serif" font-size="14.00">&lt;1&gt;[0.05071]</text>
</g>
<!-- Canola 5(6)
&lt;1&gt;[0.05071]&#45;&gt;Canola 1(1)
&lt;8&gt;[0.09347] -->
<g id="edge8" class="edge">
<title>Canola 5(6)
&lt;1&gt;[0.05071]&#45;&gt;Canola 1(1)
&lt;8&gt;[0.09347]</title>
<path fill="none" stroke="black" d="M1739,-544.66C1747.07,-535.23 1756.37,-524.34 1764.94,-514.31"/>
<polygon fill="black" stroke="black" points="1767.79,-516.37 1771.63,-506.5 1762.47,-511.82 1767.79,-516.37"/>
</g>
<!-- Canola 6(8)
&lt;9&gt;[0.01816] -->
<g id="node11" class="node">
<title>Canola 6(8)
&lt;9&gt;[0.01816]</title>
<ellipse fill="none" stroke="black" cx="79.71" cy="-391.09" rx="65.52" ry="26.74"/>
<text text-anchor="middle" x="79.71" y="-394.89" font-family="Times,serif" font-size="14.00">Canola 6(8)</text>
<text text-anchor="middle" x="79.71" y="-379.89" font-family="Times,serif" font-size="14.00">&lt;9&gt;[0.01816]</text>
</g>
<!-- Grazing 1(16)
&lt;23&gt;[0.1429] -->
<g id="node12" class="node">
<title>Grazing 1(16)
&lt;23&gt;[0.1429]</title>
<ellipse fill="none" stroke="black" cx="383.71" cy="-301.35" rx="65.52" ry="26.74"/>
<text text-anchor="middle" x="383.71" y="-305.15" font-family="Times,serif" font-size="14.00">Grazing 1(16)</text>
<text text-anchor="middle" x="383.71" y="-290.15" font-family="Times,serif" font-size="14.00">&lt;23&gt;[0.1429]</text>
</g>
<!-- Canola 6(8)
&lt;9&gt;[0.01816]&#45;&gt;Grazing 1(16)
&lt;23&gt;[0.1429] -->
<g id="edge9" class="edge">
<title>Canola 6(8)
&lt;9&gt;[0.01816]&#45;&gt;Grazing 1(16)
&lt;23&gt;[0.1429]</title>
<path fill="none" stroke="black" d="M127.63,-372.48C136.26,-369.56 145.21,-366.68 153.71,-364.22 222.06,-344.45 241.36,-347.99 309.71,-328.22 315.02,-326.68 320.51,-324.98 325.99,-323.21"/>
<polygon fill="black" stroke="black" points="327.4,-326.43 335.79,-319.96 325.2,-319.79 327.4,-326.43"/>
</g>
<!-- Grazing 1(16)
&lt;23&gt;[0.1429]&#45;&gt;Channel(7)
&lt;32&gt;[0.01] -->
<g id="edge10" class="edge">
<title>Grazing 1(16)
&lt;23&gt;[0.1429]&#45;&gt;Channel(7)
&lt;32&gt;[0.01]</title>
<path fill="none" stroke="black" d="M430.93,-282.59C440.06,-279.58 449.61,-276.71 458.71,-274.48 563.9,-248.71 595.15,-266.69 699.71,-238.48 704.57,-237.17 709.56,-235.6 714.51,-233.9"/>
<polygon fill="black" stroke="black" points="715.72,-237.19 723.93,-230.49 713.34,-230.6 715.72,-237.19"/>
</g>
<!-- Canola 7(9)
&lt;10&gt;[0.02911] -->
<g id="node13" class="node">
<title>Canola 7(9)
&lt;10&gt;[0.02911]</title>
<ellipse fill="none" stroke="black" cx="233.71" cy="-391.09" rx="70.92" ry="26.74"/>
<text text-anchor="middle" x="233.71" y="-394.89" font-family="Times,serif" font-size="14.00">Canola 7(9)</text>
<text text-anchor="middle" x="233.71" y="-379.89" font-family="Times,serif" font-size="14.00">&lt;10&gt;[0.02911]</text>
</g>
<!-- Forage 3(15)
&lt;24&gt;[0.0249] -->
<g id="node14" class="node">
<title>Forage 3(15)
&lt;24&gt;[0.0249]</title>
<ellipse fill="none" stroke="black" cx="533.71" cy="-301.35" rx="65.52" ry="26.74"/>
<text text-anchor="middle" x="533.71" y="-305.15" font-family="Times,serif" font-size="14.00">Forage 3(15)</text>
<text text-anchor="middle" x="533.71" y="-290.15" font-family="Times,serif" font-size="14.00">&lt;24&gt;[0.0249]</text>
</g>
<!-- Canola 7(9)
&lt;10&gt;[0.02911]&#45;&gt;Forage 3(15)
&lt;24&gt;[0.0249] -->
<g id="edge11" class="edge">
<title>Canola 7(9)
&lt;10&gt;[0.02911]&#45;&gt;Forage 3(15)
&lt;24&gt;[0.0249]</title>
<path fill="none" stroke="black" d="M285.38,-372.56C294.45,-369.65 303.83,-366.76 312.71,-364.22 376.96,-345.81 394.61,-347.14 458.71,-328.22 464.3,-326.57 470.08,-324.76 475.85,-322.89"/>
<polygon fill="black" stroke="black" points="477.11,-326.16 485.5,-319.7 474.91,-319.51 477.11,-326.16"/>
</g>
<!-- Forage 3(15)
&lt;24&gt;[0.0249]&#45;&gt;Channel(7)
&lt;32&gt;[0.01] -->
<g id="edge12" class="edge">
<title>Forage 3(15)
&lt;24&gt;[0.0249]&#45;&gt;Channel(7)
&lt;32&gt;[0.01]</title>
<path fill="none" stroke="black" d="M581.76,-282.76C614.96,-270.53 660.11,-253.74 699.71,-238.48 703.97,-236.84 708.38,-235.12 712.8,-233.39"/>
<polygon fill="black" stroke="black" points="714.44,-236.51 722.46,-229.58 711.87,-229.99 714.44,-236.51"/>
</g>
<!-- Corn(10)
&lt;18&gt;[0.07423] -->
<g id="node15" class="node">
<title>Corn(10)
&lt;18&gt;[0.07423]</title>
<ellipse fill="none" stroke="black" cx="1467.71" cy="-391.09" rx="70.92" ry="26.74"/>
<text text-anchor="middle" x="1467.71" y="-394.89" font-family="Times,serif" font-size="14.00">Corn(10)</text>
<text text-anchor="middle" x="1467.71" y="-379.89" font-family="Times,serif" font-size="14.00">&lt;18&gt;[0.07423]</text>
</g>
<!-- Corn(10)
&lt;18&gt;[0.07423]&#45;&gt;Wheat 3(24)
&lt;30&gt;[0.1673] -->
<g id="edge13" class="edge">
<title>Corn(10)
&lt;18&gt;[0.07423]&#45;&gt;Wheat 3(24)
&lt;30&gt;[0.1673]</title>
<path fill="none" stroke="black" d="M1490.42,-365.18C1499.18,-355.57 1509.31,-344.46 1518.6,-334.28"/>
<polygon fill="black" stroke="black" points="1521.34,-336.46 1525.5,-326.71 1516.17,-331.75 1521.34,-336.46"/>
</g>
<!-- Fall rye(11)
&lt;25&gt;[0.02793] -->
<g id="node16" class="node">
<title>Fall rye(11)
&lt;25&gt;[0.02793]</title>
<ellipse fill="none" stroke="black" cx="687.71" cy="-301.35" rx="70.92" ry="26.74"/>
<text text-anchor="middle" x="687.71" y="-305.15" font-family="Times,serif" font-size="14.00">Fall rye(11)</text>
<text text-anchor="middle" x="687.71" y="-290.15" font-family="Times,serif" font-size="14.00">&lt;25&gt;[0.02793]</text>
</g>
<!-- Fall rye(11)
&lt;25&gt;[0.02793]&#45;&gt;Channel(7)
&lt;32&gt;[0.01] -->
<g id="edge15" class="edge">
<title>Fall rye(11)
&lt;25&gt;[0.02793]&#45;&gt;Channel(7)
&lt;32&gt;[0.01]</title>
<path fill="none" stroke="black" d="M709.57,-275.44C718.07,-265.75 727.92,-254.54 736.91,-244.28"/>
<polygon fill="black" stroke="black" points="739.63,-246.5 743.59,-236.67 734.37,-241.88 739.63,-246.5"/>
</g>
<!-- Fallow(12)
&lt;2&gt;[0.03577] -->
<g id="node17" class="node">
<title>Fallow(12)
&lt;2&gt;[0.03577]</title>
<ellipse fill="none" stroke="black" cx="532.71" cy="-480.83" rx="65.52" ry="26.74"/>
<text text-anchor="middle" x="532.71" y="-484.63" font-family="Times,serif" font-size="14.00">Fallow(12)</text>
<text text-anchor="middle" x="532.71" y="-469.63" font-family="Times,serif" font-size="14.00">&lt;2&gt;[0.03577]</text>
</g>
<!-- Wheat 4(25)
&lt;12&gt;[0.05324] -->
<g id="node18" class="node">
<title>Wheat 4(25)
&lt;12&gt;[0.05324]</title>
<ellipse fill="none" stroke="black" cx="541.71" cy="-391.09" rx="70.92" ry="26.74"/>
<text text-anchor="middle" x="541.71" y="-394.89" font-family="Times,serif" font-size="14.00">Wheat 4(25)</text>
<text text-anchor="middle" x="541.71" y="-379.89" font-family="Times,serif" font-size="14.00">&lt;12&gt;[0.05324]</text>
</g>
<!-- Fallow(12)
&lt;2&gt;[0.03577]&#45;&gt;Wheat 4(25)
&lt;12&gt;[0.05324] -->
<g id="edge16" class="edge">
<title>Fallow(12)
&lt;2&gt;[0.03577]&#45;&gt;Wheat 4(25)
&lt;12&gt;[0.05324]</title>
<path fill="none" stroke="black" d="M535.36,-453.98C536.19,-445.93 537.11,-436.9 538,-428.28"/>
<polygon fill="black" stroke="black" points="541.51,-428.36 539.05,-418.06 534.54,-427.65 541.51,-428.36"/>
</g>
<!-- Wheat 4(25)
&lt;12&gt;[0.05324]&#45;&gt;Fall rye(11)
&lt;25&gt;[0.02793] -->
<g id="edge17" class="edge">
<title>Wheat 4(25)
&lt;12&gt;[0.05324]&#45;&gt;Fall rye(11)
&lt;25&gt;[0.02793]</title>
<path fill="none" stroke="black" d="M578.55,-367.95C597.83,-356.36 621.61,-342.07 642.05,-329.79"/>
<polygon fill="black" stroke="black" points="644.11,-332.63 650.88,-324.48 640.51,-326.63 644.11,-332.63"/>
</g>
<!-- Forage 1(13)
&lt;26&gt;[0.0328] -->
<g id="node19" class="node">
<title>Forage 1(13)
&lt;26&gt;[0.0328]</title>
<ellipse fill="none" stroke="black" cx="841.71" cy="-301.35" rx="65.52" ry="26.74"/>
<text text-anchor="middle" x="841.71" y="-305.15" font-family="Times,serif" font-size="14.00">Forage 1(13)</text>
<text text-anchor="middle" x="841.71" y="-290.15" font-family="Times,serif" font-size="14.00">&lt;26&gt;[0.0328]</text>
</g>
<!-- Forage 1(13)
&lt;26&gt;[0.0328]&#45;&gt;Channel(7)
&lt;32&gt;[0.01] -->
<g id="edge18" class="edge">
<title>Forage 1(13)
&lt;26&gt;[0.0328]&#45;&gt;Channel(7)
&lt;32&gt;[0.01]</title>
<path fill="none" stroke="black" d="M820.26,-275.91C811.68,-266.13 801.68,-254.74 792.55,-244.34"/>
<polygon fill="black" stroke="black" points="795.01,-241.82 785.78,-236.62 789.74,-246.44 795.01,-241.82"/>
</g>
<!-- Forage 2(14)
&lt;27&gt;[0.03939] -->
<g id="node20" class="node">
<title>Forage 2(14)
&lt;27&gt;[0.03939]</title>
<ellipse fill="none" stroke="black" cx="995.71" cy="-301.35" rx="70.92" ry="26.74"/>
<text text-anchor="middle" x="995.71" y="-305.15" font-family="Times,serif" font-size="14.00">Forage 2(14)</text>
<text text-anchor="middle" x="995.71" y="-290.15" font-family="Times,serif" font-size="14.00">&lt;27&gt;[0.03939]</text>
</g>
<!-- Forage 2(14)
&lt;27&gt;[0.03939]&#45;&gt;Channel(7)
&lt;32&gt;[0.01] -->
<g id="edge19" class="edge">
<title>Forage 2(14)
&lt;27&gt;[0.03939]&#45;&gt;Channel(7)
&lt;32&gt;[0.01]</title>
<path fill="none" stroke="black" d="M947,-281.85C909.05,-267.44 856.44,-247.45 817.49,-232.66"/>
<polygon fill="black" stroke="black" points="818.49,-229.29 807.9,-229.02 816.01,-235.84 818.49,-229.29"/>
</g>
<!-- Grazing 2(17)
&lt;3&gt;[0.03852] -->
<g id="node21" class="node">
<title>Grazing 2(17)
&lt;3&gt;[0.03852]</title>
<ellipse fill="none" stroke="black" cx="1867.71" cy="-570.57" rx="65.52" ry="26.74"/>
<text text-anchor="middle" x="1867.71" y="-574.37" font-family="Times,serif" font-size="14.00">Grazing 2(17)</text>
<text text-anchor="middle" x="1867.71" y="-559.37" font-family="Times,serif" font-size="14.00">&lt;3&gt;[0.03852]</text>
</g>
<!-- Grazing 2(17)
&lt;3&gt;[0.03852]&#45;&gt;Canola 1(1)
&lt;8&gt;[0.09347] -->
<g id="edge20" class="edge">
<title>Grazing 2(17)
&lt;3&gt;[0.03852]&#45;&gt;Canola 1(1)
&lt;8&gt;[0.09347]</title>
<path fill="none" stroke="black" d="M1846.42,-544.66C1838.35,-535.23 1829.05,-524.34 1820.48,-514.31"/>
<polygon fill="black" stroke="black" points="1822.95,-511.82 1813.8,-506.5 1817.63,-516.37 1822.95,-511.82"/>
</g>
<!-- Oat 1(18)
&lt;11&gt;[0.1222] -->
<g id="node22" class="node">
<title>Oat 1(18)
&lt;11&gt;[0.1222]</title>
<ellipse fill="none" stroke="black" cx="387.71" cy="-391.09" rx="65.52" ry="26.74"/>
<text text-anchor="middle" x="387.71" y="-394.89" font-family="Times,serif" font-size="14.00">Oat 1(18)</text>
<text text-anchor="middle" x="387.71" y="-379.89" font-family="Times,serif" font-size="14.00">&lt;11&gt;[0.1222]</text>
</g>
<!-- Oat 1(18)
&lt;11&gt;[0.1222]&#45;&gt;Forage 3(15)
&lt;24&gt;[0.0249] -->
<g id="edge21" class="edge">
<title>Oat 1(18)
&lt;11&gt;[0.1222]&#45;&gt;Forage 3(15)
&lt;24&gt;[0.0249]</title>
<path fill="none" stroke="black" d="M423.8,-368.4C443.53,-356.55 468.14,-341.76 489.06,-329.18"/>
<polygon fill="black" stroke="black" points="491.01,-332.09 497.78,-323.94 487.41,-326.09 491.01,-332.09"/>
</g>
<!-- Oat 2(19)
&lt;19&gt;[0.03181] -->
<g id="node23" class="node">
<title>Oat 2(19)
&lt;19&gt;[0.03181]</title>
<ellipse fill="none" stroke="black" cx="1626.71" cy="-391.09" rx="70.92" ry="26.74"/>
<text text-anchor="middle" x="1626.71" y="-394.89" font-family="Times,serif" font-size="14.00">Oat 2(19)</text>
<text text-anchor="middle" x="1626.71" y="-379.89" font-family="Times,serif" font-size="14.00">&lt;19&gt;[0.03181]</text>
</g>
<!-- Oat 2(19)
&lt;19&gt;[0.03181]&#45;&gt;Wheat 3(24)
&lt;30&gt;[0.1673] -->
<g id="edge22" class="edge">
<title>Oat 2(19)
&lt;19&gt;[0.03181]&#45;&gt;Wheat 3(24)
&lt;30&gt;[0.1673]</title>
<path fill="none" stroke="black" d="M1604.28,-365.18C1595.63,-355.57 1585.63,-344.46 1576.46,-334.28"/>
<polygon fill="black" stroke="black" points="1578.94,-331.8 1569.65,-326.71 1573.74,-336.49 1578.94,-331.8"/>
</g>
<!-- Road(20)
&lt;4&gt;[0.04612] -->
<g id="node24" class="node">
<title>Road(20)
&lt;4&gt;[0.04612]</title>
<ellipse fill="none" stroke="black" cx="682.71" cy="-480.83" rx="65.52" ry="26.74"/>
<text text-anchor="middle" x="682.71" y="-484.63" font-family="Times,serif" font-size="14.00">Road(20)</text>
<text text-anchor="middle" x="682.71" y="-469.63" font-family="Times,serif" font-size="14.00">&lt;4&gt;[0.04612]</text>
</g>
<!-- Wheat 1(22)
&lt;14&gt;[0.2323] -->
<g id="node25" class="node">
<title>Wheat 1(22)
&lt;14&gt;[0.2323]</title>
<ellipse fill="none" stroke="black" cx="836.71" cy="-391.09" rx="65.52" ry="26.74"/>
<text text-anchor="middle" x="836.71" y="-394.89" font-family="Times,serif" font-size="14.00">Wheat 1(22)</text>
<text text-anchor="middle" x="836.71" y="-379.89" font-family="Times,serif" font-size="14.00">&lt;14&gt;[0.2323]</text>
</g>
<!-- Road(20)
&lt;4&gt;[0.04612]&#45;&gt;Wheat 1(22)
&lt;14&gt;[0.2323] -->
<g id="edge23" class="edge">
<title>Road(20)
&lt;4&gt;[0.04612]&#45;&gt;Wheat 1(22)
&lt;14&gt;[0.2323]</title>
<path fill="none" stroke="black" d="M719.99,-458.59C741.29,-446.46 768.17,-431.14 790.76,-418.27"/>
<polygon fill="black" stroke="black" points="792.55,-421.28 799.51,-413.29 789.09,-415.2 792.55,-421.28"/>
</g>
<!-- Wheat 1(22)
&lt;14&gt;[0.2323]&#45;&gt;Forage 1(13)
&lt;26&gt;[0.0328] -->
<g id="edge24" class="edge">
<title>Wheat 1(22)
&lt;14&gt;[0.2323]&#45;&gt;Forage 1(13)
&lt;26&gt;[0.0328]</title>
<path fill="none" stroke="black" d="M838.21,-363.77C838.66,-355.8 839.17,-346.91 839.66,-338.42"/>
<polygon fill="black" stroke="black" points="843.15,-338.54 840.23,-328.35 836.17,-338.14 843.15,-338.54"/>
</g>
<!-- Unknown(21)
&lt;5&gt;[0.008736] -->
<g id="node26" class="node">
<title>Unknown(21)
&lt;5&gt;[0.008736]</title>
<ellipse fill="none" stroke="black" cx="836.71" cy="-480.83" rx="70.92" ry="26.74"/>
<text text-anchor="middle" x="836.71" y="-484.63" font-family="Times,serif" font-size="14.00">Unknown(21)</text>
<text text-anchor="middle" x="836.71" y="-469.63" font-family="Times,serif" font-size="14.00">&lt;5&gt;[0.008736]</text>
</g>
<!-- Unknown(21)
&lt;5&gt;[0.008736]&#45;&gt;Wheat 1(22)
&lt;14&gt;[0.2323] -->
<g id="edge25" class="edge">
<title>Unknown(21)
&lt;5&gt;[0.008736]&#45;&gt;Wheat 1(22)
&lt;14&gt;[0.2323]</title>
<path fill="none" stroke="black" d="M836.71,-453.51C836.71,-445.54 836.71,-436.65 836.71,-428.16"/>
<polygon fill="black" stroke="black" points="840.21,-428.09 836.71,-418.09 833.21,-428.09 840.21,-428.09"/>
</g>
<!-- Wheat 2(23)
&lt;28&gt;[0.1551] -->
<g id="node27" class="node">
<title>Wheat 2(23)
&lt;28&gt;[0.1551]</title>
<ellipse fill="none" stroke="black" cx="1149.71" cy="-301.35" rx="65.52" ry="26.74"/>
<text text-anchor="middle" x="1149.71" y="-305.15" font-family="Times,serif" font-size="14.00">Wheat 2(23)</text>
<text text-anchor="middle" x="1149.71" y="-290.15" font-family="Times,serif" font-size="14.00">&lt;28&gt;[0.1551]</text>
</g>
<!-- Wheat 2(23)
&lt;28&gt;[0.1551]&#45;&gt;Channel(7)
&lt;32&gt;[0.01] -->
<g id="edge26" class="edge">
<title>Wheat 2(23)
&lt;28&gt;[0.1551]&#45;&gt;Channel(7)
&lt;32&gt;[0.01]</title>
<path fill="none" stroke="black" d="M1102.25,-282.66C1093.49,-279.71 1084.38,-276.84 1075.71,-274.48 991.19,-251.42 891.57,-233.12 828.29,-222.58"/>
<polygon fill="black" stroke="black" points="828.5,-219.06 818.06,-220.89 827.36,-225.97 828.5,-219.06"/>
</g>
<!-- Wheat 5(26)
&lt;13&gt;[0.082] -->
<g id="node28" class="node">
<title>Wheat 5(26)
&lt;13&gt;[0.082]</title>
<ellipse fill="none" stroke="black" cx="691.71" cy="-391.09" rx="60.62" ry="26.74"/>
<text text-anchor="middle" x="691.71" y="-394.89" font-family="Times,serif" font-size="14.00">Wheat 5(26)</text>
<text text-anchor="middle" x="691.71" y="-379.89" font-family="Times,serif" font-size="14.00">&lt;13&gt;[0.082]</text>
</g>
<!-- Wheat 5(26)
&lt;13&gt;[0.082]&#45;&gt;Fall rye(11)
&lt;25&gt;[0.02793] -->
<g id="edge27" class="edge">
<title>Wheat 5(26)
&lt;13&gt;[0.082]&#45;&gt;Fall rye(11)
&lt;25&gt;[0.02793]</title>
<path fill="none" stroke="black" d="M690.51,-363.77C690.15,-355.8 689.74,-346.91 689.36,-338.42"/>
<polygon fill="black" stroke="black" points="692.85,-338.18 688.9,-328.35 685.86,-338.5 692.85,-338.18"/>
</g>
<!-- Wheat 6(27)
&lt;16&gt;[0.0001] -->
<g id="node29" class="node">
<title>Wheat 6(27)
&lt;16&gt;[0.0001]</title>
<ellipse fill="none" stroke="black" cx="1144.71" cy="-391.09" rx="65.52" ry="26.74"/>
<text text-anchor="middle" x="1144.71" y="-394.89" font-family="Times,serif" font-size="14.00">Wheat 6(27)</text>
<text text-anchor="middle" x="1144.71" y="-379.89" font-family="Times,serif" font-size="14.00">&lt;16&gt;[0.0001]</text>
</g>
<!-- Wheat 6(27)
&lt;16&gt;[0.0001]&#45;&gt;Forage 2(14)
&lt;27&gt;[0.03939] -->
<g id="edge28" class="edge">
<title>Wheat 6(27)
&lt;16&gt;[0.0001]&#45;&gt;Forage 2(14)
&lt;27&gt;[0.03939]</title>
<path fill="none" stroke="black" d="M1108.26,-368.63C1088.28,-356.86 1063.32,-342.16 1041.98,-329.59"/>
<polygon fill="black" stroke="black" points="1043.47,-326.41 1033.08,-324.36 1039.92,-332.45 1043.47,-326.41"/>
</g>
<!-- Riparian 1(28)
&lt;15&gt;[0.04534] -->
<g id="node30" class="node">
<title>Riparian 1(28)
&lt;15&gt;[0.04534]</title>
<ellipse fill="none" stroke="black" cx="990.71" cy="-391.09" rx="70.92" ry="26.74"/>
<text text-anchor="middle" x="990.71" y="-394.89" font-family="Times,serif" font-size="14.00">Riparian 1(28)</text>
<text text-anchor="middle" x="990.71" y="-379.89" font-family="Times,serif" font-size="14.00">&lt;15&gt;[0.04534]</text>
</g>
<!-- Riparian 1(28)
&lt;15&gt;[0.04534]&#45;&gt;Forage 1(13)
&lt;26&gt;[0.0328] -->
<g id="edge29" class="edge">
<title>Riparian 1(28)
&lt;15&gt;[0.04534]&#45;&gt;Forage 1(13)
&lt;26&gt;[0.0328]</title>
<path fill="none" stroke="black" d="M953.5,-368.18C933.36,-356.32 908.32,-341.58 887.05,-329.05"/>
<polygon fill="black" stroke="black" points="888.59,-325.89 878.19,-323.83 885.03,-331.92 888.59,-325.89"/>
</g>
<!-- Riparian 2(29)
&lt;17&gt;[0.003324] -->
<g id="node31" class="node">
<title>Riparian 2(29)
&lt;17&gt;[0.003324]</title>
<ellipse fill="none" stroke="black" cx="1303.71" cy="-391.09" rx="75.82" ry="26.74"/>
<text text-anchor="middle" x="1303.71" y="-394.89" font-family="Times,serif" font-size="14.00">Riparian 2(29)</text>
<text text-anchor="middle" x="1303.71" y="-379.89" font-family="Times,serif" font-size="14.00">&lt;17&gt;[0.003324]</text>
</g>
<!-- Riparian 2(29)
&lt;17&gt;[0.003324]&#45;&gt;Forage 2(14)
&lt;27&gt;[0.03939] -->
<g id="edge30" class="edge">
<title>Riparian 2(29)
&lt;17&gt;[0.003324]&#45;&gt;Forage 2(14)
&lt;27&gt;[0.03939]</title>
<path fill="none" stroke="black" d="M1248.26,-372.54C1238.76,-369.67 1228.97,-366.79 1219.71,-364.22 1155.73,-346.44 1138.53,-346.56 1074.71,-328.22 1069.02,-326.59 1063.13,-324.81 1057.25,-322.98"/>
<polygon fill="black" stroke="black" points="1057.98,-319.54 1047.39,-319.87 1055.87,-326.22 1057.98,-319.54"/>
</g>
<!-- Riparian 3(30)
&lt;6&gt;[0.04701] -->
<g id="node32" class="node">
<title>Riparian 3(30)
&lt;6&gt;[0.04701]</title>
<ellipse fill="none" stroke="black" cx="993.71" cy="-480.83" rx="67.76" ry="26.74"/>
<text text-anchor="middle" x="993.71" y="-484.63" font-family="Times,serif" font-size="14.00">Riparian 3(30)</text>
<text text-anchor="middle" x="993.71" y="-469.63" font-family="Times,serif" font-size="14.00">&lt;6&gt;[0.04701]</text>
</g>
<!-- Riparian 3(30)
&lt;6&gt;[0.04701]&#45;&gt;Wheat 1(22)
&lt;14&gt;[0.2323] -->
<g id="edge31" class="edge">
<title>Riparian 3(30)
&lt;6&gt;[0.04701]&#45;&gt;Wheat 1(22)
&lt;14&gt;[0.2323]</title>
<path fill="none" stroke="black" d="M955.3,-458.37C933.59,-446.23 906.27,-430.96 883.33,-418.14"/>
<polygon fill="black" stroke="black" points="884.89,-415 874.45,-413.18 881.47,-421.11 884.89,-415"/>
</g>
<!-- Riparian 4(31)
&lt;7&gt;[8.289e&#45;05] -->
<g id="node33" class="node">
<title>Riparian 4(31)
&lt;7&gt;[8.289e&#45;05]</title>
<ellipse fill="none" stroke="black" cx="1152.71" cy="-480.83" rx="73.58" ry="26.74"/>
<text text-anchor="middle" x="1152.71" y="-484.63" font-family="Times,serif" font-size="14.00">Riparian 4(31)</text>
<text text-anchor="middle" x="1152.71" y="-469.63" font-family="Times,serif" font-size="14.00">&lt;7&gt;[8.289e&#45;05]</text>
</g>
<!-- Riparian 4(31)
&lt;7&gt;[8.289e&#45;05]&#45;&gt;Wheat 1(22)
&lt;14&gt;[0.2323] -->
<g id="edge32" class="edge">
<title>Riparian 4(31)
&lt;7&gt;[8.289e&#45;05]&#45;&gt;Wheat 1(22)
&lt;14&gt;[0.2323]</title>
<path fill="none" stroke="black" d="M1099.09,-462.2C1089.67,-459.31 1079.93,-456.45 1070.71,-453.96 1000.34,-434.98 980.78,-438.02 910.71,-417.96 905.4,-416.44 899.9,-414.75 894.42,-412.98"/>
<polygon fill="black" stroke="black" points="895.21,-409.56 884.62,-409.74 893.01,-416.2 895.21,-409.56"/>
</g>
<!-- Riparian 5(32)
&lt;29&gt;[0.03538] -->
<g id="node34" class="node">
<title>Riparian 5(32)
&lt;29&gt;[0.03538]</title>
<ellipse fill="none" stroke="black" cx="1303.71" cy="-301.35" rx="70.92" ry="26.74"/>
<text text-anchor="middle" x="1303.71" y="-305.15" font-family="Times,serif" font-size="14.00">Riparian 5(32)</text>
<text text-anchor="middle" x="1303.71" y="-290.15" font-family="Times,serif" font-size="14.00">&lt;29&gt;[0.03538]</text>
</g>
<!-- Riparian 5(32)
&lt;29&gt;[0.03538]&#45;&gt;Channel(7)
&lt;32&gt;[0.01] -->
<g id="edge33" class="edge">
<title>Riparian 5(32)
&lt;29&gt;[0.03538]&#45;&gt;Channel(7)
&lt;32&gt;[0.01]</title>
<path fill="none" stroke="black" d="M1253.52,-282.4C1244.04,-279.44 1234.14,-276.64 1224.71,-274.48 1086.3,-242.79 920.49,-225.41 830.58,-217.66"/>
<polygon fill="black" stroke="black" points="830.79,-214.16 820.53,-216.81 830.19,-221.14 830.79,-214.16"/>
</g>
<!-- Riparian 7(34)
&lt;33&gt;[0.02887] -->
<g id="node35" class="node">
<title>Riparian 7(34)
&lt;33&gt;[0.02887]</title>
<ellipse fill="none" stroke="black" cx="544.71" cy="-121.87" rx="70.92" ry="26.74"/>
<text text-anchor="middle" x="544.71" y="-125.67" font-family="Times,serif" font-size="14.00">Riparian 7(34)</text>
<text text-anchor="middle" x="544.71" y="-110.67" font-family="Times,serif" font-size="14.00">&lt;33&gt;[0.02887]</text>
</g>
<!-- Riparian 7(34)
&lt;33&gt;[0.02887]&#45;&gt;basin -->
<g id="edge34" class="edge">
<title>Riparian 7(34)
&lt;33&gt;[0.02887]&#45;&gt;basin</title>
<path fill="none" stroke="black" d="M568.03,-96.35C577.67,-86.21 588.77,-74.54 598.21,-64.61"/>
<polygon fill="black" stroke="black" points="601,-66.75 605.36,-57.09 595.93,-61.93 601,-66.75"/>
</g>
</g>
</svg>
