<?xml version="1.0" encoding="UTF-8" standalone="no"?>
<!DOCTYPE svg PUBLIC "-//W3C//DTD SVG 1.1//EN"
 "http://www.w3.org/Graphics/SVG/1.1/DTD/svg11.dtd">
<!-- Generated by graphviz version 2.43.0 (0)
 -->
<!-- Title: TEST Pages: 1 -->
<svg width="888pt" height="516pt"
 viewBox="0.00 0.00 888.47 515.70" xmlns="http://www.w3.org/2000/svg" xmlns:xlink="http://www.w3.org/1999/xlink">
<g id="graph0" class="graph" transform="scale(1 1) rotate(0) translate(4 511.7)">
<title>TEST</title>
<polygon fill="white" stroke="transparent" points="-4,4 -4,-511.7 884.47,-511.7 884.47,4 -4,4"/>
<text text-anchor="middle" x="440.24" y="-7.8" font-family="Times,serif" font-size="14.00">J_pankiw_test_model_setup1_GrpJ</text>
<!-- Alfalfa_1(1)
&lt;10&gt;[0.05979] -->
<g id="node1" class="node">
<title>Alfalfa_1(1)
&lt;10&gt;[0.05979]</title>
<ellipse fill="none" stroke="black" cx="238.71" cy="-211.61" rx="70.92" ry="26.74"/>
<text text-anchor="middle" x="238.71" y="-215.41" font-family="Times,serif" font-size="14.00">Alfalfa_1(1)</text>
<text text-anchor="middle" x="238.71" y="-200.41" font-family="Times,serif" font-size="14.00">&lt;10&gt;[0.05979]</text>
</g>
<!-- Reservoir(7)
&lt;13&gt;[0.005] -->
<g id="node2" class="node">
<title>Reservoir(7)
&lt;13&gt;[0.005]</title>
<ellipse fill="none" stroke="black" cx="383.71" cy="-121.87" rx="60.62" ry="26.74"/>
<text text-anchor="middle" x="383.71" y="-125.67" font-family="Times,serif" font-size="14.00">Reservoir(7)</text>
<text text-anchor="middle" x="383.71" y="-110.67" font-family="Times,serif" font-size="14.00">&lt;13&gt;[0.005]</text>
</g>
<!-- Alfalfa_1(1)
&lt;10&gt;[0.05979]&#45;&gt;Reservoir(7)
&lt;13&gt;[0.005] -->
<g id="edge1" class="edge">
<title>Alfalfa_1(1)
&lt;10&gt;[0.05979]&#45;&gt;Reservoir(7)
&lt;13&gt;[0.005]</title>
<path fill="none" stroke="black" d="M275.3,-188.47C294.97,-176.56 319.37,-161.8 340.03,-149.3"/>
<polygon fill="black" stroke="black" points="341.89,-152.27 348.63,-144.1 338.27,-146.28 341.89,-152.27"/>
</g>
<!-- basin -->
<g id="node3" class="node">
<title>basin</title>
<ellipse fill="none" stroke="black" cx="383.71" cy="-41" rx="29.5" ry="18"/>
<text text-anchor="middle" x="383.71" y="-37.3" font-family="Times,serif" font-size="14.00">basin</text>
</g>
<!-- Reservoir(7)
&lt;13&gt;[0.005]&#45;&gt;basin -->
<g id="edge2" class="edge">
<title>Reservoir(7)
&lt;13&gt;[0.005]&#45;&gt;basin</title>
<path fill="none" stroke="black" d="M383.71,-94.61C383.71,-86.51 383.71,-77.57 383.71,-69.39"/>
<polygon fill="black" stroke="black" points="387.21,-69.22 383.71,-59.22 380.21,-69.22 387.21,-69.22"/>
</g>
<!-- Alfalfa_2(2)
&lt;5&gt;[0.002697] -->
<g id="node4" class="node">
<title>Alfalfa_2(2)
&lt;5&gt;[0.002697]</title>
<ellipse fill="none" stroke="black" cx="70.71" cy="-301.35" rx="70.92" ry="26.74"/>
<text text-anchor="middle" x="70.71" y="-305.15" font-family="Times,serif" font-size="14.00">Alfalfa_2(2)</text>
<text text-anchor="middle" x="70.71" y="-290.15" font-family="Times,serif" font-size="14.00">&lt;5&gt;[0.002697]</text>
</g>
<!-- Channel(5)
&lt;11&gt;[0.01] -->
<g id="node5" class="node">
<title>Channel(5)
&lt;11&gt;[0.01]</title>
<ellipse fill="none" stroke="black" cx="383.71" cy="-211.61" rx="56.64" ry="26.74"/>
<text text-anchor="middle" x="383.71" y="-215.41" font-family="Times,serif" font-size="14.00">Channel(5)</text>
<text text-anchor="middle" x="383.71" y="-200.41" font-family="Times,serif" font-size="14.00">&lt;11&gt;[0.01]</text>
</g>
<!-- Alfalfa_2(2)
&lt;5&gt;[0.002697]&#45;&gt;Channel(5)
&lt;11&gt;[0.01] -->
<g id="edge3" class="edge">
<title>Alfalfa_2(2)
&lt;5&gt;[0.002697]&#45;&gt;Channel(5)
&lt;11&gt;[0.01]</title>
<path fill="none" stroke="black" d="M121.89,-282.71C131.1,-279.79 140.65,-276.92 149.71,-274.48 223.86,-254.5 245.22,-260.76 318.71,-238.48 323.33,-237.08 328.09,-235.49 332.83,-233.8"/>
<polygon fill="black" stroke="black" points="334.31,-236.98 342.47,-230.23 331.88,-230.42 334.31,-236.98"/>
</g>
<!-- Channel(5)
&lt;11&gt;[0.01]&#45;&gt;Reservoir(7)
&lt;13&gt;[0.005] -->
<g id="edge4" class="edge">
<title>Channel(5)
&lt;11&gt;[0.01]&#45;&gt;Reservoir(7)
&lt;13&gt;[0.005]</title>
<path fill="none" stroke="black" d="M383.71,-184.29C383.71,-176.32 383.71,-167.43 383.71,-158.94"/>
<polygon fill="black" stroke="black" points="387.21,-158.87 383.71,-148.87 380.21,-158.87 387.21,-158.87"/>
</g>
<!-- Canola_1(3)
&lt;8&gt;[0.751] -->
<g id="node6" class="node">
<title>Canola_1(3)
&lt;8&gt;[0.751]</title>
<ellipse fill="none" stroke="black" cx="671.71" cy="-301.35" rx="59.29" ry="26.74"/>
<text text-anchor="middle" x="671.71" y="-305.15" font-family="Times,serif" font-size="14.00">Canola_1(3)</text>
<text text-anchor="middle" x="671.71" y="-290.15" font-family="Times,serif" font-size="14.00">&lt;8&gt;[0.751]</text>
</g>
<!-- Riparian_forest_1(9)
&lt;12&gt;[0.04763] -->
<g id="node7" class="node">
<title>Riparian_forest_1(9)
&lt;12&gt;[0.04763]</title>
<ellipse fill="none" stroke="black" cx="671.71" cy="-211.61" rx="91.85" ry="26.74"/>
<text text-anchor="middle" x="671.71" y="-215.41" font-family="Times,serif" font-size="14.00">Riparian_forest_1(9)</text>
<text text-anchor="middle" x="671.71" y="-200.41" font-family="Times,serif" font-size="14.00">&lt;12&gt;[0.04763]</text>
</g>
<!-- Canola_1(3)
&lt;8&gt;[0.751]&#45;&gt;Riparian_forest_1(9)
&lt;12&gt;[0.04763] -->
<g id="edge5" class="edge">
<title>Canola_1(3)
&lt;8&gt;[0.751]&#45;&gt;Riparian_forest_1(9)
&lt;12&gt;[0.04763]</title>
<path fill="none" stroke="black" d="M671.71,-274.03C671.71,-266.06 671.71,-257.17 671.71,-248.68"/>
<polygon fill="black" stroke="black" points="675.21,-248.61 671.71,-238.61 668.21,-248.61 675.21,-248.61"/>
</g>
<!-- Riparian_forest_1(9)
&lt;12&gt;[0.04763]&#45;&gt;Reservoir(7)
&lt;13&gt;[0.005] -->
<g id="edge6" class="edge">
<title>Riparian_forest_1(9)
&lt;12&gt;[0.04763]&#45;&gt;Reservoir(7)
&lt;13&gt;[0.005]</title>
<path fill="none" stroke="black" d="M609.57,-191.68C560.07,-176.6 491.24,-155.63 442.6,-140.81"/>
<polygon fill="black" stroke="black" points="443.44,-137.41 432.85,-137.84 441.4,-144.1 443.44,-137.41"/>
</g>
<!-- Fescue_(grass_seed)_1(4)
&lt;6&gt;[0.05789] -->
<g id="node8" class="node">
<title>Fescue_(grass_seed)_1(4)
&lt;6&gt;[0.05789]</title>
<ellipse fill="none" stroke="black" cx="270.71" cy="-301.35" rx="111.95" ry="26.74"/>
<text text-anchor="middle" x="270.71" y="-305.15" font-family="Times,serif" font-size="14.00">Fescue_(grass_seed)_1(4)</text>
<text text-anchor="middle" x="270.71" y="-290.15" font-family="Times,serif" font-size="14.00">&lt;6&gt;[0.05789]</text>
</g>
<!-- Fescue_(grass_seed)_1(4)
&lt;6&gt;[0.05789]&#45;&gt;Channel(5)
&lt;11&gt;[0.01] -->
<g id="edge7" class="edge">
<title>Fescue_(grass_seed)_1(4)
&lt;6&gt;[0.05789]&#45;&gt;Channel(5)
&lt;11&gt;[0.01]</title>
<path fill="none" stroke="black" d="M302.79,-275.44C316.53,-264.77 332.67,-252.24 346.9,-241.19"/>
<polygon fill="black" stroke="black" points="349.27,-243.78 355.02,-234.89 344.98,-238.25 349.27,-243.78"/>
</g>
<!-- Flax/Linola_1(6)
&lt;4&gt;[0.06004] -->
<g id="node9" class="node">
<title>Flax/Linola_1(6)
&lt;4&gt;[0.06004]</title>
<ellipse fill="none" stroke="black" cx="352.71" cy="-480.83" rx="77.15" ry="26.74"/>
<text text-anchor="middle" x="352.71" y="-484.63" font-family="Times,serif" font-size="14.00">Flax/Linola_1(6)</text>
<text text-anchor="middle" x="352.71" y="-469.63" font-family="Times,serif" font-size="14.00">&lt;4&gt;[0.06004]</text>
</g>
<!-- Wheat_1(13)
&lt;3&gt;[0.09569] -->
<g id="node10" class="node">
<title>Wheat_1(13)
&lt;3&gt;[0.09569]</title>
<ellipse fill="none" stroke="black" cx="352.71" cy="-391.09" rx="65.52" ry="26.74"/>
<text text-anchor="middle" x="352.71" y="-394.89" font-family="Times,serif" font-size="14.00">Wheat_1(13)</text>
<text text-anchor="middle" x="352.71" y="-379.89" font-family="Times,serif" font-size="14.00">&lt;3&gt;[0.09569]</text>
</g>
<!-- Flax/Linola_1(6)
&lt;4&gt;[0.06004]&#45;&gt;Wheat_1(13)
&lt;3&gt;[0.09569] -->
<g id="edge8" class="edge">
<title>Flax/Linola_1(6)
&lt;4&gt;[0.06004]&#45;&gt;Wheat_1(13)
&lt;3&gt;[0.09569]</title>
<path fill="none" stroke="black" d="M352.71,-453.51C352.71,-445.54 352.71,-436.65 352.71,-428.16"/>
<polygon fill="black" stroke="black" points="356.21,-428.09 352.71,-418.09 349.21,-428.09 356.21,-428.09"/>
</g>
<!-- Riparian_forest_2(10)
&lt;7&gt;[0.1034] -->
<g id="node11" class="node">
<title>Riparian_forest_2(10)
&lt;7&gt;[0.1034]</title>
<ellipse fill="none" stroke="black" cx="497.71" cy="-301.35" rx="96.75" ry="26.74"/>
<text text-anchor="middle" x="497.71" y="-305.15" font-family="Times,serif" font-size="14.00">Riparian_forest_2(10)</text>
<text text-anchor="middle" x="497.71" y="-290.15" font-family="Times,serif" font-size="14.00">&lt;7&gt;[0.1034]</text>
</g>
<!-- Wheat_1(13)
&lt;3&gt;[0.09569]&#45;&gt;Riparian_forest_2(10)
&lt;7&gt;[0.1034] -->
<g id="edge9" class="edge">
<title>Wheat_1(13)
&lt;3&gt;[0.09569]&#45;&gt;Riparian_forest_2(10)
&lt;7&gt;[0.1034]</title>
<path fill="none" stroke="black" d="M388.55,-368.4C407.04,-357.22 429.83,-343.42 449.8,-331.34"/>
<polygon fill="black" stroke="black" points="451.72,-334.27 458.46,-326.1 448.09,-328.28 451.72,-334.27"/>
</g>
<!-- Riparian_forest_2(10)
&lt;7&gt;[0.1034]&#45;&gt;Channel(5)
&lt;11&gt;[0.01] -->
<g id="edge11" class="edge">
<title>Riparian_forest_2(10)
&lt;7&gt;[0.1034]&#45;&gt;Channel(5)
&lt;11&gt;[0.01]</title>
<path fill="none" stroke="black" d="M465.96,-275.91C451.97,-265.14 435.44,-252.42 420.88,-241.22"/>
<polygon fill="black" stroke="black" points="422.63,-238.15 412.57,-234.82 418.36,-243.69 422.63,-238.15"/>
</g>
<!-- Forage_1(8)
&lt;9&gt;[0.01628] -->
<g id="node12" class="node">
<title>Forage_1(8)
&lt;9&gt;[0.01628]</title>
<ellipse fill="none" stroke="black" cx="814.71" cy="-301.35" rx="65.52" ry="26.74"/>
<text text-anchor="middle" x="814.71" y="-305.15" font-family="Times,serif" font-size="14.00">Forage_1(8)</text>
<text text-anchor="middle" x="814.71" y="-290.15" font-family="Times,serif" font-size="14.00">&lt;9&gt;[0.01628]</text>
</g>
<!-- Forage_1(8)
&lt;9&gt;[0.01628]&#45;&gt;Riparian_forest_1(9)
&lt;12&gt;[0.04763] -->
<g id="edge10" class="edge">
<title>Forage_1(8)
&lt;9&gt;[0.01628]&#45;&gt;Riparian_forest_1(9)
&lt;12&gt;[0.04763]</title>
<path fill="none" stroke="black" d="M779.36,-278.66C761.06,-267.43 738.48,-253.57 718.72,-241.46"/>
<polygon fill="black" stroke="black" points="720.52,-238.45 710.16,-236.2 716.86,-244.42 720.52,-238.45"/>
</g>
<!-- Road_1(11)
&lt;1&gt;[0.0253] -->
<g id="node13" class="node">
<title>Road_1(11)
&lt;1&gt;[0.0253]</title>
<ellipse fill="none" stroke="black" cx="497.71" cy="-391.09" rx="60.62" ry="26.74"/>
<text text-anchor="middle" x="497.71" y="-394.89" font-family="Times,serif" font-size="14.00">Road_1(11)</text>
<text text-anchor="middle" x="497.71" y="-379.89" font-family="Times,serif" font-size="14.00">&lt;1&gt;[0.0253]</text>
</g>
<!-- Road_1(11)
&lt;1&gt;[0.0253]&#45;&gt;Riparian_forest_2(10)
&lt;7&gt;[0.1034] -->
<g id="edge12" class="edge">
<title>Road_1(11)
&lt;1&gt;[0.0253]&#45;&gt;Riparian_forest_2(10)
&lt;7&gt;[0.1034]</title>
<path fill="none" stroke="black" d="M497.71,-363.77C497.71,-355.8 497.71,-346.91 497.71,-338.42"/>
<polygon fill="black" stroke="black" points="501.21,-338.35 497.71,-328.35 494.21,-338.35 501.21,-338.35"/>
</g>
<!-- Impervious(12)
&lt;2&gt;[0.02168] -->
<g id="node14" class="node">
<title>Impervious(12)
&lt;2&gt;[0.02168]</title>
<ellipse fill="none" stroke="black" cx="647.71" cy="-391.09" rx="71.34" ry="26.74"/>
<text text-anchor="middle" x="647.71" y="-394.89" font-family="Times,serif" font-size="14.00">Impervious(12)</text>
<text text-anchor="middle" x="647.71" y="-379.89" font-family="Times,serif" font-size="14.00">&lt;2&gt;[0.02168]</text>
</g>
<!-- Impervious(12)
&lt;2&gt;[0.02168]&#45;&gt;Riparian_forest_2(10)
&lt;7&gt;[0.1034] -->
<g id="edge13" class="edge">
<title>Impervious(12)
&lt;2&gt;[0.02168]&#45;&gt;Riparian_forest_2(10)
&lt;7&gt;[0.1034]</title>
<path fill="none" stroke="black" d="M610.25,-368.18C590.96,-356.9 567.21,-343 546.51,-330.9"/>
<polygon fill="black" stroke="black" points="548.25,-327.86 537.85,-325.83 544.71,-333.9 548.25,-327.86"/>
</g>
</g>
</svg>
