<?xml version="1.0" encoding="UTF-8" standalone="no"?>
<!DOCTYPE svg PUBLIC "-//W3C//DTD SVG 1.1//EN"
 "http://www.w3.org/Graphics/SVG/1.1/DTD/svg11.dtd">
<!-- Generated by graphviz version 2.43.0 (0)
 -->
<!-- Title: TEST Pages: 1 -->
<svg width="1767pt" height="875pt"
 viewBox="0.00 0.00 1767.16 874.66" xmlns="http://www.w3.org/2000/svg" xmlns:xlink="http://www.w3.org/1999/xlink">
<g id="graph0" class="graph" transform="scale(1 1) rotate(0) translate(4 870.66)">
<title>TEST</title>
<polygon fill="white" stroke="transparent" points="-4,4 -4,-870.66 1763.16,-870.66 1763.16,4 -4,4"/>
<text text-anchor="middle" x="879.58" y="-7.8" font-family="Times,serif" font-size="14.00">C_Mcfadden_model_GrpC</text>
<!-- Canola_1(1)
&lt;1&gt;[0.628] -->
<g id="node1" class="node">
<title>Canola_1(1)
&lt;1&gt;[0.628]</title>
<ellipse fill="none" stroke="black" cx="59.4" cy="-301.35" rx="59.29" ry="26.74"/>
<text text-anchor="middle" x="59.4" y="-305.15" font-family="Times,serif" font-size="14.00">Canola_1(1)</text>
<text text-anchor="middle" x="59.4" y="-290.15" font-family="Times,serif" font-size="14.00">&lt;1&gt;[0.628]</text>
</g>
<!-- Channel(5)
&lt;31&gt;[0.01] -->
<g id="node2" class="node">
<title>Channel(5)
&lt;31&gt;[0.01]</title>
<ellipse fill="none" stroke="black" cx="880.4" cy="-211.61" rx="56.64" ry="26.74"/>
<text text-anchor="middle" x="880.4" y="-215.41" font-family="Times,serif" font-size="14.00">Channel(5)</text>
<text text-anchor="middle" x="880.4" y="-200.41" font-family="Times,serif" font-size="14.00">&lt;31&gt;[0.01]</text>
</g>
<!-- Canola_1(1)
&lt;1&gt;[0.628]&#45;&gt;Channel(5)
&lt;31&gt;[0.01] -->
<g id="edge1" class="edge">
<title>Canola_1(1)
&lt;1&gt;[0.628]&#45;&gt;Channel(5)
&lt;31&gt;[0.01]</title>
<path fill="none" stroke="black" d="M102.87,-282.88C112.47,-279.61 122.67,-276.57 132.4,-274.48 379.55,-221.4 681.66,-213.24 813.51,-212.4"/>
<polygon fill="black" stroke="black" points="813.86,-215.9 823.84,-212.35 813.82,-208.9 813.86,-215.9"/>
</g>
<!-- Reservoir(22)
&lt;32&gt;[0.08] -->
<g id="node3" class="node">
<title>Reservoir(22)
&lt;32&gt;[0.08]</title>
<ellipse fill="none" stroke="black" cx="880.4" cy="-121.87" rx="65.11" ry="26.74"/>
<text text-anchor="middle" x="880.4" y="-125.67" font-family="Times,serif" font-size="14.00">Reservoir(22)</text>
<text text-anchor="middle" x="880.4" y="-110.67" font-family="Times,serif" font-size="14.00">&lt;32&gt;[0.08]</text>
</g>
<!-- Channel(5)
&lt;31&gt;[0.01]&#45;&gt;Reservoir(22)
&lt;32&gt;[0.08] -->
<g id="edge2" class="edge">
<title>Channel(5)
&lt;31&gt;[0.01]&#45;&gt;Reservoir(22)
&lt;32&gt;[0.08]</title>
<path fill="none" stroke="black" d="M880.4,-184.29C880.4,-176.32 880.4,-167.43 880.4,-158.94"/>
<polygon fill="black" stroke="black" points="883.9,-158.87 880.4,-148.87 876.9,-158.87 883.9,-158.87"/>
</g>
<!-- basin -->
<g id="node4" class="node">
<title>basin</title>
<ellipse fill="none" stroke="black" cx="955.4" cy="-41" rx="29.5" ry="18"/>
<text text-anchor="middle" x="955.4" y="-37.3" font-family="Times,serif" font-size="14.00">basin</text>
</g>
<!-- Reservoir(22)
&lt;32&gt;[0.08]&#45;&gt;basin -->
<g id="edge3" class="edge">
<title>Reservoir(22)
&lt;32&gt;[0.08]&#45;&gt;basin</title>
<path fill="none" stroke="black" d="M903.72,-96.35C913.35,-86.21 924.45,-74.54 933.89,-64.61"/>
<polygon fill="black" stroke="black" points="936.69,-66.75 941.04,-57.09 931.62,-61.93 936.69,-66.75"/>
</g>
<!-- Canola_2(2)
&lt;2&gt;[0.4801] -->
<g id="node5" class="node">
<title>Canola_2(2)
&lt;2&gt;[0.4801]</title>
<ellipse fill="none" stroke="black" cx="120.4" cy="-391.09" rx="60.62" ry="26.74"/>
<text text-anchor="middle" x="120.4" y="-394.89" font-family="Times,serif" font-size="14.00">Canola_2(2)</text>
<text text-anchor="middle" x="120.4" y="-379.89" font-family="Times,serif" font-size="14.00">&lt;2&gt;[0.4801]</text>
</g>
<!-- Canola_2(2)
&lt;2&gt;[0.4801]&#45;&gt;Channel(5)
&lt;31&gt;[0.01] -->
<g id="edge4" class="edge">
<title>Canola_2(2)
&lt;2&gt;[0.4801]&#45;&gt;Channel(5)
&lt;31&gt;[0.01]</title>
<path fill="none" stroke="black" d="M129.28,-364.38C140.21,-337 161.59,-294.87 195.4,-274.48 247.58,-243.01 652.13,-222.39 813.88,-215.32"/>
<polygon fill="black" stroke="black" points="814.34,-218.81 824.18,-214.88 814.04,-211.81 814.34,-218.81"/>
</g>
<!-- Canola_3(3)
&lt;3&gt;[0.3007] -->
<g id="node6" class="node">
<title>Canola_3(3)
&lt;3&gt;[0.3007]</title>
<ellipse fill="none" stroke="black" cx="158.4" cy="-480.83" rx="60.62" ry="26.74"/>
<text text-anchor="middle" x="158.4" y="-484.63" font-family="Times,serif" font-size="14.00">Canola_3(3)</text>
<text text-anchor="middle" x="158.4" y="-469.63" font-family="Times,serif" font-size="14.00">&lt;3&gt;[0.3007]</text>
</g>
<!-- Canola_3(3)
&lt;3&gt;[0.3007]&#45;&gt;Channel(5)
&lt;31&gt;[0.01] -->
<g id="edge5" class="edge">
<title>Canola_3(3)
&lt;3&gt;[0.3007]&#45;&gt;Channel(5)
&lt;31&gt;[0.01]</title>
<path fill="none" stroke="black" d="M172.88,-454.45C178.8,-443.45 185.41,-430.29 190.4,-417.96 215.35,-356.24 181.95,-316.73 233.4,-274.48 277.59,-238.19 657.49,-220.58 813.72,-214.82"/>
<polygon fill="black" stroke="black" points="814.26,-218.3 824.13,-214.44 814.01,-211.31 814.26,-218.3"/>
</g>
<!-- Canola_4(4)
&lt;4&gt;[0.0716] -->
<g id="node7" class="node">
<title>Canola_4(4)
&lt;4&gt;[0.0716]</title>
<ellipse fill="none" stroke="black" cx="196.4" cy="-570.57" rx="60.62" ry="26.74"/>
<text text-anchor="middle" x="196.4" y="-574.37" font-family="Times,serif" font-size="14.00">Canola_4(4)</text>
<text text-anchor="middle" x="196.4" y="-559.37" font-family="Times,serif" font-size="14.00">&lt;4&gt;[0.0716]</text>
</g>
<!-- Canola_4(4)
&lt;4&gt;[0.0716]&#45;&gt;Channel(5)
&lt;31&gt;[0.01] -->
<g id="edge6" class="edge">
<title>Canola_4(4)
&lt;4&gt;[0.0716]&#45;&gt;Channel(5)
&lt;31&gt;[0.01]</title>
<path fill="none" stroke="black" d="M211.55,-544.43C217.57,-533.48 224.09,-520.29 228.4,-507.7 262.53,-407.98 193.91,-345.93 271.4,-274.48 310.67,-238.27 663.87,-220.78 813.69,-214.93"/>
<polygon fill="black" stroke="black" points="814.26,-218.41 824.12,-214.53 813.99,-211.42 814.26,-218.41"/>
</g>
<!-- Forage_1(6)
&lt;5&gt;[0.1259] -->
<g id="node8" class="node">
<title>Forage_1(6)
&lt;5&gt;[0.1259]</title>
<ellipse fill="none" stroke="black" cx="234.4" cy="-660.31" rx="60.62" ry="26.74"/>
<text text-anchor="middle" x="234.4" y="-664.11" font-family="Times,serif" font-size="14.00">Forage_1(6)</text>
<text text-anchor="middle" x="234.4" y="-649.11" font-family="Times,serif" font-size="14.00">&lt;5&gt;[0.1259]</text>
</g>
<!-- Forage_1(6)
&lt;5&gt;[0.1259]&#45;&gt;Channel(5)
&lt;31&gt;[0.01] -->
<g id="edge7" class="edge">
<title>Forage_1(6)
&lt;5&gt;[0.1259]&#45;&gt;Channel(5)
&lt;31&gt;[0.01]</title>
<path fill="none" stroke="black" d="M249.67,-634.21C255.71,-623.27 262.21,-610.07 266.4,-597.44 282.78,-548.01 285.4,-533.9 285.4,-481.83 285.4,-481.83 285.4,-481.83 285.4,-390.09 285.4,-337.61 270.54,-309.75 309.4,-274.48 346.13,-241.14 670.85,-222.24 813.58,-215.49"/>
<polygon fill="black" stroke="black" points="814.13,-218.96 823.95,-215 813.8,-211.97 814.13,-218.96"/>
</g>
<!-- Forage_2(7)
&lt;6&gt;[0.1179] -->
<g id="node9" class="node">
<title>Forage_2(7)
&lt;6&gt;[0.1179]</title>
<ellipse fill="none" stroke="black" cx="272.4" cy="-750.05" rx="60.62" ry="26.74"/>
<text text-anchor="middle" x="272.4" y="-753.85" font-family="Times,serif" font-size="14.00">Forage_2(7)</text>
<text text-anchor="middle" x="272.4" y="-738.85" font-family="Times,serif" font-size="14.00">&lt;6&gt;[0.1179]</text>
</g>
<!-- Forage_2(7)
&lt;6&gt;[0.1179]&#45;&gt;Channel(5)
&lt;31&gt;[0.01] -->
<g id="edge8" class="edge">
<title>Forage_2(7)
&lt;6&gt;[0.1179]&#45;&gt;Channel(5)
&lt;31&gt;[0.01]</title>
<path fill="none" stroke="black" d="M287.67,-723.95C293.71,-713.01 300.21,-699.81 304.4,-687.18 320.78,-637.75 323.4,-623.64 323.4,-571.57 323.4,-571.57 323.4,-571.57 323.4,-390.09 323.4,-337.61 308.67,-309.9 347.4,-274.48 381.27,-243.5 678.98,-223.55 814.15,-216.01"/>
<polygon fill="black" stroke="black" points="814.58,-219.49 824.37,-215.44 814.19,-212.5 814.58,-219.49"/>
</g>
<!-- Forage_3(8)
&lt;7&gt;[0.03885] -->
<g id="node10" class="node">
<title>Forage_3(8)
&lt;7&gt;[0.03885]</title>
<ellipse fill="none" stroke="black" cx="361.4" cy="-839.79" rx="65.52" ry="26.74"/>
<text text-anchor="middle" x="361.4" y="-843.59" font-family="Times,serif" font-size="14.00">Forage_3(8)</text>
<text text-anchor="middle" x="361.4" y="-828.59" font-family="Times,serif" font-size="14.00">&lt;7&gt;[0.03885]</text>
</g>
<!-- Forage_3(8)
&lt;7&gt;[0.03885]&#45;&gt;Channel(5)
&lt;31&gt;[0.01] -->
<g id="edge9" class="edge">
<title>Forage_3(8)
&lt;7&gt;[0.03885]&#45;&gt;Channel(5)
&lt;31&gt;[0.01]</title>
<path fill="none" stroke="black" d="M361.4,-812.63C361.4,-778.01 361.4,-715.08 361.4,-661.31 361.4,-661.31 361.4,-661.31 361.4,-390.09 361.4,-338.02 342.85,-310.56 380.4,-274.48 411.14,-244.94 685.07,-224.51 813.94,-216.45"/>
<polygon fill="black" stroke="black" points="814.31,-219.93 824.08,-215.82 813.88,-212.94 814.31,-219.93"/>
</g>
<!-- Forage_4(9)
&lt;8&gt;[0.07591] -->
<g id="node11" class="node">
<title>Forage_4(9)
&lt;8&gt;[0.07591]</title>
<ellipse fill="none" stroke="black" cx="455.4" cy="-301.35" rx="65.52" ry="26.74"/>
<text text-anchor="middle" x="455.4" y="-305.15" font-family="Times,serif" font-size="14.00">Forage_4(9)</text>
<text text-anchor="middle" x="455.4" y="-290.15" font-family="Times,serif" font-size="14.00">&lt;8&gt;[0.07591]</text>
</g>
<!-- Forage_4(9)
&lt;8&gt;[0.07591]&#45;&gt;Channel(5)
&lt;31&gt;[0.01] -->
<g id="edge10" class="edge">
<title>Forage_4(9)
&lt;8&gt;[0.07591]&#45;&gt;Channel(5)
&lt;31&gt;[0.01]</title>
<path fill="none" stroke="black" d="M504.6,-283.29C514.71,-280.1 525.34,-277 535.4,-274.48 632.31,-250.24 746.81,-231.64 816.49,-221.42"/>
<polygon fill="black" stroke="black" points="817.04,-224.88 826.43,-219.98 816.03,-217.95 817.04,-224.88"/>
</g>
<!-- Forage_5(10)
&lt;9&gt;[0.4119] -->
<g id="node12" class="node">
<title>Forage_5(10)
&lt;9&gt;[0.4119]</title>
<ellipse fill="none" stroke="black" cx="495.4" cy="-391.09" rx="63.78" ry="26.74"/>
<text text-anchor="middle" x="495.4" y="-394.89" font-family="Times,serif" font-size="14.00">Forage_5(10)</text>
<text text-anchor="middle" x="495.4" y="-379.89" font-family="Times,serif" font-size="14.00">&lt;9&gt;[0.4119]</text>
</g>
<!-- Forage_5(10)
&lt;9&gt;[0.4119]&#45;&gt;Channel(5)
&lt;31&gt;[0.01] -->
<g id="edge11" class="edge">
<title>Forage_5(10)
&lt;9&gt;[0.4119]&#45;&gt;Channel(5)
&lt;31&gt;[0.01]</title>
<path fill="none" stroke="black" d="M509.48,-364.65C526.82,-334.25 556.07,-286.03 573.4,-274.48 612.31,-248.54 737.55,-229.52 815.53,-219.84"/>
<polygon fill="black" stroke="black" points="816.23,-223.28 825.73,-218.59 815.38,-216.33 816.23,-223.28"/>
</g>
<!-- Forage_6(11)
&lt;10&gt;[0.3253] -->
<g id="node13" class="node">
<title>Forage_6(11)
&lt;10&gt;[0.3253]</title>
<ellipse fill="none" stroke="black" cx="531.4" cy="-480.83" rx="65.52" ry="26.74"/>
<text text-anchor="middle" x="531.4" y="-484.63" font-family="Times,serif" font-size="14.00">Forage_6(11)</text>
<text text-anchor="middle" x="531.4" y="-469.63" font-family="Times,serif" font-size="14.00">&lt;10&gt;[0.3253]</text>
</g>
<!-- Forage_6(11)
&lt;10&gt;[0.3253]&#45;&gt;Channel(5)
&lt;31&gt;[0.01] -->
<g id="edge12" class="edge">
<title>Forage_6(11)
&lt;10&gt;[0.3253]&#45;&gt;Channel(5)
&lt;31&gt;[0.01]</title>
<path fill="none" stroke="black" d="M548.36,-454.71C555.23,-443.75 562.85,-430.56 568.4,-417.96 595.24,-357.04 562.82,-320 611.4,-274.48 640.52,-247.19 745.62,-229.22 815.5,-220"/>
<polygon fill="black" stroke="black" points="816.07,-223.45 825.54,-218.7 815.17,-216.51 816.07,-223.45"/>
</g>
<!-- Grazing_2(13)
&lt;11&gt;[0.2064] -->
<g id="node14" class="node">
<title>Grazing_2(13)
&lt;11&gt;[0.2064]</title>
<ellipse fill="none" stroke="black" cx="567.4" cy="-570.57" rx="67.76" ry="26.74"/>
<text text-anchor="middle" x="567.4" y="-574.37" font-family="Times,serif" font-size="14.00">Grazing_2(13)</text>
<text text-anchor="middle" x="567.4" y="-559.37" font-family="Times,serif" font-size="14.00">&lt;11&gt;[0.2064]</text>
</g>
<!-- Grazing_2(13)
&lt;11&gt;[0.2064]&#45;&gt;Channel(5)
&lt;31&gt;[0.01] -->
<g id="edge13" class="edge">
<title>Grazing_2(13)
&lt;11&gt;[0.2064]&#45;&gt;Channel(5)
&lt;31&gt;[0.01]</title>
<path fill="none" stroke="black" d="M586.23,-544.55C593.54,-533.72 601.36,-520.59 606.4,-507.7 644.75,-409.52 577.88,-351.91 649.4,-274.48 671.9,-250.12 756.28,-232.07 816.54,-221.94"/>
<polygon fill="black" stroke="black" points="817.44,-225.34 826.74,-220.26 816.31,-218.43 817.44,-225.34"/>
</g>
<!-- Imperable(14)
&lt;12&gt;[0.08351] -->
<g id="node15" class="node">
<title>Imperable(14)
&lt;12&gt;[0.08351]</title>
<ellipse fill="none" stroke="black" cx="602.4" cy="-660.31" rx="70.92" ry="26.74"/>
<text text-anchor="middle" x="602.4" y="-664.11" font-family="Times,serif" font-size="14.00">Imperable(14)</text>
<text text-anchor="middle" x="602.4" y="-649.11" font-family="Times,serif" font-size="14.00">&lt;12&gt;[0.08351]</text>
</g>
<!-- Imperable(14)
&lt;12&gt;[0.08351]&#45;&gt;Channel(5)
&lt;31&gt;[0.01] -->
<g id="edge14" class="edge">
<title>Imperable(14)
&lt;12&gt;[0.08351]&#45;&gt;Channel(5)
&lt;31&gt;[0.01]</title>
<path fill="none" stroke="black" d="M622.85,-634.54C630.76,-623.75 639.15,-610.58 644.4,-597.44 663.69,-549.08 663.4,-533.9 663.4,-481.83 663.4,-481.83 663.4,-481.83 663.4,-390.09 663.4,-337.61 652.3,-313.49 687.4,-274.48 719.53,-238.76 772.3,-223.54 814.54,-217.12"/>
<polygon fill="black" stroke="black" points="815.06,-220.58 824.48,-215.74 814.1,-213.65 815.06,-220.58"/>
</g>
<!-- Linola_1(15)
&lt;13&gt;[0.6774] -->
<g id="node16" class="node">
<title>Linola_1(15)
&lt;13&gt;[0.6774]</title>
<ellipse fill="none" stroke="black" cx="645.4" cy="-750.05" rx="65.52" ry="26.74"/>
<text text-anchor="middle" x="645.4" y="-753.85" font-family="Times,serif" font-size="14.00">Linola_1(15)</text>
<text text-anchor="middle" x="645.4" y="-738.85" font-family="Times,serif" font-size="14.00">&lt;13&gt;[0.6774]</text>
</g>
<!-- Linola_1(15)
&lt;13&gt;[0.6774]&#45;&gt;Channel(5)
&lt;31&gt;[0.01] -->
<g id="edge15" class="edge">
<title>Linola_1(15)
&lt;13&gt;[0.6774]&#45;&gt;Channel(5)
&lt;31&gt;[0.01]</title>
<path fill="none" stroke="black" d="M663.35,-723.95C670.3,-713.11 677.71,-699.99 682.4,-687.18 700.3,-638.28 701.4,-623.64 701.4,-571.57 701.4,-571.57 701.4,-571.57 701.4,-390.09 701.4,-337.61 691.68,-314.69 725.4,-274.48 748.34,-247.12 785.12,-231.76 817.1,-223.19"/>
<polygon fill="black" stroke="black" points="818,-226.58 826.84,-220.75 816.29,-219.79 818,-226.58"/>
</g>
<!-- Linola_2(16)
&lt;14&gt;[0.2709] -->
<g id="node17" class="node">
<title>Linola_2(16)
&lt;14&gt;[0.2709]</title>
<ellipse fill="none" stroke="black" cx="739.4" cy="-839.79" rx="65.52" ry="26.74"/>
<text text-anchor="middle" x="739.4" y="-843.59" font-family="Times,serif" font-size="14.00">Linola_2(16)</text>
<text text-anchor="middle" x="739.4" y="-828.59" font-family="Times,serif" font-size="14.00">&lt;14&gt;[0.2709]</text>
</g>
<!-- Linola_2(16)
&lt;14&gt;[0.2709]&#45;&gt;Channel(5)
&lt;31&gt;[0.01] -->
<g id="edge16" class="edge">
<title>Linola_2(16)
&lt;14&gt;[0.2709]&#45;&gt;Channel(5)
&lt;31&gt;[0.01]</title>
<path fill="none" stroke="black" d="M739.4,-812.63C739.4,-778.01 739.4,-715.08 739.4,-661.31 739.4,-661.31 739.4,-661.31 739.4,-390.09 739.4,-338.02 727.63,-316.49 758.4,-274.48 773.94,-253.26 798.86,-238.82 822.15,-229.27"/>
<polygon fill="black" stroke="black" points="823.58,-232.47 831.65,-225.59 821.06,-225.94 823.58,-232.47"/>
</g>
<!-- Linola_3(17)
&lt;15&gt;[0.2262] -->
<g id="node18" class="node">
<title>Linola_3(17)
&lt;15&gt;[0.2262]</title>
<ellipse fill="none" stroke="black" cx="833.4" cy="-301.35" rx="65.52" ry="26.74"/>
<text text-anchor="middle" x="833.4" y="-305.15" font-family="Times,serif" font-size="14.00">Linola_3(17)</text>
<text text-anchor="middle" x="833.4" y="-290.15" font-family="Times,serif" font-size="14.00">&lt;15&gt;[0.2262]</text>
</g>
<!-- Linola_3(17)
&lt;15&gt;[0.2262]&#45;&gt;Channel(5)
&lt;31&gt;[0.01] -->
<g id="edge17" class="edge">
<title>Linola_3(17)
&lt;15&gt;[0.2262]&#45;&gt;Channel(5)
&lt;31&gt;[0.01]</title>
<path fill="none" stroke="black" d="M846.99,-274.97C851.67,-266.24 856.99,-256.32 861.98,-246.99"/>
<polygon fill="black" stroke="black" points="865.2,-248.4 866.83,-237.93 859.03,-245.09 865.2,-248.4"/>
</g>
<!-- Oat_1(18)
&lt;16&gt;[1.224] -->
<g id="node19" class="node">
<title>Oat_1(18)
&lt;16&gt;[1.224]</title>
<ellipse fill="none" stroke="black" cx="876.4" cy="-391.09" rx="60.62" ry="26.74"/>
<text text-anchor="middle" x="876.4" y="-394.89" font-family="Times,serif" font-size="14.00">Oat_1(18)</text>
<text text-anchor="middle" x="876.4" y="-379.89" font-family="Times,serif" font-size="14.00">&lt;16&gt;[1.224]</text>
</g>
<!-- Oat_1(18)
&lt;16&gt;[1.224]&#45;&gt;Channel(5)
&lt;31&gt;[0.01] -->
<g id="edge18" class="edge">
<title>Oat_1(18)
&lt;16&gt;[1.224]&#45;&gt;Channel(5)
&lt;31&gt;[0.01]</title>
<path fill="none" stroke="black" d="M892.85,-364.99C899.02,-354.15 905.28,-341.03 908.4,-328.22 914.04,-305.01 913.43,-297.83 908.4,-274.48 906.39,-265.17 902.86,-255.58 898.97,-246.8"/>
<polygon fill="black" stroke="black" points="902.09,-245.21 894.66,-237.66 895.76,-248.2 902.09,-245.21"/>
</g>
<!-- Oat_2(19)
&lt;17&gt;[0.0875] -->
<g id="node20" class="node">
<title>Oat_2(19)
&lt;17&gt;[0.0875]</title>
<ellipse fill="none" stroke="black" cx="909.4" cy="-480.83" rx="65.52" ry="26.74"/>
<text text-anchor="middle" x="909.4" y="-484.63" font-family="Times,serif" font-size="14.00">Oat_2(19)</text>
<text text-anchor="middle" x="909.4" y="-469.63" font-family="Times,serif" font-size="14.00">&lt;17&gt;[0.0875]</text>
</g>
<!-- Oat_2(19)
&lt;17&gt;[0.0875]&#45;&gt;Channel(5)
&lt;31&gt;[0.01] -->
<g id="edge19" class="edge">
<title>Oat_2(19)
&lt;17&gt;[0.0875]&#45;&gt;Channel(5)
&lt;31&gt;[0.01]</title>
<path fill="none" stroke="black" d="M928.39,-455.07C935.52,-444.28 942.77,-431.11 946.4,-417.96 952.76,-394.94 949.14,-387.95 946.4,-364.22 941.7,-323.53 942.45,-311.72 925.4,-274.48 920.7,-264.22 914.16,-253.95 907.52,-244.81"/>
<polygon fill="black" stroke="black" points="910.27,-242.64 901.45,-236.77 904.68,-246.86 910.27,-242.64"/>
</g>
<!-- Oat_3(20)
&lt;18&gt;[0.05618] -->
<g id="node21" class="node">
<title>Oat_3(20)
&lt;18&gt;[0.05618]</title>
<ellipse fill="none" stroke="black" cx="942.4" cy="-570.57" rx="70.92" ry="26.74"/>
<text text-anchor="middle" x="942.4" y="-574.37" font-family="Times,serif" font-size="14.00">Oat_3(20)</text>
<text text-anchor="middle" x="942.4" y="-559.37" font-family="Times,serif" font-size="14.00">&lt;18&gt;[0.05618]</text>
</g>
<!-- Oat_3(20)
&lt;18&gt;[0.05618]&#45;&gt;Channel(5)
&lt;31&gt;[0.01] -->
<g id="edge20" class="edge">
<title>Oat_3(20)
&lt;18&gt;[0.05618]&#45;&gt;Channel(5)
&lt;31&gt;[0.01]</title>
<path fill="none" stroke="black" d="M964.15,-544.88C972.16,-534.21 980.28,-521.1 984.4,-507.7 991.41,-484.87 986.76,-477.73 984.4,-453.96 976.36,-373 988.49,-345.27 948.4,-274.48 941.25,-261.85 930.6,-250.39 919.83,-240.86"/>
<polygon fill="black" stroke="black" points="921.93,-238.04 912.03,-234.27 917.41,-243.39 921.93,-238.04"/>
</g>
<!-- Pasture(21)
&lt;19&gt;[0.1444] -->
<g id="node22" class="node">
<title>Pasture(21)
&lt;19&gt;[0.1444]</title>
<ellipse fill="none" stroke="black" cx="985.4" cy="-660.31" rx="65.52" ry="26.74"/>
<text text-anchor="middle" x="985.4" y="-664.11" font-family="Times,serif" font-size="14.00">Pasture(21)</text>
<text text-anchor="middle" x="985.4" y="-649.11" font-family="Times,serif" font-size="14.00">&lt;19&gt;[0.1444]</text>
</g>
<!-- Pasture(21)
&lt;19&gt;[0.1444]&#45;&gt;Channel(5)
&lt;31&gt;[0.01] -->
<g id="edge21" class="edge">
<title>Pasture(21)
&lt;19&gt;[0.1444]&#45;&gt;Channel(5)
&lt;31&gt;[0.01]</title>
<path fill="none" stroke="black" d="M1003.35,-634.21C1010.3,-623.37 1017.71,-610.25 1022.4,-597.44 1040.3,-548.54 1041.4,-533.9 1041.4,-481.83 1041.4,-481.83 1041.4,-481.83 1041.4,-390.09 1041.4,-320.97 973.57,-266.81 925.97,-237.3"/>
<polygon fill="black" stroke="black" points="927.7,-234.26 917.33,-232.08 924.08,-240.25 927.7,-234.26"/>
</g>
<!-- Riparian_5(23)
&lt;20&gt;[0.05535] -->
<g id="node23" class="node">
<title>Riparian_5(23)
&lt;20&gt;[0.05535]</title>
<ellipse fill="none" stroke="black" cx="1018.4" cy="-750.05" rx="70.92" ry="26.74"/>
<text text-anchor="middle" x="1018.4" y="-753.85" font-family="Times,serif" font-size="14.00">Riparian_5(23)</text>
<text text-anchor="middle" x="1018.4" y="-738.85" font-family="Times,serif" font-size="14.00">&lt;20&gt;[0.05535]</text>
</g>
<!-- Riparian_5(23)
&lt;20&gt;[0.05535]&#45;&gt;Channel(5)
&lt;31&gt;[0.01] -->
<g id="edge22" class="edge">
<title>Riparian_5(23)
&lt;20&gt;[0.05535]&#45;&gt;Channel(5)
&lt;31&gt;[0.01]</title>
<path fill="none" stroke="black" d="M1038.85,-724.28C1046.76,-713.49 1055.15,-700.32 1060.4,-687.18 1079.69,-638.82 1079.4,-623.64 1079.4,-571.57 1079.4,-571.57 1079.4,-571.57 1079.4,-390.09 1079.4,-331.36 1058.47,-314.4 1015.4,-274.48 993.42,-254.11 963.57,-239.48 937.53,-229.58"/>
<polygon fill="black" stroke="black" points="938.72,-226.29 928.13,-226.15 936.32,-232.87 938.72,-226.29"/>
</g>
<!-- Riparian_1(24)
&lt;21&gt;[0.9549] -->
<g id="node24" class="node">
<title>Riparian_1(24)
&lt;21&gt;[0.9549]</title>
<ellipse fill="none" stroke="black" cx="1117.4" cy="-839.79" rx="70.01" ry="26.74"/>
<text text-anchor="middle" x="1117.4" y="-843.59" font-family="Times,serif" font-size="14.00">Riparian_1(24)</text>
<text text-anchor="middle" x="1117.4" y="-828.59" font-family="Times,serif" font-size="14.00">&lt;21&gt;[0.9549]</text>
</g>
<!-- Riparian_1(24)
&lt;21&gt;[0.9549]&#45;&gt;Channel(5)
&lt;31&gt;[0.01] -->
<g id="edge23" class="edge">
<title>Riparian_1(24)
&lt;21&gt;[0.9549]&#45;&gt;Channel(5)
&lt;31&gt;[0.01]</title>
<path fill="none" stroke="black" d="M1117.4,-812.63C1117.4,-778.01 1117.4,-715.08 1117.4,-661.31 1117.4,-661.31 1117.4,-661.31 1117.4,-390.09 1117.4,-331.57 1098.9,-312.48 1054.4,-274.48 1022.97,-247.65 979.09,-232.15 943.25,-223.38"/>
<polygon fill="black" stroke="black" points="943.91,-219.94 933.38,-221.08 942.32,-226.75 943.91,-219.94"/>
</g>
<!-- Riparian_2(25)
&lt;22&gt;[0.08087] -->
<g id="node25" class="node">
<title>Riparian_2(25)
&lt;22&gt;[0.08087]</title>
<ellipse fill="none" stroke="black" cx="1216.4" cy="-301.35" rx="70.92" ry="26.74"/>
<text text-anchor="middle" x="1216.4" y="-305.15" font-family="Times,serif" font-size="14.00">Riparian_2(25)</text>
<text text-anchor="middle" x="1216.4" y="-290.15" font-family="Times,serif" font-size="14.00">&lt;22&gt;[0.08087]</text>
</g>
<!-- Riparian_2(25)
&lt;22&gt;[0.08087]&#45;&gt;Channel(5)
&lt;31&gt;[0.01] -->
<g id="edge24" class="edge">
<title>Riparian_2(25)
&lt;22&gt;[0.08087]&#45;&gt;Channel(5)
&lt;31&gt;[0.01]</title>
<path fill="none" stroke="black" d="M1163.02,-283.63C1152.56,-280.49 1141.66,-277.3 1131.4,-274.48 1066.49,-256.62 991.47,-238.45 940.48,-226.46"/>
<polygon fill="black" stroke="black" points="941.14,-223.02 930.61,-224.15 939.54,-229.84 941.14,-223.02"/>
</g>
<!-- Riparian_3(26)
&lt;23&gt;[0.114] -->
<g id="node26" class="node">
<title>Riparian_3(26)
&lt;23&gt;[0.114]</title>
<ellipse fill="none" stroke="black" cx="1255.4" cy="-391.09" rx="70.01" ry="26.74"/>
<text text-anchor="middle" x="1255.4" y="-394.89" font-family="Times,serif" font-size="14.00">Riparian_3(26)</text>
<text text-anchor="middle" x="1255.4" y="-379.89" font-family="Times,serif" font-size="14.00">&lt;23&gt;[0.114]</text>
</g>
<!-- Riparian_3(26)
&lt;23&gt;[0.114]&#45;&gt;Channel(5)
&lt;31&gt;[0.01] -->
<g id="edge25" class="edge">
<title>Riparian_3(26)
&lt;23&gt;[0.114]&#45;&gt;Channel(5)
&lt;31&gt;[0.01]</title>
<path fill="none" stroke="black" d="M1277.03,-365.34C1296.52,-339.96 1318.93,-300.61 1296.4,-274.48 1252.16,-223.17 1053.46,-213.74 947.49,-212.43"/>
<polygon fill="black" stroke="black" points="947.25,-208.93 937.22,-212.33 947.18,-215.93 947.25,-208.93"/>
</g>
<!-- Riparian_4(27)
&lt;24&gt;[0.06911] -->
<g id="node27" class="node">
<title>Riparian_4(27)
&lt;24&gt;[0.06911]</title>
<ellipse fill="none" stroke="black" cx="1292.4" cy="-480.83" rx="70.92" ry="26.74"/>
<text text-anchor="middle" x="1292.4" y="-484.63" font-family="Times,serif" font-size="14.00">Riparian_4(27)</text>
<text text-anchor="middle" x="1292.4" y="-469.63" font-family="Times,serif" font-size="14.00">&lt;24&gt;[0.06911]</text>
</g>
<!-- Riparian_4(27)
&lt;24&gt;[0.06911]&#45;&gt;Channel(5)
&lt;31&gt;[0.01] -->
<g id="edge26" class="edge">
<title>Riparian_4(27)
&lt;24&gt;[0.06911]&#45;&gt;Channel(5)
&lt;31&gt;[0.01]</title>
<path fill="none" stroke="black" d="M1314.15,-455.14C1322.16,-444.47 1330.28,-431.36 1334.4,-417.96 1353.3,-356.47 1362.39,-318.41 1315.4,-274.48 1263.37,-225.85 1055.81,-215.24 947.29,-213.07"/>
<polygon fill="black" stroke="black" points="947.16,-209.56 937.1,-212.88 947.04,-216.56 947.16,-209.56"/>
</g>
<!-- Wheat_1(28)
&lt;25&gt;[0.4409] -->
<g id="node28" class="node">
<title>Wheat_1(28)
&lt;25&gt;[0.4409]</title>
<ellipse fill="none" stroke="black" cx="1335.4" cy="-570.57" rx="65.52" ry="26.74"/>
<text text-anchor="middle" x="1335.4" y="-574.37" font-family="Times,serif" font-size="14.00">Wheat_1(28)</text>
<text text-anchor="middle" x="1335.4" y="-559.37" font-family="Times,serif" font-size="14.00">&lt;25&gt;[0.4409]</text>
</g>
<!-- Wheat_1(28)
&lt;25&gt;[0.4409]&#45;&gt;Channel(5)
&lt;31&gt;[0.01] -->
<g id="edge27" class="edge">
<title>Wheat_1(28)
&lt;25&gt;[0.4409]&#45;&gt;Channel(5)
&lt;31&gt;[0.01]</title>
<path fill="none" stroke="black" d="M1354.39,-544.81C1361.52,-534.02 1368.77,-520.85 1372.4,-507.7 1391.07,-440.08 1368.92,-297.61 1345.4,-274.48 1290.43,-220.44 1062.53,-212.49 947.48,-212.02"/>
<polygon fill="black" stroke="black" points="947.38,-208.52 937.38,-211.99 947.37,-215.52 947.38,-208.52"/>
</g>
<!-- Wheat_2(29)
&lt;26&gt;[0.557] -->
<g id="node29" class="node">
<title>Wheat_2(29)
&lt;26&gt;[0.557]</title>
<ellipse fill="none" stroke="black" cx="1376.4" cy="-660.31" rx="62.87" ry="26.74"/>
<text text-anchor="middle" x="1376.4" y="-664.11" font-family="Times,serif" font-size="14.00">Wheat_2(29)</text>
<text text-anchor="middle" x="1376.4" y="-649.11" font-family="Times,serif" font-size="14.00">&lt;26&gt;[0.557]</text>
</g>
<!-- Wheat_2(29)
&lt;26&gt;[0.557]&#45;&gt;Channel(5)
&lt;31&gt;[0.01] -->
<g id="edge28" class="edge">
<title>Wheat_2(29)
&lt;26&gt;[0.557]&#45;&gt;Channel(5)
&lt;31&gt;[0.01]</title>
<path fill="none" stroke="black" d="M1392.66,-634.33C1399.1,-623.4 1405.99,-610.18 1410.4,-597.44 1427.4,-548.22 1429.4,-533.9 1429.4,-481.83 1429.4,-481.83 1429.4,-481.83 1429.4,-390.09 1429.4,-332.2 1416.88,-307.59 1369.4,-274.48 1302.63,-227.92 1065.01,-216.39 947.37,-213.54"/>
<polygon fill="black" stroke="black" points="947.13,-210.04 937.05,-213.31 946.97,-217.03 947.13,-210.04"/>
</g>
<!-- Wheat_3(30)
&lt;27&gt;[0.854] -->
<g id="node30" class="node">
<title>Wheat_3(30)
&lt;27&gt;[0.854]</title>
<ellipse fill="none" stroke="black" cx="1414.4" cy="-750.05" rx="62.87" ry="26.74"/>
<text text-anchor="middle" x="1414.4" y="-753.85" font-family="Times,serif" font-size="14.00">Wheat_3(30)</text>
<text text-anchor="middle" x="1414.4" y="-738.85" font-family="Times,serif" font-size="14.00">&lt;27&gt;[0.854]</text>
</g>
<!-- Wheat_3(30)
&lt;27&gt;[0.854]&#45;&gt;Channel(5)
&lt;31&gt;[0.01] -->
<g id="edge29" class="edge">
<title>Wheat_3(30)
&lt;27&gt;[0.854]&#45;&gt;Channel(5)
&lt;31&gt;[0.01]</title>
<path fill="none" stroke="black" d="M1430.66,-724.07C1437.1,-713.14 1443.99,-699.92 1448.4,-687.18 1465.4,-637.96 1467.4,-623.64 1467.4,-571.57 1467.4,-571.57 1467.4,-571.57 1467.4,-390.09 1467.4,-332.2 1455.03,-307.38 1407.4,-274.48 1334.32,-224 1072.33,-214.47 947.48,-212.83"/>
<polygon fill="black" stroke="black" points="947.32,-209.33 937.28,-212.71 947.24,-216.33 947.32,-209.33"/>
</g>
<!-- Wheat_4(31)
&lt;28&gt;[1.097] -->
<g id="node31" class="node">
<title>Wheat_4(31)
&lt;28&gt;[1.097]</title>
<ellipse fill="none" stroke="black" cx="1505.4" cy="-839.79" rx="62.87" ry="26.74"/>
<text text-anchor="middle" x="1505.4" y="-843.59" font-family="Times,serif" font-size="14.00">Wheat_4(31)</text>
<text text-anchor="middle" x="1505.4" y="-828.59" font-family="Times,serif" font-size="14.00">&lt;28&gt;[1.097]</text>
</g>
<!-- Wheat_4(31)
&lt;28&gt;[1.097]&#45;&gt;Channel(5)
&lt;31&gt;[0.01] -->
<g id="edge30" class="edge">
<title>Wheat_4(31)
&lt;28&gt;[1.097]&#45;&gt;Channel(5)
&lt;31&gt;[0.01]</title>
<path fill="none" stroke="black" d="M1505.4,-812.63C1505.4,-778.01 1505.4,-715.08 1505.4,-661.31 1505.4,-661.31 1505.4,-661.31 1505.4,-390.09 1505.4,-332.2 1493.16,-307.19 1445.4,-274.48 1365.94,-220.05 1079.12,-212.66 947.4,-212.21"/>
<polygon fill="black" stroke="black" points="947.05,-208.71 937.04,-212.19 947.03,-215.71 947.05,-208.71"/>
</g>
<!-- Wheat_5(32)
&lt;29&gt;[0.4357] -->
<g id="node32" class="node">
<title>Wheat_5(32)
&lt;29&gt;[0.4357]</title>
<ellipse fill="none" stroke="black" cx="1599.4" cy="-301.35" rx="65.52" ry="26.74"/>
<text text-anchor="middle" x="1599.4" y="-305.15" font-family="Times,serif" font-size="14.00">Wheat_5(32)</text>
<text text-anchor="middle" x="1599.4" y="-290.15" font-family="Times,serif" font-size="14.00">&lt;29&gt;[0.4357]</text>
</g>
<!-- Wheat_5(32)
&lt;29&gt;[0.4357]&#45;&gt;Channel(5)
&lt;31&gt;[0.01] -->
<g id="edge31" class="edge">
<title>Wheat_5(32)
&lt;29&gt;[0.4357]&#45;&gt;Channel(5)
&lt;31&gt;[0.01]</title>
<path fill="none" stroke="black" d="M1551.2,-282.91C1540.82,-279.68 1529.83,-276.65 1519.4,-274.48 1313.62,-231.77 1064.31,-218.41 947.23,-214.34"/>
<polygon fill="black" stroke="black" points="947.11,-210.83 937,-213.99 946.87,-217.83 947.11,-210.83"/>
</g>
<!-- Wheat_6(33)
&lt;30&gt;[0.2391] -->
<g id="node33" class="node">
<title>Wheat_6(33)
&lt;30&gt;[0.2391]</title>
<ellipse fill="none" stroke="black" cx="1693.4" cy="-391.09" rx="65.52" ry="26.74"/>
<text text-anchor="middle" x="1693.4" y="-394.89" font-family="Times,serif" font-size="14.00">Wheat_6(33)</text>
<text text-anchor="middle" x="1693.4" y="-379.89" font-family="Times,serif" font-size="14.00">&lt;30&gt;[0.2391]</text>
</g>
<!-- Wheat_6(33)
&lt;30&gt;[0.2391]&#45;&gt;Channel(5)
&lt;31&gt;[0.01] -->
<g id="edge32" class="edge">
<title>Wheat_6(33)
&lt;30&gt;[0.2391]&#45;&gt;Channel(5)
&lt;31&gt;[0.01]</title>
<path fill="none" stroke="black" d="M1697.41,-363.79C1699.83,-337.14 1698.67,-296.77 1674.4,-274.48 1621.36,-225.77 1128.81,-215.37 947.22,-213.18"/>
<polygon fill="black" stroke="black" points="947.04,-209.68 937,-213.06 946.96,-216.68 947.04,-209.68"/>
</g>
<!-- Grazing_1(12)
&lt;33&gt;[0.1945] -->
<g id="node34" class="node">
<title>Grazing_1(12)
&lt;33&gt;[0.1945]</title>
<ellipse fill="none" stroke="black" cx="1031.4" cy="-121.87" rx="67.76" ry="26.74"/>
<text text-anchor="middle" x="1031.4" y="-125.67" font-family="Times,serif" font-size="14.00">Grazing_1(12)</text>
<text text-anchor="middle" x="1031.4" y="-110.67" font-family="Times,serif" font-size="14.00">&lt;33&gt;[0.1945]</text>
</g>
<!-- Grazing_1(12)
&lt;33&gt;[0.1945]&#45;&gt;basin -->
<g id="edge33" class="edge">
<title>Grazing_1(12)
&lt;33&gt;[0.1945]&#45;&gt;basin</title>
<path fill="none" stroke="black" d="M1007.77,-96.35C997.91,-86.11 986.53,-74.31 976.91,-64.32"/>
<polygon fill="black" stroke="black" points="979.4,-61.87 969.94,-57.09 974.36,-66.72 979.4,-61.87"/>
</g>
</g>
</svg>
