<?xml version="1.0" encoding="UTF-8" standalone="no"?>
<!DOCTYPE svg PUBLIC "-//W3C//DTD SVG 1.1//EN"
 "http://www.w3.org/Graphics/SVG/1.1/DTD/svg11.dtd">
<!-- Generated by graphviz version 2.43.0 (0)
 -->
<!-- Title: TEST Pages: 1 -->
<svg width="1086pt" height="336pt"
 viewBox="0.00 0.00 1085.62 336.22" xmlns="http://www.w3.org/2000/svg" xmlns:xlink="http://www.w3.org/1999/xlink">
<g id="graph0" class="graph" transform="scale(1 1) rotate(0) translate(4 332.22)">
<title>TEST</title>
<polygon fill="white" stroke="transparent" points="-4,4 -4,-332.22 1081.62,-332.22 1081.62,4 -4,4"/>
<text text-anchor="middle" x="538.81" y="-7.8" font-family="Times,serif" font-size="14.00">L_se2_project_GrpL</text>
<!-- Corn(2)
&lt;1&gt;[0.4873] -->
<g id="node1" class="node">
<title>Corn(2)
&lt;1&gt;[0.4873]</title>
<ellipse fill="none" stroke="black" cx="60.81" cy="-301.35" rx="60.62" ry="26.74"/>
<text text-anchor="middle" x="60.81" y="-305.15" font-family="Times,serif" font-size="14.00">Corn(2)</text>
<text text-anchor="middle" x="60.81" y="-290.15" font-family="Times,serif" font-size="14.00">&lt;1&gt;[0.4873]</text>
</g>
<!-- Channel(7)
&lt;7&gt;[0.01] -->
<g id="node2" class="node">
<title>Channel(7)
&lt;7&gt;[0.01]</title>
<ellipse fill="none" stroke="black" cx="596.81" cy="-211.61" rx="54.39" ry="26.74"/>
<text text-anchor="middle" x="596.81" y="-215.41" font-family="Times,serif" font-size="14.00">Channel(7)</text>
<text text-anchor="middle" x="596.81" y="-200.41" font-family="Times,serif" font-size="14.00">&lt;7&gt;[0.01]</text>
</g>
<!-- Corn(2)
&lt;1&gt;[0.4873]&#45;&gt;Channel(7)
&lt;7&gt;[0.01] -->
<g id="edge1" class="edge">
<title>Corn(2)
&lt;1&gt;[0.4873]&#45;&gt;Channel(7)
&lt;7&gt;[0.01]</title>
<path fill="none" stroke="black" d="M104.41,-282.55C113.05,-279.5 122.13,-276.63 130.81,-274.48 271.92,-239.5 442.28,-223.24 532.87,-216.59"/>
<polygon fill="black" stroke="black" points="533.25,-220.07 542.98,-215.86 532.75,-213.09 533.25,-220.07"/>
</g>
<!-- Reservoir(5)
&lt;9&gt;[0.01] -->
<g id="node3" class="node">
<title>Reservoir(5)
&lt;9&gt;[0.01]</title>
<ellipse fill="none" stroke="black" cx="753.81" cy="-121.87" rx="60.21" ry="26.74"/>
<text text-anchor="middle" x="753.81" y="-125.67" font-family="Times,serif" font-size="14.00">Reservoir(5)</text>
<text text-anchor="middle" x="753.81" y="-110.67" font-family="Times,serif" font-size="14.00">&lt;9&gt;[0.01]</text>
</g>
<!-- Channel(7)
&lt;7&gt;[0.01]&#45;&gt;Reservoir(5)
&lt;9&gt;[0.01] -->
<g id="edge2" class="edge">
<title>Channel(7)
&lt;7&gt;[0.01]&#45;&gt;Reservoir(5)
&lt;9&gt;[0.01]</title>
<path fill="none" stroke="black" d="M632.05,-190.92C654.57,-178.33 684.01,-161.88 708.3,-148.3"/>
<polygon fill="black" stroke="black" points="710.31,-151.19 717.33,-143.26 706.9,-145.08 710.31,-151.19"/>
</g>
<!-- basin -->
<g id="node7" class="node">
<title>basin</title>
<ellipse fill="none" stroke="black" cx="825.81" cy="-41" rx="29.5" ry="18"/>
<text text-anchor="middle" x="825.81" y="-37.3" font-family="Times,serif" font-size="14.00">basin</text>
</g>
<!-- Reservoir(5)
&lt;9&gt;[0.01]&#45;&gt;basin -->
<g id="edge6" class="edge">
<title>Reservoir(5)
&lt;9&gt;[0.01]&#45;&gt;basin</title>
<path fill="none" stroke="black" d="M775.8,-96.78C785.07,-86.63 795.81,-74.87 804.95,-64.85"/>
<polygon fill="black" stroke="black" points="807.72,-67 811.88,-57.26 802.55,-62.29 807.72,-67"/>
</g>
<!-- Flax/Linola(3)
&lt;2&gt;[0.002833] -->
<g id="node4" class="node">
<title>Flax/Linola(3)
&lt;2&gt;[0.002833]</title>
<ellipse fill="none" stroke="black" cx="210.81" cy="-301.35" rx="70.92" ry="26.74"/>
<text text-anchor="middle" x="210.81" y="-305.15" font-family="Times,serif" font-size="14.00">Flax/Linola(3)</text>
<text text-anchor="middle" x="210.81" y="-290.15" font-family="Times,serif" font-size="14.00">&lt;2&gt;[0.002833]</text>
</g>
<!-- Flax/Linola(3)
&lt;2&gt;[0.002833]&#45;&gt;Channel(7)
&lt;7&gt;[0.01] -->
<g id="edge3" class="edge">
<title>Flax/Linola(3)
&lt;2&gt;[0.002833]&#45;&gt;Channel(7)
&lt;7&gt;[0.01]</title>
<path fill="none" stroke="black" d="M262.2,-282.79C271.66,-279.82 281.49,-276.92 290.81,-274.48 374.87,-252.47 473.66,-233.76 535.76,-222.85"/>
<polygon fill="black" stroke="black" points="536.53,-226.27 545.78,-221.1 535.33,-219.37 536.53,-226.27"/>
</g>
<!-- Riparian forest(4)
&lt;3&gt;[0.2065] -->
<g id="node5" class="node">
<title>Riparian forest(4)
&lt;3&gt;[0.2065]</title>
<ellipse fill="none" stroke="black" cx="379.81" cy="-301.35" rx="79.81" ry="26.74"/>
<text text-anchor="middle" x="379.81" y="-305.15" font-family="Times,serif" font-size="14.00">Riparian forest(4)</text>
<text text-anchor="middle" x="379.81" y="-290.15" font-family="Times,serif" font-size="14.00">&lt;3&gt;[0.2065]</text>
</g>
<!-- Riparian forest(4)
&lt;3&gt;[0.2065]&#45;&gt;Channel(7)
&lt;7&gt;[0.01] -->
<g id="edge4" class="edge">
<title>Riparian forest(4)
&lt;3&gt;[0.2065]&#45;&gt;Channel(7)
&lt;7&gt;[0.01]</title>
<path fill="none" stroke="black" d="M429.6,-280.22C464.48,-266.12 510.95,-247.33 546.05,-233.13"/>
<polygon fill="black" stroke="black" points="547.67,-236.25 555.63,-229.26 545.05,-229.77 547.67,-236.25"/>
</g>
<!-- Riparian forest(6)
&lt;4&gt;[0.09536] -->
<g id="node6" class="node">
<title>Riparian forest(6)
&lt;4&gt;[0.09536]</title>
<ellipse fill="none" stroke="black" cx="557.81" cy="-301.35" rx="79.81" ry="26.74"/>
<text text-anchor="middle" x="557.81" y="-305.15" font-family="Times,serif" font-size="14.00">Riparian forest(6)</text>
<text text-anchor="middle" x="557.81" y="-290.15" font-family="Times,serif" font-size="14.00">&lt;4&gt;[0.09536]</text>
</g>
<!-- Riparian forest(6)
&lt;4&gt;[0.09536]&#45;&gt;Channel(7)
&lt;7&gt;[0.01] -->
<g id="edge5" class="edge">
<title>Riparian forest(6)
&lt;4&gt;[0.09536]&#45;&gt;Channel(7)
&lt;7&gt;[0.01]</title>
<path fill="none" stroke="black" d="M569.3,-274.5C573.1,-265.95 577.4,-256.29 581.44,-247.19"/>
<polygon fill="black" stroke="black" points="584.67,-248.53 585.54,-237.97 578.28,-245.69 584.67,-248.53"/>
</g>
<!-- Road(8)
&lt;5&gt;[0.06977] -->
<g id="node8" class="node">
<title>Road(8)
&lt;5&gt;[0.06977]</title>
<ellipse fill="none" stroke="black" cx="721.81" cy="-301.35" rx="65.52" ry="26.74"/>
<text text-anchor="middle" x="721.81" y="-305.15" font-family="Times,serif" font-size="14.00">Road(8)</text>
<text text-anchor="middle" x="721.81" y="-290.15" font-family="Times,serif" font-size="14.00">&lt;5&gt;[0.06977]</text>
</g>
<!-- Road(8)
&lt;5&gt;[0.06977]&#45;&gt;Channel(7)
&lt;7&gt;[0.01] -->
<g id="edge7" class="edge">
<title>Road(8)
&lt;5&gt;[0.06977]&#45;&gt;Channel(7)
&lt;7&gt;[0.01]</title>
<path fill="none" stroke="black" d="M689.62,-277.76C673.08,-266.15 652.81,-251.92 635.44,-239.72"/>
<polygon fill="black" stroke="black" points="637.37,-236.8 627.17,-233.92 633.35,-242.53 637.37,-236.8"/>
</g>
<!-- Wheat 1(9)
&lt;6&gt;[0.02826] -->
<g id="node9" class="node">
<title>Wheat 1(9)
&lt;6&gt;[0.02826]</title>
<ellipse fill="none" stroke="black" cx="871.81" cy="-301.35" rx="65.52" ry="26.74"/>
<text text-anchor="middle" x="871.81" y="-305.15" font-family="Times,serif" font-size="14.00">Wheat 1(9)</text>
<text text-anchor="middle" x="871.81" y="-290.15" font-family="Times,serif" font-size="14.00">&lt;6&gt;[0.02826]</text>
</g>
<!-- Wheat 1(9)
&lt;6&gt;[0.02826]&#45;&gt;Channel(7)
&lt;7&gt;[0.01] -->
<g id="edge8" class="edge">
<title>Wheat 1(9)
&lt;6&gt;[0.02826]&#45;&gt;Channel(7)
&lt;7&gt;[0.01]</title>
<path fill="none" stroke="black" d="M823.07,-283.28C814.34,-280.3 805.32,-277.26 796.81,-274.48 748.14,-258.56 692.47,-241.43 652.24,-229.23"/>
<polygon fill="black" stroke="black" points="653.2,-225.87 642.62,-226.32 651.18,-232.57 653.2,-225.87"/>
</g>
<!-- Wheat 2(10)
&lt;8&gt;[0.2753] -->
<g id="node10" class="node">
<title>Wheat 2(10)
&lt;8&gt;[0.2753]</title>
<ellipse fill="none" stroke="black" cx="1016.81" cy="-301.35" rx="60.62" ry="26.74"/>
<text text-anchor="middle" x="1016.81" y="-305.15" font-family="Times,serif" font-size="14.00">Wheat 2(10)</text>
<text text-anchor="middle" x="1016.81" y="-290.15" font-family="Times,serif" font-size="14.00">&lt;8&gt;[0.2753]</text>
</g>
<!-- Wheat 2(10)
&lt;8&gt;[0.2753]&#45;&gt;Channel(7)
&lt;7&gt;[0.01] -->
<g id="edge9" class="edge">
<title>Wheat 2(10)
&lt;8&gt;[0.2753]&#45;&gt;Channel(7)
&lt;7&gt;[0.01]</title>
<path fill="none" stroke="black" d="M972.76,-282.71C964.24,-279.69 955.32,-276.78 946.81,-274.48 847.89,-247.69 730.01,-229.62 659.41,-220.23"/>
<polygon fill="black" stroke="black" points="659.71,-216.74 649.34,-218.91 658.8,-223.68 659.71,-216.74"/>
</g>
<!-- Canola(1)
&lt;10&gt;[0.4184] -->
<g id="node11" class="node">
<title>Canola(1)
&lt;10&gt;[0.4184]</title>
<ellipse fill="none" stroke="black" cx="976.81" cy="-121.87" rx="65.52" ry="26.74"/>
<text text-anchor="middle" x="976.81" y="-125.67" font-family="Times,serif" font-size="14.00">Canola(1)</text>
<text text-anchor="middle" x="976.81" y="-110.67" font-family="Times,serif" font-size="14.00">&lt;10&gt;[0.4184]</text>
</g>
<!-- Wheat 2(10)
&lt;8&gt;[0.2753]&#45;&gt;Canola(1)
&lt;10&gt;[0.4184] -->
<g id="edge10" class="edge">
<title>Wheat 2(10)
&lt;8&gt;[0.2753]&#45;&gt;Canola(1)
&lt;10&gt;[0.4184]</title>
<path fill="none" stroke="black" d="M1010.99,-274.54C1004.12,-244.05 992.65,-193.13 984.91,-158.79"/>
<polygon fill="black" stroke="black" points="988.25,-157.69 982.63,-148.71 981.42,-159.23 988.25,-157.69"/>
</g>
<!-- Canola(1)
&lt;10&gt;[0.4184]&#45;&gt;basin -->
<g id="edge11" class="edge">
<title>Canola(1)
&lt;10&gt;[0.4184]&#45;&gt;basin</title>
<path fill="none" stroke="black" d="M937.14,-100.15C911.95,-86.99 879.83,-70.22 856.57,-58.07"/>
<polygon fill="black" stroke="black" points="857.99,-54.86 847.51,-53.33 854.75,-61.06 857.99,-54.86"/>
</g>
</g>
</svg>
